<?xml version="1.0" standalone="no"?>
<!DOCTYPE svg PUBLIC "-//W3C//DTD SVG 1.1//EN" "http://www.w3.org/Graphics/SVG/1.1/DTD/svg11.dtd" >
<svg xmlns="http://www.w3.org/2000/svg">
<metadata>
Created by FontPrep 20130207 at Tue Jun 20 15:40:24 2017
 By quqjp
</metadata>
<defs>
<font id="5a4e8713752d65b9b0a0d7e5f79af5af" horiz-adv-x='1024' >
  <font-face 
    font-family="SourceHanSerifMedium"
    font-weight="500"
    font-stretch="normal"
    units-per-em="2048"
    panose-1="2 0 6 3 0 0 0 0 0 0"
    ascent="1638"
    descent="-410"
    x-height="1063"
    cap-height="1501"
    bbox="-184 -561 2269 1997"
    underline-thickness="102"
    underline-position="-205"
    unicode-range="U+0020-FFE5"
  />
<missing-glyph 
 />
    <glyph glyph-name=".notdef" 
 />
    <glyph glyph-name=".null" horiz-adv-x="0" 
 />
    <glyph glyph-name="nonmarkingreturn" horiz-adv-x="681" 
 />
    <glyph glyph-name="Identity.1" unicode=" " horiz-adv-x="524" 
 />
    <glyph glyph-name="Identity.2" unicode="!" horiz-adv-x="645" 
d="M199 1399q0 137 124 137t123 -137q0 -70 -59 -600l-31 -328h-67l-31 328q-59 565 -59 600zM463 112q0 -56 -41 -98t-99 -43q-58 0 -99 41q-40 40 -40 98t40 100t98 42t100 -42q41 -42 41 -98z" />
    <glyph glyph-name="Identity.3" unicode="#" horiz-adv-x="1181" 
d="M1128 889h-243l-47 -307h217v-174h-244l-63 -408h-86l61 408h-365l-61 -408h-88l61 408h-217v174h244l47 307h-219v170h246l59 397h88l-59 -397h364l60 397h88l-62 -397h219v-170zM750 582l47 307h-365l-47 -307h365z" />
    <glyph glyph-name="Identity.4" unicode="$" horiz-adv-x="1124" 
d="M1036 370q0 -157 -112 -267t-303 -128v-233h-80v229q-182 2 -300 90t-126 232q31 72 98 72q94 0 125 -138l31 -141q76 -18 172 -23v572l-37 12q-184 70 -276 170q-91 100 -91 262t114 274t292 124v204h84v-204q156 -13 259 -101t113 -221q-20 -70 -96 -70q-96 0 -127 140
l-31 141q-61 16 -118 18v-563l14 -4q217 -80 306 -185t89 -262zM543 852v528q-105 -16 -169 -83t-65 -173q1 -190 234 -272zM621 606v-538q111 16 175 86t64 174t-54 164t-185 114z" />
    <glyph glyph-name="Identity.5" unicode="%" horiz-adv-x="1931" 
d="M1464 907q131 -1 220 -117q90 -116 90 -348t-90 -347t-220 -115q-131 0 -221 116t-90 346q0 231 90 348t221 117zM1307 442q1 -397 157 -397t156 397t-156 398q-157 -1 -157 -398zM469 1481q131 0 220 -118t89 -349t-89 -347t-220 -116t-221 116t-90 347t90 349t221 118z
M311 1014q0 -397 158 -398q154 0 154 398t-156 397q-156 0 -156 -397zM487 -55l-61 49l1047 1507l61 -47z" />
    <glyph glyph-name="Identity.6" unicode="&#x26;" horiz-adv-x="1611" 
d="M1339 -27q-162 0 -258 99l-90 100q-172 -201 -452 -201q-209 0 -340 117t-131 291q0 295 342 463l-17 18q-152 174 -151 354q0 144 102 232t262 88t249 -79t89 -201t-80 -213t-254 -183q58 -66 447 -485q133 213 186 481l-180 27v80h453v-80l-173 -27q-70 -297 -233 -539
l213 -227l188 -18l-6 -74q-90 -23 -166 -23zM604 1458q-86 0 -146 -60t-61 -151q0 -139 133 -296q23 -26 33 -40q238 160 238 332q1 99 -55 157t-142 58zM598 104q203 0 340 127q-63 72 -240 271q-205 242 -241 284q-205 -123 -205 -346q0 -136 94 -236t252 -100z" />
    <glyph glyph-name="Identity.7" unicode="'" horiz-adv-x="407" 
d="M94 1520q0 133 110 133t109 -133q0 -63 -47 -377l-28 -174h-68l-29 174q-3 23 -25 171t-22 206z" />
    <glyph glyph-name="Identity.8" unicode="(" horiz-adv-x="757" 
d="M352 624q0 -282 76 -511t270 -506l-47 -37q-469 438 -469 1052t469 1055l47 -39q-198 -280 -272 -506t-74 -508z" />
    <glyph glyph-name="Identity.9" unicode=")" horiz-adv-x="757" 
d="M406 624q0 282 -75 509t-270 505l48 39q467 -442 467 -1054t-467 -1053l-48 37q195 281 270 508t75 509z" />
    <glyph glyph-name="Identity.10" unicode="*" horiz-adv-x="987" 
d="M420 1602q0 75 75 75t74 -75q0 -6 -32 -240l-19 -115l105 51q31 14 95 48t101 47q37 14 61 14t42 -23q20 -22 20 -62t-50 -58t-134 -30t-107 -15l-116 -19l81 -86q23 -23 91 -86t81 -93q13 -29 13 -53t-28 -48t-57 -14q-28 10 -50 34q-21 24 -35 51t-24 43q-9 16 -28 56
t-32 61l-53 106l-54 -106q-12 -23 -48 -99t-64 -105q-27 -30 -41 -36t-36 -6q-22 -1 -42 19q-58 57 51 167q27 28 111 109l84 86l-117 19q-245 27 -279 69q-12 16 -12 45q-1 29 19 51t54 23q34 -1 77 -23t89 -47t76 -39l107 -53l-18 117q-31 193 -31 240z" />
    <glyph glyph-name="Identity.11" unicode="+" horiz-adv-x="1189" 
d="M1124 795v-109h-469v-508h-116v508h-471v109h471v497h116v-497h469z" />
    <glyph glyph-name="Identity.12" unicode="," horiz-adv-x="673" 
d="M184 139q0 59 35 99t101 38q66 0 129 -61q25 -72 24 -158q0 -183 -122 -333t-290 -218l-30 66q258 131 321 352l-86 66q-82 59 -82 149z" />
    <glyph glyph-name="Identity.13" unicode="-" horiz-adv-x="702" 
d="M90 498v131h522v-131h-522z" />
    <glyph glyph-name="Identity.14" unicode="." horiz-adv-x="673" 
d="M489 123q0 -63 -45 -107t-107 -45q-62 0 -108 45q-45 45 -45 108q0 64 44 108t108 44t108 -45q45 -45 45 -108z" />
    <glyph glyph-name="Identity.15" unicode="/" horiz-adv-x="737" 
d="M8 -358l602 1949h119l-598 -1949h-123z" />
    <glyph glyph-name="Identity.16" unicode="0" horiz-adv-x="1124" 
d="M92 756q0 400 136 588t335 188t334 -190t135 -586q0 -397 -134 -591t-335 -194t-336 193t-135 592zM565 1442q-274 0 -274 -692t274 -693q266 1 266 693t-266 692z" />
    <glyph glyph-name="Identity.17" unicode="1" horiz-adv-x="1124" 
d="M995 0h-827v70l319 45q4 238 5 358v881l-299 -29v78l460 121l31 -23l-8 -323v-705q0 -120 4 -358l315 -45v-70z" />
    <glyph glyph-name="Identity.18" unicode="2" horiz-adv-x="1124" 
d="M1032 174v-174h-921v139q156 174 333 377t252 340q76 137 76 275q0 137 -75 225t-199 88q-55 0 -121 -14l-45 -164q-34 -142 -123 -142q-72 0 -109 70q23 162 149 250q127 88 319 88t296 -108t105 -289q0 -139 -92 -275t-327 -379q-235 -244 -296 -307h778z" />
    <glyph glyph-name="Identity.19" unicode="3" horiz-adv-x="1124" 
d="M666 793q364 -66 364 -411q0 -171 -139 -291t-363 -120q-174 0 -286 77t-144 235q37 72 109 71q49 0 76 -34t47 -113l37 -133q59 -16 129 -17q158 1 248 95t90 252t-90 247q-90 90 -259 90h-106v101h88q152 0 240 82t88 226t-73 219t-206 75q-59 0 -108 -12l-37 -132
q-18 -72 -47 -104t-80 -31q-76 0 -105 78q29 141 144 215t293 74t292 -100t115 -267q0 -129 -83 -227t-234 -145z" />
    <glyph glyph-name="Identity.20" unicode="4" horiz-adv-x="1124" 
d="M1087 598v-131h-237v-467h-180v467h-609v108l664 949h125v-926h237zM670 598v715l-496 -715h496z" />
    <glyph glyph-name="Identity.21" unicode="5" horiz-adv-x="1124" 
d="M539 934q221 0 355 -125t134 -346t-143 -357t-381 -135q-350 0 -418 312q29 72 107 71q49 0 75 -30t45 -111l37 -135q68 -20 142 -21q162 -1 250 103t89 282q0 178 -94 274t-258 97q-115 0 -215 -29l-57 17l47 700h733v-176h-647l-29 -424q106 33 228 33z" />
    <glyph glyph-name="Identity.22" unicode="6" horiz-adv-x="1124" 
d="M566 -29q-216 0 -346 171t-130 472q0 233 98 428t297 326t469 164l13 -59q-317 -74 -481 -249t-193 -454q143 148 331 148t299 -123t111 -341t-126 -350t-342 -133zM287 643q0 -287 77 -437t218 -149q120 1 190 97t70 279t-71 273t-196 91q-169 0 -288 -109v-45z" />
    <glyph glyph-name="Identity.23" unicode="7" horiz-adv-x="1124" 
d="M113 1501h911v-110l-530 -1391h-172l-21 20l598 1305h-786v176z" />
    <glyph glyph-name="Identity.24" unicode="8" horiz-adv-x="1124" 
d="M1020 354q0 -162 -130 -272q-130 -111 -335 -111q-205 -1 -330 97t-125 272q0 127 81 223t245 174q-279 154 -279 422q0 169 120 271t298 102q179 0 283 -98t104 -252q0 -223 -270 -377q178 -85 258 -187t80 -264zM793 1182q-1 110 -63 186t-166 76t-175 -68
q-72 -68 -72 -174t65 -195t230 -169q98 76 140 156q42 78 41 188zM279 349q-1 -126 79 -210t206 -84t201 78t75 196q0 119 -76 201t-268 172q-115 -72 -166 -150t-51 -203z" />
    <glyph glyph-name="Identity.25" unicode="9" horiz-adv-x="1124" 
d="M502 600q-182 0 -307 124t-125 334t132 342t346 132t340 -162t126 -414t-83 -444q-83 -190 -270 -338t-466 -215l-17 70q284 96 434 265t191 419q-119 -113 -301 -113zM572 719q140 0 241 92q4 70 4 107q0 264 -76 395q-75 131 -199 131t-202 -96t-78 -272t85 -267
q85 -90 225 -90z" />
    <glyph glyph-name="Identity.26" unicode=":" horiz-adv-x="673" 
d="M489 123q0 -63 -45 -107t-107 -45q-62 0 -108 45q-45 45 -45 108q0 64 44 108t108 44t108 -45q45 -45 45 -108zM337 799q-62 0 -108 45q-45 46 -45 108t44 107t108 45t108 -45q45 -45 45 -109t-45 -107q-45 -44 -107 -44z" />
    <glyph glyph-name="Identity.27" unicode=";" horiz-adv-x="673" 
d="M184 139q0 59 35 99t101 38q66 0 129 -61q25 -72 24 -158q0 -183 -122 -333t-290 -218l-30 66q258 131 321 352l-86 66q-82 59 -82 149zM337 799q-62 0 -108 45q-45 46 -45 108t44 107t108 45t108 -45q45 -45 45 -109t-45 -107q-45 -44 -107 -44z" />
    <glyph glyph-name="Identity.28" unicode="&#x3c;" horiz-adv-x="1189" 
d="M1059 1194l-805 -453l805 -454l-58 -97l-874 508v84l874 508z" />
    <glyph glyph-name="Identity.29" unicode="=" horiz-adv-x="1189" 
d="M1124 913h-1056v107h1056v-107zM1124 459h-1056v108h1056v-108z" />
    <glyph glyph-name="Identity.30" unicode="&#x3e;" horiz-adv-x="1189" 
d="M188 1290l875 -508v-84l-875 -508l-55 97l803 454l-803 453z" />
    <glyph glyph-name="Identity.31" unicode="?" horiz-adv-x="923" 
d="M780 1044q0 -211 -217 -288l-76 -29q-74 -29 -93 -53t-21 -78v-127h-70l-27 92q-34 119 -34 162t39 79t137 70l117 43q141 51 141 170q-1 80 -58 164l-311 51q-86 16 -119 46q-32 30 -32 76t26 73q27 27 84 43q160 -21 328 -145q80 -59 133 -151t53 -198zM334 252
q57 0 98 -42t41 -98t-41 -98t-98 -43q-57 0 -100 42q-42 43 -42 99t42 98q43 42 100 42z" />
    <glyph glyph-name="Identity.32" unicode="@" horiz-adv-x="1873" 
d="M1690 758q0 276 -180 448t-453 172q-186 0 -350 -74q-318 -144 -452 -489q-65 -164 -65 -343q0 -178 60 -324t162 -236q212 -186 516 -186q199 0 370 77l23 -55q-195 -96 -430 -96q-352 0 -582 210q-229 210 -229 595q0 273 129 503t355 362t503 132q339 0 533 -200
t194 -523q0 -158 -49 -285q-49 -128 -125 -200q-156 -149 -320 -148q-96 0 -155 50t-74 131q-156 -180 -309 -181q-102 0 -171 74t-69 221q0 258 185 475q154 188 333 189q84 0 148 -62l121 62l37 -29l-132 -655q-37 -186 121 -187q135 0 245 148t110 424zM1030 965
q-127 0 -227 -138q-129 -176 -129 -393t155 -217q95 0 232 119l104 553q-55 76 -135 76z" />
    <glyph glyph-name="Identity.33" unicode="A" horiz-adv-x="1486" 
d="M1466 0h-610v78l221 26l-131 394h-520l-129 -392l219 -28v-78h-500v78l183 28l477 1405h131l483 -1413l176 -20v-78zM455 586h463l-234 696z" />
    <glyph glyph-name="Identity.34" unicode="B" horiz-adv-x="1402" 
d="M100 1501h641q233 0 361 -100t129 -264q0 -125 -88 -221t-269 -132q430 -62 432 -388q0 -158 -146 -277q-148 -119 -447 -119h-613v78l209 22q4 199 4 600v109q0 395 -4 592l-209 22v78zM680 1413h-158q-4 -193 -4 -590h119q203 0 298 74q95 73 95 227t-86 222t-264 67z
M670 90q208 0 316 82t108 241t-108 239t-339 79h-129q0 -438 4 -641h148z" />
    <glyph glyph-name="Identity.35" unicode="C" horiz-adv-x="1417" 
d="M870 -33q-340 0 -551 217q-211 218 -211 564t217 567q216 221 545 221q238 0 428 -111l5 -329h-123l-56 286q-111 55 -229 56q-243 0 -399 -182t-156 -506q0 -326 150 -505t397 -179q141 0 258 55l55 285h123l-4 -330q-199 -109 -449 -109z" />
    <glyph glyph-name="Identity.36" unicode="D" horiz-adv-x="1589" 
d="M100 1501h654q334 1 532 -197t197 -552q0 -354 -213 -553t-557 -199h-613v78l209 22q4 197 4 625v78q0 401 -4 598l-209 22v78zM698 90q266 0 409 173q142 173 142 491t-138 488t-394 171h-195q-4 -199 -4 -610v-78q0 -432 4 -635h176z" />
    <glyph glyph-name="Identity.37" unicode="E" horiz-adv-x="1351" 
d="M100 0v78l209 22q4 197 4 594v111q0 399 -4 596l-209 22v78h1112l13 -395h-111l-59 297h-533q-4 -195 -4 -594h338l33 221h92v-528h-92l-31 217h-340q0 -422 4 -621h576l59 301h111l-13 -399h-1155z" />
    <glyph glyph-name="Identity.38" unicode="F" horiz-adv-x="1298" 
d="M518 809h354l29 221h94v-545h-94l-29 234h-354q0 -420 4 -617l213 -24v-78h-635v78l209 22q4 197 4 594v111q0 399 -4 596l-209 22v78h1114l13 -395h-111l-59 297h-535q-4 -195 -4 -594z" />
    <glyph glyph-name="Identity.39" unicode="G" horiz-adv-x="1529" 
d="M1495 715v-78l-135 -12q-6 -207 -6 -426v-101q-250 -131 -488 -131q-336 0 -547 219q-211 220 -211 564t215 565q214 221 549 221q268 0 449 -111l4 -331h-121l-55 278q-113 66 -254 66q-247 0 -401 -184t-154 -504t150 -502t411 -182q129 0 252 45v88q0 141 -4 419
l-238 19v78h584z" />
    <glyph glyph-name="Identity.40" unicode="H" horiz-adv-x="1767" 
d="M1454 805v-111q0 -395 4 -594l209 -22v-78h-629v78l207 22q4 193 4 625h-731q0 -430 4 -625l207 -22v-78h-629v78l209 22q4 197 4 594v111q0 399 -4 596l-209 22v78h629v-78l-207 -22q-4 -193 -4 -588h731q0 393 -4 588l-207 22v78h629v-78l-209 -22q-4 -195 -4 -596z
" />
    <glyph glyph-name="Identity.41" unicode="I" horiz-adv-x="831" 
d="M518 805v-111q0 -395 4 -592l209 -24v-78h-631v78l209 22q4 197 4 594v111q0 399 -4 596l-209 22v78h631v-78l-209 -22q-4 -195 -4 -596z" />
    <glyph glyph-name="Identity.42" unicode="J" horiz-adv-x="835" 
d="M760 1501v-78l-209 -22q-4 -195 -4 -594v-344q0 -337 -32 -489q-33 -152 -151 -243t-275 -91t-187 102q16 109 135 108q76 0 160 -67l59 -51q100 88 100 311q0 47 -7 454t-11 904l-229 22v78h651z" />
    <glyph glyph-name="Identity.43" unicode="K" horiz-adv-x="1497" 
d="M1495 0h-575v78l186 22l-371 688l-223 -268q0 -268 4 -418l211 -24v-78h-627v78l209 22q4 197 4 594v111q0 399 -4 596l-209 22v78h629v-78l-213 -22q-4 -195 -4 -596v-154l602 742l-178 30v78h514v-78l-213 -26l-381 -463l465 -836l174 -20v-78z" />
    <glyph glyph-name="Identity.44" unicode="L" horiz-adv-x="1327" 
d="M100 0v78l209 22q4 199 4 588v117q0 401 -4 596l-209 22v78h633v-78l-211 -22q-4 -197 -4 -594v-150q0 -365 4 -561h516l74 326h117l-17 -422h-1112z" />
    <glyph glyph-name="Identity.45" unicode="M" horiz-adv-x="2021" 
d="M588 0h-502v78l203 28l2 1293l-205 24v78h410l505 -1245l486 1245h432v-78l-209 -22q-4 -195 -4 -596v-111q0 -395 4 -594l207 -22v-78h-610v78l194 22q4 195 4 588l2 602l-506 -1290h-96l-524 1286l12 -469v-711l195 -28v-78z" />
    <glyph glyph-name="Identity.46" unicode="N" horiz-adv-x="1646" 
d="M1559 1501v-78l-189 -26l-2 -1411h-80l-915 1257l4 -1134l239 -31v-78h-530v78l188 26l5 1270l-23 29l-160 20v78h346l830 -1147l-4 1041l-240 28v78h531z" />
    <glyph glyph-name="Identity.47" unicode="O" horiz-adv-x="1583" 
d="M795 1536q273 0 471 -202q96 -97 153 -248t58 -334q0 -354 -202 -570q-203 -216 -483 -215q-280 0 -482 210t-201 575q0 178 57 328q107 284 373 402q123 54 256 54zM340 752q0 -399 200 -588q105 -100 255 -101q219 0 333 200t115 489q0 398 -194 585q-104 100 -254 101
q-221 0 -338 -200t-117 -486z" />
    <glyph glyph-name="Identity.48" unicode="P" horiz-adv-x="1320" 
d="M637 600h-119q0 -328 4 -498l213 -24v-78h-635v78l209 22q4 197 4 594v111q0 399 -4 596l-209 22v78h602q276 0 420 -120q144 -119 144 -323t-154 -331t-475 -127zM666 1413h-144q-4 -199 -4 -608v-115h144q204 0 298 97t95 270q0 356 -389 356z" />
    <glyph glyph-name="Identity.49" unicode="Q" horiz-adv-x="1583" 
d="M795 1536q273 0 471 -202q96 -97 153 -248t58 -334q0 -326 -172 -535t-424 -244q2 -164 87 -255t230 -91q63 0 172 29l23 -62q-117 -74 -275 -73q-204 0 -318 131t-118 325q-246 41 -410 245t-163 530q0 178 57 328q107 284 373 402q123 54 256 54zM340 752
q0 -399 200 -588q105 -100 255 -101q219 0 333 200t115 489q0 398 -194 585q-104 100 -254 101q-221 0 -338 -200t-117 -486z" />
    <glyph glyph-name="Identity.50" unicode="R" horiz-adv-x="1462" 
d="M1261 -23q-103 0 -156 33q-52 33 -71 111l-92 356q-33 133 -97 178q-65 45 -208 45h-119q0 -406 4 -598l209 -24v-78h-631v78l209 22q4 197 4 594v111q0 399 -4 596l-209 22v78h629q256 0 398 -103t143 -290q0 -138 -100 -242t-285 -137q106 -23 168 -88q61 -66 100 -195
l104 -352l175 -16v-78q-68 -23 -171 -23zM518 786h182q174 0 266 90t93 234q0 303 -342 303h-195q-4 -199 -4 -627z" />
    <glyph glyph-name="Identity.51" unicode="S" horiz-adv-x="1153" 
d="M1061 393q1 -197 -145 -311t-390 -115q-244 0 -430 119l15 315h114l58 -280q101 -55 251 -55t246 72t96 194q0 120 -62 184q-64 64 -220 125l-84 35q-188 76 -288 182q-99 106 -99 281t141 286q140 111 352 111t375 -119l-14 -293h-117l-57 269q-77 45 -199 45t-210 -69
t-87 -183q-1 -114 63 -184t191 -119l90 -35q223 -88 317 -192t93 -263z" />
    <glyph glyph-name="Identity.52" unicode="T" horiz-adv-x="1353" 
d="M780 805v-111q0 -395 4 -592l232 -24v-78h-676v78l231 24q4 195 4 592v111q0 401 -4 598h-352l-61 -301h-113l18 399h1231l15 -399h-109l-63 301h-353q-4 -197 -4 -598z" />
    <glyph glyph-name="Identity.53" unicode="U" horiz-adv-x="1634" 
d="M1556 1501v-78l-200 -26l-2 -789q0 -330 -140 -486t-392 -155q-251 -1 -396 147t-145 457v236q0 399 -2 596l-189 20v78h627v-78l-228 -24q-4 -195 -4 -592v-184q-1 -275 97 -393t290 -118t289 128q96 127 96 422l-2 731l-235 30v78h536z" />
    <glyph glyph-name="Identity.54" unicode="V" horiz-adv-x="1505" 
d="M1483 1501v-76l-195 -26l-471 -1413h-94l-524 1419l-170 18v78h608v-86l-219 -18l393 -1129l365 1127l-207 20v86h514z" />
    <glyph glyph-name="Identity.55" unicode="W" horiz-adv-x="2162" 
d="M2138 1501v-78l-192 -24l-381 -1413h-95l-387 1188l-370 -1188h-92l-406 1417l-184 20v78h604v-78l-211 -24l291 -1077l346 1077l-225 24v78h602v-78l-230 -26l342 -1082l289 1080l-211 28v78h510z" />
    <glyph glyph-name="Identity.56" unicode="X" horiz-adv-x="1449" 
d="M1425 0h-626v78l209 22l-322 549l-334 -543l187 -30v-76h-508v78l211 31l397 618l-397 676l-197 20v78h633v-78l-211 -22l297 -504l305 498l-199 28v78h512v-78l-202 -26l-371 -578l424 -719l192 -22v-78z" />
    <glyph glyph-name="Identity.57" unicode="Y" horiz-adv-x="1417" 
d="M1049 0h-674v78l231 24q4 143 4 484l-403 819l-170 18v78h622v-78l-219 -22l328 -707l332 703l-211 26v78h508v-78l-195 -26l-389 -803q0 -344 4 -492l232 -24v-78z" />
    <glyph glyph-name="Identity.58" unicode="Z" horiz-adv-x="1236" 
d="M47 0v76l864 1327h-649l-69 -301h-121l20 399h1051v-78l-862 -1327h716l72 310h119l-14 -406h-1127z" />
    <glyph glyph-name="Identity.59" unicode="[" horiz-adv-x="714" 
d="M387 893v-539q0 -401 4 -602l254 -28v-80h-420q6 231 6 710v539q0 475 -6 711h420v-80l-254 -29q-4 -197 -4 -602z" />
    <glyph glyph-name="Identity.60" unicode="\" horiz-adv-x="737" 
d="M727 -358h-119l-600 1949h119z" />
    <glyph glyph-name="Identity.61" unicode="]" horiz-adv-x="714" 
d="M485 893v-539q0 -475 7 -710h-422v80l254 28q4 197 4 602v539q0 401 -4 602l-254 29v80h422q-7 -232 -7 -711z" />
    <glyph glyph-name="Identity.62" unicode="^" horiz-adv-x="1189" 
d="M995 535l-82 -66l-315 500l-311 -500l-84 66l336 550h118z" />
    <glyph glyph-name="Identity.63" unicode="_" horiz-adv-x="1150" 
d="M90 -141v131h971v-131h-971z" />
    <glyph glyph-name="Identity.64" unicode="`" horiz-adv-x="897" 
d="M178 1608q0 46 24 68t56 22q66 0 121 -94q100 -158 194 -314l-47 -37q-127 117 -270 240q-78 68 -78 115z" />
    <glyph glyph-name="Identity.65" unicode="a" horiz-adv-x="1142" 
d="M936 -25q-82 -1 -134 47t-67 130q-100 -100 -171 -140q-70 -40 -182 -41q-112 0 -196 72t-84 192q0 119 80 197t291 154q104 39 258 73v70q0 162 -49 220t-166 59q-57 0 -127 -19l-43 -153q-27 -104 -115 -104t-98 85q29 129 145 203t292 74t261 -90q84 -90 84 -295v-488
q0 -143 82 -143q45 0 90 55l41 -43q-70 -115 -192 -115zM293 270q0 -80 50 -124q49 -44 119 -44t120 26t149 105v357q-106 -31 -224 -75t-166 -105q-48 -60 -48 -140z" />
    <glyph glyph-name="Identity.66" unicode="b" horiz-adv-x="1298" 
d="M767 1094q189 0 310 -148t121 -403q0 -254 -128 -413t-322 -159t-324 160l-18 -154l-334 23v70l168 24q4 229 4 377v1008l-183 18v68l340 94l29 -17l-6 -319v-397q154 168 343 168zM693 86q136 0 222 110t86 330t-80 337q-81 118 -217 118t-276 -129v-643
q129 -123 265 -123z" />
    <glyph glyph-name="Identity.67" unicode="c" horiz-adv-x="1095" 
d="M94 528q0 256 155 411t369 155q150 0 261 -81t133 -206q-18 -82 -108 -82t-109 104l-43 158q-61 20 -121 21q-156 0 -250 -122t-94 -335t102 -334t268 -121q199 0 314 170l45 -20q-102 -274 -416 -275q-229 0 -368 151q-138 150 -138 406z" />
    <glyph glyph-name="Identity.68" unicode="d" horiz-adv-x="1275" 
d="M553 -29q-197 0 -325 153q-128 152 -128 404t134 409t346 157q172 0 294 -146v533l-188 16v68l346 94l29 -17l-6 -319v-1233l182 -20v-70l-348 -23l-12 154q-127 -160 -324 -160zM607 981q-130 0 -220 -113t-90 -338q0 -224 86 -334t230 -110t257 127v649
q-133 119 -263 119z" />
    <glyph glyph-name="Identity.69" unicode="e" horiz-adv-x="1138" 
d="M670 96q104 0 177 41t138 121l45 -31q-133 -256 -424 -256q-229 -1 -367 147q-139 148 -139 403t151 414t349 159t316 -117t118 -311q0 -76 -16 -125l-721 2q2 -217 102 -332t271 -115zM852 748q0 106 -71 183t-181 77t-197 -98q-88 -98 -104 -283l432 -4q69 -1 95 31
t26 94z" />
    <glyph glyph-name="Identity.70" unicode="f" horiz-adv-x="796" 
d="M735 1681q182 0 215 -118q-4 -43 -38 -71t-102 -28t-146 74l-62 53q-172 -111 -158 -528h312v-98h-307v-494q0 -125 4 -375l204 -26v-70h-579v70l180 24q6 190 6 377v494h-188v79l188 25q16 180 53 290t109 185q127 137 309 137z" />
    <glyph glyph-name="Identity.71" unicode="g" horiz-adv-x="1161" 
d="M739 133q361 1 361 -295q0 -148 -146 -262t-395 -113q-247 0 -363 75t-116 202q0 74 50 133t167 115q-145 45 -145 174q0 104 153 248q-172 96 -172 317q0 172 113 269q113 98 293 98t282 -88l256 86l33 -23v-133l-227 6q59 -92 59 -215q0 -172 -112 -271t-291 -100
q-96 0 -179 29q-61 -78 -61 -139t32 -87t111 -26h297zM254 -228q0 -218 318 -218q162 0 263 65q101 66 101 159q0 191 -221 191h-258q-49 0 -111 4q-92 -91 -92 -201zM540 1016q-106 0 -168 -80t-62 -212t58 -212q60 -80 165 -80t168 83t63 214t-59 209t-165 78z" />
    <glyph glyph-name="Identity.72" unicode="h" horiz-adv-x="1351" 
d="M1282 0h-516v70l168 24q4 225 4 377v209q0 152 -45 212t-143 60q-158 0 -322 -149v-332q0 -147 4 -377l156 -24v-70h-516v70l168 24q4 229 4 377v1010l-183 16v68l340 94l29 -17l-6 -319v-440q86 96 194 153t216 58q145 0 217 -98t71 -312v-213q0 -152 4 -377l156 -24
v-70z" />
    <glyph glyph-name="Identity.73" unicode="i" horiz-adv-x="673" 
d="M596 0h-516v70l172 24q4 229 4 377v119q0 150 -6 297l-182 16v68l344 121l30 -21l-4 -299v-301q0 -148 4 -377l154 -24v-70zM343 1350q-60 0 -102 40t-42 100t42 98t102 38t102 -39t42 -98t-42 -99t-102 -40z" />
    <glyph glyph-name="Identity.74" unicode="j" horiz-adv-x="626" 
d="M340 1626q61 0 103 -39t42 -98t-42 -99t-102 -40t-102 40t-42 100t41 98t102 38zM428 229q0 -299 -25 -434t-104 -225q-113 -129 -281 -129q-94 0 -146 37t-56 84q29 90 120 90t173 -68l53 -43q23 23 41 62q49 121 49 622v363q0 174 -8 299l-176 16v68l338 121l28 -21
l-6 -299v-543z" />
    <glyph glyph-name="Identity.75" unicode="k" horiz-adv-x="1230" 
d="M1231 0h-305l-348 571l-150 -151q0 -117 4 -326l176 -24v-70h-545v70l177 24q4 246 4 377v1010l-183 16v68l347 94l30 -17l-10 -319v-788l406 417l-177 37v74h517v-74l-209 -28l-258 -261l378 -610l146 -20v-70z" />
    <glyph glyph-name="Identity.76" unicode="l" horiz-adv-x="673" 
d="M612 0h-551v70l179 24q4 246 4 377v1010l-183 16v68l347 94l30 -17l-10 -319v-852q0 -131 4 -377l180 -24v-70z" />
    <glyph glyph-name="Identity.77" unicode="m" horiz-adv-x="2019" 
d="M1952 0h-514v70l166 24q4 225 4 377v211q0 152 -44 210t-145 58q-143 0 -307 -149q6 -51 6 -115v-215q0 -209 6 -377l154 -24v-70h-516v70l170 24q4 225 4 377v207q0 150 -43 211t-141 61q-143 0 -306 -147v-332q0 -147 5 -377l155 -24v-70h-516v70l166 24q4 229 4 377
v117q0 205 -6 295l-178 18v68l315 123l31 -21l18 -182q182 205 392 205t266 -211q174 211 405 211q287 0 287 -389v-234q0 -152 4 -377l158 -24v-70z" />
    <glyph glyph-name="Identity.78" unicode="n" horiz-adv-x="1359" 
d="M1292 0h-516v70l166 24q4 225 4 377v209q0 150 -43 211t-143 61q-150 0 -314 -149v-332q0 -147 5 -377l155 -24v-70h-516v70l166 24q4 229 4 377v117q0 160 -6 295l-178 18v68l315 123l31 -21l18 -184q86 96 194 151t210 56q145 0 216 -98t70 -310v-215q1 -152 5 -377
l157 -24v-70z" />
    <glyph glyph-name="Identity.79" unicode="o" horiz-adv-x="1230" 
d="M305 530q-1 -230 79 -352q80 -121 228 -121t231 121q81 121 81 351q0 231 -81 355t-229 124t-228 -124q-81 -124 -81 -354zM613 -29q-213 -1 -363 147t-150 411t152 414t362 151t364 -151q152 -151 152 -415t-152 -410t-365 -147z" />
    <glyph glyph-name="Identity.80" unicode="p" horiz-adv-x="1306" 
d="M777 1094q187 0 308 -152t121 -406t-129 -409q-129 -156 -320 -156t-315 150v-178q0 -127 4 -381l205 -31v-68h-573v68l182 29q4 254 4 377v651q0 160 -6 295l-180 18v68l315 123l31 -21l14 -143q152 166 339 166zM704 86q136 0 222 109t86 329t-79 338q-79 119 -209 119
t-275 -123v-661q119 -111 255 -111z" />
    <glyph glyph-name="Identity.81" unicode="q" horiz-adv-x="1249" 
d="M1245 -537h-569v68l201 29q4 254 4 377v204q-131 -170 -330 -170t-325 152q-126 153 -126 403t134 409t328 159t323 -160l153 158l29 -21l-6 -305v-829q0 -127 4 -377l180 -29v-68zM608 981q-132 0 -222 -114q-89 -114 -89 -340q0 -225 86 -333q87 -108 231 -108t263 133
v635q-137 127 -269 127z" />
    <glyph glyph-name="Identity.82" unicode="r" horiz-adv-x="948" 
d="M772 1094q53 0 97 -23t65 -61q0 -154 -127 -154q-70 0 -139 64l-27 24q-131 -96 -195 -297v-176q0 -145 5 -375l186 -26v-70h-545v70l164 24q4 225 4 377v117q0 160 -6 295l-178 18v68l315 123l31 -21l22 -270q54 137 144 215t184 78z" />
    <glyph glyph-name="Identity.83" unicode="s" horiz-adv-x="972" 
d="M887 278q0 -122 -115 -214t-302 -93q-187 0 -355 84l-4 246h106l49 -207q80 -37 196 -37t182 48q66 49 65 127t-49 122t-160 88l-105 35q-133 49 -204 122t-71 193t105 210q105 92 277 92t323 -93l-8 -227h-100l-43 191q-82 41 -174 41t-150 -44t-57 -119q0 -75 45 -116
t164 -84l78 -29q162 -57 234 -136q72 -78 73 -200z" />
    <glyph glyph-name="Identity.84" unicode="t" horiz-adv-x="735" 
d="M213 965h-190v79l200 25l60 303h129l-13 -309h301v-98h-303v-723q0 -168 129 -168q66 0 154 63l45 -51q-92 -115 -260 -115q-254 0 -254 262l2 187v545z" />
    <glyph glyph-name="Identity.85" unicode="u" horiz-adv-x="1316" 
d="M506 -29q-297 0 -293 406l6 571l-162 33v66l330 32l23 -22l-11 -318v-352q0 -145 45 -207t142 -63q166 0 313 147l6 682l-160 31v67l324 35l21 -22l-7 -318v-647l154 -24v-68l-311 -18l-21 202q-172 -213 -399 -213z" />
    <glyph glyph-name="Identity.86" unicode="v" horiz-adv-x="1132" 
d="M1112 1063v-74l-127 -28l-367 -975h-92l-403 985l-127 18v74h536v-74l-194 -22l285 -756l260 750l-185 28v74h414z" />
    <glyph glyph-name="Identity.87" unicode="w" horiz-adv-x="1716" 
d="M1698 1063v-74l-127 -26l-328 -977h-80q-215 559 -297 819l-299 -819h-80l-360 983l-129 20v74h508v-74l-176 -24l243 -732l261 730l-172 26v74h487v-74l-172 -28l270 -719l217 719l-176 28v74h410z" />
    <glyph glyph-name="Identity.88" unicode="x" horiz-adv-x="1175" 
d="M1153 0h-539v70l170 24l-239 346l-260 -344l174 -26v-70h-439v70l144 22l332 418l-312 457l-145 22v74h498v-74l-146 -24l232 -332l247 330l-155 26v74h413v-74l-131 -22l-327 -404l327 -471l156 -22v-70z" />
    <glyph glyph-name="Identity.89" unicode="y" horiz-adv-x="1146" 
d="M1149 1063v-70l-125 -20l-377 -996q-106 -283 -216 -409t-234 -127q-82 0 -142 40q-59 40 -59 101q10 45 50 69t93 23q76 0 164 -82l16 -16q129 100 218 334l10 24l-418 1043l-127 16v70h533v-70l-195 -20l295 -799l283 797l-203 22v70h434z" />
    <glyph glyph-name="Identity.90" unicode="z" horiz-adv-x="1021" 
d="M72 0v72l649 909h-473l-66 -254l-98 8l16 328h834v-70l-645 -909h506l71 276h101l-23 -360h-872z" />
    <glyph glyph-name="Identity.91" unicode="{" horiz-adv-x="772" 
d="M420 1328q0 -98 26 -244t27 -187q0 -233 -221 -272q221 -43 221 -275q0 -41 -27 -187q-26 -145 -26 -243t49 -139t172 -51l64 -9v-77h-97q-168 0 -257 70t-89 202q0 100 48 253t48 206q0 180 -268 209v80q268 29 268 208q0 53 -48 206t-48 251q0 135 89 205t257 70h97
v-78l-64 -8q-123 -10 -172 -52t-49 -138z" />
    <glyph glyph-name="Identity.92" unicode="|" horiz-adv-x="563" 
d="M221 -561v2242h119v-2242h-119z" />
    <glyph glyph-name="Identity.93" unicode="}" horiz-adv-x="772" 
d="M412 375q0 -53 49 -206t49 -253q0 -133 -90 -203t-256 -69h-96v77l63 9q123 10 172 52t49 138t-26 242t-27 188q0 231 221 275q-221 39 -221 272q0 41 27 187q26 146 26 244t-49 138q-49 41 -172 52l-63 8v78h96q168 0 257 -70t89 -205q0 -98 -49 -251t-49 -206
q0 -179 270 -208v-80q-270 -29 -270 -209z" />
    <glyph glyph-name="Identity.94" unicode="~" horiz-adv-x="1189" 
d="M831 717q127 0 154 213l96 -15q-18 -305 -262 -305q-70 0 -126 29t-132 94q-104 96 -196 96q-127 0 -154 -213l-98 17q10 147 77 225q68 78 188 78t257 -125q106 -94 196 -94z" />
    <glyph glyph-name="Identity.95" unicode="&#xa1;" horiz-adv-x="645" 
d="M323 -469q-124 0 -124 137q0 35 59 600l31 328h67l31 -328q59 -530 59 -600q1 -137 -123 -137zM323 1096q58 0 99 -41t41 -99t-41 -98q-41 -41 -99 -41t-99 41q-40 41 -40 98t40 99q41 41 99 41z" />
    <glyph glyph-name="Identity.96" unicode="&#xa2;" horiz-adv-x="1124" 
d="M651 -102h-84v241q-211 12 -340 165q-129 152 -129 394t135 396t334 176v211h84v-209q141 -10 243 -89t124 -198q-14 -82 -100 -82q-94 0 -134 152l-24 110q-57 14 -109 19v-914q95 0 183 43t143 121l45 -18q-90 -254 -371 -275v-243zM287 728q0 -187 74 -303
q75 -115 206 -146v899q-127 -27 -203 -145t-77 -305z" />
    <glyph glyph-name="Identity.97" unicode="&#xa3;" horiz-adv-x="1124" 
d="M401 1098q0 -137 41 -353h381v-104h-368q2 -20 2 -68q-3 -260 -189 -399h776v-174h-964v117q124 69 188 185t64 255q0 49 -8 84h-230v104h199q-9 21 -29 71q-62 152 -61 255q0 176 118 292t287 116q170 0 282 -89t126 -231q-27 -70 -98 -69q-98 0 -125 139l-37 147
q-51 14 -101 15q-117 0 -185 -78t-69 -215z" />
    <glyph glyph-name="Identity.98" unicode="&#xa4;" horiz-adv-x="1128" 
d="M1065 316q0 -32 -23 -56q-24 -24 -56 -22q-32 0 -60 28t-72 105l-53 86q-101 -82 -237 -82t-238 82l-52 -84q-44 -76 -72 -106q-28 -29 -60 -29t-54 24t-22 54q0 32 28 61q29 29 103 72l84 51q-86 98 -86 239t88 240l-86 51q-74 43 -103 71q-28 29 -28 61t22 54t54 21
q32 0 60 -29t72 -102l52 -86q104 82 239 82t238 -84l51 88q45 74 73 102q29 28 61 29q32 0 54 -22q22 -23 23 -55q0 -32 -30 -60t-105 -70l-86 -53q86 -97 86 -237t-84 -240l84 -51q74 -41 104 -71t31 -62zM565 471q109 0 184 76q75 75 75 191t-75 192t-184 76t-185 -76
t-75 -192q-1 -116 75 -192t185 -75z" />
    <glyph glyph-name="Identity.99" unicode="&#xa5;" horiz-adv-x="1124" 
d="M1020 709v-103h-365v-137h365v-104h-365q0 -170 4 -271l230 -20v-74h-649v74l227 20q4 197 4 271h-354v104h354v137h-354v103h313l-305 651l-145 16v72h538v-72l-176 -18l272 -631l275 627l-176 22v72h434v-72l-162 -24l-291 -643h326z" />
    <glyph glyph-name="Identity.100" unicode="&#xa6;" horiz-adv-x="563" 
d="M340 717h-119v964h119v-964zM221 -561v1010h119v-1010h-119z" />
    <glyph glyph-name="Identity.101" unicode="&#xa7;" 
d="M1041 1493q-93 0 -154 -52q-61 -53 -61 -149t56 -157q58 -61 218 -127q219 -84 304 -174t85 -243t-170 -272q96 -88 96 -226q-1 -138 -111 -233q-110 -96 -290 -96t-280 73q-101 73 -128 206q4 39 29 59t57 21q78 0 119 -113l55 -147q57 -23 123 -23q123 0 193 58t70 153
q0 94 -67 148q-67 53 -261 123t-279 166q-84 96 -84 235q0 86 47 165t133 132q-82 96 -82 232q-1 136 105 228t284 91q178 0 283 -72q106 -72 133 -205q-2 -39 -26 -59t-60 -21q-79 0 -118 111l-54 145q-72 23 -165 23zM1356 544q0 102 -67 164q-67 64 -240 130t-265 141
q-90 -81 -90 -189t68 -177t240 -129t270 -128q84 86 84 188z" />
    <glyph glyph-name="Identity.102" unicode="&#xa8;" horiz-adv-x="897" 
d="M215 1346q-53 0 -90 34t-37 88q0 53 37 87t90 34t91 -34t38 -87q0 -54 -38 -88t-91 -34zM809 1468q0 -54 -37 -88t-89 -34t-91 34t-39 88q0 53 38 87t91 34t90 -34t37 -87z" />
    <glyph glyph-name="Identity.103" unicode="&#xa9;" horiz-adv-x="1693" 
d="M847 1536q333 0 556 -212t223 -569t-223 -573t-556 -215q-333 0 -556 215q-223 214 -223 572t223 570t556 212zM847 47q295 0 487 195t192 513q0 317 -193 509t-487 192t-486 -190t-192 -512t192 -514t487 -193zM883 299q-195 0 -317 127t-122 329q0 203 125 331t314 128
q145 0 254 -63l6 -215h-88l-33 180q-55 23 -119 23q-133 -1 -218 -101t-85 -281t82 -281t219 -99q68 -1 131 24l33 174h90l-6 -215q-117 -61 -266 -61z" />
    <glyph glyph-name="Identity.104" unicode="&#xaa;" horiz-adv-x="782" 
d="M633 940q-121 0 -141 117q-70 -65 -117 -93t-124 -28t-132 48t-55 129t54 134q56 53 156 86t213 62v47q0 100 -32 139q-33 39 -93 39t-92 -10l-26 -90q-16 -96 -84 -97q-66 0 -76 66q18 88 99 140t206 52t183 -62t59 -200v-327q0 -74 47 -74q24 0 61 39l27 -27
q-41 -90 -133 -90zM211 1143q0 -55 34 -83t75 -28t69 14t98 62v235q-92 -27 -129 -38q-147 -53 -147 -162z" />
    <glyph glyph-name="Identity.105" unicode="&#xab;" horiz-adv-x="1095" 
d="M1032 969l-346 -402l346 -403l-47 -51l-471 399v109l471 399zM582 969l-346 -402l346 -403l-47 -51l-472 399v109l472 399z" />
    <glyph glyph-name="Identity.106" unicode="&#xac;" horiz-adv-x="1189" 
d="M57 887h1049v-525h-117v416h-932v109z" />
    <glyph glyph-name="Identity.107" unicode="&#xae;" horiz-adv-x="1030" 
d="M516 1597q186 0 317 -120q130 -121 130 -321t-130 -322q-131 -122 -319 -123q-188 0 -317 122q-129 123 -129 323t131 320t317 121zM515 774q159 0 267 106t109 276q0 170 -109 274q-110 104 -268 104t-266 -103t-109 -275q1 -172 109 -276q108 -106 267 -106zM676 930
q-31 0 -50 12t-28 47l-18 94q-12 57 -78 58h-33v-164l63 -6v-31h-221v31l64 6v373l-64 6v35h209q80 0 124 -32t44 -83q0 -92 -117 -117q91 -16 107 -88l20 -94l56 -6v-31q-47 -10 -78 -10zM469 1354v-178h31q92 0 92 94q0 84 -92 84h-31z" />
    <glyph glyph-name="Identity.108" unicode="&#xaf;" horiz-adv-x="897" 
d="M156 1348v131h585v-131h-585z" />
    <glyph glyph-name="Identity.109" unicode="&#xb0;" horiz-adv-x="729" 
d="M365 965q-119 1 -200 79t-81 205t81 207t200 80t201 -80t81 -207q1 -127 -81 -205t-201 -79zM365 1462q-83 0 -139 -61t-56 -151t56 -152q56 -60 140 -60q83 0 138 60t55 151q0 89 -56 151t-138 62z" />
    <glyph glyph-name="Identity.110" unicode="&#xb1;" 
d="M256 18v93h1536v-93h-1536zM1069 897v-625h-90v625h-723v92h723v625h90v-625h723v-92h-723z" />
    <glyph glyph-name="Identity.111" unicode="&#xb2;" horiz-adv-x="823" 
d="M723 1092v-138h-602v103l217 211q195 193 194 346q0 86 -45 133t-129 47q-27 0 -63 -6l-25 -90q-20 -100 -84 -101q-51 0 -75 48q8 104 94 161q86 58 216 58t199 -67q68 -67 68 -160t-61 -176t-226 -236l-141 -133h463z" />
    <glyph glyph-name="Identity.112" unicode="&#xb3;" horiz-adv-x="823" 
d="M205 1620q-53 0 -72 47q12 97 89 147t195 50q117 0 193 -60t76 -150q0 -88 -48 -148t-132 -83q106 -16 162 -76t57 -153q0 -127 -94 -193t-232 -65q-262 0 -297 203q18 55 72 55q68 0 86 -100l19 -82q45 -10 79 -11q100 1 154 53t55 142q0 186 -213 186h-67v80h59
q188 0 189 168q-1 80 -45 122t-121 42q-29 0 -62 -6l-18 -82q-14 -86 -84 -86z" />
    <glyph glyph-name="Identity.113" unicode="&#xb4;" horiz-adv-x="897" 
d="M635 1698q33 0 57 -22t23 -70q0 -48 -78 -113q-203 -176 -272 -240l-48 37q127 205 197 314q57 94 121 94z" />
    <glyph glyph-name="Identity.114" unicode="&#xb5;" horiz-adv-x="1280" 
d="M608 135q92 0 157 52t122 188l-15 674l187 43l20 -21q-49 -637 -46 -761t25 -162t74 -38t97 23l16 -47q-61 -115 -182 -115q-88 0 -127 68t-45 205q-106 -272 -301 -273q-74 0 -145 45t-113 125l55 -526l-180 -41l-25 16l47 631l-34 828l186 43l20 -21l-39 -758
q86 -178 246 -178z" />
    <glyph glyph-name="Identity.115" unicode="&#xb6;" 
d="M1430 819v-385q0 -479 6 -715h-205q6 233 6 715v1012h-145v-1112q-293 0 -489 156q-195 156 -195 445t206 443t553 154h475v-80l-208 -18q-4 -203 -4 -615z" />
    <glyph glyph-name="Identity.116" unicode="&#xb7;" horiz-adv-x="673" 
d="M337 592q-62 0 -108 44q-45 44 -45 108t44 108q44 45 108 45t108 -45q45 -44 45 -108t-45 -108t-107 -44z" />
    <glyph glyph-name="Identity.117" unicode="&#xb8;" horiz-adv-x="897" 
d="M366 -420q62 0 96 29t34 81t-39 80t-127 40l28 196h72l-18 -141q96 -10 156 -56t60 -124t-65 -128q-66 -51 -160 -51t-165 23l16 59q50 -8 112 -8z" />
    <glyph glyph-name="Identity.118" unicode="&#xb9;" horiz-adv-x="823" 
d="M698 954h-553v58l205 30v689l-172 -13v70l303 70l21 -15v-801l196 -30v-58z" />
    <glyph glyph-name="Identity.119" unicode="&#xba;" horiz-adv-x="841" 
d="M420 1681q144 0 250 -103t106 -272q0 -168 -104 -270t-252 -102t-252 100t-104 272t106 273q107 102 250 102zM422 1612q-207 0 -207 -305t207 -306q201 -1 201 305t-201 306z" />
    <glyph glyph-name="Identity.120" unicode="&#xbb;" horiz-adv-x="1095" 
d="M563 1020l471 -399v-109l-471 -399l-47 51l344 403l-344 402zM584 621v-109l-471 -399l-47 51l344 403l-344 402l47 51z" />
    <glyph glyph-name="Identity.121" unicode="&#xbc;" horiz-adv-x="1931" 
d="M1745 348v-112h-146v-236h-137v236h-383v92l418 573h102v-553h146zM1462 348v416l-288 -416h288zM1516 1501l61 -47l-1049 -1509l-59 49zM702 571h-552v58l204 30v689l-172 -13v68l305 70l19 -13v-801l196 -30v-58z" />
    <glyph glyph-name="Identity.122" unicode="&#xbd;" horiz-adv-x="1931" 
d="M1767 137v-137h-602v100l219 211q193 195 193 348q0 85 -45 133t-129 48q-31 0 -62 -9l-24 -90q-13 -55 -33 -77t-59 -23q-39 0 -70 47q8 104 95 162t216 57q129 1 198 -65t69 -160q-1 -94 -63 -178t-224 -236l-139 -131h460zM1444 1501l61 -47l-1048 -1509l-60 49z
M682 571h-551v58l203 30v689l-172 -13v68l305 70l20 -13v-801l195 -30v-58z" />
    <glyph glyph-name="Identity.123" unicode="&#xbe;" horiz-adv-x="1931" 
d="M1765 348v-112h-145v-236h-137v236h-383v92l418 573h102v-553h145zM1483 348v416l-289 -416h289zM1534 1497l61 -47l-1048 -1507l-60 49zM283 1235q-49 0 -72 47q14 98 91 148q76 50 194 51q118 -1 193 -61t75 -149t-49 -149t-133 -82q221 -35 221 -231q0 -127 -94 -193
t-232 -65q-260 0 -295 205q16 53 72 53q68 0 84 -98l20 -82q45 -10 80 -11q98 0 152 52t55 141q0 186 -213 186h-67v82h59q188 0 188 168q0 78 -44 121t-122 43q-24 0 -59 -6l-18 -82q-18 -88 -86 -88z" />
    <glyph glyph-name="Identity.124" unicode="&#xbf;" horiz-adv-x="923" 
d="M770 -346q0 -88 -113 -119q-104 15 -218 73t-205 172t-91 249q0 211 217 288l78 31q72 26 91 50t22 79v129h70l26 -92q35 -113 35 -160t-39 -82t-137 -69l-115 -43q-141 -53 -141 -170q0 -84 59 -166l307 -51q86 -16 120 -45t34 -74zM590 823q-57 0 -98 42q-41 43 -41 99
t41 98t98 42t99 -42t42 -98t-42 -98t-99 -43z" />
    <glyph glyph-name="Identity.125" unicode="&#xd7;" 
d="M1024 688l-561 -561l-66 66l561 561l-563 563l66 65l563 -563l563 563l66 -65l-563 -563l561 -561l-66 -66z" />
    <glyph glyph-name="Identity.126" unicode="&#xf7;" 
d="M1024 53q-61 0 -102 42q-41 43 -41 103t41 102t102 42t102 -42t41 -102t-41 -102t-102 -43zM1802 799v-90h-1556v90h1556zM1024 1165q-61 0 -102 42q-41 43 -41 103t41 102t102 42t102 -42t41 -102t-41 -102t-102 -43z" />
    <glyph glyph-name="Identity.127" unicode="&#x391;" horiz-adv-x="1486" 
d="M1466 0h-610v78l221 26l-131 394h-520l-129 -392l219 -28v-78h-500v78l183 28l477 1405h131l483 -1413l176 -20v-78zM455 586h463l-234 696z" />
    <glyph glyph-name="Identity.128" unicode="&#x392;" horiz-adv-x="1402" 
d="M100 1501h641q233 0 361 -100t129 -264q0 -125 -88 -221t-269 -132q430 -62 432 -388q0 -158 -146 -277q-148 -119 -447 -119h-613v78l209 22q4 199 4 600v109q0 395 -4 592l-209 22v78zM680 1413h-158q-4 -193 -4 -590h119q203 0 298 74q95 73 95 227t-86 222t-264 67z
M670 90q208 0 316 82t108 241t-108 239t-339 79h-129q0 -438 4 -641h148z" />
    <glyph glyph-name="Identity.129" unicode="&#x393;" horiz-adv-x="1257" 
d="M518 805v-113q0 -393 4 -590l213 -24v-78h-635v78l209 22q4 195 4 592v113q0 399 -4 596l-209 22v78h1074l10 -436h-109l-67 338h-486q-4 -197 -4 -598z" />
    <glyph glyph-name="Identity.130" unicode="&#x394;" horiz-adv-x="1423" 
d="M1356 0h-1295v88l594 1423h131l570 -1423v-88zM199 172h907l-442 1122z" />
    <glyph glyph-name="Identity.131" unicode="&#x395;" horiz-adv-x="1351" 
d="M100 0v78l209 22q4 197 4 594v111q0 399 -4 596l-209 22v78h1112l13 -395h-111l-59 297h-533q-4 -195 -4 -594h338l33 221h92v-528h-92l-31 217h-340q0 -422 4 -621h576l59 301h111l-13 -399h-1155z" />
    <glyph glyph-name="Identity.132" unicode="&#x396;" horiz-adv-x="1236" 
d="M47 0v76l864 1327h-649l-69 -301h-121l20 399h1051v-78l-862 -1327h716l72 310h119l-14 -406h-1127z" />
    <glyph glyph-name="Identity.133" unicode="&#x397;" horiz-adv-x="1767" 
d="M1454 805v-111q0 -395 4 -594l209 -22v-78h-629v78l207 22q4 193 4 625h-731q0 -430 4 -625l207 -22v-78h-629v78l209 22q4 197 4 594v111q0 399 -4 596l-209 22v78h629v-78l-207 -22q-4 -193 -4 -588h731q0 393 -4 588l-207 22v78h629v-78l-209 -22q-4 -195 -4 -596z
" />
    <glyph glyph-name="Identity.134" unicode="&#x398;" horiz-adv-x="1583" 
d="M795 1536q273 0 471 -202q96 -97 153 -248t58 -334q0 -354 -202 -570q-201 -216 -481 -215q-280 0 -483 210t-202 575q0 178 57 328q107 284 373 402q123 54 256 54zM1253 752q1 290 -115 488t-343 198q-119 0 -210 -58t-145 -154q-110 -195 -108 -474q0 -137 26 -258
q96 -431 454 -431q136 1 244 101q196 184 197 588zM1100 969v-406h-88l-25 131h-389l-25 -131h-86v406h86l27 -135h385l27 135h88z" />
    <glyph glyph-name="Identity.135" unicode="&#x399;" horiz-adv-x="831" 
d="M518 805v-111q0 -395 4 -592l209 -24v-78h-631v78l209 22q4 197 4 594v111q0 399 -4 596l-209 22v78h631v-78l-209 -22q-4 -195 -4 -596z" />
    <glyph glyph-name="Identity.136" unicode="&#x39a;" horiz-adv-x="1497" 
d="M1495 0h-575v78l186 22l-371 688l-223 -268q0 -268 4 -418l211 -24v-78h-627v78l209 22q4 197 4 594v111q0 399 -4 596l-209 22v78h629v-78l-213 -22q-4 -195 -4 -596v-154l602 742l-178 30v78h514v-78l-213 -26l-381 -463l465 -836l174 -20v-78z" />
    <glyph glyph-name="Identity.137" unicode="&#x39b;" horiz-adv-x="1482" 
d="M1460 0h-604v78l217 24l-387 1186l-387 -1182l223 -28v-78h-514v78l195 28l473 1405h133l479 -1413l172 -20v-78z" />
    <glyph glyph-name="Identity.138" unicode="&#x39c;" horiz-adv-x="2021" 
d="M588 0h-502v78l203 28l2 1293l-205 24v78h410l505 -1245l486 1245h432v-78l-209 -22q-4 -195 -4 -596v-111q0 -395 4 -594l207 -22v-78h-610v78l194 22q4 195 4 588l2 602l-506 -1290h-96l-524 1286l12 -469v-711l195 -28v-78z" />
    <glyph glyph-name="Identity.139" unicode="&#x39d;" horiz-adv-x="1646" 
d="M1559 1501v-78l-189 -26l-2 -1411h-80l-915 1257l4 -1134l239 -31v-78h-530v78l188 26l5 1270l-23 29l-160 20v78h346l830 -1147l-4 1041l-240 28v78h531z" />
    <glyph glyph-name="Identity.140" unicode="&#x39e;" horiz-adv-x="1308" 
d="M1126 399h99l-15 -399h-1112l-14 399h104l41 -233h854zM1022 983v-438h-82l-29 149h-516l-24 -149h-86v438h86l26 -143h514l29 143h82zM258 1335l-41 -233h-100l14 399h1047l16 -399h-102l-41 233h-793z" />
    <glyph glyph-name="Identity.141" unicode="&#x39f;" horiz-adv-x="1583" 
d="M795 1536q273 0 471 -202q96 -97 153 -248t58 -334q0 -354 -202 -570q-203 -216 -483 -215q-280 0 -482 210t-201 575q0 178 57 328q107 284 373 402q123 54 256 54zM340 752q0 -399 200 -588q105 -100 255 -101q219 0 333 200t115 489q0 398 -194 585q-104 100 -254 101
q-221 0 -338 -200t-117 -486z" />
    <glyph glyph-name="Identity.142" unicode="&#x3a0;" horiz-adv-x="1730" 
d="M1417 805v-111q0 -395 2 -594l209 -22v-78h-629v78l209 22q4 197 4 641v64q0 397 -4 594h-686q-4 -195 -4 -594v-64q0 -440 4 -641l207 -22v-78h-629v78l209 22q4 197 4 594v111q0 399 -4 596l-207 22v78h1526v-78l-209 -22q-2 -195 -2 -596z" />
    <glyph glyph-name="Identity.143" unicode="&#x3a1;" horiz-adv-x="1320" 
d="M637 600h-119q0 -328 4 -498l213 -24v-78h-635v78l209 22q4 197 4 594v111q0 399 -4 596l-209 22v78h602q276 0 420 -120q144 -119 144 -323t-154 -331t-475 -127zM666 1413h-144q-4 -199 -4 -608v-115h144q204 0 298 97t95 270q0 356 -389 356z" />
    <glyph glyph-name="Identity.144" unicode="&#x3a3;" horiz-adv-x="1220" 
d="M49 0v121l512 620l-485 682v78h1020l12 -399h-119l-67 301h-617l426 -604l-512 -625h748l63 297h119l-14 -471h-1086z" />
    <glyph glyph-name="Identity.145" unicode="&#x3a4;" horiz-adv-x="1353" 
d="M780 805v-111q0 -395 4 -592l232 -24v-78h-676v78l231 24q4 195 4 592v111q0 401 -4 598h-352l-61 -301h-113l18 399h1231l15 -399h-109l-63 301h-353q-4 -197 -4 -598z" />
    <glyph glyph-name="Identity.146" unicode="&#x3a5;" horiz-adv-x="1417" 
d="M1049 0h-674v78l231 24q4 143 4 484l-403 819l-170 18v78h622v-78l-219 -22l328 -707l332 703l-211 26v78h508v-78l-195 -26l-389 -803q0 -344 4 -492l232 -24v-78z" />
    <glyph glyph-name="Identity.147" unicode="&#x3a6;" horiz-adv-x="1607" 
d="M1524 764q0 -219 -158 -369t-469 -151l2 -162l217 -27v-78h-624v78l217 25q2 53 2 164q-309 2 -467 152t-158 368q0 219 167 365t458 149l-2 147l-217 23v80h624v-80l-217 -25l-2 -145q291 -2 459 -148t168 -366zM895 809v-115q0 -236 2 -360q197 2 307 124t111 314
q0 192 -109 304q-109 110 -309 112q-2 -127 -2 -379zM713 334v854q-203 -2 -312 -113t-109 -303t112 -314q110 -122 309 -124z" />
    <glyph glyph-name="Identity.148" unicode="&#x3a7;" horiz-adv-x="1449" 
d="M1425 0h-626v78l209 22l-322 549l-334 -543l187 -30v-76h-508v78l211 31l397 618l-397 676l-197 20v78h633v-78l-211 -22l297 -504l305 498l-199 28v78h512v-78l-202 -26l-371 -578l424 -719l192 -22v-78z" />
    <glyph glyph-name="Identity.149" unicode="&#x3a8;" horiz-adv-x="1720" 
d="M1597 1501h109v-78l-55 -8q-53 -6 -77 -33t-34 -82l-24 -165q-43 -297 -158 -421t-397 -141q0 -315 4 -473l209 -22v-78h-627v78l209 24q4 156 4 471q-283 15 -398 139t-159 423l-25 165q-10 55 -34 82t-76 33l-54 8v78h109q135 0 187 -57t71 -207l14 -104
q29 -247 99 -349t266 -118v139q0 399 -4 596l-187 22v78h580v-78l-184 -20q-4 -197 -4 -598v-139q101 10 167 40t105 93t57 136t33 198l14 102q15 152 69 209t191 57z" />
    <glyph glyph-name="Identity.150" unicode="&#x3a9;" horiz-adv-x="1638" 
d="M926 0v137q160 129 251 317t91 422t-121 398t-327 164t-326 -164t-121 -396q0 -232 91 -422q91 -189 249 -319v-137h-600l-23 381h117l53 -223h320v2q-188 133 -302 310t-114 386q0 316 190 498t466 182t466 -182t191 -498q0 -207 -114 -385t-300 -311v-2h317l54 223h116
l-20 -381h-604z" />
    <glyph glyph-name="Identity.151" unicode="&#x3b1;" horiz-adv-x="1253" 
d="M1032 -29q-133 0 -164 197q-98 -197 -333 -197q-195 1 -320 145t-125 404t148 417t342 157t292 -189l15 142l160 36l30 -18q-78 -553 -78 -786q0 -97 25 -133t74 -36t100 23l16 -47q-57 -115 -182 -115zM575 997q-139 1 -217 -119t-78 -336t80 -344q78 -130 211 -130
q109 0 190 92t85 235l16 365q-39 115 -114 176q-76 61 -173 61z" />
    <glyph glyph-name="Identity.152" unicode="&#x3b2;" horiz-adv-x="1275" 
d="M674 1659q172 0 284 -99t113 -272q0 -137 -88 -260t-264 -172q225 -16 345 -125t120 -311t-134 -326q-134 -123 -321 -123q-240 0 -371 189l33 -545l-186 -41l-23 18l13 435l2 1079q0 254 133 404t344 149zM1006 453q0 158 -104 256t-333 90l-22 119q348 70 348 364
q0 133 -66 211q-65 78 -185 78q-120 -1 -194 -103t-75 -288l-2 -953q145 -113 303 -113t244 91q86 90 86 248z" />
    <glyph glyph-name="Identity.153" unicode="&#x3b3;" horiz-adv-x="1103" 
d="M164 1083q88 0 143 -59t117 -244q102 -307 176 -639q156 297 242 547q-29 216 -29 272t31 95t83 39t79 -27q10 -33 10 -98q0 -291 -391 -940l10 -414l-176 -43l-17 18l41 422q-42 186 -125 419q-82 233 -114 325t-66 138q-36 48 -80 48t-75 -6l-23 53q76 94 164 94z" />
    <glyph glyph-name="Identity.154" unicode="&#x3b4;" horiz-adv-x="1167" 
d="M1077 498q0 -198 -140 -363q-141 -164 -359 -164t-353 151t-135 370q0 218 116 370t331 187q-156 98 -238 183q-82 84 -82 194t111 171t276 62q285 0 420 -178q0 -51 -28 -82t-74 -31q-72 0 -162 80l-148 135q-133 -4 -193 -35q-61 -32 -61 -110t72 -146t278 -206
t287 -264q82 -126 82 -324zM597 55q138 0 215 110q77 111 77 303q-1 192 -61 304t-230 229q-170 -53 -244 -167t-74 -316q0 -201 90 -332q89 -131 227 -131z" />
    <glyph glyph-name="Identity.155" unicode="&#x3b5;" horiz-adv-x="946" 
d="M487 -29q-171 0 -283 77t-112 201q0 246 330 294q-141 29 -212 99t-71 163q0 127 110 208t300 81q240 0 319 -113q2 -45 -28 -78t-88 -33q-56 0 -146 76l-88 76q-88 -4 -149 -52t-62 -130q0 -211 309 -211q57 0 78 2v-139q-53 4 -57 4q-352 0 -352 -195q-1 -90 67 -141
t187 -51q182 -1 342 118l39 -45q-160 -211 -433 -211z" />
    <glyph glyph-name="Identity.156" unicode="&#x3b6;" horiz-adv-x="940" 
d="M786 -152q0 54 -38 84t-156 60l-211 51q-283 70 -283 336q0 172 170 447t490 679l-619 -18v166l748 -19l6 -108q-326 -428 -469 -677t-143 -431q0 -90 52 -146t185 -90l144 -37q252 -59 251 -249q0 -131 -123 -225q-124 -93 -350 -95l-10 119q172 16 264 57q92 42 92 96z
" />
    <glyph glyph-name="Identity.157" unicode="&#x3b7;" horiz-adv-x="1232" 
d="M709 942q-84 0 -171 -61t-139 -154l11 -727l-179 -23l-16 19l23 401l6 443q0 111 -86 110q-33 0 -82 -8l-21 53q70 92 159 92t133 -61t50 -199q59 119 167 193t202 74q291 -1 293 -392l16 -1087l-182 -41l-16 16l24 420l23 672q8 260 -215 260z" />
    <glyph glyph-name="Identity.158" unicode="&#x3b8;" horiz-adv-x="1142" 
d="M577 1659q209 0 333 -210t124 -652q0 -825 -461 -826q-198 0 -323 175q-141 194 -140 649t130 659t337 205zM569 1573q-139 0 -209 -155t-75 -546h575q-10 350 -91 526t-200 175zM596 55q131 0 197 154q65 154 67 549h-575q8 -356 94 -530t217 -173z" />
    <glyph glyph-name="Identity.159" unicode="&#x3b9;" horiz-adv-x="638" 
d="M426 -29q-197 0 -199 295l-8 787l191 39l20 -21q-49 -647 -47 -767t28 -156q47 -68 177 -15l18 -47q-63 -115 -180 -115z" />
    <glyph glyph-name="Identity.160" unicode="&#x3ba;" horiz-adv-x="1187" 
d="M242 840q0 110 -76 110q-39 0 -92 -8l-19 55q68 90 160 90q184 0 184 -301v-335q78 162 189 305q250 322 450 338q84 -18 84 -95q0 -113 -172 -122l-141 -7q-100 -86 -215 -215q27 -47 121 -213t122 -196q77 -82 109 -92q33 -10 83 -10t87 16l17 -47q-29 -70 -75 -106
t-95 -36q-84 0 -170 120t-258 478q-111 -180 -140 -231q-4 -63 -12 -183t-10 -155l-146 -23l-16 19l25 420z" />
    <glyph glyph-name="Identity.161" unicode="&#x3bb;" horiz-adv-x="1193" 
d="M278 1477q-99 0 -200 -64l-33 74q74 172 242 172q221 0 311 -293l328 -1016q41 -121 78 -166q61 -74 192 -24l18 -47q-54 -142 -183 -142q-65 0 -121 66t-103 254l-156 624l-395 -935l-184 14l-15 24l531 1086l-64 172q-41 117 -94 159t-152 42z" />
    <glyph glyph-name="Identity.162" unicode="&#x3bc;" horiz-adv-x="1280" 
d="M608 135q92 0 157 52t122 188l-15 674l187 43l20 -21q-49 -637 -46 -761t25 -162t74 -38t97 23l16 -47q-61 -115 -182 -115q-88 0 -127 68t-45 205q-106 -272 -301 -273q-74 0 -145 45t-113 125l55 -526l-180 -41l-25 16l47 631l-34 828l186 43l20 -21l-39 -758
q86 -178 246 -178z" />
    <glyph glyph-name="Identity.163" unicode="&#x3bd;" horiz-adv-x="1103" 
d="M169 1083q93 0 153 -73q59 -74 108 -246q119 -377 166 -629q166 322 244 547q-23 182 -23 262q0 150 117 150q43 0 74 -27q10 -45 10 -98q0 -164 -122 -429t-298 -542l-106 -4q-50 210 -139 462t-113 325q-54 167 -150 167q-29 0 -70 -8l-20 51q76 92 169 92z" />
    <glyph glyph-name="Identity.164" unicode="&#x3be;" horiz-adv-x="983" 
d="M829 -150q1 54 -37 84t-153 58l-205 41q-317 70 -317 370q0 156 123 267t321 137q-174 27 -259 121t-85 226q1 132 105 228t264 134l-494 -23v156l838 -13l-4 -123q-270 -2 -410 -95t-139 -236q0 -113 91 -192t277 -79h125v-172q-63 8 -145 9q-229 0 -333 -90t-105 -224
q0 -104 60 -166t216 -96l148 -29q244 -47 243 -245q0 -131 -121 -226q-122 -94 -352 -96l-8 119q174 16 265 58q91 43 91 97z" />
    <glyph glyph-name="Identity.165" unicode="&#x3bf;" horiz-adv-x="1167" 
d="M598 55q139 0 215 117t76 297q0 250 -89 394q-90 145 -228 145t-215 -120t-76 -298q0 -254 89 -394t228 -141zM567 -29q-205 1 -341 145t-136 406t153 417t359 155t340 -146q135 -146 135 -405q-1 -258 -153 -415t-357 -157z" />
    <glyph glyph-name="Identity.166" unicode="&#x3c0;" horiz-adv-x="1331" 
d="M1109 121q56 0 116 24l18 -47q-80 -127 -199 -127q-219 0 -219 271q0 221 23 676h-365q-4 -467 -24 -680q-20 -266 -226 -267q-57 0 -93 29t-36 86t48 94q94 18 208 25q31 291 41 708l-340 -47l-16 74q88 72 179 98t255 27h787l6 -160l-303 10l16 -606q2 -106 35 -147
t89 -41z" />
    <glyph glyph-name="Identity.167" unicode="&#x3c1;" horiz-adv-x="1222" 
d="M670 1094q194 0 328 -148t134 -405q0 -256 -140 -413t-340 -157t-320 181l37 -537l-187 -41l-24 18l8 431l2 454q2 305 137 461t365 156zM632 84q152 0 232 114t80 302q0 260 -94 384t-219 124q-272 0 -279 -394l-2 -73q-6 -246 -6 -326q135 -131 288 -131z" />
    <glyph glyph-name="Identity.168" unicode="&#x3c3;" horiz-adv-x="1327" 
d="M1077 489q0 -221 -141 -369t-358 -148q-216 0 -352 144q-136 146 -136 401t160 403t420 149l606 2l6 -172l-516 51q139 -66 225 -192t86 -269zM281 543q0 -223 92 -355t226 -133q134 0 217 108t83 292t-78 326t-223 184q-317 -39 -317 -422z" />
    <glyph glyph-name="Identity.169" unicode="&#x3c4;" horiz-adv-x="1089" 
d="M667 -29q-119 0 -171 66q-52 65 -52 215t50 661l-441 -43l-12 66q86 76 187 102t278 27h514l10 -160l-434 10l10 -604q4 -190 118 -190q52 0 122 24l14 -47q-74 -127 -193 -127z" />
    <glyph glyph-name="Identity.170" unicode="&#x3c5;" horiz-adv-x="1212" 
d="M236 1087q110 0 148 -60t38 -204q0 -66 -18 -206t-19 -234q0 -147 75 -228t212 -81t230 110t93 312q0 29 -4 127q-83 169 -109 237t-26 118t33 83t82 33t78 -31q47 -189 47 -493t-127 -451t-331 -147t-312 100q-109 100 -109 299q0 90 20 293t-8 254q-16 31 -77 30
q-27 0 -76 -8l-21 53q71 94 181 94z" />
    <glyph glyph-name="Identity.171" unicode="&#x3c6;" horiz-adv-x="1570" 
d="M1481 552q0 -238 -159 -404t-460 -177l19 -379l-181 -41l-22 19l27 401q-291 11 -453 159t-162 386t166 404q166 168 473 174l6 303h117l2 -303q303 -8 465 -156t162 -386zM707 55l20 959q-225 -4 -336 -128t-111 -350t112 -347q112 -122 315 -134zM854 1014l6 -961
q209 8 320 132q110 124 110 349t-112 348q-113 122 -324 132z" />
    <glyph glyph-name="Identity.172" unicode="&#x3c7;" horiz-adv-x="1099" 
d="M950 -428q-94 0 -156 80t-112 248l-107 346l-344 -670l-153 23l-15 26l445 793l-135 307q-63 143 -101 178t-104 35q-65 0 -137 -23l-23 62q68 113 174 113q162 0 262 -283l107 -311l303 587l160 -14l16 -25l-412 -718l142 -349q108 -251 238 -253q62 0 120 22l17 -39
q-57 -135 -185 -135z" />
    <glyph glyph-name="Identity.173" unicode="&#x3c8;" horiz-adv-x="1619" 
d="M1257 975q0 55 37 87t90 32t89 -41q18 -133 18 -338q2 -349 -130 -531t-407 -209l9 -383l-168 -41l-19 15l15 405q-265 7 -409 113t-144 313l8 404q0 86 -16 117t-74 30q-10 0 -78 -6l-21 51q68 92 171 92q104 0 148 -58t44 -200l-12 -430q0 -317 385 -331l18 1310h117
l24 -1306q201 16 303 139t123 385q-121 326 -121 381z" />
    <glyph glyph-name="Identity.174" unicode="&#x3c9;" horiz-adv-x="1638" 
d="M1550 500q0 -254 -123 -391t-303 -138q-118 0 -198 69t-111 200q-55 -268 -303 -269q-174 1 -298 137t-124 388t142 410t399 186l6 -78q-358 -66 -358 -518q0 -209 70 -314q71 -104 183 -104q215 0 216 268l-29 432l180 23l19 -13l-29 -436q0 -133 62 -204
q62 -70 170 -70q109 0 175 98t66 318q-1 452 -363 520l11 78q252 -27 396 -183q144 -155 144 -409z" />
    <glyph glyph-name="Identity.175" unicode="&#x401;" horiz-adv-x="1351" 
d="M100 0v78l209 22q4 197 4 594v111q0 399 -4 596l-209 22v78h1112l13 -395h-111l-59 297h-533q-4 -195 -4 -594h338l33 221h92v-528h-92l-31 217h-340q0 -422 4 -621h576l59 301h111l-13 -399h-1155zM479 1669q-51 0 -88 34t-37 85t37 85t88 34t88 -34t37 -85t-37 -85
t-88 -34zM977 1669q-51 0 -87 34t-36 85t36 85t87 34t89 -34t38 -85t-38 -85t-89 -34z" />
    <glyph glyph-name="Identity.176" unicode="&#x410;" horiz-adv-x="1486" 
d="M1466 0h-610v78l221 26l-131 394h-520l-129 -392l219 -28v-78h-500v78l183 28l477 1405h131l483 -1413l176 -20v-78zM455 586h463l-234 696z" />
    <glyph glyph-name="Identity.177" unicode="&#x411;" horiz-adv-x="1382" 
d="M727 864q283 0 429 -114t146 -309q0 -193 -146 -317t-456 -124h-600v78l209 22q4 199 4 600v109q0 395 -4 592l-209 22v78h1076l12 -397h-111l-59 299h-496q-4 -180 -4 -551q104 12 209 12zM678 90q217 0 314 85q98 85 98 256t-90 253t-308 82q-94 0 -174 -6v-60
q0 -407 4 -610h156z" />
    <glyph glyph-name="Identity.178" unicode="&#x412;" horiz-adv-x="1402" 
d="M100 1501h641q233 0 361 -100t129 -264q0 -125 -88 -221t-269 -132q430 -62 432 -388q0 -158 -146 -277q-148 -119 -447 -119h-613v78l209 22q4 199 4 600v109q0 395 -4 592l-209 22v78zM680 1413h-158q-4 -193 -4 -590h119q203 0 298 74q95 73 95 227t-86 222t-264 67z
M670 90q208 0 316 82t108 241t-108 239t-339 79h-129q0 -438 4 -641h148z" />
    <glyph glyph-name="Identity.179" unicode="&#x413;" horiz-adv-x="1257" 
d="M518 805v-113q0 -393 4 -590l213 -24v-78h-635v78l209 22q4 195 4 592v113q0 399 -4 596l-209 22v78h1074l10 -436h-109l-67 338h-486q-4 -197 -4 -598z" />
    <glyph glyph-name="Identity.180" unicode="&#x414;" horiz-adv-x="1554" 
d="M379 1501h1075v-78l-211 -22q-2 -197 -2 -598v-101q0 -410 2 -606h35v2l2 -2h190l-10 -499h-110l-58 403h-1089l-66 -403h-110l-11 499h125q389 446 445 1301l-207 26v78zM1036 705v98q0 403 -4 600h-330q-54 -877 -419 -1307h749q4 201 4 609z" />
    <glyph glyph-name="Identity.181" unicode="&#x415;" horiz-adv-x="1351" 
d="M100 0v78l209 22q4 197 4 594v111q0 399 -4 596l-209 22v78h1112l13 -395h-111l-59 297h-533q-4 -195 -4 -594h338l33 221h92v-528h-92l-31 217h-340q0 -422 4 -621h576l59 301h111l-13 -399h-1155z" />
    <glyph glyph-name="Identity.182" unicode="&#x416;" horiz-adv-x="2064" 
d="M1872 -23q-122 0 -177 32q-54 32 -79 112l-119 379q-35 114 -103 160t-184 47h-82q0 -412 5 -605l208 -24v-78h-616v78l209 24q4 190 4 605h-82q-116 1 -184 -47t-103 -160l-120 -379q-23 -80 -77 -112t-175 -32t-195 23v76l227 20l129 379q41 117 116 185t214 96
q-70 32 -123 102t-121 228t-114 229q-164 -37 -225 21q-37 36 -37 80t31 79q32 35 83 43q106 -14 184 -104t173 -334q76 -186 146 -247q71 -60 192 -60h61q0 416 -6 608l-207 22v78h616v-78l-208 -22q-4 -190 -5 -608h60q124 0 194 60t146 247q96 246 173 335t183 103
q51 -8 83 -43t32 -78t-38 -80q-37 -37 -97 -37t-127 15q-43 -65 -113 -225t-124 -231t-122 -103q139 -29 214 -97t114 -184l129 -379l227 -20v-76q-68 -23 -190 -23z" />
    <glyph glyph-name="Identity.183" unicode="&#x417;" horiz-adv-x="1230" 
d="M576 1536q246 0 378 -104q133 -104 133 -289q0 -125 -91 -223t-251 -136q199 -29 294 -129t96 -252q0 -195 -154 -315t-418 -121q-205 0 -335 81t-160 245q37 72 101 72t90 -33t48 -121l33 -123q82 -25 188 -25q186 1 288 93t104 266q0 307 -381 307h-82v96h78
q352 0 352 314q0 145 -83 222q-82 77 -222 77t-238 -35l-57 -275h-115l-12 306q170 102 416 102z" />
    <glyph glyph-name="Identity.184" unicode="&#x418;" horiz-adv-x="1785" 
d="M1470 694q0 -395 5 -594l208 -22v-78h-626v78l209 22q4 197 4 631l2 428l-758 -958v-99l215 -24v-78h-629v78l209 22q4 197 4 594v111q0 399 -4 596l-209 22v78h629v-78l-209 -22q-4 -195 -4 -596l-2 -467l758 971l2 92l-217 22v78h626v-78l-208 -22q-4 -195 -5 -596
v-111z" />
    <glyph glyph-name="Identity.185" unicode="&#x419;" horiz-adv-x="1785" 
d="M1470 694q0 -395 5 -594l208 -22v-78h-626v78l209 22q4 197 4 631l2 428l-758 -958v-99l215 -24v-78h-629v78l209 22q4 197 4 594v111q0 399 -4 596l-209 22v78h629v-78l-209 -22q-4 -195 -4 -596l-2 -467l758 971l2 92l-217 22v78h626v-78l-208 -22q-4 -195 -5 -596
v-111zM1079 1863q0 134 111 134q53 0 82 -62q0 -139 -106 -227t-272 -88q-167 0 -272 88t-106 227q29 61 81 61t81 -33t29 -101t-7 -113q82 -53 193 -53t192 53q-6 47 -6 114z" />
    <glyph glyph-name="Identity.186" unicode="&#x41a;" horiz-adv-x="1470" 
d="M1274 -23q-120 0 -174 32q-53 32 -78 112l-119 381q-33 115 -99 160q-67 45 -190 45h-96q0 -412 4 -605l211 -24v-78h-633v78l209 22q4 195 4 594v111q0 399 -4 596l-209 22v78h633v-78l-211 -22q-4 -190 -4 -606h76q130 0 194 56q64 55 149 275t166 310t193 102
q51 -8 81 -42t30 -79t-38 -81q-37 -36 -105 -36t-131 19q-45 -69 -115 -231t-122 -231t-122 -99q139 -26 219 -94t119 -187l127 -381l227 -20v-76q-72 -23 -192 -23z" />
    <glyph glyph-name="Identity.187" unicode="&#x41b;" horiz-adv-x="1552" 
d="M1235 805v-111q0 -399 4 -594l209 -22v-78h-629v78l209 22q4 199 4 594v111q0 401 -6 598h-362q-23 -625 -113 -961q-129 -475 -369 -475q-74 0 -118 42t-44 126q35 76 138 76q70 0 147 -57q88 109 146 315q86 354 114 928l-200 26v78h1083v-78l-207 -22q-6 -197 -6 -596
z" />
    <glyph glyph-name="Identity.188" unicode="&#x41c;" horiz-adv-x="2021" 
d="M588 0h-502v78l203 28l2 1293l-205 24v78h410l505 -1245l486 1245h432v-78l-209 -22q-4 -195 -4 -596v-111q0 -395 4 -594l207 -22v-78h-610v78l194 22q4 195 4 588l2 602l-506 -1290h-96l-524 1286l12 -469v-711l195 -28v-78z" />
    <glyph glyph-name="Identity.189" unicode="&#x41d;" horiz-adv-x="1767" 
d="M1454 805v-111q0 -395 4 -594l209 -22v-78h-629v78l207 22q4 193 4 625h-731q0 -430 4 -625l207 -22v-78h-629v78l209 22q4 197 4 594v111q0 399 -4 596l-209 22v78h629v-78l-207 -22q-4 -193 -4 -588h731q0 393 -4 588l-207 22v78h629v-78l-209 -22q-4 -195 -4 -596z
" />
    <glyph glyph-name="Identity.190" unicode="&#x41e;" horiz-adv-x="1583" 
d="M795 1536q273 0 471 -202q96 -97 153 -248t58 -334q0 -354 -202 -570q-203 -216 -483 -215q-280 0 -482 210t-201 575q0 178 57 328q107 284 373 402q123 54 256 54zM340 752q0 -399 200 -588q105 -100 255 -101q219 0 333 200t115 489q0 398 -194 585q-104 100 -254 101
q-221 0 -338 -200t-117 -486z" />
    <glyph glyph-name="Identity.191" unicode="&#x41f;" horiz-adv-x="1738" 
d="M1423 805v-111q0 -395 4 -594l209 -22v-78h-626v78l207 22q4 195 4 594v111q0 408 -7 608h-692q-4 -199 -4 -608v-111q0 -395 4 -594l207 -22v-78h-629v78l209 22q4 197 4 594v111q0 399 -4 596l-209 22v78h1536v-78l-209 -22q-4 -195 -4 -596z" />
    <glyph glyph-name="Identity.192" unicode="&#x420;" horiz-adv-x="1320" 
d="M637 600h-119q0 -328 4 -498l213 -24v-78h-635v78l209 22q4 197 4 594v111q0 399 -4 596l-209 22v78h602q276 0 420 -120q144 -119 144 -323t-154 -331t-475 -127zM666 1413h-144q-4 -199 -4 -608v-115h144q204 0 298 97t95 270q0 356 -389 356z" />
    <glyph glyph-name="Identity.193" unicode="&#x421;" horiz-adv-x="1417" 
d="M870 -33q-340 0 -551 217q-211 218 -211 564t217 567q216 221 545 221q238 0 428 -111l5 -329h-123l-56 286q-111 55 -229 56q-243 0 -399 -182t-156 -506q0 -326 150 -505t397 -179q141 0 258 55l55 285h123l-4 -330q-199 -109 -449 -109z" />
    <glyph glyph-name="Identity.194" unicode="&#x422;" horiz-adv-x="1353" 
d="M780 805v-111q0 -395 4 -592l232 -24v-78h-676v78l231 24q4 195 4 592v111q0 401 -4 598h-352l-61 -301h-113l18 399h1231l15 -399h-109l-63 301h-353q-4 -197 -4 -598z" />
    <glyph glyph-name="Identity.195" unicode="&#x423;" horiz-adv-x="1394" 
d="M1391 1501v-78l-185 -24l-493 -1137q-63 -152 -137 -224t-181 -71q-162 0 -164 172q41 70 129 70t175 -88q59 72 131 229l-486 1055l-153 18v78h579v-78l-203 -22l359 -821l334 817l-197 26v78h492z" />
    <glyph glyph-name="Identity.196" unicode="&#x424;" horiz-adv-x="1611" 
d="M946 238h-47l2 -158l221 -29v-78h-628v78l217 27l2 160h-47q-287 0 -444 138q-156 138 -156 377t154 375t446 138h47l-2 159l-217 23v80h628v-80l-221 -23l-2 -159h47q293 0 449 -138q155 -138 155 -376q0 -236 -158 -375t-446 -139zM938 1182h-41v-860h41q225 0 323 134
q85 114 86 299t-95 306t-314 121zM676 322h39v860h-39q-218 0 -314 -121t-96 -309t96 -310q97 -120 314 -120z" />
    <glyph glyph-name="Identity.197" unicode="&#x425;" horiz-adv-x="1449" 
d="M1425 0h-626v78l209 22l-322 549l-334 -543l187 -30v-76h-508v78l211 31l397 618l-397 676l-197 20v78h633v-78l-211 -22l297 -504l305 498l-199 28v78h512v-78l-202 -26l-371 -578l424 -719l192 -22v-78z" />
    <glyph glyph-name="Identity.198" unicode="&#x426;" horiz-adv-x="1726" 
d="M100 0v78l209 22q4 199 4 594v111q0 401 -4 596l-209 22v78h629v-78l-207 -22q-4 -197 -4 -596v-111q0 -401 4 -598h680q4 201 4 598v113q0 399 -4 594l-207 22v78h629v-78l-209 -22q-4 -197 -4 -596v-111q0 -401 4 -598h39v2l2 -2h191l-25 -499h-111l-47 403h-1364z" />
    <glyph glyph-name="Identity.199" unicode="&#x427;" horiz-adv-x="1576" 
d="M770 725q111 0 289 25v55q0 399 -4 596l-207 22v78h629v-78l-211 -22q-4 -195 -4 -596v-111q0 -395 4 -594l211 -22v-78h-629v78l207 22q4 180 4 553q-213 -41 -342 -41q-233 0 -350 90t-117 332v367l-193 22v78h609v-78l-211 -22l-2 -340q-1 -188 71 -262t246 -74z" />
    <glyph glyph-name="Identity.200" unicode="&#x428;" horiz-adv-x="2347" 
d="M2034 805v-111q0 -395 4 -594l211 -22v-78h-2151v78l211 22q4 199 4 594v111q0 401 -4 596l-211 22v78h613v-78l-189 -20q-4 -199 -4 -598v-111q0 -401 4 -598h545q4 197 4 606v101q0 401 -4 600l-188 20v78h589v-78l-188 -20q-4 -197 -4 -600v-101q0 -406 4 -606h545
q6 197 6 598v111q0 399 -6 598l-189 20v78h613v-78l-211 -22q-4 -195 -4 -596z" />
    <glyph glyph-name="Identity.201" unicode="&#x429;" horiz-adv-x="2351" 
d="M98 0v78l211 22q4 199 4 594v111q0 401 -4 596l-211 22v78h613v-78l-189 -20q-4 -199 -4 -598v-111q0 -401 4 -598h545q4 197 4 606v101q0 401 -4 600l-188 20v78h589v-78l-188 -20q-4 -197 -4 -600v-101q0 -406 4 -606h545q6 201 6 606v101q0 403 -6 600l-189 20v78h613
v-78l-211 -22q-4 -197 -4 -598v-101q0 -410 4 -606h39v2l2 -2h190l-24 -499h-111l-47 403h-1989z" />
    <glyph glyph-name="Identity.202" unicode="&#x42a;" horiz-adv-x="1624" 
d="M1575 440q0 -200 -154 -320t-450 -120h-588v78l209 22q2 195 2 594v111q0 401 -2 598h-375l-61 -303h-111l16 401h957v-78l-215 -22q-2 -176 -2 -533q109 10 196 11q274 0 426 -119t152 -320zM948 90q207 0 310 83q104 83 104 260t-99 263t-317 86q-74 0 -145 -6v-82
q0 -401 2 -604h145z" />
    <glyph glyph-name="Identity.203" unicode="&#x42b;" 
d="M1733 805v-111q0 -395 4 -594l209 -22v-78h-627v78l209 22q2 197 2 594v111q0 399 -2 596l-209 22v78h627v-78l-209 -22q-4 -195 -4 -596zM688 0h-588v78l209 22q4 197 4 594v111q0 399 -4 596l-209 22v78h658v-78l-236 -24q-4 -176 -4 -531q109 10 193 11
q260 0 404 -117q145 -117 145 -320q0 -202 -144 -322t-428 -120zM662 90q385 0 385 334q1 182 -87 270t-278 88q-100 0 -164 -8v-80q0 -403 4 -604h140z" />
    <glyph glyph-name="Identity.204" unicode="&#x42c;" horiz-adv-x="1363" 
d="M711 0h-611v78l209 22q4 197 4 594v111q0 399 -4 596l-209 22v78h654v-78l-232 -24q-4 -176 -4 -531q123 10 219 11q287 0 432 -117q145 -118 145 -314t-148 -322t-455 -126zM688 90q414 0 414 344q0 174 -91 261t-306 87q-111 0 -187 -8v-80q0 -401 4 -604h166z" />
    <glyph glyph-name="Identity.205" unicode="&#x42d;" horiz-adv-x="1376" 
d="M549 1536q336 0 527 -209q192 -209 192 -577t-188 -575q-188 -208 -529 -208q-252 0 -449 109l-4 330h121l57 -285q125 -55 275 -55q238 0 368 162t136 489h-463l-27 -215h-94v526h94l29 -221h461q-25 631 -516 631q-137 0 -246 -52l-57 -290h-121l4 329q193 111 430 111
z" />
    <glyph glyph-name="Identity.206" unicode="&#x42e;" horiz-adv-x="2228" 
d="M510 813h328q16 335 198 529t452 194t450 -205q182 -205 182 -579t-180 -580q-180 -205 -455 -205q-274 0 -458 202q-183 202 -191 556h-326q0 -430 4 -623l205 -24v-78h-619v78l209 22q4 197 4 594v111q0 399 -4 596l-209 22v78h619v-78l-205 -22q-4 -193 -4 -588z
M1481 63q205 0 310 198t105 490q0 291 -105 489t-310 198q-141 0 -239 -100q-182 -184 -183 -587q0 -404 182 -588q99 -100 240 -100z" />
    <glyph glyph-name="Identity.207" unicode="&#x42f;" horiz-adv-x="1443" 
d="M1151 805v-111q0 -397 4 -594l209 -22v-78h-629v78l209 24q4 188 4 584h-131q-139 0 -196 -41t-107 -186l-115 -328q-29 -86 -71 -120t-147 -34q-104 0 -177 23v76l189 18l112 322q53 147 109 216t155 93q-180 31 -273 133t-93 244q0 184 142 292t394 107h625v-78
l-209 -22q-4 -197 -4 -596zM752 776h196q0 438 -4 635h-172q-176 0 -266 -80t-90 -226q0 -145 87 -237t249 -92z" />
    <glyph glyph-name="Identity.208" unicode="&#x430;" horiz-adv-x="1142" 
d="M936 -25q-82 -1 -134 47t-67 130q-100 -100 -171 -140q-70 -40 -182 -41q-112 0 -196 72t-84 192q0 119 80 197t291 154q104 39 258 73v70q0 162 -49 220t-166 59q-57 0 -127 -19l-43 -153q-27 -104 -115 -104t-98 85q29 129 145 203t292 74t261 -90q84 -90 84 -295v-488
q0 -143 82 -143q45 0 90 55l41 -43q-70 -115 -192 -115zM293 270q0 -80 50 -124q49 -44 119 -44t120 26t149 105v357q-106 -31 -224 -75t-166 -105q-48 -60 -48 -140z" />
    <glyph glyph-name="Identity.209" unicode="&#x431;" horiz-adv-x="1220" 
d="M657 1061q199 0 330 -134t131 -393t-145 -411t-350 -152q-238 0 -368 173t-130 530q0 252 46 446t131 274t174 112t305 65t227 35l51 98l47 -12q-31 -180 -70 -228q-31 -33 -94 -48q-63 -16 -183 -32t-173 -25q-149 -25 -217 -83q-70 -54 -111 -196t-51 -341
q111 322 450 322zM627 57q135 0 216 121t81 345t-81 336t-217 112t-220 -114t-84 -336t85 -343t220 -121z" />
    <glyph glyph-name="Identity.210" unicode="&#x432;" horiz-adv-x="1155" 
d="M96 1063h582q172 0 263 -70t91 -188q0 -201 -256 -250q307 -39 307 -268q0 -123 -104 -205t-324 -82h-559v70l160 24q4 225 4 377v121q0 150 -4 379l-160 24v68zM627 983h-178q-4 -217 -5 -393h156q129 0 188 49t60 154q0 190 -221 190zM618 84q276 0 277 205
q0 225 -287 225h-164v-43q1 -158 5 -387h169z" />
    <glyph glyph-name="Identity.211" unicode="&#x433;" horiz-adv-x="1001" 
d="M444 471q0 -152 5 -377l180 -24v-70h-533v70l160 24q4 225 4 377v117q0 154 -4 383l-160 24v68h840l14 -385h-86l-86 305h-329q-4 -229 -5 -395v-117z" />
    <glyph glyph-name="Identity.212" unicode="&#x434;" horiz-adv-x="1277" 
d="M324 1063h856v-68l-162 -26q-4 -225 -4 -377v-121q0 -158 4 -387h182l-14 -428h-92l-56 344h-833l-58 -344h-92l-10 428h117q276 412 332 879l-170 32v68zM829 471v121q0 162 -4 391h-235q-47 -448 -295 -899h530q4 229 4 387z" />
    <glyph glyph-name="Identity.213" unicode="&#x435;" horiz-adv-x="1138" 
d="M670 96q104 0 177 41t138 121l45 -31q-133 -256 -424 -256q-229 -1 -367 147q-139 148 -139 403t151 414t349 159t316 -117t118 -311q0 -76 -16 -125l-721 2q2 -217 102 -332t271 -115zM852 748q0 106 -71 183t-181 77t-197 -98q-88 -98 -104 -283l432 -4q69 -1 95 31
t26 94z" />
    <glyph glyph-name="Identity.214" unicode="&#x436;" horiz-adv-x="1701" 
d="M1504 -23q-70 0 -112 27t-69 109l-80 237q-31 86 -76 115t-139 29h-92q0 -176 4 -398l164 -26v-70h-506v70l164 24q4 221 4 400h-90q-96 0 -141 -29t-76 -115l-78 -237q-27 -80 -70 -108t-113 -28t-165 23v68l162 24l73 209q39 111 106 163t185 73q-116 51 -173 217
q-28 82 -54 131q-49 -8 -113 -8q-131 0 -135 108q0 86 88 109q102 -6 167 -74t114 -210t100 -190t133 -49h80q0 176 -4 398l-164 26v68h506v-68l-164 -26q-4 -225 -4 -398h82q82 1 132 49t99 190t114 210t167 74q90 -25 90 -109q-6 -109 -137 -108q-39 0 -113 8
q-26 -49 -54 -132q-56 -168 -173 -216q119 -21 185 -73t108 -163l71 -209l162 -24v-68q-95 -23 -165 -23z" />
    <glyph glyph-name="Identity.215" unicode="&#x437;" horiz-adv-x="964" 
d="M614 567q279 -55 279 -293q0 -120 -123 -212t-332 -91q-156 0 -255 72t-107 197q31 68 104 63q66 0 99 -110l36 -136q55 -8 131 -8q119 -1 190 61t71 179q0 231 -232 231h-102v88h90q229 0 229 195q0 205 -235 205q-94 0 -162 -21l-53 -252h-101l-14 273q150 86 340 86
q191 0 295 -78t104 -197q0 -197 -252 -252z" />
    <glyph glyph-name="Identity.216" unicode="&#x438;" horiz-adv-x="1443" 
d="M1184 592v-121q0 -152 4 -377l160 -24v-70h-508v70l168 26v695l-570 -631v-64l170 -26v-70h-512v70l160 24q4 225 4 377v121q0 150 -4 379l-160 24v68h512v-68l-170 -28v-688l570 630v60l-168 26v68h508v-68l-160 -26q-4 -225 -4 -377z" />
    <glyph glyph-name="Identity.217" unicode="&#x439;" horiz-adv-x="1443" 
d="M1184 592v-121q0 -152 4 -377l160 -24v-70h-508v70l168 26v695l-570 -631v-64l170 -26v-70h-512v70l160 24q4 225 4 377v121q0 150 -4 379l-160 24v68h512v-68l-170 -28v-688l570 630v60l-168 26v68h508v-68l-160 -26q-4 -225 -4 -377zM922 1522q0 139 108 139
q51 0 82 -59q0 -141 -100 -236q-101 -94 -269 -94t-268 94t-100 236q31 59 83 59q111 0 109 -135q0 -68 -10 -125q78 -53 186 -53t187 53q-8 47 -8 121z" />
    <glyph glyph-name="Identity.218" unicode="&#x43a;" horiz-adv-x="1206" 
d="M1008 -23q-70 0 -113 28t-70 108l-80 237q-29 86 -75 119q-47 33 -142 33h-84q0 -182 5 -408l159 -24v-70h-512v70l160 24q4 225 4 377v121q0 150 -4 379l-160 24v68h512v-68l-159 -26q-4 -221 -5 -387h76q84 0 134 44t98 184t114 210q64 68 166 74q90 -25 90 -109
q0 -109 -137 -108q-39 0 -113 8q-28 -53 -54 -133q-52 -164 -175 -207q119 -21 187 -77t108 -167l72 -209l161 -24v-68q-93 -23 -163 -23z" />
    <glyph glyph-name="Identity.219" unicode="&#x43b;" horiz-adv-x="1292" 
d="M1032 592v-121q0 -152 4 -377l160 -24v-70h-512v70l160 24q4 225 4 377v121q0 164 -4 393h-252q-18 -406 -98 -661q-111 -350 -310 -351q-147 0 -147 154q39 80 105 80t137 -74q76 76 122 227q74 233 91 601l-189 34v68h893v-68l-160 -26q-4 -225 -4 -377z" />
    <glyph glyph-name="Identity.220" unicode="&#x43c;" horiz-adv-x="1658" 
d="M1399 592v-121q0 -152 4 -377l160 -24v-70h-510v70l170 24v365l8 526l-389 -895h-107l-399 897l18 -528v-359l162 -30v-70h-420v70l166 28v867l-164 30v68h387l353 -791l344 791h381v-68l-160 -26q-4 -225 -4 -377z" />
    <glyph glyph-name="Identity.221" unicode="&#x43d;" horiz-adv-x="1419" 
d="M1157 592v-121q0 -147 4 -377l160 -24v-70h-512v70l160 24q4 221 4 422h-529q0 -197 5 -422l159 -24v-70h-512v70l160 24q4 225 4 377v121q0 150 -4 379l-160 24v68h512v-68l-159 -26q-4 -221 -5 -371h529q0 152 -4 373l-160 24v68h512v-68l-160 -26q-4 -225 -4 -377z
" />
    <glyph glyph-name="Identity.222" unicode="&#x43e;" horiz-adv-x="1230" 
d="M305 530q-1 -230 79 -352q80 -121 228 -121t231 121q81 121 81 351q0 231 -81 355t-229 124t-228 -124q-81 -124 -81 -354zM613 -29q-213 -1 -363 147t-150 411t152 414t362 151t364 -151q152 -151 152 -415t-152 -410t-365 -147z" />
    <glyph glyph-name="Identity.223" unicode="&#x43f;" horiz-adv-x="1402" 
d="M1141 592v-121q0 -152 4 -377l160 -24v-70h-510v70l157 24q6 170 6 377v121q0 219 -6 391h-503q-4 -229 -5 -391v-121q0 -152 5 -377l159 -24v-70h-512v70l160 24q4 225 4 377v121q0 150 -4 379l-160 24v68h1209v-68l-160 -26q-4 -225 -4 -377z" />
    <glyph glyph-name="Identity.224" unicode="&#x440;" horiz-adv-x="1306" 
d="M777 1094q187 0 308 -152t121 -406t-129 -409q-129 -156 -320 -156t-315 150v-178q0 -127 4 -381l205 -31v-68h-573v68l182 29q4 254 4 377v651q0 160 -6 295l-180 18v68l315 123l31 -21l14 -143q152 166 339 166zM704 86q136 0 222 109t86 329t-79 338q-79 119 -209 119
t-275 -123v-661q119 -111 255 -111z" />
    <glyph glyph-name="Identity.225" unicode="&#x441;" horiz-adv-x="1095" 
d="M94 528q0 256 155 411t369 155q150 0 261 -81t133 -206q-18 -82 -108 -82t-109 104l-43 158q-61 20 -121 21q-156 0 -250 -122t-94 -335t102 -334t268 -121q199 0 314 170l45 -20q-102 -274 -416 -275q-229 0 -368 151q-138 150 -138 406z" />
    <glyph glyph-name="Identity.226" unicode="&#x442;" horiz-adv-x="1187" 
d="M686 592v-121q0 -150 4 -375l184 -26v-70h-561v70l185 26q4 225 4 375v121q0 162 -4 391h-275l-76 -283h-92l19 363h1040l19 -363h-93l-75 283h-275q-4 -229 -4 -391z" />
    <glyph glyph-name="Identity.227" unicode="&#x443;" horiz-adv-x="1146" 
d="M1149 1063v-70l-125 -20l-377 -996q-106 -283 -216 -409t-234 -127q-82 0 -142 40q-59 40 -59 101q10 45 50 69t93 23q76 0 164 -82l16 -16q129 100 218 334l10 24l-418 1043l-127 16v70h533v-70l-195 -20l295 -799l283 797l-203 22v70h434z" />
    <glyph glyph-name="Identity.228" unicode="&#x444;" horiz-adv-x="1646" 
d="M1094 1094q209 0 336 -144q126 -144 126 -410q0 -265 -126 -417t-336 -152q-100 0 -195 49q0 -213 4 -458l211 -31v-68h-592v68l213 31q4 254 4 454q-94 -45 -188 -45q-209 1 -336 145t-127 409t128 417t335 152q102 0 194 -52v398l-188 20v68l326 92l32 -16l-10 -322
v-235q90 47 189 47zM1055 57q153 0 235 121q82 122 82 358t-83 354t-234 118q-80 0 -150 -35v-881q63 -35 150 -35zM592 1008q-154 0 -236 -121t-82 -357t82 -355q82 -118 236 -118q84 0 147 35v881q-70 35 -147 35z" />
    <glyph glyph-name="Identity.229" unicode="&#x445;" horiz-adv-x="1175" 
d="M1153 0h-539v70l170 24l-239 346l-260 -344l174 -26v-70h-439v70l144 22l332 418l-312 457l-145 22v74h498v-74l-146 -24l232 -332l247 330l-155 26v74h413v-74l-131 -22l-327 -404l327 -471l156 -22v-70z" />
    <glyph glyph-name="Identity.230" unicode="&#x446;" horiz-adv-x="1392" 
d="M96 0v70l160 24q4 225 4 377v121q0 150 -4 379l-160 24v68h512v-68l-159 -26q-4 -225 -5 -377v-121q0 -158 5 -387h491q4 229 4 387v121q0 150 -4 379l-160 24v68h512v-68l-159 -26q-4 -225 -5 -377v-121q1 -158 5 -387h188l-25 -428h-92l-45 344h-1063z" />
    <glyph glyph-name="Identity.231" unicode="&#x447;" horiz-adv-x="1241" 
d="M981 592v-121q0 -152 4 -377l158 -24v-70h-510v70l160 24q4 217 4 363q-137 -31 -250 -31q-217 0 -301 94t-84 314v137l-139 24v68h481v-68l-158 -26v-135q0 -182 53 -246t222 -64q84 0 176 13v55q0 150 -4 379l-160 24v68h510v-68l-158 -26q-4 -225 -4 -377z" />
    <glyph glyph-name="Identity.232" unicode="&#x448;" horiz-adv-x="1925" 
d="M1663 592v-121q0 -209 6 -377l158 -24v-70h-1731v70l160 24q4 225 4 377v121q0 154 -4 379l-160 24v68h494v-68l-148 -26q-4 -225 -4 -377v-121q0 -158 4 -387h428q4 229 4 387v121q0 154 -4 379l-151 24v68h485v-68l-149 -26q-6 -170 -6 -377v-121q0 -215 6 -387h430
q4 229 4 387v121q0 150 -4 379l-150 24v68h492v-68l-158 -26q-6 -168 -6 -377z" />
    <glyph glyph-name="Identity.233" unicode="&#x449;" horiz-adv-x="1929" 
d="M96 0v70l160 24q4 225 4 377v121q0 150 -4 379l-160 24v68h494v-68l-148 -26q-4 -225 -4 -377v-121q0 -158 4 -387h428q4 229 4 387v121q0 150 -4 379l-151 24v68h485v-68l-149 -26q-6 -170 -6 -377v-121q0 -215 6 -387h430q4 229 4 387v121q0 152 -4 377l-150 26v68h492
v-68l-158 -26q-6 -168 -6 -377v-121q0 -215 6 -387h186l-28 -428h-90l-47 344h-1594z" />
    <glyph glyph-name="Identity.234" unicode="&#x44a;" horiz-adv-x="1366" 
d="M874 651q206 0 308 -92t102 -235q0 -144 -106 -234t-322 -90h-532v70l180 24q6 170 6 377v121q0 219 -6 391h-281l-65 -283h-92l18 363h780v-68l-168 -26q-4 -193 -4 -326q82 8 182 8zM823 80q272 0 273 244q0 236 -250 235q-90 0 -154 -8v-80q0 -162 4 -391h127z" />
    <glyph glyph-name="Identity.235" unicode="&#x44b;" horiz-adv-x="1689" 
d="M1419 592v-121q0 -147 4 -377l160 -24v-70h-512v70l160 24q4 225 4 377v121q0 150 -4 379l-160 24v68h512v-68l-160 -26q-4 -225 -4 -377zM598 651q205 0 308 -86q104 -86 104 -233q0 -148 -110 -240t-314 -92h-486v70l160 24q4 225 4 377v121q0 150 -4 379l-160 24v68
h512v-68l-159 -26q-4 -193 -4 -326q66 8 149 8zM549 80q272 0 272 244q0 125 -64 180q-65 55 -204 55q-55 0 -104 -6v-82q0 -162 4 -391h96z" />
    <glyph glyph-name="Identity.236" unicode="&#x44c;" horiz-adv-x="1124" 
d="M643 651q201 0 306 -90t105 -234q0 -143 -110 -235q-111 -92 -315 -92h-529v70l160 24q4 225 4 377v121q0 150 -4 379l-160 24v68h512v-68l-159 -26q-4 -193 -4 -328q109 10 194 10zM594 80q272 0 272 235q0 129 -63 187t-207 57q-49 0 -147 -8v-80q0 -162 4 -391h141z
" />
    <glyph glyph-name="Identity.237" unicode="&#x44d;" horiz-adv-x="1079" 
d="M92 242q22 63 97 63t98 -106l28 -127q57 -14 131 -15q162 1 248 103t92 348l-448 -10v102l448 -6q-8 227 -95 320t-236 94q-100 0 -166 -33l-53 -244h-109l-10 266q151 97 367 97t354 -144t139 -414q0 -268 -139 -416t-398 -149q-150 0 -248 75t-100 196z" />
    <glyph glyph-name="Identity.238" unicode="&#x44e;" horiz-adv-x="1785" 
d="M444 598h261q20 227 157 361q137 135 340 135t342 -154t139 -412t-138 -408t-348 -149q-210 -1 -350 145t-145 400h-258q0 -197 5 -422l159 -24v-70h-512v70l160 24q4 225 4 377v121q0 150 -4 379l-160 24v68h512v-68l-159 -26q-5 -221 -5 -371zM1196 57q287 0 287 471
q0 228 -73 354t-215 126t-221 -125t-79 -355q0 -471 301 -471z" />
    <glyph glyph-name="Identity.239" unicode="&#x44f;" horiz-adv-x="1193" 
d="M934 592v-121q0 -152 4 -377l158 -24v-70h-510v70l162 24q4 213 4 365h-107q-41 0 -65 -6t-49 -35t-31 -43t-37 -74l-117 -240q-26 -47 -60 -65q-81 -43 -261 4v70l159 22l86 191q72 156 205 204q-315 29 -315 283q0 133 99 213t292 80h545v-68l-158 -24q-4 -229 -4 -379
zM596 539h156v53q0 162 -4 391h-175q-229 0 -229 -211q0 -233 252 -233z" />
    <glyph glyph-name="Identity.240" unicode="&#x451;" horiz-adv-x="1138" 
d="M670 96q104 0 177 41t138 121l45 -31q-133 -256 -424 -256q-229 -1 -367 147q-139 148 -139 403t151 414t349 159t316 -117t118 -311q0 -76 -16 -125l-721 2q2 -217 102 -332t271 -115zM852 748q0 106 -71 183t-181 77t-197 -98q-88 -98 -104 -283l432 -4q69 -1 95 31
t26 94zM375 1346q-53 0 -91 34t-38 88q0 53 38 87t91 34t90 -34t37 -87q0 -54 -37 -88t-90 -34zM969 1468q0 -54 -37 -88t-89 -34t-91 34t-39 88q0 53 38 87t91 34t90 -34t37 -87z" />
    <glyph glyph-name="Identity.241" unicode="&#x2010;" 
d="M1280 737h-512v82h512v-82z" />
    <glyph glyph-name="Identity.242" unicode="&#x2015;" 
d="M2048 737h-2048v82h2048v-82z" />
    <glyph glyph-name="Identity.243" unicode="&#x2018;" horiz-adv-x="475" 
d="M358 1139q0 -59 -32 -92t-96 -33q-62 0 -109 43q-33 68 -33 157q0 136 85 262t218 205l35 -53q-92 -66 -140 -124t-83 -146l71 -62q84 -68 84 -157z" />
    <glyph glyph-name="Identity.244" unicode="&#x2019;" horiz-adv-x="475" 
d="M117 1556q0 58 33 92q34 34 98 34t106 -44q33 -68 33 -157q0 -135 -85 -261t-216 -206l-37 53q92 66 140 124t83 146l-69 62q-86 70 -86 157z" />
    <glyph glyph-name="Identity.245" unicode="&#x201c;" horiz-adv-x="917" 
d="M801 1139q0 -59 -33 -92q-34 -33 -96 -33t-109 43q-35 74 -35 157q0 136 85 262t218 205l37 -53q-92 -66 -140 -124t-83 -146l70 -62q86 -68 86 -157zM358 1139q0 -59 -32 -92t-96 -33q-62 0 -109 43q-33 68 -33 157q0 137 85 262t218 205l35 -53q-92 -66 -140 -124
t-83 -146l71 -62q84 -68 84 -157z" />
    <glyph glyph-name="Identity.246" unicode="&#x201d;" horiz-adv-x="917" 
d="M559 1556q0 58 33 92q32 34 96 34t109 -44q33 -68 32 -157q0 -135 -85 -261t-218 -206l-34 53q92 68 140 125t83 145l-72 62q-84 70 -84 157zM117 1556q0 58 33 92q34 34 98 34t106 -44q33 -68 33 -157q0 -135 -85 -261t-216 -206l-37 53q92 66 140 124t83 146l-69 62
q-86 70 -86 157z" />
    <glyph glyph-name="Identity.247" unicode="&#x2020;" 
d="M913 1480q0 128 112 128t112 -128q0 -68 -45 -200l-43 -168l153 45q125 43 211 43q121 0 121 -110q0 -49 -31 -81t-101 -32t-200 45l-151 41q80 -233 79 -408q0 -83 -28 -359t-47 -484h-60q-19 209 -47 484t-28 359q0 180 79 410l-151 -41q-122 -45 -196 -45
q-136 -1 -136 111t132 112q70 0 200 -45l153 -45l-43 168q-45 132 -45 200z" />
    <glyph glyph-name="Identity.248" unicode="&#x2021;" 
d="M913 1480q0 128 111 128q51 0 83 -30t32 -96t-47 -202l-43 -168l153 45q125 43 211 43q121 0 121 -110q0 -49 -31 -81t-101 -32t-200 45l-151 41q78 -240 78 -373t-78 -375l151 45q236 81 301 14q31 -32 31 -81q0 -113 -121 -113q-80 0 -211 45l-153 43l43 -166
q47 -142 47 -206t-32 -95t-83 -31t-81 32q-30 30 -30 100t45 200l43 166l-153 -45q-126 -43 -198 -43q-134 0 -134 113q0 49 31 80q66 66 301 -15l153 -45q-80 246 -79 377q0 131 77 375l-151 -41q-122 -45 -196 -45q-136 -1 -136 111t132 112q70 0 200 -45l153 -45l-43 168
q-45 132 -45 200z" />
    <glyph glyph-name="Identity.249" unicode="&#x2025;" 
d="M1536 662q-47 0 -82 34t-35 82q0 47 35 82t82 35t82 -35t35 -82q0 -48 -35 -82t-82 -34zM512 662q-47 0 -82 34t-35 82q0 47 35 82t82 35t82 -35t35 -82q0 -48 -35 -82t-82 -34z" />
    <glyph glyph-name="Identity.250" unicode="&#x2026;" 
d="M1706 662q-47 0 -82 34t-35 82q0 47 35 82t82 35t82 -35t35 -82q0 -48 -35 -82t-82 -34zM1024 662q-47 0 -82 34t-35 82q0 47 35 82t82 35t82 -35t35 -82q0 -48 -35 -82t-82 -34zM342 662q-47 0 -82 34t-35 82q0 47 35 82t82 35t82 -35t35 -82q0 -48 -35 -82t-82 -34z
" />
    <glyph glyph-name="Identity.251" unicode="&#x2030;" 
d="M1737 915q125 -1 207 -119t82 -355t-82 -351t-207 -115q-125 0 -207 115q-82 116 -82 352t82 354t207 119zM1884 446q0 412 -148 412t-149 -412q0 -412 150 -411q147 -1 147 411zM1090 915q124 -1 206 -119t82 -355t-82 -351t-206 -115q-124 0 -207 115q-82 116 -82 352
t82 354t207 119zM1237 446q1 412 -147 412t-148 -412t148 -411q147 -1 147 411zM383 -45l-76 33l699 1511l75 -35zM314 1509q126 1 206 -117t80 -356t-80 -352t-206 -115q-126 0 -208 116q-82 117 -82 353t82 354q82 117 208 117zM312 1450q-148 0 -148 -412t149 -411
q147 -1 147 411t-148 412z" />
    <glyph glyph-name="Identity.252" unicode="&#x2032;" horiz-adv-x="552" 
d="M282 1655q54 0 84 -32t29 -81q0 -80 -112 -407q-27 -76 -64 -168l-61 8l26 647q44 33 98 33z" />
    <glyph glyph-name="Identity.253" unicode="&#x2033;" horiz-adv-x="952" 
d="M681 1655q54 0 84 -32q30 -31 30 -91t-70 -266t-107 -299l-61 8l27 647q43 33 97 33zM282 1655q54 0 84 -32t29 -81q0 -80 -112 -407q-27 -76 -64 -168l-61 8l26 647q44 33 98 33z" />
    <glyph glyph-name="Identity.254" unicode="&#x203b;" 
d="M1024 348q62 0 108 -45t46 -108t-45 -109t-109 -45q-64 0 -109 45q-45 44 -45 108t45 109q46 45 109 45zM1454 778q0 62 45 108t109 46t108 -45q45 -45 45 -109t-45 -108q-45 -45 -108 -45t-109 45q-45 45 -45 108zM594 778q0 -63 -45 -108t-109 -45t-108 45
q-45 45 -45 108q0 62 45 108t108 46t109 -45q45 -46 45 -109zM348 1513l676 -675l676 675l59 -59l-676 -676l676 -676l-59 -59l-676 676l-678 -678l-59 59l678 678l-676 676zM1024 1208q-63 0 -109 45q-45 45 -45 109t45 108q45 46 109 46t108 -46q46 -46 46 -108
q0 -63 -45 -109q-46 -45 -109 -45z" />
    <glyph glyph-name="Identity.255" unicode="&#x2103;" 
d="M1526 -37q-297 0 -482 211q-184 211 -184 592t188 593t490 212q180 0 338 -101l8 -340h-108l-54 322q-74 33 -168 33q-221 1 -350 -189t-129 -530t131 -528t346 -189q98 0 181 41l59 318h106l-8 -334q-162 -111 -364 -111zM431 1571q120 0 206 -84t86 -216t-86 -215
t-206 -83t-207 83t-87 215t87 216t207 84zM432 1055q86 0 143 59q57 60 57 158t-56 158q-58 60 -144 59q-86 0 -144 -59q-58 -60 -58 -158t58 -158t144 -59z" />
    <glyph glyph-name="Identity.256" unicode="&#x212b;" 
d="M1767 0h-641v78l215 16l-135 410h-508l-129 -406l191 -20v-78h-467v78l184 18l436 1325q-90 25 -146 97t-56 184t85 188q84 78 204 78t206 -79t86 -186t-52 -177t-134 -99l463 -1335l198 -14v-78zM825 1691q0 -75 48 -128t127 -53t128 54q50 54 50 128t-48 127t-127 53
q-80 0 -129 -53t-49 -128zM723 586h457l-234 706z" />
    <glyph glyph-name="Identity.257" unicode="&#x2190;" 
d="M1966 823v-90h-1677q231 -178 387 -389l-72 -57q-207 283 -534 491q328 209 534 492l72 -58q-154 -209 -387 -389h1677z" />
    <glyph glyph-name="Identity.258" unicode="&#x2191;" 
d="M1069 -164h-90v1677q-180 -233 -389 -387l-58 72q283 207 492 535q209 -328 492 -535l-58 -72q-211 156 -389 387v-1677z" />
    <glyph glyph-name="Identity.259" unicode="&#x2192;" 
d="M82 733v90h1677q-233 180 -387 389l72 58q207 -283 534 -492q-328 -209 -534 -491l-72 57q156 211 387 389h-1677z" />
    <glyph glyph-name="Identity.260" unicode="&#x2193;" 
d="M979 1720h90v-1677q178 231 389 387l58 -72q-283 -207 -492 -534q-209 328 -492 534l58 72q209 -154 389 -387v1677z" />
    <glyph glyph-name="Identity.261" unicode="&#x21d2;" 
d="M82 426v92h1495q152 150 272 236q-121 86 -272 235h-1495v92h1409q-125 137 -217 277l76 51q117 -178 298 -360t359 -295q-178 -113 -359 -295t-298 -361l-76 52q104 154 217 276h-1409z" />
    <glyph glyph-name="Identity.262" unicode="&#x21d4;" 
d="M471 518h1106q166 158 272 236q-106 78 -272 235h-1106q-166 -158 -272 -235q106 -78 272 -236zM1350 1409q117 -178 298 -360t359 -295q-178 -113 -359 -295t-298 -361l-76 52q100 147 217 276h-934q117 -129 217 -276l-76 -52q-117 178 -298 360t-359 296
q178 113 359 295t298 360l76 -51q-100 -147 -217 -277h934q-117 129 -217 277z" />
    <glyph glyph-name="Identity.263" unicode="&#x2200;" 
d="M1382 872h-716l356 -702h4zM1802 1491l-776 -1516h-4l-776 1516l84 41l288 -567h812l288 567z" />
    <glyph glyph-name="Identity.264" unicode="&#x2202;" 
d="M1550 834q0 -404 -171 -636t-451 -233q-201 0 -316 121q-114 122 -114 348t159 361t359 135t311 -109v35q0 307 -66 434q-67 127 -211 127t-294 -125l-47 56q139 158 383 157q210 0 334 -166t124 -505zM946 43q135 0 246 174t131 510q-104 104 -252 104q-147 1 -257 -121
t-109 -339q0 -156 63 -242t178 -86z" />
    <glyph glyph-name="Identity.265" unicode="&#x2203;" 
d="M1618 1460v-1413h-1208v92h1116v580h-1116v90h1116v559h-1116v92h1208z" />
    <glyph glyph-name="Identity.266" unicode="&#x2207;" 
d="M1686 1532v-80l-572 -1452h-147l-602 1452v80h1321zM625 1425l489 -1208l467 1208h-956z" />
    <glyph glyph-name="Identity.267" unicode="&#x2208;" 
d="M1772 1399v-92h-742q-305 -1 -475 -139t-184 -369h1401v-90h-1401q14 -231 184 -369t475 -139h742v-92h-742q-366 0 -560 181t-194 464t194 464t560 181h742z" />
    <glyph glyph-name="Identity.268" unicode="&#x220b;" 
d="M1018 1307h-742v92h742q366 0 560 -181t194 -464t-194 -464t-560 -181h-742v92h742q305 0 475 138t184 370h-1401v90h1401q-14 231 -184 369t-475 139z" />
    <glyph glyph-name="Identity.269" unicode="&#x221a;" 
d="M428 690v129h373l274 -850l395 1839h152l-494 -2044h-120l-320 926h-260z" />
    <glyph glyph-name="Identity.270" unicode="&#x221d;" 
d="M504 1092q-144 0 -244 -98t-100 -240t99 -240t245 -98t265 81q120 81 237 255v4q-117 174 -237 255t-265 81zM1622 416q178 0 281 141l73 -53q-131 -180 -354 -180q-322 0 -555 354h-4q-117 -172 -250 -263t-313 -91t-306 126t-126 304t127 304t306 126t312 -91t250 -264
h4q233 354 555 355q223 0 354 -180l-73 -54q-102 141 -281 142q-279 0 -500 -336v-4q221 -336 500 -336z" />
    <glyph glyph-name="Identity.271" unicode="&#x221e;" 
d="M1563 418q139 0 232 97t93 239t-93 238q-93 97 -232 98q-267 0 -480 -334v-4q213 -334 480 -334zM485 1090q-139 0 -232 -98t-93 -238t93 -238t232 -98q267 0 480 334v4q-213 334 -480 334zM487 326q-176 0 -298 124t-121 304q0 180 121 304q122 124 298 124
q315 0 535 -353h4q219 352 535 353q176 0 298 -124q121 -124 121 -304t-122 -304t-297 -124q-316 0 -535 352h-4q-219 -352 -535 -352z" />
    <glyph glyph-name="Identity.272" unicode="&#x2220;" 
d="M403 137h1440v-90h-1661v4l1422 1424l67 -68l-1268 -1266v-4z" />
    <glyph glyph-name="Identity.273" unicode="&#x2225;" 
d="M1565 1513l82 -40l-803 -1604l-82 41zM1208 1690l82 -41l-803 -1604l-81 41z" />
    <glyph glyph-name="Identity.274" unicode="&#x2227;" 
d="M1026 1335h-4l-692 -1360l-84 41l776 1516h4l776 -1516l-84 -41z" />
    <glyph glyph-name="Identity.275" unicode="&#x2228;" 
d="M330 1532l692 -1360h4l692 1360l84 -41l-776 -1516h-4l-776 1516z" />
    <glyph glyph-name="Identity.276" unicode="&#x2229;" 
d="M379 772q0 366 181 560t464 194t464 -194t181 -560v-741h-92v741q0 318 -152 490q-151 172 -401 172t-402 -171t-151 -491v-741h-92v741z" />
    <glyph glyph-name="Identity.277" unicode="&#x222a;" 
d="M1024 31q-283 -1 -464 193t-181 560v742h92v-742q0 -319 152 -490q151 -171 401 -171t402 171t151 490v742h92v-742q0 -367 -181 -560t-464 -193z" />
    <glyph glyph-name="Identity.278" unicode="&#x222b;" 
d="M1036 186q0 109 -45 314q-37 190 -55 254q-84 383 -84 520q0 238 118 374t265 136q63 0 121 -25t71 -59q-4 -102 -102 -103q-66 0 -137 58l-45 39q-135 -86 -135 -324q0 -111 47 -316q139 -606 139 -769q0 -231 -118 -371t-267 -139q-63 1 -121 25t-72 59q4 100 103 100
q73 0 141 -57l41 -37q135 90 135 321z" />
    <glyph glyph-name="Identity.279" unicode="&#x222c;" 
d="M1354 186q0 83 -18 178q-61 313 -83 390q-84 383 -84 520q0 238 118 374t265 136q62 0 120 -25t73 -59q-4 -102 -103 -103q-66 0 -137 58l-45 39q-135 -86 -135 -324q1 -88 23 -196q22 -107 47 -216q116 -506 116 -673q0 -231 -117 -371q-118 -139 -268 -139
q-63 1 -120 25t-72 59q4 100 102 100q74 0 142 -57l41 -37q135 90 135 321zM688 1370q0 -88 22 -196q22 -107 48 -216q117 -511 116 -673q0 -231 -117 -371q-118 -139 -268 -139q-63 1 -120 25t-72 59q4 100 102 100q74 0 142 -57l41 -37q135 90 135 321q-1 83 -19 178
q-61 313 -82 390q-84 383 -84 520q0 238 118 374t265 136q63 0 121 -25t72 -59q-4 -102 -102 -103q-66 1 -138 58l-45 39q-135 -86 -135 -324z" />
    <glyph glyph-name="Identity.280" unicode="&#x2234;" 
d="M1551 399q61 0 103 -41t42 -101t-42 -102t-103 -42q-60 0 -102 42t-42 102t42 101t102 41zM497 113q-60 0 -103 42q-42 42 -42 102t42 101t102 41t103 -41q42 -41 42 -101t-42 -102t-102 -42zM1024 1100q-61 0 -102 42t-41 102t41 102t102 43q61 0 102 -42
q41 -43 41 -103t-41 -102t-102 -42z" />
    <glyph glyph-name="Identity.281" unicode="&#x2235;" 
d="M1407 1250q0 60 42 102t102 43q61 0 103 -42q42 -43 42 -103t-42 -101t-102 -41t-103 41q-42 41 -42 101zM352 1250q0 60 42 102t102 43q60 0 103 -42q42 -43 42 -103t-42 -101t-102 -41t-103 41q-42 41 -42 101zM881 263q0 61 41 103t102 42t102 -42t41 -102t-41 -103
q-41 -42 -102 -42t-102 42t-41 102z" />
    <glyph glyph-name="Identity.282" unicode="&#x223d;" 
d="M488 326q-178 0 -300 125q-121 125 -120 303q0 178 120 303q121 125 299 125q217 0 377 -156l-67 -65q-127 129 -312 129q-137 0 -231 -98t-94 -238t94 -238t232 -98t255 77t232 259q133 221 272 324q139 104 317 104t299 -125q119 -125 119 -303t-120 -303t-297 -125
q-217 0 -377 155l67 66q127 -129 312 -129q137 0 230 97t93 239t-93 238q-93 98 -231 98t-256 -77t-231 -259q-133 -220 -272 -324t-317 -104z" />
    <glyph glyph-name="Identity.283" unicode="&#x2252;" 
d="M1382 51q-61 0 -102 42q-41 43 -41 103t41 102t102 42q60 0 102 -42t42 -102t-41 -103q-42 -42 -103 -42zM1741 600v-92h-1434v92h1434zM1741 999v-92h-1434v92h1434zM666 1167q-61 0 -103 42q-41 43 -41 103t41 102t103 42t102 -42q41 -42 41 -102t-41 -102t-102 -43z
" />
    <glyph glyph-name="Identity.284" unicode="&#x2260;" 
d="M1741 500h-770l-144 -396l-86 31l131 365h-565v92h600l119 323h-719v93h752l145 397l86 -31l-133 -366h584v-93h-619l-118 -323h737v-92z" />
    <glyph glyph-name="Identity.285" unicode="&#x2261;" 
d="M1741 457v-90h-1434v90h1434zM1741 799v-90h-1434v90h1434zM1741 1141v-90h-1434v90h1434z" />
    <glyph glyph-name="Identity.286" unicode="&#x2266;" 
d="M246 23h1556v-93h-1556v93zM246 303h1556v-92h-1556v92zM1767 465l-1536 622v5l1536 622l35 -86l-1331 -536v-5l1331 -536z" />
    <glyph glyph-name="Identity.287" unicode="&#x2267;" 
d="M246 -70v93h1556v-93h-1556zM246 211v92h1556v-92h-1556zM1817 1092v-5l-1536 -622l-35 86l1331 536v5l-1331 536l35 86z" />
    <glyph glyph-name="Identity.288" unicode="&#x226a;" 
d="M856 752l1004 -701l-54 -76l-1106 777v4l1108 776l52 -76l-1004 -700v-4zM340 752l1001 -701l-53 -76l-1104 777v4l1106 776l51 -76l-1001 -700v-4z" />
    <glyph glyph-name="Identity.289" unicode="&#x226b;" 
d="M238 -25l-54 76l1004 701v4l-1004 700l52 76l1107 -776v-4zM756 -25l-54 76l1002 701v4l-1002 700l52 76l1106 -776v-4z" />
    <glyph glyph-name="Identity.290" unicode="&#x2282;" 
d="M276 754q0 283 194 464t560 181h742v-92h-742q-319 0 -490 -152q-171 -151 -171 -401t171 -402t490 -151h742v-92h-742q-366 0 -560 181t-194 464z" />
    <glyph glyph-name="Identity.291" unicode="&#x2283;" 
d="M1018 1399q366 0 560 -181t194 -464t-194 -464t-560 -181h-742v92h742q319 -1 490 151t171 402t-171 402t-490 151h-742v92h742z" />
    <glyph glyph-name="Identity.292" unicode="&#x2286;" 
d="M1772 27h-1475v92h1475v-92zM1772 1481v-92h-852q-266 -1 -408 -133t-143 -338q0 -206 142 -339q142 -132 409 -133h852v-92h-852q-305 0 -475 160q-169 160 -169 404t169 404t475 159h852z" />
    <glyph glyph-name="Identity.293" unicode="&#x2287;" 
d="M1751 119v-92h-1475v92h1475zM1128 1389h-852v92h852q304 0 474 -160q170 -159 170 -403t-169 -404t-475 -160h-852v92h852q266 0 408 132t143 340q-1 207 -143 339t-408 132z" />
    <glyph glyph-name="Identity.294" unicode="&#x22a5;" 
d="M1843 47h-1638v88h774v1323h90v-1323h774v-88z" />
    <glyph glyph-name="Identity.295" unicode="&#x2312;" 
d="M1024 1604q-506 0 -971 -228l-24 41q444 317 995 317t995 -317l-24 -41q-465 228 -971 228z" />
    <glyph glyph-name="Identity.296" unicode="&#x2500;" 
d="M0 737v82h2048v-82h-2048z" />
    <glyph glyph-name="Identity.297" unicode="&#x2501;" 
d="M0 655v246h2048v-246h-2048z" />
    <glyph glyph-name="Identity.298" unicode="&#x2502;" 
d="M983 -246v2048h82v-2048h-82z" />
    <glyph glyph-name="Identity.299" unicode="&#x2503;" 
d="M901 -246v2048h246v-2048h-246z" />
    <glyph glyph-name="Identity.300" unicode="&#x250c;" 
d="M2048 737h-983v-983h-82v1065h1065v-82z" />
    <glyph glyph-name="Identity.301" unicode="&#x250f;" 
d="M2048 655h-901v-901h-246v1147h1147v-246z" />
    <glyph glyph-name="Identity.302" unicode="&#x2510;" 
d="M1065 -246h-82v983h-983v82h1065v-1065z" />
    <glyph glyph-name="Identity.303" unicode="&#x2513;" 
d="M1147 -246h-246v901h-901v246h1147v-1147z" />
    <glyph glyph-name="Identity.304" unicode="&#x2514;" 
d="M2048 737h-1065v1065h82v-983h983v-82z" />
    <glyph glyph-name="Identity.305" unicode="&#x2517;" 
d="M901 655v1147h246v-901h901v-246h-1147z" />
    <glyph glyph-name="Identity.306" unicode="&#x2518;" 
d="M1065 737h-1065v82h983v983h82v-1065z" />
    <glyph glyph-name="Identity.307" unicode="&#x251b;" 
d="M0 655v246h901v901h246v-1147h-1147z" />
    <glyph glyph-name="Identity.308" unicode="&#x251c;" 
d="M2048 737h-983v-983h-82v2048h82v-983h983v-82z" />
    <glyph glyph-name="Identity.309" unicode="&#x251d;" 
d="M2048 655h-983v-901h-82v2048h82v-901h983v-246z" />
    <glyph glyph-name="Identity.310" unicode="&#x2520;" 
d="M2048 737h-901v-983h-246v2048h246v-983h901v-82z" />
    <glyph glyph-name="Identity.311" unicode="&#x2523;" 
d="M2048 655h-901v-901h-246v2048h246v-901h901v-246z" />
    <glyph glyph-name="Identity.312" unicode="&#x2524;" 
d="M1065 -246h-82v983h-983v82h983v983h82v-2048z" />
    <glyph glyph-name="Identity.313" unicode="&#x2525;" 
d="M1065 -246h-82v901h-983v246h983v901h82v-2048z" />
    <glyph glyph-name="Identity.314" unicode="&#x2528;" 
d="M1147 -246h-246v983h-901v82h901v983h246v-2048z" />
    <glyph glyph-name="Identity.315" unicode="&#x252b;" 
d="M1147 -246h-246v901h-901v246h901v901h246v-2048z" />
    <glyph glyph-name="Identity.316" unicode="&#x252c;" 
d="M2048 737h-983v-983h-82v983h-983v82h2048v-82z" />
    <glyph glyph-name="Identity.317" unicode="&#x252f;" 
d="M2048 655h-983v-901h-82v901h-983v246h2048v-246z" />
    <glyph glyph-name="Identity.318" unicode="&#x2530;" 
d="M2048 737h-901v-983h-246v983h-901v82h2048v-82z" />
    <glyph glyph-name="Identity.319" unicode="&#x2533;" 
d="M2048 655h-901v-901h-246v901h-901v246h2048v-246z" />
    <glyph glyph-name="Identity.320" unicode="&#x2534;" 
d="M2048 737h-2048v82h983v983h82v-983h983v-82z" />
    <glyph glyph-name="Identity.321" unicode="&#x2537;" 
d="M2048 655h-2048v246h983v901h82v-901h983v-246z" />
    <glyph glyph-name="Identity.322" unicode="&#x2538;" 
d="M2048 737h-2048v82h901v983h246v-983h901v-82z" />
    <glyph glyph-name="Identity.323" unicode="&#x253b;" 
d="M2048 655h-2048v246h901v901h246v-901h901v-246z" />
    <glyph glyph-name="Identity.324" unicode="&#x253c;" 
d="M2048 737h-983v-983h-82v983h-983v82h983v983h82v-983h983v-82z" />
    <glyph glyph-name="Identity.325" unicode="&#x253f;" 
d="M2048 655h-983v-901h-82v901h-983v246h983v901h82v-901h983v-246z" />
    <glyph glyph-name="Identity.326" unicode="&#x2542;" 
d="M2048 737h-901v-983h-246v983h-901v82h901v983h246v-983h901v-82z" />
    <glyph glyph-name="Identity.327" unicode="&#x254b;" 
d="M2048 655h-901v-901h-246v901h-901v246h901v901h246v-901h901v-246z" />
    <glyph glyph-name="Identity.328" unicode="&#x25a0;" 
d="M1843 -41h-1638v1638h1638v-1638z" />
    <glyph glyph-name="Identity.329" unicode="&#x25a1;" 
d="M1761 41v1475h-1474v-1475h1474zM1843 -41h-1638v1638h1638v-1638z" />
    <glyph glyph-name="Identity.330" unicode="&#x25b2;" 
d="M61 25l963 1667l963 -1667h-1926z" />
    <glyph glyph-name="Identity.331" unicode="&#x25b3;" 
d="M1024 1528l-821 -1422h1642zM61 25l963 1667l963 -1667h-1926z" />
    <glyph glyph-name="Identity.332" unicode="&#x25bc;" 
d="M1987 1532l-963 -1667l-963 1667h1926z" />
    <glyph glyph-name="Identity.333" unicode="&#x25bd;" 
d="M1845 1450h-1642l821 -1421zM1987 1532l-963 -1667l-963 1667h1926z" />
    <glyph glyph-name="Identity.334" unicode="&#x25c6;" 
d="M1024 1778l999 -1000l-999 -999l-999 999z" />
    <glyph glyph-name="Identity.335" unicode="&#x25c7;" 
d="M1024 1778l999 -1000l-999 -999l-999 999zM1024 1663l-885 -885l885 -884l885 884z" />
    <glyph glyph-name="Identity.336" unicode="&#x25cb;" 
d="M205 778q-1 -340 239 -580t580 -239q340 0 580 240q240 239 240 579t-240 580t-580 240t-580 -240q-239 -240 -239 -580zM1024 -123q-373 0 -637 264t-264 637t264 637t637 264t637 -264t264 -637t-264 -637t-637 -264z" />
    <glyph glyph-name="Identity.337" unicode="&#x25ce;" 
d="M496 778q0 -216 156 -372t372 -156q217 0 373 156q155 156 155 372t-155 373q-156 156 -373 156q-216 0 -372 -156t-156 -373zM205 778q-1 -340 239 -580t580 -239q340 0 580 240q240 239 240 579t-240 580t-580 240t-580 -240q-239 -240 -239 -580zM1024 -123
q-373 0 -637 264t-264 637t264 637t637 264t637 -264t264 -637t-264 -637t-637 -264zM1024 168q-254 0 -432 178t-178 432t178 432t432 178t432 -178t178 -432t-178 -432t-432 -178z" />
    <glyph glyph-name="Identity.338" unicode="&#x25cf;" 
d="M1024 -123q-373 0 -637 264t-264 637t264 637t637 264t637 -264t264 -637t-264 -637t-637 -264z" />
    <glyph glyph-name="Identity.339" unicode="&#x25ef;" 
d="M123 778q0 -373 264 -637t637 -264t637 264t264 637t-264 637t-637 264t-637 -264t-264 -637zM2007 778q0 -266 -132 -492t-358 -358q-227 -132 -493 -133q-266 0 -493 132q-226 133 -358 359t-132 492t132 492t358 359q227 132 493 132t492 -132q226 -133 359 -359
q132 -226 132 -492z" />
    <glyph glyph-name="Identity.340" unicode="&#x2605;" 
d="M1970 991v-4l-581 -422l227 -692h-4l-588 426l-588 -426h-4l227 692l-581 422v4h719l225 690h4l225 -690h719z" />
    <glyph glyph-name="Identity.341" unicode="&#x2606;" 
d="M311 915v-4l441 -315l-177 -526h5l444 325l446 -325h3l-177 526l441 315v4h-543l-168 519h-4l-168 -519h-543zM1970 991v-4l-581 -422l227 -692h-4l-588 426l-588 -426h-4l227 692l-581 422v4h719l225 690h4l225 -690h719z" />
    <glyph glyph-name="Identity.342" unicode="&#x2640;" 
d="M707 1270q0 -131 93 -224q93 -94 224 -94t224 94t93 224q0 131 -93 224t-224 93t-224 -93t-93 -224zM1024 1679q170 1 290 -119t120 -284t-106 -281t-259 -133v-266h602v-90h-602v-629h-90v629h-602v90h602v266q-154 16 -259 133q-106 117 -106 281t120 284t290 119z" />
    <glyph glyph-name="Identity.343" unicode="&#x2642;" 
d="M340 411q0 -133 92 -225t224 -92t226 93q93 93 93 225t-93 224q-92 93 -224 93t-225 -93t-93 -225zM997 1489h738v-737h-88v583l-670 -667q90 -104 90 -265t-120 -281t-290 -120q-169 0 -289 120t-120 290t120 290t276 119q156 0 269 -88l668 668h-584v88z" />
    <glyph glyph-name="Identity.344" unicode="&#x266a;" 
d="M995 1720h52q0 -244 237 -450q264 -228 264 -456t-172 -505h-53q129 270 129 438q0 169 -106 299t-269 166v-1028q1 -154 -111 -251t-264 -97q-76 0 -133 40t-57 112q0 106 113 194t241 88q80 0 129 -26v1476z" />
    <glyph glyph-name="Identity.345" unicode="&#x266d;" 
d="M1319 677q0 183 -170 183q-80 0 -179 -74t-177 -217v-532q67 72 175 162t176 146q68 57 122 147q53 90 53 185zM1231 973q131 1 208 -73t77 -188t-54 -210t-146 -168t-190 -134q-282 -178 -393 -313h-20v1784h80v-991q74 131 190 212q117 81 248 81z" />
    <glyph glyph-name="Identity.346" unicode="&#x266f;" 
d="M1202 606v420l-362 -51v-420zM1280 -49h-78v489l-362 -51v-502h-78v490l-279 -41v168l279 39v420l-279 -41v168l279 38v482h78v-469l362 53v479h78v-467l279 39v-166l-279 -41v-420l279 41v-165l-279 -41v-502z" />
    <glyph glyph-name="Identity.347" unicode="&#x3001;" 
d="M604 -44q0 -58 -26 -87t-72 -29q-66 0 -109 90q-55 118 -125 212t-196 184l22 30q334 -88 459 -272q47 -70 47 -128z" />
    <glyph glyph-name="Identity.348" unicode="&#x3002;" 
d="M374 338q-89 0 -154 -64q-64 -64 -64 -153q0 -90 64 -155q64 -64 154 -64t154 64t64 154t-64 154t-154 64zM374 -168q-120 0 -204 84t-84 204t84 204t205 84t204 -83t83 -204t-84 -205t-204 -84z" />
    <glyph glyph-name="Identity.349" unicode="&#x3003;" 
d="M1092 313l274 922q25 59 117 25q92 -37 65 -99q-14 -47 -411 -866zM504 313l274 922q25 57 117 25q92 -37 66 -99q-16 -47 -412 -866z" />
    <glyph glyph-name="Identity.350" unicode="&#x3005;" 
d="M975 973q51 0 187 10t176 16t74 30q32 24 48 24q45 0 125 -75q80 -76 80 -114t-70 -73q-31 -16 -45 -31q-291 -324 -381 -410q90 -72 154 -137q96 -104 96 -174q0 -100 -82 -100q-27 0 -49 14q-22 15 -30 29q-9 14 -35 59q-90 143 -207 255t-293 241l29 38
q188 -70 344 -174q219 266 317 467q16 35 -22 35q-117 -5 -242 -21t-154 -24t-46 -8t-66 45q-47 -63 -113 -139q-264 -309 -487 -465l-39 39q234 238 422 498t264 458q16 43 -19 76t-120 70l16 41q143 -6 215 -46q49 -25 94 -69t45 -72q0 -30 -35 -60t-82 -104t-104 -149h35
z" />
    <glyph glyph-name="Identity.351" unicode="&#x3006;" 
d="M1464 1636l11 33q121 0 180 -31q121 -68 164 -168q20 -44 10 -68q-11 -24 -75 -50t-193 -138q-129 -111 -355 -331q246 -176 363 -332q90 -115 84 -203q-2 -46 -28 -68q-27 -22 -61 -11t-65 55q-166 238 -405 442q-250 -268 -498 -584q-44 -57 -106 -150t-97 -132
t-73 -36t-58 54q-41 86 21 164q49 68 65 142t55 343q39 270 62 379q45 229 301 160q164 -43 342 -158q434 461 461 499q27 37 29 59t-28 54q-28 32 -106 76zM539 928q-19 -94 -39 -294t-24 -264t8 -69q12 -7 40 21t200 216q171 188 282 304q-152 119 -277 170
q-154 63 -190 -84z" />
    <glyph glyph-name="Identity.352" unicode="&#x3007;" 
d="M193 778q-1 -344 243 -588t588 -244t588 244t243 588q0 344 -243 588q-244 244 -588 244t-588 -244t-243 -588zM1024 -145q-250 -1 -463 123t-337 337t-124 463t124 463t337 337t463 124t463 -124t337 -337t124 -463t-124 -463t-337 -337t-463 -123z" />
    <glyph glyph-name="Identity.353" unicode="&#x3008;" 
d="M1976 1688l-778 -910l778 -909l-61 -53l-825 962l825 963z" />
    <glyph glyph-name="Identity.354" unicode="&#x3009;" 
d="M72 -131l778 909l-778 910l61 53l825 -963l-825 -962z" />
    <glyph glyph-name="Identity.355" unicode="&#x300a;" 
d="M1448 778l526 -921l-59 -37l-549 958l549 959l59 -37zM1155 778l528 -921l-59 -37l-551 958l551 959l59 -37z" />
    <glyph glyph-name="Identity.356" unicode="&#x300b;" 
d="M133 -180l-59 37l526 921l-526 922l59 37l549 -959zM424 -180l-59 37l528 921l-528 922l59 37l551 -959z" />
    <glyph glyph-name="Identity.357" unicode="&#x300c;" 
d="M1341 406v1325h635v-74h-557v-1251h-78z" />
    <glyph glyph-name="Identity.358" unicode="&#x300d;" 
d="M707 1151v-1325h-635v74h557v1251h78z" />
    <glyph glyph-name="Identity.359" unicode="&#x300e;" 
d="M1919 1675h-614v-1226h192v1042h422v184zM1976 1434h-422v-1043h-307v1342h729v-299z" />
    <glyph glyph-name="Identity.360" unicode="&#x300f;" 
d="M129 -117h614v1225h-192v-1040h-422v-185zM72 125h422v1040h307v-1339h-729v299z" />
    <glyph glyph-name="Identity.361" unicode="&#x3010;" 
d="M1976 -174h-702v1905h702v-35q-250 -114 -394 -350t-144 -568t144 -567t394 -350v-35z" />
    <glyph glyph-name="Identity.362" unicode="&#x3011;" 
d="M610 778q0 332 -144 568t-394 350v35h702v-1905h-702v35q250 115 394 351q144 234 144 566z" />
    <glyph glyph-name="Identity.363" unicode="&#x3012;" 
d="M338 905v146h1372v-146h-608v-885h-156v885h-608zM1710 1309h-1372v145h1372v-145z" />
    <glyph glyph-name="Identity.364" unicode="&#x3013;" 
d="M1843 573v-614h-1638v614h1638zM1843 1597v-614h-1638v614h1638z" />
    <glyph glyph-name="Identity.365" unicode="&#x3014;" 
d="M1942 -182l-478 223v1475l478 223l34 -68l-432 -201v-1384l432 -201z" />
    <glyph glyph-name="Identity.366" unicode="&#x3015;" 
d="M106 -182l-34 67l432 203v1380l-432 203l34 68l478 -223v-1475z" />
    <glyph glyph-name="Identity.367" unicode="&#x301c;" 
d="M569 862q-240 0 -434 -200l-33 28q209 297 521 297q197 0 436 -143q133 -78 225 -112t195 -34q238 0 434 203l33 -31q-100 -145 -236 -221t-285 -76q-196 1 -436 144q-133 77 -225 111t-195 34z" />
    <glyph glyph-name="Identity.368" unicode="&#x3041;" 
d="M1014 131q0 -59 -64 -59q-45 0 -82 65q-170 -141 -323 -141q-121 0 -121 137t114 269t275 216q4 51 29 205q-98 -8 -164 -8t-114 40t-87 128l21 16q106 -73 204 -73t156 8q16 98 16 137t-30 51q-27 8 -88 21v26q68 29 115 29t108 -31t61 -57q0 -20 -22 -50t-29 -59
l-12 -45q161 34 271 91q38 18 46 18q109 0 109 -61q0 -41 -49 -62q-172 -66 -402 -102q-18 -82 -30 -174q129 45 254 47q2 45 -70 88l14 22q100 -23 135 -63q23 -23 19 -51q172 -23 275 -133t104 -250q0 -223 -199 -335t-536 -116l-7 33q291 49 443 168t151 286
q0 111 -66 191q-67 80 -182 100q-84 -205 -280 -411q37 -74 37 -111zM586 127q96 0 245 113q-39 154 -24 299q-119 -77 -192 -181t-72 -182q0 -49 43 -49zM911 484q0 -58 27 -146q162 172 223 321q-127 -4 -246 -61q-4 -56 -4 -114z" />
    <glyph glyph-name="Identity.369" unicode="&#x3042;" 
d="M1843 488q0 -188 -127 -322q-236 -247 -829 -260l-8 43q385 57 591 205t207 378q0 150 -94 259t-258 135q-109 -264 -379 -549q47 -111 47 -146q0 -66 -71 -65q-57 0 -99 92q-227 -190 -424 -190q-152 0 -151 165q0 188 150 363q151 174 360 281q10 106 37 282
q-93 -12 -193 -12t-165 44t-124 152l31 29q78 -59 139 -81q106 -38 330 -9q23 158 23 189t-8 41q-22 28 -150 47l2 38q80 27 140 27t134 -39t74 -74q0 -23 -26 -57t-30 -56t-12 -50t-12 -43q199 42 377 125q53 25 66 24q125 0 125 -70q0 -45 -58 -67q-193 -84 -538 -139
q-25 -125 -41 -248q162 59 350 65q2 35 -20 61t-79 60l21 31q219 -56 199 -158q227 -27 360 -170t133 -331zM444 217q139 0 338 162q-35 156 -34 328q0 49 2 75q-166 -104 -268 -244t-103 -247q0 -39 15 -57t50 -17zM864 741q0 -133 37 -252q96 101 182 225t125 218
q-168 -6 -340 -84q-4 -78 -4 -107z" />
    <glyph glyph-name="Identity.370" unicode="&#x3043;" 
d="M1677 387q0 -125 -88 -125q-55 0 -67 57q-4 20 -20 118q-48 305 -296 415l11 29q186 -18 325 -152q66 -61 100 -157t35 -185zM481 820q0 96 -121 186l11 22q78 -4 130 -26t102 -75q50 -54 50 -100q1 -16 -33 -125q-34 -108 -34 -220t42 -182t93 -97q39 -12 59 14
q49 72 156 279l35 -17q-76 -246 -81 -295t7 -82t12 -47q0 -45 -42 -62t-103 7q-113 47 -196 161t-91 298q-6 35 -1 178t5 183z" />
    <glyph glyph-name="Identity.371" unicode="&#x3044;" 
d="M1878 553q0 -139 -98 -139q-63 0 -78 73q-27 188 -52 268q-26 79 -53 132q-96 188 -319 278l14 45q138 -20 230 -68t177 -132t132 -213t47 -244zM520 1151q0 -31 -41 -173t-41 -286t60 -246q60 -104 133 -141q47 -23 74 17q74 109 198 370l51 -22q-112 -334 -118 -385
t7 -95t13 -57q0 -51 -46 -71t-118 8q-147 62 -259 216t-120 408q-4 88 2 234q7 146 7 206q0 58 -31 114t-129 128l16 29q102 -12 160 -37q58 -24 120 -90t62 -127z" />
    <glyph glyph-name="Identity.372" unicode="&#x3045;" 
d="M1020 1139l162 16q32 0 82 -28t51 -66q0 -47 -74 -47q-73 0 -147 -16t-281 -95l-12 27q153 87 186 112q-51 8 -83 16t-91 47q-59 38 -94 99l16 17q115 -82 285 -82zM698 678q31 0 189 60t252 61q135 1 215 -95t80 -260q0 -512 -729 -606l-11 35q584 150 584 592
q0 121 -41 191t-123 69q-82 0 -278 -145q-6 -4 -43 -38t-76 -34t-82 43t-59 86t10 133l24 6q39 -98 88 -98z" />
    <glyph glyph-name="Identity.373" unicode="&#x3046;" 
d="M1047 1550q41 0 100 10t72 9q67 0 123 -31t56 -78t-77 -47q-98 -7 -177 -25t-368 -131l-18 37q192 111 241 144q-179 28 -268 99q-49 40 -90 97l23 29q164 -113 383 -113zM606 948q35 0 244 81t334 81q170 0 271 -122t101 -331q0 -335 -242 -533t-689 -261l-15 47
q770 195 770 772q0 160 -58 250t-155 90q-150 0 -397 -184q-8 -6 -32 -26t-49 -36q-25 -18 -67 -18t-97 49q-54 49 -72 101t0 157l36 10q47 -127 117 -127z" />
    <glyph glyph-name="Identity.374" unicode="&#x3047;" 
d="M1159 1143q49 0 91 -34t42 -79q0 -51 -65 -51q-15 0 -57 2t-76 0t-254 -61l-13 28q107 47 179 84q-176 51 -261 176l21 19q143 -94 281 -99q33 -2 69 6t43 9zM692 719q92 0 418 90q16 4 39 19q23 16 51 16t92 -43q63 -43 64 -84q0 -17 -14 -29t-51 -30
q-133 -68 -353 -289q43 12 96 12q106 0 133 -96q10 -35 41 -160q14 -47 36 -67t92 -19q70 0 138 16q70 17 104 17t69 -24t34 -60q0 -92 -329 -92q-129 0 -185 37q-55 38 -71 130q-4 21 -14 83t-15 94q-16 76 -81 76t-133 -63q-68 -62 -239 -282q-43 -59 -81 -59
q-78 0 -78 68q0 46 18 72t102 101t279 260t270 275q20 25 13 37q-8 12 -39 2q-202 -53 -298 -127q-40 -29 -67 -31q-53 0 -98 38q-45 37 -59 81t-1 107l23 6q47 -82 94 -82z" />
    <glyph glyph-name="Identity.375" unicode="&#x3048;" 
d="M1210 1542q56 0 106 -37t50 -86q0 -59 -78 -59h-141q-86 -8 -352 -90l-17 43q152 63 242 106q-227 57 -348 221l28 29q195 -135 379 -141q37 -2 78 6t53 8zM586 1001q60 0 252 42q190 41 258 61t98 40t45 19q51 0 127 -51t76 -98q0 -18 -18 -34t-60 -39q-41 -25 -85 -55
t-172 -142t-214 -197q57 14 121 14q134 0 174 -119q23 -76 59 -217q20 -75 51 -103t97 -28q131 0 224 22t135 22t80 -26q38 -24 38 -65q0 -61 -130 -86t-296 -25t-234 48q-68 47 -90 172q-8 40 -22 120t-21 109q-25 98 -115 98t-180 -84q-102 -87 -208 -227
q-107 -139 -115 -147q-47 -63 -91 -63q-88 -1 -86 76q1 71 48 118l55 55q25 25 161 151q444 409 628 619q26 27 14 42t-47 5q-209 -51 -377 -133q-23 -10 -61 -37t-66 -29q-66 -1 -123 47q-58 48 -74 98t-2 130l31 8q55 -111 115 -111z" />
    <glyph glyph-name="Identity.376" unicode="&#x3049;" 
d="M1255 961q245 66 391 -68q76 -70 78 -150q0 -80 -65 -81q-18 0 -51 22t-59 18t-130 -40l-14 22q98 59 123 87t4 58q-74 113 -275 101zM872 504v-55q216 106 388 106t264 -81t92 -215t-92 -222t-242 -88q-182 0 -297 192l23 21q106 -94 224 -94t182 61q62 61 62 155
t-56 149q-58 56 -192 56t-354 -131q2 -127 10 -222t9 -109q0 -59 -34 -111t-75 -53q-20 0 -34 16t-32 46q-38 66 -175 159q-7 -8 -19 -20l-30 -30t-44 -18q-28 0 -57 33q-37 37 -37 82t10 57t50 8q38 -4 70 14q32 17 129 85t159 102v273q-112 -25 -176 -25t-115 38t-90 146
l25 17q57 -52 92 -70q77 -38 266 17q2 98 2 227q-2 31 -8 41q-16 27 -135 35l-4 24q68 49 129 49t122 -32q60 -33 60 -64q0 -20 -18 -52q-18 -33 -26 -69t-13 -125q43 18 101 51t71 33q104 0 106 -57q2 -41 -55 -74q-74 -35 -231 -84q-5 -126 -5 -192zM573 117
q95 -44 145 -61t52 24q4 59 4 215q-78 -59 -201 -178z" />
    <glyph glyph-name="Identity.377" unicode="&#x304a;" 
d="M1333 1278l-4 47q320 80 501 -92q95 -91 99 -185t-67 -100q-23 -4 -64 22t-76 20t-159 -58l-23 33q141 91 168 119t-2 71q-97 139 -373 123zM817 723v-80q299 147 553 148q186 -1 303 -105t117 -274t-117 -284q-117 -112 -309 -112q-236 0 -389 228l33 30
q141 -123 319 -122q143 0 225 80t82 205q0 124 -78 199t-233 75q-195 0 -504 -174q5 -166 19 -290t14 -145q0 -72 -40 -135t-91 -63q-23 0 -38 17t-37 52t-46 60q-66 63 -211 160q-78 -74 -93 -79t-24 -5q-34 1 -74 41t-40 90t12 64q12 13 62 9q50 -3 90 19t173 115
q132 93 214 139v375q-156 -35 -237 -35q-82 0 -146 44t-117 179l33 25q80 -76 123 -98q93 -48 344 22v321q-3 37 -11 49q-23 33 -168 39l-6 37q78 47 151 47t151 -41t79 -80q0 -26 -19 -72q-20 -46 -30 -90t-20 -169q59 23 143 69t112 48q29 1 66 -12t38 -58t-69 -80
q-98 -49 -301 -113q-8 -120 -8 -270zM709 170v299q-106 -76 -279 -236q119 -59 219 -102q60 -22 60 39z" />
    <glyph glyph-name="Identity.378" unicode="&#x304b;" 
d="M1919 586q0 -74 -27 -121q-28 -47 -68 -47t-70 34t-58 40q-72 16 -238 2l-10 45q215 49 247 61t42 30t8 60q-4 125 -87 244t-257 156l20 45q233 -31 365 -169t133 -380zM770 1575q72 0 163 -45t91 -84q0 -27 -31 -68t-41 -63q-29 -74 -82 -199q111 16 162 17
q122 0 186 -79q64 -80 64 -268t-53 -382t-153 -314t-249 -119q-51 1 -71 21t-36 64t-42 72q-25 30 -103 101l21 31q193 -113 246 -113q92 0 155 97q59 84 104 258q44 174 44 309t-32 182q-33 47 -101 47t-187 -28q-104 -250 -186 -422q-213 -434 -301 -567q-45 -74 -98 -74
q-29 -1 -51 25q-21 26 -21 75t37 96q168 215 317 504q66 133 142 314q-143 -51 -223 -87t-119 -36t-90 52q-50 52 -62 106t10 124l37 6q8 -25 17 -40l16 -30q26 -48 62 -48t94 11t160 35q103 24 147 31q100 259 100 311q1 52 -37 72t-151 33v39q73 33 145 33z" />
    <glyph glyph-name="Identity.379" unicode="&#x304c;" 
d="M1985 1366q0 -62 -56 -61q-25 0 -56 41q-32 41 -42 53q-87 98 -191 172l25 33q162 -48 241 -112t79 -126zM1890 571q0 -75 -26 -121t-68 -46q-41 0 -71 33q-30 34 -58 40q-72 16 -237 2l-11 45q215 50 247 62t42 30t8 60q-4 125 -80 233q-90 129 -264 166l21 45
q233 -31 358 -164q139 -143 139 -385zM742 1561q72 0 162 -45q91 -45 91 -84q-1 -27 -31 -68q-30 -42 -50 -90t-72 -172q111 16 162 16q123 0 186 -79t63 -267t-53 -382t-152 -314t-249 -119q-51 0 -72 20q-21 19 -37 63t-41 74t-102 101l20 31q193 -113 246 -113
q92 0 156 96q59 84 103 258t44 309q0 134 -32 182t-100 48t-187 -29q-104 -250 -187 -422q-213 -434 -301 -567q-45 -74 -98 -74q-29 0 -51 26t-21 75q0 49 37 96q168 215 318 504q66 133 141 313q-148 -52 -226 -88q-78 -35 -117 -35q-38 1 -88 53t-62 106t10 124l36 6
q2 -6 10 -24t19 -39q10 -21 17 -27q8 -6 20 -18t44 -11q33 0 188 35t198 43q100 259 100 311t-38 72t-150 33v39q74 33 146 33zM1792 1217q0 -27 -15 -45t-37 -17t-36 15l-22 22q-7 8 -20 26q-90 129 -208 218l25 32q165 -58 239 -126t74 -125z" />
    <glyph glyph-name="Identity.380" unicode="&#x304d;" 
d="M1608 461q0 -59 -29 -111t-61 -53q-32 0 -54 10t-60 36q-201 136 -472 136q-162 0 -264 -62t-103 -159q0 -207 430 -207q90 0 173 12q83 13 128 13t79 -20t34 -58q0 -106 -401 -107q-319 0 -474 144q-85 78 -85 188q0 139 137 237t389 97q190 0 411 -55q18 -6 23 -2
q4 4 -3 15t-73 104t-116 184q-250 -57 -502 -58q-139 -1 -216 53t-61 136t129 160l33 -29q-90 -84 -59 -137q31 -54 212 -54t396 60q-51 100 -109 248q-180 -41 -315 -41t-217 41t-152 170l27 20q84 -61 147 -86q146 -58 461 19l-55 147q-14 38 -42 60t-171 22l-6 35
q92 63 180 63q160 0 174 -80q31 -178 41 -217q134 41 262 113q33 18 43 18q121 0 123 -61q0 -35 -49 -68q-94 -59 -340 -129q43 -127 104 -243q174 55 318 131q18 10 31 10q120 10 118 -62q0 -43 -49 -73q-131 -78 -344 -137q83 -129 246 -312q33 -37 33 -61z" />
    <glyph glyph-name="Identity.381" unicode="&#x304e;" 
d="M1993 1466q0 -62 -54 -61q-24 -1 -39 17q-16 18 -33 40q-89 118 -216 207l22 33q166 -50 243 -112t77 -124zM1749 1266q-27 0 -53 39l-20 26q-14 18 -21 29q-85 108 -187 188l25 35q162 -61 238 -129q77 -68 75 -128t-57 -60zM1677 1038q0 -43 -49 -73
q-131 -78 -344 -138q68 -106 140 -190t106 -121q33 -37 33 -61q0 -59 -29 -111t-61 -53q-31 0 -53 10t-60 36q-201 136 -473 136q-162 0 -264 -62t-103 -159q0 -207 430 -207q90 0 173 12q83 13 128 13t79 -20t34 -58q0 -106 -401 -107q-318 0 -475 144q-85 78 -85 188
q-1 139 137 237t390 97q190 0 411 -55q18 -6 23 -2q4 4 -3 15t-70 98t-120 190q-250 -57 -501 -58q-139 -1 -216 53t-61 136t129 159l33 -28q-90 -84 -59 -137q31 -54 212 -54t396 60q-51 100 -109 248q-180 -41 -315 -41t-217 41t-152 170l27 20q84 -61 147 -86t174 -25
t287 43l-55 148q-14 38 -42 60t-171 22l-6 35q92 63 180 63q160 0 174 -80q31 -178 41 -217q134 41 262 113q33 18 43 18q121 0 123 -61q0 -35 -49 -68q-94 -59 -340 -129q43 -127 104 -244q169 54 318 132q18 10 31 10q118 10 118 -62z" />
    <glyph glyph-name="Identity.382" unicode="&#x304f;" 
d="M1137 1473q0 55 -111 137l25 35q87 -14 145 -45q58 -30 109 -90t51 -97t-16 -51t-27 -22q-10 -8 -35 -25t-83 -61t-218 -185q-161 -141 -231 -213t-70 -106t69 -86q23 -18 117 -90q252 -191 334 -278q192 -203 193 -325q0 -102 -97 -102q-57 0 -86 55q-68 129 -100 178
q-119 186 -488 500q-78 66 -78 127t56 121q49 59 248 267q199 207 246 265t47 91z" />
    <glyph glyph-name="Identity.383" unicode="&#x3050;" 
d="M1083 1466q0 55 -110 138l24 34q88 -14 146 -45q59 -31 109 -90t50 -95t-16 -51t-26 -23t-35 -25t-83 -61t-218 -185t-231 -213t-71 -106t70 -87q23 -18 191 -145t266 -229q186 -194 186 -318q0 -102 -96 -102q-57 0 -86 55q-68 129 -100 178q-119 186 -488 500
q-78 66 -78 127t56 121q49 59 248 267t245 267q47 55 47 88zM1798 1112q0 -57 -57 -57q-27 0 -54 38q-105 135 -235 232l25 37q321 -114 321 -250zM1546 883q-27 0 -54 38q-7 9 -21 26q-13 17 -21 30q-96 121 -188 194l26 35q160 -60 239 -132t79 -132t-60 -59z" />
    <glyph glyph-name="Identity.384" unicode="&#x3051;" 
d="M1361 1575q67 0 143 -38t75 -81q0 -12 -14 -55q-15 -43 -17 -87t2 -190q108 32 159 60q50 28 60 28q43 0 81 -22t38 -62q0 -84 -332 -155q16 -147 10 -373t-61 -344q-67 -154 -193 -243t-321 -150l-22 39q158 86 251 181t144 245q66 172 47 616q-111 -18 -227 -18
q-221 0 -348 211l24 30q166 -109 316 -108q104 0 229 28q-13 217 -19 288t-49 85q-24 11 -137 29l-4 41q98 45 165 45zM594 53q0 -70 -74 -69q-59 0 -112 86q-121 195 -121 503q-1 147 65 405t66 329q0 98 -119 227l25 29q66 -23 125 -62q49 -35 100 -103t51 -122
q0 -52 -16 -86t-30 -61q-13 -28 -19 -37q-137 -293 -138 -496q0 -133 39 -215q25 -45 51 -2q50 84 185 418l45 -21q-105 -309 -129 -398q-24 -88 -24 -136t14 -100q16 -52 16 -89z" />
    <glyph glyph-name="Identity.385" unicode="&#x3052;" 
d="M1960 1407q-32 0 -90 96q-72 100 -162 176l27 31q147 -56 217 -122t63 -128q0 -53 -55 -53zM1334 1548q67 0 143 -38t75 -80q0 -12 -14 -56t-16 -87q-2 -44 2 -189q123 36 201 83q11 5 36 5t63 -22t38 -54q0 -49 -66 -80q-104 -49 -266 -84q16 -146 10 -372t-61 -345
q-66 -155 -193 -243t-321 -150l-23 39q158 86 251 181t144 245q66 172 47 617q-111 -18 -227 -19q-221 0 -348 211l25 31q166 -109 315 -109q104 0 229 29q-12 217 -18 287t-49 86q-24 10 -137 28l-5 41q98 45 165 45zM537 215q0 -47 15 -99t15 -89q0 -70 -73 -70
q-59 0 -113 86q-121 195 -121 504q0 147 66 405t65 328q0 98 -119 227l25 29q66 -23 125 -61q49 -35 100 -104t51 -123q0 -75 -65 -183q-137 -293 -137 -496q0 -133 39 -215q25 -45 51 -2q49 84 184 418l45 -20q-106 -308 -130 -398t-23 -137zM1790 1262q-24 0 -49 42
l-18 27q-89 145 -173 223l27 31q145 -67 209 -139t60 -128q-3 -56 -56 -56z" />
    <glyph glyph-name="Identity.386" unicode="&#x3053;" 
d="M1032 1217q-198 1 -312 37t-204 161l27 33q100 -66 184 -88t221 -21q137 0 246 23q109 22 153 22q45 0 113 -30t68 -72q0 -57 -82 -72q-164 -33 -219 -53q-148 -49 -449 -199l-24 39q53 35 288 197q29 23 -10 23zM1580 233q32 -1 76 -25t44 -61t-18 -56t-72 -38
q-202 -65 -576 -65t-516 166t-74 458l52 2q2 -90 12 -152t42 -126t87 -100q128 -86 385 -85q258 1 459 61q67 20 99 21z" />
    <glyph glyph-name="Identity.387" unicode="&#x3054;" 
d="M1700 1241q-27 0 -56 41l-16 20t-22 31q-85 109 -187 189l25 34q172 -66 243 -134t69 -124q-2 -57 -56 -57zM1624 1683q317 -99 315 -239q0 -59 -51 -60q-28 0 -72 60q-84 114 -217 207zM987 1190q-199 0 -313 37t-203 162l27 32q100 -65 184 -87t221 -22t246 24
q109 22 153 22t112 -31t69 -72q0 -57 -82 -71q-164 -33 -219 -54q-148 -48 -449 -198l-24 39q53 35 288 196q29 23 -10 23zM1655 120q-1 -36 -19 -55t-71 -38q-201 -66 -575 -66t-517 166q-142 166 -74 459l52 2q2 -90 12 -152t42 -126q94 -187 466 -185q267 0 465 61
q68 20 100 20t75 -24q44 -26 44 -62z" />
    <glyph glyph-name="Identity.388" unicode="&#x3055;" 
d="M875 1583q73 0 125 -19t61 -51q53 -182 104 -286q154 58 281 148q41 30 57 38q31 10 71 5t57 -25t11 -48t-30 -49q-113 -98 -379 -196q119 -199 356 -428q66 -60 68 -110t-23 -99t-64 -49t-82 30q-253 179 -556 181q-168 0 -281 -82t-113 -201q0 -118 127 -188
q126 -70 355 -70q86 0 179 11t134 11t76 -22t35 -59q0 -107 -381 -107t-553 171q-92 91 -92 222q0 168 160 281t387 113t444 -66q18 -4 21 -1q2 3 -11 17q-156 180 -303 408q-495 -142 -661 -26q-78 54 -166 196l35 31q104 -84 171 -114q167 -75 549 36q-100 193 -130 237
t-71 52t-145 10l-8 37q113 61 185 61z" />
    <glyph glyph-name="Identity.389" unicode="&#x3056;" 
d="M2005 1470q0 -59 -53 -59q-27 1 -41 19q-41 55 -60 75q-79 96 -188 170l23 33q319 -96 319 -238zM1823 1327q0 -59 -58 -59q-17 0 -35 19t-23 27q-92 139 -222 236l24 35q314 -119 314 -258zM889 600q-168 0 -281 -82q-112 -82 -112 -201t126 -189t355 -69q86 -1 179 11
t134 12t76 -22t35 -60q1 -106 -381 -106t-553 171q-92 91 -92 222q0 169 160 281t387 112t444 -66q18 -4 20 -1t-10 18q-156 180 -303 407q-494 -142 -661 -25q-78 54 -166 195l35 31q104 -84 171 -114t177 -27q152 0 372 63q-100 193 -130 237t-71 52t-145 10l-8 37
q113 61 185 61t124 -18q52 -20 62 -51q53 -182 104 -287q160 60 281 149q41 30 57 38q31 10 71 5q40 -6 57 -26t11 -48t-30 -48q-113 -98 -379 -197q119 -199 356 -428q66 -61 68 -110t-23 -99t-60 -49q-35 0 -60 16q-26 16 -82 54q-238 141 -500 141z" />
    <glyph glyph-name="Identity.390" unicode="&#x3057;" 
d="M829 1368q1 -20 -25 -65t-36 -99q-76 -399 -76 -776q0 -190 67 -269t238 -79q238 0 447 125t332 305l43 -31q-115 -253 -336 -409t-496 -156q-217 0 -323 117t-107 381q0 178 24 519q23 341 23 391t-10 78q-23 64 -170 95v41q98 23 141 20q80 -2 172 -70t92 -118z" />
    <glyph glyph-name="Identity.391" unicode="&#x3058;" 
d="M801 1362q0 -20 -26 -66t-36 -98q-76 -399 -75 -776q0 -190 66 -269t239 -79q239 0 447 125t331 305l43 -31q-115 -253 -336 -409t-496 -156q-217 0 -323 117t-107 381q0 178 24 519t24 391t-11 78q-23 64 -170 95v41q98 23 142 20q80 -2 172 -70t92 -118zM1579 1098
q-30 0 -63 44q-6 7 -20 23q-13 16 -21 27q-86 113 -218 201l25 32q172 -49 262 -123t90 -139t-55 -65zM1374 918q-31 0 -58 37t-44 57q-90 123 -205 209l25 32q164 -55 262 -143q82 -70 80 -137q-5 -55 -60 -55z" />
    <glyph glyph-name="Identity.392" unicode="&#x3059;" 
d="M1276 1505q0 -27 -18 -69t-19 -79q-2 -38 -2 -95l494 57q70 0 133 -33t63 -86q0 -59 -69 -59q-14 0 -106 12t-194 15q-103 3 -323 -11q-4 -154 0 -313q86 -92 86 -279q0 -279 -193 -457t-518 -247l-24 47q424 156 532 432q-147 -61 -256 32t-108 255q0 123 76 210
q77 87 200 87q43 0 84 -11q-6 168 -10 232q-258 -29 -524 -98q-40 -10 -100 -35t-103 -25t-106 54q-63 53 -81 103t-18 132l37 14q69 -92 99 -110t80 -18t712 83q-2 55 -15 191q-4 49 -47 61q-41 15 -137 21l-4 38q92 52 160 52q67 0 143 -32t76 -71zM1012 453q74 0 110 43
t35 138q0 95 -39 147q-40 53 -110 53t-116 -56t-46 -138q0 -81 46 -134t120 -53z" />
    <glyph glyph-name="Identity.393" unicode="&#x305a;" 
d="M1946 1493q0 -27 -16 -42t-32 -15t-22 2t-13 7t-13 9q-13 11 -21 24t-20 27q-11 15 -14 19t-25 30t-47 56q-46 53 -91 86l25 33q169 -63 229 -117t60 -119zM1849 1108q-14 0 -105 12q-90 12 -194 16t-323 -12q-4 -154 0 -313q86 -92 86 -279q0 -278 -193 -456t-518 -248
l-24 47q424 156 532 432q-147 -61 -256 32t-109 255q0 123 77 210t200 87q43 0 84 -10q-6 168 -10 231q-258 -29 -525 -98q-39 -10 -99 -35t-103 -25t-105 54t-82 104q-18 49 -18 131l37 14q69 -92 99 -110t74 -19t349 38t369 46q-2 55 -15 191q-4 49 -47 61q-41 15 -137 21
l-4 39q91 51 159 51t144 -32t76 -70q0 -27 -18 -69t-19 -80q-2 -38 -2 -95l493 57q70 0 133 -33t63 -89t-69 -56zM1149 601q0 95 -39 147q-40 52 -110 53q-70 -1 -116 -57t-46 -137t46 -134t119 -53q74 0 110 43t36 138zM1708 1408q0 -60 -57 -60q-25 0 -43 23
q-17 23 -29 41q-90 132 -182 208l26 33q145 -57 215 -121t70 -124z" />
    <glyph glyph-name="Identity.394" unicode="&#x305b;" 
d="M1312 1581q62 0 140 -50t78 -97q0 -14 -20 -50t-25 -98q-4 -63 -10 -196q245 51 313 51t120 -29t52 -82q0 -63 -96 -63q-4 0 -130 7t-162 1t-104 -14q-12 -297 -41 -410q-35 -160 -157 -160q-51 0 -76 53q-14 31 -55 61t-61 40t-89 43l15 41q178 -51 232 -51t71 53
q20 84 28 309q-313 -57 -561 -129q-14 -317 -9 -466t59 -189t228 -41t334 27t192 28t74 -23q40 -23 40 -65q0 -59 -97 -82q-143 -35 -427 -35t-402 66t-125 239q0 18 -6 498q-90 -31 -178 -67t-128 -51t-74 -15t-86 46q-53 46 -71 88t-18 132l31 12q70 -106 135 -106
q41 0 389 86q0 259 -5 313q-6 54 -16 70t-36 28t-117 21l-2 41q93 35 155 35t141 -47t79 -90q0 -16 -20 -52t-24 -84q-5 -50 -12 -198q324 78 561 131q0 305 -3 356t-49 63t-128 19l-4 39q95 43 157 43z" />
    <glyph glyph-name="Identity.395" unicode="&#x305c;" 
d="M1702 1606l27 32q153 -60 221 -122t62 -121t-58 -60q-16 1 -28 13t-31 42q-84 132 -193 216zM1277 1565q63 -1 141 -51t77 -97q0 -14 -20 -49q-21 -34 -25 -98t-10 -197q246 51 314 51t119 -28q52 -28 52 -82q0 -63 -96 -64q-4 0 -130 7q-125 7 -161 1t-104 -14
q-12 -297 -41 -409q-35 -160 -158 -160q-51 0 -76 53q-14 30 -55 60q-42 30 -62 40t-88 43l15 41q178 -51 232 -51t71 53q20 84 28 310q-313 -57 -561 -129q-14 -317 -9 -466q6 -149 60 -190t227 -41t334 28t167 28q59 0 99 -23t40 -65q0 -59 -96 -82q-143 -35 -427 -35
q-284 -1 -402 65t-126 240q0 18 -6 498q-90 -31 -214 -82t-162 -51q-38 -1 -90 45t-70 89q-18 42 -19 132l31 12q70 -106 135 -106q41 0 389 86q0 260 -5 313q-5 54 -15 70t-37 27t-117 22l-2 41q92 34 154 34t142 -47q79 -47 79 -90q1 -16 -19 -51t-25 -85t-12 -198
q324 78 562 131q1 304 -3 356t-57 66q-39 11 -121 17l-4 39q94 43 157 43zM1544 1477l27 30q145 -70 209 -137t59 -128q-4 -61 -57 -56q-26 0 -51 42q-6 9 -19 28q-12 19 -18 30q-70 115 -150 191z" />
    <glyph glyph-name="Identity.396" unicode="&#x305d;" 
d="M1247 1581q49 0 126 -60t77 -108q0 -21 -13 -33t-40 -27t-85 -69t-335 -290q-277 -237 -275 -252q2 -5 13 -3q63 18 233 68t400 109q228 58 284 58t114 -30q58 -31 58 -76q0 -66 -110 -65l-115 2q-35 0 -116 -3t-209 -37t-197 -87q-182 -133 -180 -332q0 -215 292 -260
q61 -10 145 -10t110 -4t57 -36t30 -65q0 -77 -142 -77t-261 28q-154 41 -248 135t-94 246q0 217 211 397q16 14 12 20t-24 1q-260 -76 -402 -158q-43 -25 -115 -75t-114 -51q-41 -1 -74 33t-33 71q0 59 56 77q139 47 180 66q111 53 264 203q113 104 265 270q153 166 210 262
q14 23 8 29t-28 -2q-125 -35 -235 -84t-155 -76t-86 -28q-40 -1 -108 64q-68 66 -71 122t22 119l26 6q68 -137 113 -137q49 -2 254 45t257 84q30 20 48 20z" />
    <glyph glyph-name="Identity.397" unicode="&#x305e;" 
d="M1753 1018q-29 0 -53 40q-105 158 -217 249l24 32q152 -59 236 -135q71 -68 69 -127t-59 -59zM1653 1438l24 32q172 -57 246 -118q74 -68 71 -127t-59 -60q-16 -1 -28 11t-34 41q-105 138 -220 221zM1409 1407q0 -21 -13 -33t-40 -27t-85 -69q-59 -54 -271 -236
t-332 -294q-8 -6 -6 -12t208 54q205 61 436 119q230 59 286 59t113 -30q58 -31 58 -76q0 -66 -110 -65h-187q-125 -4 -253 -38t-197 -87q-182 -133 -180 -332q0 -215 292 -260q60 -10 144 -10t110 -4t58 -36q31 -32 30 -65q0 -78 -142 -78t-278 35t-231 129q-94 94 -94 246
q0 217 211 397q16 14 12 20t-24 1q-260 -76 -402 -158q-43 -25 -97 -63t-82 -50q-27 -14 -59 -14t-65 34t-33 71q0 59 56 77q139 47 180 66q111 53 264 203q113 104 265 270q153 166 210 262q14 23 8 29t-28 -2q-125 -35 -235 -84t-155 -76t-86 -28q-40 -1 -108 64t-71 121
t22 119l27 7q69 -138 112 -138q49 -2 254 46t246 75q41 28 59 29q49 -1 126 -61t77 -107z" />
    <glyph glyph-name="Identity.398" unicode="&#x305f;" 
d="M1405 106q117 0 215 20t126 19t66 -23q37 -22 37 -63q0 -57 -120 -86q-133 -27 -279 -26q-420 0 -498 282q-30 87 -30 222l45 4q20 -121 69 -193q98 -156 369 -156zM1188 1346q26 0 62 -20t36 -52q0 -34 -26 -56t-134 -65q-106 -43 -311 -94q-66 -219 -94 -299
q-186 -545 -307 -750q-24 -43 -46 -61q-22 -19 -56 -19t-56 31q-48 70 19 177q15 24 26 42q255 392 373 848q-139 -20 -229 -20t-161 46t-118 171l33 24q74 -59 127 -85q115 -56 385 5q64 262 41 310q-16 31 -162 75l2 41q153 46 285 -16q74 -35 75 -70q0 -27 -24 -87
t-37 -101l-31 -111q129 40 215 88t113 48zM1451 1001q187 0 286 -51q75 -43 75 -100t-96 -64q-59 -4 -125 -28q-53 -14 -235 -92l-23 32q174 115 205 148q20 18 -10 28q-70 25 -182 25t-261 -31l-14 43q193 90 380 90z" />
    <glyph glyph-name="Identity.399" unicode="&#x3060;" 
d="M1642 1597q318 -101 318 -235q0 -62 -55 -64q-17 0 -29 10t-37 43q-100 129 -219 214zM1362 86q117 0 215 19t106 20q49 0 86 -23t37 -63q0 -57 -120 -86q-133 -27 -279 -27q-420 0 -498 283q-30 86 -30 221l45 4q20 -121 69 -192q98 -156 369 -156zM1145 1325
q27 0 63 -19q36 -18 35 -52t-27 -56t-132 -66q-106 -42 -312 -94q-66 -219 -94 -299q-186 -545 -307 -749q-25 -43 -46 -62q-22 -18 -56 -18q-33 0 -55 31q-48 70 18 177q15 24 26 42q256 394 373 848q-139 -20 -229 -20t-161 45q-71 46 -118 171l33 25q74 -59 127 -85
q117 -58 385 5q64 263 41 309q-8 16 -37 33q-35 16 -125 43l2 41q151 46 285 -16q74 -35 75 -70q-1 -25 -25 -87t-36 -102l-31 -110q129 41 215 88t113 47zM1408 981q187 0 286 -51q76 -43 75 -101q0 -57 -96 -63q-59 -4 -125 -29q-53 -14 -235 -92l-23 33q174 115 200 140
t-5 36q-73 25 -183 25t-260 -31l-14 43q193 90 380 90zM1760 1171q-16 -16 -40 -16q-23 0 -41 20t-35 42q-109 146 -206 221l26 32q168 -63 241 -132t71 -124q0 -27 -16 -43z" />
    <glyph glyph-name="Identity.400" unicode="&#x3061;" 
d="M726 1612q60 0 136 -38t76 -75q0 -23 -26 -57t-32 -62q-6 -26 -44 -161q206 43 332 106t145 64q47 -1 86 -17t39 -55q0 -57 -131 -109q-244 -90 -506 -125q-57 -227 -100 -379t-38 -157q5 -4 33 18q162 115 299 173t285 59q219 0 336 -114t117 -282q1 -111 -59 -199
q-111 -165 -376 -238t-577 -52l-6 49q231 12 413 70q438 129 439 413q0 125 -84 202q-83 77 -225 77q-142 1 -302 -105t-284 -251q-12 -12 -32 -46q-42 -73 -77 -73t-67 53t-31 86q0 33 4 44t17 36q62 119 182 600q-86 -4 -127 -4q-137 0 -205 43t-143 199l34 24
q84 -81 157 -111t161 -30t151 8q55 260 35 291q-19 31 -156 57l-2 41q92 27 153 27z" />
    <glyph glyph-name="Identity.401" unicode="&#x3062;" 
d="M1901 1440q0 -57 -56 -58q-28 0 -72 60q-79 107 -214 205l24 32q318 -99 318 -239zM1378 1518l25 34q166 -64 239 -130t72 -126q0 -27 -21 -49t-46 -11q-25 12 -38 30t-27 36t-21 29q-99 126 -183 187zM680 1606q62 0 136 -38t75 -75q0 -23 -26 -57t-33 -62
q-7 -26 -44 -162q207 42 333 106t145 64q47 0 86 -16t39 -55q0 -57 -131 -109q-244 -90 -506 -125q-57 -227 -100 -379q-42 -152 -38 -157q4 -4 33 18q162 115 299 173t285 59q219 0 336 -114t117 -282q0 -111 -60 -199q-111 -165 -375 -238q-265 -73 -577 -52l-6 49
q231 12 413 70q438 129 439 413q0 125 -84 202t-226 77q-142 1 -301 -105q-160 -106 -284 -252q-11 -12 -31 -46q-77 -133 -144 -19q-32 53 -32 85t4 44t17 37q62 119 182 600q-86 -4 -127 -4q-137 0 -205 43t-144 198l35 25q84 -80 157 -111q112 -47 312 -22q55 260 35 291
q-19 31 -156 57l-2 41q92 27 154 27z" />
    <glyph glyph-name="Identity.402" unicode="&#x3063;" 
d="M456 668q46 0 88 20t164 80q120 60 174 82t157 50t190 28q205 0 327 -115t121 -272q0 -274 -284 -416q-229 -117 -645 -92l-5 39q327 28 539 137q236 120 236 358q0 121 -78 200t-202 79t-243 -65t-193 -119q-75 -54 -88 -63t-73 -53t-83 -49t-34 -5q-45 0 -97 38
q-53 38 -69 72q-16 35 -20 113l24 12q48 -59 94 -59z" />
    <glyph glyph-name="Identity.403" unicode="&#x3064;" 
d="M285 930q61 0 170 57q18 7 131 65q324 165 523 202q91 17 181 18q268 0 424 -146t156 -352q0 -360 -381 -545q-293 -145 -821 -118l-4 55q455 33 704 164q326 162 326 473q0 168 -109 273t-297 106q-111 0 -250 -56t-217 -105q-78 -48 -142 -92q-64 -45 -89 -61t-89 -63
t-98 -61q-33 -15 -69 -15t-96 44q-61 44 -81 82t-34 138l31 17q70 -80 131 -80z" />
    <glyph glyph-name="Identity.404" unicode="&#x3065;" 
d="M270 887q61 0 170 57q18 8 153 77q403 205 677 206q274 3 430 -143t155 -353q0 -360 -380 -545q-293 -145 -822 -118l-4 55q455 33 705 164q326 162 325 473q0 168 -108 273q-109 105 -297 106q-111 -1 -250 -57q-226 -92 -432 -246q-41 -27 -105 -74t-98 -61
q-33 -15 -69 -15t-97 44t-81 82t-33 138l30 17q70 -80 131 -80zM1966 1369q-14 -17 -38 -17q-39 0 -105 86q-90 94 -205 166l20 34q336 -86 340 -225q2 -27 -12 -44zM1726 1378q76 -61 79 -123t-53 -61q-28 0 -53 33q-7 8 -23 24q-15 16 -23 27q-88 109 -203 182l23 35
q156 -45 253 -117z" />
    <glyph glyph-name="Identity.405" unicode="&#x3066;" 
d="M1410 168h106q45 0 87 -31t42 -71q0 -82 -162 -82q-301 0 -455 110q-102 72 -154 180t-51 298q0 188 79 372t245 309q12 9 9 15t-19 4q-169 -40 -359 -104t-242 -90t-96 -52q-44 -25 -91 -26q-46 -2 -116 60t-79 122q-4 28 0 102l32 12q25 -42 62 -72t88 -30t371 80
q319 80 434 106q375 90 473 90t153 -26q72 -31 72 -84q1 -27 -21 -45t-59 -19l-178 7q-215 0 -340 -80q-88 -56 -171 -186q-48 -75 -79 -191t-30 -252q0 -260 174 -363q42 -24 105 -41q86 -22 170 -22z" />
    <glyph glyph-name="Identity.406" unicode="&#x3067;" 
d="M1669 709q-26 0 -72 64q-92 130 -208 218l26 35q170 -66 241 -131q70 -65 70 -125t-57 -61zM1913 926q0 -62 -53 -64q-31 0 -74 62q-16 22 -25 32q-96 107 -188 170l22 35q176 -57 247 -115t71 -120zM1371 162h106q45 0 87 -31t42 -72q0 -82 -162 -82q-471 0 -608 291
q-52 110 -52 298t79 372t245 309q12 9 9 15t-19 4q-170 -40 -360 -104t-241 -90q-52 -26 -98 -53q-46 -26 -75 -26q-59 -1 -129 61t-80 122q-4 28 0 102l32 12q25 -42 62 -72t93 -30t371 80q776 196 888 196t168 -26q72 -31 71 -84q0 -27 -22 -45t-58 -19l-178 6
q-215 0 -340 -79q-88 -56 -171 -186q-48 -75 -79 -191t-30 -252q0 -260 174 -363q42 -24 105 -41q86 -22 170 -22z" />
    <glyph glyph-name="Identity.407" unicode="&#x3068;" 
d="M1589 1082q-1 -34 -31 -52t-102 -43q-240 -80 -516 -237q-154 -90 -264 -205t-111 -238q0 -207 414 -207q205 0 417 45q67 14 83 15q162 0 161 -94q0 -25 -22 -47t-57 -31q-177 -51 -487 -51t-466 88t-155 251q0 264 372 535q-81 57 -123 169t-88 421q-8 55 -59 78
q-33 12 -115 32l-2 39q86 27 153 27t137 -43t73 -84l-15 -117q8 -349 152 -448q88 53 246 138t168 91q42 23 24 61t-98 85l16 30q117 -16 166 -42t89 -79t40 -87z" />
    <glyph glyph-name="Identity.408" unicode="&#x3069;" 
d="M1950 1393q0 -61 -56 -62q-16 0 -29 11t-35 40q-93 123 -220 215l22 33q318 -97 318 -237zM1747 1204q-16 -16 -42 -16t-53 38q-7 9 -21 26q-13 17 -21 28q-85 114 -183 190l27 33q166 -61 238 -129t71 -127q0 -27 -16 -43zM1550 1058q0 -34 -30 -52t-103 -43
q-240 -80 -516 -238q-155 -90 -265 -205t-110 -237q0 -207 414 -207q219 0 417 45q67 14 83 14q162 0 162 -94q0 -25 -23 -47t-57 -31q-176 -51 -486 -51t-467 88q-156 88 -155 252q0 264 372 534q-80 57 -122 169t-89 421q-8 55 -59 78q-33 12 -115 33l-2 39q86 26 153 26
q68 0 138 -43t72 -84l-14 -116q8 -347 151 -449q88 53 246 138t168 92q41 22 23 60t-97 85l16 31q117 -16 166 -42t89 -79t40 -87z" />
    <glyph glyph-name="Identity.409" unicode="&#x306a;" 
d="M1808 1000q0 -78 -67 -78q-23 0 -81 20t-112 19q-123 -15 -175 -73t-46 -194q3 -31 19 -137t22 -164q160 -37 303 -129q164 -100 164 -194q0 -37 -18 -59t-47 -21t-49 18q-19 18 -41 38t-35 34q-117 113 -261 172q4 -57 5 -80q1 -129 -91 -200q-92 -70 -253 -70t-249 68
t-89 178q0 112 119 192q120 80 323 80q31 0 84 -4l-12 241q0 170 94 267q43 47 116 86t117 55q47 29 -6 68q-71 59 -227 65v45q160 35 295 -14q94 -33 146 -92t52 -137zM1241 250v47q-89 16 -197 16t-181 -45t-73 -102t53 -91q52 -34 158 -34q240 0 240 209zM728 1626
q83 0 142 -39q14 -10 22 -29t-15 -97q-23 -79 -54 -181q97 31 173 68q76 36 100 36t49 -20t25 -56t-68 -77q-113 -63 -326 -109q-178 -535 -375 -829q-33 -49 -57 -71t-54 -22q-32 0 -51 30q-19 28 -19 77t38 99q274 352 383 694q-87 -10 -181 -10t-158 48t-112 175l35 24
q57 -47 83 -64q80 -52 172 -52t202 20q29 125 33 209q3 55 -43 79t-97 36v32q70 29 153 29z" />
    <glyph glyph-name="Identity.410" unicode="&#x306b;" 
d="M1784 1218q0 -52 -64 -61q-133 -20 -182 -39q-135 -59 -336 -180l-33 37q231 172 261 202t-5 35q-31 6 -104 7q-170 -1 -375 -64l-16 47q225 145 500 146q182 0 286 -48q68 -30 68 -82zM1370 213q156 0 262 18t109 19q53 0 91 -20t38 -58q0 -121 -424 -121
q-481 0 -561 340q-21 78 -21 180l45 7q31 -123 58 -170q57 -100 152 -148t251 -47zM524 200q0 -36 20 -98t21 -88q0 -78 -71 -77q-56 1 -108 77t-87 202t-35 265t20 230t32 153q13 62 44 156q47 195 50 250q2 98 -113 221l31 27q72 -27 118 -64q52 -36 100 -102t48 -113
t-18 -84t-62 -133q-135 -289 -135 -502q0 -113 25 -158t49 -6q39 58 209 414l45 -20q-12 -35 -74 -191t-85 -239q-24 -84 -24 -120z" />
    <glyph glyph-name="Identity.411" unicode="&#x306c;" 
d="M1927 78q0 -78 -63 -78q-31 0 -74 43q-72 84 -123 131q-135 -170 -364 -170q-137 0 -209 59t-72 155t89 158t226 62t277 -57q55 131 55 338t-124 334t-322 129q-43 0 -64 -2q-114 -479 -293 -770q51 -51 52 -95q0 -68 -62 -69q-37 -2 -82 33q-59 -74 -102 -115
q-141 -133 -275 -133q-88 -1 -140 73t-52 181q0 295 260 600q-59 242 -79 291t-128 145l27 29q113 -32 168 -78t73 -82t47 -193q190 172 449 236q14 74 22 182q2 51 -48 73t-132 28l-4 36q86 41 169 35t149 -53q46 -33 38 -82t-38 -195q23 2 69 3q270 0 423 -160t153 -390
t-76 -401q180 -119 180 -231zM328 344q0 -154 87 -154t157 72t108 117q-117 164 -186 397q-166 -244 -166 -432zM772 510q162 258 236 641q-242 -68 -412 -248q63 -256 176 -393zM1253 133q197 0 297 135q-131 82 -260 82q-78 0 -136 -33t-58 -80t38 -75t119 -29z" />
    <glyph glyph-name="Identity.412" unicode="&#x306d;" 
d="M1780 694q0 -172 -49 -332q81 -50 157 -120t76 -144q0 -36 -17 -58t-47 -23t-90 63l-10 10q-78 84 -131 129q-123 -211 -375 -211q-124 0 -204 62t-80 161q0 100 93 169t229 69t259 -41q35 128 35 314t-65 324q-66 138 -196 138t-310 -118t-334 -291q-15 -249 29 -650
q6 -63 6 -111t-29 -94q-29 -48 -74 -49q-61 0 -77 82t-42 149t-128 224q-12 -16 -113 -160q-80 -117 -134 -52q-19 24 -19 72t50 105q74 78 207 248t232 320l6 54q9 82 12 118q-154 -79 -202 -124t-70 -44q-49 0 -105 49t-70 98q-15 49 -12 100l35 11q49 -90 111 -90
t330 129q28 231 28 270t-9 52q-24 34 -153 59l-2 41q80 26 143 26t133 -57t68 -107q0 -28 -19 -71q-34 -76 -60 -183q27 -18 51 -44t22 -46q0 -20 -35 -58q-35 -40 -94 -120v-4q137 125 319 237q182 111 323 111t233 -86t130 -210t38 -296zM616 227q0 35 -1 186t1 246
q-68 -104 -180 -270q26 -31 54 -67t56 -68q28 -33 36 -43q32 -33 34 16zM1260 133q195 0 286 176q-124 68 -232 68t-168 -37t-60 -90t44 -85q46 -32 130 -32z" />
    <glyph glyph-name="Identity.413" unicode="&#x306e;" 
d="M1673 754q0 276 -171 442t-429 166q-23 0 -76 -4q102 -127 103 -230q0 -160 -66 -340q-111 -325 -324 -530q-116 -111 -222 -111q-106 -1 -197 147q-90 148 -90 320q-1 172 73 330q74 156 209 273q246 219 590 219t561 -200t217 -517q0 -281 -198 -483
q-103 -104 -283 -171t-424 -81l-8 45q371 72 553 260q182 189 182 465zM977 1159q0 90 -59 184q-225 -49 -379 -206q-203 -207 -203 -463q0 -136 51 -236t117 -100q86 0 203 160t192 329q78 189 78 332z" />
    <glyph glyph-name="Identity.414" unicode="&#x306f;" 
d="M1487 979q0 -199 29 -543q205 -55 339 -186q66 -59 66 -128t-63 -69q-33 0 -109 70q-111 109 -223 164q2 -16 2 -47q0 -276 -363 -277q-143 0 -238 66q-95 65 -95 187t116 188q117 66 297 67q78 0 133 -8q-20 463 -20 514q-119 -16 -223 -16t-177 38q-72 39 -147 164
l29 27q141 -102 273 -102t245 22v254q0 41 -8 55q-21 36 -179 47l-4 39q102 51 169 51t137 -36t69 -74q0 -23 -13 -63q-29 -90 -38 -242q172 58 206 76q35 18 61 18q26 -1 65 -21t39 -53t-23 -51t-82 -41q-114 -39 -270 -70v-20zM1382 334v8q-96 25 -204 25t-186 -39
q-77 -38 -77 -104q-1 -66 57 -97t150 -31q156 0 208 56t52 182zM526 -8q0 -78 -71 -78q-53 0 -105 77t-89 210q-36 133 -36 284q0 227 97 568q49 181 50 261t-116 216l31 24q76 -26 122 -62t96 -106t50 -119q-1 -49 -33 -115q-186 -376 -186 -642q0 -127 33 -188
q21 -45 45 -7q38 59 117 234q80 176 92 205l49 -23q-128 -366 -148 -407q-28 -109 -28 -145t15 -98t15 -89z" />
    <glyph glyph-name="Identity.415" unicode="&#x3070;" 
d="M1700 1686l24 30q152 -55 230 -119q70 -70 65 -124q-4 -61 -59 -58q-22 1 -36 19q-13 18 -29 42q-74 119 -195 210zM1458 950q0 -199 29 -542q205 -55 340 -187q66 -59 65 -119q0 -78 -63 -77q-33 0 -109 69q-111 109 -223 164q2 -16 2 -47q0 -276 -362 -277
q-143 0 -239 66q-95 66 -95 188t117 188q117 67 297 66q78 0 133 -8q-20 463 -21 514q-119 -16 -223 -16t-176 39t-148 164l29 26q141 -102 273 -102t245 22v254q0 41 -8 55q-19 35 -178 48l-4 39q103 51 169 51t136 -37t69 -74q0 -23 -13 -63q-27 -82 -38 -242
q124 42 183 68t67 26q43 0 82 -20t39 -53t-23 -51t-81 -42q-115 -38 -271 -69v-21zM1354 305v8q-96 25 -204 25t-186 -39q-77 -39 -77 -104t57 -97t150 -30q156 0 208 55t52 182zM467 150q0 -36 15 -98t16 -89q0 -78 -72 -78q-54 0 -106 77t-88 210t-35 285q0 227 96 567
q49 182 50 262t-116 215l31 25q76 -27 122 -63q46 -35 96 -105t50 -120t-32 -115q-186 -369 -187 -642q0 -127 33 -188q20 -45 44 -7q35 55 117 233q81 177 93 206l49 -23q-23 -66 -84 -234t-63 -173q-29 -109 -29 -145zM1542 1561l27 30q152 -69 218 -139t62 -130t-61 -56
q-23 0 -35 20q-40 66 -51 82q-68 113 -160 193z" />
    <glyph glyph-name="Identity.416" unicode="&#x3071;" 
d="M1784 1712q92 0 158 -66t66 -157q0 -92 -66 -158q-66 -65 -158 -65t-158 66t-65 157q0 92 65 158q66 65 158 65zM1785 1337q62 0 106 44q44 43 44 107t-44 107t-106 43q-63 0 -107 -43t-44 -106t44 -108q45 -44 107 -44zM1458 950q0 -199 29 -542q205 -55 340 -187
q66 -59 65 -119q0 -78 -63 -77q-33 0 -109 69q-111 109 -223 164q2 -16 2 -47q0 -276 -362 -277q-143 0 -239 66q-95 66 -95 188t117 188q117 67 297 66q78 0 133 -8q-20 463 -21 514q-119 -16 -223 -16t-176 39t-148 164l29 26q141 -102 273 -102t245 22v254q0 41 -8 55
q-19 35 -178 48l-4 39q103 51 169 51t136 -37t69 -74q0 -23 -13 -63q-27 -82 -38 -242q124 42 183 68t67 26q43 0 82 -20t39 -53t-23 -51t-81 -42q-115 -38 -271 -69v-21zM1354 305v8q-96 25 -204 25t-186 -39q-77 -39 -77 -104t57 -97t150 -30q156 0 208 55t52 182z
M467 150q0 -36 15 -98t16 -89q0 -78 -72 -78q-54 0 -106 77t-88 210t-35 285q0 227 96 567q49 182 50 262t-116 215l31 25q76 -27 122 -63q46 -35 96 -105t50 -120t-32 -115q-186 -369 -187 -642q0 -127 33 -188q20 -45 44 -7q35 55 117 233q81 177 93 206l49 -23
q-23 -66 -84 -234t-63 -173q-29 -109 -29 -145z" />
    <glyph glyph-name="Identity.417" unicode="&#x3072;" 
d="M539 1362q162 0 278 61q32 14 57 29q25 14 56 14t76 -36t45 -64q0 -41 -58 -63q-127 -42 -190 -103q-127 -112 -240 -316t-112 -433q0 -176 113 -274q114 -97 284 -97q287 0 421 207t134 569q0 193 -27 322q-28 186 -28 222t22 67q24 30 62 29t67 -34t29 -82
q0 -217 20 -336q43 -213 271 -419q69 -59 69 -143t-58 -85q-58 0 -118 76q-115 133 -196 352q-8 29 -18 38q-20 18 -19 -44q1 -237 -17 -359t-56 -208q-150 -340 -554 -340q-210 0 -357 117q-75 59 -119 162t-44 239q0 391 362 807q-182 -32 -272 40q-45 36 -92 114l22 28
q100 -57 187 -57z" />
    <glyph glyph-name="Identity.418" unicode="&#x3073;" 
d="M403 426q0 -176 114 -273t284 -98q287 0 421 207t134 569q0 193 -27 322q-29 186 -29 223t23 67q23 31 61 29t68 -34q29 -32 29 -82q0 -217 20 -336q43 -213 271 -420q68 -59 68 -143t-57 -84q-58 0 -118 76q-115 133 -197 352q-8 29 -17 38q-19 19 -19 -44
q0 -237 -18 -359t-55 -208q-150 -340 -554 -341q-209 0 -358 117q-75 58 -119 162t-43 240q0 391 362 806q-182 -32 -272 40q-45 36 -92 114l22 29q100 -57 187 -58q162 0 278 62q48 21 65 32t47 11q31 0 76 -36t46 -65q0 -41 -58 -63q-129 -43 -190 -102
q-127 -113 -240 -317t-113 -433zM1927 1397q-14 0 -25 11t-30 40q-18 29 -31 43q-80 102 -174 176l27 31q154 -57 224 -121t67 -125q-5 -57 -58 -55zM1810 1305q-2 -29 -20 -48t-40 -9q-21 9 -32 22t-26 40q-87 149 -183 232l31 31q138 -65 206 -137t64 -131z" />
    <glyph glyph-name="Identity.419" unicode="&#x3074;" 
d="M518 1356q162 0 279 61q41 18 61 31q20 12 51 12t76 -36t45 -70t-57 -58q-127 -42 -191 -102q-128 -112 -240 -316t-112 -434q0 -176 114 -273t283 -97q287 0 421 207t134 569q0 193 -26 321q-29 186 -29 223t23 67q24 30 62 29t67 -34t28 -82q0 -217 21 -336
q43 -213 270 -420q68 -59 69 -143t-57 -84t-118 76q-115 133 -197 352q-8 29 -17 38q-8 9 -14 -2t-6 -147q0 -301 -72 -462q-152 -340 -555 -340q-211 0 -357 117q-75 59 -119 162t-44 239q0 391 363 807q-181 -32 -273 40q-45 36 -92 113l23 29q100 -57 186 -57zM1803 1604
q-62 0 -106 -44t-44 -108t44 -106t106 -43q62 0 107 44q44 44 44 106t-44 107q-45 44 -107 44zM1802 1229q-92 -1 -158 65t-65 158q0 92 66 158q65 66 157 66t158 -66t66 -158t-66 -158q-66 -65 -158 -65z" />
    <glyph glyph-name="Identity.420" unicode="&#x3075;" 
d="M1343 1149q0 -44 -41 -53t-85 -12t-97 -11t-142 -55t-89 -101t69 -125q69 -72 170 -163q98 20 181 20q182 0 328 -75q146 -74 221 -184t75 -197q1 -41 -21 -69t-65 -28q-57 0 -102 127q-59 152 -176 254t-291 103q-53 0 -94 -9q139 -160 139 -342q0 -106 -69 -162
q-68 -57 -186 -57t-284 66t-247 104l-60 -53q-25 -23 -57 -66t-59 -65q-26 -22 -56 -21q-57 0 -131 77q-74 76 -74 144t17 123l41 3q16 -64 47 -106t67 -42t182 97q148 97 203 135t161 96q106 59 196 92q-12 14 -94 107t-98 139q-15 44 -15 78t37 79t76 73t102 67t84 54
q40 29 14 79q-63 127 -317 229l20 45q197 -35 296 -89t161 -135t63 -171zM1161 274q0 125 -102 263q-193 -70 -473 -314q221 -86 385 -86q190 0 190 137z" />
    <glyph glyph-name="Identity.421" unicode="&#x3076;" 
d="M1962 1294q0 -62 -59 -61q-25 1 -39 19q-34 46 -62 75q-86 108 -192 182l22 31q166 -48 248 -116t82 -130zM1323 1135q0 -43 -44 -55q-31 -7 -79 -10q-47 -3 -100 -11q-52 -8 -142 -55t-90 -100t62 -118t111 -110t67 -62q98 20 180 21q182 0 328 -75q146 -74 222 -184
q75 -110 75 -198q0 -40 -22 -68t-64 -28q-57 0 -109 140t-170 241q-117 102 -291 102q-53 0 -94 -8q139 -160 140 -342q0 -107 -69 -163t-187 -56q-119 0 -285 66t-246 104l-59 -53q-25 -23 -58 -66t-59 -65t-55 -21q-57 0 -131 77t-74 144t16 123l41 2q16 -63 47 -105
t67 -42t183 97q146 97 202 134t162 96t195 93q-12 14 -55 63q-121 138 -141 198q-11 29 -11 63t37 79t76 73t102 66t84 54q41 29 15 79q-64 128 -318 230l21 45q197 -35 296 -89t161 -135t63 -171zM1141 260q0 125 -103 262q-193 -70 -473 -313q221 -86 385 -86
q191 0 191 137zM1748 1078q-17 -15 -38 -15q-33 0 -59 35q-27 35 -43 59q-97 125 -193 197l27 35q162 -55 243 -133t80 -136q0 -27 -17 -42z" />
    <glyph glyph-name="Identity.422" unicode="&#x3077;" 
d="M1337 1143q0 -44 -41 -53t-85 -12t-97 -11t-142 -55t-89 -101t69 -125q69 -72 170 -163q98 20 181 20q182 0 328 -75q146 -74 221 -184t75 -198q1 -40 -21 -68t-65 -28q-57 0 -102 127q-59 152 -176 254t-291 102q-53 0 -94 -8q139 -160 139 -342q0 -107 -69 -163
q-68 -56 -186 -56t-284 66t-248 104l-59 -53q-25 -23 -57 -66t-59 -65q-26 -22 -56 -21q-57 0 -131 77q-74 76 -74 144t17 123l41 2q16 -63 47 -105t67 -42t182 97q148 97 203 134t161 97t196 92q-12 14 -94 107t-98 139q-15 44 -15 78t37 79q38 45 76 73t102 66t84 54
q40 29 14 80q-63 127 -317 229l20 45q197 -35 296 -89t161 -135t63 -171zM1155 268q0 125 -102 262q-193 -70 -473 -313q221 -86 385 -86q190 0 190 137zM1913 1283q1 -93 -65 -159t-159 -65q-93 -1 -159 65t-66 159t66 159t159 66t159 -66t65 -159zM1690 1434
q-64 0 -108 -44t-44 -108t44 -107q44 -45 108 -45t107 44q44 44 44 108t-44 108t-107 44z" />
    <glyph glyph-name="Identity.423" unicode="&#x3078;" 
d="M246 727q46 -1 126 75t324 347q70 76 156 76t176 -90q58 -57 164 -174t183 -196t205 -181t267 -178q95 -54 95 -142t-80 -88q-131 0 -437 311q-94 96 -256 292t-220 256q-58 61 -98 61t-92 -61q-53 -61 -187 -245t-148 -201q-43 -52 -92 -52q-48 1 -106 35t-91 75
t-47 127l31 25q82 -72 127 -72z" />
    <glyph glyph-name="Identity.424" unicode="&#x3079;" 
d="M1935 209q0 -88 -80 -88q-131 0 -436 311q-94 96 -256 292t-220 256t-98 60t-92 -60q-53 -60 -187 -245q-134 -184 -148 -201q-76 -92 -198 -18q-58 35 -91 76t-47 127l31 24q82 -71 127 -71q46 0 126 76t324 346q70 76 156 76t176 -91q58 -57 164 -174t183 -195
t205 -182q128 -102 267 -178q94 -53 94 -141zM1845 1184q0 -24 -15 -40q-16 -16 -32 -16q-49 0 -112 95q-92 117 -220 198l25 33q162 -43 264 -123q90 -78 90 -147zM1583 948q-23 0 -44 22t-28 31q-120 160 -235 250l24 33q168 -55 263 -143q83 -73 79 -133t-59 -60z" />
    <glyph glyph-name="Identity.425" unicode="&#x307a;" 
d="M1935 209q0 -88 -80 -88q-131 0 -436 311q-94 96 -256 292t-220 256t-98 60t-92 -60q-53 -60 -187 -245q-134 -184 -148 -201q-76 -92 -198 -18q-58 35 -91 76t-47 127l31 24q82 -71 127 -71q46 0 126 76t324 346q70 76 156 76t176 -91q58 -57 164 -174t183 -195
t205 -182q128 -102 267 -178q94 -53 94 -141zM1692 1182q0 68 -48 114t-116 47q-68 0 -115 -47q-47 -48 -47 -116t47 -115t116 -47t116 48t47 116zM1529 946q-97 0 -167 69t-70 166t70 167t167 70t166 -70t69 -167t-70 -166q-68 -69 -165 -69z" />
    <glyph glyph-name="Identity.426" unicode="&#x307b;" 
d="M1164 807q-207 0 -320 199l28 28q74 -55 134 -81q116 -50 348 -7q0 195 -6 246q-2 55 -70 84q-23 -2 -61 -2q-103 0 -177 38t-131 128l27 26q115 -74 233 -73q178 0 387 69q29 10 68 28t51 17q113 0 117 -71q0 -39 -41 -60q-92 -41 -328 -82q31 -8 64 -26q33 -22 14 -84
t-22 -211q160 46 212 73t66 27q49 0 82 -22t33 -52q0 -51 -74 -77q-133 -53 -321 -88q4 -158 30 -433q199 -57 332 -170q82 -67 82 -141t-59 -74q-35 0 -93 58q-125 123 -253 188q2 -14 2 -43q0 -129 -92 -199t-252 -70q-158 0 -250 61q-92 60 -92 176t115 185
q116 69 294 68q47 0 129 -8q-7 149 -14 385q-98 -10 -192 -10zM1374 283v34q-92 25 -192 25t-186 -37q-85 -37 -85 -108q-1 -117 231 -117t232 203zM547 1292q0 -36 -12 -62t-38 -75t-46 -100q-131 -315 -132 -541q0 -127 39 -195q20 -49 50 -4q45 81 116 238q72 157 88 190
l45 -20q-119 -336 -145 -428q-26 -93 -27 -139t11 -102t12 -79q0 -70 -68 -69q-117 0 -192 289q-35 135 -35 351t114 602q31 109 31 175q1 96 -112 231l28 27q76 -27 129 -68q51 -43 97 -113t47 -108z" />
    <glyph glyph-name="Identity.427" unicode="&#x307c;" 
d="M1700 1686l24 30q152 -55 230 -119q70 -70 65 -124q-4 -61 -59 -58q-22 1 -36 19q-13 18 -29 42q-75 120 -195 210zM1124 774q-210 0 -325 201l30 26q53 -39 83 -56q88 -50 195 -50t204 18q0 197 -6 248q-2 53 -68 82q-25 -2 -66 -2q-201 0 -305 168l27 27
q113 -74 241 -74t312 47q31 11 69 27t68 16q29 0 59 -18t29 -56q0 -38 -41 -55q-80 -31 -246 -59q41 -16 58 -27q34 -23 16 -85t-22 -210q159 43 211 71q52 29 61 29q37 0 78 -16t41 -62t-72 -73q-127 -53 -321 -86q4 -113 28 -432q205 -61 332 -172q84 -68 84 -142t-61 -73
q-35 0 -93 57q-127 127 -254 190q2 -18 3 -47q1 -128 -93 -198t-252 -70t-248 62q-92 62 -92 177q0 117 116 185t294 68q47 0 129 -9q-6 140 -14 385q-91 -12 -189 -12zM1329 254v33q-214 58 -378 -13q-85 -37 -85 -108q0 -117 221 -117q242 0 242 205zM502 1260
q0 -38 -12 -64t-38 -74q-26 -49 -46 -100q-129 -319 -130 -541q0 -127 37 -194q20 -49 47 -7t207 431l45 -19q-116 -328 -144 -425t-28 -143t12 -102t11 -79q1 -70 -63 -70t-113 78t-84 212q-35 133 -35 321t94 558q2 12 26 97t25 151q1 91 -110 234l28 24q72 -29 129 -67
q54 -41 98 -112t44 -109zM1542 1575l25 31q160 -72 223 -142t61 -129t-59 -55q-21 0 -37 24q-32 40 -51 78q-70 117 -162 193z" />
    <glyph glyph-name="Identity.428" unicode="&#x307d;" 
d="M1124 774q-210 0 -325 201l30 26q53 -39 83 -56q88 -50 195 -50t204 18q0 197 -6 248q-2 53 -68 82q-23 -2 -66 -2q-201 0 -305 168l27 27q113 -74 233 -74t287 37q49 16 79 29q31 14 51 14t42 -8q-4 25 -4 39q0 93 66 157q65 64 157 64t158 -65t66 -157t-66 -158
q-66 -65 -168 -65t-166 86q-25 -38 -242 -73q45 -18 56 -25q34 -23 16 -85t-22 -210q159 43 211 71q52 29 61 29q37 0 78 -16t41 -62t-72 -73q-127 -53 -321 -86q4 -113 28 -432q205 -61 332 -172q84 -68 84 -142t-61 -73q-35 0 -93 57q-127 127 -254 190q2 -18 3 -47
q1 -128 -93 -198t-252 -70t-248 62q-92 62 -92 177q0 117 116 185t294 68q47 0 129 -9q-6 140 -14 385q-91 -12 -189 -12zM1804 1622q-63 0 -107 -44t-44 -106t44 -106t107 -45q63 0 107 44q43 45 43 107t-43 106q-44 44 -107 44zM1329 254v33q-214 58 -378 -13
q-85 -37 -85 -108q0 -117 221 -117q242 0 242 205zM502 1260q0 -38 -12 -64t-38 -74q-26 -49 -46 -100q-129 -319 -130 -541q0 -127 37 -194q20 -49 47 -7t207 431l45 -19q-116 -328 -144 -425t-28 -143t12 -102t11 -79q1 -70 -63 -70t-113 78t-84 212q-35 133 -35 321
t94 558q2 12 26 97t25 151q1 91 -110 234l28 24q72 -29 129 -67q54 -41 98 -112t44 -109z" />
    <glyph glyph-name="Identity.429" unicode="&#x307e;" 
d="M1722 53q0 -71 -71 -71q-35 0 -99 57q-164 152 -376 223l2 -82q0 -129 -100 -202q-100 -72 -269 -72q-168 0 -268 68q-101 68 -101 184q0 118 134 188t337 70q63 0 121 -6q-6 111 -12 292q-137 -10 -244 -10q-225 0 -294 98t91 257l41 -23q-63 -78 -57 -124t57 -64
q103 -36 402 -7v86q0 123 2 187q-154 -16 -298 -16t-243 50q-98 50 -172 179l33 26q88 -69 160 -99t206 -30t318 25q4 189 4 205q0 33 -45 51q-57 18 -150 31l-4 39q82 41 157 41t153 -38t77 -81q0 -23 -21 -67t-38 -161q251 48 323 79q72 32 101 32t69 -19t40 -55
q0 -51 -76 -77q-152 -55 -469 -101q-8 -98 -8 -256v-14q221 33 330 82l45 18q15 6 43 6t63 -18t35 -53q0 -51 -68 -76q-133 -51 -444 -90q2 -66 24 -324q297 -57 477 -207q82 -66 82 -131zM731 37q174 0 238 58q63 58 65 204q-94 16 -212 16t-206 -45q-90 -45 -90 -103
t56 -94t149 -36z" />
    <glyph glyph-name="Identity.430" unicode="&#x307f;" 
d="M1710 872q0 -14 -3 -32l-7 -42q-4 -24 -12 -78t-29 -145q145 -86 207 -147t63 -139q-4 -72 -71 -72q-27 0 -57 22q-30 21 -87 75t-108 94q-180 -416 -764 -539l-27 45q246 80 415 230t249 354q-289 197 -664 200q-27 -51 -117 -235t-138 -253t-100 -106q-52 -36 -130 -36
t-125 106t-27 223q27 147 186 251t363 134v2q45 78 175 298t148 258t13 44q-16 20 -289 -104q-10 -6 -43 -28t-71 -23q-39 0 -97 50q-57 50 -68 91t-8 121l35 10q15 -22 30 -49q15 -26 25 -32q9 -7 21 -16t41 -9q92 0 352 82q37 13 73 35t52 22q47 0 121 -54t74 -96
q-1 -20 -21 -38t-54 -42t-70 -64t-134 -186q-100 -146 -166 -261q342 0 658 -146q41 213 -17 248q-31 19 -80 31l3 37q122 50 226 -21q54 -37 54 -70zM334 240q38 0 64 20t74 86q48 64 202 342q-160 -26 -276 -102t-138 -172q-14 -61 10 -118q25 -56 64 -56z" />
    <glyph glyph-name="Identity.431" unicode="&#x3080;" 
d="M1036 1380q123 0 123 -65q0 -49 -122 -97t-285 -85q-6 -45 -16 -135t-15 -121q47 -43 47 -138q0 -274 -123 -377q-29 -110 -29 -188t83 -104t299 -25q216 0 345 72q47 25 69 59t22 92t-28 291t-28 320q0 295 191 295q143 0 259 -117t116 -269q0 -52 -23 -80t-82 -32
q-18 -2 -100 5t-135 -9l-15 39q86 37 152 80q33 23 33 63q0 88 -76 164t-152 76q-90 0 -90 -183q0 -88 30 -269q30 -182 48 -248t48 -128t30 -104q0 -117 -180 -192q-180 -74 -434 -74t-372 58t-118 202q0 61 16 163h-8q-104 0 -180 80t-76 197t87 222t220 106q18 0 56 -4
q5 62 7 116q3 54 5 74q-129 -18 -225 -18t-152 48q-55 48 -106 169l32 20q76 -76 122 -95q100 -41 335 9q4 73 4 141t-7 83q-16 34 -140 63v37q78 25 130 25t125 -30t72 -61q0 -23 -15 -53q-23 -46 -40 -172q91 26 171 65q81 39 95 39zM489 469q78 0 109 67q31 66 31 186
t-97 120q-80 0 -126 -70t-48 -142q0 -72 39 -117q39 -44 92 -44z" />
    <glyph glyph-name="Identity.432" unicode="&#x3081;" 
d="M1069 414q0 -63 -74 -64q-51 0 -127 51q-78 -94 -163 -157q-154 -123 -295 -123q-90 0 -138 76q-47 76 -47 184q0 190 92 347t207 255l-45 135q-35 98 -186 234l24 26q111 -27 166 -67q117 -78 140 -166q6 -23 18 -76q219 139 479 152q58 213 28 249q-31 36 -165 39
l-4 37q73 39 139 39t150 -48t84 -95q0 -22 -20 -62t-29 -65l-31 -101q266 -32 422 -198t155 -404q0 -271 -199 -451q-221 -200 -751 -224l-10 45q786 139 786 661q0 178 -116 318q-117 139 -316 167q-102 -308 -280 -598q106 -53 106 -116zM348 449q0 -160 96 -160
q89 0 191 80q55 45 125 123q-82 92 -125 188t-82 209q-97 -102 -151 -225t-54 -215zM946 766q84 162 150 367q-250 -12 -434 -150q34 -137 80 -221t112 -148q37 54 92 152z" />
    <glyph glyph-name="Identity.433" unicode="&#x3082;" 
d="M1147 547q0 -115 -344 -72q-14 -100 -15 -153q0 -146 86 -220t234 -73q186 0 292 103q105 103 105 253q1 149 -79 261t-240 231l26 32q459 -211 459 -575q0 -164 -129 -297q-63 -66 -171 -106t-241 -40q-214 0 -326 115t-112 309q0 78 13 177q-141 33 -222 103
q-80 71 -80 157t75 169t194 144q-86 27 -146 65q-102 70 -135 220l33 18q94 -127 189 -166t227 -49q68 246 72 287t-9 58q-25 36 -143 65l2 41q63 14 131 14q69 0 147 -60t78 -108q0 -28 -36 -75t-99 -228q35 0 51 -4q55 -6 81 -31t26 -59q0 -55 -84 -62q-29 -2 -123 2
q-59 -178 -103 -366q51 -2 133 -1t91 -1q92 -6 92 -78zM487 784q0 -111 240 -145q27 168 74 360q-104 -5 -209 -75t-105 -140z" />
    <glyph glyph-name="Identity.434" unicode="&#x3083;" 
d="M686 898q0 -23 20 -51q20 -27 37 -52q18 -25 56 -74q375 178 577 178q146 0 238 -78q92 -79 92 -199t-93 -193t-241 -73q-201 0 -344 209l23 21q141 -113 301 -113q98 0 159 51q61 52 61 134t-58 132q-60 50 -146 50q-180 0 -514 -205q115 -188 227 -461q57 -128 57 -196
q1 -121 -75 -119q-53 0 -78 73q-4 12 -21 92t-34 134q-74 246 -172 413q-120 -79 -166 -115t-65 -44t-45 -8t-73 28q-48 29 -74 67t-18 113l27 13q51 -68 93 -68q43 -1 101 31t97 52t59 30q-56 80 -94 125t-37 60q2 15 3 42t32 65q17 19 94 25l27 2q190 10 254 21
q33 6 18 37q-28 69 -155 108l8 27q195 6 282 -95q52 -57 52 -117t-60 -61q-16 -1 -50 9t-88 18t-230 0q-64 -5 -64 -38z" />
    <glyph glyph-name="Identity.435" unicode="&#x3084;" 
d="M1221 1329q0 -76 -66 -76q-20 -1 -63 11q-148 39 -437 16q-45 -4 -64 -16q-35 -22 -14 -67q23 -51 140 -206q504 248 772 248q190 0 306 -100t116 -256t-123 -249t-309 -93q-256 0 -449 250l35 30q188 -145 399 -145q131 0 213 66t82 176t-80 179t-198 68
q-246 0 -701 -272q156 -250 307 -619q74 -188 74 -282q1 -49 -23 -80t-65 -31q-59 0 -84 88q-7 21 -29 121t-45 172q-109 338 -243 563q-189 -118 -238 -156q-48 -38 -70 -49q-22 -12 -58 -12t-95 38t-90 86t-25 128l39 19q66 -95 120 -95t173 62t174 88q-56 80 -82 112
q-54 64 -59 72l-16 24q-11 17 -11 26t-5 31t3 36q8 51 28 67q19 17 32 26t61 14q48 4 84 6q35 2 125 9t145 11t80 6q43 6 23 49q-45 93 -213 144l14 41q231 -10 344 -131q66 -72 66 -148z" />
    <glyph glyph-name="Identity.436" unicode="&#x3085;" 
d="M1268 930q172 0 291 -113t119 -309t-131 -314q-130 -118 -349 -118q-35 0 -53 2q-119 -152 -406 -228l-12 29q207 86 309 230q-116 49 -180 167t-63 285q0 68 2 98q-80 -84 -133 -188q-54 -105 -54 -149t12 -86t11 -68q0 -57 -62 -57q-41 0 -86 55q-82 98 -82 295
q0 84 37 228t37 189t-11 68q-11 24 -14 32t-15 25q-12 18 -23 32q-12 15 -13 18l19 14q68 -18 117 -57q31 -27 57 -68t26 -74t-49 -127q-77 -176 -77 -254t30 -114q113 246 283 387q20 150 86 268t166 117q66 0 118 -55q51 -56 80 -160h13zM1038 1073q-55 0 -100 -94
q-29 -59 -49 -156q113 72 252 97q-29 153 -103 153zM872 643q0 -356 230 -414q59 150 59 392q0 125 -10 227q-150 -25 -274 -119q-5 -57 -5 -86zM1548 536q0 156 -79 232t-195 84q18 -98 18 -227q1 -248 -65 -408q139 6 230 85q91 78 91 234z" />
    <glyph glyph-name="Identity.437" unicode="&#x3086;" 
d="M1073 1559q175 0 258 -295h6q229 0 383 -146t154 -394t-167 -402t-450 -154q-25 0 -73 4q-150 -201 -518 -303l-19 43q274 104 408 291q-156 59 -243 214t-87 380q0 76 6 147q-115 -113 -189 -259t-75 -234q0 -37 14 -85t15 -77q0 -66 -68 -66q-45 0 -98 64
q-104 137 -105 381q0 106 46 294t46 239q0 52 -20 98q-19 47 -33 65l-49 63l27 23q78 -23 131 -68q109 -102 108 -178q0 -47 -57 -166q-96 -244 -96 -350t39 -153q143 317 374 512q33 209 109 344q90 168 223 168zM903 1348q-43 -92 -65 -230q150 106 360 135
q-41 231 -141 232q-86 0 -154 -137zM817 885q0 -473 318 -545q90 205 90 532q0 176 -17 308q-203 -29 -385 -158q-6 -67 -6 -137zM1726 755q0 207 -112 315t-266 116q27 -131 26 -301q0 -348 -98 -559q194 4 322 112t128 317z" />
    <glyph glyph-name="Identity.438" unicode="&#x3087;" 
d="M1561 -4q0 -63 -62 -64q-27 0 -61 27t-89 76q-105 92 -229 135q4 -33 4 -55q0 -104 -72 -168q-74 -63 -218 -63t-225 52q-81 54 -81 146q0 115 113 174t281 59q49 0 73 -2q-5 158 -18 367q-6 322 -11 350t-38 45q-35 16 -115 27l-4 24q91 41 151 41t126 -39t67 -75
q0 -20 -15 -49q-14 -29 -24 -61t-20 -144h24q112 0 238 55q46 20 53 20q123 0 123 -73q0 -41 -59 -66q-129 -43 -261 -43q-47 0 -125 41l-2 -82q1 -141 19 -352v-2q113 -19 217 -69q240 -114 240 -232zM600 96q0 -92 188 -92q100 0 154 47q53 47 55 154q-66 14 -164 14
q-97 0 -165 -36t-68 -87z" />
    <glyph glyph-name="Identity.439" unicode="&#x3088;" 
d="M1724 55q0 -74 -69 -73q-31 0 -72 34t-113 94q-146 125 -327 185q4 -53 4 -84q0 -135 -96 -215q-95 -80 -277 -80t-286 67q-103 67 -103 183q0 141 145 215t357 74q41 0 114 -4q-23 445 -27 679t-7 283q-4 49 -56 70q-55 18 -145 26l-4 39q110 41 180 41t153 -46t83 -89
q0 -26 -20 -62t-32 -86q-13 -50 -20 -202q16 -2 45 -2q192 0 362 85q16 7 29 7q137 0 137 -84q0 -46 -64 -70q-63 -24 -169 -42t-178 -19q-72 0 -166 47q-2 -22 -2 -184t22 -379l2 -31q148 -27 284 -89t226 -138t90 -150zM694 53q176 -1 242 63t68 214q-96 18 -220 18
t-218 -49t-93 -113t59 -98q58 -35 162 -35z" />
    <glyph glyph-name="Identity.440" unicode="&#x3089;" 
d="M1753 406q0 -134 -94 -240t-247 -164q-327 -123 -701 -92l-6 47q238 20 395 68q481 143 481 430q0 129 -87 211q-86 82 -232 82t-313 -111t-296 -262q-9 -12 -31 -47q-42 -68 -80 -68t-82 49t-44 105q0 20 10 69t15 92t31 191t31 183q5 36 5 179q0 84 88 105
q324 80 377 100q41 19 4 64q-66 86 -289 155l10 41q242 -10 380 -100t139 -217q0 -84 -76 -84q-25 0 -74 9t-139 9t-260 -41q-43 -8 -43 -41l26 -124q0 -52 -13 -104q-61 -247 -63 -351q2 -31 29 -12q358 287 684 286q221 0 343 -123t122 -294z" />
    <glyph glyph-name="Identity.441" unicode="&#x308a;" 
d="M694 395q-119 0 -119 262q1 119 49 393t48 338t-26 120t-93 134l25 25q132 -26 218 -138q46 -61 46 -93t-28 -123t-48 -207q-2 -20 1 -28q7 -20 32 22q76 135 174 216t196 81q177 0 273 -171t96 -468q0 -735 -774 -914l-23 43q371 149 502 389q119 215 119 485
q0 271 -60 408t-163 138q-72 1 -152 -61t-133 -163q-102 -201 -102 -389l12 -223q0 -33 -20 -55t-50 -21z" />
    <glyph glyph-name="Identity.442" unicode="&#x308b;" 
d="M715 1399q53 0 243 45t223 66q32 22 48 22q55 0 127 -57t71 -107q0 -18 -14 -32t-70 -45q-56 -32 -245 -207q-189 -176 -264 -257q-12 -12 -8 -21t20 -3q195 70 350 69q209 0 351 -127q141 -127 139 -333t-174 -343q-172 -136 -459 -137q-176 0 -286 69t-110 183
q0 88 70 146q69 58 181 57q112 0 209 -75t124 -216q141 44 215 140t77 228t-97 233t-258 101t-285 -58q-127 -60 -216 -144t-185 -209q-30 -35 -48 -47t-44 -11t-45 29t-17 74q2 47 79 125t284 286q421 419 469 495q28 44 21 54q-7 9 -28 5q-104 -18 -315 -117
q-12 -6 -48 -28t-59 -21q-63 0 -117 56q-54 55 -64 105t3 126l35 4q57 -123 117 -123zM880 305q-145 -1 -145 -111q0 -52 72 -90t205 -38q31 0 88 4q-20 111 -84 173t-136 62z" />
    <glyph glyph-name="Identity.443" unicode="&#x308c;" 
d="M1606 59q-124 0 -190 71t-66 200t42 358q42 230 42 334t-31 152t-105 49q-126 0 -286 -113t-316 -291v-2q-14 -201 8 -467t23 -278q0 -68 -29 -124t-71 -57q-66 0 -80 82t-41 151t-131 224l-111 -162q-51 -74 -83 -74t-50 22q-18 24 -18 73t49 104q74 76 208 247t232 323
q2 27 7 77t7 74q-84 -45 -174 -100q-16 -10 -48 -43t-52 -33q-51 0 -111 51q-59 51 -72 99t-9 106l34 10q51 -94 103 -94q37 0 149 48t197 95q29 215 30 267t-7 64q-19 29 -152 59l-2 41q76 26 140 26t134 -57t70 -107q0 -27 -26 -85t-62 -193q74 -51 74 -82t-48 -78
q-10 -12 -41 -51q365 330 605 330q246 0 245 -289q0 -80 -43 -308t-43 -324t34 -133q34 -36 106 -36q174 0 352 154l31 -33q-74 -117 -187 -197t-237 -80zM588 227q0 35 -1 188t1 247q-92 -143 -182 -269q29 -35 147 -182q35 -31 35 16z" />
    <glyph glyph-name="Identity.444" unicode="&#x308d;" 
d="M678 1415q51 0 220 38q170 38 216 52q46 15 70 33t37 18q57 0 132 -64t74 -112q0 -23 -18 -38t-50 -30t-75 -50t-275 -255t-228 -233q3 -4 20 4q205 104 428 104t371 -119q148 -120 149 -337q0 -217 -230 -365q-118 -77 -324 -115t-480 -26l-6 47q414 37 641 174t227 367
q1 137 -105 221t-286 84t-372 -124q-194 -124 -361 -320q-51 -66 -87 -66t-60 33q-41 56 -15 120q18 43 194 187q125 109 374 372t295 323t40 74q-4 13 -52 2t-165 -52q-146 -51 -202 -84t-81 -33q-51 1 -108 57q-58 56 -66 109t10 123l33 6q53 -125 115 -125z" />
    <glyph glyph-name="Identity.445" unicode="&#x308e;" 
d="M760 -131q-55 0 -68 63q-10 72 -32 125t-85 144l-73 -109q-26 -41 -41 -51q-14 -10 -35 -10t-36 20t-15 63t41 91q250 305 325 416q2 33 11 102q-117 -63 -140 -85q-22 -22 -33 -30t-39 -8t-73 40t-56 79t-12 78l25 10q41 -63 87 -63t253 98q20 198 20 224t-8 36
q-20 25 -123 51v27q59 26 115 26t114 -46t58 -87q0 -18 -22 -67t-39 -129q75 -47 73 -72q0 -25 -32 -56t-84 -92v-6q242 147 452 148q164 -1 284 -103t120 -274t-146 -310t-473 -204l-12 31q469 184 469 534q0 119 -74 193t-188 74t-233 -52q-118 -51 -208 -131
q-8 -127 11 -410l10 -122q0 -59 -25 -107t-63 -49zM729 143q0 172 2 289q-61 -96 -131 -196q20 -23 56 -61t42 -46q31 -27 31 14z" />
    <glyph glyph-name="Identity.446" unicode="&#x308f;" 
d="M1368 1106q211 0 365 -133t153 -340q0 -240 -186 -419t-594 -269l-21 45q420 160 552 404q71 130 71 283t-101 254t-258 101t-311 -68t-276 -171q-12 -203 20 -564q2 -23 4 -53t4 -52t3 -68q0 -46 -28 -103t-71 -57q-68 0 -83 84t-43 151q-28 68 -128 213
q-59 -86 -110 -160t-82 -74t-50 22q-20 24 -20 73t49 104q78 84 211 253t230 317q8 98 14 145q-178 -94 -205 -121t-41 -39t-30 -12q-49 0 -107 50q-57 50 -69 94t-13 104l35 12q51 -90 100 -90q68 0 344 135q31 254 31 296t-10 55q-25 32 -156 59v41q77 26 141 26t133 -55
t68 -106q0 -20 -27 -92t-53 -191q34 -17 60 -44q27 -28 27 -48t-48 -72q-47 -51 -88 -106l-2 -13q326 199 596 199zM471 389l150 -174q31 -33 32 16q0 371 2 428q-109 -162 -184 -270z" />
    <glyph glyph-name="Identity.447" unicode="&#x3090;" 
d="M1061 1569q49 0 126 -48t77 -89q0 -23 -39 -60t-56 -80q-33 -92 -88 -235q106 20 191 20q231 -1 389 -151t158 -413t-160 -422t-504 -159q-139 0 -227 64t-88 162t72 168q73 70 190 70t200 -86q83 -85 95 -212q274 100 272 447q-2 203 -111 334q-110 131 -305 131
q-88 0 -209 -39q-201 -492 -313 -673q-111 -182 -175 -242t-135 -60t-135 115t-65 235q0 70 40 154q91 191 348 358q151 98 317 156q76 205 116 377q4 20 -1 25t-25 1q-94 -31 -234 -108q-16 -10 -50 -39t-69 -29q-34 0 -93 49q-58 49 -74 90t-15 127l37 13
q57 -104 111 -105q92 0 348 103q16 6 42 28t42 23zM420 174q61 0 129 98q164 213 334 631q-154 -74 -292 -179t-210 -210q-109 -148 -27 -288q31 -52 66 -52zM1122 59q84 0 135 9q-8 100 -58 172q-51 72 -123 72t-110 -36q-38 -35 -38 -90t55 -91t139 -36z" />
    <glyph glyph-name="Identity.448" unicode="&#x3091;" 
d="M1200 1149q170 0 283 -80q113 -79 113 -237t-162 -255t-387 -98q-53 0 -119 10q-176 -119 -305 -235q115 29 197 -5t163 -136q254 279 451 278q172 1 306 -111t134 -249q0 -96 -78 -97q-18 0 -56 14t-80 13q-42 0 -169 -24l-12 32q135 55 181 85t24 96t-102 124
q-79 58 -174 58t-181 -96t-137 -218l-5 -10q-33 -74 -55 -84l-16 -2q-51 0 -109 49q-16 17 -26 61t-33 79q-64 100 -162 99t-190 -87t-156 -182q-37 -51 -73 -51q-35 0 -57 25q-22 26 -22 62q0 59 70 121q20 18 68 54t116 84q66 50 103 78t133 102t143 110q-111 53 -110 154
q0 68 62 119q63 51 149 51t142 -43t56 -111t-43 -106q168 8 272 86q103 78 103 187t-76 167t-230 60q-154 0 -310 -103q-84 -55 -281 -256q-43 -47 -76 -47q-67 0 -67 80q0 32 24 58t122 96t304 244q206 175 287 259q14 15 10 23t-24 4q-119 -23 -283 -105q-10 -7 -44 -31
t-68 -24q-33 0 -86 48q-52 48 -60 92t0 104l37 6q2 -4 11 -20t13 -24q30 -57 72 -56q88 0 360 86q31 10 59 30t42 21q53 0 123 -53t69 -90q0 -16 -12 -26t-39 -24q-27 -12 -35 -16q-364 -231 -351 -258q3 -6 81 18t178 23zM791 694q0 -72 120 -96q47 39 66 62q18 24 18 55
q0 76 -94 76q-47 0 -79 -28t-31 -69z" />
    <glyph glyph-name="Identity.449" unicode="&#x3092;" 
d="M1825 918q-1 -36 -19 -47t-48 -20t-36 -9t-14 -4q-303 -88 -565 -217q10 -145 10 -324q0 -92 -76 -92q-35 -1 -59 21t-25 72q0 50 11 251q-332 -195 -332 -353t313 -157q178 0 336 33t178 32q133 0 133 -77q0 -61 -84 -86q-63 -19 -200 -37t-258 -19q-512 0 -512 291
q0 211 426 481q-4 129 -35 181t-109 53q-165 0 -391 -294q-43 -56 -71 -83t-60 -28t-51 27q-21 28 -21 62t18 63t70 77q206 187 355 444q-85 -10 -177 -10t-141 45t-110 178l38 23q49 -49 75 -69q68 -54 173 -54t213 20q44 94 60 156t-31 86q-37 20 -119 37l2 35
q84 30 136 28t127 -28t75 -62q0 -19 -15 -46q-15 -28 -39 -76t-48 -95q193 53 302 111l40 20q12 6 26 6q102 0 103 -65q0 -39 -62 -72q-188 -92 -489 -147q-82 -145 -184 -277q-6 -10 -2 -15t14 1q135 74 227 74q91 -1 151 -61t76 -171q86 47 253 125t219 105q49 29 10 71
q-29 39 -101 72l23 35q111 -15 163 -49t90 -84q38 -52 38 -88z" />
    <glyph glyph-name="Identity.450" unicode="&#x3093;" 
d="M983 809q250 0 260 -248q2 -53 -2 -161t-4 -150q0 -160 158 -160q157 0 281 133t198 332l41 -12q-53 -319 -206 -465t-347 -148q-135 0 -210 71t-75 204q-2 63 8 184t11 180q0 160 -152 160q-129 1 -248 -109q-155 -143 -244 -386q-24 -62 -44 -124t-31 -87
q-35 -84 -96 -84q-35 -1 -60 31q-47 59 -2 165q45 105 87 172q43 66 106 176q63 111 277 471t249 425t-2 97t-125 60l10 39q183 31 296 -77q62 -60 63 -116q0 -18 -16 -34t-46 -40q-31 -24 -75 -74q-45 -50 -167 -221t-157 -231t-30 -66q5 -5 18 3q158 90 276 90z" />
    <glyph glyph-name="Identity.451" unicode="&#x309b;" 
d="M569 1417q-38 0 -102 96q-94 106 -193 181l25 32q160 -49 243 -114q82 -65 82 -130t-55 -65zM369 1247q-28 0 -71 60q-97 136 -218 233l29 35q164 -61 249 -143q70 -63 70 -124t-59 -61z" />
    <glyph glyph-name="Identity.452" unicode="&#x309c;" 
d="M295 1661q-70 0 -120 -50t-50 -120t50 -119t120 -49t119 49t49 119t-49 120t-119 50zM294 1247q-101 0 -172 71t-71 173t71 173t172 71t172 -71t71 -173t-71 -173t-172 -71z" />
    <glyph glyph-name="Identity.453" unicode="&#x309d;" 
d="M1393 465q0 -63 -32 -98t-66 -35t-81 22t-104 23q-57 0 -254 -55l-18 43q162 63 270 133q72 45 47 131q-33 121 -147 250q-115 129 -285 215l29 41q389 -123 553 -396q88 -137 88 -274z" />
    <glyph glyph-name="Identity.454" unicode="&#x309e;" 
d="M1393 465q0 -63 -32 -98t-66 -35t-81 22t-104 23q-57 0 -254 -55l-18 43q162 63 270 133q72 45 47 131q-33 121 -147 250q-115 129 -285 215l29 41q389 -123 553 -396q88 -137 88 -274zM1645 1155q-29 0 -62 42q-103 133 -235 233l24 32q168 -49 249 -113t81 -129
t-57 -65zM1484 1006q-17 -16 -40 -17q-23 0 -42 19q-18 19 -35 43t-26 34q-104 129 -190 195l29 35q323 -130 321 -266q0 -27 -17 -43z" />
    <glyph glyph-name="Identity.455" unicode="&#x30a1;" 
d="M616 977q52 0 344 31t356 40q66 9 96 23t46 14q39 1 115 -69t76 -111q0 -34 -71 -58q-32 -11 -44 -18q-186 -117 -328 -190q4 -14 -4 -33q-96 -250 -253 -429t-410 -298l-23 31q203 133 352 361q150 228 150 325q0 55 -121 100l6 29q157 17 254 -37q184 131 246 236
q12 22 8 30t-42 8t-271 -40q-232 -42 -310 -60t-110 -36t-64 -19q-30 0 -80 43t-68 89t-15 105l28 11q25 -31 36 -44t29 -23q20 -10 72 -11z" />
    <glyph glyph-name="Identity.456" unicode="&#x30a2;" 
d="M492 1327q62 0 466 42q406 41 481 53t109 29t54 17q47 0 135 -80t88 -126q0 -25 -23 -41q-22 -17 -60 -31t-54 -25q-207 -147 -445 -278q0 -23 -6 -37q-125 -328 -319 -555t-517 -385l-32 41q186 117 346 309q159 192 237 348t78 232q0 42 -41 70t-123 59l11 39
q197 13 313 -58q256 188 352 326q16 29 11 38t-56 9t-369 -48t-493 -83q-41 -10 -78 -36t-71 -26t-96 54t-84 100q-22 47 -25 139l41 11q4 -4 28 -40t41 -47q19 -10 29 -15t72 -5z" />
    <glyph glyph-name="Identity.457" unicode="&#x30a3;" 
d="M1417 1014q0 -28 -8 -38t-31 -26t-37 -30q-119 -131 -227 -234q84 -59 84 -88q0 -10 -7 -39q-19 -78 -12 -319q7 -240 7 -263q0 -96 -72 -96q-49 0 -76 44q-26 44 -26 80t7 72t9 62q25 203 19 412q-2 37 -15 63q-289 -244 -606 -358l-20 33q194 111 390 279t308 303
q112 134 113 184q-1 43 -91 86l11 26q85 0 131 -15t98 -63q52 -47 51 -75z" />
    <glyph glyph-name="Identity.458" unicode="&#x30a4;" 
d="M1137 -90q-53 0 -85 55t-32 98t17 126t23 308q7 223 5 285t-25 101q-373 -322 -784 -484l-27 47q335 190 609 440t407 443q53 78 53 111q1 47 -120 104l14 37q98 -1 156 -21t118 -78q61 -58 62 -104q0 -20 -10 -31t-37 -31t-49 -42q-156 -168 -306 -313q106 -70 107 -109
q0 -12 -8 -48t-11 -65q-6 -131 -6 -277l6 -439q0 -113 -77 -113z" />
    <glyph glyph-name="Identity.459" unicode="&#x30a5;" 
d="M980 1186q52 0 112 -36t61 -65q0 -18 -20 -47t-27 -161q220 14 240 17t50 25t44 21q44 0 108 -57t64 -83t-34 -58t-40 -46q-117 -305 -305 -506t-498 -331l-24 28q260 154 436 387t235 502q4 20 1 26q-7 13 -226 -8q-219 -20 -293 -30t-94 -10t-61 24q31 -379 30 -393
q0 -63 -57 -68q-39 -1 -69 47t-31 93l8 73q0 43 -11 130t-25 133t-93 133l14 26q101 -27 151 -56t64 -48q57 2 283 18q0 129 -2 174q-2 46 -27 58t-86 28v25q70 35 122 35z" />
    <glyph glyph-name="Identity.460" unicode="&#x30a6;" 
d="M970 1604q54 0 129 -44t75 -77q0 -23 -22 -53t-27 -80t-9 -148q318 20 342 24t60 26q36 24 55 24q51 0 125 -68t74 -98t-39 -66q-39 -35 -47 -55q-150 -387 -395 -658t-629 -448l-33 43q336 199 570 507t310 652q6 25 1 31t-27 6q-403 -15 -689 -56q-97 -13 -125 -13
t-75 28q2 -31 24 -248t23 -266q2 -72 -66 -75q-45 -2 -84 66t-27 149q5 33 6 67t-16 155q-17 120 -31 154q-13 33 -17 43t-16 26t-19 28q-8 13 -36 40t-38 42l22 34q206 -70 252 -133q117 6 400 29q0 226 -5 254q-4 28 -12 38q-21 27 -137 44l-2 41q101 35 155 35z" />
    <glyph glyph-name="Identity.461" unicode="&#x30a7;" 
d="M705 717q-55 0 -113 71q-42 56 -60 113l23 17q90 -76 164 -76q121 0 307 31t227 57t58 26q57 0 123 -30t65 -62q0 -59 -69 -65q-26 0 -381 -37q94 -39 94 -90q0 -16 -17 -69t-39 -320q176 16 257 21t117 15t42 11q59 0 138 -46t79 -89q0 -60 -63 -62q-12 0 -140 24
q-128 25 -244 27t-297 -16t-248 -36t-120 -36q-53 -20 -84 -20t-83 45t-68 79t-19 101l25 10q68 -76 141 -75q27 0 432 34q10 178 11 328q0 92 -39 150q-201 -31 -219 -31z" />
    <glyph glyph-name="Identity.462" unicode="&#x30a8;" 
d="M1161 965q0 -19 -16 -61t-21 -73q-18 -164 -32 -403q304 25 388 30t128 16t51 11q74 0 169 -52t95 -105q0 -68 -72 -68q-12 0 -160 28t-299 34t-463 -26q-312 -31 -466 -91q-59 -23 -96 -23t-101 54t-85 95q-22 42 -23 122l35 14q88 -102 172 -102q49 0 577 49
q14 258 14 454q0 115 -59 189q-274 -41 -295 -41q-62 0 -126 72t-93 151l33 21q115 -100 209 -101q139 0 399 38t314 73q55 35 77 37q68 0 144 -34t75 -71q0 -63 -84 -74q-8 -2 -514 -53q125 -55 125 -110z" />
    <glyph glyph-name="Identity.463" unicode="&#x30a9;" 
d="M1116 1176q54 0 114 -35t60 -62q0 -16 -13 -42q-13 -25 -19 -61t-11 -145q139 15 178 29t53 20t19 5q49 0 109 -36t59 -71q0 -53 -51 -53q-18 0 -117 6t-252 -2q0 -459 15 -604q2 -29 2 -71t-37 -96q-37 -52 -80 -52q-23 0 -37 15t-29 43q-14 28 -28 42q-43 37 -170 98
l12 27q151 -27 187 -29t40 27q4 55 0 418q-120 -160 -318 -307t-413 -230l-18 29q213 133 396 314t275 356q-229 -33 -309 -61q-79 -27 -109 -27t-79 45q-49 44 -61 78t-13 98l23 8q66 -82 126 -81t498 48q0 104 -4 211q0 38 -33 58t-96 34v25q76 31 131 31z" />
    <glyph glyph-name="Identity.464" unicode="&#x30aa;" 
d="M1153 1423q0 73 -180 90v39q92 39 163 39q70 0 144 -40t74 -70q0 -23 -18 -56t-24 -79q-7 -46 -12 -207q242 25 323 60q24 9 34 9q61 0 131 -40t70 -74q0 -68 -60 -68l-282 8q-100 0 -216 -8q-6 -554 16 -778q7 -72 7 -101q0 -72 -45 -134t-87 -62t-73 51q-31 52 -47 68
t-65 46t-94 52l-58 29l14 34q246 -47 248 -47q41 -4 43 35q6 63 2 606q-147 -211 -410 -417t-536 -320l-29 41q272 170 519 410q246 240 368 465q-331 -44 -474 -93q-62 -20 -99 -21t-98 54q-60 55 -75 96t-16 121l37 15q76 -115 150 -115q51 0 661 63q-6 260 -6 299z" />
    <glyph glyph-name="Identity.465" unicode="&#x30ab;" 
d="M1745 1048q0 -30 -31 -56t-37 -58q-70 -494 -213 -764q-38 -78 -106 -127t-129 -49t-78 72q-11 46 -49 80t-50 44l-48 38q-35 28 -54 42l23 39q197 -84 239 -94t63 -6q22 4 42 31q84 106 145 371t62 397q0 25 -25 24q-104 0 -387 -41q-211 -760 -872 -1087l-31 39
q473 340 668 834q33 87 63 188q-221 -39 -291 -57q-69 -18 -107 -36q-38 -20 -69 -20t-85 57t-69 103q-23 49 -10 137l37 8q44 -80 60 -92q39 -29 67 -29q74 0 500 51q47 215 51 320q0 53 -39 71t-127 35v39q108 35 166 34t142 -50t85 -90q-1 -26 -29 -58t-33 -60
q-16 -86 -28 -136q-12 -51 -20 -86l307 39q30 4 62 30t51 25q39 0 111 -61t73 -91z" />
    <glyph glyph-name="Identity.466" unicode="&#x30ac;" 
d="M1993 1380q0 -62 -56 -61q-16 0 -28 10t-37 42q-94 121 -221 214l22 33q166 -48 243 -112t77 -126zM1468 1450l25 33q168 -61 241 -127t72 -127q0 -27 -16 -43t-42 -17t-53 36q-5 7 -21 27t-21 28q-85 112 -185 190zM1507 1186q39 0 112 -62t73 -91t-31 -55t-37 -58
q-70 -494 -213 -764q-39 -78 -107 -127t-128 -49q-62 0 -78 71q-11 48 -62 93q-52 45 -139 112l23 39q196 -84 238 -94t64 -6t42 30q84 105 145 371t61 397q0 25 -24 25q-104 0 -387 -41q-211 -760 -873 -1088l-30 39q482 347 667 835q33 87 64 187q-221 -39 -291 -56
q-70 -16 -108 -36t-68 -20t-85 57q-54 57 -69 102q-23 49 -10 138l37 8q45 -82 60 -93q38 -28 67 -28q74 0 500 51q47 215 51 320q0 53 -39 70t-127 36v39q109 35 167 34t142 -50t84 -90q0 -25 -29 -58t-35 -69t-22 -107q-17 -71 -25 -106l308 38q29 4 61 30t51 26z" />
    <glyph glyph-name="Identity.467" unicode="&#x30ad;" 
d="M812 1571q62 0 136 -32t76 -66q2 -19 -11 -55t-8 -84t31 -173q258 65 340 111q47 24 137 -8q57 -20 58 -58q0 -55 -86 -73q-231 -45 -426 -91q33 -150 71 -329q418 102 480 133l27 12q9 4 18 4q76 4 135 -22t59 -64q0 -59 -75 -67q-252 -25 -619 -111q67 -291 103 -436
t36 -182q0 -72 -69 -72q-37 -2 -71 41t-42 77t-21 130q-13 98 -31 189t-40 220q-285 -77 -370 -109t-130 -57q-46 -25 -78 -25t-90 33q-58 34 -84 68q-20 33 -37 107l33 20q76 -63 126 -63t607 139q-41 201 -71 332q-223 -56 -260 -70t-73 -32t-66 -19q-30 0 -86 35
q-57 34 -79 66t-34 97l30 15q6 -4 20 -18q50 -46 95 -46t426 88q-59 252 -77 285t-49 42t-69 17t-61 13l-4 39q111 49 173 49z" />
    <glyph glyph-name="Identity.468" unicode="&#x30ae;" 
d="M1898 1315q-25 0 -67 61q-73 105 -209 215l23 31q309 -106 309 -250q-4 -57 -56 -57zM772 1565q62 0 136 -32t75 -67q2 -18 -11 -54t-8 -84t31 -173q258 65 340 111q48 24 138 -9q57 -20 57 -57q0 -55 -86 -74q-231 -45 -426 -90q33 -152 72 -329q416 102 479 133l27 12
q9 4 18 4q76 4 135 -22t59 -64q0 -59 -75 -68q-252 -25 -619 -110q66 -290 102 -436t37 -183q0 -72 -69 -71q-37 -2 -71 41t-42 77t-21 130q-12 98 -22 146t-26 133q-15 85 -23 130q-285 -77 -370 -109t-130 -57t-77 -25t-92 32q-58 34 -80 68t-40 107l33 21q76 -64 126 -64
t607 140q-41 201 -71 332q-223 -56 -260 -70t-73 -32t-66 -19q-30 0 -86 35q-56 34 -78 66t-35 97l30 15q7 -4 21 -18q50 -46 94 -46q45 0 426 88q-59 252 -77 285t-49 42t-69 17t-61 13l-4 39q112 49 174 49zM1438 1458l26 33q160 -61 234 -134t71 -130q0 -27 -16 -43
t-36 -15t-28 9q-9 8 -15 13q-5 5 -12 15t-18 24t-22 34q-96 124 -184 194z" />
    <glyph glyph-name="Identity.469" unicode="&#x30af;" 
d="M1048 1241q42 0 184 16q142 15 178 25t69 33t51 22q45 0 125 -54t80 -99q0 -25 -44 -59t-59 -56q-469 -842 -1306 -1171l-31 43q385 201 714 547t455 665q10 35 -20 35t-140 -18t-165 -31q-92 -27 -117 -27t-88 49q-268 -352 -627 -532l-28 41q227 170 420 424
q194 254 194 352q0 53 -123 106l10 35q149 17 274 -53q73 -41 72 -72q0 -29 -24 -59q-24 -31 -45 -65t-64 -95q13 -2 55 -2z" />
    <glyph glyph-name="Identity.470" unicode="&#x30b0;" 
d="M2036 1438q0 -59 -54 -60q-16 0 -30 11t-70 84q-75 90 -188 172l24 32q318 -99 318 -239zM1798 1237q-12 0 -22 7t-18 13t-17 20q-9 15 -21 29t-16 21q-88 115 -188 189l24 32q170 -57 246 -131q70 -63 70 -121t-58 -59zM1505 1311q45 -1 125 -55t80 -99q0 -25 -44 -59
t-58 -56q-469 -842 -1307 -1171l-31 43q385 201 714 548t456 664q10 35 -21 35t-141 -18t-164 -31q-92 -27 -117 -27t-88 50q-268 -352 -626 -533l-29 41q227 170 421 424t193 352q0 54 -123 107l11 35q150 18 273 -54q73 -41 73 -71t-24 -61t-46 -65q-21 -34 -63 -93
q51 -8 215 11q166 18 202 28t68 32t51 23z" />
    <glyph glyph-name="Identity.471" unicode="&#x30b1;" 
d="M977 1419q0 -27 -31 -55t-41 -45q-80 -141 -143 -229q41 -10 72 -11q166 0 665 82q49 9 90 27t81 18t103 -32q62 -33 62 -71t-17 -53t-67 -16q-223 0 -295 -4t-278 -29q68 -29 110 -65t43 -62q1 -24 -25 -56t-34 -50q-223 -557 -799 -846l-33 37q283 186 480 473t196 453
q0 57 -59 100q-14 -2 -74 -10t-106 -17q-46 -10 -62 -10q-39 0 -110 64q-193 -248 -476 -428l-32 37q219 186 387 445t168 374q-1 55 -93 135l19 31q156 -20 254 -116q45 -44 45 -71z" />
    <glyph glyph-name="Identity.472" unicode="&#x30b2;" 
d="M1960 1427q0 -27 -15 -42t-40 -15t-40 18t-33 42q-17 23 -28 34q-84 96 -178 170l21 33q157 -47 235 -111t78 -129zM936 1398q0 -26 -31 -55t-41 -45q-80 -141 -143 -229q41 -10 72 -10q166 0 665 82q49 8 90 26t58 19q64 0 126 -33t62 -71t-17 -53t-67 -15
q-223 0 -295 -4t-278 -29q69 -29 111 -66t42 -61t-26 -56t-33 -50q-223 -557 -799 -846l-33 37q283 186 480 473t196 452q0 57 -59 101l-105 -15q-18 -2 -66 -12t-79 -10t-102 63q-193 -248 -476 -428l-32 37q219 186 387 446t168 373q-1 55 -93 135l19 31q156 -20 254 -116
q45 -45 45 -71zM1757 1300q0 -59 -57 -59q-25 0 -50 32q-24 32 -44 58q-80 109 -176 189l24 32q150 -57 226 -125t77 -127z" />
    <glyph glyph-name="Identity.473" unicode="&#x30b3;" 
d="M592 1151q46 0 352 30q305 30 381 39q76 8 113 34t55 26q49 0 135 -62t86 -106q0 -26 -33 -64t-39 -64t-112 -558q59 -12 96 -45t37 -70q0 -53 -84 -53q-21 0 -125 10t-194 11q-260 0 -529 -58q-51 -11 -106 -31t-90 -20t-96 50q-60 50 -83 97q-31 74 -30 127l34 19
q36 -41 54 -57t55 -36t89 -22q52 -1 389 33t429 43q80 514 90 661q2 23 -22 23q-68 0 -346 -34t-342 -47q-66 -13 -115 -36t-72 -22q-43 0 -101 57t-73 104q-18 43 -18 117l37 15q8 -8 41 -48t62 -52q29 -11 75 -11z" />
    <glyph glyph-name="Identity.474" unicode="&#x30b4;" 
d="M1995 1392q0 -62 -53 -63q-28 -1 -42 19q-111 150 -249 247l24 33q162 -49 241 -111q79 -63 79 -125zM1489 1481q170 -61 243 -127q72 -66 72 -126q0 -59 -57 -61q-13 1 -23 9t-16 13t-19 21q-12 16 -22 30q-10 13 -14 20q-85 108 -187 188zM529 1100q57 0 362 30t381 38
q76 10 112 36t56 25q49 -1 135 -63t86 -105q0 -25 -33 -64t-39 -65t-112 -557q59 -12 96 -45t37 -70q0 -53 -84 -53q-20 0 -124 10t-196 10q-260 0 -528 -57q-50 -10 -106 -30t-90 -21q-34 0 -96 50q-60 50 -83 97q-31 74 -31 127l35 19q37 -42 54 -58t55 -36t91 -21
q54 -1 389 33t427 43q80 514 90 661q2 23 -22 23q-67 0 -345 -34t-344 -47t-114 -36q-49 -23 -72 -22q-43 0 -101 57t-73 104q-18 43 -18 117l36 14q8 -8 30 -33t52 -51t87 -26z" />
    <glyph glyph-name="Identity.475" unicode="&#x30b5;" 
d="M1828 1075q68 -33 68 -87t-54 -54q-24 0 -122 11t-166 11t-161 -4q-5 -168 -13 -263t-41 -218t-92 -205q-168 -238 -555 -366l-24 43q317 160 452 374q119 188 123 627q-172 -12 -418 -37l2 -397q0 -115 -71 -115q-41 -1 -70 53t-29 90q1 36 17 134t18 219
q-186 -25 -270 -57q-84 -31 -116 -31t-83 52t-70 94t-16 122l35 10q29 -41 42 -58t39 -37q25 -20 61 -19q36 0 378 34q0 247 -11 291t-43 59t-106 29v37q70 33 127 33t131 -41t74 -86q0 -18 -15 -47t-19 -75t-5 -185l418 41q4 287 -8 381q-4 33 -38 47t-110 24l-2 41
q88 35 149 35q60 0 136 -48t76 -89q0 -18 -20 -48t-26 -107q-5 -77 -5 -222q96 9 159 19l87 14q24 4 40 4q78 0 147 -33z" />
    <glyph glyph-name="Identity.476" unicode="&#x30b6;" 
d="M1647 1653l26 33q158 -59 228 -126t67 -124q0 -53 -55 -54q-20 0 -35 18q-16 18 -33 39q-102 140 -198 214zM1864 979q0 -57 -54 -57q-24 0 -122 11t-166 11t-162 -4q-6 -168 -13 -263t-40 -218t-93 -205q-168 -238 -555 -367l-24 43q317 160 452 375q119 188 123 627
q-172 -12 -417 -37l2 -397q0 -115 -72 -115q-41 0 -70 53t-29 89t17 134q16 98 18 220q-186 -25 -270 -57q-83 -31 -115 -31t-84 52q-51 52 -70 94t-16 122l35 10q29 -41 42 -58t39 -37t62 -20t377 35q0 246 -11 290t-43 59t-105 30v37q70 33 127 33t131 -41t73 -86
q0 -18 -15 -47t-19 -75t-4 -185l417 40q4 287 -8 381q-4 33 -38 47t-109 25l-2 41q89 35 149 35t136 -48t75 -89q0 -18 -20 -48q-19 -30 -25 -102t-6 -227q148 12 209 25q62 12 78 12q79 0 147 -33t68 -84zM1483 1499l26 33q154 -66 228 -148q61 -63 61 -118q-2 -25 -17 -40
t-36 -14q-35 1 -74 62q-95 148 -188 225z" />
    <glyph glyph-name="Identity.477" unicode="&#x30b7;" 
d="M518 864q-117 98 -233 162l18 43q328 -67 438 -166q61 -55 62 -123q-1 -32 -19 -54t-53 -22t-63 20q-28 19 -70 65q-43 46 -80 75zM556 195q83 0 314 133t512 363t451 458l43 -29q-162 -297 -462 -569t-656 -473q-8 -6 -51 -46t-87 -40t-125 52t-119 110t-44 155l30 19
q111 -133 194 -133zM1061 1184q0 -33 -22 -57q-23 -23 -53 -23t-56 22t-73 69q-146 152 -302 235l20 45q158 -35 267 -76q219 -94 219 -215z" />
    <glyph glyph-name="Identity.478" unicode="&#x30b8;" 
d="M778 748q0 -31 -18 -54q-18 -22 -53 -22t-63 19t-70 65t-80 75q-117 98 -234 162l19 43q499 -102 499 -288zM531 162q83 0 315 133t512 363q281 230 450 458l43 -29q-161 -297 -461 -569t-657 -473q-8 -6 -51 -46t-87 -40t-125 52q-81 51 -119 109t-44 156l31 19
q110 -133 193 -133zM1036 1151q0 -33 -22 -57t-52 -23q-30 0 -57 22q-27 21 -73 69q-146 152 -302 235l21 45q158 -35 266 -76q219 -94 219 -215zM1853 1339q-21 1 -34 15l-22 22q-7 8 -22 26q-100 123 -210 210l24 33q156 -49 238 -117q81 -68 81 -128q0 -61 -55 -61z
M1700 1237q0 -27 -18 -44t-34 -17q-26 0 -44 18l-17 17q-6 7 -20 25q-114 150 -209 228l26 33q172 -67 244 -137t72 -123z" />
    <glyph glyph-name="Identity.479" unicode="&#x30b9;" 
d="M649 1264q64 0 283 36t319 62q21 6 55 32t52 25q51 -1 134 -67t83 -100t-45 -66t-53 -45q-184 -291 -332 -455q272 -111 465 -259t192 -282q0 -37 -22 -63t-56 -27q-33 0 -59 18t-55 55q-28 36 -50 64t-86 104q-178 216 -378 339q-414 -432 -910 -612l-28 47
q360 186 688 516t467 641q8 20 1 27t-26 3q-195 -29 -514 -118q-30 -8 -66 -34t-74 -26q-38 -1 -93 53t-77 105t-24 131l41 16q12 -12 21 -26q8 -14 18 -28t16 -18q6 -5 18 -17q31 -31 95 -31z" />
    <glyph glyph-name="Identity.480" unicode="&#x30ba;" 
d="M1944 1446q0 -57 -54 -57q-37 0 -100 94q-82 94 -186 170l24 33q316 -98 316 -240zM630 1219q48 1 267 37t320 61q20 6 54 32t52 25q51 0 134 -66t83 -101t-45 -67t-53 -44q-184 -291 -332 -455q272 -111 465 -259t192 -282q-1 -38 -23 -64t-55 -26q-57 0 -114 73l-50 63
q-123 157 -230 261q-107 105 -234 183q-414 -432 -909 -613l-29 48q360 186 688 516t467 641q8 20 1 27t-26 3q-195 -29 -514 -118q-31 -8 -67 -34t-73 -26q-38 0 -93 53q-54 53 -76 105t-24 131l40 16q13 -12 27 -37q15 -25 25 -33q10 -7 19 -17t17 -14q8 -5 19 -10
q10 -5 20 -7q9 -2 57 -2zM1743 1257q-16 -16 -39 -16q-29 0 -57 37l-21 28q-14 19 -20 27q-74 105 -185 187l25 34q168 -61 246 -133q68 -59 67 -121q0 -27 -16 -43z" />
    <glyph glyph-name="Identity.481" unicode="&#x30bb;" 
d="M1616 248q34 0 84 -23t51 -65q0 -57 -96 -76q-177 -39 -353 -39t-242 5q-164 13 -223 77q-59 65 -61 221q-2 63 4 467q-182 -66 -278 -106q-29 -14 -69 -42t-80 -28q-39 0 -109 53q-70 54 -89 94t-16 127l31 11q72 -100 140 -100t472 120q8 360 2 449q-2 35 -40 51
t-126 33l-2 36q94 35 162 35t148 -47t80 -86q0 -27 -24 -69t-31 -92q-7 -52 -21 -267q82 23 278 78t242 69q45 14 79 36q34 24 50 24q51 0 136 -69t85 -111q0 -20 -17 -34t-49 -32t-48 -35q-219 -210 -420 -335l-33 32q205 219 301 398q10 18 4 28t-29 6q-111 -16 -585 -178
q-14 -242 -15 -477q2 -129 44 -159t237 -30q194 0 342 38q50 12 84 12z" />
    <glyph glyph-name="Identity.482" unicode="&#x30bc;" 
d="M1968 1398q0 -62 -53 -63q-17 1 -29 11t-37 42q-93 119 -221 214l21 32q158 -47 245 -114q74 -60 74 -122zM1782 1250q0 -60 -56 -60q-27 0 -54 36q-5 7 -20 26t-22 28q-84 108 -186 188l24 35q162 -57 238 -125t76 -128zM748 1524q68 0 147 -47q80 -47 80 -80t-24 -75
q-25 -42 -31 -94t-21 -265q82 23 279 77t242 68q44 14 78 38t50 23q51 -1 136 -69t85 -111q0 -21 -17 -35t-49 -31t-48 -34q-219 -211 -420 -336l-33 33q205 219 301 397q10 19 4 29t-28 6q-111 -16 -586 -178q-14 -242 -14 -478q2 -128 44 -158t239 -30t340 37q50 12 84 12
q34 -1 84 -23t50 -65q0 -57 -96 -76q-178 -39 -354 -39t-240 6q-166 14 -225 77q-58 64 -60 221q-2 63 5 467q-182 -65 -245 -93t-101 -55t-80 -28q-41 -1 -111 53t-89 93q-19 40 -15 128l30 10q73 -100 141 -100t472 121q8 360 2 448q-2 36 -40 52t-126 32l-2 37
q94 35 162 35z" />
    <glyph glyph-name="Identity.483" unicode="&#x30bd;" 
d="M625 962q-113 209 -287 375l29 39q186 -76 326 -198t143 -240q2 -45 -24 -75q-26 -29 -62 -29t-60 26q-25 26 -65 102zM1749 1274q0 -24 -40 -60t-54 -71q-180 -414 -480 -727t-722 -484l-31 43q217 123 412 296q194 173 328 353q279 375 339 660q12 45 -15 75
q-28 30 -128 62l12 43q100 14 158 8t140 -78q82 -71 81 -120z" />
    <glyph glyph-name="Identity.484" unicode="&#x30be;" 
d="M682 780q-36 0 -60 26t-65 102q-118 220 -287 376l31 39q185 -76 325 -199t142 -241q2 -43 -24 -73t-62 -30zM1663 1169q0 -25 -40 -61t-54 -70q-358 -827 -1184 -1161l-29 43q426 242 713 602t346 658q6 27 3 47q-7 45 -144 90l12 43q96 14 144 6q70 -8 152 -78t81 -119
zM2001 1487q0 -57 -53 -57q-23 0 -39 18t-34 40q-94 121 -216 206l24 32q318 -97 318 -239zM1757 1286q-25 0 -53 37l-21 28q-99 134 -208 216l24 35q168 -63 246 -136q67 -60 67 -120t-55 -60z" />
    <glyph glyph-name="Identity.485" unicode="&#x30bf;" 
d="M1032 1276q63 0 214 18t187 28q37 10 69 33q32 24 52 23q43 0 120 -58t77 -101q0 -23 -44 -56t-56 -55q-141 -258 -308 -465q213 -158 220 -272q0 -41 -22 -66q-23 -25 -57 -25t-59 20q-25 19 -83 94t-105 128q-383 -412 -940 -624l-27 43q487 244 863 686
q-172 156 -424 274q-203 -201 -422 -315l-31 41q225 173 440 453t215 378q0 47 -123 105l11 34q150 18 271 -53q71 -41 71 -70q-1 -29 -25 -59q-24 -31 -42 -61t-50 -78h8zM1031 1149q-26 0 -73 37q-106 -139 -208 -246q283 -100 467 -211q184 238 270 465q6 20 1 28t-24 5
q-119 -4 -315 -51q-92 -27 -118 -27z" />
    <glyph glyph-name="Identity.486" unicode="&#x30c0;" 
d="M1706 1690q317 -96 315 -232q4 -55 -51 -59q-24 0 -39 18q-42 48 -63 74q-89 96 -187 168zM1505 1534l23 31q158 -53 234 -121t76 -124q1 -56 -54 -60q-23 0 -41 21q-47 54 -55 67q-95 116 -183 186zM985 1235q63 0 214 18q151 17 187 27t68 34t53 23q43 0 120 -58
t77 -101q0 -23 -44 -56t-56 -55q-141 -258 -308 -465q213 -158 220 -272q0 -41 -22 -66q-22 -24 -56 -24t-60 19q-25 19 -83 94t-105 128q-383 -412 -940 -624l-27 43q487 244 862 686q-172 156 -423 274q-203 -201 -422 -315l-31 41q225 172 440 452t215 379q0 47 -123 105
l11 34q150 18 271 -53q71 -41 71 -69t-24 -59t-42 -61t-51 -79h8zM983 1108q-25 0 -72 37q-106 -139 -209 -246q283 -100 467 -211q185 238 271 465q6 19 1 27t-24 6q-119 -4 -315 -51q-94 -27 -119 -27z" />
    <glyph glyph-name="Identity.487" unicode="&#x30c1;" 
d="M1505 1397q0 -29 -71 -41q-36 -6 -132 -44t-231 -71q51 -27 89 -59t38 -52q0 -18 -14 -61t-15 -96v-55q298 30 366 44q69 15 87 19t33 4q77 0 145 -33t68 -80q0 -63 -66 -63q-10 0 -89 9t-199 9t-351 -20q-27 -328 -199 -556t-509 -366l-29 37q285 174 416 377t155 494
q-340 -39 -471 -78q-10 -1 -67 -21t-92 -20t-89 52t-74 96t-22 116l33 10q43 -55 74 -81t67 -25q119 0 648 57v92q-2 84 -17 132q-14 48 -57 85q-238 -47 -549 -73l-10 51q256 49 528 135t346 137q31 18 22 46q-10 28 -65 73l25 27q113 -24 195 -88t83 -119z" />
    <glyph glyph-name="Identity.488" unicode="&#x30c2;" 
d="M1929 1182q-16 0 -28 9t-34 38q-79 105 -214 205l22 32q309 -98 307 -227q0 -57 -53 -57zM1468 1391q0 -19 -18 -27t-53 -14t-131 -44t-232 -71q51 -27 89 -59t38 -52q0 -18 -14 -61t-14 -96v-56q292 29 363 45q71 15 89 19t33 4q76 0 144 -33t69 -80q0 -63 -66 -63
q-10 0 -89 9q-78 9 -198 9t-352 -20q-26 -328 -198 -556t-510 -366l-29 37q285 174 416 377t156 493q-378 -42 -539 -98q-57 -20 -92 -20t-89 52q-53 52 -73 96t-23 116l33 10q43 -55 74 -81t67 -25q119 0 648 57v92q-2 84 -17 132q-14 48 -57 85q-238 -47 -549 -74l-10 52
q256 49 528 135t346 137q31 18 22 46q-10 28 -65 73l25 26q113 -23 188 -79q90 -72 90 -127zM1485 1300l24 33q152 -51 228 -117t75 -126q0 -25 -16 -40t-37 -16q-31 -1 -76 58q-103 133 -198 208z" />
    <glyph glyph-name="Identity.489" unicode="&#x30c3;" 
d="M745 616q0 -38 -19 -60t-54 -22t-54 21q-18 21 -40 83t-39 93q-45 102 -111 180l25 23q70 -29 147 -94q145 -111 145 -224zM1419 913q0 47 -106 95l8 28q86 6 102 4q61 -8 127 -65t66 -103q0 -20 -28 -54t-36 -50q-130 -281 -376 -515t-598 -357l-23 34q188 96 357 242
q290 251 445 552q62 122 62 189zM1094 735q0 -37 -24 -59t-56 -21t-49 21q-16 20 -36 80q-56 169 -141 266l23 20q96 -45 158 -96q125 -96 125 -211z" />
    <glyph glyph-name="Identity.490" unicode="&#x30c4;" 
d="M564 772q-56 0 -89 68q-12 27 -35 84q-82 204 -188 325l35 31q92 -45 190 -139q162 -137 166 -277q1 -40 -21 -66t-58 -26zM1552 1257q0 57 -151 113l12 41q69 10 143 -1t151 -80t77 -122q0 -28 -39 -62t-53 -63q-169 -354 -441 -641q-306 -325 -780 -510l-31 45
q203 105 389 261t314 307q127 152 223 300q96 149 141 255t45 157zM1104 1020q0 -45 -25 -70q-25 -24 -63 -24t-57 26t-44 100t-45 119q-63 125 -143 222l35 26q104 -55 201 -141q141 -119 141 -258z" />
    <glyph glyph-name="Identity.491" unicode="&#x30c5;" 
d="M1479 1190q0 57 -152 113l12 40q68 10 143 -1q74 -12 150 -80t76 -121q0 -29 -38 -63t-52 -62q-383 -801 -1212 -1120l-29 43q252 131 472 329t350 379t205 329t75 214zM373 880q-73 193 -199 353l33 31q94 -47 192 -140q166 -137 166 -278q3 -41 -19 -68
q-22 -26 -63 -26t-61 26t-49 102zM857 1016q-68 200 -189 340l34 30q104 -59 203 -147q143 -125 144 -258q0 -47 -26 -72q-27 -25 -63 -25t-57 29q-20 29 -46 103zM1948 1432q-25 0 -40 17t-33 40q-85 115 -216 207l22 33q166 -49 243 -113t77 -124t-53 -60zM1755 1288
q-23 0 -41 22t-23 29q-5 5 -15 19q-82 117 -201 211l22 33q170 -61 243 -128q72 -66 72 -126t-57 -60z" />
    <glyph glyph-name="Identity.492" unicode="&#x30c6;" 
d="M1874 998q0 -68 -52 -68q-24 0 -102 8t-202 8t-363 -22q109 -63 109 -111q0 -23 -32 -57t-46 -70q-39 -104 -82 -188t-123 -199q-163 -234 -510 -416l-39 41q168 111 295 255q127 143 189 273q124 259 122 377q0 43 -28 80q-268 -37 -345 -57t-136 -40t-98 -22
q-38 -1 -95 49q-56 50 -72 90t-16 118l33 12q29 -35 44 -52q43 -49 98 -50q54 -1 470 50t541 63q125 11 168 25q43 13 53 13q79 0 149 -35t70 -75zM791 1421q152 0 374 52q63 15 115 37t68 22q78 0 127 -26t49 -68q0 -49 -88 -66q-410 -84 -639 -84q-79 0 -131 43t-109 139
l27 25q106 -74 207 -74z" />
    <glyph glyph-name="Identity.493" unicode="&#x30c7;" 
d="M2030 1419q0 -27 -14 -43t-39 -15q-24 1 -40 20q-16 18 -80 100q-65 82 -153 145l25 33q147 -53 224 -111t77 -129zM1546 1462l29 31q157 -59 227 -127t68 -125q0 -25 -16 -41q-45 -43 -91 22q-23 34 -39 54q-94 120 -178 186zM339 944q26 -16 70 -16t460 51t534 62
t166 24q49 14 59 14q78 0 149 -35q71 -34 71 -74t-15 -54q-13 -14 -37 -15q-24 0 -102 8q-203 21 -566 -14q109 -63 109 -111q0 -24 -32 -58t-46 -69q-39 -104 -82 -188t-123 -199q-164 -236 -510 -415l-38 41q168 111 294 255t190 273q122 254 122 377q0 43 -29 80
q-269 -37 -345 -57t-138 -42q-62 -20 -98 -21q-35 -1 -93 49q-57 50 -73 97q-15 33 -15 111l33 12q29 -35 44 -52q15 -18 41 -34zM1497 1409q0 -49 -88 -66q-410 -84 -639 -83q-78 0 -130 43t-110 139l27 24q106 -74 207 -73q152 0 375 51q63 14 114 37t68 22q78 1 127 -25
t49 -69z" />
    <glyph glyph-name="Identity.494" unicode="&#x30c8;" 
d="M791 1571q71 0 157 -49t86 -88q0 -23 -22 -58t-30 -105q-9 -70 -13 -313q324 -59 508 -174q125 -78 125 -172q0 -36 -22 -62t-60 -26t-65 23q-28 23 -75 76t-96 94q-129 94 -315 170q-6 -468 0 -664t6 -230q0 -79 -76 -79q-55 0 -88 63t-33 142q0 25 12 77q11 52 21 148
t10 528q0 430 -14 531q-6 47 -42 65t-118 29l-2 39q117 35 146 35z" />
    <glyph glyph-name="Identity.495" unicode="&#x30c9;" 
d="M1774 1318q0 -64 -54 -65q-26 0 -56 38q-8 9 -22 27t-24 30q-98 107 -186 170l24 30q162 -45 242 -112q76 -54 76 -118zM1538 1069q-28 0 -75 64q-96 133 -208 217l27 32q315 -114 313 -254q0 -59 -57 -59zM768 1565q70 0 157 -49t87 -89q0 -23 -22 -57t-30 -106
q-8 -70 -14 -312q324 -59 508 -174q125 -78 125 -172q1 -36 -21 -62t-60 -26t-66 23t-74 75q-47 52 -96 95q-129 94 -316 170q-6 -468 0 -664t6 -230q0 -81 -75 -79q-55 0 -89 63q-33 63 -32 142q0 25 11 77t21 148q10 98 10 528t-14 531q-6 47 -42 65t-117 29l-2 39
q117 35 145 35z" />
    <glyph glyph-name="Identity.496" unicode="&#x30ca;" 
d="M1233 1442q-1 -20 -21 -52t-23 -80q-11 -176 -11 -282q360 40 477 69q12 3 22 3q59 0 137 -36t78 -79q0 -68 -75 -67q-2 0 -187 7t-456 -14q-25 -381 -196 -627t-534 -390l-28 40q293 174 434 404t164 559q-250 -29 -443 -70q-27 -5 -75 -27t-83 -23q-36 -1 -101 57
t-83 98q-18 41 -22 119l33 12q27 -37 45 -57t49 -38t61 -20q90 0 625 64q4 293 -10 393q-8 54 -166 72l-4 36q104 55 168 55t145 -43q80 -44 80 -83z" />
    <glyph glyph-name="Identity.497" unicode="&#x30cb;" 
d="M1642 524q72 0 168 -56t97 -110q0 -68 -72 -67q-4 0 -165 30q-162 29 -326 29t-428 -27t-434 -89q-60 -22 -97 -22t-99 58q-62 56 -84 98t-28 124l39 14q88 -102 170 -103q41 0 471 42q430 41 562 49t175 19t51 11zM1569 1153q0 -68 -76 -74q-778 -86 -809 -86t-76 33
t-76 76q-35 55 -53 127l33 18q119 -109 203 -108q182 0 448 53q70 14 122 38t69 23q72 1 144 -29t71 -71z" />
    <glyph glyph-name="Identity.498" unicode="&#x30cc;" 
d="M1673 1239q0 -27 -48 -71t-64 -74q-123 -229 -277 -430q104 -62 204 -146q205 -172 206 -303q0 -37 -23 -59t-57 -23q-34 1 -58 21q-25 20 -79 90q-106 135 -299 291q-336 -373 -934 -590l-25 49q526 258 844 631q-213 156 -436 262l26 47q281 -82 498 -195
q201 274 268 496q4 16 1 21q-3 4 -49 4t-266 -38q-221 -38 -273 -52t-99 -36t-85 -22t-100 51t-81 101q-21 66 -21 125l41 16q72 -113 147 -116t330 31t369 54q27 4 62 28t53 23q51 -1 138 -69t87 -117z" />
    <glyph glyph-name="Identity.499" unicode="&#x30cd;" 
d="M1819 358q0 -36 -23 -58q-22 -22 -54 -22t-54 17q-22 16 -52 59q-163 232 -372 334l20 35q229 -39 382 -137t153 -228zM591 938q-36 0 -92 46t-76 92t-20 141l35 10q4 -5 16 -21t18 -22q5 -6 16 -20q38 -46 101 -46q65 0 293 39t343 64q37 11 67 33t43 22q43 0 119 -54
t76 -85t-52 -59t-61 -38q-139 -178 -317 -333q47 -43 47 -78q0 -14 -5 -133t-5 -312l8 -196q0 -106 -82 -107q-43 -1 -70 55t-27 90t3 50q2 16 7 44t16 108q12 80 12 218t-5 175q-391 -313 -827 -467l-27 47q330 166 654 423t442 463q10 19 8 25q-8 25 -520 -111
q-31 -7 -67 -35t-71 -28zM1235 1411q0 -35 -25 -61t-50 -27q-26 0 -38 4q-34 11 -73 70q-80 114 -281 243l23 33q184 -29 314 -95t130 -167z" />
    <glyph glyph-name="Identity.500" unicode="&#x30ce;" 
d="M1329 1287q0 44 -30 73t-107 65l8 41q100 4 170 -16t140 -83t71 -101q0 -38 -38 -72t-54 -70q-403 -809 -1170 -1179l-32 47q358 240 621 562t384 603q37 86 37 130z" />
    <glyph glyph-name="Identity.501" unicode="&#x30cf;" 
d="M1907 457q6 -59 -22 -99q-29 -40 -71 -42q-42 -1 -63 29q-20 30 -47 108q-162 420 -508 696l29 39q157 -80 307 -198t256 -263t119 -270zM760 1004q0 61 -137 133l12 37q88 6 131 -5q74 -12 146 -91t73 -134q0 -29 -38 -64t-52 -51q-141 -176 -345 -342t-415 -266l-29 41
q217 150 436 393q218 245 218 349z" />
    <glyph glyph-name="Identity.502" unicode="&#x30d0;" 
d="M1866 395q6 -59 -22 -99t-70 -41t-64 29q-20 30 -47 107q-162 420 -508 696l29 39q158 -80 308 -198t256 -262q106 -146 118 -271zM719 942q0 61 -137 133l12 37q88 6 131 -4q75 -12 147 -91t72 -134q0 -29 -38 -64t-52 -51q-141 -176 -345 -342t-415 -266l-28 41
q217 149 435 393t218 348zM1841 1196q-25 0 -39 18t-32 40q-18 24 -27 34q-88 100 -191 172l25 33q174 -53 242 -113q75 -60 75 -122t-53 -62zM1659 1030q-23 0 -51 37q-6 9 -20 27q-94 129 -210 215l25 34q174 -63 246 -133q67 -60 67 -120t-57 -60z" />
    <glyph glyph-name="Identity.503" unicode="&#x30d1;" 
d="M1866 395q6 -59 -22 -99t-70 -41t-64 29q-20 30 -47 107q-162 420 -508 696l29 39q158 -80 308 -198t256 -262q106 -146 118 -271zM719 942q0 61 -137 133l12 37q88 6 131 -4q75 -12 147 -91t72 -134q0 -29 -38 -64t-52 -51q-141 -176 -345 -342t-415 -266l-28 41
q217 149 435 393t218 348zM1663 1425q-66 0 -111 -45q-45 -44 -45 -110t45 -111t111 -45t111 45t45 111t-45 110t-111 45zM1663 1042q-94 0 -161 67t-66 161q0 94 66 161q67 67 161 67t161 -68q66 -66 66 -160t-66 -161t-161 -67z" />
    <glyph glyph-name="Identity.504" unicode="&#x30d2;" 
d="M1581 1133q37 -51 37 -82t-20 -42t-31 -17q-12 -6 -39 -19q-27 -12 -43 -21q-375 -180 -778 -295q-7 -177 -7 -297t48 -154t235 -34q186 0 358 33l172 35q178 0 179 -82q0 -63 -76 -88q-172 -53 -610 -54q-150 0 -234 14t-133 58t-63 108t-16 164q-1 100 7 484
q8 383 0 495q-6 37 -41 55t-118 33l-2 33q131 39 159 37q70 -2 146 -54t75 -93q0 -20 -22 -54t-30 -100q-9 -67 -25 -453q203 76 383 168t276 170q25 23 31 38q15 36 -49 118l26 25q127 -21 205 -129z" />
    <glyph glyph-name="Identity.505" unicode="&#x30d3;" 
d="M1878 1307q-25 0 -40 19t-33 42q-89 121 -208 211l25 33q315 -103 309 -248q0 -57 -53 -57zM1417 1427l27 33q166 -63 238 -134t71 -126q-2 -29 -19 -46q-47 -47 -101 34q-10 17 -34 47q-90 120 -182 192zM635 335q0 -120 48 -154t234 -34t359 33l172 35q178 0 178 -82
q0 -63 -76 -88q-172 -53 -610 -53q-150 0 -234 13t-133 58t-63 109t-15 164t7 483t0 496q-6 37 -41 55t-119 33l-2 33q131 39 160 37q70 -3 146 -55t75 -93q0 -20 -22 -53q-23 -32 -31 -100t-25 -453q203 76 383 168t277 170q25 23 30 38q14 36 -49 117l27 25
q127 -21 200 -122t17 -134q-18 -10 -55 -28q-38 -17 -54 -25q-375 -180 -778 -295q-6 -178 -6 -298z" />
    <glyph glyph-name="Identity.506" unicode="&#x30d4;" 
d="M1713 1159q-91 0 -155 65q-64 66 -65 156q1 90 65 156t155 66t156 -66t65 -157t-66 -155q-64 -64 -155 -65zM1713 1231q62 0 106 43q43 43 43 105q0 63 -43 107t-105 44t-107 -44q-44 -44 -44 -106t44 -106q44 -43 106 -43zM635 335q0 -120 48 -154t234 -34t359 33
l172 35q178 0 178 -82q0 -63 -76 -88q-172 -53 -610 -53q-150 0 -234 13t-133 58t-63 109t-15 164t7 483t0 496q-6 37 -41 55t-119 33l-2 33q131 39 160 37q70 -3 146 -55t75 -93q0 -20 -22 -53q-23 -32 -31 -100t-25 -453q203 76 383 168t277 170q25 23 30 38
q14 36 -49 117l27 25q127 -21 200 -122t17 -134q-18 -10 -55 -28q-38 -17 -54 -25q-375 -180 -778 -295q-6 -178 -6 -298z" />
    <glyph glyph-name="Identity.507" unicode="&#x30d5;" 
d="M1765 1227q0 -29 -45 -77t-57 -77q-174 -395 -468 -675t-746 -443l-29 45q428 217 710 542t373 683q10 33 -22 32q-76 0 -375 -45q-298 -45 -356 -60t-106 -40t-71 -25q-49 -1 -111 59t-76 106t-21 126l36 15q27 -35 44 -55q52 -58 131 -58t415 36q337 36 391 47t93 33
t59 21q55 1 143 -71t88 -119z" />
    <glyph glyph-name="Identity.508" unicode="&#x30d6;" 
d="M1415 1202q-74 0 -372 -46q-297 -46 -357 -60t-108 -36t-70 -22q-50 0 -112 58t-76 105q-14 46 -21 128l37 14q82 -113 167 -113t421 36q336 35 391 46t86 30t51 20q53 0 146 -77t94 -124q0 -27 -40 -67t-55 -72q-174 -395 -468 -675t-746 -443l-29 45q428 217 711 541
t373 681q10 31 -23 31zM1985 1384q-17 0 -29 10t-37 40q-109 135 -223 215l22 30q154 -43 237 -107t83 -126t-53 -62zM1802 1237q-14 0 -31 14q-16 14 -27 29t-38 49q-88 115 -186 189l24 32q162 -58 238 -126t76 -128t-56 -59z" />
    <glyph glyph-name="Identity.509" unicode="&#x30d7;" 
d="M1415 1202q-74 0 -372 -46q-297 -46 -357 -60t-108 -36t-70 -22q-50 0 -112 58t-76 105q-14 46 -21 128l37 14q82 -113 167 -113t421 36q336 35 391 46t86 30t51 20q53 0 146 -77t94 -124q0 -27 -40 -67t-55 -72q-174 -395 -468 -675t-746 -443l-29 45q428 217 711 541
t373 681q10 31 -23 31zM1807 1630q-60 0 -103 -43t-43 -103t43 -104t103 -43q60 0 104 43q43 44 43 104t-43 103q-44 43 -104 43zM2028 1484q0 -90 -65 -154t-156 -64t-154 63t-63 155t62 156q64 64 155 64t156 -65t65 -155z" />
    <glyph glyph-name="Identity.510" unicode="&#x30d8;" 
d="M263 723q45 0 97 49q92 86 209 215t138 150q77 80 153 80t162 -84q526 -518 811 -711q92 -61 92 -162q0 -78 -72 -78q-84 0 -309 226q-70 68 -303 314t-295 308q-59 53 -92 53t-76 -49q-63 -80 -291 -383q-61 -82 -86 -97t-63 -15q-38 1 -92 33q-55 32 -90 77
q-31 35 -45 117l28 27q80 -70 124 -70z" />
    <glyph glyph-name="Identity.511" unicode="&#x30d9;" 
d="M853 1163q77 0 163 -84q526 -518 811 -710q92 -61 92 -162q0 -78 -72 -78q-84 0 -309 225q-70 68 -303 315t-295 308q-59 53 -92 53t-76 -49q-63 -80 -291 -383q-61 -82 -86 -97t-63 -15t-92 32q-55 33 -90 78q-31 35 -46 117l29 26q80 -69 124 -69t96 49q101 95 214 220
q113 124 133 144q76 80 153 80zM1845 1184q0 -24 -15 -40q-16 -16 -32 -16q-49 0 -112 95q-92 117 -220 198l25 33q162 -43 264 -123q90 -78 90 -147zM1583 948q-23 0 -44 22t-28 31q-120 160 -235 250l24 33q168 -55 263 -143q83 -73 79 -133t-59 -60z" />
    <glyph glyph-name="Identity.512" unicode="&#x30da;" 
d="M853 1163q77 0 163 -84q526 -518 811 -710q92 -61 92 -162q0 -78 -72 -78q-84 0 -309 225q-70 68 -303 315t-295 308q-59 53 -92 53t-76 -49q-63 -80 -291 -383q-61 -82 -86 -97t-63 -15t-92 32q-55 33 -90 78q-31 35 -46 117l29 26q80 -69 124 -69t96 49q101 95 214 220
q113 124 133 144q76 80 153 80zM1692 1182q0 68 -48 114t-116 47q-68 0 -115 -47q-47 -48 -47 -116t47 -115t116 -47t116 48t47 116zM1529 946q-97 0 -167 69t-70 166t70 167t167 70t166 -70t69 -167t-70 -166q-68 -69 -165 -69z" />
    <glyph glyph-name="Identity.513" unicode="&#x30db;" 
d="M1768 221q-47 0 -90 71q-5 9 -18 35q-117 235 -302 375l24 35q178 -59 312 -168t155 -235q6 -49 -14 -81t-67 -32zM1090 13q-40 -60 -92 -60q-53 0 -68 27l-21 35q-52 96 -194 178l18 40q158 -47 200 -54t44 26q8 98 8 596l-2 164q-221 -25 -403 -64q-39 -8 -84 -32
q-45 -23 -77 -23t-82 42t-77 93q-12 25 -22 123l34 14q27 -35 43 -53q42 -47 88 -47q86 0 578 57q-4 240 -13 287q-9 46 -43 64t-118 32l-2 41q92 31 166 31q67 -4 137 -45t70 -80q0 -18 -22 -47t-26 -69t-8 -197q292 38 372 61t105 25q63 0 129 -35t66 -78q0 -63 -76 -64
l-225 9q-119 0 -373 -31q-2 -66 -2 -180l12 -652q0 -74 -40 -134zM336 174q-37 0 -61 24t-23 63t31 66q10 9 41 31q204 141 280 357l49 -10q-8 -117 -52 -239t-117 -207t-148 -85z" />
    <glyph glyph-name="Identity.514" unicode="&#x30dc;" 
d="M1616 1653q311 -90 317 -230q0 -53 -53 -57q-27 0 -54 35l-21 24q-92 113 -214 197zM1346 674l24 35q178 -59 312 -168t155 -236q6 -49 -14 -81t-69 -32t-88 71q-5 9 -18 35q-118 237 -302 376zM406 817q-32 0 -81 42t-69 80t-31 136l35 15q27 -36 43 -54q39 -45 88 -47
q86 0 578 58q-3 241 -13 287t-44 64t-117 32l-2 40q92 31 165 31q68 -4 138 -45t69 -80q1 -18 -21 -47t-26 -69t-8 -197q276 36 369 61t108 25q63 0 129 -35t66 -78q0 -63 -76 -63l-225 8q-119 0 -373 -31q-2 -66 -2 -180l12 -651q0 -74 -40 -134q-40 -61 -93 -61t-67 27
q-6 10 -21 36q-51 96 -195 177l19 41q158 -47 200 -54t44 25q8 98 8 596l-2 164q-221 -25 -404 -64q-39 -8 -84 -32t-77 -23zM324 145q-37 0 -61 24t-23 62t20 57q20 19 51 41t49 36q164 128 232 321l49 -10q-8 -117 -52 -239t-117 -207t-148 -85zM1743 1280q1 -25 -15 -40
t-40 -15q-24 1 -46 25q-23 24 -49 61q-94 116 -190 186l27 33q160 -52 236 -122t77 -128z" />
    <glyph glyph-name="Identity.515" unicode="&#x30dd;" 
d="M1346 674l24 35q178 -59 312 -168t155 -236q6 -49 -14 -81t-69 -32t-88 71q-5 9 -18 35q-118 237 -302 376zM406 817q-32 0 -81 42t-69 80t-31 136l35 15q27 -36 43 -54q39 -45 88 -47q86 0 578 58q-3 241 -13 287t-44 64t-117 32l-2 40q92 31 165 31q68 -4 138 -45
t69 -80q1 -18 -21 -47t-26 -69t-8 -197q276 36 369 61t108 25q63 0 129 -35t66 -78q0 -63 -76 -63l-225 8q-119 0 -373 -31q-2 -66 -2 -180l12 -651q0 -74 -40 -134q-40 -61 -93 -61t-67 27q-6 10 -21 36q-51 96 -195 177l19 41q158 -47 200 -54t44 25q8 98 8 596l-2 164
q-221 -25 -404 -64q-39 -8 -84 -32t-77 -23zM324 145q-37 0 -61 24t-23 62t20 57q20 19 51 41t49 36q164 128 232 321l49 -10q-8 -117 -52 -239t-117 -207t-148 -85zM1665 1231q-92 -1 -158 65t-65 158q0 92 65 158q66 66 158 66t158 -66q65 -66 65 -158t-65 -158
q-66 -65 -158 -65zM1665 1604q-63 0 -107 -43t-44 -107t44 -107q44 -44 107 -44t107 44q43 44 43 107t-43 107q-44 43 -107 43z" />
    <glyph glyph-name="Identity.516" unicode="&#x30de;" 
d="M350 1118q225 0 1159 113q23 3 57 25t54 22q55 0 148 -79t94 -130q0 -29 -22 -40t-62 -24t-68 -36q-307 -281 -577 -469q190 -174 190 -330q0 -41 -25 -66q-26 -24 -62 -24t-60 40l-84 140q-59 100 -150 201q-121 147 -311 284l26 37q223 -82 406 -225q158 131 298 279
t200 247q27 39 -21 39q-164 -10 -523 -60t-495 -81q-22 -4 -68 -31t-71 -26q-47 0 -110 53t-87 107t-26 135l37 16q59 -79 91 -98q31 -19 62 -19z" />
    <glyph glyph-name="Identity.517" unicode="&#x30df;" 
d="M1479 42q0 -81 -86 -81q-32 1 -55 15q-22 14 -38 25t-26 18l-30 21q-172 128 -340 200q-168 71 -410 143l12 45q252 -18 488 -83t360 -143q125 -78 125 -160zM1300 721q0 -33 -20 -55t-52 -21q-32 0 -132 64q-234 139 -521 233l11 43q356 -14 579 -115q135 -59 135 -149z
M1446 1196q0 -38 -20 -62t-57 -24q-38 0 -58 16q-21 16 -45 33q-126 96 -272 161q-146 64 -353 122l8 43q434 -31 641 -127q156 -74 156 -162z" />
    <glyph glyph-name="Identity.518" unicode="&#x30e0;" 
d="M1778 147q0 -51 -28 -81t-60 -31q-32 0 -50 11t-37 63q-18 51 -35 104t-36 98q-160 -37 -528 -105t-416 -78q-49 -11 -93 -41t-63 -30q-47 -1 -106 61q-58 62 -68 110t-4 89l27 15q71 -56 111 -56t120 7q123 225 274 571q152 346 152 414t-104 141l12 33q88 -4 131 -21
q70 -21 133 -79t64 -99q0 -20 -35 -54t-47 -56q-260 -520 -451 -838q557 59 850 108q-94 185 -268 353l32 35q205 -109 364 -292t159 -352z" />
    <glyph glyph-name="Identity.519" unicode="&#x30e1;" 
d="M1593 1315q-1 -20 -35 -51t-51 -62q-195 -319 -270 -428q133 -98 234 -212t104 -193q0 -45 -24 -72q-23 -27 -63 -27t-74 40t-109 137q-76 97 -175 190q-178 -213 -418 -390t-517 -282l-27 39q492 283 848 731q-213 178 -479 334l26 45q274 -92 545 -254q102 150 178 300
t76 194q0 46 -30 74t-93 67l12 37q129 -8 184 -35t107 -82t51 -100z" />
    </font>
</defs>
</svg>
