<?xml version="1.0" standalone="no"?>
<!DOCTYPE svg PUBLIC "-//W3C//DTD SVG 1.1//EN" "http://www.w3.org/Graphics/SVG/1.1/DTD/svg11.dtd" >
<svg xmlns="http://www.w3.org/2000/svg">
<metadata>
Created by FontPrep 20130207 at Tue Jun 20 15:27:53 2017
 By quqjp
</metadata>
<defs>
<font id="873d06c8fa560ce2565f41da9c635ff0" horiz-adv-x='1024' >
  <font-face 
    font-family="SourceHanSerifSemiBold"
    font-weight="600"
    font-stretch="normal"
    units-per-em="2048"
    panose-1="2 0 7 3 0 0 0 0 0 0"
    ascent="1638"
    descent="-410"
    x-height="1077"
    cap-height="1509"
    bbox="-199 -565 2312 2010"
    underline-thickness="102"
    underline-position="-205"
    unicode-range="U+0020-FFE5"
  />
<missing-glyph 
 />
    <glyph glyph-name=".notdef" 
 />
    <glyph glyph-name=".null" horiz-adv-x="0" 
 />
    <glyph glyph-name="nonmarkingreturn" horiz-adv-x="681" 
 />
    <glyph glyph-name="Identity.1" unicode=" " horiz-adv-x="520" 
 />
    <glyph glyph-name="Identity.2" unicode="!" horiz-adv-x="675" 
d="M477 1375q0 -91 -69 -568l-37 -324h-66l-37 324q-70 477 -70 569q1 168 140 168t139 -169zM340 -29q-63 0 -109 44q-45 43 -45 105t45 108t107 46t108 -46t46 -107t-44 -105t-108 -45z" />
    <glyph glyph-name="Identity.3" unicode="#" horiz-adv-x="1210" 
d="M1161 891h-260l-47 -305h231v-180h-260l-61 -406h-88l61 406h-368l-62 -406h-88l62 406h-230v180h258l47 305h-231v182h260l59 393h88l-59 -393h367l59 393h90l-59 -393h231v-182zM766 586l45 305h-367l-47 -305h369z" />
    <glyph glyph-name="Identity.4" unicode="$" horiz-adv-x="1155" 
d="M1061 376q0 -161 -115 -272t-309 -131v-233h-84v229q-190 2 -308 89t-130 235q31 76 106 76q98 0 125 -133l31 -156q86 -25 176 -25v578l-39 14q-186 70 -280 172q-93 102 -93 266t115 276t301 124v209h86v-209q164 -10 269 -96t118 -224q-25 -80 -100 -80
q-106 0 -135 144l-33 151q-49 14 -119 19v-561q239 -88 329 -195q89 -106 89 -267zM336 1141q0 -102 53 -164t168 -109v525q-101 -16 -161 -83t-60 -169zM864 322q0 102 -51 162t-176 114v-537q103 19 165 89t62 172z" />
    <glyph glyph-name="Identity.5" unicode="%" horiz-adv-x="1957" 
d="M1488 913q136 -1 227 -117t91 -350t-91 -350t-227 -116t-228 116t-93 350q1 233 93 350t228 117zM1333 445q0 -402 154 -402q153 0 153 402t-151 403q-156 -1 -156 -403zM152 1020q0 234 92 350t228 117q136 0 227 -117t91 -350t-90 -350q-92 -117 -228 -117t-228 117
q-92 116 -92 350zM625 1018q0 402 -154 403q-154 0 -154 -402t156 -403q152 0 152 402zM496 -61l-62 47l1051 1523l63 -45z" />
    <glyph glyph-name="Identity.6" unicode="&#x26;" horiz-adv-x="1626" 
d="M1352 -27q-168 0 -273 99q-61 66 -92 100q-174 -203 -448 -203q-211 0 -341 118t-130 292q0 285 350 455l-23 26q-145 170 -145 336t105 256t271 90t259 -80q92 -80 92 -204t-81 -214t-255 -178q66 -75 229 -251q162 -176 213 -232q127 217 179 485l-187 25v74h463v-74
l-170 -27q-72 -301 -238 -534q135 -143 238 -248l164 -18l-4 -70q-98 -23 -176 -23zM625 1462q-85 0 -143 -58t-58 -149q0 -127 98 -249q27 -33 76 -91q217 166 217 336q0 99 -52 155t-138 56zM637 111q172 0 303 114q-37 41 -119 134t-125 141q-119 145 -237 284
q-184 -125 -185 -333q0 -143 96 -241t267 -99z" />
    <glyph glyph-name="Identity.7" unicode="'" horiz-adv-x="434" 
d="M98 1526q0 139 121 139t121 -139q0 -82 -24 -210t-27 -153l-37 -198h-66l-39 198q-49 295 -49 363z" />
    <glyph glyph-name="Identity.8" unicode="(" horiz-adv-x="782" 
d="M369 630q-1 -288 75 -517t271 -500l-45 -39q-248 229 -369 486t-121 569q0 606 490 1054l45 -38q-197 -271 -271 -499t-75 -516z" />
    <glyph glyph-name="Identity.9" unicode=")" horiz-adv-x="782" 
d="M414 628q0 288 -76 517t-270 500l45 38q249 -229 369 -485t120 -569q0 -606 -489 -1055l-45 39q198 271 272 499t74 516z" />
    <glyph glyph-name="Identity.10" unicode="*" horiz-adv-x="993" 
d="M416 1605q0 39 22 61t58 22q34 0 58 -23t24 -50t-39 -249l-21 -117l107 58q61 31 103 54q43 23 79 41t66 17q30 1 52 -23t21 -57q0 -55 -56 -73t-145 -30t-96 -11l-117 -15l86 -86q35 -35 69 -65q120 -104 120 -158q0 -33 -23 -55q-24 -22 -62 -21t-71 51t-100 199
l-53 111l-52 -111q-84 -180 -114 -216t-65 -36t-57 23t-22 48t13 52t45 57q32 31 68 64t61 57l90 84l-121 17q-213 27 -255 48t-42 60t23 62q45 45 143 -6t158 -82l104 -58l-20 117q-39 199 -39 239z" />
    <glyph glyph-name="Identity.11" unicode="+" horiz-adv-x="1210" 
d="M1141 799v-109h-477v-512h-117v512h-477v109h477v497h117v-497h477z" />
    <glyph glyph-name="Identity.12" unicode="," horiz-adv-x="677" 
d="M180 143q0 59 40 101t111 41q71 0 130 -56q27 -82 26 -159q-1 -188 -123 -339t-290 -214l-27 59q127 70 203 152t110 200l-86 58q-94 66 -94 157z" />
    <glyph glyph-name="Identity.13" unicode="-" horiz-adv-x="720" 
d="M90 502v135h541v-135h-541z" />
    <glyph glyph-name="Identity.14" unicode="." horiz-adv-x="677" 
d="M340 -29q-66 0 -113 46t-47 111t47 111t113 46t112 -46t46 -112t-46 -111t-112 -45z" />
    <glyph glyph-name="Identity.15" unicode="/" horiz-adv-x="770" 
d="M16 -362l607 1970h131l-604 -1970h-134z" />
    <glyph glyph-name="Identity.16" unicode="0" horiz-adv-x="1155" 
d="M578 1538q207 0 346 -191t139 -589t-138 -593q-138 -196 -346 -196t-348 196q-139 196 -139 593t139 589q140 191 347 191zM580 1458q-263 0 -263 -704t263 -703q258 -1 258 703t-258 704z" />
    <glyph glyph-name="Identity.17" unicode="1" horiz-adv-x="1155" 
d="M1018 0h-848v66l315 40q4 246 4 369v887l-286 -27v78l483 119l29 -23l-6 -325v-709q0 -119 4 -369l305 -40v-66z" />
    <glyph glyph-name="Identity.18" unicode="2" horiz-adv-x="1155" 
d="M1061 193v-193h-948v147q103 112 342 390q173 195 247 329t74 276t-74 230t-198 88q-53 0 -109 -14l-49 -174q-33 -147 -129 -148q-74 0 -113 74q18 164 150 254t332 90t310 -110t110 -293q0 -141 -100 -277t-382 -409q-35 -31 -127 -124t-135 -136h799z" />
    <glyph glyph-name="Identity.19" unicode="3" horiz-adv-x="1155" 
d="M684 799q375 -69 375 -419q0 -173 -141 -292t-351 -119q-417 0 -467 324q33 76 111 76q51 0 79 -34t48 -118l37 -151q57 -14 119 -15q160 0 248 93t89 256q0 163 -88 256t-256 94h-100v90h84q150 0 237 84t87 233t-72 226t-201 77q-47 0 -102 -12l-39 -152
q-31 -131 -129 -131q-78 0 -107 72q23 149 143 227t308 78t302 -100q116 -100 116 -268q0 -134 -84 -232t-246 -143z" />
    <glyph glyph-name="Identity.20" unicode="4" horiz-adv-x="1155" 
d="M1112 598v-152h-233v-446h-207v446h-609v123l664 957h152v-928h233zM672 598v719l-494 -719h494z" />
    <glyph glyph-name="Identity.21" unicode="5" horiz-adv-x="1155" 
d="M557 930q233 0 369 -124t137 -347q0 -223 -150 -357t-393 -133q-182 0 -294 84t-138 240q27 76 111 76q51 0 80 -33t47 -113l34 -153q63 -18 136 -19q160 1 248 105t90 284q0 180 -94 278t-251 99q-109 0 -217 -35l-59 23l47 704h758v-192h-676l-27 -422q111 35 242 35z
" />
    <glyph glyph-name="Identity.22" unicode="6" horiz-adv-x="1155" 
d="M1069 458q0 -218 -130 -354q-129 -136 -355 -135q-226 0 -361 171t-135 472q0 362 242 622t655 308l12 -57q-610 -141 -673 -703q141 142 331 142t302 -124t112 -342zM315 645q0 -293 74 -443t197 -151q122 0 190 97q68 96 68 284t-68 280t-188 93q-160 0 -271 -100
q-2 -20 -2 -60z" />
    <glyph glyph-name="Identity.23" unicode="7" horiz-adv-x="1155" 
d="M113 1509h929v-120l-532 -1389h-195l-20 20l623 1297h-805v192z" />
    <glyph glyph-name="Identity.24" unicode="8" horiz-adv-x="1155" 
d="M1053 375q0 -182 -134 -294q-133 -112 -351 -112q-218 -1 -342 97t-124 270q0 246 330 391q-287 154 -287 432q0 171 126 277q125 106 313 106t297 -99t108 -253q1 -224 -282 -371q180 -86 263 -191t83 -253zM805 1198q-1 112 -61 186t-161 74t-172 -68t-71 -174
q0 -108 66 -198t237 -170q88 76 125 157t37 193zM577 49q123 0 195 75t72 194q0 120 -77 204t-273 174q-100 -72 -146 -148t-47 -204q0 -127 76 -211t200 -84z" />
    <glyph glyph-name="Identity.25" unicode="9" horiz-adv-x="1155" 
d="M569 1542q221 0 353 -165t131 -449q0 -354 -217 -614t-633 -355l-15 66q279 94 427 262t192 418q-117 -105 -301 -105t-310 123q-124 123 -123 338t138 348t358 133zM591 709q130 0 226 82q6 68 6 137q0 270 -71 401q-72 131 -190 131t-192 -98t-73 -280q0 -182 82 -277
q82 -96 212 -96z" />
    <glyph glyph-name="Identity.26" unicode=":" horiz-adv-x="677" 
d="M340 -29q-66 0 -113 46t-47 111t47 111t113 46t112 -46t46 -112t-46 -111t-112 -45zM340 801q-66 0 -113 46q-47 45 -47 111t47 112t113 46t112 -46t46 -113t-46 -111t-112 -45z" />
    <glyph glyph-name="Identity.27" unicode=";" horiz-adv-x="677" 
d="M180 143q0 59 40 101t111 41q71 0 130 -56q27 -82 26 -159q-1 -188 -123 -339t-290 -214l-27 59q127 70 203 152t110 200l-86 58q-94 66 -94 157zM340 801q-66 0 -113 46q-47 45 -47 111t47 112t113 46t112 -46t46 -113t-46 -111t-112 -45z" />
    <glyph glyph-name="Identity.28" unicode="&#x3c;" horiz-adv-x="1210" 
d="M1075 1200l-829 -455l829 -456l-53 -96l-901 512v79l901 512z" />
    <glyph glyph-name="Identity.29" unicode="=" horiz-adv-x="1210" 
d="M1141 922h-1071v108h1071v-108zM1141 459h-1071v108h1071v-108z" />
    <glyph glyph-name="Identity.30" unicode="&#x3e;" horiz-adv-x="1210" 
d="M188 1296l904 -512v-79l-904 -512l-53 96l830 456l-830 455z" />
    <glyph glyph-name="Identity.31" unicode="?" horiz-adv-x="942" 
d="M164 1423q0 94 115 125q165 -29 335 -151q82 -59 136 -149t53 -193q0 -215 -217 -301l-82 -33q-72 -27 -94 -51t-23 -74l-2 -119h-68l-28 88q-33 119 -33 165t39 84t137 75l121 43q78 33 112 72q33 39 33 103t-47 136l-332 53q-87 14 -121 46t-34 81zM347 274
q61 0 107 -46t46 -107t-45 -105t-109 -45q-64 0 -107 44q-44 43 -44 105t45 108t107 46z" />
    <glyph glyph-name="Identity.32" unicode="@" horiz-adv-x="1918" 
d="M1370 180q137 0 252 154t115 434q-1 280 -185 455q-184 176 -454 176t-478 -128q-206 -128 -319 -339t-113 -455q0 -358 212 -557t534 -199q229 0 401 86l25 -53q-197 -104 -457 -104q-360 0 -591 211q-230 211 -230 598q0 428 291 721t723 293q340 0 540 -203t199 -531
q0 -159 -48 -285t-125 -201q-159 -155 -327 -155q-102 0 -166 50q-63 50 -79 135q-145 -184 -312 -185q-108 0 -178 77t-70 226q0 262 185 484q156 186 340 186q94 0 155 -76l142 76l32 -29l-129 -657q-39 -205 115 -205zM1055 975q-125 0 -219 -135q-129 -180 -129 -398
t155 -219q94 0 217 115l105 565q-49 72 -129 72z" />
    <glyph glyph-name="Identity.33" unicode="A" horiz-adv-x="1505" 
d="M1483 0h-629v74l211 24l-131 398h-508l-127 -396l213 -26v-74h-492v74l181 26l471 1418h151l484 -1424l176 -20v-74zM453 580h454l-231 700z" />
    <glyph glyph-name="Identity.34" unicode="B" horiz-adv-x="1425" 
d="M98 1509h658q246 0 372 -99t127 -263q0 -127 -90 -222t-284 -132q459 -57 457 -390q0 -163 -150 -283t-469 -120h-621v74l203 22q4 203 4 617v100q0 401 -4 600l-203 23v73zM686 1425h-143q-2 -197 -2 -600h110q375 0 375 314q0 147 -83 217t-257 69zM686 86
q199 0 302 83q104 83 104 246t-104 245t-324 81h-123q0 -448 2 -655h143z" />
    <glyph glyph-name="Identity.35" unicode="C" horiz-adv-x="1427" 
d="M879 -37q-342 0 -558 215q-217 216 -217 574t222 576t557 218q227 0 430 -110v-342h-119l-70 313q-98 49 -213 49q-241 0 -393 -184t-152 -520t148 -515q147 -179 393 -180q131 0 236 49l69 310h121l-2 -338q-203 -115 -452 -115z" />
    <glyph glyph-name="Identity.36" unicode="D" horiz-adv-x="1601" 
d="M98 1509h656q344 -1 544 -199t201 -553q0 -355 -215 -556t-571 -201h-615v74l203 22q4 199 4 633v74q0 410 -4 610l-203 23v73zM702 86q260 0 400 175q139 175 139 497t-136 494t-386 173h-174q-2 -203 -2 -622v-72q0 -440 2 -645h157z" />
    <glyph glyph-name="Identity.37" unicode="E" horiz-adv-x="1357" 
d="M98 0v74l203 22q4 199 4 606v105q0 406 -4 606l-203 23v73h1127l6 -395h-109l-67 305h-510q-2 -197 -2 -608h325l31 221h94v-520h-94l-29 215h-327q0 -434 2 -637h553l67 316h109l-6 -406h-1170z" />
    <glyph glyph-name="Identity.38" unicode="F" horiz-adv-x="1310" 
d="M543 811h338l28 221h95v-538h-95l-28 233h-338q0 -428 2 -631l219 -22v-74h-666v74l203 22q4 199 4 606v105q0 406 -4 606l-203 23v73h1131l8 -395h-111l-65 305h-516q-2 -197 -2 -608z" />
    <glyph glyph-name="Identity.39" unicode="G" horiz-adv-x="1538" 
d="M1507 725v-76l-135 -14q-6 -209 -6 -436v-101q-248 -135 -489 -135q-346 0 -560 219q-213 220 -213 572t218 572t563 220q252 0 448 -110v-342h-121l-67 307q-102 55 -234 55q-241 0 -393 -185t-152 -513t149 -514q148 -186 396 -187q115 0 226 37v107q0 217 -7 428
l-231 20v76h608z" />
    <glyph glyph-name="Identity.40" unicode="H" horiz-adv-x="1771" 
d="M1466 807v-105q0 -403 4 -606l205 -22v-74h-647v74l199 22q4 195 4 635h-690q0 -436 4 -635l200 -22v-74h-647v74l203 22q2 199 2 606v105q0 403 -2 606l-203 23v73h647v-73l-200 -23q-4 -195 -4 -598h690q0 399 -4 598l-199 23v73h647v-73l-205 -23q-4 -199 -4 -606z
" />
    <glyph glyph-name="Identity.41" unicode="I" horiz-adv-x="845" 
d="M543 807v-105q0 -406 2 -606l205 -22v-74h-652v74l203 22q4 199 4 606v105q0 406 -4 606l-203 23v73h652v-73l-205 -23q-2 -199 -2 -606z" />
    <glyph glyph-name="Identity.42" unicode="J" horiz-adv-x="854" 
d="M778 1509v-73l-203 -23q-6 -195 -6 -600v-321q0 -354 -45 -506q-38 -166 -160 -260t-283 -94t-202 108q14 119 141 119q80 0 168 -80l60 -55q98 94 98 344q0 65 -7 502t-11 843l-224 23v73h674z" />
    <glyph glyph-name="Identity.43" unicode="K" horiz-adv-x="1527" 
d="M1530 0h-598v74l178 20l-371 688l-204 -250q0 -281 4 -436l198 -22v-74h-639v74l203 22q4 199 4 606v105q0 406 -4 606l-203 23v73h647v-73l-206 -23q-4 -199 -4 -606v-154l604 752l-189 31v73h518v-73l-213 -31l-370 -449l479 -862l166 -20v-74z" />
    <glyph glyph-name="Identity.44" unicode="L" horiz-adv-x="1327" 
d="M305 682v125q0 406 -4 606l-203 23v73h658v-73l-211 -23q-2 -201 -2 -598v-145q0 -377 2 -580h497l80 340h115l-10 -430h-1129l2 74l201 22q4 201 4 586z" />
    <glyph glyph-name="Identity.45" unicode="M" horiz-adv-x="2033" 
d="M387 791v-689l203 -28v-74h-516v74l211 28l4 1307l-209 27v73h446l488 -1208l467 1208h456v-73l-202 -23q-6 -201 -6 -606v-105q0 -406 6 -606l202 -22v-74h-639v74l193 22q4 226 4 588l4 625l-504 -1309h-96l-524 1307q12 -504 12 -516z" />
    <glyph glyph-name="Identity.46" unicode="N" horiz-adv-x="1656" 
d="M1575 1509v-73l-189 -29l-6 -1419h-106l-912 1265l7 -1149l249 -30v-74h-540v74l188 28l8 1276l-28 37l-158 21v73h383l819 -1138l-4 1034l-252 31v73h541z" />
    <glyph glyph-name="Identity.47" unicode="O" horiz-adv-x="1595" 
d="M800 1546q286 0 488 -212t203 -576q0 -364 -204 -580q-205 -216 -491 -215q-286 0 -489 212q-203 211 -203 575t205 580t491 216zM367 754q1 -299 111 -499t321 -200t321 200t111 499q0 415 -190 603q-99 99 -242 99t-243 -99q-190 -189 -189 -603z" />
    <glyph glyph-name="Identity.48" unicode="P" horiz-adv-x="1343" 
d="M651 604h-108q0 -332 2 -508l219 -22v-74h-666v74l203 22q4 199 4 606v105q0 406 -4 606l-203 23v73h604q293 0 440 -117q146 -118 146 -326t-156 -335t-481 -127zM676 1425h-131q-2 -203 -2 -618v-117h123q198 0 292 100t95 273q0 362 -377 362z" />
    <glyph glyph-name="Identity.49" unicode="Q" horiz-adv-x="1595" 
d="M1124 -475q-210 0 -328 127t-122 321q-246 45 -408 250t-162 548t205 559t491 216t488 -212t203 -580q0 -326 -168 -535t-420 -248q-2 -160 82 -252t225 -92q82 0 172 31l23 -59q-115 -74 -281 -74zM367 754q1 -299 111 -499t321 -200t321 200t111 499q0 415 -190 603
q-99 99 -242 99t-243 -99q-190 -189 -189 -603z" />
    <glyph glyph-name="Identity.50" unicode="R" horiz-adv-x="1492" 
d="M1274 -25q-114 0 -169 36q-56 36 -75 124l-86 342q-31 133 -91 181t-198 49h-114q0 -412 2 -611l207 -22v-74h-652v74l203 22q4 199 4 606v105q0 406 -4 606l-203 23v73h656q258 0 399 -103t141 -288q0 -139 -100 -242t-299 -137q129 -23 195 -91t100 -208l96 -350
l178 -16v-74q-76 -25 -190 -25zM541 788h170q170 0 259 92t89 238q0 307 -338 307h-178q-2 -201 -2 -637z" />
    <glyph glyph-name="Identity.51" unicode="S" horiz-adv-x="1179" 
d="M545 -37q-250 0 -445 121l13 326h112l70 -299q101 -51 247 -51t240 72q94 74 94 192t-60 183q-62 65 -210 122l-88 39q-195 82 -294 190t-99 270q0 195 143 307q142 111 362 111t386 -119l-12 -303h-115l-70 287q-73 39 -193 39t-204 -67t-84 -181t62 -182t184 -117
l92 -41q227 -92 321 -197t95 -268q0 -199 -148 -317t-399 -117z" />
    <glyph glyph-name="Identity.52" unicode="T" horiz-adv-x="1382" 
d="M811 807v-105q0 -403 4 -606l225 -22v-74h-698v74l225 22q6 199 6 606v105q0 408 -6 612h-336l-75 -319h-111l16 409h1260l16 -409h-110l-76 319h-336q-4 -201 -4 -612z" />
    <glyph glyph-name="Identity.53" unicode="U" horiz-adv-x="1652" 
d="M1579 1509v-73l-203 -29l-4 -791q-2 -334 -142 -494t-399 -159t-407 149t-148 468v233q0 401 -6 602l-184 21v73h651v-73l-219 -25q-4 -197 -4 -598v-186q0 -275 94 -395t287 -120t289 128q96 127 94 415l-4 750l-236 31v73h541z" />
    <glyph glyph-name="Identity.54" unicode="V" horiz-adv-x="1507" 
d="M1489 1509v-69l-186 -29l-478 -1423h-116l-523 1429l-163 19v73h639v-79l-220 -21l389 -1130l359 1126l-213 25v79h512z" />
    <glyph glyph-name="Identity.55" unicode="W" horiz-adv-x="2191" 
d="M2165 1509v-73l-191 -27l-387 -1421h-119l-378 1186l-361 -1186h-117l-411 1427l-174 21v73h624v-73l-202 -25l286 -1092l338 1090l-215 27v73h615v-73l-228 -27l334 -1094l291 1092l-207 29v73h502z" />
    <glyph glyph-name="Identity.56" unicode="X" horiz-adv-x="1466" 
d="M1440 0h-649v74l202 22l-317 551l-328 -547l189 -26v-74h-500v74l201 28l397 617l-399 696l-191 21v73h653v-73l-204 -23l288 -502l299 496l-194 29v73h506v-73l-205 -29l-365 -567l428 -746l189 -20v-74z" />
    <glyph glyph-name="Identity.57" unicode="Y" horiz-adv-x="1427" 
d="M1065 0h-696v74l227 22q4 145 4 494l-410 829l-155 17v73h641v-73l-215 -25l330 -706l327 702l-209 29v73h504v-73l-190 -29l-387 -789q0 -369 4 -522l225 -22v-74z" />
    <glyph glyph-name="Identity.58" unicode="Z" horiz-adv-x="1255" 
d="M49 0v82l854 1337h-629l-79 -319h-121l20 409h1071v-82l-850 -1337h693l82 328h112l-14 -418h-1139z" />
    <glyph glyph-name="Identity.59" unicode="[" horiz-adv-x="733" 
d="M410 901v-543q0 -410 4 -614l254 -25v-79h-443q8 233 8 718v543q0 479 -8 717h443v-80l-254 -25q-4 -201 -4 -612z" />
    <glyph glyph-name="Identity.60" unicode="\" horiz-adv-x="770" 
d="M754 -362h-133l-605 1970h131z" />
    <glyph glyph-name="Identity.61" unicode="]" horiz-adv-x="733" 
d="M500 901v-543q0 -481 8 -718h-442v79l253 25q4 201 5 614v543q0 410 -5 612l-253 25v80h442q-8 -234 -8 -717z" />
    <glyph glyph-name="Identity.62" unicode="^" horiz-adv-x="1210" 
d="M1020 524l-84 -59l-330 524l-327 -524l-84 59l356 584h111z" />
    <glyph glyph-name="Identity.63" unicode="_" horiz-adv-x="1173" 
d="M90 -150v134h993v-134h-993z" />
    <glyph glyph-name="Identity.64" unicode="`" horiz-adv-x="905" 
d="M600 1303l-45 -35l-270 225q-97 80 -97 129t27 74t61 24q72 0 134 -104q75 -133 190 -313z" />
    <glyph glyph-name="Identity.65" unicode="a" horiz-adv-x="1165" 
d="M944 -27q-86 0 -139 47t-70 132q-98 -100 -170 -142q-73 -42 -187 -41q-114 0 -197 73t-83 197q0 125 84 205t301 154q162 47 246 68v84q0 162 -47 220t-166 58q-61 0 -121 -16l-35 -152q-26 -127 -122 -127t-109 90q27 133 145 209q120 76 308 76t275 -91t87 -300v-504
q0 -135 78 -135q45 0 94 57l35 -37q-68 -125 -207 -125zM476 102q66 0 116 24t137 97v377q-113 -31 -186 -59q-227 -90 -228 -265q0 -88 47 -131q48 -43 114 -43z" />
    <glyph glyph-name="Identity.66" unicode="b" horiz-adv-x="1329" 
d="M796 1108q193 0 315 -151t122 -407t-128 -419q-128 -162 -327 -162t-327 156l-25 -148l-352 23v66l162 24q4 229 4 385v1024l-177 17v63l367 88l29 -16l-6 -322v-383q150 162 343 162zM703 90q131 0 213 109t83 336q0 227 -77 342q-78 115 -209 115t-256 -113v-680
q115 -109 246 -109z" />
    <glyph glyph-name="Identity.67" unicode="c" horiz-adv-x="1120" 
d="M90 538q0 262 160 416t389 154q153 0 265 -82t134 -211q-23 -88 -108 -88q-106 0 -129 127l-37 158q-49 16 -109 16q-151 0 -243 -125t-92 -342t102 -339t268 -122q194 0 307 160l43 -20q-117 -270 -430 -271q-231 0 -376 154q-144 154 -144 415z" />
    <glyph glyph-name="Identity.68" unicode="d" horiz-adv-x="1302" 
d="M550 -31q-198 0 -328 155q-130 156 -130 412t137 414t351 158q176 0 297 -143v534l-185 17v63l373 88l31 -16l-11 -320v-1249l172 -16v-66l-368 -23l-15 146q-126 -154 -324 -154zM626 989q-124 1 -212 -109t-88 -340t85 -340t218 -110t239 109v690q-118 100 -242 100z
" />
    <glyph glyph-name="Identity.69" unicode="e" horiz-adv-x="1155" 
d="M707 100q177 0 303 158l41 -29q-63 -123 -173 -191t-257 -69q-238 0 -383 151q-146 151 -146 412q0 260 157 418t364 158t325 -121t119 -315q-1 -80 -15 -125h-716q4 -221 104 -334t277 -113zM729 627q69 -1 93 31t24 102q0 116 -67 192t-173 76t-186 -101t-92 -300h401z
" />
    <glyph glyph-name="Identity.70" unicode="f" horiz-adv-x="806" 
d="M842 1458q-90 0 -168 94l-53 54q-51 -33 -76 -74q-86 -137 -78 -455h303v-92h-299v-510q0 -129 4 -383l201 -26v-66h-602v66l172 22q6 195 6 387v510h-182v74l184 22q25 322 162 465q137 144 332 144t225 -125q-2 -47 -37 -77t-94 -30z" />
    <glyph glyph-name="Identity.71" unicode="g" horiz-adv-x="1185" 
d="M295 256q0 -109 149 -109h301q377 0 377 -290q0 -164 -152 -279t-409 -115q-256 0 -373 77t-116 202q0 145 215 244q-145 47 -145 170t157 264q-174 96 -174 317q0 171 114 271t306 100t301 -90l256 90l37 -23v-139l-238 12q66 -90 66 -221q0 -170 -115 -271t-307 -101
q-115 0 -195 32q-55 -70 -55 -141zM729 -41h-252q-96 0 -149 10q-82 -89 -82 -195t80 -163t244 -57t267 64q103 65 103 154q0 187 -211 187zM328 735q0 -137 58 -218t158 -81q101 0 161 83q59 83 59 220t-57 217t-159 80t-160 -82q-60 -82 -60 -219z" />
    <glyph glyph-name="Identity.72" unicode="h" horiz-adv-x="1374" 
d="M1309 0h-535v66l158 22q4 229 4 387v234q0 141 -43 199t-135 59q-147 0 -301 -144v-348q0 -158 4 -387l145 -22v-66h-534v66l164 22q4 233 4 387v1024l-177 17v63l367 88l29 -16l-6 -322v-432q186 211 403 211q150 0 224 -96t75 -307v-230q0 -158 4 -387l150 -22v-66z
" />
    <glyph glyph-name="Identity.73" unicode="i" horiz-adv-x="688" 
d="M616 0h-534v66l160 22q4 233 4 387v131q0 156 -6 303l-174 17v63l374 117l29 -21l-4 -305v-305q0 -158 4 -387l147 -22v-66zM500 1500q0 -62 -44 -103t-107 -41q-62 0 -106 41t-44 102t44 101t107 40t107 -39q43 -39 43 -101z" />
    <glyph glyph-name="Identity.74" unicode="j" horiz-adv-x="647" 
d="M455 211q0 -281 -27 -413t-106 -222q-127 -135 -297 -135q-102 0 -159 37q-56 37 -65 88q8 49 47 78t91 28q96 0 167 -84l50 -49q25 23 41 64q45 109 45 612v387q0 166 -6 307l-173 17v63l369 117l29 -21l-6 -305v-569zM346 1356q-63 0 -106 41t-43 102t43 101t106 40
t107 -39q43 -39 43 -101t-44 -103t-106 -41z" />
    <glyph glyph-name="Identity.75" unicode="k" horiz-adv-x="1269" 
d="M1268 0h-340l-336 582l-135 -133q0 -139 4 -361l164 -22v-66h-559v66l170 22q4 242 4 387v1024l-177 17v63l371 88l31 -16l-8 -322v-776l417 420l-186 35v69h522v-69l-209 -27l-256 -250l381 -645l142 -20v-66z" />
    <glyph glyph-name="Identity.76" unicode="l" horiz-adv-x="692" 
d="M631 0h-568v66l173 22q4 254 4 387v1024l-177 17v63l371 88l31 -16l-8 -322v-854q0 -133 4 -387l170 -22v-66z" />
    <glyph glyph-name="Identity.77" unicode="m" horiz-adv-x="2039" 
d="M1976 0h-530v66l153 22q4 229 5 387v230q0 147 -41 204t-136 58q-135 0 -288 -148q6 -53 6 -112v-232q0 -158 4 -387l147 -22v-66h-532v66l160 22q4 229 4 387v227q0 144 -40 204t-134 61q-135 0 -287 -150v-342q0 -158 4 -387l147 -22v-66h-534v66l160 22q6 176 6 387
v131q0 113 -8 301l-172 17v61l346 121l30 -21l17 -184q182 207 393 207t268 -211q174 211 400 211q299 0 299 -393v-240q0 -158 4 -387l149 -22v-66z" />
    <glyph glyph-name="Identity.78" unicode="n" horiz-adv-x="1376" 
d="M1313 0h-535v66l160 22q4 229 4 387v234q0 141 -43 199t-135 59q-137 0 -297 -146v-346q0 -158 4 -387l147 -22v-66h-534v66l160 22q6 176 6 387v131q0 113 -8 301l-172 17v61l346 121l30 -21l17 -184q184 207 399 207q297 0 297 -401v-232q0 -158 4 -387l150 -22v-66z
" />
    <glyph glyph-name="Identity.79" unicode="o" horiz-adv-x="1249" 
d="M624 51q140 0 217 124t77 363q0 238 -77 364t-217 126t-216 -125t-76 -365t76 -364q76 -123 216 -123zM92 538q0 266 156 418t376 152t376 -153t155 -417q1 -264 -153 -417q-154 -152 -378 -152t-378 152t-154 417z" />
    <glyph glyph-name="Identity.80" unicode="p" horiz-adv-x="1335" 
d="M803 1108q192 0 315 -152t123 -412t-133 -417q-132 -158 -326 -158t-317 148v-164q0 -123 4 -397l195 -27v-66h-584v66l166 25q6 203 6 397v653q0 178 -8 303l-172 17v61l346 121l28 -21l15 -141q150 164 342 164zM712 90q132 0 214 108t82 335t-77 343t-205 116
t-255 -113v-693q109 -96 241 -96z" />
    <glyph glyph-name="Identity.81" unicode="q" horiz-adv-x="1273" 
d="M1264 -537h-580v66l193 27q4 258 4 385v194q-133 -166 -333 -166t-328 153q-128 152 -128 408t138 417t350 161q182 0 307 -158l184 154l29 -19l-6 -307v-837q0 -129 4 -387l166 -25v-66zM326 534q0 -230 84 -336q84 -108 218 -108t246 113v678q-118 109 -246 109
t-215 -114q-87 -112 -87 -342z" />
    <glyph glyph-name="Identity.82" unicode="r" horiz-adv-x="976" 
d="M795 1108q137 0 172 -102q-4 -156 -131 -156q-74 0 -150 80l-27 26q-131 -100 -192 -309v-172q0 -152 4 -381l191 -28v-66h-576v66l158 22q6 176 6 387v131q0 113 -8 301l-172 17v61l346 121l30 -21l21 -280q49 141 139 222t189 81z" />
    <glyph glyph-name="Identity.83" unicode="s" horiz-adv-x="993" 
d="M476 -31q-198 0 -370 90v252h113l51 -221q86 -35 198 -35t178 47t65 124q0 77 -48 123t-163 85l-109 37q-279 100 -278 309q0 141 109 235q110 93 291 93t335 -92l-8 -234h-103l-51 203q-82 41 -173 41t-148 -45t-57 -119t45 -116q46 -42 163 -82l88 -33
q162 -53 234 -133t71 -195q0 -147 -117 -241q-118 -93 -316 -93z" />
    <glyph glyph-name="Identity.84" unicode="t" horiz-adv-x="759" 
d="M211 985h-186v74l198 22l70 314h147l-10 -318h289v-92h-291v-739q0 -166 133 -166q66 0 150 63l41 -45q-90 -129 -275 -129q-268 0 -268 277l2 198v541z" />
    <glyph glyph-name="Identity.85" unicode="u" horiz-adv-x="1343" 
d="M514 -31q-309 0 -303 412l6 580l-158 30v64l359 41l20 -23l-8 -321v-371q0 -141 45 -201t137 -59q152 0 291 139l4 701l-155 30v62l354 43l22 -23l-6 -321v-668l148 -18v-66l-346 -20l-17 206q-174 -217 -393 -217z" />
    <glyph glyph-name="Identity.86" unicode="v" horiz-adv-x="1150" 
d="M1137 1077v-69l-136 -27l-374 -993h-103l-405 1001l-127 19v69h555v-69l-182 -23l278 -754l260 750l-176 27v69h410z" />
    <glyph glyph-name="Identity.87" unicode="w" horiz-adv-x="1744" 
d="M1729 1077v-69l-130 -25l-339 -995h-93q-223 596 -293 821l-299 -821h-94l-364 1001l-123 19v69h530v-69l-174 -21l242 -743l258 741l-166 23v69h496v-69l-170 -25l266 -733l221 731l-182 27v69h414z" />
    <glyph glyph-name="Identity.88" unicode="x" horiz-adv-x="1198" 
d="M1174 0h-562v66l168 20l-241 358l-256 -354l168 -24v-66h-433v66l148 22l328 424l-322 477l-135 19v69h528v-69l-145 -21l233 -342l244 338l-158 25v69h408v-69l-133 -23l-318 -405l338 -496l140 -18v-66z" />
    <glyph glyph-name="Identity.89" unicode="y" horiz-adv-x="1165" 
d="M1167 1077v-65l-127 -21l-397 -1048q-184 -502 -444 -502q-82 0 -143 41q-60 41 -62 104q10 49 53 76t96 27q84 0 168 -95l23 -22q127 100 219 338l4 12l-434 1073l-125 17v65h553v-67l-184 -19l292 -803l277 801l-199 23v65h430z" />
    <glyph glyph-name="Identity.90" unicode="z" horiz-adv-x="1036" 
d="M68 0v68l641 929h-457l-72 -260l-100 11l18 329h854v-67l-635 -930h486l80 282h100l-20 -362h-895z" />
    <glyph glyph-name="Identity.91" unicode="{" horiz-adv-x="774" 
d="M428 1342q0 -92 31 -239q31 -146 30 -194q0 -236 -243 -280q244 -41 243 -281q-1 -47 -31 -193q-30 -147 -30 -239t49 -136t166 -56l64 -7v-77h-89q-176 0 -272 72t-96 208q0 98 52 251t52 208q0 178 -264 211v78q264 33 264 213q0 55 -52 208t-52 248q0 137 95 209
t273 72h89v-76l-64 -8q-117 -12 -166 -56t-49 -136z" />
    <glyph glyph-name="Identity.92" unicode="|" horiz-adv-x="577" 
d="M223 -565v2263h129v-2263h-129z" />
    <glyph glyph-name="Identity.93" unicode="}" horiz-adv-x="774" 
d="M418 379q0 -55 53 -208t53 -251q0 -137 -96 -209t-272 -71h-88v77l63 7q117 12 166 56t49 136t-31 238t-30 194q0 240 243 281q-244 45 -243 280q1 47 31 193t30 239t-49 137t-166 56l-63 8v76h88q178 0 273 -72t95 -209q0 -97 -53 -249t-53 -207q0 -180 266 -213v-78
q-266 -33 -266 -211z" />
    <glyph glyph-name="Identity.94" unicode="~" horiz-adv-x="1210" 
d="M848 721q131 0 158 223l96 -14q-8 -156 -78 -235t-190 -79q-72 0 -130 29t-135 94q-109 100 -200 101q-137 0 -160 -222l-98 13q9 155 79 235t191 80q72 0 130 -30t132 -95q111 -100 205 -100z" />
    <glyph glyph-name="Identity.95" unicode="&#xa1;" horiz-adv-x="675" 
d="M199 -296q0 92 69 568l37 324h66l37 -324q70 -477 70 -568q-1 -169 -140 -169q-139 -1 -139 169zM338 1108q63 0 108 -44q46 -44 46 -105t-46 -107t-108 -47q-63 0 -108 46q-44 45 -44 107t44 106q45 44 108 44z" />
    <glyph glyph-name="Identity.96" unicode="&#xa2;" horiz-adv-x="1155" 
d="M682 -104h-86v237q-219 10 -360 167q-142 157 -142 404q0 248 144 404t358 174v209h86v-207q150 -8 252 -90t125 -205q-18 -86 -109 -86q-96 0 -131 146l-33 135q-55 18 -104 18v-934h8q205 0 326 158l45 -23q-106 -244 -379 -268v-239zM315 737q0 -189 75 -307t206 -151
v915q-127 -31 -204 -150t-77 -307z" />
    <glyph glyph-name="Identity.97" unicode="&#xa3;" horiz-adv-x="1155" 
d="M1069 193v-193h-981v137q248 141 248 418q0 37 -8 90h-224v100h193q-8 25 -30 74t-44 104t-22 158q0 182 124 294t301 112q178 0 290 -89t131 -233q-25 -76 -103 -75q-51 0 -83 32t-50 111l-41 160q-55 10 -92 10q-121 0 -191 -80t-69 -229q0 -101 22 -209
q22 -107 29 -140h379v-100h-369v-67q-6 -250 -203 -385h793z" />
    <glyph glyph-name="Identity.98" unicode="&#xa4;" horiz-adv-x="1159" 
d="M1098 309q0 -35 -25 -59t-59 -25q-34 0 -65 33q-30 33 -72 111l-54 92q-100 -88 -243 -88t-248 88l-49 -90q-43 -78 -73 -112t-65 -34t-59 25q-24 24 -23 60q0 36 32 65t112 74l86 49q-90 104 -90 245t90 246l-86 49q-78 45 -111 75t-33 65q0 34 24 58q25 24 59 24
t64 -33t73 -109l51 -90q104 86 248 86t243 -88l52 92q41 76 71 109q31 33 66 33q34 0 58 -24t24 -58t-33 -65q-33 -30 -111 -75l-88 -49q88 -101 88 -245t-88 -244l88 -51q80 -45 113 -75t33 -65zM580 467q114 0 190 78q76 79 76 199t-77 198t-189 78t-192 -78
q-79 -78 -79 -198t79 -198t192 -79z" />
    <glyph glyph-name="Identity.99" unicode="&#xa5;" horiz-adv-x="1155" 
d="M1040 711v-103h-354v-141h354v-102h-354q0 -59 4 -277l223 -18v-70h-671v70l225 18q4 213 4 277h-348v102h348v141h-348v103h311l-311 661l-141 14v70h563v-70l-178 -18l274 -637l277 633l-183 22v70h439v-70l-162 -22l-291 -653h319z" />
    <glyph glyph-name="Identity.100" unicode="&#xa6;" horiz-adv-x="577" 
d="M354 725h-131v973h131v-973zM223 -565v1018h131v-1018h-131z" />
    <glyph glyph-name="Identity.101" unicode="&#xa7;" 
d="M1042 1495q-94 0 -155 -52q-61 -51 -61 -147t56 -154q58 -58 214 -118q229 -84 319 -177t90 -248t-170 -269q95 -88 95 -233t-115 -241t-303 -98q-188 0 -298 76q-108 76 -128 217q20 82 96 82q92 0 137 -131l55 -154q53 -16 111 -16q121 0 189 56t68 150t-66 148
q-66 53 -260 124t-283 165q-88 94 -88 238q0 81 47 159t131 132q-88 94 -88 235t111 237q112 95 300 95t298 -75t131 -212q-6 -42 -34 -64t-63 -22q-94 0 -137 129l-53 152q-52 16 -146 16zM1360 538q0 96 -69 158t-252 126q-183 66 -275 145q-72 -75 -72 -177t70 -168
t254 -128q184 -64 274 -129q70 77 70 173z" />
    <glyph glyph-name="Identity.102" unicode="&#xa8;" horiz-adv-x="905" 
d="M210 1354q-56 0 -94 36t-38 92t39 93t94 37t94 -37t39 -93t-39 -92t-95 -36zM827 1482q0 -56 -38 -92t-93 -36t-95 36t-40 92t40 93t94 37t93 -37t39 -93z" />
    <glyph glyph-name="Identity.103" unicode="&#xa9;" horiz-adv-x="1703" 
d="M853 1546q333 0 558 -215t225 -573t-225 -576t-557 -219q-332 0 -559 218q-227 217 -227 575t226 574t559 216zM168 756q0 -322 196 -518t489 -195q293 0 489 197t196 517t-196 515q-196 194 -490 194t-488 -194q-196 -194 -196 -516zM440 758q0 209 130 339t321 130
q141 0 258 -66l8 -225h-86l-41 199q-53 20 -110 20q-132 0 -218 -105q-86 -106 -86 -290t82 -288t220 -103q61 0 122 20l39 193h88l-6 -222q-121 -66 -272 -65q-197 0 -323 127t-126 336z" />
    <glyph glyph-name="Identity.104" unicode="&#xaa;" horiz-adv-x="790" 
d="M624 942q-112 0 -135 115q-69 -65 -115 -93t-123 -28t-133 50t-56 133t56 136t206 101q27 8 159 43v57q0 102 -29 139q-30 37 -110 37q-37 0 -72 -8l-22 -90q-18 -104 -88 -104t-80 65q18 90 101 142q83 53 211 53t188 -62t59 -203v-333q0 -74 47 -74q27 0 64 39l26 -23
q-42 -92 -154 -92zM334 1032q51 0 149 72v248q-111 -33 -118 -37q-147 -53 -148 -170q0 -55 33 -84t84 -29z" />
    <glyph glyph-name="Identity.105" unicode="&#xab;" horiz-adv-x="1138" 
d="M1061 989l-350 -418l350 -417l-43 -48l-496 408v115l496 407zM600 989l-352 -418l352 -417l-43 -48l-496 408v115l496 407z" />
    <glyph glyph-name="Identity.106" unicode="&#xac;" horiz-adv-x="1210" 
d="M63 889h1055v-524h-114v415h-941v109z" />
    <glyph glyph-name="Identity.107" unicode="&#xae;" horiz-adv-x="1046" 
d="M522 1614q188 0 322 -123t133 -326q0 -203 -132 -327q-133 -124 -323 -125q-190 0 -322 125q-132 126 -132 328t133 325t321 123zM522 776q160 0 271 109t111 281t-111 278t-271 106t-270 -106t-111 -278q1 -172 111 -282q110 -108 270 -108zM694 940q-82 0 -92 57
l-20 95q-8 63 -72 63h-33v-170l62 -6v-31h-220v31l62 6v377l-62 8v31h211q80 0 124 -31t44 -84q0 -92 -127 -117q99 -14 117 -90l21 -94l53 -6v-31q-39 -8 -68 -8zM477 1366v-180h33q90 0 90 94q0 86 -92 86h-31z" />
    <glyph glyph-name="Identity.108" unicode="&#xaf;" horiz-adv-x="905" 
d="M143 1360v139h619v-139h-619z" />
    <glyph glyph-name="Identity.109" unicode="&#xb0;" horiz-adv-x="733" 
d="M367 967q-119 0 -203 79q-84 80 -84 208t84 210t203 82t201 -82t83 -211q-1 -129 -83 -207t-201 -79zM367 1042q84 0 140 60t56 152t-56 154t-140 62q-85 0 -141 -61t-56 -155t56 -152q56 -60 141 -60z" />
    <glyph glyph-name="Identity.110" unicode="&#xb1;" 
d="M256 18v95h1536v-95h-1536zM1071 897v-623h-94v623h-721v94h721v623h94v-623h721v-94h-721z" />
    <glyph glyph-name="Identity.111" unicode="&#xb2;" horiz-adv-x="827" 
d="M733 1092v-136h-616v101l221 215q195 197 194 352q0 88 -45 135t-127 47q-29 0 -61 -6l-23 -96q-29 -100 -88 -100q-53 0 -82 49q12 103 100 161t222 58q133 0 204 -67q70 -67 70 -161t-63 -174t-236 -239l-155 -139h485z" />
    <glyph glyph-name="Identity.112" unicode="&#xb3;" horiz-adv-x="827" 
d="M203 1630q-49 0 -72 45q12 97 91 147t202 50t199 -60q75 -60 75 -149q0 -91 -52 -151t-144 -82q233 -37 233 -232q0 -122 -95 -190t-239 -68q-270 0 -301 201q16 51 74 51q72 0 88 -94l19 -90q33 -8 71 -9q102 -1 156 53t55 148q0 188 -211 189h-63v75h55q92 0 141 45
t49 127t-44 126t-121 44q-13 0 -58 -4l-18 -86q-16 -86 -90 -86z" />
    <glyph glyph-name="Identity.113" unicode="&#xb4;" horiz-adv-x="905" 
d="M633 1720q35 0 61 -24t27 -66q0 -66 -94 -137q-57 -47 -273 -225l-45 35q172 279 193 313q63 104 131 104z" />
    <glyph glyph-name="Identity.114" unicode="&#xb5;" horiz-adv-x="1300" 
d="M1077 -31q-172 0 -188 275q-104 -274 -291 -275q-70 0 -136 43t-110 117l58 -516l-211 -45l-21 16l47 641l-37 832l215 47l19 -19q-33 -711 -35 -776q84 -162 231 -162q86 -1 151 47t116 166l-17 697l213 47l21 -19q-45 -676 -43 -789t25 -150q24 -36 72 -36t97 23
l19 -45q-68 -119 -195 -119z" />
    <glyph glyph-name="Identity.115" unicode="&#xb6;" 
d="M1454 817v-375q0 -481 6 -718h-237q6 236 6 718v1010h-148v-1135q-295 2 -493 159t-197 454q0 296 210 450t564 154h494v-78l-201 -18q-4 -205 -4 -621z" />
    <glyph glyph-name="Identity.116" unicode="&#xb7;" horiz-adv-x="677" 
d="M340 590q-66 0 -113 46t-47 112t47 112t113 45q66 0 112 -46q46 -45 46 -111t-46 -112t-112 -46z" />
    <glyph glyph-name="Identity.117" unicode="&#xb8;" horiz-adv-x="905" 
d="M641 -318q0 -76 -67 -129t-169 -53t-172 25l17 59q49 -10 115 -10q129 0 129 111q0 55 -39 84t-125 38l30 199h68l-18 -143q106 -9 168 -57t63 -124z" />
    <glyph glyph-name="Identity.118" unicode="&#xb9;" horiz-adv-x="827" 
d="M705 956h-562v56l201 28v705l-168 -14v63l316 72l20 -15v-811l193 -28v-56z" />
    <glyph glyph-name="Identity.119" unicode="&#xba;" horiz-adv-x="845" 
d="M424 1690q148 0 252 -102q106 -102 106 -274t-103 -276t-255 -104t-257 104t-105 274t106 274q108 104 256 104zM426 1626q-201 0 -201 -314t201 -315q195 0 195 316q1 157 -51 235t-144 78z" />
    <glyph glyph-name="Identity.120" unicode="&#xbb;" horiz-adv-x="1138" 
d="M582 1036l495 -407v-115l-495 -408l-43 48l350 417l-350 418zM616 629v-115l-495 -408l-43 48l350 417l-350 418l43 47z" />
    <glyph glyph-name="Identity.121" unicode="&#xbc;" horiz-adv-x="1957" 
d="M1765 350v-110h-145v-240h-150v240h-385v88l424 577h111v-555h145zM1470 350v420l-292 -420h292zM1528 1509l63 -45l-1052 -1525l-62 47zM707 573h-562v54l201 30v703l-168 -14v63l316 72l20 -15v-809l193 -30v-54z" />
    <glyph glyph-name="Identity.122" unicode="&#xbd;" horiz-adv-x="1957" 
d="M1802 133v-133h-616v100l219 215q195 197 194 353q0 86 -45 133t-127 47q-27 0 -59 -6l-25 -94q-27 -100 -88 -101q-51 0 -81 47q12 104 100 162t221 57t204 -67t71 -160t-66 -176q-64 -82 -234 -236l-153 -141h485zM1460 1509l64 -45l-1053 -1525l-61 47zM686 573h-561
v54l201 30v703l-168 -14v63l315 72l21 -15v-809l192 -30v-54z" />
    <glyph glyph-name="Identity.123" unicode="&#xbe;" horiz-adv-x="1957" 
d="M1788 350v-110h-146v-240h-149v240h-385v88l424 577h110v-555h146zM1493 350v420l-293 -420h293zM1544 1505l64 -45l-1053 -1526l-61 48zM285 1245q-49 0 -72 45q12 96 91 146t202 51q123 -1 199 -61q75 -60 75 -149t-52 -149t-144 -84q233 -37 233 -231q0 -123 -95 -191
t-241 -67q-270 0 -301 201q18 51 76 51q70 0 88 -94l18 -88q33 -8 72 -9q100 0 156 52t55 147q0 190 -211 191h-63v73h55q90 0 140 45t50 127t-44 126t-121 44q-15 0 -60 -4l-18 -86q-14 -86 -88 -86z" />
    <glyph glyph-name="Identity.124" unicode="&#xbf;" horiz-adv-x="942" 
d="M778 -328q0 -92 -114 -125q-163 29 -337 152q-83 59 -137 149q-53 90 -53 193q0 213 217 301l82 31q74 29 96 53t23 74l2 118h68l26 -88q35 -128 35 -170t-39 -79t-137 -74l-121 -43q-80 -33 -114 -72q-33 -39 -33 -104t49 -135l332 -54q87 -14 121 -46t34 -81zM595 821
q-62 0 -109 45q-46 46 -46 108t46 106t108 44t108 -44t46 -106t-46 -108t-107 -45z" />
    <glyph glyph-name="Identity.125" unicode="&#xd7;" 
d="M1024 686l-559 -561l-70 70l561 559l-561 561l68 67l561 -561l561 561l68 -67l-561 -561l561 -559l-70 -70z" />
    <glyph glyph-name="Identity.126" unicode="&#xf7;" 
d="M1024 53q-63 0 -105 43q-42 44 -42 106t42 104t105 42t105 -42t42 -104t-42 -106t-105 -43zM1802 801v-94h-1556v94h1556zM1024 1159q-63 0 -105 42q-42 43 -42 105t42 105t105 43t105 -43t42 -105t-42 -104t-105 -43z" />
    <glyph glyph-name="Identity.127" unicode="&#x391;" horiz-adv-x="1505" 
d="M1483 0h-629v74l211 24l-131 398h-508l-127 -396l213 -26v-74h-492v74l181 26l471 1418h151l484 -1424l176 -20v-74zM453 580h454l-231 700z" />
    <glyph glyph-name="Identity.128" unicode="&#x392;" horiz-adv-x="1425" 
d="M98 1509h658q246 0 372 -99t127 -263q0 -127 -90 -222t-284 -132q459 -57 457 -390q0 -163 -150 -283t-469 -120h-621v74l203 22q4 203 4 617v100q0 401 -4 600l-203 23v73zM686 1425h-143q-2 -197 -2 -600h110q375 0 375 314q0 147 -83 217t-257 69zM686 86
q199 0 302 83q104 83 104 246t-104 245t-324 81h-123q0 -448 2 -655h143z" />
    <glyph glyph-name="Identity.129" unicode="&#x393;" horiz-adv-x="1275" 
d="M543 807v-113q0 -395 2 -598l219 -22v-74h-666v74l203 22q4 199 4 598v113q0 406 -4 606l-203 23v73h1096l8 -438h-108l-76 348h-473q-2 -201 -2 -612z" />
    <glyph glyph-name="Identity.130" unicode="&#x394;" horiz-adv-x="1429" 
d="M1364 0h-1294v102l583 1416h152l559 -1416v-102zM203 180h876l-424 1112z" />
    <glyph glyph-name="Identity.131" unicode="&#x395;" horiz-adv-x="1357" 
d="M98 0v74l203 22q4 199 4 606v105q0 406 -4 606l-203 23v73h1127l6 -395h-109l-67 305h-510q-2 -197 -2 -608h325l31 221h94v-520h-94l-29 215h-327q0 -434 2 -637h553l67 316h109l-6 -406h-1170z" />
    <glyph glyph-name="Identity.132" unicode="&#x396;" horiz-adv-x="1255" 
d="M49 0v82l854 1337h-629l-79 -319h-121l20 409h1071v-82l-850 -1337h693l82 328h112l-14 -418h-1139z" />
    <glyph glyph-name="Identity.133" unicode="&#x397;" horiz-adv-x="1771" 
d="M1466 807v-105q0 -403 4 -606l205 -22v-74h-647v74l199 22q4 195 4 635h-690q0 -436 4 -635l200 -22v-74h-647v74l203 22q2 199 2 606v105q0 403 -2 606l-203 23v73h647v-73l-200 -23q-4 -195 -4 -598h690q0 399 -4 598l-199 23v73h647v-73l-205 -23q-4 -199 -4 -606z
" />
    <glyph glyph-name="Identity.134" unicode="&#x398;" horiz-adv-x="1595" 
d="M800 1546q286 0 488 -212t203 -576q0 -364 -204 -580q-205 -216 -491 -215q-286 0 -489 212q-203 211 -203 575t205 580t491 216zM799 55q221 0 334 199t113 501q0 301 -114 501q-112 200 -333 200q-150 0 -253 -100q-194 -188 -194 -602t194 -599q103 -100 253 -100z
M1096 979v-422h-82l-21 129h-389l-22 -129h-80v422h80l24 -133h385l23 133h82z" />
    <glyph glyph-name="Identity.135" unicode="&#x399;" horiz-adv-x="845" 
d="M543 807v-105q0 -406 2 -606l205 -22v-74h-652v74l203 22q4 199 4 606v105q0 406 -4 606l-203 23v73h652v-73l-205 -23q-2 -199 -2 -606z" />
    <glyph glyph-name="Identity.136" unicode="&#x39a;" horiz-adv-x="1527" 
d="M1530 0h-598v74l178 20l-371 688l-204 -250q0 -281 4 -436l198 -22v-74h-639v74l203 22q4 199 4 606v105q0 406 -4 606l-203 23v73h647v-73l-206 -23q-4 -199 -4 -606v-154l604 752l-189 31v73h518v-73l-213 -31l-370 -449l479 -862l166 -20v-74z" />
    <glyph glyph-name="Identity.137" unicode="&#x39b;" horiz-adv-x="1490" 
d="M1473 0h-629v74l215 24l-383 1184l-375 -1180l217 -28v-74h-510v74l195 28l469 1416h151l484 -1426l166 -18v-74z" />
    <glyph glyph-name="Identity.138" unicode="&#x39c;" horiz-adv-x="2033" 
d="M387 791v-689l203 -28v-74h-516v74l211 28l4 1307l-209 27v73h446l488 -1208l467 1208h456v-73l-202 -23q-6 -201 -6 -606v-105q0 -406 6 -606l202 -22v-74h-639v74l193 22q4 226 4 588l4 625l-504 -1309h-96l-524 1307q12 -504 12 -516z" />
    <glyph glyph-name="Identity.139" unicode="&#x39d;" horiz-adv-x="1656" 
d="M1575 1509v-73l-189 -29l-6 -1419h-106l-912 1265l7 -1149l249 -30v-74h-540v74l188 28l8 1276l-28 37l-158 21v73h383l819 -1138l-4 1034l-252 31v73h541z" />
    <glyph glyph-name="Identity.140" unicode="&#x39e;" horiz-adv-x="1310" 
d="M1130 408h99l-15 -408h-1116l-14 408h102l37 -222h867zM1022 989v-446h-78l-26 143h-525l-26 -143h-80v446h80l28 -141h520l29 141h78zM250 1323l-41 -221h-96l14 407h1057l14 -407h-96l-41 221h-811z" />
    <glyph glyph-name="Identity.141" unicode="&#x39f;" horiz-adv-x="1595" 
d="M800 1546q286 0 488 -212t203 -576q0 -364 -204 -580q-205 -216 -491 -215q-286 0 -489 212q-203 211 -203 575t205 580t491 216zM367 754q1 -299 111 -499t321 -200t321 200t111 499q0 415 -190 603q-99 99 -242 99t-243 -99q-190 -189 -189 -603z" />
    <glyph glyph-name="Identity.142" unicode="&#x3a0;" horiz-adv-x="1742" 
d="M1438 807v-105q0 -406 4 -606l203 -22v-74h-648v74l199 22q6 199 6 649v62q0 403 -6 606h-651q-4 -199 -4 -606v-62q0 -446 4 -649l200 -22v-74h-647v74l203 22q2 199 2 606v105q0 406 -2 606l-201 23v73h1545v-73l-203 -23q-4 -199 -4 -606z" />
    <glyph glyph-name="Identity.143" unicode="&#x3a1;" horiz-adv-x="1343" 
d="M651 604h-108q0 -332 2 -508l219 -22v-74h-666v74l203 22q4 199 4 606v105q0 406 -4 606l-203 23v73h604q293 0 440 -117q146 -118 146 -326t-156 -335t-481 -127zM676 1425h-131q-2 -203 -2 -618v-117h123q198 0 292 100t95 273q0 362 -377 362z" />
    <glyph glyph-name="Identity.144" unicode="&#x3a3;" horiz-adv-x="1243" 
d="M57 0v131l508 608l-481 686v84h1036l8 -409h-116l-74 319h-614l421 -608l-522 -618h766l66 299h114l-10 -492h-1102z" />
    <glyph glyph-name="Identity.145" unicode="&#x3a4;" horiz-adv-x="1382" 
d="M811 807v-105q0 -403 4 -606l225 -22v-74h-698v74l225 22q6 199 6 606v105q0 408 -6 612h-336l-75 -319h-111l16 409h1260l16 -409h-110l-76 319h-336q-4 -201 -4 -612z" />
    <glyph glyph-name="Identity.146" unicode="&#x3a5;" horiz-adv-x="1427" 
d="M1065 0h-696v74l227 22q4 145 4 494l-410 829l-155 17v73h641v-73l-215 -25l330 -706l327 702l-209 29v73h504v-73l-190 -29l-387 -789q0 -369 4 -522l225 -22v-74z" />
    <glyph glyph-name="Identity.147" unicode="&#x3a6;" horiz-adv-x="1658" 
d="M1567 772q0 -222 -161 -370q-161 -146 -470 -148l4 -172l209 -23v-75h-637v75l209 21q2 57 2 174q-307 2 -469 148t-162 368t167 368t464 148l-2 152l-209 22v74h637v-74l-209 -22l-2 -152q297 -2 463 -147t166 -367zM934 811v-109q0 -240 2 -362q188 4 295 124
q106 120 106 314t-103 306q-103 114 -298 116q-2 -129 -2 -389zM324 777q0 -193 106 -313t295 -124v860q-195 -2 -298 -116t-103 -307z" />
    <glyph glyph-name="Identity.148" unicode="&#x3a7;" horiz-adv-x="1466" 
d="M1440 0h-649v74l202 22l-317 551l-328 -547l189 -26v-74h-500v74l201 28l397 617l-399 696l-191 21v73h653v-73l-204 -23l288 -502l299 496l-194 29v73h506v-73l-205 -29l-365 -567l428 -746l189 -20v-74z" />
    <glyph glyph-name="Identity.149" unicode="&#x3a8;" horiz-adv-x="1759" 
d="M1642 1509h111v-73l-47 -9q-61 -9 -88 -35t-37 -83l-25 -170q-20 -150 -53 -246q-73 -212 -259 -277q-99 -35 -251 -43q0 -319 4 -477l205 -22v-74h-643v74l203 22q6 233 6 477q-293 17 -409 143t-158 423l-25 170q-8 57 -36 84t-89 34l-47 9v73h111q147 0 207 -58
t79 -210l15 -117q16 -124 34 -196q41 -170 156 -228q63 -31 162 -41v148q0 406 -6 606l-176 23v73h585v-73l-174 -21q-4 -199 -4 -608v-148q99 10 161 41q113 56 156 229q17 71 33 195l15 113q18 154 78 213t206 59z" />
    <glyph glyph-name="Identity.150" unicode="&#x3a9;" horiz-adv-x="1665" 
d="M934 0v145q158 137 245 327t87 423t-116 395t-316 162t-316 -162q-115 -162 -115 -394t86 -422t242 -329v-145h-622l-19 393h109l53 -219h346v2q-194 131 -314 310t-120 393q0 303 190 485t480 182t479 -182q190 -182 190 -487q0 -211 -120 -391t-314 -310v-2h348l51 219
h109l-21 -393h-622z" />
    <glyph glyph-name="Identity.151" unicode="&#x3b1;" horiz-adv-x="1280" 
d="M1042 -31q-147 0 -176 205q-92 -205 -329 -205q-197 1 -323 149t-126 412t148 422q148 156 340 156q190 0 294 -182l15 137l192 35l25 -17q-74 -532 -74 -796q0 -99 24 -137t70 -38t101 23l20 -45q-63 -119 -201 -119zM594 1004q-135 0 -212 -112t-77 -296
q0 -254 78 -390t205 -136q100 0 174 86t80 223l18 428q-82 197 -266 197z" />
    <glyph glyph-name="Identity.152" unicode="&#x3b2;" horiz-adv-x="1300" 
d="M193 1083q0 276 136 430t363 154q182 0 299 -99t117 -256t-93 -281t-278 -175q475 -41 475 -434q0 -209 -131 -331t-317 -122q-248 0 -379 209l39 -565l-227 -45l-21 16l17 461v1038zM690 129q152 0 236 88t84 244t-102 253t-320 89l-23 127q344 72 344 364
q0 137 -64 215q-65 78 -181 78q-116 1 -190 -97q-73 -98 -73 -276l-4 -970q141 -115 293 -115z" />
    <glyph glyph-name="Identity.153" unicode="&#x3b3;" horiz-adv-x="1136" 
d="M188 1098q86 0 144 -60t121 -256q113 -356 178 -641q150 291 229 535q-39 203 -39 270q0 162 125 162q55 0 86 -33q14 -51 15 -106q0 -270 -392 -932l13 -424l-207 -45l-17 16l45 416q-50 200 -92 324q-43 124 -88 246t-75 206t-64 128q-35 44 -96 44q-29 0 -56 -6
l-18 47q70 109 188 109z" />
    <glyph glyph-name="Identity.154" unicode="&#x3b4;" horiz-adv-x="1189" 
d="M375 1455q0 -77 75 -149t255 -186q221 -150 308 -278t87 -336q0 -207 -142 -372t-366 -165q-223 0 -364 153q-140 153 -140 377t118 372t333 184q-160 102 -241 186q-81 85 -81 195t113 170t282 61q309 0 439 -184q2 -51 -29 -82t-82 -31q-80 0 -168 82l-154 145
q-125 -1 -184 -33t-59 -109zM305 532q0 -206 88 -344t220 -137q132 -1 203 103t71 304q1 200 -63 321q-64 122 -236 235q-152 -55 -218 -166q-66 -110 -65 -316z" />
    <glyph glyph-name="Identity.155" unicode="&#x3b5;" horiz-adv-x="985" 
d="M92 249q0 243 338 294q-147 29 -220 101t-73 169q0 129 117 212t311 83q260 0 334 -125q4 -45 -29 -80q-34 -35 -94 -35t-147 80l-99 90q-86 -6 -143 -56t-57 -141t78 -145t229 -55q29 0 74 4v-153q-25 4 -62 4q-338 0 -338 -187q0 -88 67 -136t185 -48q182 0 346 121
l39 -45q-166 -231 -452 -232q-172 0 -288 78t-116 202z" />
    <glyph glyph-name="Identity.156" unicode="&#x3b6;" horiz-adv-x="962" 
d="M934 -92q0 -138 -132 -238t-376 -102l-8 106q180 14 275 60t95 106q0 59 -39 92q-40 33 -151 62l-205 49q-295 74 -295 348q0 175 173 447t491 655l-627 -20v188l768 -16l6 -117q-313 -387 -459 -644t-147 -444q-1 -94 53 -151t185 -90l145 -33q248 -61 248 -258z" />
    <glyph glyph-name="Identity.157" unicode="&#x3b7;" horiz-adv-x="1259" 
d="M791 1108q293 0 301 -397l12 -1098l-215 -45l-19 16l31 441l19 659q8 264 -209 264q-78 0 -158 -53t-129 -135l10 -760l-211 -25l-16 17l24 424l5 422q0 66 -20 94t-71 29l-75 -9l-15 45q66 104 174 105q178 0 193 -252q60 122 166 190t203 68z" />
    <glyph glyph-name="Identity.158" unicode="&#x3b8;" horiz-adv-x="1161" 
d="M588 1667q217 0 343 -208q126 -209 126 -653t-130 -640t-347 -197q-217 0 -347 197q-129 196 -129 640t134 652t350 209zM580 1587q-135 1 -204 -155t-71 -555h551q-8 358 -85 534t-191 176zM600 49q126 1 190 157t66 564h-551q8 -369 88 -545t207 -176z" />
    <glyph glyph-name="Identity.159" unicode="&#x3b9;" horiz-adv-x="659" 
d="M430 -29q-211 0 -213 289l-10 801l223 43l19 -19q-45 -661 -43 -781t28 -156q44 -60 174 -15l21 -43q-25 -49 -78 -84t-121 -35z" />
    <glyph glyph-name="Identity.160" unicode="&#x3ba;" horiz-adv-x="1214" 
d="M422 807v-336q78 160 185 300q109 140 219 232t233 105q86 -18 86 -100q0 -121 -182 -138l-160 -8q-100 -88 -199 -205q180 -301 219 -354q113 -139 217 -143q60 0 105 16l16 -41q-29 -82 -78 -124t-106 -42q-92 0 -176 126t-248 487q-90 -137 -135 -222
q-12 -231 -23 -360l-176 -25l-18 17l28 446l4 400q0 68 -20 96t-70 27l-73 -9l-19 47q74 102 174 103q197 0 197 -295z" />
    <glyph glyph-name="Identity.161" unicode="&#x3bb;" horiz-adv-x="1228" 
d="M43 1464q67 203 267 203q102 0 176 -71t126 -226l322 -987q41 -131 86 -180q44 -49 100 -49t109 18l20 -43q-20 -74 -72 -117t-123 -43t-129 69t-102 257l-145 633l-391 -948l-224 16l-12 20l555 1119l-51 143q-41 115 -96 155t-166 40t-221 -70z" />
    <glyph glyph-name="Identity.162" unicode="&#x3bc;" horiz-adv-x="1300" 
d="M1077 -31q-172 0 -188 275q-104 -274 -291 -275q-70 0 -136 43t-110 117l58 -516l-211 -45l-21 16l47 641l-37 832l215 47l19 -19q-33 -711 -35 -776q84 -162 231 -162q86 -1 151 47t116 166l-17 697l213 47l21 -19q-45 -676 -43 -789t25 -150q24 -36 72 -36t97 23
l19 -45q-68 -119 -195 -119z" />
    <glyph glyph-name="Identity.163" unicode="&#x3bd;" horiz-adv-x="1138" 
d="M197 1098q94 0 156 -77t116 -267q121 -412 154 -631q158 305 237 549q-37 200 -37 276t33 118t88 42t90 -31q12 -61 13 -108q0 -289 -418 -971l-137 -10q-31 153 -72 274t-60 182t-96 269q-45 137 -83 192t-95 56q-29 -1 -66 -13l-20 45q31 49 85 77t112 28z" />
    <glyph glyph-name="Identity.164" unicode="&#x3be;" horiz-adv-x="1005" 
d="M977 -90q0 -140 -131 -240t-375 -102l-10 106q184 14 277 62t93 106q0 59 -37 91q-38 32 -145 55l-213 49q-322 70 -321 364q0 154 121 264t323 136q-178 27 -263 119t-85 224t106 227t271 132l-496 -22v176l856 -12l-4 -136q-274 -8 -412 -97t-139 -213q0 -124 90 -199
t271 -74q113 0 129 2v-189q-135 6 -152 6q-223 0 -321 -85t-98 -199q0 -115 56 -175q58 -60 205 -89l162 -37q242 -47 242 -250z" />
    <glyph glyph-name="Identity.165" unicode="&#x3bf;" horiz-adv-x="1191" 
d="M305 631q0 -279 88 -429t221 -151q133 0 203 110t70 283q0 270 -85 427t-217 157t-206 -113t-74 -284zM583 -31q-215 1 -355 147t-140 414t154 424q154 154 370 154t354 -146t138 -412t-154 -423q-154 -158 -367 -158z" />
    <glyph glyph-name="Identity.166" unicode="&#x3c0;" horiz-adv-x="1355" 
d="M240 -29q-61 0 -100 32q-38 31 -38 95t48 99q51 12 227 26q25 197 43 682l-361 -49l-16 80q88 80 188 113t271 32h786l8 -184l-311 10l14 -585q7 -191 127 -191q56 0 119 25l19 -41q-78 -145 -213 -146q-231 0 -232 275q0 178 25 665h-344q-4 -426 -25 -649
q-25 -289 -235 -289z" />
    <glyph glyph-name="Identity.167" unicode="&#x3c1;" horiz-adv-x="1245" 
d="M678 1108q201 0 341 -148t140 -411q0 -262 -139 -421t-339 -159t-319 178l41 -534l-229 -45l-20 16l12 455v440q2 315 138 472t374 157zM637 86q147 0 226 110t79 308q0 262 -90 393t-214 131t-190 -93t-69 -269q0 -281 -8 -457q119 -123 266 -123z" />
    <glyph glyph-name="Identity.168" unicode="&#x3c3;" horiz-adv-x="1349" 
d="M1102 489q0 -221 -146 -371t-368 -149q-220 -1 -360 147t-140 408t163 408t458 153l587 7l7 -195l-531 66q142 -70 236 -199t94 -275zM305 557q0 -231 91 -369t219 -137q128 -1 205 103t77 299q0 250 -131 413q-70 86 -164 115q-297 -41 -297 -424z" />
    <glyph glyph-name="Identity.169" unicode="&#x3c4;" horiz-adv-x="1091" 
d="M426 274q0 171 63 633l-440 -43l-12 66q82 86 185 119t288 32h516l8 -182l-436 10l10 -585q4 -193 127 -193q57 0 115 27l18 -43q-74 -145 -219 -146q-113 0 -168 67t-55 238z" />
    <glyph glyph-name="Identity.170" unicode="&#x3c5;" horiz-adv-x="1228" 
d="M446 836q0 -68 -20 -214t-20 -241q0 -147 74 -230t212 -83q137 0 227 107q89 108 89 308q0 59 -7 127q-92 168 -122 242q-31 74 -31 130t36 91t89 35t86 -33q55 -219 55 -511t-126 -443q-126 -152 -340 -152q-214 -1 -326 101t-113 303q0 90 15 231q16 141 16 215
t-18 106q-29 50 -150 25l-17 45q77 107 191 107t157 -62t43 -204z" />
    <glyph glyph-name="Identity.171" unicode="&#x3c6;" horiz-adv-x="1611" 
d="M1524 556q0 -246 -162 -409q-162 -162 -463 -176l14 -383l-202 -43l-27 23l25 399q-297 15 -459 163t-162 394t169 411t480 177l8 303h134l4 -303q313 -8 477 -159t164 -397zM305 559q0 -479 408 -514l22 993q-215 -8 -323 -133t-107 -346zM883 1036l14 -991
q199 10 304 136t106 351q0 479 -424 504z" />
    <glyph glyph-name="Identity.172" unicode="&#x3c7;" horiz-adv-x="1138" 
d="M173 934q-85 0 -144 -25l-23 56q66 139 193 139q174 0 268 -285l100 -307l299 586l193 -15l16 -26l-428 -752l123 -301q61 -150 126 -210q64 -60 138 -60t125 22l15 -39q-55 -154 -195 -153q-182 0 -272 327l-101 338l-338 -659l-186 22l-16 23l460 823l-114 264
q-58 148 -106 190t-133 42z" />
    <glyph glyph-name="Identity.173" unicode="&#x3c8;" horiz-adv-x="1654" 
d="M1284 960q0 74 39 112q39 36 99 36t96 -47q18 -123 18 -307q6 -365 -128 -555t-413 -222l9 -387l-201 -45l-21 15l19 409q-569 16 -570 424l9 414q0 88 -18 119q-18 30 -70 30q-50 0 -78 -6l-17 45q63 105 175 105t162 -60t50 -198l-12 -445q0 -322 371 -338l20 1336h142
l28 -1332q197 23 299 143t123 361q-131 319 -131 393z" />
    <glyph glyph-name="Identity.174" unicode="&#x3c9;" horiz-adv-x="1667" 
d="M1579 511q0 -261 -125 -401t-315 -141q-115 0 -198 71t-112 206q-27 -139 -109 -208t-198 -69q-182 -1 -308 139t-126 397t144 415t405 186l8 -68q-344 -70 -344 -524q0 -220 70 -326t184 -106q203 0 203 248l-31 458l197 27l18 -10l-37 -463q1 -127 61 -194
q60 -66 164 -66t173 101q68 101 67 325q0 454 -352 530l8 68q260 -27 407 -180q146 -154 146 -415z" />
    <glyph glyph-name="Identity.175" unicode="&#x401;" horiz-adv-x="1357" 
d="M98 0v74l203 22q4 199 4 606v105q0 406 -4 606l-203 23v73h1127l6 -395h-109l-67 305h-510q-2 -197 -2 -608h325l31 221h94v-520h-94l-29 215h-327q0 -434 2 -637h553l67 316h109l-6 -406h-1170zM472 1667q-54 0 -93 36t-39 90t39 89t93 35t92 -35t38 -90t-38 -90
t-92 -35zM987 1667q-53 0 -92 36t-39 90t39 89t92 35t92 -35t39 -89t-39 -90t-92 -36z" />
    <glyph glyph-name="Identity.176" unicode="&#x410;" horiz-adv-x="1505" 
d="M1483 0h-629v74l211 24l-131 398h-508l-127 -396l213 -26v-74h-492v74l181 26l471 1418h151l484 -1424l176 -20v-74zM453 580h454l-231 700z" />
    <glyph glyph-name="Identity.177" unicode="&#x411;" horiz-adv-x="1394" 
d="M729 868q297 0 443 -114t146 -312t-150 -320q-151 -122 -463 -122h-607v74l203 22q2 203 2 617v100q0 401 -2 600l-203 23v73h1090l10 -407h-113l-67 317h-475q-2 -186 -2 -559q82 8 188 8zM688 86q203 0 297 87t94 260t-90 259t-295 86q-84 0 -153 -6v-59q0 -420 2 -627
h145z" />
    <glyph glyph-name="Identity.178" unicode="&#x412;" horiz-adv-x="1425" 
d="M98 1509h658q246 0 372 -99t127 -263q0 -127 -90 -222t-284 -132q459 -57 457 -390q0 -163 -150 -283t-469 -120h-621v74l203 22q4 203 4 617v100q0 401 -4 600l-203 23v73zM686 1425h-143q-2 -197 -2 -600h110q375 0 375 314q0 147 -83 217t-257 69zM686 86
q199 0 302 83q104 83 104 246t-104 245t-324 81h-123q0 -448 2 -655h143z" />
    <glyph glyph-name="Identity.179" unicode="&#x413;" horiz-adv-x="1275" 
d="M543 807v-113q0 -395 2 -598l219 -22v-74h-666v74l203 22q4 199 4 598v113q0 406 -4 606l-203 23v73h1096l8 -438h-108l-76 348h-473q-2 -201 -2 -612z" />
    <glyph glyph-name="Identity.180" unicode="&#x414;" horiz-adv-x="1581" 
d="M387 1509h1092v-73l-205 -23q-4 -201 -4 -610v-90q0 -420 4 -623h229l-12 -504h-107l-69 414h-1108l-72 -414h-108l-11 504h131q395 434 451 1321l-211 25v73zM1034 713v90q0 414 -4 616h-330q-57 -899 -415 -1329h745q4 203 4 623z" />
    <glyph glyph-name="Identity.181" unicode="&#x415;" horiz-adv-x="1357" 
d="M98 0v74l203 22q4 199 4 606v105q0 406 -4 606l-203 23v73h1127l6 -395h-109l-67 305h-510q-2 -197 -2 -608h325l31 221h94v-520h-94l-29 215h-327q0 -434 2 -637h553l67 316h109l-6 -406h-1170z" />
    <glyph glyph-name="Identity.182" unicode="&#x416;" horiz-adv-x="2115" 
d="M1904 -25q-124 0 -179 35q-56 35 -83 127l-108 357q-37 125 -102 174q-66 49 -185 49h-80q0 -422 4 -621l205 -22v-74h-637v74l205 22q4 195 4 621h-80q-118 0 -184 -49t-100 -174l-111 -357q-27 -92 -83 -127t-179 -35t-209 25v74l217 18l121 373q39 129 122 201t247 98
q-72 34 -125 104t-116 222t-108 225q-74 -23 -142 -23t-108 37q-38 37 -38 86t31 85q32 36 92 48q113 -12 191 -105t157 -307q80 -214 151 -276q72 -61 193 -61h61q0 418 -4 614l-205 23v73h637v-73l-205 -23q-4 -193 -4 -614h64q121 0 191 61t143 246q88 244 167 337
t189 105q59 -12 91 -48t32 -85t-39 -86t-107 -37t-141 25q-53 -85 -113 -233t-113 -218q-52 -70 -122 -102q162 -26 245 -98t122 -201l120 -373l218 -18v-74q-86 -25 -210 -25z" />
    <glyph glyph-name="Identity.183" unicode="&#x417;" horiz-adv-x="1247" 
d="M586 1546q252 0 387 -105t135 -290q0 -127 -95 -224t-270 -134q213 -27 315 -129t101 -261q0 -193 -157 -317t-429 -123q-221 0 -351 86t-156 252q37 78 114 78q55 0 84 -36t47 -122l35 -143q72 -23 176 -23q184 0 287 93q102 93 102 270q0 322 -376 321h-80v88h69
q356 0 357 318q0 151 -82 231q-81 80 -217 80t-228 -33l-71 -301h-113l-12 318q176 106 428 106z" />
    <glyph glyph-name="Identity.184" unicode="&#x418;" horiz-adv-x="1792" 
d="M1489 807v-105q0 -406 4 -606l203 -22v-74h-647v74l202 22q4 199 4 633l7 445l-730 -977l-2 -101l215 -22v-74h-647v74l203 22q2 199 2 606v105q0 403 -2 606l-203 23v73h647v-73l-202 -23q-4 -199 -4 -606l-4 -469l729 977v98l-215 23v73h647v-73l-203 -23
q-4 -199 -4 -606z" />
    <glyph glyph-name="Identity.185" unicode="&#x419;" horiz-adv-x="1792" 
d="M1489 807v-105q0 -406 4 -606l203 -22v-74h-647v74l202 22q4 199 4 633l7 445l-730 -977l-2 -101l215 -22v-74h-647v74l203 22q2 199 2 606v105q0 403 -2 606l-203 23v73h647v-73l-202 -23q-4 -199 -4 -606l-4 -469l729 977v98l-215 23v73h647v-73l-203 -23
q-4 -199 -4 -606zM897 1626q-169 0 -277 87t-108 231q29 66 84 66q115 -1 115 -142q0 -76 -9 -119q82 -49 195 -49t195 49q-30 167 20 224q31 36 76 36q68 0 96 -65q0 -143 -109 -231q-110 -87 -278 -87z" />
    <glyph glyph-name="Identity.186" unicode="&#x41a;" horiz-adv-x="1509" 
d="M1293 -25q-124 0 -180 35t-81 127l-108 359q-37 125 -102 174t-185 49h-94q0 -426 2 -623l207 -22v-74h-654v74l203 22q4 199 4 606v105q0 406 -4 606l-203 23v73h654v-73l-207 -23q-2 -195 -2 -612h78q123 0 189 58q66 59 148 275q80 216 160 309t197 105q57 -12 89 -48
t32 -84t-39 -86q-77 -75 -256 -11q-39 -61 -105 -222t-122 -231q-54 -70 -126 -100q162 -28 250 -98t129 -201l119 -375l217 -18v-74q-86 -25 -210 -25z" />
    <glyph glyph-name="Identity.187" unicode="&#x41b;" horiz-adv-x="1576" 
d="M166 229q78 0 162 -67q84 102 143 311q92 385 121 936l-203 27v73h1084v-73l-201 -23q-4 -201 -4 -606v-105q0 -406 4 -606l201 -22v-74h-650v74l201 22q6 201 6 606v105q0 410 -6 612h-340q-65 -1454 -496 -1454q-76 0 -122 45t-46 135q37 84 146 84z" />
    <glyph glyph-name="Identity.188" unicode="&#x41c;" horiz-adv-x="2033" 
d="M387 791v-689l203 -28v-74h-516v74l211 28l4 1307l-209 27v73h446l488 -1208l467 1208h456v-73l-202 -23q-6 -201 -6 -606v-105q0 -406 6 -606l202 -22v-74h-639v74l193 22q4 226 4 588l4 625l-504 -1309h-96l-524 1307q12 -504 12 -516z" />
    <glyph glyph-name="Identity.189" unicode="&#x41d;" horiz-adv-x="1771" 
d="M1466 807v-105q0 -403 4 -606l205 -22v-74h-647v74l199 22q4 195 4 635h-690q0 -436 4 -635l200 -22v-74h-647v74l203 22q2 199 2 606v105q0 403 -2 606l-203 23v73h647v-73l-200 -23q-4 -195 -4 -598h690q0 399 -4 598l-199 23v73h647v-73l-205 -23q-4 -199 -4 -606z
" />
    <glyph glyph-name="Identity.190" unicode="&#x41e;" horiz-adv-x="1595" 
d="M800 1546q286 0 488 -212t203 -576q0 -364 -204 -580q-205 -216 -491 -215q-286 0 -489 212q-203 211 -203 575t205 580t491 216zM367 754q1 -299 111 -499t321 -200t321 200t111 499q0 415 -190 603q-99 99 -242 99t-243 -99q-190 -189 -189 -603z" />
    <glyph glyph-name="Identity.191" unicode="&#x41f;" horiz-adv-x="1744" 
d="M1440 807v-105q0 -406 4 -606l201 -22v-74h-648v74l199 22q6 199 6 606v105q0 412 -6 618h-651q-4 -203 -4 -618v-105q0 -406 4 -606l200 -22v-74h-647v74l203 22q2 199 2 606v105q0 406 -2 606l-203 23v73h1547v-73l-201 -23q-4 -199 -4 -606z" />
    <glyph glyph-name="Identity.192" unicode="&#x420;" horiz-adv-x="1343" 
d="M651 604h-108q0 -332 2 -508l219 -22v-74h-666v74l203 22q4 199 4 606v105q0 406 -4 606l-203 23v73h604q293 0 440 -117q146 -118 146 -326t-156 -335t-481 -127zM676 1425h-131q-2 -203 -2 -618v-117h123q198 0 292 100t95 273q0 362 -377 362z" />
    <glyph glyph-name="Identity.193" unicode="&#x421;" horiz-adv-x="1427" 
d="M879 -37q-342 0 -558 215q-217 216 -217 574t222 576t557 218q227 0 430 -110v-342h-119l-70 313q-98 49 -213 49q-241 0 -393 -184t-152 -520t148 -515q147 -179 393 -180q131 0 236 49l69 310h121l-2 -338q-203 -115 -452 -115z" />
    <glyph glyph-name="Identity.194" unicode="&#x422;" horiz-adv-x="1382" 
d="M811 807v-105q0 -403 4 -606l225 -22v-74h-698v74l225 22q6 199 6 606v105q0 408 -6 612h-336l-75 -319h-111l16 409h1260l16 -409h-110l-76 319h-336q-4 -201 -4 -612z" />
    <glyph glyph-name="Identity.195" unicode="&#x423;" horiz-adv-x="1394" 
d="M1401 1509v-73l-182 -27l-480 -1102q-75 -182 -155 -263t-189 -81q-174 0 -174 180q41 78 135 78t185 -102q59 61 135 221l-508 1079l-145 17v73h608v-73l-199 -25l354 -809l328 805l-203 29v73h490z" />
    <glyph glyph-name="Identity.196" unicode="&#x424;" horiz-adv-x="1646" 
d="M977 238h-45q0 -109 2 -164l213 -25v-74h-647v74l215 25l2 164h-47q-291 0 -452 139t-161 380t157 377t456 136h45v168l-215 22v74h647v-74l-213 -22q-2 -55 -2 -168h45q299 0 457 -137t158 -376t-162 -379t-453 -140zM967 1190h-37v-873h37q203 0 298 125t95 315
q0 189 -94 311t-299 122zM682 317h35v873h-35q-207 0 -301 -122t-94 -313t95 -315t300 -123z" />
    <glyph glyph-name="Identity.197" unicode="&#x425;" horiz-adv-x="1466" 
d="M1440 0h-649v74l202 22l-317 551l-328 -547l189 -26v-74h-500v74l201 28l397 617l-399 696l-191 21v73h653v-73l-204 -23l288 -502l299 496l-194 29v73h506v-73l-205 -29l-365 -567l428 -746l189 -20v-74z" />
    <glyph glyph-name="Identity.198" unicode="&#x426;" horiz-adv-x="1742" 
d="M98 0v74l203 22q2 201 2 606v105q0 408 -2 606l-203 23v73h643v-73l-196 -23q-4 -201 -4 -606v-105q0 -412 4 -612h641q4 203 4 612v105q0 406 -4 606l-197 23v73h645v-73l-204 -23q-4 -201 -5 -606v-105q1 -409 5 -612h233l-27 -504h-108l-53 414h-1377z" />
    <glyph glyph-name="Identity.199" unicode="&#x427;" horiz-adv-x="1599" 
d="M1294 807v-105q0 -403 4 -606l205 -22v-74h-649v74l201 22q2 184 2 563q-201 -43 -332 -43q-246 0 -366 92t-119 347v358l-183 23v73h627v-73l-205 -23q-4 -233 -4 -348q0 -193 70 -267t237 -73q109 0 275 25v57q0 406 -2 606l-199 23v73h647v-73l-205 -23
q-4 -199 -4 -606z" />
    <glyph glyph-name="Identity.200" unicode="&#x428;" horiz-adv-x="2379" 
d="M2077 807v-105q0 -406 6 -606l203 -22v-74h-2192v74l207 22q2 201 2 606v105q0 408 -2 606l-207 23v73h635v-73l-184 -21q-4 -203 -4 -608v-105q0 -412 4 -612h522q6 203 6 623v90q0 412 -6 612l-180 21v73h608v-73l-182 -21q-4 -201 -4 -612v-90q0 -420 4 -623h522
q4 201 4 612v105q0 406 -4 608l-182 21v73h633v-73l-203 -23q-6 -199 -6 -606z" />
    <glyph glyph-name="Identity.201" unicode="&#x429;" horiz-adv-x="2392" 
d="M94 0v74l207 22q2 201 2 606v105q0 408 -2 606l-207 23v73h635v-73l-184 -21q-4 -203 -4 -608v-105q0 -412 4 -612h522q6 203 6 623v90q0 412 -6 612l-180 21v73h608v-73l-182 -21q-4 -201 -4 -612v-90q0 -420 4 -623h522q4 203 4 623v90q0 412 -4 612l-182 21v73h633
v-73l-203 -23q-6 -201 -6 -610v-90q0 -420 6 -623h229l-26 -504h-107l-55 414h-2030z" />
    <glyph glyph-name="Identity.202" unicode="&#x42a;" horiz-adv-x="1646" 
d="M979 0h-594v74l203 22q2 201 2 606v105q0 410 -2 612h-359l-73 -321h-111l16 411h988v-73l-215 -23q-6 -182 -7 -532q76 8 179 8q288 2 440 -118t152 -327q0 -208 -156 -326t-463 -118zM967 86q391 0 391 354q0 360 -397 361q-68 0 -134 -6v-93q1 -413 7 -616h133z" />
    <glyph glyph-name="Identity.203" unicode="&#x42b;" horiz-adv-x="2088" 
d="M1786 807v-105q0 -406 2 -606l203 -22v-74h-652v74l205 22q4 199 4 606v105q0 406 -4 606l-205 23v73h652v-73l-203 -23q-2 -199 -2 -606zM1284 446q0 -206 -147 -326t-443 -120h-596v74l203 22q4 201 4 606v105q0 406 -4 606l-203 23v73h678v-73l-227 -25
q-6 -182 -6 -530q74 8 170 8q279 2 425 -117q146 -120 146 -326zM670 86q373 0 372 346q0 369 -360 369q-76 0 -139 -6v-93q0 -413 6 -616h121z" />
    <glyph glyph-name="Identity.204" unicode="&#x42c;" horiz-adv-x="1380" 
d="M1331 452q1 -202 -153 -327t-465 -125h-615v74l203 22q2 201 2 606v105q0 406 -2 606l-203 23v73h674v-73l-227 -25q-4 -182 -4 -530q84 8 198 8q297 2 445 -117q148 -118 147 -320zM696 86q395 0 396 352q0 178 -90 270t-295 93q-88 0 -166 -6v-93q0 -413 4 -616h151z
" />
    <glyph glyph-name="Identity.205" unicode="&#x42d;" horiz-adv-x="1388" 
d="M113 1094v342q205 111 432 110q341 0 541 -209t200 -583t-194 -582q-194 -209 -539 -209q-250 0 -455 115v338h119l70 -310q113 -49 254 -49q239 0 367 167t132 503h-448l-29 -217h-92v522h92l31 -225h446q-10 325 -140 487t-368 162q-133 0 -229 -45l-72 -317h-118z" />
    <glyph glyph-name="Identity.206" unicode="&#x42e;" horiz-adv-x="2256" 
d="M530 817h320q16 340 200 535q184 194 460 194q274 0 458 -207t184 -585t-183 -585q-183 -206 -463 -206t-465 204t-193 564h-318q0 -438 5 -635l200 -22v-74h-637v74l203 22q2 199 2 606v105q0 403 -2 606l-203 23v73h637v-73l-200 -23q-5 -195 -5 -596zM1503 57
q199 0 299 196t100 502q0 305 -100 503t-299 198q-135 0 -228 -98q-177 -187 -177 -602q0 -416 177 -601q93 -98 228 -98z" />
    <glyph glyph-name="Identity.207" unicode="&#x42f;" horiz-adv-x="1472" 
d="M1188 807v-105q0 -408 4 -606l205 -22v-74h-647v74l200 22q4 195 4 596h-118q-134 0 -190 -43t-103 -190l-113 -324q-29 -86 -76 -121q-48 -34 -160 -34t-188 20v70l178 20l115 316q57 158 113 226t174 95q-193 33 -290 136t-97 245q0 186 144 294t396 107h658v-73
l-205 -23q-4 -201 -4 -606zM770 776h184q0 446 -4 645h-166q-170 0 -258 -83t-88 -231q0 -147 87 -239t245 -92z" />
    <glyph glyph-name="Identity.208" unicode="&#x430;" horiz-adv-x="1165" 
d="M944 -27q-86 0 -139 47t-70 132q-98 -100 -170 -142q-73 -42 -187 -41q-114 0 -197 73t-83 197q0 125 84 205t301 154q162 47 246 68v84q0 162 -47 220t-166 58q-61 0 -121 -16l-35 -152q-26 -127 -122 -127t-109 90q27 133 145 209q120 76 308 76t275 -91t87 -300v-504
q0 -135 78 -135q45 0 94 57l35 -37q-68 -125 -207 -125zM476 102q66 0 116 24t137 97v377q-113 -31 -186 -59q-227 -90 -228 -265q0 -88 47 -131q48 -43 114 -43z" />
    <glyph glyph-name="Identity.209" unicode="&#x431;" horiz-adv-x="1247" 
d="M684 1069q198 0 333 -136q134 -136 134 -400q-1 -264 -149 -414t-378 -150t-367 175q-136 175 -136 540q0 563 196 737q78 72 172 105t201 48q107 14 209 28t150 22l47 100l47 -12q-27 -195 -74 -250q-31 -31 -89 -46t-177 -34l-29 -4q-170 -23 -254 -42t-147 -66
q-154 -119 -176 -555q59 180 174 267t313 87zM640 51q128 0 205 124t77 354t-76 342t-206 112t-209 -114t-79 -344t80 -352t208 -122z" />
    <glyph glyph-name="Identity.210" unicode="&#x432;" horiz-adv-x="1179" 
d="M90 1077h600q184 0 277 -68q92 -69 92 -192q0 -203 -275 -250q328 -39 328 -274q0 -129 -108 -211t-340 -82h-574v66l154 22q6 172 6 387v127q0 215 -6 387l-154 23v65zM629 997h-162q-6 -162 -6 -399h147q123 0 180 50t58 155q0 194 -217 194zM625 80q266 0 266 217
q0 229 -275 229h-155v-51q0 -223 6 -395h158z" />
    <glyph glyph-name="Identity.211" unicode="&#x433;" horiz-adv-x="1015" 
d="M467 594v-119q0 -158 4 -387l172 -22v-66h-553v66l154 22q6 172 6 387v119q0 223 -6 395l-154 23v65h858l17 -401h-88l-95 321h-311q-4 -229 -4 -403z" />
    <glyph glyph-name="Identity.212" unicode="&#x434;" horiz-adv-x="1316" 
d="M328 1077h897v-65l-166 -23q-4 -229 -4 -387v-127q0 -168 4 -397h184l-14 -432h-94l-66 354h-852l-67 -354h-95l-14 432h119q283 416 342 905l-174 29v65zM838 475v127q0 168 -4 397h-242q-53 -481 -305 -921h547q4 229 4 397z" />
    <glyph glyph-name="Identity.213" unicode="&#x435;" horiz-adv-x="1155" 
d="M707 100q177 0 303 158l41 -29q-63 -123 -173 -191t-257 -69q-238 0 -383 151q-146 151 -146 412q0 260 157 418t364 158t325 -121t119 -315q-1 -80 -15 -125h-716q4 -221 104 -334t277 -113zM729 627q69 -1 93 31t24 102q0 116 -67 192t-173 76t-186 -101t-92 -300h401z
" />
    <glyph glyph-name="Identity.214" unicode="&#x436;" horiz-adv-x="1753" 
d="M1552 -23q-84 0 -130 30t-70 114l-76 237q-31 90 -76 120t-143 30h-82q0 -193 4 -418l160 -24v-66h-527v66l160 22q4 229 4 420h-82q-98 0 -143 -30t-74 -120l-76 -237q-25 -84 -69 -114t-130 -30t-171 23v66l151 20l74 219q41 117 113 171t209 73q-115 45 -181 229
q-20 61 -45 105q-78 -13 -132 -13t-94 32q-38 32 -38 87q0 96 98 119q100 -8 164 -77t114 -213q52 -144 103 -190t135 -46h74q0 182 -4 407l-160 23v65h527v-65l-160 -25q-4 -221 -4 -405h76q84 0 136 46t101 190t114 214q65 68 167 76q96 -23 96 -119q0 -55 -38 -87
t-97 -32t-131 15q-23 -41 -45 -107q-63 -184 -178 -229q140 -19 210 -73t109 -171l74 -219l153 -20v-66q-86 -23 -170 -23z" />
    <glyph glyph-name="Identity.215" unicode="&#x437;" horiz-adv-x="993" 
d="M467 616q231 0 227 203q0 101 -61 155t-157 54t-165 -16l-67 -264h-99l-20 274q150 86 348 86t308 -77t110 -204q0 -195 -264 -249q297 -59 297 -289q0 -135 -129 -227t-349 -93q-160 0 -260 71t-114 198q27 74 108 73q84 -4 109 -118l39 -140q47 -8 118 -8q121 0 193 65
t72 177q-1 112 -57 179t-179 66h-102v84h94z" />
    <glyph glyph-name="Identity.216" unicode="&#x438;" horiz-adv-x="1464" 
d="M1214 475q0 -158 5 -387l155 -22v-66h-530v66l162 24v709l-549 -633v-76l168 -24v-66h-535v66l154 22q6 172 6 387v127q0 215 -6 387l-154 23v65h535v-65l-168 -25v-708l549 636v72l-162 25v65h530v-65l-155 -23q-4 -229 -5 -387v-127z" />
    <glyph glyph-name="Identity.217" unicode="&#x439;" horiz-adv-x="1464" 
d="M1214 475q0 -158 5 -387l155 -22v-66h-530v66l162 24v709l-549 -633v-76l168 -24v-66h-535v66l154 22q6 172 6 387v127q0 215 -6 387l-154 23v65h535v-65l-168 -25v-708l549 636v72l-162 25v65h530v-65l-155 -23q-4 -229 -5 -387v-127zM926 1529q0 146 114 146
q53 0 86 -63q0 -144 -102 -234t-273 -90t-274 90q-102 90 -102 234q29 63 84 63t86 -36q49 -56 20 -234q79 -47 185 -47t184 45q-8 51 -8 126z" />
    <glyph glyph-name="Identity.218" unicode="&#x43a;" horiz-adv-x="1236" 
d="M1036 -23q-84 0 -130 30t-70 114l-76 237q-31 92 -77 125t-142 33h-74q0 -199 4 -428l154 -22v-66h-535v66l154 22q6 172 6 387v127q0 215 -6 387l-154 23v65h535v-65l-154 -23q-4 -225 -4 -399h68q86 0 137 43t100 187t114 212t167 76q96 -23 96 -119q-2 -55 -39 -87
t-96 -32t-131 15q-23 -41 -51 -122q-55 -163 -170 -206q134 -19 206 -77t111 -175l74 -219l153 -20v-66q-86 -23 -170 -23z" />
    <glyph glyph-name="Identity.219" unicode="&#x43b;" horiz-adv-x="1314" 
d="M1069 602v-127q0 -158 4 -387l152 -22v-66h-533v66l152 22q4 229 4 387v127q0 174 -4 404h-256q-16 -412 -99 -682q-59 -195 -134 -272t-169 -77q-156 0 -155 162q43 82 115 82t143 -74q70 74 112 209q82 256 95 627l-185 31v65h914v-65l-152 -23q-4 -229 -4 -387z" />
    <glyph glyph-name="Identity.220" unicode="&#x43c;" horiz-adv-x="1673" 
d="M1423 602v-127q0 -158 4 -387l154 -22v-66h-532v66l163 22l2 367l13 546l-387 -913h-113l-399 913l18 -544v-367l164 -24v-66h-420v66l168 24v893l-166 29v65h416l342 -778l332 778h399v-65l-154 -23q-4 -229 -4 -387z" />
    <glyph glyph-name="Identity.221" unicode="&#x43d;" horiz-adv-x="1437" 
d="M1188 602v-127q0 -158 4 -387l154 -22v-66h-533v66l154 22q4 229 4 438h-504q0 -209 4 -438l154 -22v-66h-535v66l154 22q6 172 6 387v127q0 215 -6 387l-154 23v65h535v-65l-154 -23q-4 -221 -4 -383h504q0 162 -4 383l-154 23v65h533v-65l-154 -23q-4 -229 -4 -387z
" />
    <glyph glyph-name="Identity.222" unicode="&#x43e;" horiz-adv-x="1249" 
d="M624 51q140 0 217 124t77 363q0 238 -77 364t-217 126t-216 -125t-76 -365t76 -364q76 -123 216 -123zM92 538q0 266 156 418t376 152t376 -153t155 -417q1 -264 -153 -417q-154 -152 -378 -152t-378 152t-154 417z" />
    <glyph glyph-name="Identity.223" unicode="&#x43f;" horiz-adv-x="1419" 
d="M1169 475q0 -158 5 -387l155 -22v-66h-534v66l153 22q4 229 4 387v127q0 168 -4 397h-477q-4 -229 -4 -397v-127q0 -158 4 -387l154 -22v-66h-535v66l154 22q6 172 6 387v127q0 215 -6 387l-154 23v65h1239v-65l-155 -23q-4 -229 -5 -387v-127z" />
    <glyph glyph-name="Identity.224" unicode="&#x440;" horiz-adv-x="1335" 
d="M803 1108q192 0 315 -152t123 -412t-133 -417q-132 -158 -326 -158t-317 148v-164q0 -123 4 -397l195 -27v-66h-584v66l166 25q6 203 6 397v653q0 178 -8 303l-172 17v61l346 121l28 -21l15 -141q150 164 342 164zM712 90q132 0 214 108t82 335t-77 343t-205 116
t-255 -113v-693q109 -96 241 -96z" />
    <glyph glyph-name="Identity.225" unicode="&#x441;" horiz-adv-x="1120" 
d="M90 538q0 262 160 416t389 154q153 0 265 -82t134 -211q-23 -88 -108 -88q-106 0 -129 127l-37 158q-49 16 -109 16q-151 0 -243 -125t-92 -342t102 -339t268 -122q194 0 307 160l43 -20q-117 -270 -430 -271q-231 0 -376 154q-144 154 -144 415z" />
    <glyph glyph-name="Identity.226" unicode="&#x442;" horiz-adv-x="1214" 
d="M717 602v-127q0 -156 4 -385l178 -24v-66h-582v66l179 24q4 229 4 385v127q0 166 -4 395h-265l-84 -299h-90l13 379h1075l16 -379h-90l-84 299h-266q-4 -229 -4 -395z" />
    <glyph glyph-name="Identity.227" unicode="&#x443;" horiz-adv-x="1165" 
d="M1167 1077v-65l-127 -21l-397 -1048q-184 -502 -444 -502q-82 0 -143 41q-60 41 -62 104q10 49 53 76t96 27q84 0 168 -95l23 -22q127 100 219 338l4 12l-434 1073l-125 17v65h553v-67l-184 -19l292 -803l277 801l-199 23v65h430z" />
    <glyph glyph-name="Identity.228" unicode="&#x444;" horiz-adv-x="1695" 
d="M1130 1108q222 0 352 -146t130 -414t-131 -424q-131 -155 -351 -155q-94 0 -188 47q0 -207 4 -460l195 -27v-66h-598v66l198 29q6 201 7 454q-90 -43 -185 -43q-219 -1 -349 147t-130 416t131 422t348 154q104 0 191 -45v397l-185 19v63l357 88l28 -18l-6 -322v-223
q86 41 182 41zM1083 51q150 0 232 124t82 367q0 242 -81 364t-231 122q-71 0 -137 -31v-915q66 -31 135 -31zM610 1028q-150 0 -230 -125t-81 -368q0 -243 80 -363t229 -121q74 0 140 31v913q-61 33 -138 33z" />
    <glyph glyph-name="Identity.229" unicode="&#x445;" horiz-adv-x="1198" 
d="M1174 0h-562v66l168 20l-241 358l-256 -354l168 -24v-66h-433v66l148 22l328 424l-322 477l-135 19v69h528v-69l-145 -21l233 -342l244 338l-158 25v69h408v-69l-133 -23l-318 -405l338 -496l140 -18v-66z" />
    <glyph glyph-name="Identity.230" unicode="&#x446;" horiz-adv-x="1417" 
d="M90 0v66l154 22q6 172 6 387v127q0 215 -6 387l-154 23v65h533v-65l-152 -23q-4 -229 -4 -387v-127q0 -168 4 -397h463q6 172 6 397v127q0 215 -6 387l-152 23v65h533v-65l-154 -23q-4 -229 -4 -387v-127q0 -168 4 -397h193l-31 -432h-94l-51 354h-1088z" />
    <glyph glyph-name="Identity.231" unicode="&#x447;" horiz-adv-x="1265" 
d="M1016 602v-127q0 -158 4 -387l154 -22v-66h-533v66l154 22q4 221 4 377q-131 -33 -256 -33q-219 0 -303 95t-84 321v141l-133 23v65h501v-65l-153 -23q-2 -51 -2 -155q0 -178 51 -240t213 -64q90 0 166 9v63q0 158 -4 387l-152 23v65h531v-65l-154 -23q-4 -229 -4 -387z
" />
    <glyph glyph-name="Identity.232" unicode="&#x448;" horiz-adv-x="1947" 
d="M1700 602v-127q0 -158 4 -387l154 -22v-66h-1768v66l154 22q6 172 6 387v127q0 215 -6 387l-154 23v65h512v-65l-141 -23q-4 -229 -4 -387v-127q0 -168 4 -397h405q4 229 4 397v127q0 160 -4 389l-141 21v65h498v-65l-142 -23q-4 -229 -4 -387v-127q0 -168 4 -397h406
q4 229 4 397v127q0 158 -4 387l-144 23v65h515v-65l-154 -23q-4 -229 -4 -387z" />
    <glyph glyph-name="Identity.233" unicode="&#x449;" horiz-adv-x="1959" 
d="M90 0v66l154 22q6 172 6 387v127q0 215 -6 387l-154 23v65h512v-65l-141 -23q-4 -229 -4 -387v-127q0 -168 4 -397h405q4 229 4 397v127q0 160 -4 389l-141 21v65h498v-65l-142 -23q-4 -229 -4 -387v-127q0 -168 4 -397h406q4 229 4 397v127q0 158 -4 387l-144 23v65h515
v-65l-154 -23q-4 -229 -4 -387v-127q0 -168 4 -397h190l-28 -432h-97l-51 354h-1628z" />
    <glyph glyph-name="Identity.234" unicode="&#x44a;" horiz-adv-x="1388" 
d="M901 655q209 0 312 -90t103 -237q0 -148 -110 -238q-111 -90 -340 -90h-547v66l179 22q4 229 4 387v127q0 166 -4 395h-267l-77 -299h-91l15 379h813v-65l-168 -25q-4 -197 -4 -338q92 6 182 6zM831 74q270 0 271 252q0 127 -62 185t-190 58q-49 0 -131 -4v-90
q0 -168 4 -401h108z" />
    <glyph glyph-name="Identity.235" unicode="&#x44b;" horiz-adv-x="1736" 
d="M1475 602v-127q0 -215 6 -387l153 -22v-66h-534v66l153 22q4 229 4 387v127q0 158 -4 387l-153 23v65h534v-65l-153 -23q-6 -172 -6 -387zM625 655q207 0 311 -86t104 -235t-111 -242q-112 -92 -335 -92h-500v66l156 22q4 229 4 387v127q0 158 -4 387l-156 23v65h535v-65
l-154 -23q-4 -201 -4 -340q78 6 154 6zM557 74q268 0 268 250q0 133 -62 189t-196 56q-35 0 -96 -4v-90q0 -168 4 -401h82z" />
    <glyph glyph-name="Identity.236" unicode="&#x44c;" horiz-adv-x="1142" 
d="M666 655q205 0 309 -88t104 -236t-112 -240q-113 -91 -334 -91h-539v66l156 22q4 229 4 387v127q0 158 -4 387l-156 23v65h535v-65l-154 -23q-4 -201 -4 -342q90 8 195 8zM598 74q268 0 268 245q0 133 -62 191t-200 59q-66 0 -133 -6v-88q0 -168 4 -401h123z" />
    <glyph glyph-name="Identity.237" unicode="&#x44d;" horiz-adv-x="1097" 
d="M496 1108q220 0 364 -146t146 -421q0 -275 -144 -423t-416 -149q-150 0 -252 75t-106 202q27 66 96 65q90 0 113 -118l25 -130q59 -12 118 -12q164 1 249 105t91 360l-450 -6v96l450 -4q-8 238 -93 332t-238 94q-88 0 -148 -27l-61 -260h-109l-18 271q163 96 383 96z" />
    <glyph glyph-name="Identity.238" unicode="&#x44e;" horiz-adv-x="1810" 
d="M467 606h248q20 234 159 368t348 134q210 0 352 -154t142 -416t-139 -416q-139 -153 -361 -153t-360 150q-139 150 -143 407h-246q0 -209 4 -438l154 -22v-66h-535v66l154 22q6 172 6 387v127q0 215 -6 387l-154 23v65h535v-65l-154 -23q-4 -225 -4 -383zM1214 51
q272 0 272 489t-272 488q-136 0 -210 -125t-74 -366q-1 -486 284 -486z" />
    <glyph glyph-name="Identity.239" unicode="&#x44f;" horiz-adv-x="1224" 
d="M975 602v-127q0 -158 4 -387l156 -22v-66h-533v66l156 22q4 217 4 381h-96q-41 0 -66 -7t-50 -38t-69 -119l-106 -231q-25 -53 -62 -75t-121 -22t-167 23v66l153 20l86 199q68 164 223 215q-324 33 -323 282q0 135 102 215t307 80h562v-65l-156 -23q-4 -229 -4 -387z
M623 543h139v59q0 168 -4 397h-154q-231 0 -231 -219q0 -237 250 -237z" />
    <glyph glyph-name="Identity.240" unicode="&#x451;" horiz-adv-x="1155" 
d="M707 100q177 0 303 158l41 -29q-63 -123 -173 -191t-257 -69q-238 0 -383 151q-146 151 -146 412q0 260 157 418t364 158t325 -121t119 -315q-1 -80 -15 -125h-716q4 -221 104 -334t277 -113zM729 627q69 -1 93 31t24 102q0 116 -67 192t-173 76t-186 -101t-92 -300h401z
M376 1354q-56 0 -95 36t-39 92t39 93t94 37t95 -37t40 -93t-39 -92t-95 -36zM861 1354q-54 0 -94 36t-40 92t40 93t94 37t93 -37t39 -93t-39 -92t-93 -36z" />
    <glyph glyph-name="Identity.241" unicode="&#x2010;" 
d="M1280 737h-512v82h512v-82z" />
    <glyph glyph-name="Identity.242" unicode="&#x2015;" 
d="M2048 737h-2048v82h2048v-82z" />
    <glyph glyph-name="Identity.243" unicode="&#x2018;" horiz-adv-x="481" 
d="M371 1157q0 -61 -37 -96q-38 -35 -102 -35t-109 43q-39 78 -39 166q0 137 87 259t224 196l33 -52q-90 -58 -141 -116t-86 -144l84 -65q86 -70 86 -156z" />
    <glyph glyph-name="Identity.244" unicode="&#x2019;" horiz-adv-x="481" 
d="M111 1559q0 61 36 96q37 35 101 35t112 -43q37 -74 37 -166q0 -137 -87 -259t-224 -196l-31 51q89 57 141 115t85 145l-84 66q-86 70 -86 156z" />
    <glyph glyph-name="Identity.245" unicode="&#x201c;" horiz-adv-x="927" 
d="M817 1157q0 -61 -37 -96q-36 -35 -100 -35t-113 43q-37 74 -37 166q0 137 87 259t225 196l32 -52q-90 -58 -142 -116t-85 -144l84 -65q86 -70 86 -156zM371 1157q0 -61 -37 -96q-38 -35 -102 -35t-109 43q-39 78 -39 166q0 137 87 259t224 196l33 -52q-90 -57 -141 -115
t-86 -145l84 -65q86 -70 86 -156z" />
    <glyph glyph-name="Identity.246" unicode="&#x201d;" horiz-adv-x="927" 
d="M557 1559q0 61 37 96q36 35 100 35t111 -43q39 -72 39 -166q0 -137 -87 -259t-225 -196l-32 51q90 57 141 115t86 145l-84 66q-86 70 -86 156zM111 1559q0 61 36 96q37 35 101 35t112 -43q37 -74 37 -166q0 -137 -87 -259t-224 -196l-31 51q89 57 141 115t85 145l-84 66
q-86 70 -86 156z" />
    <glyph glyph-name="Identity.247" unicode="&#x2020;" 
d="M1396 1223q148 0 148 -121q0 -55 -36 -90t-112 -35t-198 49l-151 51q94 -256 94 -438q1 -113 -13 -225t-36 -295q-22 -182 -39 -322h-56q-40 353 -64 540q-24 188 -24 302q0 197 95 440l-152 -51q-121 -49 -198 -49q-148 0 -148 123q0 55 36 89t108 34t202 -49l154 -54
l-54 162q-51 128 -51 200t34 106t89 34t90 -34t35 -106t-51 -200l-54 -160l154 52q121 47 198 47z" />
    <glyph glyph-name="Identity.248" unicode="&#x2021;" 
d="M1399 418q73 0 109 -35t36 -91t-36 -90t-110 -34t-200 51l-151 49l53 -159q51 -129 51 -201t-35 -108q-35 -34 -91 -34t-90 34t-34 108t51 201l52 161l-152 -53q-121 -49 -198 -49q-76 0 -112 35t-36 90t36 89t112 34t198 -51l152 -54q-92 240 -93 385q0 145 93 383
l-152 -51q-117 -49 -196 -49q-150 0 -150 123q0 55 36 89t108 34t202 -49l154 -54l-54 162q-51 128 -51 200t34 106t90 34t91 -34t35 -106t-51 -200l-53 -160l151 52q125 47 200 47q146 0 146 -121q0 -55 -36 -90t-112 -35t-198 49l-149 51q90 -238 90 -383t-92 -381l151 54
q127 51 201 51z" />
    <glyph glyph-name="Identity.249" unicode="&#x2025;" 
d="M1536 659q-49 0 -84 35t-35 84t35 84t84 35t84 -35t35 -84t-35 -84t-84 -35zM512 659q-49 0 -84 35t-35 84t35 84t84 35t84 -35t35 -84t-35 -84t-84 -35z" />
    <glyph glyph-name="Identity.250" unicode="&#x2026;" 
d="M1706 659q-49 0 -84 35t-35 84t35 84t84 35t84 -35t35 -84t-35 -84t-84 -35zM1024 659q-49 0 -84 35t-35 84t35 84t84 35t84 -35t35 -84t-35 -84t-84 -35zM342 659q-49 0 -84 35t-35 84t35 84t84 35t84 -35t35 -84t-35 -84t-84 -35z" />
    <glyph glyph-name="Identity.251" unicode="&#x2030;" 
d="M1442 440q0 236 84 354t210 117q126 1 209 -117t83 -355t-83 -351t-210 -115q-127 0 -210 116q-83 115 -83 351zM1735 856q-133 0 -133 -414t133 -413q133 -1 133 413t-133 414zM1085 911q127 1 210 -117t83 -355t-83 -351t-210 -115q-127 0 -209 115q-82 116 -83 352
q1 236 83 354t209 117zM1084 856q-134 0 -134 -414t135 -413q133 -1 133 413t-134 414zM379 -47l-76 33l703 1513l75 -33zM315 1511q127 1 209 -117t82 -356t-82 -352t-209 -113q-127 0 -210 114q-83 113 -83 351t83 356q83 117 210 117zM314 1456q-134 0 -134 -414
t135 -413q133 -1 133 413t-134 414z" />
    <glyph glyph-name="Identity.252" unicode="&#x2032;" horiz-adv-x="561" 
d="M288 1667q120 -1 120 -135q0 -68 -119 -391q-27 -82 -72 -187l-59 11l22 665q50 37 108 37z" />
    <glyph glyph-name="Identity.253" unicode="&#x2033;" horiz-adv-x="974" 
d="M702 1667q58 0 89 -33t30 -86q1 -90 -83 -317t-107 -277l-58 11l23 665q48 37 106 37zM288 1667q120 -1 120 -135q0 -68 -119 -391q-27 -82 -72 -187l-59 11l22 665q50 37 108 37z" />
    <glyph glyph-name="Identity.254" unicode="&#x203b;" 
d="M1024 348q62 0 108 -45t46 -108t-45 -109t-109 -45q-64 0 -109 45q-45 44 -45 108t45 109q46 45 109 45zM1454 778q0 62 45 108t109 46t108 -45q45 -45 45 -109t-45 -108q-45 -45 -108 -45t-109 45q-45 45 -45 108zM594 778q0 -63 -45 -108t-109 -45t-108 45
q-45 45 -45 108q0 62 45 108t108 46t109 -45q45 -46 45 -109zM348 1513l676 -675l676 675l59 -59l-676 -676l676 -676l-59 -59l-676 676l-678 -678l-59 59l678 678l-676 676zM1024 1208q-63 0 -109 45q-45 45 -45 109t45 108q45 46 109 46t108 -46q46 -46 46 -108
q0 -63 -45 -109q-46 -45 -109 -45z" />
    <glyph glyph-name="Identity.255" unicode="&#x2103;" 
d="M1528 -37q-299 0 -486 210q-186 210 -186 595t190 594t496 209q182 0 340 -98l4 -353h-108l-70 346q-63 25 -145 25q-211 -1 -335 -191t-124 -533t125 -533t330 -189q86 0 159 33l74 342h109l-3 -346q-164 -111 -370 -111zM430 1571q121 0 209 -84t88 -217t-88 -216
t-209 -83t-208 83t-87 216t87 217t208 84zM431 1049q89 0 148 60q58 61 58 161t-58 160q-57 60 -147 61q-90 0 -148 -60q-58 -61 -58 -161t58 -160t147 -61z" />
    <glyph glyph-name="Identity.256" unicode="&#x212b;" 
d="M1786 0h-672v76l213 16l-133 404h-518l-125 -400l197 -20v-76h-482v76l189 18l448 1342q-84 28 -135 96t-51 174t83 184q82 76 200 76t202 -77t84 -180t-47 -170t-123 -97l473 -1352l197 -14v-76zM825 1694q0 -74 47 -128t127 -54t129 54t50 128q0 74 -48 127t-127 53
q-80 0 -129 -53t-49 -127zM702 578h463l-237 714z" />
    <glyph glyph-name="Identity.257" unicode="&#x2190;" 
d="M1966 825v-94h-1671q229 -176 383 -385l-74 -59q-207 283 -534 491q328 209 534 492l74 -60q-154 -211 -383 -385h1671z" />
    <glyph glyph-name="Identity.258" unicode="&#x2191;" 
d="M1071 -164h-94v1671q-174 -229 -385 -383l-60 74q283 207 492 535q209 -328 492 -535l-60 -74q-209 154 -385 383v-1671z" />
    <glyph glyph-name="Identity.259" unicode="&#x2192;" 
d="M82 731v94h1671q-229 174 -383 385l74 60q207 -283 534 -492q-328 -209 -534 -491l-74 59q154 209 383 385h-1671z" />
    <glyph glyph-name="Identity.260" unicode="&#x2193;" 
d="M977 1720h94v-1671q176 229 385 383l60 -74q-283 -207 -492 -534q-209 328 -492 534l60 74q211 -154 385 -383v1671z" />
    <glyph glyph-name="Identity.261" unicode="&#x21d2;" 
d="M82 426v94h1495q147 145 268 234q-121 86 -268 233h-1495v94h1405q-123 135 -215 275l78 53q117 -178 298 -360t359 -295q-178 -113 -359 -295t-298 -361l-78 54q100 147 215 274h-1405z" />
    <glyph glyph-name="Identity.262" unicode="&#x21d4;" 
d="M471 520h1106q166 162 268 234q-102 72 -268 233h-1106q-166 -162 -268 -233q102 -72 268 -234zM1350 1409q117 -178 298 -360t359 -295q-178 -113 -359 -295t-298 -361l-78 54q100 147 215 274h-926q115 -127 215 -274l-78 -54q-117 178 -298 360t-359 296
q178 113 359 295t298 360l78 -53q-100 -147 -215 -275h926q-115 127 -215 275z" />
    <glyph glyph-name="Identity.263" unicode="&#x2200;" 
d="M1380 870h-710l352 -694h4zM1802 1489l-776 -1514h-4l-776 1514l86 45l289 -567h806l289 567z" />
    <glyph glyph-name="Identity.264" unicode="&#x2202;" 
d="M1087 1507q215 0 347 -165t131 -506q0 -408 -175 -639t-468 -232q-203 0 -321 122q-118 123 -118 351t161 364t384 136q170 0 279 -102v34q0 299 -66 423t-212 124t-298 -131l-41 51q139 170 397 170zM938 41q133 0 241 181t126 528q-91 88 -229 88t-247 -128t-108 -352
q1 -154 57 -236t160 -81z" />
    <glyph glyph-name="Identity.265" unicode="&#x2203;" 
d="M1618 1460v-1413h-1208v94h1114v576h-1114v94h1114v555h-1114v94h1208z" />
    <glyph glyph-name="Identity.266" unicode="&#x2207;" 
d="M1688 1534v-78l-566 -1458h-172l-592 1458v78h1330zM657 1434l471 -1196l455 1196h-926z" />
    <glyph glyph-name="Identity.267" unicode="&#x2208;" 
d="M1772 1399v-94h-742q-303 1 -472 -137t-185 -367h1399v-94h-1399q16 -229 185 -367t472 -137h742v-94h-742q-366 0 -560 181t-194 464t194 464t560 181h742z" />
    <glyph glyph-name="Identity.268" unicode="&#x220b;" 
d="M1018 1305h-742v94h742q366 0 560 -181t194 -464t-194 -464t-560 -181h-742v94h742q303 0 472 137t185 367h-1399v94h1399q-16 229 -185 367t-472 137z" />
    <glyph glyph-name="Identity.269" unicode="&#x221a;" 
d="M420 692v125h387l270 -854l402 1847h151l-497 -2050h-123l-316 932h-274z" />
    <glyph glyph-name="Identity.270" unicode="&#x221d;" 
d="M502 1090q-144 0 -244 -98t-100 -238t99 -238t245 -98t267 80q122 80 239 254v4q-117 174 -239 254t-267 80zM1628 418q176 0 279 135l75 -55q-135 -174 -354 -174q-324 0 -559 352h-2q-238 -352 -565 -352q-184 0 -312 126q-127 126 -127 304t128 304t311 126
q328 0 565 -353h2q236 352 559 353q219 0 354 -174l-75 -56q-102 135 -279 136q-281 0 -502 -334v-4q221 -334 502 -334z" />
    <glyph glyph-name="Identity.271" unicode="&#x221e;" 
d="M1565 420q139 0 232 96t93 238t-93 237q-93 96 -232 96q-267 1 -480 -331v-4q213 -332 480 -332zM158 754q0 -142 93 -238t232 -96q267 0 480 332v4q-213 332 -480 331q-139 0 -232 -96t-93 -237zM485 326q-178 0 -300 124t-122 304t122 304t300 124q315 0 537 -351h4
q221 350 537 351q178 0 300 -124t122 -304t-122 -304t-300 -124q-316 0 -537 350h-4q-221 -350 -537 -350z" />
    <glyph glyph-name="Identity.272" unicode="&#x2220;" 
d="M410 139h1433v-92h-1661v4l1422 1424l69 -70l-1263 -1260v-6z" />
    <glyph glyph-name="Identity.273" unicode="&#x2225;" 
d="M1563 1516l86 -43l-805 -1604l-84 43zM1206 1690l86 -43l-803 -1604l-86 43z" />
    <glyph glyph-name="Identity.274" unicode="&#x2227;" 
d="M1026 1331h-4l-690 -1356l-86 43l776 1516h4l776 -1516l-86 -43z" />
    <glyph glyph-name="Identity.275" unicode="&#x2228;" 
d="M332 1534l690 -1356h4l690 1356l86 -45l-776 -1514h-4l-776 1514z" />
    <glyph glyph-name="Identity.276" unicode="&#x2229;" 
d="M379 772q0 366 181 560t464 194t464 -194t181 -560v-741h-94v741q0 320 -152 490q-151 170 -399 170t-400 -170t-151 -490v-741h-94v741z" />
    <glyph glyph-name="Identity.277" unicode="&#x222a;" 
d="M1024 31q-283 -1 -464 193t-181 560v742h94v-742q0 -319 152 -489q151 -170 399 -170t400 170t151 489v742h94v-742q0 -367 -181 -560t-464 -193z" />
    <glyph glyph-name="Identity.278" unicode="&#x222b;" 
d="M1032 170q0 91 -24 203t-50 224q-120 498 -120 677q0 238 117 373q118 135 276 137q68 0 126 -27t75 -67q-8 -111 -111 -111q-68 0 -139 59l-52 48q-117 -88 -116 -304q0 -101 24 -204q67 -282 84 -363q86 -377 86 -528q0 -227 -116 -370q-117 -142 -277 -142
q-68 1 -126 27t-75 65q4 113 111 113q69 -1 141 -62l49 -45q117 86 117 297z" />
    <glyph glyph-name="Identity.279" unicode="&#x222c;" 
d="M1352 170q0 120 -50 330q-144 599 -145 774q0 238 118 373t275 137q68 0 126 -27t75 -67q-8 -111 -111 -111q-68 0 -139 59l-51 48q-117 -88 -117 -304q1 -89 25 -199q24 -109 49 -215q121 -511 121 -681q0 -227 -117 -369t-276 -143q-68 1 -126 27t-75 65q4 113 110 113
q70 -1 142 -62l49 -45q117 86 117 297zM694 1382q0 -89 24 -199q24 -109 50 -215q121 -511 121 -681q0 -227 -117 -369t-276 -143q-68 1 -126 27t-75 65q4 113 111 113q70 0 141 -62l49 -45q117 86 117 297q-1 120 -51 330q-144 599 -144 774q0 238 118 373t275 137
q68 0 126 -27t75 -67q-8 -111 -111 -111q-67 0 -139 59l-51 48q-117 -88 -117 -304z" />
    <glyph glyph-name="Identity.280" unicode="&#x2234;" 
d="M1397 261q0 63 42 105t104 42q61 0 105 -42t44 -104t-44 -106q-44 -43 -105 -43q-62 0 -104 43t-42 105zM505 113q-62 0 -106 43q-43 43 -43 105q0 63 43 105t105 42t105 -42q42 -42 42 -104t-42 -106q-42 -43 -104 -43zM1024 1087q-63 0 -105 42q-42 43 -42 105t42 105
t105 43t105 -43t42 -105t-42 -104t-105 -43z" />
    <glyph glyph-name="Identity.281" unicode="&#x2235;" 
d="M1397 1246q0 62 42 106t104 43q61 0 105 -43q44 -44 44 -106t-43 -104t-105 -42t-105 42q-42 42 -42 104zM356 1246q0 62 43 106t105 43q62 0 105 -43q42 -44 42 -106t-42 -104t-104 -42t-106 42q-43 42 -43 104zM877 273q0 63 42 105t105 42t105 -42t42 -104t-42 -106
q-42 -43 -105 -43t-105 43t-42 105z" />
    <glyph glyph-name="Identity.282" unicode="&#x223d;" 
d="M1563 1087q-141 1 -257 -75t-239 -280t-263 -304q-140 -102 -318 -102t-301 126q-122 126 -122 304t122 302t300 124q217 0 377 -156l-67 -68q-133 129 -312 129q-137 0 -231 -96t-94 -236q0 -139 94 -237t234 -98t255 76t230 260q135 223 275 324q140 102 318 102
t300 -126q121 -126 121 -304t-121 -302t-299 -124q-217 0 -377 155l67 68q133 -129 312 -129q137 0 230 96t93 236t-93 238q-93 97 -234 97z" />
    <glyph glyph-name="Identity.283" unicode="&#x2252;" 
d="M1382 49q-63 0 -105 43q-42 44 -42 106t42 105t105 43q64 0 106 -43t42 -105t-42 -106q-43 -43 -106 -43zM1741 602v-94h-1434v94h1434zM1741 999v-94h-1434v94h1434zM666 1161q-63 0 -106 43q-42 44 -42 106t42 105t106 43t105 -43q42 -43 42 -105t-42 -106t-105 -43z
" />
    <glyph glyph-name="Identity.284" unicode="&#x2260;" 
d="M1741 496h-768l-144 -392l-90 31l131 361h-563v94h598l119 328h-717v94h750l145 395l90 -33l-133 -362h582v-94h-617l-118 -328h735v-94z" />
    <glyph glyph-name="Identity.285" unicode="&#x2261;" 
d="M1741 459v-94h-1434v94h1434zM1741 801v-94h-1434v94h1434zM1741 1143v-94h-1434v94h1434z" />
    <glyph glyph-name="Identity.286" unicode="&#x2266;" 
d="M246 25h1556v-97h-1556v97zM246 305h1556v-96h-1556v96zM1765 465l-1534 622v5l1534 622l37 -88l-1327 -534v-5l1327 -534z" />
    <glyph glyph-name="Identity.287" unicode="&#x2267;" 
d="M246 -72v97h1556v-97h-1556zM246 209v96h1556v-96h-1556zM1817 1092v-5l-1534 -622l-37 88l1327 534v5l-1327 534l37 88z" />
    <glyph glyph-name="Identity.288" unicode="&#x226a;" 
d="M860 752l1000 -699l-56 -78l-1104 777v4l1106 776l56 -78l-1002 -698v-4zM340 752l997 -699l-53 -78l-1104 777v4l1106 776l53 -78l-999 -698v-4z" />
    <glyph glyph-name="Identity.289" unicode="&#x226b;" 
d="M236 -25l-54 78l1000 699v4l-1002 698l53 78l1108 -776v-4zM758 -25l-53 78l997 699v4l-1002 698l56 78l1106 -776v-4z" />
    <glyph glyph-name="Identity.290" unicode="&#x2282;" 
d="M276 754q0 283 194 464t560 181h742v-94h-742q-319 0 -489 -152q-170 -151 -170 -399t170 -400t489 -151h742v-94h-742q-366 0 -560 181t-194 464z" />
    <glyph glyph-name="Identity.291" unicode="&#x2283;" 
d="M1018 1399q366 0 560 -181t194 -464t-194 -464t-560 -181h-742v94h742q319 -1 489 151t170 400t-170 400t-489 151h-742v94h742z" />
    <glyph glyph-name="Identity.292" unicode="&#x2286;" 
d="M1772 27h-1475v94h1475v-94zM1772 1481v-95h-852q-266 0 -408 -132t-141 -338q0 -206 141 -336q141 -131 408 -131h852v-95h-852q-305 0 -475 160q-169 160 -169 404t169 404t475 159h852z" />
    <glyph glyph-name="Identity.293" unicode="&#x2287;" 
d="M1751 121v-94h-1475v94h1475zM1128 1386h-852v95h852q304 0 474 -160q170 -159 170 -403t-169 -404t-475 -160h-852v95h852q266 0 408 131q141 131 141 337q1 205 -141 337t-408 132z" />
    <glyph glyph-name="Identity.294" unicode="&#x22a5;" 
d="M1843 47h-1638v90h772v1321h94v-1321h772v-90z" />
    <glyph glyph-name="Identity.295" unicode="&#x2312;" 
d="M1024 1599q-502 0 -973 -227l-24 39q438 328 997 328t997 -328l-24 -39q-471 227 -973 227z" />
    <glyph glyph-name="Identity.296" unicode="&#x2500;" 
d="M0 737v82h2048v-82h-2048z" />
    <glyph glyph-name="Identity.297" unicode="&#x2501;" 
d="M0 655v246h2048v-246h-2048z" />
    <glyph glyph-name="Identity.298" unicode="&#x2502;" 
d="M983 -246v2048h82v-2048h-82z" />
    <glyph glyph-name="Identity.299" unicode="&#x2503;" 
d="M901 -246v2048h246v-2048h-246z" />
    <glyph glyph-name="Identity.300" unicode="&#x250c;" 
d="M2048 737h-983v-983h-82v1065h1065v-82z" />
    <glyph glyph-name="Identity.301" unicode="&#x250f;" 
d="M2048 655h-901v-901h-246v1147h1147v-246z" />
    <glyph glyph-name="Identity.302" unicode="&#x2510;" 
d="M1065 -246h-82v983h-983v82h1065v-1065z" />
    <glyph glyph-name="Identity.303" unicode="&#x2513;" 
d="M1147 -246h-246v901h-901v246h1147v-1147z" />
    <glyph glyph-name="Identity.304" unicode="&#x2514;" 
d="M2048 737h-1065v1065h82v-983h983v-82z" />
    <glyph glyph-name="Identity.305" unicode="&#x2517;" 
d="M901 655v1147h246v-901h901v-246h-1147z" />
    <glyph glyph-name="Identity.306" unicode="&#x2518;" 
d="M1065 737h-1065v82h983v983h82v-1065z" />
    <glyph glyph-name="Identity.307" unicode="&#x251b;" 
d="M0 655v246h901v901h246v-1147h-1147z" />
    <glyph glyph-name="Identity.308" unicode="&#x251c;" 
d="M2048 737h-983v-983h-82v2048h82v-983h983v-82z" />
    <glyph glyph-name="Identity.309" unicode="&#x251d;" 
d="M2048 655h-983v-901h-82v2048h82v-901h983v-246z" />
    <glyph glyph-name="Identity.310" unicode="&#x2520;" 
d="M2048 737h-901v-983h-246v2048h246v-983h901v-82z" />
    <glyph glyph-name="Identity.311" unicode="&#x2523;" 
d="M2048 655h-901v-901h-246v2048h246v-901h901v-246z" />
    <glyph glyph-name="Identity.312" unicode="&#x2524;" 
d="M1065 -246h-82v983h-983v82h983v983h82v-2048z" />
    <glyph glyph-name="Identity.313" unicode="&#x2525;" 
d="M1065 -246h-82v901h-983v246h983v901h82v-2048z" />
    <glyph glyph-name="Identity.314" unicode="&#x2528;" 
d="M1147 -246h-246v983h-901v82h901v983h246v-2048z" />
    <glyph glyph-name="Identity.315" unicode="&#x252b;" 
d="M1147 -246h-246v901h-901v246h901v901h246v-2048z" />
    <glyph glyph-name="Identity.316" unicode="&#x252c;" 
d="M2048 737h-983v-983h-82v983h-983v82h2048v-82z" />
    <glyph glyph-name="Identity.317" unicode="&#x252f;" 
d="M2048 655h-983v-901h-82v901h-983v246h2048v-246z" />
    <glyph glyph-name="Identity.318" unicode="&#x2530;" 
d="M2048 737h-901v-983h-246v983h-901v82h2048v-82z" />
    <glyph glyph-name="Identity.319" unicode="&#x2533;" 
d="M2048 655h-901v-901h-246v901h-901v246h2048v-246z" />
    <glyph glyph-name="Identity.320" unicode="&#x2534;" 
d="M2048 737h-2048v82h983v983h82v-983h983v-82z" />
    <glyph glyph-name="Identity.321" unicode="&#x2537;" 
d="M2048 655h-2048v246h983v901h82v-901h983v-246z" />
    <glyph glyph-name="Identity.322" unicode="&#x2538;" 
d="M2048 737h-2048v82h901v983h246v-983h901v-82z" />
    <glyph glyph-name="Identity.323" unicode="&#x253b;" 
d="M2048 655h-2048v246h901v901h246v-901h901v-246z" />
    <glyph glyph-name="Identity.324" unicode="&#x253c;" 
d="M2048 737h-983v-983h-82v983h-983v82h983v983h82v-983h983v-82z" />
    <glyph glyph-name="Identity.325" unicode="&#x253f;" 
d="M2048 655h-983v-901h-82v901h-983v246h983v901h82v-901h983v-246z" />
    <glyph glyph-name="Identity.326" unicode="&#x2542;" 
d="M2048 737h-901v-983h-246v983h-901v82h901v983h246v-983h901v-82z" />
    <glyph glyph-name="Identity.327" unicode="&#x254b;" 
d="M2048 655h-901v-901h-246v901h-901v246h901v901h246v-901h901v-246z" />
    <glyph glyph-name="Identity.328" unicode="&#x25a0;" 
d="M1843 -41h-1638v1638h1638v-1638z" />
    <glyph glyph-name="Identity.329" unicode="&#x25a1;" 
d="M1761 41v1475h-1474v-1475h1474zM1843 -41h-1638v1638h1638v-1638z" />
    <glyph glyph-name="Identity.330" unicode="&#x25b2;" 
d="M61 25l963 1667l963 -1667h-1926z" />
    <glyph glyph-name="Identity.331" unicode="&#x25b3;" 
d="M1024 1528l-821 -1422h1642zM61 25l963 1667l963 -1667h-1926z" />
    <glyph glyph-name="Identity.332" unicode="&#x25bc;" 
d="M1987 1532l-963 -1667l-963 1667h1926z" />
    <glyph glyph-name="Identity.333" unicode="&#x25bd;" 
d="M1845 1450h-1642l821 -1421zM1987 1532l-963 -1667l-963 1667h1926z" />
    <glyph glyph-name="Identity.334" unicode="&#x25c6;" 
d="M1024 1778l999 -1000l-999 -999l-999 999z" />
    <glyph glyph-name="Identity.335" unicode="&#x25c7;" 
d="M1024 1778l999 -1000l-999 -999l-999 999zM1024 1663l-885 -885l885 -884l885 884z" />
    <glyph glyph-name="Identity.336" unicode="&#x25cb;" 
d="M205 778q-1 -340 239 -580t580 -239q340 0 580 240q240 239 240 579t-240 580t-580 240t-580 -240q-239 -240 -239 -580zM1024 -123q-373 0 -637 264t-264 637t264 637t637 264t637 -264t264 -637t-264 -637t-637 -264z" />
    <glyph glyph-name="Identity.337" unicode="&#x25ce;" 
d="M496 778q0 -216 156 -372t372 -156q217 0 373 156q155 156 155 372t-155 373q-156 156 -373 156q-216 0 -372 -156t-156 -373zM205 778q-1 -340 239 -580t580 -239q340 0 580 240q240 239 240 579t-240 580t-580 240t-580 -240q-239 -240 -239 -580zM1024 -123
q-373 0 -637 264t-264 637t264 637t637 264t637 -264t264 -637t-264 -637t-637 -264zM1024 168q-254 0 -432 178t-178 432t178 432t432 178t432 -178t178 -432t-178 -432t-432 -178z" />
    <glyph glyph-name="Identity.338" unicode="&#x25cf;" 
d="M1024 -123q-373 0 -637 264t-264 637t264 637t637 264t637 -264t264 -637t-264 -637t-637 -264z" />
    <glyph glyph-name="Identity.339" unicode="&#x25ef;" 
d="M123 778q0 -373 264 -637t637 -264t637 264t264 637t-264 637t-637 264t-637 -264t-264 -637zM2007 778q0 -266 -132 -492t-358 -358q-227 -132 -493 -133q-266 0 -493 132q-226 133 -358 359t-132 492t132 492t358 359q227 132 493 132t492 -132q226 -133 359 -359
q132 -226 132 -492z" />
    <glyph glyph-name="Identity.340" unicode="&#x2605;" 
d="M1970 991v-4l-581 -422l227 -692h-4l-588 426l-588 -426h-4l227 692l-581 422v4h719l225 690h4l225 -690h719z" />
    <glyph glyph-name="Identity.341" unicode="&#x2606;" 
d="M311 915v-4l441 -315l-177 -526h5l444 325l446 -325h3l-177 526l441 315v4h-543l-168 519h-4l-168 -519h-543zM1970 991v-4l-581 -422l227 -692h-4l-588 426l-588 -426h-4l227 692l-581 422v4h719l225 690h4l225 -690h719z" />
    <glyph glyph-name="Identity.342" unicode="&#x2640;" 
d="M709 1270q0 -131 92 -223q92 -93 223 -93t223 92t92 224q0 131 -92 223t-223 92t-223 -92t-92 -223zM1024 1679q170 1 290 -119t120 -284t-106 -281t-257 -133v-264h600v-94h-600v-627h-94v627h-600v94h600v264q-152 16 -257 133q-106 117 -106 281t120 284t290 119z" />
    <glyph glyph-name="Identity.343" unicode="&#x2642;" 
d="M342 411q0 -131 92 -223t222 -92t223 92q92 92 92 222t-92 223q-93 92 -223 92t-222 -92t-92 -222zM997 1489h738v-737h-90v579l-666 -665q88 -106 88 -265t-120 -279t-290 -120q-169 0 -289 120t-120 290t120 290t275 119q155 0 268 -88l668 666h-582v90z" />
    <glyph glyph-name="Identity.344" unicode="&#x266a;" 
d="M995 1720h52q0 -244 237 -450q264 -228 264 -456t-172 -505h-53q129 270 129 438q0 169 -106 299t-269 166v-1028q1 -154 -111 -251t-264 -97q-76 0 -133 40t-57 112q0 106 113 194t241 88q80 0 129 -26v1476z" />
    <glyph glyph-name="Identity.345" unicode="&#x266d;" 
d="M1292 664q0 180 -162 180q-76 0 -170 -71t-169 -206v-540q61 67 164 157t169 148t117 147q51 91 51 185zM1230 967q132 -1 212 -75t80 -180q0 -202 -144 -335q-116 -108 -260 -196q-270 -163 -389 -304h-18v1802h80v-1003q74 131 190 211q117 80 249 80z" />
    <glyph glyph-name="Identity.346" unicode="&#x266f;" 
d="M1194 604v418l-348 -49v-418zM1274 -61h-80v477l-348 -51v-488h-80v475l-279 -41v191l279 41v418l-279 -41v190l279 41v469h80v-457l348 49v469h80v-456l276 41v-191l-276 -41v-418l276 41v-188l-276 -41v-489z" />
    <glyph glyph-name="Identity.347" unicode="&#x3001;" 
d="M614 -34q0 -62 -30 -95t-82 -33q-74 0 -115 86t-70 137t-94 128t-151 143l20 28q346 -78 477 -266q45 -66 45 -128z" />
    <glyph glyph-name="Identity.348" unicode="&#x3002;" 
d="M374 336q-88 0 -152 -62t-64 -153q0 -89 63 -153t153 -64t152 63q64 63 64 153t-64 152q-64 64 -152 64zM374 -170q-120 0 -205 85t-85 205t85 205t206 85t205 -84t84 -205t-85 -206t-205 -85z" />
    <glyph glyph-name="Identity.349" unicode="&#x3003;" 
d="M1094 315l274 918q27 66 123 24q96 -39 72 -102q-18 -51 -424 -858zM489 315l277 918q27 67 124 25t68 -103q-18 -51 -423 -858z" />
    <glyph glyph-name="Identity.350" unicode="&#x3005;" 
d="M971 977q51 0 184 11q133 12 174 18t78 32t53 27q50 0 140 -83t90 -132q0 -23 -23 -41q-23 -17 -57 -35t-46 -32q-276 -286 -388 -392q92 -63 153 -133q96 -103 96 -165q0 -130 -100 -130q-57 0 -92 50q-12 17 -39 63q-86 145 -197 257t-282 240l26 37q197 -63 351 -161
q201 248 303 450q20 37 -23 37q-109 -4 -323 -35l-48 -12q-31 -8 -49 -8t-69 47q-55 -72 -119 -144q-272 -313 -504 -462l-37 36q238 244 421 504t263 471q17 43 -17 76t-124 76l14 37q156 4 238 -41q53 -27 104 -76q52 -49 52 -79q0 -31 -37 -63t-52 -53
q-72 -110 -133 -192h19z" />
    <glyph glyph-name="Identity.351" unicode="&#x3006;" 
d="M1436 1647l10 30q127 5 193 -31q65 -36 111 -86t67 -96t9 -76q-12 -28 -78 -54q-131 -51 -536 -445q238 -168 349 -320q96 -123 89 -211q-6 -88 -66 -100t-116 61q-172 240 -387 433q-238 -256 -481 -572q-41 -53 -103 -148q-61 -95 -99 -137t-81 -40t-67 57
q-47 102 10 180q56 78 74 158t53 344t53 364q43 231 314 162q172 -47 344 -155q391 414 429 467q38 54 40 76t-25 55q-28 41 -106 84zM518 942q-20 -96 -34 -292t-14 -258q-1 -62 11 -68q13 -6 39 18q26 26 190 206t269 292q-145 121 -272 176q-158 70 -189 -74z" />
    <glyph glyph-name="Identity.352" unicode="&#x3007;" 
d="M188 778q0 -346 245 -591t591 -245t591 246q245 244 245 590t-245 591t-591 245t-591 -245t-245 -591zM1024 -152q-385 0 -657 272t-273 658q0 386 272 658t658 272q385 0 657 -272q273 -272 273 -658t-272 -658t-658 -272z" />
    <glyph glyph-name="Identity.353" unicode="&#x3008;" 
d="M1982 1690l-786 -912l786 -911l-61 -53l-834 964l834 965z" />
    <glyph glyph-name="Identity.354" unicode="&#x3009;" 
d="M66 -133l786 911l-786 912l61 53l834 -965l-834 -964z" />
    <glyph glyph-name="Identity.355" unicode="&#x300a;" 
d="M1450 778l530 -928l-59 -36l-553 964l553 965l59 -37zM1157 778l531 -928l-60 -36l-553 964l553 965l60 -37z" />
    <glyph glyph-name="Identity.356" unicode="&#x300b;" 
d="M127 -186l-59 36l530 928l-530 928l59 37l553 -965zM420 -186l-60 36l531 928l-531 928l60 37l553 -965z" />
    <glyph glyph-name="Identity.357" unicode="&#x300c;" 
d="M1335 416v1321h647v-78h-565v-1243h-82z" />
    <glyph glyph-name="Identity.358" unicode="&#x300d;" 
d="M713 1141v-1321h-647v78h565v1243h82z" />
    <glyph glyph-name="Identity.359" unicode="&#x300e;" 
d="M1925 1679h-610v-1218h192v1034h418v184zM1982 1438h-417v-1035h-308v1334h725v-299z" />
    <glyph glyph-name="Identity.360" unicode="&#x300f;" 
d="M123 -123h610v1219h-192v-1035h-418v-184zM66 119h417v1034h308v-1333h-725v299z" />
    <glyph glyph-name="Identity.361" unicode="&#x3010;" 
d="M1982 -180h-702v1917h702v-35q-250 -114 -394 -352t-144 -572t144 -571t394 -352v-35z" />
    <glyph glyph-name="Identity.362" unicode="&#x3011;" 
d="M604 778q0 334 -144 572t-394 352v35h702v-1917h-702v35q250 115 394 353q144 236 144 570z" />
    <glyph glyph-name="Identity.363" unicode="&#x3012;" 
d="M338 889v160h1372v-160h-600v-869h-172v869h-600zM1710 1294h-1372v160h1372v-160z" />
    <glyph glyph-name="Identity.364" unicode="&#x3013;" 
d="M1843 573v-614h-1638v614h1638zM1843 1597v-614h-1638v614h1638z" />
    <glyph glyph-name="Identity.365" unicode="&#x3014;" 
d="M1946 -186l-476 223v1483l476 223l34 -70l-430 -200v-1389l430 -201z" />
    <glyph glyph-name="Identity.366" unicode="&#x3015;" 
d="M102 -186l-34 69l430 203v1384l-430 203l34 70l476 -223v-1483z" />
    <glyph glyph-name="Identity.367" unicode="&#x301c;" 
d="M563 854q-244 0 -428 -195l-35 31q215 303 529 303q193 0 439 -143t417 -143q238 0 430 196l33 -31q-211 -305 -529 -305q-192 1 -439 144t-417 143z" />
    <glyph glyph-name="Identity.368" unicode="&#x3041;" 
d="M1495 371q0 109 -63 187t-172 97q-70 -186 -271 -409q33 -70 33 -111q0 -68 -70 -67q-49 0 -86 59q-170 -139 -325 -139q-127 0 -127 140t112 275q113 135 279 220q8 70 26 196q-93 -8 -163 -8q-139 0 -197 182l18 17q111 -76 224 -76q49 0 139 8q14 104 14 140t-26 46
t-92 23v25q74 34 124 34t114 -30t65 -60q0 -20 -24 -53t-30 -61l-10 -39q124 29 208 68q85 40 93 40q121 0 121 -67q0 -49 -57 -70q-150 -59 -394 -102q-20 -88 -28 -160q113 37 241 43q1 47 -65 88l14 20q94 -16 137 -61q23 -23 19 -51q174 -23 279 -133t106 -254
q0 -229 -200 -340t-546 -115l-6 31q293 55 440 178q146 123 146 289zM586 137q90 0 237 107q-38 146 -24 293q-113 -73 -183 -175t-69 -180q0 -45 39 -45zM918 486q0 -60 26 -134q150 164 213 312q-115 -6 -235 -60q-4 -58 -4 -118z" />
    <glyph glyph-name="Identity.369" unicode="&#x3042;" 
d="M1851 489q1 -149 -71 -263q-134 -212 -508 -288q-174 -36 -389 -40l-9 43q387 63 588 219t201 379q0 145 -89 251t-245 132q-106 -262 -368 -545q45 -98 45 -146q0 -76 -82 -75q-61 0 -105 86q-227 -186 -426 -187q-76 0 -118 44t-42 128q0 191 151 367t364 285
q18 154 36 270q-94 -12 -198 -12t-168 51t-113 166l27 24q80 -57 142 -79q108 -38 333 -9q20 136 20 176t-8 51q-17 24 -149 50v35q82 34 148 34t145 -39q80 -39 79 -75q0 -25 -28 -64t-37 -78l-16 -63q183 41 358 122q51 24 61 23q141 0 142 -78q0 -53 -66 -79
q-193 -82 -528 -136q-27 -119 -41 -231q160 55 336 61q2 60 -90 119l16 27q129 -25 182 -80q29 -35 23 -72q227 -29 362 -173t135 -331zM444 225q133 0 328 154q-35 150 -35 317q0 49 2 78q-158 -102 -256 -240t-98 -241q0 -68 59 -68zM872 743q0 -131 35 -239
q213 229 295 426q-158 -6 -325 -82q-5 -74 -5 -105z" />
    <glyph glyph-name="Identity.370" unicode="&#x3043;" 
d="M1683 406q0 -145 -100 -146q-61 0 -78 57q-4 11 -18 111t-43 176q-68 180 -246 262l8 27q115 -8 192 -44t150 -106q135 -127 135 -337zM471 801q0 125 -119 217l8 20q86 0 144 -24t110 -80q53 -57 54 -105q0 -18 -38 -129t-38 -217t39 -171t81 -84t64 10q51 74 162 278
l31 -14q-68 -242 -71 -299t8 -91t12 -53q0 -51 -48 -70t-116 7q-111 46 -194 158t-93 288q-8 31 -2 188t6 171z" />
    <glyph glyph-name="Identity.371" unicode="&#x3044;" 
d="M1886 569q0 -164 -117 -163q-70 0 -88 75q-6 23 -23 146t-71 243q-92 213 -321 310l14 41q146 -17 242 -65t183 -134t134 -210t47 -243zM309 1108q0 88 -34 148t-125 130l14 27q104 -4 166 -29q76 -36 142 -104t65 -131q-1 -31 -47 -174t-46 -285t56 -236
q56 -95 125 -126q47 -23 75 16q72 100 205 369l47 -21q-100 -318 -106 -386t8 -111t14 -60q0 -59 -53 -83t-128 7q-138 57 -256 205t-130 404q-4 90 2 250t6 190z" />
    <glyph glyph-name="Identity.372" unicode="&#x3045;" 
d="M1001 1155q43 0 93 9t57 10q57 0 113 -34t55 -75q0 -53 -76 -53q-77 0 -151 -14t-299 -93l-13 25q125 75 191 119q-195 29 -264 168l14 14q109 -76 280 -76zM698 692q30 0 186 58q155 58 246 59q142 0 226 -98t84 -267q0 -520 -752 -608l-8 33q582 160 582 598
q0 121 -38 191t-110 69q-105 0 -308 -181q-52 -48 -93 -48t-88 47t-61 93t16 146l24 4q14 -36 39 -66t55 -30z" />
    <glyph glyph-name="Identity.373" unicode="&#x3046;" 
d="M1204 1585q70 0 134 -37t65 -86q0 -57 -91 -58q-90 -1 -188 -23t-374 -126l-19 35q164 93 246 148q-145 26 -209 65q-31 19 -74 57t-71 87l22 24q154 -109 377 -108q47 0 108 11t74 11zM602 958q37 0 243 79t329 79q178 0 283 -125t106 -340q0 -341 -248 -539t-711 -257
l-14 45q770 201 770 778q0 160 -54 251t-151 91q-135 0 -381 -191q-8 -7 -33 -29q-68 -61 -119 -62q-52 0 -110 56t-77 109q-18 53 11 174l33 8q20 -55 53 -91t70 -36z" />
    <glyph glyph-name="Identity.374" unicode="&#x3047;" 
d="M1151 1167q55 0 101 -39t46 -93t-69 -54q-23 0 -67 3t-80 1t-253 -57l-10 26q117 57 172 88q-176 49 -256 181l21 18q135 -88 272 -92q37 0 76 9t47 9zM690 731q106 0 416 90q16 5 40 21t38 16q46 0 116 -46t70 -93q0 -17 -16 -31t-52 -32t-70 -40q-34 -20 -127 -97
t-157 -140q58 12 104 12q46 1 83 -27t49 -75q31 -127 41 -162t30 -51t84 -16q65 0 131 16q66 18 104 18t77 -27q39 -28 39 -71q0 -100 -332 -100q-133 0 -192 38q-58 39 -73 133t-24 177q-13 76 -77 76t-145 -80q-81 -78 -214 -263q-53 -70 -105 -69q-32 0 -56 22t-24 67
q0 46 24 74q23 27 142 135q118 108 260 238q142 132 238 242q22 27 12 40t-43 3q-104 -27 -233 -100q-14 -10 -50 -38t-77 -28t-90 41q-95 79 -62 203l21 6q51 -82 100 -82z" />
    <glyph glyph-name="Identity.375" unicode="&#x3048;" 
d="M1202 1567q60 0 116 -44t56 -102q0 -29 -22 -48t-54 -19q-33 0 -85 3q-51 3 -95 1t-336 -82l-16 39q143 63 235 110q-231 63 -342 230l25 24q186 -125 371 -131q41 0 87 10t60 9zM1460 1010q0 -20 -19 -36t-65 -41t-89 -53q-44 -28 -169 -136t-211 -191q55 14 129 14
q133 0 172 -127q6 -22 18 -68t22 -82q30 -121 61 -148q31 -28 122 -28t182 24q91 22 113 22q70 0 114 -31t44 -78q0 -121 -430 -121q-170 0 -242 50t-94 172q-37 219 -39 231q-18 98 -106 98t-185 -92q-98 -89 -244 -280q-48 -63 -61 -80q-59 -78 -118 -78q-37 -1 -63 23
t-26 82t47 107q18 20 189 177q486 445 645 633q27 33 15 47t-50 4q-160 -41 -346 -133q-23 -12 -62 -43t-73 -31q-70 0 -130 50q-61 51 -79 107t0 138l31 8q57 -109 123 -108q129 0 549 116q23 6 53 26t49 22q57 0 140 -56t83 -110z" />
    <glyph glyph-name="Identity.376" unicode="&#x3049;" 
d="M1668 659q-28 0 -66 24q-37 24 -66 22t-127 -37l-14 20q102 68 118 88q29 29 9 62q-35 54 -111 80t-158 22l-2 27q111 39 219 23t184 -85q77 -70 79 -155q3 -37 -17 -64t-48 -27zM879 514v-49q219 98 387 98t263 -83t95 -221t-94 -228t-248 -90q-188 0 -299 209l21 18
q104 -92 220 -92t179 60q61 60 61 152t-56 150t-182 58t-345 -129q4 -131 13 -225t9 -111q0 -61 -38 -119t-83 -57q-23 0 -37 17t-31 47q-33 58 -171 161l-21 -24t-20 -22t-16 -14q-42 -37 -91 13q-49 49 -49 99t11 64t50 13q39 -2 89 20q14 8 111 76t161 103v258
q-110 -25 -176 -25t-119 43t-88 156l23 14q55 -52 91 -68q76 -35 269 19v217q0 33 -6 44q-16 29 -139 40l-5 20q76 58 142 58t128 -34q64 -34 64 -67q0 -20 -25 -66t-36 -169q46 19 96 47q51 28 62 29q121 0 122 -68q3 -47 -63 -80t-225 -82q-4 -123 -4 -180zM717 59
q43 -10 45 31q6 90 6 201q-88 -68 -190 -176q84 -38 139 -56z" />
    <glyph glyph-name="Identity.377" unicode="&#x304a;" 
d="M1329 1286l-4 43q328 93 516 -87q96 -91 101 -198q2 -42 -20 -72t-54 -32t-77 25q-44 27 -80 23t-165 -52l-18 31q129 84 158 112q33 37 8 80q-95 139 -365 127zM823 729v-74q293 141 541 142q196 0 316 -108t120 -283q0 -174 -120 -290t-318 -116q-240 0 -389 250l28 29
q137 -123 318 -123q137 0 219 80t82 202t-76 199q-76 76 -229 76q-199 0 -490 -174q5 -168 21 -292t16 -147q0 -76 -45 -144t-98 -69q-27 -1 -44 19t-38 58q-42 81 -246 218q-10 -10 -23 -24l-20 -20l-16 -17q-31 -31 -65 -31q-33 0 -77 45t-44 103t12 73q14 16 55 15
q61 -8 105 17t174 115q129 90 206 134v358q-139 -35 -228 -35q-89 1 -157 51t-116 191l30 23q76 -72 121 -95q96 -49 350 23v309q0 39 -9 52q-26 38 -177 44l-4 35q151 101 326 14q84 -42 84 -83q0 -29 -20 -77t-30 -88q-8 -40 -22 -157q59 25 134 66q75 42 89 43
q133 0 137 -78q0 -53 -73 -92q-80 -39 -302 -111q-8 -172 -8 -256zM698 176v281q-98 -72 -264 -234q154 -70 209 -88t55 41z" />
    <glyph glyph-name="Identity.378" unicode="&#x304b;" 
d="M1929 598q1 -82 -29 -133t-75 -52t-78 36t-61 45q-78 20 -232 12l-10 43q172 39 217 56t57 37t11 60q-4 129 -76 236q-88 133 -254 170l16 43q231 -23 373 -164t141 -389zM1294 793q0 -203 -54 -398t-153 -309q-102 -123 -258 -123q-55 0 -79 25t-43 90q-16 47 -134 160
l21 28q184 -102 242 -102q88 0 149 85t106 263q44 178 44 309t-31 175q-32 44 -96 44t-174 -28q-287 -678 -480 -987q-49 -84 -112 -84q-33 -1 -59 29q-25 30 -25 85t41 109q170 211 315 504q61 119 127 282q-105 -39 -195 -78q-90 -38 -131 -38t-93 56t-63 112t15 133l33 6
q2 -3 9 -19t10 -21q4 -5 10 -17t10 -17q4 -4 10 -13q19 -28 60 -28q42 0 382 72q94 250 94 304t-30 73q-37 20 -154 38v37q86 41 161 41t170 -48t95 -91q0 -28 -33 -72t-43 -69l-73 -181q90 14 151 15q258 0 258 -352z" />
    <glyph glyph-name="Identity.379" unicode="&#x304c;" 
d="M1991 1380q0 -66 -60 -65q-31 0 -73 56q-18 24 -29 34q-78 98 -187 178l21 31q328 -84 328 -234zM1372 1092l17 43q231 -23 372 -164t142 -389q0 -82 -30 -133t-85 -54q-35 0 -68 37t-61 45q-78 20 -232 12l-10 43q171 38 217 56t58 38t10 60q-4 129 -76 236
q-88 133 -254 170zM1010 1128q258 0 258 -352q0 -204 -54 -398t-155 -312q-100 -118 -256 -119q-55 1 -80 25t-43 89q-16 47 -133 160l20 29q184 -102 242 -103q88 0 149 85q62 86 106 264t44 309t-31 175t-95 44t-175 -29q-287 -677 -479 -987q-49 -84 -113 -84
q-33 0 -59 30t-25 85q0 55 41 108q170 211 315 504q61 119 127 283q-104 -40 -140 -56t-93 -38q-56 -22 -95 -23q-38 0 -90 56q-52 57 -64 113t15 132l33 6q2 -4 9 -19t11 -21t9 -17q6 -12 10 -16q4 -3 10 -13q7 -10 13 -13t17 -9t42 -6t371 71q94 251 94 305t-34 73
t-150 38v37q86 41 160 41t170 -48q95 -48 96 -91q0 -29 -33 -73t-43 -69l-74 -180q90 14 152 14zM1452 1446l25 33q180 -61 251 -125t70 -125q0 -29 -17 -47t-48 -18t-86 75l-9 10q-84 119 -186 197z" />
    <glyph glyph-name="Identity.380" unicode="&#x304d;" 
d="M891 1645q174 0 186 -89q17 -121 37 -200q134 41 246 108q31 18 41 19q141 0 141 -72q0 -43 -53 -76q-88 -59 -328 -129q47 -129 96 -223l86 31q118 41 176 73q57 31 68 31q141 12 142 -71q0 -49 -54 -82q-127 -76 -332 -136q66 -102 139 -184q72 -82 106 -120t34 -66
q0 -66 -33 -120t-68 -54t-57 11t-64 39q-210 142 -474 142q-158 0 -255 -60t-98 -155q0 -197 406 -196q94 0 177 12t135 12t91 -22t39 -68q0 -117 -415 -117q-238 0 -402 87t-164 251q0 141 142 239t397 99q188 0 395 -49q18 -6 22 -1q3 5 -5 19q-145 213 -177 269
q-266 -59 -509 -60q-139 -1 -217 55t-62 141t133 165l31 -27q-84 -84 -53 -135t200 -51t398 61q-72 152 -103 230q-184 -39 -320 -39t-218 45t-152 180l27 18q86 -59 148 -82q140 -52 456 19q-29 72 -46 121t-37 65q-43 35 -188 35l-6 33q96 74 195 74z" />
    <glyph glyph-name="Identity.381" unicode="&#x304e;" 
d="M1997 1480q0 -67 -60 -67q-23 1 -37 15l-20 20q-6 6 -21 26q-86 117 -210 207l20 31q178 -49 254 -106q74 -59 74 -126zM1789 1294q-17 -18 -43 -18t-62 42q-9 11 -35 48q-87 119 -185 197l23 30q180 -59 256 -133q66 -57 63 -119q0 -29 -17 -47zM1495 1407
q0 -43 -53 -76q-88 -59 -328 -129q47 -129 96 -223l86 31q118 41 176 73q57 31 68 31q141 12 141 -72q0 -49 -53 -81q-127 -76 -332 -136q66 -102 139 -184t107 -120t33 -66q0 -66 -33 -120t-68 -54q-36 0 -58 11t-64 39q-210 142 -473 142q-158 0 -255 -60t-98 -155
q0 -197 406 -197q94 1 177 13t135 12t91 -23t39 -67q0 -117 -416 -117q-238 0 -402 87t-163 251q-1 141 141 239t398 99q188 0 395 -49q35 -12 16 18q-145 213 -176 269q-266 -59 -510 -60q-139 0 -217 55q-78 54 -62 140t134 166l31 -27q-83 -84 -53 -135t200 -51t397 61
q-72 152 -102 229q-378 -80 -539 7q-82 45 -151 180l27 18q86 -59 148 -82q140 -52 456 19q-29 72 -46 121q-16 49 -36 65q-43 35 -189 35l-6 33q96 74 195 73q174 0 186 -88q19 -136 37 -200q126 39 246 108q31 18 41 19q141 0 141 -72z" />
    <glyph glyph-name="Identity.382" unicode="&#x304f;" 
d="M1116 1481q0 57 -108 143l22 33q94 -10 160 -44t122 -101t56 -106t-34 -68q-11 -10 -45 -32t-96 -68t-218 -179q-157 -133 -227 -203t-70 -102t72 -88q204 -147 277 -205q374 -297 374 -479q0 -51 -29 -85q-30 -34 -92 -34t-94 63q-8 14 -38 71t-63 107
q-123 186 -485 496q-78 66 -78 125t54 123t252 276q198 210 243 268t45 89z" />
    <glyph glyph-name="Identity.383" unicode="&#x3050;" 
d="M1065 1477q0 57 -109 143l23 33q93 -10 159 -44t122 -101t57 -106q0 -39 -34 -68q-11 -10 -45 -32t-96 -68t-219 -179t-227 -203t-70 -102t72 -88q215 -155 283 -209q367 -292 369 -476q0 -51 -29 -85t-91 -34t-95 64q-8 14 -38 71t-63 107q-123 186 -485 496
q-78 66 -78 125t54 123t252 276t243 268t45 89zM1817 1118q1 -29 -17 -47t-46 -18t-54 32t-47 60q-88 104 -191 186l25 33q178 -55 254 -117q76 -55 76 -129zM1568 879q-49 0 -69 35q-21 35 -39 53q-94 127 -186 209l24 30q172 -58 250 -130t76 -128q0 -31 -18 -50
q-20 -19 -38 -19z" />
    <glyph glyph-name="Identity.384" unicode="&#x3051;" 
d="M1357 1583q73 0 153 -41t81 -88q0 -12 -19 -69t-11 -240q137 50 167 67q29 17 35 17q51 0 93 -26t42 -64q0 -57 -73 -90q-96 -43 -256 -82q16 -145 10 -365t-55 -338q-66 -164 -201 -256t-346 -153l-19 36q160 87 256 191t144 268q59 172 41 584q-115 -16 -213 -16
q-240 0 -361 233l25 27q168 -106 313 -107q88 0 228 29q-11 227 -19 281t-45 69q-32 16 -141 39l-4 37q102 57 175 57zM610 59q0 -84 -88 -84q-72 0 -129 101q-119 199 -119 493q0 147 64 405t63 339q0 109 -114 233l24 27q74 -23 140 -64q53 -37 107 -109t54 -130
q0 -59 -67 -187q-141 -279 -142 -483q0 -123 35 -192q25 -47 51 -2q56 84 185 403l45 -18q-141 -427 -143 -526q0 -48 16 -108q18 -60 18 -98z" />
    <glyph glyph-name="Identity.385" unicode="&#x3052;" 
d="M1706 1690l25 28q162 -58 225 -120t62 -122t-60 -61q-25 0 -52 38q-4 7 -18 27q-94 136 -182 210zM1565 1430q0 -12 -19 -69t-12 -241q116 42 156 63q39 21 47 21q51 0 93 -26t42 -64q0 -57 -74 -90q-96 -43 -256 -82q16 -145 10 -364t-55 -338q-66 -164 -201 -256
t-346 -154l-18 37q160 88 256 191t143 268q59 172 41 583q-115 -16 -213 -16q-240 0 -360 233l24 27q168 -106 314 -106q88 0 227 28q-12 227 -19 281t-45 69q-32 16 -141 39l-4 37q102 57 175 57t154 -40q81 -41 81 -88zM549 240q0 -48 17 -108t18 -97q0 -84 -88 -84
q-72 0 -129 100q-119 199 -119 494q0 147 63 404t63 353t-114 220l25 26q74 -23 139 -63q53 -37 107 -109q55 -72 55 -131t-68 -186q-141 -279 -141 -484q0 -123 35 -192q25 -47 51 -2q55 84 184 403l45 -18q-143 -430 -143 -526zM1548 1567l27 28q160 -70 219 -138t57 -126
q-4 -61 -63 -57q-28 0 -47 35q-6 11 -17 27t-18 30q-78 127 -158 201z" />
    <glyph glyph-name="Identity.386" unicode="&#x3053;" 
d="M920 1356q138 0 252 24q112 24 160 25q48 0 126 -36q76 -36 76 -83q0 -66 -92 -84q-164 -33 -219 -51q-152 -43 -465 -190l-23 34q121 82 271 195q29 23 -9 22q-195 4 -309 46t-188 176l26 26q94 -64 175 -84t219 -20zM582 295q102 -127 393 -127t482 62q69 22 105 22
t90 -29q52 -29 52 -73t-20 -66t-80 -41q-190 -68 -575 -68q-385 1 -528 173t-65 475l47 2q5 -115 25 -190t74 -140z" />
    <glyph glyph-name="Identity.387" unicode="&#x3054;" 
d="M1765 1311q0 -29 -17 -46t-48 -17t-105 104q-74 102 -172 180l23 33q319 -107 319 -254zM1952 1458q0 -63 -58 -63q-32 0 -78 61q-84 112 -210 207l22 29q324 -84 324 -234zM1493 1262q0 -66 -92 -84q-164 -33 -219 -52q-152 -43 -465 -190l-23 35q121 82 271 194
q29 23 -9 23q-194 4 -308 46t-189 175l26 27q94 -64 175 -84q82 -20 220 -20t250 24q112 25 138 24q72 0 148 -36t77 -82zM541 270q102 -127 391 -127t484 63q70 22 106 22t89 -29q52 -29 52 -73q-1 -44 -21 -66t-79 -42q-190 -68 -575 -68t-528 173q-143 172 -65 475l47 2
q4 -116 24 -190t75 -140z" />
    <glyph glyph-name="Identity.388" unicode="&#x3055;" 
d="M549 352q0 -116 120 -182t339 -66q82 0 178 12t142 11q46 0 86 -25t40 -73q0 -117 -385 -117q-291 0 -476 102t-185 284t161 297q161 116 383 116t443 -60q18 -4 20 0t-10 19q-133 150 -291 385q-252 -76 -423 -77t-250 56t-160 211l32 27q100 -82 171 -111
q70 -29 206 -27t338 64q-108 198 -130 230t-70 44t-148 17l-6 35q115 72 196 72t138 -22t65 -54q53 -178 96 -273q127 49 223 116t103 69q92 20 139 -29q18 -23 14 -53t-30 -56q-109 -98 -369 -194q111 -182 355 -418q66 -66 66 -117t-26 -106t-64 -55t-64 14q-27 16 -53 34
q-259 174 -535 175q-166 0 -272 -80t-107 -195z" />
    <glyph glyph-name="Identity.389" unicode="&#x3056;" 
d="M2009 1483q0 -63 -59 -64q-24 1 -37 15q-14 14 -21 20q-6 6 -21 26q-87 119 -210 208l20 30q328 -89 328 -235zM1760 1276q-30 0 -104 104t-173 181l22 32q185 -66 253 -128t69 -126q-1 -29 -19 -46t-48 -17zM820 1573q80 0 138 -22q57 -22 66 -54q53 -178 96 -272
q127 49 222 115t104 69q92 20 139 -29q18 -24 13 -54t-29 -54q-109 -98 -369 -195q111 -182 354 -418q66 -67 67 -117t-26 -106t-65 -55q-38 0 -68 17q-29 17 -90 59q-246 147 -493 147q-167 0 -273 -80t-106 -194t120 -182q120 -67 338 -66q82 0 178 11t143 11q46 0 86 -24
t40 -74q0 -117 -385 -117q-291 1 -476 103q-186 102 -186 284t162 296q162 116 384 116t442 -59q18 -4 20 0t-10 18q-133 150 -291 385q-252 -76 -423 -77t-250 57t-161 211l33 26q100 -83 171 -111t206 -26t338 64q-109 198 -131 230t-69 44q-48 12 -148 16l-6 35
q115 72 195 72z" />
    <glyph glyph-name="Identity.390" unicode="&#x3057;" 
d="M698 438q0 -186 66 -261t240 -75q227 0 440 121t342 299l41 -26q-111 -260 -334 -424t-510 -164q-219 0 -331 121t-111 391q0 172 22 504q23 332 23 390t-10 88t-43 54t-127 53v37q100 31 149 29q88 -2 190 -77t103 -132q0 -25 -30 -73t-40 -101q-80 -403 -80 -754z" />
    <glyph glyph-name="Identity.391" unicode="&#x3058;" 
d="M821 1362q1 -25 -29 -73t-40 -101q-80 -403 -80 -754q0 -186 66 -261t239 -75q227 0 440 121t342 299l41 -26q-111 -260 -334 -424t-510 -164q-218 0 -330 121t-112 391q0 172 23 504t23 389t-11 88q-10 31 -43 55t-127 53v37q100 31 149 29q88 -2 190 -77t103 -132z
M1577 1104q-34 0 -66 40q-12 15 -38 50q-86 119 -216 207l23 31q176 -43 268 -118q92 -74 92 -142t-63 -68zM1368 920q-38 0 -116 110t-189 199l22 31q170 -49 277 -146q76 -68 74 -131q-5 -63 -68 -63z" />
    <glyph glyph-name="Identity.392" unicode="&#x3059;" 
d="M1935 1202q0 -67 -71 -67q-31 0 -120 12q-88 12 -190 17t-315 -9v-313q86 -98 86 -283q0 -289 -203 -466t-542 -238l-21 45q428 154 535 424q-150 -53 -255 42q-105 94 -105 240t79 235q80 89 203 89q35 0 84 -8q-6 160 -10 217q-400 -51 -607 -135q-63 -27 -109 -27
t-113 58q-67 57 -83 109t-16 142l35 14q37 -49 55 -69q51 -57 99 -57t168 12t306 36t258 31q-14 168 -16 187q-4 46 -48 62t-138 26l-4 35q95 59 171 59t156 -33t80 -76q0 -29 -20 -81t-21 -160l475 63q76 0 147 -38t70 -95zM992 831q-68 0 -114 -55t-46 -135t44 -131
q45 -51 118 -51t106 43t33 135t-36 143t-105 51z" />
    <glyph glyph-name="Identity.393" unicode="&#x305a;" 
d="M1880 1444q-31 0 -90 84q-6 8 -23 31q-59 85 -139 149l23 31q174 -59 234 -113t61 -119q0 -29 -18 -46t-48 -17zM1925 1171q0 -67 -71 -67q-31 0 -120 12q-88 12 -190 18t-315 -10v-313q86 -98 86 -283q0 -289 -203 -466t-543 -238l-20 45q428 154 534 424
q-150 -53 -255 42t-105 241t80 234q80 89 203 89q35 0 84 -8q-6 160 -11 217q-260 -33 -506 -98q-37 -10 -100 -37t-109 -27t-113 58t-83 110q-16 51 -16 141l34 15q38 -50 56 -70q52 -58 99 -57q48 0 168 12t306 36t258 32q-14 168 -16 186q-5 45 -49 61t-138 27l-4 35
q96 59 172 59q76 -1 156 -33t80 -75q0 -29 -18 -73t-20 -79q-3 -35 -3 -90l475 64q76 0 146 -38t71 -96zM984 428q73 0 106 43q32 43 32 135t-36 144t-104 51q-68 1 -115 -55q-46 -56 -46 -136t45 -131t118 -51zM1684 1381q-18 -17 -46 -17q-29 0 -58 40q-119 171 -191 236
l22 31q289 -103 291 -244q0 -29 -18 -46z" />
    <glyph glyph-name="Identity.394" unicode="&#x305b;" 
d="M1308 1599q70 0 154 -55t84 -104q0 -14 -22 -54t-25 -79q-12 -160 -14 -199q231 51 297 51t128 -34q60 -34 60 -95q0 -72 -108 -72q-12 0 -133 10t-165 3q-44 -6 -85 -10q-12 -301 -43 -410q-18 -76 -64 -122t-108 -46q-63 0 -90 63q-14 31 -52 63t-66 47t-87 46l12 37
q185 -51 229 -51t60 11t31 69t24 270q-297 -51 -545 -127q-16 -338 -11 -471t55 -173t218 -40t334 30t168 29q66 0 112 -26t46 -76q0 -68 -123 -98t-411 -29q-288 0 -412 67q-123 67 -131 248q-2 20 -7 484q-82 -31 -202 -82t-160 -51q-41 0 -93 47q-51 47 -73 96t-18 141
l28 13q70 -100 138 -101q31 0 380 84q0 342 -22 377q-10 16 -34 28t-120 27l-4 37q108 47 174 47t150 -54t84 -103q0 -18 -20 -54t-27 -81q-6 -44 -15 -181q272 68 545 127q4 229 -2 354q-2 49 -59 64q-29 8 -121 20l-2 35q93 53 163 53z" />
    <glyph glyph-name="Identity.395" unicode="&#x305c;" 
d="M1722 1657q309 -114 291 -238q0 -66 -61 -65q-25 0 -51 39q-6 8 -18 25q-74 115 -185 208zM1276 1585q70 0 154 -55t83 -105q1 -14 -21 -53t-26 -80q-12 -160 -14 -198q231 51 298 51t127 -34t60 -95q0 -72 -108 -72q-12 0 -133 9t-165 3t-85 -10q-12 -301 -43 -409
q-17 -76 -63 -122t-109 -46t-90 63q-14 31 -51 63t-66 47t-88 46l12 37q184 -51 228 -51t61 10q15 12 31 70t24 270q-297 -51 -544 -127q-16 -338 -12 -471t56 -173q50 -40 218 -40q168 -1 334 29t167 30q66 0 112 -27t46 -75q0 -68 -108 -95q-137 -33 -426 -33t-412 68
q-123 66 -131 248q-2 20 -6 483q-82 -31 -202 -81t-161 -51t-93 46t-74 97t-17 141l29 12q70 -100 137 -100q31 0 381 84q0 338 -23 377q-10 16 -34 28t-119 27l-4 37q109 47 174 47t149 -54t84 -104q0 -18 -20 -54q-21 -36 -27 -80t-14 -181q272 68 544 127q4 229 -2 354
q-2 49 -59 64q-29 8 -121 20l-2 35q94 53 164 53zM1544 1495l25 29q154 -66 221 -140q59 -61 55 -118q-4 -66 -63 -64q-28 0 -58 44q-8 13 -56 94t-124 155z" />
    <glyph glyph-name="Identity.396" unicode="&#x305d;" 
d="M1468 1405q0 -34 -41 -56q-41 -21 -77 -53t-250 -201q-213 -169 -389 -331q-6 -8 -4 -12q3 -6 407 112q404 119 484 119t148 -33t66 -86q0 -74 -120 -73q-8 0 -76 2t-153 -2t-212 -35t-202 -84q-170 -127 -169 -323t277 -243q61 -10 149 -10t116 -5q30 -5 63 -41t33 -73
q0 -92 -154 -92t-289 36t-226 133t-91 245q0 213 205 391q16 16 12 22t-25 1q-240 -72 -381 -156q-45 -27 -97 -65t-81 -54q-29 -14 -63 -14t-73 41q-38 41 -38 82q0 63 62 86q137 45 182 67q125 61 291 226q104 98 240 246t196 243q16 25 9 33t-34 -4q-94 -25 -206 -81
t-158 -86t-90 -30q-45 0 -118 70t-73 139q-2 47 29 123l24 6q75 -141 115 -141q92 -4 432 94q37 12 70 36t53 23q55 1 141 -69t86 -123z" />
    <glyph glyph-name="Identity.397" unicode="&#x305e;" 
d="M1489 1309l22 30q156 -57 242 -133q68 -66 66 -127q-3 -31 -21 -49t-49 -16t-82 82q-4 6 -6 10q-82 125 -172 203zM1657 1444l20 29q178 -51 256 -117q72 -66 70 -129q-3 -29 -21 -46t-40 -18q-35 -1 -78 61q-91 133 -207 220zM1423 1401q0 -34 -41 -56q-42 -21 -78 -53
t-249 -201t-389 -331q-13 -17 6 -15q86 23 297 85t369 106t226 43q68 0 136 -33t67 -86q0 -74 -120 -74q-8 0 -76 2q-189 6 -341 -31q-151 -36 -226 -89q-170 -127 -169 -323t277 -243q60 -10 148 -10t118 -5t62 -41q33 -36 33 -73q0 -92 -154 -92t-289 36t-226 133t-91 245
q0 213 205 391q16 16 12 22t-25 1q-240 -72 -381 -156q-45 -27 -97 -66t-81 -53q-30 -14 -64 -14t-72 41t-38 82q0 63 61 86q135 45 183 67q125 61 291 226q104 98 240 246t196 243q16 25 9 33t-34 -4q-94 -25 -206 -81t-158 -86t-90 -30q-45 0 -118 70t-73 139
q-2 47 29 123l24 6q75 -141 115 -141q47 -2 184 30t248 64q37 12 70 36t53 23q55 1 141 -69t86 -123z" />
    <glyph glyph-name="Identity.398" unicode="&#x305f;" 
d="M1858 63q0 -125 -434 -123q-190 0 -320 80q-131 78 -160 232q-24 80 -16 213l41 4q18 -119 65 -188q102 -156 367 -156q115 0 211 19t102 20q56 0 100 -26t44 -75zM1196 1364q31 0 72 -23t41 -61t-33 -65q-33 -26 -121 -58q-123 -51 -334 -102q-51 -176 -90 -289
q-243 -721 -350 -819q-25 -23 -65 -23t-66 36t-25 77q0 41 8 63t35 60q195 282 328 661q39 111 61 199q-119 -18 -214 -18t-165 48q-70 50 -118 189l28 21q76 -59 129 -82q111 -48 379 2q62 256 41 302q-21 45 -159 87l2 37q157 58 308 -12q77 -36 77 -74q0 -24 -29 -94
t-43 -119l-23 -80q117 39 232 98q63 39 94 39zM1336 893q-101 0 -263 -29l-12 37q185 109 383 109t297 -54q82 -48 82 -114t-111 -72q-111 0 -369 -104l-22 30q147 92 195 144q20 18 -9 28q-70 25 -171 25z" />
    <glyph glyph-name="Identity.399" unicode="&#x3060;" 
d="M1642 1608q326 -90 326 -232q0 -66 -59 -67q-23 0 -37 14t-21 20q-6 7 -21 27q-80 110 -208 207zM1819 45q1 -123 -433 -123q-190 0 -321 79t-160 232q-24 80 -16 213l41 5q18 -119 65 -189q102 -156 367 -156q115 0 211 20t102 19q55 0 100 -25q44 -26 44 -75z
M1157 1346q31 0 72 -23t41 -61t-33 -65q-33 -26 -121 -58q-123 -51 -334 -103q-51 -176 -90 -288q-244 -724 -349 -820q-26 -22 -66 -22q-39 0 -65 36t-26 77t8 63t36 60q195 283 327 661q39 111 61 198q-119 -18 -214 -18q-96 0 -166 49t-117 189l29 20q76 -59 129 -82
q108 -47 378 2q62 256 41 302t-159 87l2 37q158 59 308 -11q77 -36 77 -75q0 -23 -29 -93t-43 -120l-23 -80q117 39 232 99q63 39 94 39zM1784 823q0 -66 -111 -71q-53 0 -127 -23q-78 -16 -241 -82l-23 31q147 92 195 143q20 18 -9 29q-70 25 -171 25t-263 -29l-12 37
q186 109 410 108q172 0 270 -53q82 -49 82 -115zM1440 1448l22 31q176 -59 249 -127t71 -125q0 -29 -18 -47t-42 -18q-36 -1 -66 41q-108 155 -216 245z" />
    <glyph glyph-name="Identity.400" unicode="&#x3061;" 
d="M718 1620q72 0 152 -38t80 -77q0 -25 -32 -70t-68 -204q192 43 312 105t134 63q52 -1 100 -19t48 -65q0 -63 -131 -115q-227 -86 -504 -127q-53 -215 -129 -473q-6 -27 -2 -31t29 15q166 113 300 168t279 55q225 0 344 -117q119 -116 119 -272t-90 -262
q-161 -190 -569 -242q-180 -23 -373 -6l-6 47q231 12 428 82q418 133 417 418q0 119 -78 195t-218 77q-140 0 -298 -110t-284 -261q-10 -12 -30 -47q-43 -73 -84 -73q-40 0 -76 58t-36 100t18 72q17 31 28 52q55 125 155 539q-78 -4 -118 -4q-139 0 -208 48t-141 210l33 22
q80 -77 155 -107t162 -30t150 8q35 178 38 224t-5 58q-22 35 -156 66l-2 37q85 31 157 31z" />
    <glyph glyph-name="Identity.401" unicode="&#x3062;" 
d="M1903 1444q0 -63 -62 -64q-23 0 -37 14l-20 21q-7 7 -43 55q-89 105 -187 179l23 28q326 -83 326 -233zM1714 1298q0 -31 -24 -55t-64 -5q-10 6 -24 22l-21 24q-6 8 -27 37q-90 123 -182 199l23 30q179 -58 249 -124t70 -128zM672 1616q72 0 151 -38q80 -38 80 -77
q0 -25 -32 -70t-68 -204q193 43 313 105t133 63q53 -1 101 -19t47 -65q0 -63 -131 -115q-227 -86 -504 -127q-53 -215 -129 -473q-6 -27 -2 -31t28 15q166 113 300 168t280 55q225 0 344 -117q119 -116 119 -272t-90 -262t-240 -162q-317 -120 -702 -86l-6 47q231 12 428 82
q418 133 417 418q-1 119 -79 195t-218 77q-140 0 -297 -110q-158 -110 -284 -261q-11 -12 -31 -47q-82 -141 -159 -15q-60 97 -18 172q17 31 28 52q55 125 155 539q-78 -4 -119 -4q-139 0 -207 48t-141 210l33 22q80 -77 155 -107t162 -30t150 8q35 178 38 224t-5 58
q-22 35 -156 66l-2 37q86 31 158 31z" />
    <glyph glyph-name="Identity.402" unicode="&#x3063;" 
d="M450 678q46 0 96 24t155 74q105 51 171 80q66 30 168 56t191 26q205 0 331 -118t126 -277q0 -272 -283 -418q-233 -125 -664 -94l-4 39q317 28 536 145q232 123 232 357q0 118 -74 198q-75 80 -197 80t-241 -70t-192 -127q-203 -160 -228 -167q-26 -7 -41 -7
q-49 0 -106 42q-58 42 -74 83t-16 123l22 10q46 -59 92 -59z" />
    <glyph glyph-name="Identity.403" unicode="&#x3064;" 
d="M277 940q61 0 157 49q27 12 175 85q147 73 225 105q78 31 212 67t246 36q270 0 430 -150t160 -360q0 -358 -375 -547q-147 -75 -375 -105t-473 -16l-6 52q233 24 399 62t312 120q313 164 313 463q0 165 -104 273t-285 108q-93 0 -158 -24t-105 -38q-40 -16 -88 -43
t-79 -44t-94 -61t-108 -77q-46 -33 -66 -47t-82 -62q-100 -77 -152 -77t-120 50t-88 93t-29 149l31 17q66 -78 127 -78z" />
    <glyph glyph-name="Identity.404" unicode="&#x3065;" 
d="M260 901q61 0 158 49q27 12 175 85t225 105t211 68t247 35q270 -1 430 -151t160 -359q0 -360 -375 -547q-147 -76 -375 -106t-473 -14l-6 51q233 23 399 61t312 121q313 164 313 463q-1 164 -105 272t-284 109q-93 1 -158 -23t-105 -40t-88 -42q-48 -27 -79 -44t-77 -49
q-47 -32 -67 -46t-62 -45q-42 -32 -62 -46t-67 -50q-115 -88 -167 -88q-53 0 -121 50q-67 50 -87 94t-30 149l31 16q66 -78 127 -78zM1974 1382q-18 -20 -46 -20t-57 32l-23 23q-15 16 -23 27q-96 106 -207 174l16 33q186 -41 273 -99q80 -57 82 -122q3 -28 -15 -48z
M1799 1220q-15 -20 -46 -20t-60 35q-11 12 -38 43q-96 123 -203 192l18 33q162 -37 265 -112q74 -57 77 -121q2 -30 -13 -50z" />
    <glyph glyph-name="Identity.405" unicode="&#x3066;" 
d="M1201 219q99 -33 241 -33h73q45 0 92 -35q46 -36 46 -83q0 -96 -176 -97q-293 0 -447 107q-217 147 -217 473q0 209 87 393t255 307q12 11 10 17t-18 2q-177 -41 -365 -106t-240 -92t-96 -56t-79 -29q-66 0 -140 69t-84 134q-3 31 7 115l30 10q64 -105 124 -105
q94 -1 642 137t651 138t166 -29q82 -37 82 -98q1 -30 -25 -52t-67 -22l-180 6q-213 0 -334 -82q-80 -51 -164 -180q-106 -162 -105 -422q1 -300 231 -387z" />
    <glyph glyph-name="Identity.406" unicode="&#x3067;" 
d="M1682 711q-40 0 -74 51q-6 8 -27 37q-94 122 -186 198l24 31q179 -58 249 -126t69 -126q1 -29 -17 -47t-38 -18zM1927 928q0 -63 -59 -64q-35 0 -79 60q-80 110 -210 206l23 33q325 -92 325 -235zM936 603q0 -301 230 -388q88 -29 150 -31q63 -2 92 -2h73q45 0 91 -36
t46 -83q0 -96 -176 -96q-293 0 -447 107q-217 147 -217 473q0 209 87 393t255 307q12 11 10 17t-18 2q-176 -41 -364 -106t-240 -92t-97 -56q-44 -29 -79 -29q-66 0 -140 69t-83 134q-4 30 6 114l30 11q63 -105 123 -105q94 -1 640 137q546 137 651 137q106 1 179 -32
t72 -94q0 -30 -26 -52t-66 -22l-180 6q-213 0 -334 -82q-80 -51 -164 -180q-104 -160 -104 -421z" />
    <glyph glyph-name="Identity.407" unicode="&#x3068;" 
d="M1460 180q190 0 191 -106q0 -59 -86 -92q-164 -53 -525 -54q-274 0 -434 90t-160 261q0 266 371 544q-76 49 -122 157t-89 419q-8 57 -54 81t-124 46l-2 37q98 33 169 33t147 -49q76 -48 75 -95q0 -18 -7 -58t-5 -67q0 -323 143 -420q88 53 236 136t153 85q37 23 21 63
t-90 85l14 27q121 -8 175 -36t99 -84q46 -55 46 -93t-30 -58t-124 -51t-248 -99q-628 -279 -629 -563q0 -199 396 -198q218 0 413 45q66 14 80 14z" />
    <glyph glyph-name="Identity.408" unicode="&#x3069;" 
d="M1952 1409q0 -66 -62 -66q-23 -1 -38 17t-33 40q-106 129 -213 212l20 30q326 -82 326 -233zM1763 1262q0 -29 -21 -50t-46 -15q-26 7 -41 24q-16 18 -22 24q-5 7 -14 19q-102 141 -198 219l25 30q317 -106 317 -251zM1561 1062q0 -38 -30 -57t-106 -47
q-111 -36 -265 -104q-628 -279 -630 -561q0 -199 396 -199q222 0 413 44q66 15 80 16q190 0 191 -107q0 -59 -86 -92q-164 -53 -525 -53q-274 0 -434 90t-159 260q0 266 370 545q-76 49 -122 157t-89 418q-8 56 -54 80t-124 47l-2 37q98 33 169 33q70 0 146 -48t76 -96
q0 -18 -7 -58t-5 -67q0 -324 143 -419q89 53 237 136t152 85q37 22 21 62t-90 85l14 27q121 -8 175 -36t100 -84t45 -94z" />
    <glyph glyph-name="Identity.409" unicode="&#x306a;" 
d="M1847 76q1 -45 -21 -69q-48 -54 -120 6q-12 11 -37 36q-133 133 -272 197q4 -57 4 -80q0 -131 -95 -203q-94 -72 -260 -72t-258 71q-92 72 -92 188t122 202t329 86q51 0 76 -2q-10 184 -11 215q0 180 91 277q50 58 94 81q45 23 91 46l52 26q35 23 -10 62q-78 59 -219 65
v43q164 41 303 -6q98 -33 154 -94t57 -137q0 -98 -76 -99q-29 0 -93 25t-122 23q-115 -8 -170 -74q-41 -51 -31 -191q2 -18 45 -286q137 -33 283 -121q186 -109 186 -215zM1229 250v51q-83 18 -193 18t-180 -44t-70 -100t52 -90t155 -34q236 0 236 199zM1180 1314
q0 -38 -66 -85q-113 -66 -332 -111q-166 -520 -362 -817q-37 -57 -64 -83q-26 -26 -64 -26t-62 34t-24 86t46 112q264 334 375 670q-88 -10 -152 -11q-125 1 -189 53t-108 193l31 23q57 -46 85 -64q81 -54 178 -53q97 0 202 22q26 111 28 179t-47 98q-35 23 -92 41v31
q77 34 167 34t153 -47q33 -20 12 -102q-8 -37 -55 -191q72 23 152 60t95 39q37 0 65 -23q28 -24 28 -62z" />
    <glyph glyph-name="Identity.410" unicode="&#x306b;" 
d="M1471 1356q157 0 241 -42t84 -100t-67 -71l-56 -8q-71 -10 -141 -31q-135 -51 -338 -172l-31 33q229 182 250 202q25 29 -8 36t-109 7q-149 0 -356 -59l-16 41q221 164 547 164zM1364 227q156 -1 261 19t108 20q59 0 104 -24t45 -70q0 -135 -436 -135q-498 0 -567 366
q-21 85 -13 177l39 6q29 -115 56 -164q59 -104 153 -150t250 -45zM494 -74q-61 0 -121 84q-123 172 -123 479q0 187 78 478l14 53q49 182 49 258q2 109 -108 231l26 25q80 -23 135 -64q54 -40 106 -110t52 -122t-13 -79q-13 -28 -33 -67t-32 -66q-143 -283 -143 -500
q0 -100 25 -149q20 -47 55 6t203 389l45 -20q-13 -35 -49 -126q-126 -314 -123 -415q0 -35 20 -101t21 -92q0 -92 -84 -92z" />
    <glyph glyph-name="Identity.411" unicode="&#x306c;" 
d="M932 334q0 -39 -20 -62q-20 -24 -56 -24q-37 0 -78 26q-39 -51 -106 -118q-145 -135 -283 -136q-96 0 -150 78t-55 189q0 303 267 612q-59 221 -72 254q-35 82 -146 176l25 31q137 -35 209 -95t92 -173l14 -68q190 158 435 215q14 95 17 161t-44 90t-135 34l-2 35
q90 43 179 39t161 -58q49 -38 41 -96t-37 -178q18 2 55 2q274 0 432 -159t158 -393t-72 -401q176 -121 176 -233q0 -41 -20 -67q-20 -25 -55 -25t-84 51q-66 74 -109 117q-135 -164 -366 -164q-137 0 -212 60t-75 160t91 167q91 65 228 65t271 -49q49 129 49 332t-124 329
t-317 126h-47q-117 -482 -284 -758q49 -53 49 -92zM578 289q23 20 90 98q-117 166 -185 395q-158 -231 -157 -422q0 -152 84 -151q86 0 168 80zM772 539q105 176 152 342t67 274q-227 -59 -393 -229q68 -254 174 -387zM1243 139q193 0 291 131q-121 78 -250 78
q-78 0 -134 -32t-56 -78t36 -72q36 -27 113 -27z" />
    <glyph glyph-name="Identity.412" unicode="&#x306d;" 
d="M877 1466q0 -30 -21 -77t-57 -156q29 -18 53 -48t22 -48q0 -18 -45 -74q-33 -35 -65 -82q141 121 311 222t305 102q206 0 308 -166t102 -420q0 -193 -49 -350q75 -45 151 -116t76 -151q0 -40 -22 -66t-57 -26q-37 0 -113 83t-109 112q-131 -203 -385 -203q-129 0 -211 64
t-82 168q0 106 96 178q97 72 237 72t253 -40q37 130 37 312t-62 321q-123 274 -507 16q-183 -124 -324 -300q-12 -174 18 -541q3 -20 11 -88t8 -121t-33 -105t-84 -53q-74 0 -91 92t-42 154t-113 199l-92 -135q-55 -85 -93 -87t-60 25t-21 70q1 75 67 145t194 230t222 305
q4 27 8 80t9 79q-145 -77 -186 -119t-68 -42q-57 0 -117 52t-74 100t-10 114l33 8q49 -86 115 -86t323 121q27 221 27 261t-8 54q-20 36 -156 68l-2 37q84 32 152 32t145 -61q76 -61 76 -115zM594 244q0 215 4 391q-113 -172 -174 -260q90 -105 131 -150q39 -35 39 19z
M1239 145q197 0 285 166q-124 72 -230 72t-166 -36t-59 -89q0 -53 44 -83t126 -30z" />
    <glyph glyph-name="Identity.413" unicode="&#x306e;" 
d="M1657 758q0 278 -167 445t-423 167q-25 0 -78 -4q117 -133 117 -244q0 -168 -68 -348q-108 -319 -327 -527q-117 -110 -230 -110t-205 152t-92 326q0 175 74 335t215 279q248 217 599 217q350 0 572 -206t222 -510t-208 -508q-104 -103 -288 -169t-430 -78l-8 43
q371 78 548 270t177 470zM965 1167q0 86 -60 183q-221 -53 -373 -211q-195 -205 -194 -453q0 -133 49 -230t113 -98q84 0 198 155t191 325q76 170 76 329z" />
    <glyph glyph-name="Identity.414" unicode="&#x306f;" 
d="M1495 946q0 -182 29 -497q203 -55 340 -189q68 -63 67 -127q0 -90 -76 -90q-33 -1 -60 23t-95 88t-162 116v-32q0 -285 -377 -285q-143 0 -241 69q-98 70 -98 196t119 196q120 70 306 69q61 0 117 -6q-16 379 -18 471v19q-126 -15 -224 -15t-172 42t-145 177l26 25
q139 -98 269 -98t246 20v236q0 49 -10 64q-26 41 -183 52l-4 37q100 61 178 61t153 -37q75 -38 74 -79q0 -26 -13 -64q-28 -82 -38 -229q134 43 179 66q46 22 53 22q51 -3 93 -25t42 -60t-24 -57q-76 -60 -351 -114v-45zM1370 332v6q-94 27 -202 27t-183 -39
q-74 -38 -74 -100q-1 -62 55 -92t144 -30q152 0 206 54t54 174zM506 189q0 -33 17 -99t18 -92q0 -92 -84 -92q-61 0 -121 86q-125 174 -125 497q0 209 94 562q49 182 49 258q2 98 -110 235l24 23q80 -23 136 -61t108 -110q53 -72 53 -143q0 -35 -14 -63l-33 -66
q-18 -37 -33 -67q-147 -299 -147 -545q0 -111 26 -166t58 0t113 222q80 167 92 192l47 -23q-125 -350 -139 -395q-29 -119 -29 -153z" />
    <glyph glyph-name="Identity.415" unicode="&#x3070;" 
d="M1958 1427q-20 -1 -32 15q-13 16 -27 33t-29 43q-65 100 -176 182l22 29q162 -47 236 -113t69 -123q-4 -66 -63 -66zM1464 920q0 -182 29 -498q203 -55 340 -189q68 -63 68 -127q0 -90 -76 -90q-30 0 -59 24q-28 24 -96 88t-163 116v-33q0 -285 -377 -285q-143 0 -241 69
t-98 195t119 197q120 70 307 70q61 0 116 -6q-16 379 -18 471v18q-125 -14 -223 -14t-172 42t-146 177l27 24q139 -98 268 -98t246 21v235q0 49 -9 65q-23 40 -184 52l-4 37q100 61 178 61t153 -38t75 -79q0 -25 -14 -63q-28 -81 -37 -229q105 34 164 60q60 27 67 28
q51 -2 93 -25q42 -22 42 -60t-23 -58q-74 -58 -352 -113v-45zM1339 305v6q-95 27 -203 27t-182 -39t-74 -100t56 -91q55 -30 143 -30q152 0 206 53t54 174zM475 162q-1 -34 17 -99q18 -66 18 -92q0 -92 -84 -92q-61 0 -121 86q-125 174 -125 498q0 209 94 561q48 182 50 269
t-111 225l25 22q80 -22 135 -60t108 -111t54 -142q-1 -31 -15 -62q-14 -30 -32 -67t-33 -68q-147 -299 -148 -545q0 -111 26 -166t58 -1t205 415l47 -22q-125 -350 -139 -396q-29 -119 -29 -153zM1540 1577l23 29q164 -66 228 -136t62 -114q-4 -82 -67 -78q-28 0 -50 39
q-6 7 -18 27l-18 30q-76 129 -160 203z" />
    <glyph glyph-name="Identity.416" unicode="&#x3071;" 
d="M1792 1729q94 0 160 -67t66 -160t-66 -159q-66 -65 -160 -65t-160 66t-66 158q0 93 66 160t160 67zM1792 1356q61 0 104 43t43 104t-43 105t-104 43q-61 0 -104 -43q-43 -42 -43 -104t43 -105t104 -43zM1464 920q0 -182 29 -498q203 -55 340 -189q68 -63 68 -127
q0 -90 -76 -90q-30 0 -59 24q-28 24 -96 88t-163 116v-33q0 -285 -377 -285q-143 0 -241 69t-98 195t119 197q120 70 307 70q61 0 116 -6q-16 379 -18 471v18q-125 -14 -223 -14t-172 42t-146 177l27 24q139 -98 268 -98t246 21v235q0 49 -9 65q-23 40 -184 52l-4 37
q100 61 178 61t153 -38t75 -79q0 -25 -14 -63q-28 -81 -37 -229q105 34 164 60q60 27 67 28q51 -2 93 -25q42 -22 42 -60t-23 -58q-74 -58 -352 -113v-45zM1339 305v6q-95 27 -203 27t-182 -39t-74 -100t56 -91q55 -30 143 -30q152 0 206 53t54 174zM475 162q-1 -34 17 -99
q18 -66 18 -92q0 -92 -84 -92q-61 0 -121 86q-125 174 -125 498q0 209 94 561q48 182 50 269t-111 225l25 22q80 -22 135 -60t108 -111t54 -142q-1 -31 -15 -62q-14 -30 -32 -67t-33 -68q-147 -299 -148 -545q0 -111 26 -166t58 -1t205 415l47 -22q-125 -350 -139 -396
q-29 -119 -29 -153z" />
    <glyph glyph-name="Identity.417" unicode="&#x3072;" 
d="M903 1485q45 0 97 -42t52 -82t-63 -69q-12 -6 -44 -18t-70 -28t-82 -58q-125 -116 -231 -312t-105 -417q-1 -170 109 -264t278 -95q553 0 553 789q0 173 -30 319t-30 193t26 79q25 32 69 30t79 -40q35 -37 35 -90q0 -211 21 -327q39 -207 250 -400q78 -66 79 -166
q0 -43 -18 -71t-51 -27q-66 0 -129 88q-104 131 -180 352q-14 45 -28 43t-13 -51q-1 -275 -19 -387t-56 -196q-151 -334 -558 -334q-143 0 -257 50t-190 172t-75 300q0 375 350 799q-84 -12 -170 2q-59 14 -102 56q-42 42 -83 128l23 23q98 -59 178 -60q174 0 287 66
q18 10 40 22l33 18q11 5 25 5z" />
    <glyph glyph-name="Identity.418" unicode="&#x3073;" 
d="M471 1354q174 0 287 65q18 9 49 27t62 18q32 0 84 -42q53 -42 53 -82t-64 -68q-12 -6 -79 -32q-179 -70 -348 -386q-105 -196 -105 -416q0 -170 110 -264t277 -94q553 0 553 788q0 172 -30 318t-30 194q0 47 26 79t70 30t78 -39q35 -37 35 -90q0 -211 21 -328
q39 -207 249 -399q78 -66 80 -166q0 -43 -18 -71t-51 -27q-66 0 -129 88q-104 131 -181 352q-16 45 -28 43t-12 -51q0 -274 -18 -387t-57 -197q-151 -334 -558 -334q-143 0 -257 50t-190 172t-76 301q0 375 351 798q-84 -12 -170 2q-59 14 -101 56t-84 129l23 22
q98 -59 178 -59zM1929 1409q-20 1 -34 19q-15 18 -29 38q-85 122 -201 213l25 31q307 -102 299 -235q-1 -66 -60 -66zM1755 1262q-26 0 -50 34q-7 10 -10 16t-13 22q-9 15 -13 22q-72 125 -158 203l27 28q150 -63 215 -133t64 -129q-3 -63 -62 -63z" />
    <glyph glyph-name="Identity.419" unicode="&#x3074;" 
d="M879 1481q45 0 97 -42t52 -82t-63 -69q-12 -6 -44 -18t-70 -28t-83 -58q-125 -117 -230 -313t-106 -416q0 -171 110 -265t277 -94q553 0 553 789q0 173 -30 319t-29 193q0 47 25 79q26 32 70 30t79 -40q35 -37 35 -90q0 -211 20 -327q39 -207 250 -400q78 -66 80 -166
q0 -43 -18 -71t-52 -27q-66 0 -129 88q-104 131 -180 352q-13 45 -27 43t-14 -51q0 -275 -18 -387q-34 -212 -163 -358q-69 -78 -186 -125t-263 -47t-260 50t-190 172t-75 300q0 375 350 799q-84 -12 -170 2q-59 14 -101 56t-83 128l22 23q98 -59 179 -60q174 0 286 66
q18 10 40 22l33 18q11 5 26 5zM1806 1624q-61 0 -104 -43t-43 -105t43 -106t104 -43q61 0 105 43q43 44 43 106t-43 105q-44 43 -105 43zM1806 1251q-94 0 -160 66t-65 159q0 92 66 158q65 66 159 66t160 -66t66 -158t-66 -159q-66 -66 -160 -66z" />
    <glyph glyph-name="Identity.420" unicode="&#x3075;" 
d="M1356 1153q0 -50 -48 -63q-31 -8 -85 -9q-54 -2 -74 -4q-88 -10 -177 -54t-89 -99t45 -101q44 -47 66 -69t70 -63q48 -42 62 -56q96 23 189 22q184 1 327 -73t220 -178q80 -115 80 -211q0 -45 -26 -78t-71 -33t-71 33t-50 102q-139 365 -452 365q-43 0 -86 -6
q150 -164 149 -351q1 -111 -69 -170t-186 -59t-298 72q-184 72 -250 102l-43 -41q-23 -23 -57 -71t-60 -72q-28 -24 -61 -25q-67 0 -143 80q-76 81 -76 153t21 138h39q18 -64 50 -104t68 -40t215 115q330 221 512 289q-169 193 -191 266q-9 31 -9 65q1 33 35 77t75 75
t170 117q49 35 23 84q-63 131 -309 233l18 43q203 -27 309 -84q106 -51 172 -137t66 -180zM1143 276q0 121 -101 259q-188 -74 -460 -318q211 -74 370 -74q191 0 191 133z" />
    <glyph glyph-name="Identity.421" unicode="&#x3076;" 
d="M1970 1304q0 -64 -63 -65q-21 0 -35 14l-22 22q-7 7 -21 25q-114 146 -219 220l20 28q172 -41 256 -110q84 -70 84 -134zM862 905q0 -46 46 -94q84 -87 133 -130q50 -44 65 -58q96 23 188 22q184 0 328 -74t219 -178q80 -115 80 -211q0 -45 -26 -78q-27 -32 -71 -32
t-70 32t-50 103q-139 365 -453 364q-43 0 -86 -6q150 -164 150 -350q0 -111 -70 -170t-185 -59t-299 72t-249 102l-43 -41q-23 -23 -57 -71t-61 -73q-28 -25 -60 -24q-66 0 -143 80q-76 81 -76 153t20 138h39q18 -64 50 -104t68 -40t216 115q330 221 512 289
q-172 196 -192 266q-9 30 -9 64t35 78t72 72t98 68t76 52q49 35 22 84q-63 131 -309 233l18 43q203 -27 310 -84q106 -51 172 -137t65 -180q0 -67 -95 -71q-24 -1 -58 -2q-124 -4 -222 -52q-98 -49 -98 -111zM1122 264q0 121 -100 258q-188 -74 -461 -317q211 -74 371 -74
q190 0 190 133zM1774 1133q0 -29 -25 -53t-66 -6q-10 6 -24 22l-21 24q-6 8 -26 37q-103 137 -195 209l25 31q172 -51 266 -144q66 -63 66 -120z" />
    <glyph glyph-name="Identity.422" unicode="&#x3077;" 
d="M1352 1149q0 -49 -48 -64q-26 -7 -83 -8q-56 -2 -76 -4q-88 -10 -177 -54t-89 -99t45 -101q44 -47 66 -69t70 -63q48 -42 62 -56q96 23 189 22q184 1 327 -73t220 -179q80 -115 79 -211q1 -46 -25 -78t-71 -32t-71 33t-50 102q-139 365 -452 365q-43 0 -86 -7
q150 -164 149 -350q1 -111 -69 -170t-186 -59t-298 72q-184 72 -250 102l-43 -41q-23 -23 -57 -71t-60 -72q-28 -24 -61 -25q-67 0 -143 80q-76 81 -76 153t21 138h38q19 -64 51 -104t68 -40t215 115q330 221 512 289q-170 195 -191 266q-9 30 -9 64t34 78q35 44 76 75
t170 117q49 35 23 84q-64 131 -310 233l19 43q203 -27 309 -84q106 -51 172 -137t66 -180zM1139 272q0 121 -101 258q-188 -74 -460 -317q211 -74 370 -74q191 0 191 133zM1697 1061q-95 -1 -161 65t-66 161t67 161t161 66t160 -66t66 -160t-66 -161q-66 -66 -161 -66z
M1847 1287q0 63 -44 107t-106 44q-63 0 -107 -44t-44 -106t44 -107q44 -44 106 -44t107 44q44 44 44 106z" />
    <glyph glyph-name="Identity.423" unicode="&#x3078;" 
d="M232 731q46 0 108 60q98 88 352 364q72 78 165 78t190 -96q53 -53 163 -173t182 -192q70 -72 194 -170t257 -172q109 -61 109 -172q0 -94 -97 -94q-199 0 -690 608q-156 193 -213 252t-98 59t-86 -53q-100 -124 -209 -284t-123 -178t-42 -38q-28 -18 -68 -18t-102 37
t-99 85t-47 144l28 23q80 -70 126 -70z" />
    <glyph glyph-name="Identity.424" unicode="&#x3079;" 
d="M853 1176q93 0 189 -97q53 -53 164 -173t182 -192q70 -72 194 -169q124 -98 257 -172q109 -61 109 -172q0 -94 -97 -95q-198 0 -690 609q-156 193 -213 252t-98 59t-86 -53q-100 -123 -209 -284t-123 -179t-42 -36t-68 -19q-40 0 -102 37t-99 85t-47 144l28 22
q80 -69 126 -69t108 59q98 88 352 365q72 78 165 78zM1834 1159q-17 -18 -48 -18t-63 41q-11 14 -40 51q-92 125 -215 207l25 30q170 -40 264 -116t94 -148q0 -29 -17 -47zM1579 956q-37 0 -115 112t-190 200l22 30q176 -51 277 -145q76 -68 74 -131q-5 -66 -68 -66z" />
    <glyph glyph-name="Identity.425" unicode="&#x307a;" 
d="M853 1176q93 0 189 -97q53 -53 164 -173t182 -192q70 -72 194 -169q124 -98 257 -172q109 -61 109 -172q0 -94 -97 -95q-198 0 -690 609q-156 193 -213 252t-98 59t-86 -53q-100 -123 -209 -284t-123 -179t-42 -36t-68 -19q-40 0 -102 37t-99 85t-47 144l28 22
q80 -69 126 -69t108 59q98 88 352 365q72 78 165 78zM1538 1354q-68 0 -115 -47t-47 -115t47 -115t115 -47t115 47t47 115t-47 115t-115 47zM1538 954q-98 0 -168 70t-70 168t70 168t168 70t168 -70t70 -168t-70 -168t-168 -70z" />
    <glyph glyph-name="Identity.426" unicode="&#x307b;" 
d="M1164 799q-103 0 -188 48t-145 169l29 26q68 -54 130 -80t150 -26t199 20q0 190 -8 240t-67 78q-14 -2 -43 -2q-226 0 -324 182l23 23q113 -70 231 -70q186 0 389 68q64 22 88 34q24 13 56 13t72 -20t41 -64q1 -43 -44 -64q-96 -43 -321 -82q33 -8 57 -24q37 -24 18 -88
t-22 -191q116 31 182 62q66 32 81 32q58 0 94 -24t36 -58q0 -59 -78 -88q-123 -51 -317 -84q4 -156 30 -419q195 -57 322 -164q92 -72 92 -156t-72 -84q-35 0 -100 62q-119 115 -229 180v-35q0 -129 -94 -202t-258 -73t-260 64q-95 63 -95 185t119 192t301 70q59 0 115 -7
l-13 365q-74 -8 -177 -8zM1356 281v36q-82 23 -186 23t-184 -37q-81 -37 -81 -102q-1 -113 225 -113t226 193zM516 -20q0 -82 -80 -82q-68 0 -121 80q-121 184 -121 544q1 226 109 612q35 122 35 193q0 103 -109 240l25 24q82 -23 142 -65t110 -119q50 -76 49 -120
q0 -44 -41 -118q-41 -73 -61 -122q-133 -315 -134 -527q0 -117 33 -178q25 -51 51 -6q63 101 211 414l41 -19q-113 -324 -135 -418q-28 -102 -28 -150q0 -49 12 -105t12 -78z" />
    <glyph glyph-name="Identity.427" unicode="&#x307c;" 
d="M1958 1427q-20 -1 -32 15q-13 16 -27 33t-29 43q-67 104 -176 182l22 26q160 -45 240 -112q70 -63 65 -121q-4 -66 -63 -66zM1111 770q-216 0 -323 219l27 25q74 -55 134 -81q59 -26 153 -26t194 19q0 192 -8 242t-65 77q-16 -2 -45 -2q-226 0 -326 182l25 23
q117 -70 241 -70t305 45q50 12 84 28q33 15 41 15q49 0 84 -22t35 -66q0 -43 -45 -59q-82 -33 -233 -55q33 -8 57 -25q39 -20 20 -76q-20 -80 -24 -202q171 52 240 90q10 4 44 4q34 1 70 -23t37 -59q0 -57 -76 -88q-123 -51 -317 -84q4 -150 30 -420q193 -55 322 -162
q92 -78 92 -159t-72 -80q-41 0 -100 59q-119 115 -229 180v-35q0 -126 -94 -200q-95 -74 -259 -74t-259 63t-95 185t119 194q119 70 301 70q59 0 115 -6l-13 364q-92 -10 -187 -10zM1313 252v37q-81 23 -185 23t-186 -37q-82 -36 -82 -103q0 -113 226 -113t227 193zM471 -49
q0 -82 -78 -82q-68 0 -121 80t-87 217q-33 137 -33 330t70 465t71 337q-1 101 -107 242l25 21q155 -37 251 -184q48 -75 48 -121t-40 -118q-40 -71 -60 -120q-133 -315 -134 -526q0 -120 29 -174t55 -11q12 18 209 412l41 -17q-98 -287 -135 -417q-27 -111 -27 -156t12 -100
q11 -55 11 -78zM1538 1589l23 29q164 -62 229 -132t65 -128q-2 -66 -65 -66q-34 4 -70 64q-14 24 -15 27t-3 6q-70 120 -164 200z" />
    <glyph glyph-name="Identity.428" unicode="&#x307d;" 
d="M1111 770q-216 0 -323 219l27 25q74 -55 134 -81q59 -26 153 -26t194 19q0 192 -8 242t-63 77q-16 -2 -47 -2q-226 0 -326 182l25 23q117 -70 243 -70t279 37q33 9 74 27t63 18q23 0 51 -12q-4 25 -4 39q0 94 66 160q67 65 159 65t158 -66t66 -159q0 -94 -66 -160
q-66 -65 -164 -65t-166 79q-12 -23 -39 -30q-84 -31 -204 -49q29 -8 53 -23q39 -20 20 -76q-20 -80 -24 -202q171 52 240 90q10 4 44 4q34 1 70 -23t37 -59q0 -57 -76 -88q-123 -51 -317 -84q4 -150 30 -420q193 -55 322 -162q92 -78 92 -159t-72 -80q-41 0 -100 59
q-119 115 -229 180v-35q0 -126 -94 -200q-95 -74 -259 -74t-259 63t-95 185t119 194q119 70 301 70q59 0 115 -6l-13 364q-92 -10 -187 -10zM1807 1634q-62 0 -105 -43t-43 -104t43 -105t105 -43q62 0 106 43q43 42 43 104t-43 105q-44 43 -106 43zM1313 252v37
q-81 23 -185 23t-186 -37q-82 -36 -82 -103q0 -113 226 -113t227 193zM471 -49q0 -82 -78 -82q-68 0 -121 80t-87 217q-33 137 -33 330t70 465t71 337q-1 101 -107 242l25 21q155 -37 251 -184q48 -75 48 -121t-40 -118q-40 -71 -60 -120q-133 -315 -134 -526
q0 -120 29 -174t55 -11q12 18 209 412l41 -17q-98 -287 -135 -417q-27 -111 -27 -156t12 -100q11 -55 11 -78z" />
    <glyph glyph-name="Identity.429" unicode="&#x307e;" 
d="M976 1614q85 0 165 -39t80 -88q0 -23 -22 -66t-38 -149q219 42 315 83q28 11 43 17t45 6t77 -22q49 -22 49 -59q0 -38 -20 -55t-66 -34q-162 -57 -459 -98q-8 -152 -8 -252q191 31 309 80q56 22 67 23q135 0 136 -78q0 -57 -74 -88q-131 -51 -434 -88q2 -63 24 -304
q295 -57 465 -198q94 -74 94 -148q0 -41 -22 -63t-55 -23q-34 1 -58 19t-53 43q-166 152 -356 223q2 -27 2 -80q0 -127 -102 -201q-102 -73 -275 -73q-172 0 -277 69q-104 70 -104 192q0 121 135 193t342 72q39 0 113 -4q-6 100 -13 268q-129 -10 -237 -10q-223 0 -293 104
t98 258l35 -22q-74 -113 -36 -155t174 -42t255 13v90q0 109 2 164q-131 -12 -279 -12t-249 52q-100 54 -174 193l31 23q88 -68 160 -97q128 -51 513 -6q4 176 5 180q0 49 -44 68t-153 39l-4 35q86 47 171 47zM713 51q167 0 235 55t68 195q-92 18 -210 18t-204 -44t-86 -100
t54 -90t143 -34z" />
    <glyph glyph-name="Identity.430" unicode="&#x307f;" 
d="M327 57q-81 0 -132 111t-33 233q23 150 183 255q161 105 368 137q47 82 174 296q127 213 143 247t9 44q-17 25 -269 -106q-8 -4 -42 -28t-78 -25q-43 0 -105 57q-61 57 -74 111q-8 51 2 116l33 8q47 -78 71 -92t48 -14q111 0 344 82q39 12 78 36t55 23q53 0 135 -60
t82 -110q-1 -23 -21 -41t-57 -44q-37 -25 -75 -67t-134 -177t-160 -244q342 -6 641 -137q43 201 -16 239q-23 19 -82 35v33q72 37 127 31q60 -2 120 -46t60 -81l-16 -121q-16 -106 -33 -174q127 -78 197 -142q70 -70 67 -153q1 -35 -21 -61t-58 -26t-64 19t-89 77
q-62 58 -97 89q-186 -410 -787 -522l-24 41q498 172 667 590q-289 197 -647 206q-29 -55 -118 -244t-124 -235q-57 -88 -112 -127t-136 -39zM326 258q38 0 64 20t69 80t198 334q-157 -24 -271 -100t-136 -168q-14 -57 12 -112q27 -54 64 -54z" />
    <glyph glyph-name="Identity.431" unicode="&#x3080;" 
d="M620 1610q64 0 139 -33t75 -66q0 -23 -17 -56t-37 -155q82 24 159 60t87 37q135 0 135 -76q0 -55 -123 -102t-282 -84q-20 -136 -31 -250q51 -47 51 -144q0 -272 -127 -383q-29 -111 -28 -168q1 -80 81 -106t287 -25q207 0 336 70q51 29 74 67t23 100t-24 286t-24 307
q0 299 203 299q143 0 260 -117t117 -272q0 -57 -24 -89t-66 -34t-116 13t-153 3l-14 35q109 53 145 79t35 64q0 82 -71 157q-72 75 -142 75q-92 0 -92 -187q0 -86 28 -259q28 -172 49 -240t54 -135t33 -117q0 -121 -177 -198t-441 -77q-264 1 -384 63q-119 62 -118 208
q0 68 14 149q-106 0 -185 83t-79 204q0 122 89 230t222 108q35 0 51 -2q0 83 9 176q-105 -18 -211 -18t-163 51q-56 51 -106 178l31 18q76 -72 121 -90t124 -18t210 31q4 140 4 182t-37 65q-19 12 -107 41v31q69 31 133 31zM524 848q-76 0 -122 -68t-46 -140t37 -116t90 -45
q135 0 135 252q0 117 -94 117z" />
    <glyph glyph-name="Identity.432" unicode="&#x3081;" 
d="M1862 612q0 -639 -973 -680l-8 43q780 145 780 672q0 172 -109 310t-299 171q-69 -190 -145 -346t-129 -239q102 -51 102 -133q0 -68 -82 -68q-51 0 -129 49q-78 -96 -159 -155q-166 -129 -303 -130q-94 0 -146 81q-51 81 -51 192q0 340 301 604q-37 113 -45 137
q-37 104 -186 244l20 25q133 -29 183 -66t68 -51q17 -14 43 -49t31 -57t11 -45q6 -24 8 -38q207 131 461 146q50 217 22 247t-161 40l-4 34q79 47 149 47t160 -51t90 -100q0 -24 -22 -64t-29 -69l-27 -90q264 -33 421 -202t157 -409zM352 463q0 -84 26 -124t68 -40
q80 1 160 65t139 130q-124 133 -202 389q-91 -100 -141 -218t-50 -202zM852 635q143 200 229 502q-238 -12 -415 -142q35 -133 79 -219q47 -82 107 -141z" />
    <glyph glyph-name="Identity.433" unicode="&#x3082;" 
d="M786 324q0 -285 329 -285q163 0 271 101t109 253q-1 151 -79 263t-236 233l24 31q483 -209 484 -582q0 -176 -144 -315t-416 -140q-220 0 -334 117t-114 313q0 72 12 168q-143 37 -222 111t-79 162t72 170t186 143q-84 27 -141 68q-100 72 -129 229l31 16
q88 -122 189 -160t230 -49q61 236 65 287t-50 82q-41 20 -99 35l3 39q70 18 142 18t156 -64q85 -64 84 -116q0 -31 -24 -64q-60 -83 -111 -225l27 -2q61 -6 91 -37t30 -67q0 -63 -90 -70q-55 -4 -119 2q-63 -190 -100 -348q46 -2 118 -2t95 -2q104 -6 104 -86
q-1 -80 -111 -92t-241 2q-12 -74 -13 -137zM479 793q0 -106 238 -142q33 188 67 344q-102 -6 -204 -70t-101 -132z" />
    <glyph glyph-name="Identity.434" unicode="&#x3083;" 
d="M1120 918q-24 0 -63 10t-87 18t-150 5t-118 -10q-14 -7 -14 -29t20 -49t32 -43t32 -43q20 -26 33 -42q371 174 569 174q154 0 246 -81q92 -82 92 -202t-93 -198t-243 -78q-209 0 -350 230l23 18q135 -115 297 -115q98 -1 158 51t60 134t-58 131t-140 49q-174 0 -500 -207
q106 -174 226 -451q59 -150 59 -213t-25 -93t-65 -29q-59 0 -86 84q-5 25 -23 101t-30 126q-76 252 -166 401q-133 -95 -167 -124t-51 -37t-48 -8t-81 28q-50 29 -75 61q-31 45 -21 134l25 12q49 -66 88 -66t119 41t141 72q-20 33 -64 86q-44 54 -50 62q-28 44 -8 111
q6 17 20 29t22 18q8 7 30 11q22 5 29 7t31 4h25q139 6 231 20q33 6 20 35q-14 29 -54 59t-99 49l8 23q209 16 301 -88q54 -64 54 -108t-18 -62q-20 -18 -44 -18z" />
    <glyph glyph-name="Identity.435" unicode="&#x3084;" 
d="M1225 1338q0 -79 -76 -78q-23 0 -69 11q-168 40 -421 21q-45 -4 -64 -14q-55 -29 48 -162q16 -22 40 -54t40 -54q498 240 764 239q197 0 315 -103t119 -262q0 -159 -123 -255t-315 -97q-266 0 -455 273l31 28q182 -147 397 -147q129 0 211 67t82 176t-78 176t-192 66
q-240 0 -682 -274q168 -272 301 -606q76 -188 76 -291q0 -55 -27 -90t-74 -35q-70 0 -98 98q-8 29 -31 130q-96 422 -272 714q-186 -122 -231 -159t-72 -50q-27 -12 -61 -12t-97 38t-92 81q-37 61 -29 153l37 17q66 -90 123 -90t262 108q51 27 78 41q-57 89 -93 130
q-36 40 -41 47l-18 25q-12 18 -13 26q-1 9 -6 31t1 36q11 89 74 108q62 19 202 25t262 21q45 6 25 49q-39 88 -207 141l12 37q252 6 371 -125q66 -76 66 -155z" />
    <glyph glyph-name="Identity.436" unicode="&#x3085;" 
d="M1274 944q172 0 293 -113t121 -315t-134 -322t-358 -120q-35 0 -51 2q-117 -150 -418 -226l-10 27q209 92 307 234q-111 53 -174 173t-64 283q0 66 2 95q-76 -82 -126 -182t-50 -145q0 -44 12 -89t13 -76q0 -68 -70 -68q-49 0 -98 60q-82 102 -82 305q0 84 37 231t37 208
t-72 163l17 14q82 -20 123 -55t69 -78t27 -74t-11 -51l-14 -28q-4 -9 -16 -27t-17 -27q-80 -159 -80 -241t31 -117q117 244 281 381q18 162 85 276t167 115q143 0 206 -213h17zM885 831l2 3q102 68 241 96q-27 154 -98 153q-59 0 -96 -85t-49 -167zM870 664q0 -354 226 -414
q51 147 51 379q0 109 -8 227q-143 -25 -267 -119q-2 -24 -2 -73zM1540 553q0 155 -75 228t-189 81q18 -98 18 -231q0 -233 -59 -391q135 6 220 82t85 231z" />
    <glyph glyph-name="Identity.437" unicode="&#x3086;" 
d="M1346 1278q227 0 383 -146q155 -146 155 -402t-171 -413q-171 -156 -460 -155q-23 0 -67 4q-82 -106 -207 -177t-330 -126l-16 41q274 113 407 299q-154 65 -238 221t-85 377q0 53 4 139q-109 -111 -179 -251t-69 -224q0 -39 15 -93t16 -89q0 -74 -80 -74q-53 0 -113 70
q-43 55 -74 158q-32 103 -32 223t47 309t47 243t-20 103t-32 66q-11 17 -44 65l22 20q91 -24 143 -68t87 -96t33 -86t-10 -70q-9 -37 -54 -110q-102 -224 -102 -334t38 -155q145 311 373 504q27 211 109 354q94 166 223 166q182 0 266 -293h15zM1044 1493q-84 0 -147 -133
q-46 -95 -66 -232l5 2q135 96 344 134q-39 229 -136 229zM815 905q0 -467 311 -545q78 197 78 519q0 193 -14 307q-195 -31 -371 -160q-4 -82 -4 -121zM1716 769q0 208 -106 311t-260 112q27 -127 26 -305q0 -332 -86 -541q186 8 306 112t120 311z" />
    <glyph glyph-name="Identity.438" unicode="&#x3087;" 
d="M1114 813q100 0 237 57q25 10 35 16t17 5q137 0 137 -82q0 -47 -61 -72q-123 -45 -254 -45q-53 0 -131 47q-4 -85 -4 -167t16 -259q115 -25 227 -73q231 -113 232 -238q0 -74 -68 -74q-31 0 -67 28t-119 101q-84 73 -185 109q2 -14 2 -49q0 -104 -72 -171t-222 -67
t-233 55t-83 164t115 171t291 63q41 0 59 -2l-16 334q-7 328 -13 362t-42 53q-36 18 -113 29l-2 20q87 52 155 52t140 -43t71 -86q0 -23 -17 -52q-16 -29 -24 -51t-20 -135h12zM776 16q206 0 209 195q-83 14 -173 14t-154 -35t-64 -84q0 -90 182 -90z" />
    <glyph glyph-name="Identity.439" unicode="&#x3088;" 
d="M1651 -27q-37 0 -80 35t-118 98q-138 116 -304 181q4 -49 4 -78q0 -135 -96 -218q-97 -83 -285 -83t-295 69q-106 70 -106 191q0 150 148 228t370 77q35 0 96 -4q-2 47 -10 232t-12 403q-5 218 -11 276t-17 73q-26 36 -190 60l-2 33q105 53 189 53t171 -51t87 -100
q0 -27 -20 -65q-20 -39 -33 -79q-12 -40 -23 -188q12 -2 33 -2q167 0 314 71q58 25 71 25q158 0 158 -96q0 -53 -78 -84q-172 -57 -342 -57q-59 0 -162 55q-14 -276 18 -571v-6q152 -33 288 -95t226 -140q90 -79 90 -161t-79 -82zM678 63q168 1 236 63t73 206
q-92 18 -218 18t-215 -48t-89 -110q-1 -62 57 -95q58 -34 156 -34z" />
    <glyph glyph-name="Identity.440" unicode="&#x3089;" 
d="M1225 1270q0 -86 -82 -86q-31 0 -86 10q-156 28 -395 -18q-45 -8 -46 -41q0 -11 14 -57t17 -76q2 -30 -22 -171q-41 -211 -39 -258q0 -31 26 -14q369 276 682 277q224 0 350 -127t125 -301q0 -140 -96 -246t-252 -166q-324 -124 -719 -92l-6 47q231 23 404 78
q469 150 469 440q0 123 -81 205q-80 82 -224 82t-308 -116t-288 -267q-10 -15 -36 -55t-44 -57t-55 -17t-87 55t-49 117q1 25 11 74q10 48 15 86t30 186t31 196t5 156q0 108 91 125q293 68 366 102q39 19 4 60q-61 88 -284 160l10 36q256 0 395 -88q154 -94 154 -239z" />
    <glyph glyph-name="Identity.441" unicode="&#x308a;" 
d="M694 383q-137 0 -137 281q0 115 47 381q47 267 47 337t-25 132q-26 62 -94 141l21 22q150 -20 245 -139q50 -63 50 -100t-31 -142q-27 -78 -37 -140t-6 -70q8 -17 31 22q78 137 174 217t197 80q180 0 278 -169t98 -476q0 -756 -811 -922l-18 43q373 147 507 402
q64 123 90 241t26 262q0 258 -56 390t-157 133q-68 1 -143 -59t-126 -160q-100 -195 -100 -385l14 -238q0 -37 -24 -61t-60 -23z" />
    <glyph glyph-name="Identity.442" unicode="&#x308b;" 
d="M700 1409q53 0 239 42t235 77q27 18 45 18q63 0 143 -64t80 -120q0 -23 -16 -38t-54 -37q-92 -52 -313 -250t-224 -220q-1 -8 5 -11t14 1q209 70 348 70q211 0 354 -128q144 -128 142 -339q-2 -212 -176 -350t-471 -138q-180 0 -292 72t-112 192q0 92 73 152
q72 60 186 59t214 -73t129 -213q266 93 272 361q3 130 -95 227t-282 97q-186 0 -342 -110q-156 -111 -308 -307q-32 -41 -52 -55t-50 -14t-52 33q-22 32 -21 86q2 54 89 136q59 59 266 264q520 515 499 556t-331 -113q-12 -6 -47 -30t-64 -23q-70 0 -129 63q-59 62 -67 118
t8 128l32 4q61 -123 125 -123zM874 309q-143 0 -143 -110q1 -53 69 -89t195 -36q33 0 95 4q-20 109 -82 170t-134 61z" />
    <glyph glyph-name="Identity.443" unicode="&#x308c;" 
d="M1603 55q-266 0 -266 293q0 121 42 349q42 229 42 333t-30 153q-31 48 -105 48q-126 0 -282 -112t-302 -288l-2 -26q-16 -219 10 -467t25 -258q0 -76 -34 -135t-83 -60q-78 0 -90 84q-16 90 -44 162t-113 201l-92 -137q-38 -55 -59 -71q-21 -18 -47 -18q-25 0 -47 27
t-22 85t65 126q65 66 195 230t228 313q4 47 12 137q-72 -39 -158 -92q-14 -10 -47 -46t-55 -36q-57 0 -122 56t-78 102t-9 120l33 11q53 -94 108 -95q70 0 347 142q27 225 27 265t-9 54q-21 37 -156 68l-2 37q84 32 153 32q68 0 144 -61t76 -115q0 -33 -23 -80t-63 -184
q30 -18 52 -45t22 -47t-47 -72q321 283 549 283q258 0 258 -303q0 -84 -41 -303t-41 -315t32 -130q32 -35 103 -34q170 0 348 147l27 -29q-70 -125 -184 -212t-245 -87zM573 244v160q0 140 5 235q-57 -86 -177 -262q88 -102 134 -152q38 -38 38 19z" />
    <glyph glyph-name="Identity.444" unicode="&#x308d;" 
d="M676 1421q53 0 227 40q174 39 215 55t66 33t39 18q63 0 145 -72t82 -125q0 -25 -18 -41q-18 -15 -52 -31t-77 -46q-41 -30 -237 -210t-232 -220t-33 -44q4 -4 18 2q197 100 420 100t373 -120q150 -121 149 -328q0 -237 -235 -385q-121 -76 -332 -113t-492 -22l-4 45
q418 41 641 186t224 373q1 135 -99 214t-276 79t-366 -127t-353 -324q-95 -127 -166 -36q-29 37 -29 75t14 68t54 64q41 34 85 72q44 39 118 103q73 64 315 318t301 336q25 33 20 46q-10 27 -177 -37q-166 -64 -210 -91q-44 -28 -62 -36t-40 -9q-55 0 -117 63
q-61 62 -69 118t18 134l31 4q57 -129 121 -129z" />
    <glyph glyph-name="Identity.445" unicode="&#x308e;" 
d="M885 899q80 -41 80 -81q0 -18 -32 -52t-93 -98q248 141 431 141t307 -103q124 -104 124 -280t-148 -316t-493 -204l-10 28q467 190 467 547q0 121 -72 193t-184 72t-228 -52q-117 -51 -207 -131q-6 -84 9 -393q2 -16 8 -62t6 -92t-30 -97q-30 -52 -70 -52q-63 0 -76 70
q-10 74 -33 124q-16 47 -72 132q-10 -16 -39 -64t-50 -72t-50 -24q-29 1 -47 23t-18 68t43 99q225 266 321 406l8 90q-82 -45 -99 -59t-40 -36t-59 -22q-35 0 -81 42q-79 72 -69 167l21 10q43 -59 89 -59t253 94q18 174 18 216t-39 58q-43 21 -96 35v27q72 29 128 29
q57 1 119 -49t62 -95q0 -18 -18 -58t-41 -120zM594 229l86 -86q35 -29 35 17q4 58 4 258q-53 -84 -125 -189z" />
    <glyph glyph-name="Identity.446" unicode="&#x308f;" 
d="M1692 684q0 156 -98 254t-250 98t-306 -68t-276 -171q-10 -193 20 -545q2 -28 9 -83q6 -55 6 -79q0 -78 -33 -140t-82 -63q-76 0 -92 86q-20 100 -46 166t-112 189q-12 -18 -58 -83t-60 -87q-33 -50 -68 -52t-58 25q-22 27 -22 85t66 128q66 68 194 230q129 162 225 309
q8 84 15 133q-122 -70 -148 -86t-58 -49t-57 -33q-55 0 -115 54t-74 100t-11 112l30 12q53 -86 116 -86t331 127q27 248 27 290q-1 42 -11 56q-28 37 -159 66v37q83 33 153 33q70 -1 145 -61t74 -113q0 -19 -19 -65t-28 -79q-12 -29 -33 -119q38 -14 68 -45q29 -31 29 -53
t-60 -86q-60 -65 -92 -102v-6q326 195 594 194q215 0 374 -135t159 -357t-185 -408q-185 -187 -626 -275l-19 41q621 244 621 704zM596 229q37 -37 39 19q0 213 4 389q-41 -66 -176 -264q61 -72 133 -144z" />
    <glyph glyph-name="Identity.447" unicode="&#x3090;" 
d="M1282 1423q0 -25 -44 -63t-63 -89q-19 -50 -81 -204q92 16 176 16q236 1 398 -151t161 -419q0 -267 -163 -430t-505 -163q-143 0 -234 66t-91 170t76 178q76 72 194 72q119 0 205 -82t104 -209q246 111 244 436q-2 199 -111 331t-301 132q-80 0 -188 -33
q-209 -502 -340 -715q-90 -154 -156 -220q-67 -66 -145 -64q-78 0 -146 118t-67 240q0 263 387 520q152 100 323 160q76 207 115 364q4 20 -1 26t-23 1q-94 -29 -230 -111q-16 -10 -49 -38t-73 -29q-40 0 -101 54q-61 53 -77 99t-13 134l33 10q66 -106 118 -107
q102 0 351 105q16 6 45 31t45 24q53 0 140 -56t87 -104zM412 182q57 0 116 86q172 219 340 633q-147 -74 -279 -177t-204 -200q-118 -150 -38 -290q30 -52 65 -52zM1122 66q83 0 133 8q-10 100 -60 171q-49 71 -119 71t-108 -34t-38 -87t54 -92q55 -37 138 -37z" />
    <glyph glyph-name="Identity.448" unicode="&#x3091;" 
d="M725 1460q29 0 153 28t176 43t83 38t45 22q59 0 133 -57t74 -96q-1 -22 -17 -33t-36 -21t-27 -14q-268 -154 -357 -237q-12 -11 -9 -17t20 0q121 39 235 39q180 0 294 -83t114 -228q0 -172 -167 -272t-401 -99q-57 0 -118 10q-152 -98 -291 -221q111 27 193 -5t161 -126
q257 262 441 262q184 1 323 -111t139 -253q0 -104 -88 -105q-20 0 -64 16t-92 15q-48 0 -165 -21l-11 29q141 61 189 100q39 27 15 95t-98 122q-75 54 -170 54t-176 -100t-128 -224q-18 -50 -36 -72t-46 -22q-59 0 -117 51q-21 19 -31 69t-30 83q-62 94 -154 93t-203 -108
q-53 -51 -137 -165q-41 -55 -83 -55q-43 0 -67 27q-24 28 -24 69q0 66 72 126q40 35 150 115t254 188q144 109 155 117q-106 57 -107 156q0 68 65 123t153 55t146 -46t58 -112t-33 -104q158 12 257 88q100 76 100 184q1 220 -297 222q-208 0 -389 -161q-54 -47 -119 -114
t-84 -86q-45 -49 -82 -49q-76 0 -78 90q0 37 26 64q27 28 129 100t304 239t283 252q12 13 8 21t-23 6q-115 -20 -274 -104q-8 -4 -41 -29t-72 -26t-93 51t-63 104q-3 37 5 98l34 8q41 -73 62 -85q20 -11 49 -11zM891 797q-45 0 -77 -28t-32 -69q0 -72 117 -94q84 70 84 119
q0 72 -92 72z" />
    <glyph glyph-name="Identity.449" unicode="&#x3092;" 
d="M670 207q0 -152 315 -152q164 0 322 34t174 34q156 0 155 -90q0 -37 -19 -61t-79 -41t-195 -34t-258 -18q-516 0 -516 303q0 217 426 486q-4 127 -32 177q-29 50 -105 50q-123 0 -315 -223q-19 -20 -65 -84t-77 -91q-31 -28 -65 -29t-58 31q-22 32 -23 74q-1 43 15 67
t68 72q219 204 348 435q-102 -8 -154 -8q-116 0 -164 51t-106 190l35 21q47 -45 75 -65q73 -54 180 -53t218 22q43 94 55 151q13 58 -23 78t-128 47v33q90 33 150 33t137 -26q78 -26 77 -69q0 -20 -15 -46t-23 -40t-27 -55q-20 -41 -33 -65q204 57 264 93q60 35 74 36
q115 0 115 -78q0 -47 -66 -78q-63 -33 -197 -76t-284 -72q-63 -117 -174 -264q-6 -10 -2 -15t16 3q125 76 221 76q95 1 155 -57t79 -162q67 34 227 110t215 109q53 29 12 71q-26 35 -100 74l21 35q127 -14 181 -48t97 -90t43 -105t-68 -62q-31 -6 -67 -19
q-281 -82 -545 -198q10 -145 10 -318q-1 -47 -23 -75t-64 -29q-42 1 -70 25t-27 62q0 38 4 120t6 133q-324 -182 -323 -340z" />
    <glyph glyph-name="Identity.450" unicode="&#x3093;" 
d="M1196 1378q0 -20 -16 -36t-48 -42q-32 -25 -80 -75q-48 -51 -166 -211t-177 -266q-8 -10 -4 -16t16 3q152 82 268 82q256 0 268 -248q4 -16 1 -149t-3 -158q0 -150 153 -150t280 137q127 136 198 329l39 -11q-45 -329 -200 -485t-363 -156q-137 0 -214 72t-79 203
q-2 67 9 191t12 183q0 158 -148 158q-125 0 -251 -122t-215 -361q-24 -61 -46 -126t-31 -91q-37 -98 -110 -99q-45 0 -73 38t-28 89t40 130q40 80 93 168t93 157t243 409t269 466q33 59 -4 91t-127 64l8 35q82 23 169 5q88 -18 156 -83q68 -66 68 -125z" />
    <glyph glyph-name="Identity.451" unicode="&#x309b;" 
d="M563 1419q-29 0 -48 24t-33 41q-15 17 -21 25q-86 109 -193 191l25 31q172 -45 253 -111q80 -66 80 -133q0 -68 -63 -68zM376 1247q-20 0 -30 3q-11 3 -27 22q-16 18 -21 23t-15 21t-17 21q-98 133 -188 209l24 33q178 -61 254 -134t76 -130q0 -31 -18 -49t-38 -19z" />
    <glyph glyph-name="Identity.452" unicode="&#x309c;" 
d="M297 1659q-70 0 -119 -48t-49 -118t49 -119t119 -49t118 49t48 119t-48 118t-118 48zM296 1245q-103 0 -175 73t-72 175t72 174t175 72t175 -72t72 -174t-72 -175t-175 -73z" />
    <glyph glyph-name="Identity.453" unicode="&#x309d;" 
d="M1405 467q0 -74 -38 -112t-76 -38t-94 26q-55 26 -117 26t-244 -47l-19 40q162 68 268 140q74 49 50 137q-33 119 -144 249t-280 218l28 41q412 -117 584 -406q82 -137 82 -274z" />
    <glyph glyph-name="Identity.454" unicode="&#x309e;" 
d="M1405 467q0 -74 -38 -112t-76 -38t-94 26q-55 26 -117 26t-244 -47l-19 40q162 68 268 140q74 49 50 137q-33 119 -144 249t-280 218l28 41q412 -117 584 -406q82 -137 82 -274zM1702 1227q0 -31 -18 -49t-44 -17q-26 0 -48 22t-58 70q-92 109 -193 185l23 32
q338 -91 338 -243zM1499 1063q0 -31 -19 -49t-50 -18q-31 1 -89 81q-6 6 -8 10q-94 127 -188 203l24 33q330 -112 330 -260z" />
    <glyph glyph-name="Identity.455" unicode="&#x30a1;" 
d="M1454 1106q45 0 126 -77t81 -124q-1 -25 -21 -39t-55 -24t-45 -17q-201 -117 -319 -174q4 -16 -4 -35q-203 -518 -691 -739l-22 29q203 139 354 370q152 231 152 330q0 33 -30 56t-89 47l4 26q165 27 274 -35q162 127 220 230q23 41 -23 41t-272 -43q-226 -42 -300 -62
t-112 -42t-70 -22q-33 0 -86 47q-54 46 -72 94t-12 116l25 8q37 -43 57 -57t83 -14t343 29q280 30 350 40q68 9 102 25t52 16z" />
    <glyph glyph-name="Identity.456" unicode="&#x30a2;" 
d="M490 1348q66 0 458 41q391 41 469 52t118 30t60 20q53 0 151 -91t97 -145q-1 -27 -25 -44t-66 -31t-56 -25q-238 -152 -434 -254q4 -18 -7 -43q-127 -330 -333 -566t-537 -390l-31 39q268 176 466 476t198 429q0 43 -40 72t-120 61l6 37q92 10 137 6q113 -8 199 -55
q232 173 322 313q16 31 10 40t-56 9t-359 -51q-308 -51 -472 -88q-39 -10 -82 -39t-81 -29t-103 58q-67 58 -91 114q-24 58 -20 142l37 12l36 -44q34 -42 59 -49q24 -7 90 -7z" />
    <glyph glyph-name="Identity.457" unicode="&#x30a3;" 
d="M1425 1020q0 -30 -9 -42t-32 -26q-23 -16 -36 -30q-147 -154 -226 -228q88 -61 88 -94q0 -10 -7 -42t-10 -106t-2 -158q1 -83 4 -184t3 -124q0 -104 -82 -105q-55 0 -85 46t-30 110q0 14 8 51q36 192 27 465q0 31 -10 57q-309 -250 -616 -352l-21 31q281 162 545 429
t264 355q0 20 -26 44t-62 40l8 27q86 4 140 -12t110 -70q56 -52 57 -82z" />
    <glyph glyph-name="Identity.458" unicode="&#x30a4;" 
d="M1538 1382q0 -24 -11 -36t-40 -32t-49 -42q-246 -252 -301 -305q113 -76 112 -117q0 -16 -9 -54t-11 -67q-5 -235 -1 -452q5 -217 5 -248q0 -125 -92 -125q-63 0 -99 58q-35 58 -34 132q0 20 17 114t24 297q8 204 4 271t-21 96q-383 -326 -799 -475l-24 43
q325 182 605 442t409 455q55 84 55 117q0 50 -121 109l12 34q102 5 169 -17q68 -22 134 -86t66 -112z" />
    <glyph glyph-name="Identity.459" unicode="&#x30a5;" 
d="M983 1204q53 0 118 -39t64 -69q0 -20 -17 -44q-16 -24 -22 -60t-10 -101q178 8 212 14t64 30t46 23q47 0 120 -62q72 -62 72 -92t-34 -64t-42 -48q-122 -309 -316 -510t-517 -327l-23 28q264 156 440 389q175 233 234 506q4 23 1 28q-7 11 -214 -8q-207 -20 -281 -30
t-96 -10t-61 28q25 -336 25 -404t-68 -71q-43 0 -76 50t-33 100l9 74q0 47 -12 139q-11 92 -25 129q-20 63 -92 141l14 25q109 -23 182 -68q35 -20 53 -39q137 6 267 17q0 78 -3 146t-29 84t-85 30v24q82 41 135 41z" />
    <glyph glyph-name="Identity.460" unicode="&#x30a6;" 
d="M968 1622q62 0 142 -47t80 -84q0 -23 -23 -55t-29 -76q-6 -45 -10 -146q296 20 322 24t63 31q37 28 58 27q57 0 140 -74t83 -118q0 -27 -41 -65t-49 -58q-156 -395 -407 -665t-656 -441l-31 41q342 201 577 508q234 307 310 659q4 25 -1 33q-11 18 -300 -8t-386 -40
t-127 -13q-30 0 -77 32q2 -31 22 -240t21 -287q0 -77 -78 -81q-49 -2 -95 71t-30 159q6 33 6 69t-15 150q-15 115 -30 167t-48 94t-78 91l20 33q133 -35 197 -74t84 -63q271 15 376 26q0 117 -4 228q-2 61 -36 77q-21 12 -113 35l-2 37q103 43 165 43z" />
    <glyph glyph-name="Identity.461" unicode="&#x30a7;" 
d="M717 860q129 0 309 29t244 74q18 12 30 12q64 0 138 -35t73 -70q0 -28 -19 -50t-56 -23q-248 -16 -377 -31q100 -47 100 -96q0 -16 -13 -52t-18 -55q-18 -113 -30 -266q221 18 270 21q49 2 86 14t45 12q63 0 147 -51t85 -89t-19 -58t-42 -21q-22 0 -164 26
q-142 25 -262 27t-308 -18t-282 -55q-93 -35 -129 -35t-91 49q-56 49 -72 85t-18 107l23 8q73 -71 151 -71t426 35q10 169 10 287t-34 178q-209 -33 -218 -33q-60 0 -108 71t-68 132l21 12q90 -70 170 -70z" />
    <glyph glyph-name="Identity.462" unicode="&#x30a8;" 
d="M621 1176q170 0 407 36t298 76q24 14 41 24t34 11q78 0 162 -39t84 -80q0 -76 -91 -84q-254 -22 -501 -51q125 -55 125 -113q0 -20 -18 -65t-30 -127q-14 -82 -28 -328q200 20 324 28t170 21q46 14 55 15q78 0 180 -60t102 -116q1 -35 -21 -58q-22 -22 -48 -22t-193 30
q-165 30 -319 35q-154 3 -396 -21t-330 -48t-156 -48t-107 -24t-107 58t-88 104t-27 131l33 12q90 -98 179 -98t577 47q12 209 12 434q0 119 -51 195q-274 -41 -291 -41q-74 0 -145 94q-55 69 -80 147l29 21q117 -96 215 -96z" />
    <glyph glyph-name="Identity.463" unicode="&#x30a9;" 
d="M1120 1192q57 0 122 -38t65 -67q0 -16 -21 -53t-29 -186q156 19 209 45q18 8 25 8q51 0 118 -41t67 -73q-1 -66 -60 -66q-18 0 -118 7t-241 1q-4 -260 7 -455l10 -192q0 -70 -41 -126t-88 -56q-25 0 -40 16t-32 46q-16 30 -43 54t-160 95l9 26q147 -25 188 -27t45 31
q4 49 0 379q-122 -158 -322 -299t-419 -217l-17 27q217 133 397 314q179 181 275 360q-194 -29 -284 -59q-90 -32 -122 -32t-83 50t-65 86q-14 37 -13 100l20 8q68 -78 133 -78q37 0 498 51q0 149 -2 195t-36 69q-34 24 -93 40v20q84 37 141 37z" />
    <glyph glyph-name="Identity.464" unicode="&#x30aa;" 
d="M1337 156q0 -82 -49 -150t-104 -67q-31 0 -48 19t-37 54q-42 78 -174 143q-77 38 -87 44l12 34q215 -39 256 -41t45 37q6 74 2 559q-156 -208 -418 -406t-545 -306l-26 39q278 173 520 411t367 467q-297 -39 -448 -91q-69 -24 -107 -24t-103 60q-63 59 -81 102t-17 127
l33 15q82 -111 168 -110t653 65q0 172 -6 276q0 51 -47 76q-37 23 -133 35v35q98 49 176 49q79 0 157 -45t78 -78q0 -23 -18 -57q-35 -65 -41 -275q211 24 300 61q24 10 34 11q65 0 143 -47t78 -93q0 -29 -20 -48t-50 -19l-267 10q-73 0 -220 -8q-6 -493 17 -750
q7 -78 7 -114z" />
    <glyph glyph-name="Identity.465" unicode="&#x30ab;" 
d="M1556 1217q43 0 125 -70t82 -111q1 -24 -33 -52t-40 -64q-70 -475 -207 -742q-41 -82 -116 -138t-148 -56q-37 0 -56 17q-18 17 -28 57t-40 76t-52 55t-107 92l18 34q180 -72 236 -83t79 -6q22 5 42 32q82 106 140 362t58 381q0 25 -22 25q-102 0 -371 -39
q-221 -772 -897 -1089l-31 36q338 250 504 528q142 236 223 492q-203 -35 -261 -51q-58 -17 -101 -37t-77 -20t-91 59t-77 109t-7 147l35 8q27 -43 39 -60t40 -39t76 -22t463 48q50 216 52 290t-35 95t-125 43l-2 37q123 43 162 43q76 -2 170 -56t94 -100q0 -29 -32 -64
t-42 -75q-41 -177 -43 -189l283 35q30 4 66 33t54 29z" />
    <glyph glyph-name="Identity.466" unicode="&#x30ac;" 
d="M1675 1636q326 -92 326 -232q0 -66 -59 -67q-32 0 -76 59q-16 21 -25 29q-88 107 -188 181zM1812 1249q0 -29 -17 -47t-49 -18t-57 40q-102 147 -221 242l23 33q321 -106 321 -250zM1505 1200q43 0 125 -70t82 -110q0 -24 -34 -52t-40 -65q-70 -475 -206 -741
q-41 -82 -116 -138t-149 -57q-37 -1 -55 17t-32 70t-88 119q-22 19 -107 91l18 35q181 -72 237 -83t78 -6t42 32q82 106 140 361t58 382q0 25 -22 25q-102 0 -371 -39q-221 -772 -897 -1090l-31 37q337 249 504 527q143 237 223 493q-204 -35 -262 -51q-58 -17 -100 -37
t-77 -20q-34 0 -91 58q-56 60 -76 109t-8 148l35 8q27 -43 39 -60t40 -39t76 -22t463 47q51 217 52 291t-35 92q-37 23 -125 45l-2 37q123 43 161 43q76 -2 170 -56t95 -99q0 -29 -32 -64t-42 -76q-41 -176 -43 -188l282 35q31 5 67 33t54 28z" />
    <glyph glyph-name="Identity.467" unicode="&#x30ad;" 
d="M804 1591q62 0 142 -35t84 -71q2 -23 -11 -60t-7 -92t26 -153q214 58 261 80t64 31t26 9q57 4 123 -20t65 -63q0 -70 -94 -87q-193 -37 -416 -90q53 -242 70 -315q413 107 457 129t55 23q83 2 149 -27t66 -70q0 -72 -84 -80q-281 -25 -615 -106q85 -370 104 -432
q33 -110 35 -169q2 -91 -85 -93q-45 0 -81 47t-46 85t-24 161q-15 122 -64 362q-369 -104 -481 -170q-45 -27 -81 -28t-102 38t-90 74q-25 41 -37 117l31 18q78 -61 125 -61q80 0 608 143q-43 213 -68 315q-224 -56 -290 -88t-100 -32t-92 38q-57 37 -81 73t-37 102l27 14
q4 -4 18 -14t20 -14q35 -28 88 -29q54 0 415 88q-55 229 -69 257t-28 43q-13 14 -40 24q-27 9 -63 19l-54 15l-5 35q123 59 186 59z" />
    <glyph glyph-name="Identity.468" unicode="&#x30ae;" 
d="M1622 1610l20 28q170 -47 252 -112q70 -66 69 -129t-60 -64q-22 1 -35 15q-12 14 -20 22q-7 8 -20 26q-78 112 -206 214zM770 1587q62 0 142 -35t83 -71q2 -23 -11 -60t-7 -92t27 -153q212 57 260 79q47 23 64 32t26 9q57 4 123 -20t65 -64q0 -70 -94 -86
q-193 -37 -416 -90q53 -242 70 -315q413 107 457 129t55 22q84 2 150 -26t65 -70q0 -72 -84 -80q-281 -25 -615 -106q78 -339 109 -446t31 -153q0 -93 -86 -95q-45 0 -81 47t-45 85t-24 158q-15 119 -65 365q-369 -104 -481 -170q-46 -27 -82 -28t-101 38q-66 39 -90 74
q-25 41 -37 117l31 18q78 -61 125 -61q80 0 608 143q-43 213 -68 315q-218 -55 -274 -81q-56 -27 -73 -33t-47 -6q-30 -1 -88 37t-82 74t-36 102l27 14q4 -4 18 -14q13 -10 19 -14q35 -28 89 -29q54 0 415 88q-56 229 -70 257t-28 45q-14 16 -76 33t-80 23l-4 35
q124 59 186 59zM1436 1475l24 28q176 -59 246 -129t70 -125q0 -29 -18 -48t-48 -18q-29 1 -58 43q-11 15 -32 46q-96 131 -184 203z" />
    <glyph glyph-name="Identity.469" unicode="&#x30af;" 
d="M1020 1249q60 -1 200 17t174 27t72 36t58 27q47 0 138 -60t91 -110q0 -29 -46 -66t-60 -61q-481 -846 -1344 -1172l-27 43q383 203 712 550t456 667q14 37 -20 37t-134 -18t-172 -40q-72 -20 -98 -20q-27 0 -86 49q-285 -358 -649 -532l-29 39q231 180 421 435
q189 255 189 355q0 55 -121 113l9 32q170 24 301 -49q82 -45 82 -80q1 -18 -7 -30t-25 -35t-43 -66t-58 -88h16z" />
    <glyph glyph-name="Identity.470" unicode="&#x30b0;" 
d="M2040 1466q0 -63 -60 -63q-31 0 -58 35q-7 8 -21 26q-93 120 -211 207l22 31q328 -93 328 -236zM1858 1323q0 -29 -18 -47q-51 -50 -114 31q-6 8 -28 36q-81 113 -187 197l23 31q180 -57 252 -123t72 -125zM999 1225q61 0 201 17q140 16 173 26q34 10 72 37t58 26
q47 0 138 -60t92 -110q0 -29 -46 -65t-61 -62q-481 -846 -1343 -1171l-27 43q383 203 712 550t455 666q15 37 -19 37t-134 -18t-171 -39t-99 -21t-87 49q-285 -358 -649 -532l-28 39q231 180 420 435t190 355q0 55 -121 113l8 33q168 24 301 -49q82 -45 82 -80
q0 -25 -24 -57q-24 -31 -50 -75t-59 -87h16z" />
    <glyph glyph-name="Identity.471" unicode="&#x30b1;" 
d="M989 1419q0 -29 -33 -61t-43 -49q-68 -117 -135 -211q45 -8 66 -8q141 0 633 81q51 8 96 31t61 23q70 0 139 -37t68 -88q0 -72 -88 -72q-257 0 -309 -3t-254 -28q70 -33 115 -71t45 -66t-28 -62t-36 -53q-242 -557 -833 -833l-29 37q288 186 484 473t196 452
q0 61 -49 105l-92 -14q-13 -3 -63 -13t-73 -10q-43 0 -114 68q-207 -258 -502 -437l-33 35q213 186 385 450t172 390q0 57 -92 143l19 29q117 -16 175 -47t105 -78t47 -76z" />
    <glyph glyph-name="Identity.472" unicode="&#x30b2;" 
d="M1970 1446q0 -29 -16 -46q-40 -42 -83 1q-18 16 -36 39q-94 117 -203 209l21 30q165 -43 241 -103t76 -130zM954 1405q0 -29 -32 -61t-43 -50q-68 -117 -136 -211q45 -8 66 -8q141 0 633 82q51 8 96 31t61 22q70 0 139 -36t68 -89q0 -72 -88 -71q-258 0 -310 -3t-253 -28
q70 -33 115 -72t45 -65t-28 -62q-28 -35 -36 -53q-242 -557 -833 -833l-29 36q287 186 483 474t197 452q0 61 -49 105l-92 -15q-14 -2 -64 -12t-71 -10q-43 0 -115 67q-207 -258 -502 -436l-33 35q213 186 385 450t172 390q0 57 -92 143l19 29q117 -16 175 -48t105 -78
t47 -75zM1427 1540l23 29q154 -51 232 -119t77 -129q0 -63 -63 -64q-28 1 -50 27t-44 57q-83 117 -175 199z" />
    <glyph glyph-name="Identity.473" unicode="&#x30b3;" 
d="M1483 1303q53 0 151 -70t99 -121q0 -27 -35 -70q-35 -44 -46 -88t-114 -516q63 -14 101 -52t38 -81q0 -59 -90 -59q-23 0 -131 12t-201 12q-248 0 -520 -61q-41 -11 -102 -31t-101 -20t-103 52q-62 52 -91 118t-25 125l31 16q103 -109 191 -111q48 0 389 34
q342 34 432 42q80 506 88 645q2 25 -21 25q-67 0 -327 -33t-326 -47t-122 -38t-81 -23q-45 0 -104 59q-59 60 -77 116t-19 124l34 12q6 -6 36 -37t41 -39q40 -29 99 -30q58 -1 355 29t405 44q43 6 83 34t63 28z" />
    <glyph glyph-name="Identity.474" unicode="&#x30b4;" 
d="M1997 1418q0 -68 -60 -68q-34 0 -79 61q-97 125 -211 207l22 31q174 -45 252 -109q76 -54 76 -122zM1804 1253q0 -29 -17 -47t-43 -18t-45 20t-83 104t-156 158l23 33q321 -106 321 -250zM536 1118q48 0 345 30t405 44q43 6 83 34t63 27q53 1 151 -69t98 -121
q-1 -27 -35 -70t-45 -87t-114 -517q63 -14 101 -52t38 -81q0 -59 -90 -59q-24 0 -132 12t-200 12q-250 0 -520 -61q-41 -10 -102 -30t-101 -21q-40 0 -103 52q-62 51 -91 117t-25 125l31 17q103 -109 190 -111q39 1 187 15t347 33q198 19 288 28q80 506 88 645q4 25 -21 25
q-68 0 -328 -33t-326 -47t-121 -38q-56 -24 -91 -24q-35 -1 -94 59t-78 116t-19 124l35 13q6 -6 36 -37t41 -39q11 -7 36 -19t73 -12z" />
    <glyph glyph-name="Identity.475" unicode="&#x30b5;" 
d="M1911 993q-1 -65 -63 -65q-28 0 -137 13q-111 13 -191 13t-109 -2q-8 -248 -36 -408t-109 -274q-178 -256 -586 -379l-23 39q322 166 459 389q115 186 119 623q-201 -12 -399 -37v-401q0 -119 -82 -119q-45 0 -79 60t-34 120q0 15 17 109t20 211q-150 -23 -192 -36
t-96 -35t-79 -21q-45 0 -97 54t-72 98t-15 132l31 10q35 -43 48 -58q43 -50 94 -50q50 0 378 33q-4 248 -13 288t-41 57t-108 34l-2 34q86 39 145 39t137 -44t78 -93q0 -20 -19 -58t-19 -239q250 29 399 41q4 256 -10 369q-4 34 -38 50t-112 30v36q94 46 161 46
q68 0 148 -52t80 -98q0 -18 -22 -50t-25 -89q0 -115 -6 -226q86 9 167 23t101 14q86 0 159 -37t73 -94z" />
    <glyph glyph-name="Identity.476" unicode="&#x30b6;" 
d="M1976 1452q0 -27 -16 -43t-34 -16q-44 -1 -94 71q-89 129 -177 201l22 29q160 -51 236 -121q63 -63 63 -121zM1882 983q0 -65 -62 -65q-28 0 -138 13t-190 13t-110 -2q-8 -248 -36 -408q-81 -468 -695 -653l-22 39q322 166 458 389q115 186 119 623q-201 -12 -399 -37
v-401q0 -119 -82 -119q-45 0 -79 60t-34 120q0 15 18 109t19 210q-151 -23 -193 -36q-42 -12 -96 -34t-88 -22t-86 54t-72 99q-19 44 -16 132l31 10q35 -43 48 -58q43 -50 94 -50q50 0 378 32q-4 248 -13 288q-9 39 -41 57t-108 34l-2 35q85 39 145 39t138 -44t78 -93
q0 -20 -20 -58t-19 -239q129 15 399 41q4 256 -10 369q-4 35 -38 50t-111 29v37q95 45 161 45t147 -52t81 -97q0 -18 -22 -50t-25 -89q0 -96 -7 -226q86 9 168 23t101 14q87 0 159 -37t72 -94zM1491 1511l25 31q162 -63 235 -147q55 -61 54 -101t-16 -57q-31 -33 -76 -1
q-19 14 -39 46q-21 31 -71 103t-112 126z" />
    <glyph glyph-name="Identity.477" unicode="&#x30b7;" 
d="M815 786q1 -36 -21 -64t-63 -28t-71 22t-74 68t-78 76q-125 113 -234 172l17 41q169 -31 277 -63t178 -89q70 -58 69 -135zM547 209q98 0 340 139q243 138 523 368t448 445l40 -24q-156 -299 -458 -581t-658 -484q-10 -6 -58 -52t-95 -45q-47 -1 -130 55t-125 117
t-48 175l30 16q117 -129 191 -129zM985 1112q-37 0 -65 20t-78 71t-118 113t-183 132l16 39q152 -23 277 -60q236 -86 235 -223q1 -36 -23 -64t-61 -28z" />
    <glyph glyph-name="Identity.478" unicode="&#x30b8;" 
d="M797 756q0 -37 -22 -65q-23 -27 -63 -27t-70 22t-74 68t-79 75q-125 113 -233 172l16 41q170 -30 278 -62t178 -90t69 -134zM528 178q98 0 340 139t523 369t448 444l41 -24q-156 -299 -458 -581t-658 -484q-10 -6 -58 -51t-95 -45t-131 55q-84 54 -125 116
q-42 62 -48 175l31 16q39 -43 57 -60t58 -43t75 -26zM1051 1174q0 -37 -24 -65q-25 -28 -61 -28q-36 -1 -65 19t-78 72t-117 114t-184 131l17 39q152 -23 276 -59q236 -86 236 -223zM1907 1409q-1 -29 -17 -46t-41 -17t-40 14q-45 42 -66 74q-80 100 -187 190l23 31
q162 -47 254 -119q74 -61 74 -127zM1700 1243q0 -29 -20 -47t-45 -18q-26 0 -45 19q-18 19 -84 109t-154 167l24 30q188 -70 256 -136t68 -124z" />
    <glyph glyph-name="Identity.479" unicode="&#x30b9;" 
d="M1356 1434q55 0 147 -76t92 -112t-49 -72t-57 -48q-215 -324 -324 -442q271 -98 461 -244t191 -290q0 -43 -28 -75t-75 -32q-66 0 -198 176q-70 95 -114 151t-122 130t-166 129q-424 -442 -948 -619l-27 43q360 186 691 521t464 645q15 36 -24 32q-139 -18 -488 -118
q-30 -8 -68 -37t-80 -29t-102 58q-60 59 -80 115t-20 138l39 17q29 -39 45 -59t48 -41t92 -21t275 36q214 36 310 60q23 6 59 35t56 29z" />
    <glyph glyph-name="Identity.480" unicode="&#x30ba;" 
d="M1960 1462q0 -63 -59 -63q-34 0 -80 61q-90 119 -207 207l20 29q326 -83 326 -234zM1319 1391q55 0 147 -76t92 -112t-48 -73q-50 -37 -58 -47q-215 -324 -324 -442q272 -97 462 -243t190 -292q0 -42 -28 -74t-75 -32q-66 0 -198 176q-70 96 -114 152t-122 129
q-78 74 -166 129q-424 -442 -948 -619l-27 43q360 186 692 521q331 335 463 645q15 36 -24 32q-139 -18 -488 -118q-29 -8 -67 -37t-81 -29q-42 0 -101 58t-80 114t-21 139l39 17q29 -38 45 -58t48 -42q33 -22 93 -22t274 37q214 36 310 60q23 6 60 35t55 29zM1427 1530
l25 33q176 -55 256 -131q63 -55 64 -119q0 -29 -18 -46t-45 -17q-26 0 -45 18q-19 20 -76 101t-161 161z" />
    <glyph glyph-name="Identity.481" unicode="&#x30bb;" 
d="M962 236q40 -30 224 -29q184 0 340 39q51 12 59 12q68 0 123 -26t55 -74q0 -63 -100 -86q-181 -43 -373 -43t-272 9q-185 21 -231 139q-23 63 -25 157t4 465q-239 -89 -285 -121q-47 -33 -69 -42t-58 -9q-38 0 -112 57q-74 58 -96 104t-13 136l29 10q29 -35 44 -51
q46 -49 111 -49q66 0 453 114q4 362 -2 445q-4 35 -42 53t-126 39l-2 35q118 43 186 43q68 1 153 -51t85 -88t-25 -80t-33 -96t-22 -251q301 86 514 148q31 8 68 34t57 25q53 0 147 -77t95 -121q-1 -23 -21 -39q-20 -17 -54 -35t-48 -33q-231 -211 -440 -336l-31 33
q203 227 293 403q10 19 2 29t-29 6q-129 -20 -561 -176q-18 -280 -15 -436t43 -186z" />
    <glyph glyph-name="Identity.482" unicode="&#x30bc;" 
d="M1630 1618l21 31q166 -43 246 -105q79 -62 79 -128q0 -67 -59 -66q-21 0 -35 14l-21 21q-15 15 -66 81q-52 66 -165 152zM755 1540q69 0 153 -51t85 -87q-1 -36 -25 -80t-32 -96t-23 -251q301 86 514 147q31 8 68 34t57 26q54 0 148 -77t94 -122q0 -23 -20 -39t-54 -34
t-49 -33q-231 -211 -440 -336l-31 32q203 227 293 404q10 19 2 29t-29 6q-129 -20 -561 -176q-18 -280 -15 -436t43 -186q41 -30 181 -30t236 12t147 26q51 13 59 14q68 0 123 -26t56 -75q0 -63 -101 -86q-180 -43 -372 -43t-273 9q-185 21 -230 140q-24 63 -26 157t4 464
q-170 -62 -220 -86t-94 -55t-89 -31t-120 58t-96 103q-21 46 -14 136l29 10q29 -35 44 -51q46 -49 111 -49q66 0 453 115q4 362 -2 444q-4 36 -42 54t-126 38l-2 35q117 43 186 43zM1444 1483l22 30q176 -55 248 -121t74 -126q0 -29 -18 -47q-53 -54 -123 47q-6 3 -17 20
q-84 115 -186 197z" />
    <glyph glyph-name="Identity.483" unicode="&#x30bd;" 
d="M740 825q-62 0 -105 73q-16 28 -48 87q-116 213 -274 369l27 35q203 -72 349 -192t149 -249q2 -51 -29 -87t-69 -36zM1761 1272q0 -24 -42 -64t-56 -75q-183 -421 -491 -733t-746 -476l-29 41q299 168 546 426q247 259 379 493t163 414q8 41 -23 70t-129 64l10 38
q109 25 160 19q74 -6 166 -83t92 -134z" />
    <glyph glyph-name="Identity.484" unicode="&#x30be;" 
d="M522 935q-104 201 -274 368l28 34q201 -72 348 -191q146 -120 148 -251q2 -49 -29 -84t-67 -36q-64 -2 -107 73q-16 29 -47 87zM1675 1165q0 -27 -42 -65t-58 -74q-178 -412 -475 -700t-742 -453l-26 41q227 129 424 301q348 304 538 681q82 163 103 296q6 39 -21 68
t-129 65l10 39q100 24 166 18t159 -83t93 -134zM1946 1440q-31 0 -78 61q-93 120 -211 205l22 31q176 -45 252 -105t76 -126t-61 -66zM1760 1294q-20 0 -36 7q-15 7 -67 81q-94 123 -187 197l23 31q320 -106 322 -250q1 -30 -17 -48t-38 -18z" />
    <glyph glyph-name="Identity.485" unicode="&#x30bf;" 
d="M1149 1477q-1 -28 -25 -58q-24 -31 -37 -49l-55 -86q62 0 206 20t180 30q36 9 73 36t57 27q47 0 134 -66t87 -114q0 -25 -47 -60t-59 -57q-137 -250 -303 -455q201 -147 207 -270q2 -47 -25 -76q-28 -29 -60 -30t-50 6t-55 49t-75 91q-37 48 -69 85q-383 -406 -957 -613
l-26 43q487 246 868 695q-152 150 -416 272q-211 -205 -440 -319l-29 38q225 178 436 461q210 283 210 383q0 54 -119 113l8 33q165 24 299 -48q82 -44 82 -81zM1468 1190q16 39 -22 35q-46 -3 -146 -21t-172 -39t-95 -21q-24 0 -75 38q-106 -137 -213 -244
q297 -98 467 -197q176 236 256 449z" />
    <glyph glyph-name="Identity.486" unicode="&#x30c0;" 
d="M1704 1712q324 -87 324 -225q4 -61 -60 -66q-27 0 -52 28t-79 91t-156 141zM1503 1556l23 31q172 -53 248 -121q68 -57 70 -118t-62 -66q-33 0 -113 102t-166 172zM1108 1436q0 -28 -24 -58q-24 -31 -37 -49l-56 -86q61 1 205 21t181 29q36 9 73 36t57 27q47 0 134 -66
t88 -114q1 -25 -47 -60t-60 -57q-137 -250 -303 -455q201 -147 207 -270q2 -47 -25 -76t-59 -30t-51 6q-18 7 -56 50t-74 90q-36 48 -69 85q-383 -406 -956 -613l-27 43q487 246 868 695q-152 150 -415 272q-211 -205 -441 -319l-28 38q225 178 435 461t210 383
q0 54 -119 113l8 33q165 24 299 -48q82 -44 82 -81zM1427 1149q8 20 0 32t-138 -12q-129 -24 -202 -45q-73 -20 -96 -20t-73 37q-106 -137 -213 -244q297 -98 466 -197q176 236 256 449z" />
    <glyph glyph-name="Identity.487" unicode="&#x30c1;" 
d="M1880 877q0 -74 -74 -74q-12 0 -98 10t-202 10t-324 -16q-29 -336 -211 -566t-533 -364l-24 37q284 174 416 380t157 494q-367 -48 -503 -97q-73 -25 -111 -25q-39 0 -97 53q-57 53 -79 102q-18 49 -21 123l31 10q47 -54 78 -78t69 -24q152 0 639 59v52q-2 98 -16 153
t-57 92q-258 -45 -551 -63l-11 47q260 55 532 143t343 140q31 20 22 47q-8 27 -63 71l25 27q184 -28 278 -149q31 -40 31 -65q0 -24 -20 -34t-57 -16q-38 -6 -124 -39t-235 -72q55 -27 93 -61t38 -54q1 -20 -15 -65t-18 -104v-27q311 35 361 47q51 12 69 17t31 6
q83 0 157 -38t74 -89z" />
    <glyph glyph-name="Identity.488" unicode="&#x30c2;" 
d="M1989 1260q0 -63 -58 -64q-31 0 -55 32q-6 7 -19 24q-78 101 -200 192l22 33q310 -92 310 -217zM1614 999q84 1 158 -37t73 -90q0 -74 -73 -73q-14 0 -98 10t-202 10t-325 -16q-29 -336 -211 -566t-533 -364l-24 37q283 174 416 380t157 494q-372 -48 -502 -97
q-73 -25 -112 -25t-96 53t-80 102q-18 49 -21 123l31 10q47 -55 78 -79t69 -23q152 0 639 59v51q-2 98 -16 154t-57 92q-258 -45 -551 -63l-10 47q260 55 531 143t343 139q31 20 23 48t-64 71l25 27q186 -28 278 -149q30 -40 31 -65q1 -24 -19 -34t-58 -16t-124 -39
t-235 -72q55 -27 93 -61t38 -54t-16 -66t-17 -104v-26q311 35 361 47q51 12 69 17t31 5zM1821 1106q-1 -27 -17 -44q-42 -43 -102 18q-8 8 -70 88t-139 141l23 30q305 -92 305 -233z" />
    <glyph glyph-name="Identity.489" unicode="&#x30c3;" 
d="M754 625q0 -41 -24 -67t-58 -26t-56 18q-20 18 -29 41l-27 69t-48 114t-94 150l22 22q78 -29 152 -86q162 -104 162 -235zM1409 926q0 47 -104 98l6 27q72 10 106 8q70 -3 142 -67t71 -115q0 -23 -30 -61t-37 -54q-135 -286 -393 -522t-617 -346l-21 32q184 92 354 238
q304 261 457 562q66 128 66 200zM1100 748q0 -43 -28 -67t-64 -24t-55 22q-17 22 -37 83q-57 184 -140 274l21 23q106 -45 164 -88q139 -92 139 -223z" />
    <glyph glyph-name="Identity.490" unicode="&#x30c4;" 
d="M556 766q-46 0 -69 27t-53 109q-85 228 -194 358l30 30q104 -45 197 -127q182 -135 186 -293q1 -48 -25 -76t-72 -28zM1540 1268q0 63 -149 116l10 39q75 15 153 7t163 -85t85 -139q0 -30 -41 -68t-55 -65q-167 -350 -479 -668t-789 -481l-26 43q246 127 469 329t360 392
t218 348t81 232zM1112 1030q0 -49 -30 -78q-30 -28 -72 -28t-64 27q-20 28 -46 105q-75 221 -189 349l32 29q109 -51 209 -129q160 -119 160 -275z" />
    <glyph glyph-name="Identity.491" unicode="&#x30c5;" 
d="M1458 1192q0 63 -149 117l10 39q75 14 153 6t163 -84t85 -137q0 -31 -41 -70t-55 -66q-165 -342 -471 -644t-786 -470l-27 43q246 127 467 323t357 380t215 337t79 226zM480 743q-69 0 -101 74q-12 29 -35 89q-76 196 -190 337l32 31q92 -41 197 -127q188 -137 188 -297
q3 -47 -23 -77t-68 -30zM1049 991q0 -53 -30 -82t-73 -29q-42 0 -64 30q-22 28 -48 107q-82 230 -189 351l31 33q115 -57 211 -133q162 -127 162 -277zM2005 1503q0 -63 -59 -63q-23 0 -37 14l-21 21q-6 6 -21 26q-91 121 -210 207l20 31q328 -89 328 -236zM1815 1362
q-1 -30 -19 -48t-42 -18t-44 20t-55 66q-80 113 -187 197l23 33q182 -62 253 -126t71 -124z" />
    <glyph glyph-name="Identity.492" unicode="&#x30c6;" 
d="M1882 999q0 -77 -60 -77q-26 0 -110 9t-200 9t-345 -20q115 -68 115 -119q0 -25 -36 -66t-60 -101q-50 -128 -161 -295q-111 -166 -317 -314q-114 -82 -251 -148l-35 39q164 111 290 252q203 227 285 498q31 98 31 149t-24 86q-246 -33 -322 -55t-144 -46
q-67 -22 -107 -23t-99 51q-58 52 -76 98t-14 127l28 12q31 -35 47 -51q47 -47 114 -47t475 52q409 52 516 62t159 26q53 15 64 15q85 0 161 -39t76 -84zM1335 1548q88 0 142 -27q53 -28 53 -77q0 -57 -88 -74q-395 -86 -649 -86q-84 0 -140 47q-55 48 -110 150l24 22
q101 -67 235 -67t359 55q51 13 106 35q54 22 68 22z" />
    <glyph glyph-name="Identity.493" unicode="&#x30c7;" 
d="M2034 1430q0 -66 -60 -66q-32 0 -54 34q-5 8 -19 25l-21 27q-90 117 -174 178l20 29q152 -43 232 -105q76 -56 76 -122zM1548 1462l25 29q160 -51 239 -123q63 -61 64 -119q-2 -27 -19 -45t-34 -17q-41 2 -61 33q-21 31 -36 52q-110 139 -178 190zM1858 973
q0 -78 -60 -78q-26 0 -110 9t-201 9t-344 -20q115 -68 114 -119q1 -26 -35 -66t-75 -139t-120 -218q-79 -119 -155 -195q-180 -181 -440 -306l-35 39q164 111 290 252q203 227 286 498q31 97 31 149t-25 86q-247 -33 -323 -55q-76 -23 -140 -45t-106 -23q-43 -1 -103 51
q-59 52 -77 97t-13 127l29 12q31 -35 47 -51q47 -47 110 -47t475 52q413 52 530 64q117 11 159 26q42 14 53 14q86 0 162 -39t76 -84zM778 1409q134 0 359 55q60 15 110 36q49 21 64 22q88 0 141 -28t53 -77q0 -57 -88 -74q-395 -86 -649 -86q-84 -1 -140 47t-110 150l25 23
q101 -68 235 -68z" />
    <glyph glyph-name="Identity.494" unicode="&#x30c8;" 
d="M799 1589q59 0 152 -53t93 -96q0 -25 -22 -64q-22 -38 -31 -98q-8 -60 -16 -309q324 -49 510 -162q135 -80 135 -193q0 -42 -26 -72t-70 -30t-76 25q-31 25 -82 86t-104 106q-115 90 -287 164q-8 -350 0 -603q8 -254 8 -291q0 -95 -88 -93q-63 0 -100 68t-37 161
q0 25 11 80t22 161t11 508t-18 525q-8 47 -44 67t-115 33l-2 37q117 43 176 43z" />
    <glyph glyph-name="Identity.495" unicode="&#x30c9;" 
d="M1778 1327q0 -63 -60 -63q-16 0 -26 7t-16 11q-9 7 -20 22t-23 28q-11 13 -17 22q-86 104 -186 176l22 31q326 -85 326 -234zM780 1585q60 0 153 -53t93 -96q0 -25 -22 -64q-22 -38 -31 -98q-8 -60 -17 -309q324 -49 510 -162q135 -80 136 -193q0 -42 -26 -72t-71 -30
t-75 24t-82 86q-51 61 -105 107q-115 90 -287 164q-9 -435 7 -792q2 -65 2 -103q0 -94 -88 -92q-63 0 -101 68q-37 69 -37 161q0 25 12 80q33 165 33 618t-18 576q-8 47 -45 67t-115 33l-2 37q116 43 176 43zM1249 1364l25 31q178 -57 256 -129q66 -55 65 -121
q0 -29 -17 -47t-45 -19t-45 21q-18 22 -30 37t-22 30q-95 123 -187 197z" />
    <glyph glyph-name="Identity.496" unicode="&#x30ca;" 
d="M1247 1450q1 -22 -21 -56t-27 -115t-9 -228q271 32 326 45l84 18t40 9t23 3q63 0 149 -42t86 -91q0 -78 -86 -78q-12 -1 -109 5t-231 6t-288 -11q-31 -387 -206 -635t-544 -393l-28 41q282 174 424 408t165 561q-353 -44 -493 -102q-53 -23 -92 -24t-109 60t-90 111
q-16 31 -21 115l31 12q29 -35 47 -53q52 -51 112 -51t621 63q4 283 -10 379q-8 51 -164 80l-4 35q119 66 187 66t152 -48q85 -47 85 -90z" />
    <glyph glyph-name="Identity.497" unicode="&#x30cb;" 
d="M381 420q53 0 483 41t549 48t165 21t56 15q76 0 180 -66t103 -121q0 -36 -23 -58t-45 -22t-189 32t-333 32t-380 -24t-297 -46q-82 -22 -152 -46t-111 -24t-107 64q-66 62 -90 108q-23 46 -24 130l35 14q90 -98 180 -98zM1583 1149q1 -33 -21 -57t-63 -27
q-115 -10 -423 -48t-388 -38q-41 0 -88 37t-78 82q-33 57 -55 137l29 18q117 -104 213 -104q184 0 432 51q76 14 132 41t70 27q80 0 160 -36t80 -83z" />
    <glyph glyph-name="Identity.498" unicode="&#x30cc;" 
d="M1440 1452q57 0 154 -76t98 -131q0 -31 -52 -78t-67 -77q-121 -221 -273 -416q231 -143 340 -289q61 -84 62 -166q0 -43 -28 -71t-66 -28t-69 26q-30 24 -83 92q-106 135 -282 282q-348 -371 -955 -579l-22 47q532 262 847 639q-217 164 -434 266l25 47q289 -78 510 -182
q193 272 254 485q8 27 -17 27q-74 -2 -288 -42t-262 -54t-97 -40q-49 -24 -76 -24q-57 0 -125 55t-88 111q-16 61 -16 131l39 14q74 -109 158 -110q135 -4 690 86q29 3 65 29t58 26z" />
    <glyph glyph-name="Identity.499" unicode="&#x30cd;" 
d="M1839 360q0 -40 -28 -66q-29 -26 -65 -26t-60 18t-86 103q-145 202 -340 297l18 35q242 -27 402 -123t159 -238zM1061 -125q-47 0 -81 59t-34 115q0 8 21 135q23 127 22 357q0 41 -2 57q-399 -313 -827 -455l-25 45q329 170 649 428t435 459q10 17 8 25q-9 33 -492 -107
q-29 -10 -69 -41q-40 -30 -76 -30q-37 0 -97 50t-82 98t-18 151l31 10q82 -107 152 -107t298 38q227 38 340 65q39 10 71 35t48 24q51 0 133 -59t82 -93t-56 -66q-56 -30 -65 -40q-129 -164 -319 -330q49 -43 49 -80q0 -14 -6 -106t-6 -313l10 -203q0 -121 -94 -121z
M1241 1421q0 -41 -30 -71t-78 -31q-48 0 -81 48q-9 13 -15 19q-5 6 -16 24q-61 102 -263 237l20 30q266 -31 391 -128q72 -56 72 -128z" />
    <glyph glyph-name="Identity.500" unicode="&#x30ce;" 
d="M1311 1289q0 48 -29 79t-111 76l11 37q110 10 192 -16q82 -27 157 -95t75 -110t-44 -80t-61 -72q-410 -821 -1204 -1176l-29 43q350 236 619 566q268 330 387 608q37 92 37 140z" />
    <glyph glyph-name="Identity.501" unicode="&#x30cf;" 
d="M1917 463q4 -68 -28 -114t-82 -48q-51 -2 -75 33t-51 117q-154 436 -491 714l27 35q262 -120 474 -330t226 -407zM741 1008q0 38 -40 76t-97 65l12 35q92 10 142 2q84 -10 164 -97t79 -151q0 -30 -42 -68t-56 -55q-139 -174 -353 -343t-435 -269l-27 37q223 158 438 410
t215 358z" />
    <glyph glyph-name="Identity.502" unicode="&#x30d0;" 
d="M1882 408q4 -68 -28 -114t-82 -48t-74 33q-25 35 -51 116q-154 436 -492 715l27 35q262 -119 474 -329t226 -408zM707 952q0 37 -40 76t-98 66l13 34q92 10 141 2q84 -10 164 -97t80 -150q-1 -19 -15 -37t-42 -43t-42 -43q-139 -174 -353 -343t-435 -270l-27 37
q223 158 439 410q215 252 215 358zM1839 1217q-29 1 -77 61q-92 118 -212 205l21 30q176 -45 252 -105q75 -60 75 -126t-59 -65zM1714 1116q0 -29 -17 -47t-35 -18t-22 1q-6 1 -11 4t-9 6t-9 9t-9 10q-11 11 -19 25t-24 33q-94 123 -189 194l25 33q319 -108 319 -250z" />
    <glyph glyph-name="Identity.503" unicode="&#x30d1;" 
d="M1882 408q4 -68 -28 -114t-82 -48t-74 33q-25 35 -51 116q-154 436 -492 715l27 35q262 -119 474 -329t226 -408zM707 952q0 37 -40 76t-98 66l13 34q92 10 141 2q84 -10 164 -97t80 -150q-1 -19 -15 -37t-42 -43t-42 -43q-139 -174 -353 -343t-435 -270l-27 37
q223 158 439 410q215 252 215 358zM1669 1442q-63 0 -107 -45t-44 -109t44 -107q44 -44 107 -44t109 44q45 44 45 107t-45 109q-46 45 -109 45zM1669 1059q-96 1 -163 67t-66 162q0 96 66 163q67 67 163 67t163 -67q66 -67 66 -163t-66 -163q-67 -66 -163 -66z" />
    <glyph glyph-name="Identity.504" unicode="&#x30d2;" 
d="M1632 1052q0 -26 -9 -40t-32 -26q-24 -11 -50 -22t-44 -20q-352 -164 -784 -291q-6 -169 -5 -285t47 -150t251 -34t418 55q71 17 85 17q203 0 203 -96q0 -72 -88 -101q-162 -55 -610 -55q-209 0 -306 33t-129 105t-34 202q-2 129 6 515t-2 487q-8 37 -45 55t-117 35v30
q129 49 172 47q78 -2 160 -60t82 -105q0 -23 -24 -58t-29 -67q-18 -131 -33 -478q438 174 637 347q70 57 -15 163l25 23q92 -20 144 -57t89 -91q37 -52 37 -78z" />
    <glyph glyph-name="Identity.505" unicode="&#x30d3;" 
d="M1882 1321q-23 0 -35 12q-12 11 -20 21t-13 17q-6 7 -16 21t-16 21q-85 106 -183 180l23 31q324 -89 320 -240q0 -63 -60 -63zM1417 1444l25 31q174 -59 254 -134q63 -63 62 -105t-20 -62t-48 -18t-74 65l-17 22q-88 125 -182 201zM1534 1108q37 -53 37 -85
q-1 -32 -21 -45q-20 -14 -32 -20t-38 -17t-44 -19q-352 -164 -785 -291q-6 -169 -5 -285t47 -150q45 -34 201 -34q270 0 469 53q71 18 85 18q203 0 203 -96q0 -72 -88 -100q-162 -55 -611 -55q-209 0 -306 32t-129 106q-32 73 -34 203t11 770q2 146 -7 230q-8 37 -45 55
t-116 35v31q129 49 172 47q78 -2 160 -60t81 -106q1 -23 -23 -57t-30 -68q-18 -131 -33 -477q438 174 637 346q71 58 -14 164l24 22q92 -20 144 -57t90 -90z" />
    <glyph glyph-name="Identity.506" unicode="&#x30d4;" 
d="M1716 1616q92 0 157 -66t65 -156t-66 -157q-64 -66 -156 -66t-156 66t-65 157q1 90 65 156t156 66zM1716 1247q61 0 105 43q43 44 43 104t-43 103t-105 43t-104 -43q-43 -43 -43 -103t43 -104t104 -43zM1534 1108q37 -53 37 -85q-1 -32 -21 -45q-20 -14 -32 -20t-38 -17
t-44 -19q-352 -164 -785 -291q-6 -169 -5 -285t47 -150q45 -34 201 -34q270 0 469 53q71 18 85 18q203 0 203 -96q0 -72 -88 -100q-162 -55 -611 -55q-209 0 -306 32t-129 106q-32 73 -34 203t11 770q2 146 -7 230q-8 37 -45 55t-116 35v31q129 49 172 47q78 -2 160 -60
t81 -106q1 -23 -23 -57t-30 -68q-18 -131 -33 -477q438 174 637 346q71 58 -14 164l24 22q92 -20 144 -57t90 -90z" />
    <glyph glyph-name="Identity.507" unicode="&#x30d5;" 
d="M1522 1436q59 0 159 -83q101 -83 101 -124t-49 -93t-62 -79q-184 -395 -483 -673t-760 -437l-27 43q420 217 706 550t372 687q8 29 -23 28q-82 0 -362 -46t-379 -72q-19 -6 -69 -32t-75 -26q-55 0 -121 65t-80 111q-13 46 -18 140l33 12q33 -37 50 -54t51 -35t69 -20
q103 0 421 32t376 45t102 37q43 24 68 24z" />
    <glyph glyph-name="Identity.508" unicode="&#x30d6;" 
d="M492 1251q104 0 422 33t377 45q59 13 91 33t58 20q60 0 164 -88t104 -137q0 -33 -44 -76t-56 -71q-182 -395 -482 -673t-761 -437l-27 43q422 215 706 545t371 686q8 29 -22 28q-80 0 -358 -46t-340 -62t-111 -38q-49 -24 -74 -24q-55 0 -122 65t-81 114t-18 137l35 14
q90 -111 168 -111zM1982 1401q-24 0 -37 13l-21 21q-7 7 -21 25q-97 125 -211 207l22 31q328 -87 328 -236q-1 -61 -60 -61zM1797 1249q-30 0 -77 66q-4 2 -16 20q-86 117 -186 199l22 29q170 -51 246 -119t76 -129q0 -29 -18 -47t-47 -19z" />
    <glyph glyph-name="Identity.509" unicode="&#x30d7;" 
d="M492 1251q104 0 422 33t377 45q59 13 91 33t58 20q60 0 164 -88t104 -137q0 -33 -44 -76t-56 -71q-182 -395 -482 -673t-761 -437l-27 43q422 215 706 545t371 686q8 29 -22 28q-80 0 -358 -46t-340 -62t-111 -38q-49 -24 -74 -24q-55 0 -122 65t-81 114t-18 137l35 14
q90 -111 168 -111zM1810 1638q-59 0 -102 -42t-43 -102t43 -102t102 -42t103 42q43 42 43 102t-43 102q-44 42 -103 42zM1810 1272q-92 0 -158 64t-65 158q0 93 66 158q65 64 157 64t157 -64t65 -158t-65 -158t-157 -64z" />
    <glyph glyph-name="Identity.510" unicode="&#x30d8;" 
d="M861 1227q81 0 175 -88q545 -524 795 -690q49 -33 77 -83t27 -104q0 -92 -84 -92q-90 0 -319 233q-56 59 -284 303t-290 305q-62 62 -98 62q-35 1 -84 -59q-50 -60 -164 -224t-126 -178q-12 -16 -19 -29q-9 -13 -19 -23q-10 -9 -19 -18q-28 -28 -76 -28q-47 0 -107 36
t-96 83t-46 137l27 23q74 -63 119 -63t100 48q99 89 216 218q116 129 136 149q78 82 159 82z" />
    <glyph glyph-name="Identity.511" unicode="&#x30d9;" 
d="M246 676q45 0 119 66t193 197q120 132 140 153q78 82 159 82t175 -89q545 -524 795 -690q49 -33 77 -83t27 -103q0 -92 -84 -92q-90 0 -319 233q-57 59 -285 302q-227 244 -289 306t-98 62q-35 0 -84 -60q-50 -60 -164 -222q-114 -164 -126 -180t-19 -28q-9 -13 -19 -23
q-10 -9 -19 -19q-26 -28 -75 -27q-48 0 -108 36t-96 83t-46 137l27 22q74 -63 119 -63zM1834 1159q-17 -18 -48 -18t-63 41q-11 14 -40 51q-92 125 -215 207l25 30q170 -40 264 -116t94 -148q0 -29 -17 -47zM1579 956q-37 0 -115 112t-190 200l22 30q176 -51 277 -145
q76 -68 74 -131q-5 -66 -68 -66z" />
    <glyph glyph-name="Identity.512" unicode="&#x30da;" 
d="M246 676q45 0 119 66t193 197q120 132 140 153q78 82 159 82t175 -89q545 -524 795 -690q49 -33 77 -83t27 -103q0 -92 -84 -92q-90 0 -319 233q-57 59 -285 302q-227 244 -289 306t-98 62q-35 0 -84 -60q-50 -60 -164 -222q-114 -164 -126 -180t-19 -28q-9 -13 -19 -23
q-10 -9 -19 -19q-26 -28 -75 -27q-48 0 -108 36t-96 83t-46 137l27 22q74 -63 119 -63zM1538 1354q-68 0 -115 -47t-47 -115t47 -115t115 -47t115 47t47 115t-47 115t-115 47zM1538 954q-98 0 -168 70t-70 168t70 168t168 70t168 -70t70 -168t-70 -168t-168 -70z" />
    <glyph glyph-name="Identity.513" unicode="&#x30db;" 
d="M1762 209q-56 0 -98 83q-3 5 -15 30q-120 249 -295 389l22 32q188 -55 329 -165q140 -111 157 -246q6 -55 -19 -89t-81 -34zM406 1032q70 0 563 55q-3 233 -15 281t-46 66q-34 16 -113 32l-2 39q100 39 174 38q75 -1 149 -45t74 -87q0 -20 -20 -51q-20 -32 -27 -80
q-6 -48 -10 -172q281 38 426 78q25 6 38 6q72 0 144 -38t71 -91q0 -70 -83 -70l-242 11q-106 0 -359 -27v-176l15 -647q0 -80 -46 -147t-112 -66q-44 0 -62 20t-33 48t-26 44q-51 76 -162 144l19 36q150 -41 207 -49q37 -4 39 29q12 143 9 415t-5 333q-236 -31 -385 -64
q-37 -8 -86 -34q-49 -25 -84 -25t-88 46q-54 46 -76 94t-23 138l33 14q74 -98 144 -98zM338 162q-43 0 -70 26q-26 26 -26 62q1 56 23 79q23 23 110 87q157 123 223 307l47 -8q-4 -193 -95 -373t-212 -180z" />
    <glyph glyph-name="Identity.514" unicode="&#x30dc;" 
d="M1608 1661q322 -83 326 -215q2 -64 -58 -70q-26 0 -42 16q-14 16 -26 28t-30 36q-93 104 -193 176zM1765 182q-41 0 -57 14t-24 19q-7 5 -18 25t-14 25q-4 5 -16 30l-14 29q-109 223 -281 360l23 33q188 -55 328 -166t157 -246q5 -55 -19 -89t-65 -34zM1084 -20
q-46 -66 -100 -66t-71 18t-34 48q-17 31 -27 47q-51 76 -162 143l19 37q151 -41 197 -47t48 26q12 142 10 414t-6 334q-236 -32 -329 -52t-142 -46t-83 -25q-34 0 -89 46q-53 47 -75 95t-23 138l33 14q74 -98 144 -98t562 55q-4 233 -15 281t-45 66q-34 16 -114 32l-2 39
q100 39 174 38t149 -45t75 -88q0 -20 -20 -51t-27 -79q-6 -48 -11 -173q268 36 357 60t108 24q72 0 144 -38t71 -91q0 -70 -84 -69l-241 10q-106 0 -359 -27v-176l14 -647q0 -81 -46 -147zM326 135q-43 0 -70 27t-27 73t32 75q9 9 46 37t55 42q158 123 224 307l47 -8
q-4 -193 -95 -373t-212 -180zM1739 1294q1 -27 -17 -44t-36 -17t-23 1q-6 1 -13 6t-12 8q-4 4 -12 14t-12 14t-15 18q-10 14 -14 19q-106 131 -190 194l22 31q160 -47 254 -125q68 -61 68 -119z" />
    <glyph glyph-name="Identity.515" unicode="&#x30dd;" 
d="M1765 182q-41 0 -57 14t-24 19q-7 5 -18 25t-14 25q-4 5 -16 30l-14 29q-109 223 -281 360l23 33q188 -55 328 -166t157 -246q5 -55 -19 -89t-65 -34zM1084 -20q-46 -66 -100 -66t-71 18t-34 48q-17 31 -27 47q-51 76 -162 143l19 37q151 -41 197 -47t48 26
q12 142 10 414t-6 334q-236 -32 -329 -52t-142 -46t-83 -25q-34 0 -89 46q-53 47 -75 95t-23 138l33 14q74 -98 144 -98t562 55q-4 233 -15 281t-45 66q-34 16 -114 32l-2 39q100 39 174 38t149 -45t75 -88q0 -20 -20 -51t-27 -79q-6 -48 -11 -173q268 36 357 60t108 24
q72 0 144 -38t71 -91q0 -70 -84 -69l-241 10q-106 0 -359 -27v-176l14 -647q0 -81 -46 -147zM326 135q-43 0 -70 27t-27 73t32 75q9 9 46 37t55 42q158 123 224 307l47 -8q-4 -193 -95 -373t-212 -180zM1673 1241q-94 0 -160 66q-65 67 -65 159t65 158q66 66 160 66t160 -66
q65 -66 65 -159t-66 -159t-159 -65zM1673 1614q-61 0 -104 -43t-43 -105t43 -106q43 -43 104 -43t105 43q43 43 43 105t-43 106q-44 43 -105 43z" />
    <glyph glyph-name="Identity.516" unicode="&#x30de;" 
d="M344 1139q264 0 1135 106q25 2 65 29t62 26q64 0 166 -89t102 -148q0 -31 -23 -44t-67 -27t-72 -40q-352 -295 -565 -438q188 -164 188 -330q1 -51 -29 -80q-30 -28 -74 -28t-71 40t-86 141t-141 196q-137 168 -316 301l23 34q238 -76 430 -215q147 125 277 267t188 241
q12 21 6 33t-29 10q-180 -14 -514 -64t-460 -83q-21 -6 -71 -36t-90 -30q-40 -1 -108 59t-92 116t-26 147l32 14q19 -19 34 -36q64 -72 126 -72z" />
    <glyph glyph-name="Identity.517" unicode="&#x30df;" 
d="M1380 -53q-52 0 -118 51q-23 16 -76 59q-156 115 -318 189t-385 143l11 41q240 -10 478 -68t374 -143q138 -84 138 -178t-104 -94zM1276 666q-24 -26 -63 -27q-40 1 -73 21q-32 20 -77 51q-242 151 -512 247l10 39q358 -2 590 -102q150 -66 149 -166q0 -37 -24 -63z
M1456 1192q0 -30 -22 -58t-62 -29q-39 -1 -64 15q-57 37 -94 68q-124 90 -250 149t-325 119l8 39q446 -19 647 -113q162 -76 162 -190z" />
    <glyph glyph-name="Identity.518" unicode="&#x30e0;" 
d="M1798 158q0 -62 -33 -98t-71 -36t-58 13q-20 12 -40 63q-19 52 -36 107t-36 102q-152 -37 -510 -107t-439 -89q-18 -4 -66 -37t-69 -33q-55 0 -122 73q-66 73 -72 123t0 101l26 12q84 -61 128 -61t120 8q121 229 263 568q143 339 143 411t-101 154l13 32q88 -4 154 -26
t138 -86q70 -64 70 -98t-40 -72t-52 -64q-276 -530 -444 -807q457 45 817 99q-94 190 -260 352l30 33q221 -105 384 -283t163 -354z" />
    <glyph glyph-name="Identity.519" unicode="&#x30e1;" 
d="M1487 262q-47 0 -83 40t-109 138t-162 185q-408 -475 -951 -668l-24 39q479 281 843 745q-217 180 -481 340l25 43q309 -94 559 -241q100 150 170 291t70 187t-32 78q-32 31 -98 70l15 35q133 -4 197 -32t123 -88q58 -60 59 -111q0 -23 -36 -56t-54 -61
q-160 -272 -261 -412q133 -94 233 -205q99 -112 101 -200q3 -53 -27 -85t-77 -32z" />
    </font>
</defs>
</svg>
