<?xml version="1.0" standalone="no"?>
<!DOCTYPE svg PUBLIC "-//W3C//DTD SVG 1.1//EN" "http://www.w3.org/Graphics/SVG/1.1/DTD/svg11.dtd" >
<svg xmlns="http://www.w3.org/2000/svg">
<metadata>
Created by FontPrep 20130207 at Tue Jun 20 15:47:05 2017
 By quqjp
</metadata>
<defs>
<font id="5031e31d1d0953fd546a2c7c00db2435" horiz-adv-x='1024' >
  <font-face 
    font-family="SourceHanSerifBold"
    font-weight="700"
    font-stretch="normal"
    units-per-em="2048"
    panose-1="2 0 8 3 0 0 0 0 0 0"
    ascent="1638"
    descent="-410"
    x-height="1096"
    cap-height="1520"
    bbox="-223 -571 2370 2026"
    underline-thickness="102"
    underline-position="-205"
    unicode-range="U+0020-FFE5"
  />
<missing-glyph 
 />
    <glyph glyph-name=".notdef" 
 />
    <glyph glyph-name=".null" horiz-adv-x="0" 
 />
    <glyph glyph-name="nonmarkingreturn" horiz-adv-x="681" 
 />
    <glyph glyph-name="Identity.1" unicode=" " horiz-adv-x="514" 
 />
    <glyph glyph-name="Identity.2" unicode="!" horiz-adv-x="720" 
d="M360 1548q78 0 122 -43t44 -125q0 -141 -92 -567l-41 -307h-63l-43 307q-90 430 -90 567q1 82 43 125t120 43zM361 -33q-71 0 -121 49t-50 121t50 121t122 49q70 0 119 -49t49 -121t-49 -121t-120 -49z" />
    <glyph glyph-name="Identity.3" unicode="#" horiz-adv-x="1251" 
d="M1206 895h-280l-47 -301h251v-197h-280l-62 -397h-92l60 397h-369l-59 -397h-95l60 397h-246v197h277l45 301h-246v197h274l60 387h92l-57 -387h368l60 387h94l-60 -387h252v-197zM786 594l45 301h-370l-45 -301h370z" />
    <glyph glyph-name="Identity.4" unicode="$" horiz-adv-x="1196" 
d="M1100 382q0 -164 -120 -276q-120 -113 -323 -135v-233h-90v229q-203 2 -321 88t-129 236q31 86 114 86q111 0 129 -135l29 -170q78 -27 178 -27v578l-43 18q-194 78 -288 181t-94 268t117 276q118 111 314 125v211h91v-209q176 -10 284 -95t121 -224q-20 -92 -108 -93
q-121 0 -146 154l-33 164q-55 14 -118 14v-551l22 -8q226 -92 320 -200t94 -272zM369 1155q0 -97 49 -155t155 -105v510q-94 -20 -149 -87t-55 -163zM866 313q0 100 -46 159t-163 112v-531q96 23 153 91q56 69 56 169z" />
    <glyph glyph-name="Identity.5" unicode="%" horiz-adv-x="1988" 
d="M1514 918q140 0 234 -117t95 -354q0 -237 -94 -353q-95 -116 -235 -114q-140 0 -234 116t-94 350q0 236 94 354t234 118zM1663 448q-1 410 -149 410t-148 -411t147 -410q150 1 150 411zM475 1493q141 0 235 -117q94 -118 95 -354q0 -236 -94 -352q-95 -116 -235 -115
q-140 0 -235 116q-95 117 -95 353t94 352t235 117zM328 1023q0 -411 148 -411t149 411q-1 411 -149 411t-148 -411zM508 -66l-64 46l1055 1540l64 -45z" />
    <glyph glyph-name="Identity.6" unicode="&#x26;" horiz-adv-x="1644" 
d="M1364 -31q-176 0 -291 107q-63 63 -92 96q-172 -205 -440 -205q-217 0 -344 118t-127 290q0 283 354 446l-27 31q-141 176 -141 343t110 260t286 93t274 -80q96 -80 96 -205t-82 -213t-258 -173q72 -82 178 -197q123 -139 256 -279q119 207 162 482l-186 24v66h477v-66
l-166 -24q-43 -164 -98 -284t-146 -243q211 -220 271 -280l129 -15l-3 -63q-131 -29 -192 -29zM653 1466q-82 0 -136 -56t-54 -158t96 -230q14 -20 84 -102q186 170 186 340q0 98 -47 152t-129 54zM307 463q0 -150 95 -246t255 -96t281 98q-146 162 -477 559
q-154 -129 -154 -315z" />
    <glyph glyph-name="Identity.7" unicode="'" horiz-adv-x="473" 
d="M238 1679q63 0 100 -39t37 -118q1 -79 -27 -207q-28 -127 -29 -129l-49 -232h-67l-49 232q-4 25 -29 146t-27 194q1 153 140 153z" />
    <glyph glyph-name="Identity.8" unicode="(" horiz-adv-x="815" 
d="M391 639q0 -293 78 -523t270 -489l-47 -41q-260 228 -387 482t-127 568t128 569t386 481l47 -41q-199 -257 -273 -485t-75 -521z" />
    <glyph glyph-name="Identity.9" unicode=")" horiz-adv-x="815" 
d="M424 633q0 293 -78 523t-270 489l45 41q260 -228 388 -482t128 -568t-128 -569t-388 -481l-45 41q200 257 274 485t74 521z" />
    <glyph glyph-name="Identity.10" unicode="*" horiz-adv-x="999" 
d="M414 1604q0 46 24 72q24 24 62 24q36 0 62 -27t26 -61t-45 -240l-27 -119l107 62q11 8 37 22t69 42t66 35q24 8 38 14t42 6t53 -25t24 -59q0 -59 -63 -82t-240 -35l-123 -12l95 -82q147 -127 171 -161q50 -70 -1 -121q-25 -23 -69 -23t-77 51t-96 205l-47 114l-51 -117
q-61 -153 -95 -203t-77 -50q-45 0 -67 24t-22 48q0 54 46 100t86 80q41 35 61 53l90 82l-121 10q-180 14 -242 36t-63 79q0 38 26 62q27 24 59 24t52 -10q75 -36 107 -56q32 -21 86 -51l106 -62l-26 119q-43 186 -43 232z" />
    <glyph glyph-name="Identity.11" unicode="+" horiz-adv-x="1232" 
d="M1159 803v-111h-483v-514h-117v514h-485v111h485v502h117v-502h483z" />
    <glyph glyph-name="Identity.12" unicode="," horiz-adv-x="686" 
d="M341 307q77 0 136 -57q31 -72 31 -164q0 -194 -125 -344t-293 -213l-27 59q129 70 203 148t107 192l-94 58q-104 61 -105 159q0 70 45 116t122 46z" />
    <glyph glyph-name="Identity.13" unicode="-" horiz-adv-x="749" 
d="M92 508v139h567v-139h-567z" />
    <glyph glyph-name="Identity.14" unicode="." horiz-adv-x="686" 
d="M343 -33q-71 0 -120 50t-49 120t49 120t120 50t120 -50t49 -120t-49 -120t-120 -50z" />
    <glyph glyph-name="Identity.15" unicode="/" horiz-adv-x="815" 
d="M25 -367l614 1991h149l-610 -1991h-153z" />
    <glyph glyph-name="Identity.16" unicode="0" horiz-adv-x="1196" 
d="M599 1548q216 0 362 -195q145 -196 145 -591t-145 -595t-361 -200t-362 199t-146 595q0 395 146 591t361 196zM354 758q0 -715 245 -715t245 715t-245 715t-245 -715z" />
    <glyph glyph-name="Identity.17" unicode="1" horiz-adv-x="1196" 
d="M1051 0h-879v63l303 37q6 190 6 381v889l-266 -27v76l516 123l29 -22l-8 -330v-709q0 -191 6 -381l293 -37v-63z" />
    <glyph glyph-name="Identity.18" unicode="2" horiz-adv-x="1196" 
d="M1100 217v-217h-983v160q201 230 359 410t231 308q71 128 71 276t-70 234q-71 87 -194 87q-41 0 -96 -11l-49 -188q-29 -156 -138 -156q-84 0 -120 78q18 166 156 259t348 93t324 -110t114 -299q0 -76 -28 -146q-29 -69 -101 -155t-155 -165t-237 -214q-67 -62 -262 -244
h830z" />
    <glyph glyph-name="Identity.19" unicode="3" horiz-adv-x="1196" 
d="M262 1159q-78 0 -108 68q14 159 139 241t327 82t319 -99q118 -99 118 -251q0 -314 -361 -399q406 -66 406 -410q0 -188 -146 -306t-372 -118q-444 0 -486 342q33 82 117 82q57 0 90 -36t47 -124l37 -176q49 -12 100 -12q160 0 247 91t87 261t-85 263t-249 94h-90v84h76
q145 0 231 87q85 87 85 243t-68 232q-68 77 -193 77q-47 -1 -88 -9l-43 -174q-23 -133 -137 -133z" />
    <glyph glyph-name="Identity.20" unicode="4" horiz-adv-x="1196" 
d="M1147 594v-178h-232v-416h-243v416h-602v147l659 967h186v-936h232zM672 594v725l-494 -725h494z" />
    <glyph glyph-name="Identity.21" unicode="5" horiz-adv-x="1196" 
d="M582 926q246 0 388 -123t142 -348t-157 -357t-412 -131q-197 0 -315 90t-138 252q31 82 121 82q57 0 88 -35t45 -118l35 -177q55 -18 123 -18q152 0 238 104q86 105 87 287q0 182 -87 282t-238 99q-111 0 -221 -35l-60 29l49 711h793v-222h-713l-26 -409q123 37 258 37z
" />
    <glyph glyph-name="Identity.22" unicode="6" horiz-adv-x="1196" 
d="M698 930q194 0 306 -125q110 -125 110 -343t-136 -356t-373 -139q-237 0 -380 172t-143 471q0 367 259 632t683 308l12 -51q-297 -70 -467 -250t-204 -454q139 135 333 135zM618 43q102 0 164 98q62 99 62 291q1 384 -240 383q-145 0 -246 -94q-2 -25 -2 -72
q0 -303 68 -455t194 -151z" />
    <glyph glyph-name="Identity.23" unicode="7" horiz-adv-x="1196" 
d="M117 1520h952v-138l-534 -1382h-228l-20 20l651 1278h-821v222z" />
    <glyph glyph-name="Identity.24" unicode="8" horiz-adv-x="1196" 
d="M1094 389q0 -193 -138 -307t-370 -115q-232 1 -358 99t-126 262q0 254 338 387q-301 150 -301 438q0 178 133 288q133 109 336 109t316 -99t112 -253q0 -221 -295 -360q181 -86 267 -195t86 -254zM603 1475q-99 0 -166 -66q-67 -67 -67 -175t70 -199q68 -91 248 -173
q131 139 131 344q0 119 -58 194q-59 75 -158 75zM332 336q0 -130 70 -212t192 -81q120 0 186 70q66 71 66 189t-79 209t-278 179q-85 -74 -121 -150q-36 -74 -36 -204z" />
    <glyph glyph-name="Identity.25" unicode="9" horiz-adv-x="1196" 
d="M512 598q-186 0 -312 122t-125 342t145 354t377 134t371 -168t138 -462q0 -358 -236 -616t-653 -345l-16 61q270 92 417 256t191 416q-111 -94 -297 -94zM584 1475q-104 -1 -171 -101t-67 -288t76 -288t197 -100t202 68q8 74 8 174q0 535 -245 535z" />
    <glyph glyph-name="Identity.26" unicode=":" horiz-adv-x="686" 
d="M343 -33q-71 0 -120 50t-49 120t49 120t120 50t120 -50t49 -120t-49 -120t-120 -50zM343 797q-71 0 -120 49t-49 119q0 69 49 119t120 50t120 -50t49 -120t-49 -118q-49 -49 -120 -49z" />
    <glyph glyph-name="Identity.27" unicode=";" horiz-adv-x="686" 
d="M341 307q77 0 136 -57q31 -72 31 -164q0 -194 -125 -344t-293 -213l-27 59q129 70 203 148t107 192l-94 58q-104 61 -105 159q0 70 45 116t122 46zM343 797q-71 0 -120 49t-49 119q0 69 49 119t120 50t120 -50t49 -120t-49 -118q-49 -49 -120 -49z" />
    <glyph glyph-name="Identity.28" unicode="&#x3c;" horiz-adv-x="1232" 
d="M1100 1206l-867 -456l867 -459l-51 -96l-943 514v79l943 515z" />
    <glyph glyph-name="Identity.29" unicode="=" horiz-adv-x="1232" 
d="M1159 930h-1085v108h1085v-108zM1159 457h-1085v110h1085v-110z" />
    <glyph glyph-name="Identity.30" unicode="&#x3e;" horiz-adv-x="1232" 
d="M184 1305l942 -517v-79l-942 -512l-51 96l868 457l-868 458z" />
    <glyph glyph-name="Identity.31" unicode="?" horiz-adv-x="970" 
d="M174 1423q0 106 121 138q172 -36 349 -161q85 -60 139 -148t55 -189q0 -225 -220 -313l-92 -35q-72 -33 -94 -56t-26 -69l-3 -101h-65l-27 84q-37 127 -37 175t39 88t138 77l124 45q88 37 122 72q34 36 33 94t-32 107l-360 55q-164 25 -164 137zM367 307q71 0 119 -49
t48 -121t-48 -121t-120 -49t-121 49q-50 49 -50 121t50 121t122 49z" />
    <glyph glyph-name="Identity.32" unicode="@" horiz-adv-x="1976" 
d="M1415 174q141 0 262 162t121 442t-192 464q-194 183 -474 183t-496 -131t-334 -346t-118 -467q0 -360 215 -563t547 -203q242 0 440 103l25 -56q-219 -119 -489 -118q-369 0 -603 214q-233 214 -233 607q0 436 299 734t748 298q345 0 551 -208t206 -541q0 -156 -48 -285
t-125 -206q-159 -159 -335 -159q-225 0 -270 191q-125 -190 -313 -191q-117 0 -188 79t-71 225t53 274q52 129 130 223t171 143q93 50 187 50t154 -93l174 91l31 -23l-127 -670q-19 -121 5 -172t97 -51zM916 232q82 0 184 112l102 580q-43 66 -115 65q-117 0 -208 -131
q-129 -188 -129 -407q0 -218 166 -219z" />
    <glyph glyph-name="Identity.33" unicode="A" horiz-adv-x="1527" 
d="M1505 0h-661v72l198 22l-129 398h-489l-121 -396l201 -24v-72h-479v72l176 24l467 1430h178l489 -1436l170 -18v-72zM446 567h443l-225 703z" />
    <glyph glyph-name="Identity.34" unicode="B" horiz-adv-x="1452" 
d="M92 1520h684q260 0 388 -98t128 -263q0 -276 -395 -354q479 -57 479 -387q0 -176 -154 -297t-497 -121h-633v72l195 18q4 209 4 637v88q0 410 -4 612l-195 19v74zM698 1440h-120q-6 -199 -7 -611h97q348 0 348 320q-1 291 -318 291zM705 80q182 0 280 86t98 254t-97 250
t-302 82h-113q1 -459 7 -672h127z" />
    <glyph glyph-name="Identity.35" unicode="C" horiz-adv-x="1435" 
d="M891 -39q-350 0 -572 213q-221 213 -221 585q0 373 230 585t571 212q229 0 432 -114l-4 -355h-117l-90 351q-84 35 -184 35q-238 -1 -385 -185t-147 -532t146 -530t386 -181q102 0 201 39l90 346h119l2 -352q-207 -117 -457 -117z" />
    <glyph glyph-name="Identity.36" unicode="D" horiz-adv-x="1617" 
d="M92 1520h660q358 0 563 -201t205 -557t-217 -559t-588 -203h-623v72l195 18q4 203 4 645v68q0 418 -4 624l-195 19v74zM707 80q247 0 379 179t132 504t-129 501q-130 176 -368 176h-139q-6 -207 -7 -637v-68q1 -446 7 -655h125z" />
    <glyph glyph-name="Identity.37" unicode="E" horiz-adv-x="1368" 
d="M92 0v72l195 18q4 203 4 619v100q0 412 -4 618l-195 19v74h1145l2 -402h-111l-77 316h-469q-6 -201 -7 -621h308l30 223h97v-516h-97l-28 215h-310q0 -442 7 -651h510l79 328h113l-6 -412h-1186z" />
    <glyph glyph-name="Identity.38" unicode="F" horiz-adv-x="1325" 
d="M1016 1036v-532h-96l-31 231h-314q0 -438 7 -643l219 -20v-72h-709v72l195 18q4 203 4 619v100q0 412 -4 618l-195 19v74h1155l2 -402h-110l-78 316h-479q-6 -201 -7 -621h314l31 223h96z" />
    <glyph glyph-name="Identity.39" unicode="G" horiz-adv-x="1550" 
d="M1522 737v-71l-136 -17q-4 -287 -4 -452v-101q-236 -135 -495 -135q-354 0 -572 218q-217 217 -217 579t221 580t580 218q252 0 447 -112l-5 -354h-120l-86 340q-86 43 -199 43q-240 1 -386 -185t-146 -522t144 -528t376 -193q96 0 186 25v133q0 219 -6 440l-225 23v71
h643z" />
    <glyph glyph-name="Identity.40" unicode="H" horiz-adv-x="1775" 
d="M1487 809v-100q0 -414 2 -619l194 -18v-72h-673v72l186 16q4 203 4 649h-627q0 -444 7 -649l186 -16v-72h-674v72l195 18q2 203 2 619v100q0 412 -2 616l-195 21v74h674v-74l-186 -19q-6 -201 -7 -610h627q0 408 -4 610l-186 19v74h673v-74l-194 -19q-2 -205 -2 -618z
" />
    <glyph glyph-name="Identity.41" unicode="I" horiz-adv-x="866" 
d="M575 709q0 -414 7 -619l194 -18v-72h-684v72l195 18q4 203 4 619v100q0 412 -4 618l-195 19v74h684v-74l-194 -19q-6 -205 -7 -618v-100z" />
    <glyph glyph-name="Identity.42" unicode="J" horiz-adv-x="876" 
d="M805 1520v-74l-197 -19q-2 -201 -2 -608v-289q0 -379 -69 -553q-47 -166 -172 -260t-294 -94t-223 117q6 63 48 99t116 36t164 -98l60 -68q94 100 94 391q0 68 -2 210t-6 446t-9 669l-215 21v74h707z" />
    <glyph glyph-name="Identity.43" unicode="K" horiz-adv-x="1564" 
d="M1573 0h-627v72l164 16l-365 682l-180 -219q0 -297 4 -461l181 -18v-72h-658v72l195 18q4 203 4 619v100q0 412 -4 618l-195 19v74h674v-74l-197 -21q-4 -203 -4 -616v-145l598 753l-196 29v74h526v-74l-213 -29l-356 -430l495 -901l154 -14v-72z" />
    <glyph glyph-name="Identity.44" unicode="L" horiz-adv-x="1327" 
d="M291 672v137q0 412 -4 618l-195 19v74h694v-74l-204 -21q-6 -203 -7 -600v-137q0 -397 7 -604h467l88 358h110l-4 -442h-1151l2 72l193 18q4 203 4 582z" />
    <glyph glyph-name="Identity.45" unicode="M" horiz-adv-x="2052" 
d="M1761 809v-100q0 -414 2 -619l197 -18v-72h-676v72l189 18q4 112 4 310t2 276l4 645l-500 -1321h-100l-514 1313q10 -342 10 -563v-654l215 -24v-72h-533v72l218 24l8 1323l-215 27v74h499l455 -1155l442 1155h492v-74l-197 -19q-2 -207 -2 -618z" />
    <glyph glyph-name="Identity.46" unicode="N" horiz-adv-x="1669" 
d="M1595 1520v-74l-188 -27l-10 -1427h-142l-905 1274l6 -1168l262 -26v-72h-552v72l190 24l10 1288l-33 43l-155 19v74h432l803 -1114l-6 1011l-265 29v74h553z" />
    <glyph glyph-name="Identity.47" unicode="O" horiz-adv-x="1609" 
d="M806 1556q294 0 500 -212t205 -584q0 -186 -57 -340q-107 -290 -381 -406q-127 -53 -268 -53q-291 0 -494 203q-98 98 -156 252t-59 344q0 368 208 582t502 214zM805 1473q-197 0 -299 -200t-103 -515q1 -315 103 -514t299 -199t300 200t103 513t-103 514t-300 201z" />
    <glyph glyph-name="Identity.48" unicode="P" horiz-adv-x="1374" 
d="M672 608h-97q0 -336 7 -516l219 -20v-72h-709v72l195 18q4 203 4 619v100q0 412 -4 618l-195 19v74h610q614 0 615 -451q1 -207 -155 -334t-490 -127zM690 1440h-108q-6 -207 -7 -631v-121h101q186 0 277 102t91 279q0 371 -354 371z" />
    <glyph glyph-name="Identity.49" unicode="Q" horiz-adv-x="1609" 
d="M1135 -471q-221 0 -345 125t-131 321q-247 51 -405 255t-158 530q0 368 208 582t502 214t500 -212t205 -584q-1 -328 -165 -536t-416 -253q-2 -158 80 -250t223 -92q78 0 164 33l24 -57q-115 -76 -286 -76zM805 1473q-197 0 -299 -200t-103 -515q1 -315 103 -514
t299 -199t300 200t103 513t-103 514t-300 201z" />
    <glyph glyph-name="Identity.50" unicode="R" horiz-adv-x="1529" 
d="M1291 -27q-123 0 -189 42t-82 145l-74 315q-27 131 -83 185t-179 55h-113q0 -422 7 -625l198 -18v-72h-684v72l195 18q4 203 4 619v100q0 412 -4 618l-195 19v74h692q262 0 404 -102t143 -288q0 -139 -103 -242t-317 -136q160 -23 231 -97t103 -225l84 -344l180 -14v-72
q-94 -27 -218 -27zM571 791h150q168 0 252 93q84 92 84 244t-84 232t-246 80h-149q-7 -207 -7 -649z" />
    <glyph glyph-name="Identity.51" unicode="S" horiz-adv-x="1212" 
d="M1128 408q0 -203 -152 -325t-418 -122q-267 0 -456 121l13 340h114l86 -330q92 -41 236 -41q145 0 233 71t88 187q0 115 -56 179t-193 122l-95 41q-205 90 -305 201q-100 112 -100 296t146 296q145 112 375 112t407 -114l-15 -322h-114l-86 316q-63 31 -154 30
q-137 0 -221 -66t-84 -178q0 -110 58 -178t177 -118l103 -43q229 -97 321 -203t92 -272z" />
    <glyph glyph-name="Identity.52" unicode="T" horiz-adv-x="1419" 
d="M852 809v-100q0 -412 4 -619l219 -18v-72h-731v72l219 18q2 203 2 619v100q0 418 -2 625h-317l-86 -338h-115l14 424h1301l12 -424h-115l-83 338h-318q-4 -205 -4 -625z" />
    <glyph glyph-name="Identity.53" unicode="U" horiz-adv-x="1673" 
d="M1608 1520v-74l-207 -29l-8 -790q-2 -666 -549 -666q-575 0 -576 631v227q0 406 -6 608l-180 19v74h684v-74l-209 -21q-6 -199 -6 -606v-190q0 -272 93 -392t282 -120q188 0 284 127t95 405l-7 766l-237 31v74h547z" />
    <glyph glyph-name="Identity.54" unicode="V" horiz-adv-x="1511" 
d="M1499 1520v-68l-182 -31l-477 -1429h-150l-518 1438l-156 16v74h676v-72l-213 -23l381 -1128l344 1122l-211 29v72h506z" />
    <glyph glyph-name="Identity.55" unicode="W" horiz-adv-x="2228" 
d="M2204 1520v-74l-193 -27l-399 -1427h-148l-364 1169l-352 -1169h-150l-418 1438l-157 16v74h653v-74l-199 -21l287 -1091l323 1087l-204 25v74h639v-74l-222 -25l320 -1095l285 1093l-199 27v74h498z" />
    <glyph glyph-name="Identity.56" unicode="X" horiz-adv-x="1486" 
d="M1458 0h-688v72l199 18l-305 549l-318 -541l186 -26v-72h-487v72l191 26l389 613l-398 716l-184 19v74h686v-74l-194 -19l274 -493l287 489l-189 23v74h498v-74l-201 -23l-358 -559l432 -774l180 -18v-72z" />
    <glyph glyph-name="Identity.57" unicode="Y" horiz-adv-x="1435" 
d="M1090 0h-734v72l219 18q4 147 5 506l-412 836l-135 14v74h672v-74l-209 -23l323 -702l322 698l-203 27v74h492v-74l-181 -27l-385 -784q0 -389 4 -545l222 -18v-72z" />
    <glyph glyph-name="Identity.58" unicode="Z" horiz-adv-x="1277" 
d="M51 0v86l832 1348h-592l-92 -338h-121l22 424h1096v-90l-834 -1346h652l98 350h109l-13 -434h-1157z" />
    <glyph glyph-name="Identity.59" unicode="[" horiz-adv-x="759" 
d="M444 360q0 -414 5 -622l251 -25v-78h-471q6 236 7 725v551q0 483 -7 725h471v-77l-251 -25q-4 -205 -5 -623v-551z" />
    <glyph glyph-name="Identity.60" unicode="\" horiz-adv-x="815" 
d="M786 -367h-149l-612 1991h151z" />
    <glyph glyph-name="Identity.61" unicode="]" horiz-adv-x="759" 
d="M524 911v-551q0 -483 6 -725h-471v78l252 25q4 205 4 622v551q0 414 -4 623l-252 25v77h471q-6 -236 -6 -725z" />
    <glyph glyph-name="Identity.62" unicode="^" horiz-adv-x="1232" 
d="M1055 516l-88 -61l-351 559l-346 -559l-90 61l385 621h103z" />
    <glyph glyph-name="Identity.63" unicode="_" horiz-adv-x="1208" 
d="M92 -162v139h1024v-139h-1024z" />
    <glyph glyph-name="Identity.64" unicode="`" horiz-adv-x="915" 
d="M297 1751q84 0 152 -121q84 -153 180 -313l-45 -33q-136 113 -262 203t-125 162q1 47 31 75t69 27z" />
    <glyph glyph-name="Identity.65" unicode="a" horiz-adv-x="1191" 
d="M374 -33q-118 0 -201 74t-83 203t89 212t321 154q96 33 223 62v104q0 160 -46 218t-163 59q-51 0 -106 -13l-29 -147q-12 -158 -133 -158q-104 0 -123 94q20 139 145 219t331 80t296 -94t90 -309v-528q0 -123 74 -123q41 -1 92 67l37 -30q-74 -141 -244 -141t-213 180
q-94 -98 -166 -140q-73 -42 -191 -43zM346 279q0 -87 44 -133t106 -46t108 24q45 24 119 85v403q-127 -37 -154 -49q-223 -88 -223 -284z" />
    <glyph glyph-name="Identity.66" unicode="b" horiz-adv-x="1366" 
d="M1282 561q0 -262 -130 -428t-333 -166t-332 152l-32 -144l-379 25v63l149 17q4 238 4 401v1037l-166 14v57l406 88l31 -18l-8 -326v-360q147 155 344 155q198 0 322 -152t124 -415zM709 98q287 0 286 455q0 225 -75 337q-76 112 -199 112t-225 -91v-725q96 -88 213 -88z
" />
    <glyph glyph-name="Identity.67" unicode="c" horiz-adv-x="1150" 
d="M365 574q0 -222 101 -347t275 -125t289 154l43 -23q-131 -266 -446 -266q-237 0 -391 156t-154 423t168 425t414 157q160 0 274 -87t135 -220q-27 -96 -119 -96q-131 0 -147 158l-31 159q-33 10 -80 11q-150 0 -240 -128q-90 -129 -91 -351z" />
    <glyph glyph-name="Identity.68" unicode="d" horiz-adv-x="1337" 
d="M84 543q0 266 140 426t356 159q174 0 294 -143v533l-176 14v57l414 88l29 -18l-6 -324v-1259l153 -13v-63l-403 -23l-15 138q-130 -147 -326 -147t-328 154q-132 155 -132 421zM371 550q0 -234 80 -343q81 -109 203 -109t210 82v742q-92 78 -194 77q-133 1 -216 -107
t-83 -342z" />
    <glyph glyph-name="Identity.69" unicode="e" horiz-adv-x="1173" 
d="M731 102q190 0 307 158l41 -29q-61 -127 -175 -195t-265 -69q-247 0 -401 155t-154 423t165 426q165 157 382 157t339 -126t122 -322q-1 -78 -15 -127h-708q6 -225 105 -338t257 -113zM719 629q69 0 93 35t24 137t-60 177t-158 75q-99 1 -170 -105t-79 -319h350z" />
    <glyph glyph-name="Identity.70" unicode="f" horiz-adv-x="821" 
d="M766 1700q203 0 238 -137q-2 -53 -38 -87t-100 -34q-104 0 -180 123l-43 57q-43 -23 -63 -59q-90 -133 -78 -467h282v-86h-280v-529q0 -133 4 -395l194 -23v-63h-630v63l157 19q6 197 7 399v529h-175v67l177 21q27 314 176 458t352 144z" />
    <glyph glyph-name="Identity.71" unicode="g" horiz-adv-x="1214" 
d="M555 375q-125 0 -221 39q-45 -62 -45 -124t36 -90t119 -28h301q412 0 412 -301q0 -170 -163 -287q-163 -116 -431 -116t-385 76t-117 200q0 145 209 236q-147 55 -147 184q0 70 38 131t128 141q-176 100 -176 320q0 170 116 271q117 101 326 101t324 -96l260 96l35 -22
v-150l-240 19q68 -88 67 -219q0 -172 -117 -277q-118 -104 -329 -104zM743 -55h-237q-129 0 -197 16q-69 -81 -69 -185t81 -163t248 -59t269 60t102 159q0 172 -197 172zM555 444q96 0 151 84q54 84 54 226t-53 225q-53 82 -147 82t-149 -83t-55 -226q0 -144 52 -226
t147 -82z" />
    <glyph glyph-name="Identity.72" unicode="h" horiz-adv-x="1400" 
d="M1341 0h-561v63l148 19q4 229 4 399v262q0 129 -41 185t-125 55q-125 0 -270 -133v-369q0 -227 6 -401l131 -17v-63h-557v63l149 19q4 233 4 399v1039l-166 12v57l406 88l31 -18l-8 -326v-415q184 211 393 210q313 0 313 -401v-246q0 -168 4 -401l139 -17v-63z" />
    <glyph glyph-name="Identity.73" unicode="i" horiz-adv-x="708" 
d="M643 0h-563v63l149 19q4 233 4 399v146q0 158 -6 311l-166 16v56l416 116l29 -18l-4 -320v-307q0 -168 4 -401l137 -17v-63zM360 1356q-68 0 -114 43t-47 109q0 66 47 110q46 43 114 43t115 -43t47 -110q0 -68 -47 -110t-115 -42z" />
    <glyph glyph-name="Identity.74" unicode="j" horiz-adv-x="677" 
d="M492 182q0 -258 -29 -382t-109 -212q-132 -143 -332 -143t-245 127q8 59 51 94t100 35q113 0 178 -100l46 -64q27 27 42 68q33 90 33 410v606q0 121 -8 317l-164 16v56l416 116l29 -18l-8 -320v-606zM354 1356q-68 0 -114 43t-45 109q0 66 46 110q45 43 113 43t114 -43
t46 -110q0 -68 -46 -110t-114 -42z" />
    <glyph glyph-name="Identity.75" unicode="k" horiz-adv-x="1320" 
d="M1315 0h-389l-314 592l-116 -111q0 -227 6 -401l145 -17v-63h-575v63l153 19q4 238 4 399v1039l-166 12v57l412 88l29 -18l-8 -326v-755l430 423l-197 29v66h528v-66l-204 -22l-254 -242l377 -686l139 -17v-63z" />
    <glyph glyph-name="Identity.76" unicode="l" horiz-adv-x="718" 
d="M659 0h-593v63l157 19q6 193 6 399v1039l-166 12v57l412 88l29 -18l-8 -326v-852q0 -204 6 -401l157 -17v-63z" />
    <glyph glyph-name="Identity.77" unicode="m" horiz-adv-x="2064" 
d="M2007 0h-553v63l141 19q4 233 4 399v250q0 139 -37 195q-38 55 -122 55q-129 0 -266 -135q8 -47 8 -115v-250q0 -227 6 -401l133 -17v-63h-555v63l147 19q4 233 5 399v248q0 137 -38 195t-122 57q-117 0 -258 -137v-363q0 -168 4 -401l133 -17v-63h-561v63l149 19
q4 233 4 399v148q0 209 -8 305l-162 16v51l394 125l28 -18l15 -184q178 205 378 204q225 0 285 -213q180 213 389 213q160 0 238 -97t78 -304v-246q0 -168 4 -401l139 -17v-63z" />
    <glyph glyph-name="Identity.78" unicode="n" horiz-adv-x="1396" 
d="M1341 0h-561v63l144 19q6 172 6 399v262q0 131 -39 185t-123 55q-123 0 -268 -133v-369q0 -168 4 -401l133 -17v-63h-561v63l149 19q4 233 4 399v148q0 174 -8 305l-162 16v51l394 125l28 -18l15 -186q178 207 389 206q149 0 231 -98t82 -299v-250q0 -168 4 -401l139 -17
v-63z" />
    <glyph glyph-name="Identity.79" unicode="o" horiz-adv-x="1271" 
d="M637 43q127 0 196 127t69 378t-69 378t-196 127q-264 0 -264 -505t264 -505zM1190 549q0 -268 -156 -425t-398 -157q-244 0 -398 157t-154 425t160 424q160 155 393 155t393 -156t160 -423z" />
    <glyph glyph-name="Identity.80" unicode="p" horiz-adv-x="1368" 
d="M1286 554q0 -265 -138 -426t-347 -161q-178 0 -301 142v-142q0 -123 4 -418l176 -20v-61h-604v61l155 18q4 295 5 420v660q0 160 -7 307l-166 16v51l390 125l28 -20l15 -135q139 157 340 157q202 0 326 -154t124 -420zM709 98q289 0 289 452t-275 451q-115 0 -219 -94
v-733q84 -76 205 -76z" />
    <glyph glyph-name="Identity.81" unicode="q" horiz-adv-x="1304" 
d="M1288 -532h-596v61l176 20q6 201 6 400v174q-134 -156 -334 -156t-328 154t-128 418t141 427q141 162 345 162t321 -157l225 151l29 -16l-8 -309v-848q0 -203 6 -402l145 -18v-61zM652 999q-120 1 -200 -111q-81 -112 -81 -347q0 -442 295 -443q112 0 202 82v733
q-96 86 -216 86z" />
    <glyph glyph-name="Identity.82" unicode="r" horiz-adv-x="1017" 
d="M500 481q0 -160 4 -393l188 -25v-63h-616v63l149 19q4 233 4 399v148q0 174 -8 305l-162 16v51l394 125l28 -18l19 -285q47 143 138 225t187 80q152 0 185 -131q-10 -156 -142 -155q-78 0 -161 98l-23 25q-123 -96 -184 -301v-183z" />
    <glyph glyph-name="Identity.83" unicode="s" horiz-adv-x="1017" 
d="M942 319q0 -160 -124 -256t-335 -96t-389 94l8 267h119l58 -248q78 -33 178 -33q250 0 250 176q0 70 -45 116t-162 85l-113 37q-285 90 -285 319q0 154 115 251t303 97t361 -92l-15 -245h-104l-64 221q-74 37 -164 37t-148 -45q-56 -45 -56 -117t44 -116t158 -81l107 -33
q159 -53 231 -135t72 -203z" />
    <glyph glyph-name="Identity.84" unicode="t" horiz-adv-x="790" 
d="M203 1010h-176v67l190 21l88 321h176l-6 -323h270v-86h-272v-758q0 -162 133 -162q62 1 146 62l36 -39q-94 -145 -294 -146q-293 0 -293 301l2 205v537z" />
    <glyph glyph-name="Identity.85" unicode="u" horiz-adv-x="1376" 
d="M516 -33q-322 0 -315 416l8 594l-154 29v57l406 53l22 -22l-12 -328v-397q0 -131 44 -185t132 -55q133 0 254 121l4 729l-145 27v53l395 57l23 -22l-7 -328v-690l140 -15v-61l-393 -23l-15 205q-170 -215 -387 -215z" />
    <glyph glyph-name="Identity.86" unicode="v" horiz-adv-x="1179" 
d="M1167 1096v-66l-141 -22l-385 -1014h-119l-407 1020l-131 16v66h587v-66l-163 -18l270 -748l252 744l-168 22v66h405z" />
    <glyph glyph-name="Identity.87" unicode="w" horiz-adv-x="1781" 
d="M1772 1096v-66l-140 -22l-346 -1014h-115q-229 618 -288 815l-295 -815h-115l-369 1022l-116 14v66h561v-66l-166 -16l238 -752l249 750l-161 18v66h510v-66l-160 -20l258 -736l219 732l-184 24v66h420z" />
    <glyph glyph-name="Identity.88" unicode="x" horiz-adv-x="1226" 
d="M1204 0h-594l-2 63l160 15l-242 371l-243 -367l155 -19v-63h-422v63l152 19l319 426l-331 508l-121 14v66h573v-66l-143 -16l229 -348l232 344l-150 20v66h400v-66l-140 -20l-303 -406l348 -526l123 -15v-63z" />
    <glyph glyph-name="Identity.89" unicode="y" horiz-adv-x="1191" 
d="M1194 1096v-64l-133 -18l-420 -1114q-90 -240 -204 -348t-230 -107q-84 0 -148 42q-63 42 -65 105q8 55 54 85t104 30q94 0 180 -100l28 -33q115 92 211 332l-458 1114l-121 12v64h581v-64l-167 -18l288 -789l267 787l-193 20v64h426z" />
    <glyph glyph-name="Identity.90" unicode="z" horiz-adv-x="1054" 
d="M63 0v66l629 954h-430l-82 -268l-104 10l16 334h885v-66l-617 -956h451l88 295h107l-23 -369h-920z" />
    <glyph glyph-name="Identity.91" unicode="{" horiz-adv-x="778" 
d="M512 926q0 -246 -272 -289q272 -45 272 -291q0 -58 -34 -202t-34 -232t48 -136t151 -57l66 -8v-76h-80q-188 0 -292 74q-103 74 -104 215q0 96 59 248q58 152 58 226t-58 127q-58 54 -200 73v78q141 16 200 70q58 54 58 128t-58 226t-59 248q-1 141 103 215t293 73h80
v-75l-66 -9q-104 -8 -151 -56q-48 -48 -48 -136t34 -232t34 -202z" />
    <glyph glyph-name="Identity.92" unicode="|" horiz-adv-x="598" 
d="M223 -571v2287h150v-2287h-150z" />
    <glyph glyph-name="Identity.93" unicode="}" horiz-adv-x="778" 
d="M428 398q0 -74 58 -226t59 -248q1 -141 -103 -215t-292 -74h-80v76l65 8q199 15 199 193q0 88 -34 232t-34 202q0 246 273 291q-272 43 -273 289q0 57 34 201q34 145 34 233t-47 136t-152 56l-65 9v75h80q188 0 291 -74t104 -214q-1 -96 -59 -248t-58 -226t58 -128
q59 -54 200 -70v-78q-142 -18 -200 -72t-58 -128z" />
    <glyph glyph-name="Identity.94" unicode="~" horiz-adv-x="1232" 
d="M868 725q137 0 160 238l100 -11q-6 -168 -78 -251t-196 -83q-74 0 -130 29t-134 93t-122 88t-93 24q-145 0 -166 -238l-103 13q6 168 80 250t197 81q74 0 131 -30t137 -99q127 -104 217 -104z" />
    <glyph glyph-name="Identity.95" unicode="&#xa1;" horiz-adv-x="720" 
d="M360 -457q-78 0 -122 43t-43 125q0 141 92 568l41 307h63l43 -307q90 -444 90 -547t-43 -146t-121 -43zM358 1122q72 0 122 -49t50 -120t-50 -119t-122 -50q-72 0 -120 50t-48 120q0 72 48 120t120 48z" />
    <glyph glyph-name="Identity.96" unicode="&#xa2;" horiz-adv-x="1196" 
d="M723 268h20q197 0 324 146l43 -25q-115 -231 -387 -258v-235h-92v233q-231 10 -385 169t-154 411q0 251 152 409t387 174v211h92v-211q162 -8 265 -90t126 -213q-25 -92 -117 -92q-104 0 -135 141l-37 166q-51 14 -100 15h-2v-951zM352 749q0 -187 75 -308t204 -158v923
q-127 -34 -203 -152t-76 -305z" />
    <glyph glyph-name="Identity.97" unicode="&#xa3;" horiz-adv-x="1196" 
d="M1100 217v-217h-1002v168q240 135 240 387q0 35 -8 92h-213v98h182q-8 21 -32 73t-46 114t-22 160q0 184 132 292q131 108 319 109q188 0 302 -87t135 -235q-27 -88 -112 -88q-55 0 -91 34t-55 118l-41 172q-35 8 -77 8q-123 0 -193 -82t-69 -227q0 -100 24 -212t31 -149
h377v-98h-367q4 -31 0 -65q-12 -234 -229 -365h815z" />
    <glyph glyph-name="Identity.98" unicode="&#xa4;" horiz-adv-x="1198" 
d="M1139 300q0 -40 -25 -64q-26 -24 -66 -25q-40 0 -74 38t-73 118l-49 92q-106 -90 -252 -90t-254 90l-49 -92q-41 -78 -74 -117t-73 -39t-64 25q-24 24 -25 64q0 40 38 72t118 74l92 50q-92 104 -92 254t92 254l-92 49q-82 41 -120 73t-38 72q0 39 26 65q25 25 65 25
t73 -38t74 -117l49 -95q109 92 254 92t254 -92l47 92q31 57 48 83q50 77 104 75q35 0 61 -24t25 -66q0 -41 -38 -73t-120 -72l-90 -52q90 -105 90 -253t-92 -252l92 -50q82 -42 120 -74t38 -72zM601 461q118 0 198 80t80 207q0 126 -80 208t-198 82t-200 -82t-82 -208
t82 -207q82 -80 200 -80z" />
    <glyph glyph-name="Identity.99" unicode="&#xa5;" horiz-adv-x="1196" 
d="M1071 717v-103h-342v-149h342v-98h-342q0 -104 6 -285l219 -19v-63h-708v63l219 19q2 121 2 285h-336v98h336v149h-336v103h305l-317 667l-133 13v65h600v-65l-183 -17l277 -643l274 637l-190 23v65h446v-65l-159 -23l-293 -657h313z" />
    <glyph glyph-name="Identity.100" unicode="&#xa6;" horiz-adv-x="598" 
d="M373 731h-146v985h146v-985zM227 -571v1028h146v-1028h-146z" />
    <glyph glyph-name="Identity.101" unicode="&#xa7;" 
d="M1063 1499q-236 0 -236 -203q-1 -88 57 -142t210 -107q242 -83 339 -181t97 -255t-172 -269q94 -92 94 -240t-122 -252q-122 -102 -325 -102t-317 81t-129 232q35 86 111 86q57 1 96 -33t68 -122l55 -162q35 -8 90 -8q117 0 181 53t65 147q-1 94 -63 146q-62 51 -258 122
t-290 166q-92 95 -92 240q0 80 47 156t129 129q-98 96 -98 244t121 248t322 100t317 -79t129 -224q-8 -43 -40 -70q-32 -26 -79 -26t-86 33q-38 34 -67 122l-54 160q-39 10 -100 10zM1362 532q0 90 -72 148t-262 124t-289 142q-49 -61 -49 -155q0 -93 71 -153t265 -126
t289 -135q47 65 47 155z" />
    <glyph glyph-name="Identity.102" unicode="&#xa8;" horiz-adv-x="915" 
d="M202 1360q-60 0 -103 38q-42 38 -42 99t42 100q43 39 103 39t103 -39t43 -101t-43 -99t-103 -37zM714 1360q-60 0 -104 38q-43 38 -43 99t44 100q43 39 103 39t102 -39t42 -100t-42 -99t-102 -38z" />
    <glyph glyph-name="Identity.103" unicode="&#xa9;" horiz-adv-x="1716" 
d="M858 1556q332 0 560 -219t228 -576t-228 -579q-230 -222 -560 -221q-330 0 -559 221q-229 220 -229 578t228 577t560 219zM857 1479q-293 0 -491 -197q-198 -198 -198 -522t198 -522t491 -199q294 0 494 200q199 201 199 523t-200 520t-493 197zM436 762q0 217 134 346
t333 129q143 0 262 -66l6 -233h-81l-50 217q-43 16 -100 16q-133 1 -217 -107t-84 -300t82 -299q82 -106 217 -107q60 1 111 17l49 213h82l-4 -230q-123 -68 -277 -67q-201 0 -332 127t-131 344z" />
    <glyph glyph-name="Identity.104" unicode="&#xaa;" horiz-adv-x="798" 
d="M632 942q-116 0 -143 115q-67 -67 -113 -93t-126 -26t-136 49t-56 134t58 139q60 54 214 102q94 23 153 41v65q0 102 -29 141q-30 38 -108 38q-31 0 -72 -7l-18 -92q-14 -115 -94 -114q-66 0 -82 67q16 91 101 145t221 54t195 -64q60 -64 60 -204v-345q0 -72 45 -71
q31 0 64 45l25 -21q-43 -98 -159 -98zM343 1032q52 0 140 70v258q-94 -27 -108 -33q-145 -53 -146 -180q0 -57 31 -86t83 -29z" />
    <glyph glyph-name="Identity.105" unicode="&#xab;" horiz-adv-x="1196" 
d="M1106 1014l-361 -436l361 -437l-43 -45l-526 420v123l526 420zM627 1014l-359 -436l359 -437l-41 -45l-527 420v123l527 420z" />
    <glyph glyph-name="Identity.106" unicode="&#xac;" horiz-adv-x="1232" 
d="M70 893h1063v-528h-117v419h-946v109z" />
    <glyph glyph-name="Identity.107" unicode="&#xae;" horiz-adv-x="1062" 
d="M532 1630q193 0 328 -125t135 -331t-135 -332q-135 -127 -328 -127q-194 0 -328 127t-134 333q0 207 134 331t328 124zM532 1567q-164 0 -276 -109q-112 -110 -113 -284q1 -174 113 -284t275 -110t276 110t113 286t-112 284t-276 107zM696 950q-38 0 -61 14t-29 50
l-18 86q-10 68 -68 67h-31v-174l58 -4v-31h-219v31l55 4v383l-55 6v31h217q80 0 126 -32t46 -85q0 -90 -135 -112q102 -15 118 -97l21 -92l55 -6v-31q-42 -8 -80 -8zM489 1380v-182h31q45 0 68 28t22 68q0 86 -94 86h-27z" />
    <glyph glyph-name="Identity.108" unicode="&#xaf;" horiz-adv-x="915" 
d="M123 1374v150h668v-150h-668z" />
    <glyph glyph-name="Identity.109" unicode="&#xb0;" horiz-adv-x="739" 
d="M369 965q-121 0 -206 81t-85 214t86 215q86 81 206 81t206 -82t86 -214q0 -133 -86 -214t-207 -81zM369 1044q86 0 143 60t57 156t-57 157t-143 61q-87 0 -143 -60q-56 -62 -56 -158t56 -156t143 -60z" />
    <glyph glyph-name="Identity.110" unicode="&#xb1;" 
d="M256 18v97h1536v-97h-1536zM1073 897v-621h-98v621h-719v96h719v621h98v-621h719v-96h-719z" />
    <glyph glyph-name="Identity.111" unicode="&#xb2;" horiz-adv-x="835" 
d="M748 1090v-129h-635v96l221 219q195 197 194 358q0 86 -44 135t-124 50q-25 0 -55 -7l-24 -100q-25 -100 -93 -100q-57 0 -86 49q10 101 102 159t231 58q138 0 212 -66t74 -172q0 -47 -16 -87q-32 -81 -306 -316l-163 -147h512z" />
    <glyph glyph-name="Identity.112" unicode="&#xb3;" horiz-adv-x="835" 
d="M203 1638q-51 0 -72 45q8 95 90 145t212 50t208 -60t78 -152q0 -186 -221 -232q252 -37 252 -234q0 -120 -96 -190t-251 -70q-285 0 -307 205q14 49 78 49q74 0 92 -96l19 -94q31 -6 63 -7q100 -1 154 53t53 148q0 199 -207 199h-57v67h49q92 0 141 47t49 133t-42 131
q-42 44 -117 44q-36 0 -54 -4l-20 -93q-14 -84 -94 -84z" />
    <glyph glyph-name="Identity.113" unicode="&#xb4;" horiz-adv-x="915" 
d="M629 1751q41 0 71 -28t29 -74q0 -80 -117 -160q-156 -109 -268 -205l-47 33q23 39 83 138t103 173q68 123 146 123z" />
    <glyph glyph-name="Identity.114" unicode="&#xb5;" horiz-adv-x="1329" 
d="M1094 -33q-188 0 -211 281q-96 -281 -275 -281q-139 0 -227 148l61 -502l-254 -51l-18 12l51 659l-43 834l254 53l21 -14q-27 -688 -29 -807q76 -129 207 -129q166 0 248 172l-21 725l256 53l19 -14q-39 -696 -38 -810t25 -146t76 -33q51 0 90 20l21 -41
q-72 -129 -213 -129z" />
    <glyph glyph-name="Identity.115" unicode="&#xb6;" 
d="M1489 815v-362q0 -483 6 -723h-283q6 236 7 723v1005h-154v-1163q-414 4 -597 273q-99 144 -99 352q0 312 216 464t578 152h518v-74l-188 -20q-4 -205 -4 -627z" />
    <glyph glyph-name="Identity.116" unicode="&#xb7;" horiz-adv-x="686" 
d="M343 582q-71 0 -120 49t-49 119t49 120t120 50t120 -50t49 -120t-49 -119t-120 -49z" />
    <glyph glyph-name="Identity.117" unicode="&#xb8;" horiz-adv-x="915" 
d="M414 -508q-104 0 -187 27l15 63q53 -14 118 -14q129 0 129 115q0 102 -159 120l28 203h68l-16 -147q120 -9 184 -57t64 -124t-70 -132q-70 -54 -174 -54z" />
    <glyph glyph-name="Identity.118" unicode="&#xb9;" horiz-adv-x="835" 
d="M711 961h-572v49l197 26v723l-162 -16v57l334 74l18 -14v-824l185 -26v-49z" />
    <glyph glyph-name="Identity.119" unicode="&#xba;" horiz-adv-x="856" 
d="M428 1700q154 0 262 -104t107 -277t-105 -277t-264 -104t-265 105t-105 277t108 276t262 104zM429 1642q-181 0 -181 -324t181 -323q181 -1 181 323t-181 324z" />
    <glyph glyph-name="Identity.120" unicode="&#xbb;" horiz-adv-x="1196" 
d="M610 1059l527 -420v-123l-527 -420l-41 45l359 437l-359 436zM659 639v-123l-526 -420l-41 45l359 437l-359 436l41 45z" />
    <glyph glyph-name="Identity.121" unicode="&#xbc;" horiz-adv-x="1988" 
d="M1792 348v-108h-145v-240h-166v240h-385v90l424 577h127v-559h145zM1481 348v430l-305 -430h305zM1544 1520l64 -45l-1055 -1541l-64 46zM711 575h-572v50l197 26v723l-162 -14v55l334 74l18 -14v-824l185 -26v-50z" />
    <glyph glyph-name="Identity.122" unicode="&#xbd;" horiz-adv-x="1988" 
d="M1843 129v-129h-635v96l222 219q195 197 194 357q0 86 -44 136t-122 50q-27 0 -57 -6l-25 -102q-23 -98 -92 -99q-57 0 -86 49q10 102 104 160t230 58q137 0 211 -66t74 -169t-121 -224q-47 -49 -199 -183l-166 -147h512zM1481 1520l63 -45l-1055 -1541l-63 46zM688 575
h-571v50l196 26v723l-161 -14v55l333 74l19 -14v-824l184 -26v-50z" />
    <glyph glyph-name="Identity.123" unicode="&#xbe;" horiz-adv-x="1988" 
d="M1815 348v-108h-146v-240h-166v240h-385v90l424 577h127v-559h146zM1503 348v430l-305 -430h305zM1559 1509l63 -43l-1055 -1542l-63 45zM289 1253q-49 0 -74 45q8 96 90 146t213 49q131 0 208 -59q77 -58 77 -150q0 -183 -221 -235q254 -35 254 -232q0 -123 -96 -193
t-253 -69q-285 0 -307 205q16 49 66 49t72 -22t32 -72l19 -97q31 -6 63 -6q100 0 154 54t55 148q0 96 -53 148t-156 52h-57v65h51q90 0 139 48q49 47 49 133t-42 130t-117 44q-34 0 -52 -4l-20 -93q-16 -84 -94 -84z" />
    <glyph glyph-name="Identity.124" unicode="&#xbf;" horiz-adv-x="970" 
d="M797 -299q0 -106 -121 -137q-178 37 -349 158q-85 60 -139 150t-55 187q0 225 219 314l92 37q72 32 95 54t26 68l2 101h64l28 -84q37 -127 37 -174q0 -96 -176 -164l-127 -47q-88 -37 -122 -72q-34 -36 -33 -92t32 -109l361 -53q166 -25 166 -137zM604 817q-72 0 -121 49
t-49 120t49 120t121 49t122 -49t50 -120t-50 -120t-122 -49z" />
    <glyph glyph-name="Identity.125" unicode="&#xd7;" 
d="M1024 684l-557 -559l-72 72l559 557l-559 559l70 69l559 -559l559 559l70 -69l-559 -559l559 -557l-72 -72z" />
    <glyph glyph-name="Identity.126" unicode="&#xf7;" 
d="M1024 53q-66 0 -110 44t-44 109q0 64 44 108t110 44t110 -44t44 -108t-44 -108t-110 -45zM1802 803v-98h-1556v98h1556zM1024 1149q-66 0 -110 44q-44 45 -44 109t44 108t110 44t110 -44t44 -108t-44 -109q-44 -44 -110 -44z" />
    <glyph glyph-name="Identity.127" unicode="&#x391;" horiz-adv-x="1527" 
d="M1505 0h-661v72l198 22l-129 398h-489l-121 -396l201 -24v-72h-479v72l176 24l467 1430h178l489 -1436l170 -18v-72zM446 567h443l-225 703z" />
    <glyph glyph-name="Identity.128" unicode="&#x392;" horiz-adv-x="1452" 
d="M92 1520h684q260 0 388 -98t128 -263q0 -276 -395 -354q479 -57 479 -387q0 -176 -154 -297t-497 -121h-633v72l195 18q4 209 4 637v88q0 410 -4 612l-195 19v74zM698 1440h-120q-6 -199 -7 -611h97q348 0 348 320q-1 291 -318 291zM705 80q182 0 280 86t98 254t-97 250
t-302 82h-113q1 -459 7 -672h127z" />
    <glyph glyph-name="Identity.129" unicode="&#x393;" horiz-adv-x="1298" 
d="M575 692q0 -395 7 -600l219 -20v-72h-709v72l195 18q4 203 4 602v117q0 412 -4 618l-195 19v74h1129l4 -447h-113l-82 361h-448q-6 -205 -7 -625v-117z" />
    <glyph glyph-name="Identity.130" unicode="&#x394;" horiz-adv-x="1435" 
d="M1374 0h-1292v123l569 1403h178l545 -1403v-123zM211 199h829l-397 1083z" />
    <glyph glyph-name="Identity.131" unicode="&#x395;" horiz-adv-x="1368" 
d="M92 0v72l195 18q4 203 4 619v100q0 412 -4 618l-195 19v74h1145l2 -402h-111l-77 316h-469q-6 -201 -7 -621h308l30 223h97v-516h-97l-28 215h-310q0 -442 7 -651h510l79 328h113l-6 -412h-1186z" />
    <glyph glyph-name="Identity.132" unicode="&#x396;" horiz-adv-x="1277" 
d="M51 0v86l832 1348h-592l-92 -338h-121l22 424h1096v-90l-834 -1346h652l98 350h109l-13 -434h-1157z" />
    <glyph glyph-name="Identity.133" unicode="&#x397;" horiz-adv-x="1775" 
d="M1487 809v-100q0 -414 2 -619l194 -18v-72h-673v72l186 16q4 203 4 649h-627q0 -444 7 -649l186 -16v-72h-674v72l195 18q2 203 2 619v100q0 412 -2 616l-195 21v74h674v-74l-186 -19q-6 -201 -7 -610h627q0 408 -4 610l-186 19v74h673v-74l-194 -19q-2 -205 -2 -618z
" />
    <glyph glyph-name="Identity.134" unicode="&#x398;" horiz-adv-x="1609" 
d="M1513 762q0 -188 -57 -342q-107 -290 -382 -406q-128 -53 -269 -53q-291 0 -494 203q-98 98 -155 252t-58 344q0 368 207 582t498 214t495 -201q98 -97 156 -251t59 -342zM805 45q209 0 315 199t106 515t-106 515t-315 199q-141 1 -237 -97q-182 -184 -183 -616
q-1 -317 105 -516t315 -199zM1090 991v-444h-74l-21 123h-381l-20 -123h-72v444h72l20 -125h381l21 125h74z" />
    <glyph glyph-name="Identity.135" unicode="&#x399;" horiz-adv-x="866" 
d="M575 709q0 -414 7 -619l194 -18v-72h-684v72l195 18q4 203 4 619v100q0 412 -4 618l-195 19v74h684v-74l-194 -19q-6 -205 -7 -618v-100z" />
    <glyph glyph-name="Identity.136" unicode="&#x39a;" horiz-adv-x="1564" 
d="M1573 0h-627v72l164 16l-365 682l-180 -219q0 -297 4 -461l181 -18v-72h-658v72l195 18q4 203 4 619v100q0 412 -4 618l-195 19v74h674v-74l-197 -21q-4 -203 -4 -616v-145l598 753l-196 29v74h526v-74l-213 -29l-356 -430l495 -901l154 -14v-72z" />
    <glyph glyph-name="Identity.137" unicode="&#x39b;" horiz-adv-x="1503" 
d="M1489 0h-664v74l203 18l-366 1182l-359 -1178l211 -22v-74h-506v72l195 26l465 1428h178l485 -1440l158 -14v-72z" />
    <glyph glyph-name="Identity.138" unicode="&#x39c;" horiz-adv-x="2052" 
d="M1761 809v-100q0 -414 2 -619l197 -18v-72h-676v72l189 18q4 112 4 310t2 276l4 645l-500 -1321h-100l-514 1313q10 -342 10 -563v-654l215 -24v-72h-533v72l218 24l8 1323l-215 27v74h499l455 -1155l442 1155h492v-74l-197 -19q-2 -207 -2 -618z" />
    <glyph glyph-name="Identity.139" unicode="&#x39d;" horiz-adv-x="1669" 
d="M1595 1520v-74l-188 -27l-10 -1427h-142l-905 1274l6 -1168l262 -26v-72h-552v72l190 24l10 1288l-33 43l-155 19v74h432l803 -1114l-6 1011l-265 29v74h553z" />
    <glyph glyph-name="Identity.140" unicode="&#x39e;" horiz-adv-x="1310" 
d="M1141 418h90l-12 -418h-1127l-12 418h102l35 -203h885zM1020 997v-456h-70l-26 129h-535l-29 -129h-69v456h69l31 -135h529l30 135h70zM240 1305l-41 -205h-88l10 420h1069l14 -420h-92l-41 205h-831z" />
    <glyph glyph-name="Identity.141" unicode="&#x39f;" horiz-adv-x="1609" 
d="M806 1556q294 0 500 -212t205 -584q0 -186 -57 -340q-107 -290 -381 -406q-127 -53 -268 -53q-291 0 -494 203q-98 98 -156 252t-59 344q0 368 208 582t502 214zM805 1473q-197 0 -299 -200t-103 -515q1 -315 103 -514t299 -199t300 200t103 513t-103 514t-300 201z" />
    <glyph glyph-name="Identity.142" unicode="&#x3a0;" horiz-adv-x="1755" 
d="M1466 809v-100q0 -414 4 -619l193 -18v-72h-674v72l187 16q4 205 4 657v64q0 412 -4 616h-596q-6 -203 -7 -616v-64q0 -451 7 -657l186 -16v-72h-674v72l195 18q2 203 2 619v100q0 412 -2 618l-193 19v74h1569v-74l-193 -19q-4 -205 -4 -618z" />
    <glyph glyph-name="Identity.143" unicode="&#x3a1;" horiz-adv-x="1374" 
d="M672 608h-97q0 -336 7 -516l219 -20v-72h-709v72l195 18q4 203 4 619v100q0 412 -4 618l-195 19v74h610q614 0 615 -451q1 -207 -155 -334t-490 -127zM690 1440h-108q-6 -207 -7 -631v-121h101q186 0 277 102t91 279q0 371 -354 371z" />
    <glyph glyph-name="Identity.144" unicode="&#x3a3;" horiz-adv-x="1271" 
d="M63 0v150l502 581l-471 692v97h1057l2 -424h-117l-84 338h-594l402 -611l-537 -606h791l65 303h115l-6 -520h-1125z" />
    <glyph glyph-name="Identity.145" unicode="&#x3a4;" horiz-adv-x="1419" 
d="M852 809v-100q0 -412 4 -619l219 -18v-72h-731v72l219 18q2 203 2 619v100q0 418 -2 625h-317l-86 -338h-115l14 424h1301l12 -424h-115l-83 338h-318q-4 -205 -4 -625z" />
    <glyph glyph-name="Identity.146" unicode="&#x3a5;" horiz-adv-x="1435" 
d="M1090 0h-734v72l219 18q4 147 5 506l-412 836l-135 14v74h672v-74l-209 -23l323 -702l322 698l-203 27v74h492v-74l-181 -27l-385 -784q0 -389 4 -545l222 -18v-72z" />
    <glyph glyph-name="Identity.147" unicode="&#x3a6;" horiz-adv-x="1728" 
d="M535 1542h659v-72l-199 -18l-2 -162q303 -4 468 -146t165 -366t-163 -365q-163 -142 -470 -147l2 -182l199 -23v-69h-659v69l198 21q4 123 4 184q-309 4 -472 146t-163 366q0 226 166 368t469 144q-4 54 -4 162l-198 18v72zM991 809v-100q0 -240 2 -363q172 8 272 126
q99 118 99 310t-96 308q-96 115 -275 120q-2 -133 -2 -401zM739 809q0 266 -2 401q-178 -6 -274 -120t-96 -308q0 -192 99 -310t273 -126v463z" />
    <glyph glyph-name="Identity.148" unicode="&#x3a7;" horiz-adv-x="1486" 
d="M1458 0h-688v72l199 18l-305 549l-318 -541l186 -26v-72h-487v72l191 26l389 613l-398 716l-184 19v74h686v-74l-194 -19l274 -493l287 489l-189 23v74h498v-74l-201 -23l-358 -559l432 -774l180 -18v-72z" />
    <glyph glyph-name="Identity.149" unicode="&#x3a8;" horiz-adv-x="1814" 
d="M1702 1520h117v-74l-39 -4q-68 -8 -98 -37t-40 -90l-24 -174q-24 -147 -54 -241t-94 -169q-64 -76 -166 -113q-103 -37 -264 -47q0 -322 2 -481l197 -18v-72h-666v72l197 18q6 238 6 481q-160 10 -264 47q-191 68 -262 280q-31 93 -53 243l-23 174q-10 59 -41 89t-98 38
l-39 4v74h117q161 0 229 -64t88 -219l16 -125q35 -282 115 -370q74 -76 215 -91v158q0 414 -6 618l-162 19v74h600v-74l-166 -19q-2 -203 -2 -618v-158q92 12 151 43q105 56 144 228q16 70 33 190l16 123q20 157 90 221t228 64z" />
    <glyph glyph-name="Identity.150" unicode="&#x3a9;" horiz-adv-x="1699" 
d="M944 158q309 304 309 758q0 230 -105 393q-105 161 -299 161t-298 -162t-105 -407q0 -434 306 -743v-158h-646l-14 412h98l50 -213h383v4q-203 127 -332 305t-129 399q0 287 189 468t497 181t500 -182q190 -182 190 -473q0 -215 -129 -394t-332 -304v-4h381l51 213h99
l-17 -412h-647v158z" />
    <glyph glyph-name="Identity.151" unicode="&#x3b1;" horiz-adv-x="1314" 
d="M1057 -33q-160 0 -197 205q-84 -205 -319 -205q-199 0 -329 153t-130 422t148 428q148 158 336 158t296 -174l17 129l239 35l21 -16q-78 -565 -78 -805q1 -100 27 -140t79 -40t88 20l23 -41q-61 -129 -221 -129zM340 629q0 -271 74 -411t194 -140q92 0 154 74t67 204
l25 510q-88 143 -244 144q-122 0 -196 -100t-74 -281z" />
    <glyph glyph-name="Identity.152" unicode="&#x3b2;" horiz-adv-x="1335" 
d="M184 1055q0 301 142 462t389 160q199 0 321 -99t121 -260q0 -161 -100 -287t-301 -177q244 -20 370 -133t125 -311q0 -198 -126 -321q-126 -122 -312 -122q-258 0 -393 236l51 -588l-287 -53l-16 12l16 498v983zM1014 474q0 152 -100 244q-100 93 -304 89l-22 143
q342 78 342 361q0 141 -67 216t-179 75t-178 -87q-68 -87 -68 -251l-6 -1002q134 -108 276 -108t224 84t82 236z" />
    <glyph glyph-name="Identity.153" unicode="&#x3b3;" horiz-adv-x="1179" 
d="M209 1116q99 0 161 -63t124 -267q102 -305 180 -643q133 262 207 504q-55 221 -55 302t37 130t101 49t105 -41q14 -55 14 -120q0 -270 -385 -920l19 -434l-254 -55l-19 16l54 399q-84 329 -272 819q-32 82 -66 121q-36 39 -86 39t-60 -6l-14 39q68 131 209 131z" />
    <glyph glyph-name="Identity.154" unicode="&#x3b4;" horiz-adv-x="1216" 
d="M1130 541q0 -240 -145 -407t-379 -167t-379 155t-145 383q0 229 120 375t333 185q-158 104 -238 186t-80 193t116 172t292 61q338 0 456 -192q1 -53 -31 -86t-89 -33q-89 0 -179 88l-164 162q-114 -2 -168 -35t-54 -105t76 -148q77 -77 255 -187q217 -139 310 -275
t93 -325zM633 43q250 0 250 398q0 204 -69 339t-236 248q-122 -58 -180 -164t-58 -280q0 -246 86 -394t207 -147z" />
    <glyph glyph-name="Identity.155" unicode="&#x3b5;" horiz-adv-x="1036" 
d="M506 -33q-176 0 -295 79t-119 212q0 236 357 285q-160 27 -237 105t-77 173q0 135 125 221t330 86q285 0 352 -145q2 -49 -34 -84t-102 -35t-155 86l-106 109q-78 -11 -129 -61t-51 -130q0 -207 297 -206q47 0 67 2v-172q-45 4 -61 4q-317 0 -318 -174q0 -82 66 -127
t182 -45q188 -1 348 124l43 -47q-174 -260 -483 -260z" />
    <glyph glyph-name="Identity.156" unicode="&#x3b6;" horiz-adv-x="993" 
d="M965 -74q-1 -152 -147 -258t-410 -112l-11 92q193 12 290 64t97 118t-39 102q-39 35 -143 62l-192 47q-315 78 -316 369q0 178 179 444t491 616l-633 -22v219l793 -10l8 -129q-596 -686 -596 -1055q0 -97 54 -155t181 -91l144 -34q250 -61 250 -267z" />
    <glyph glyph-name="Identity.157" unicode="&#x3b7;" horiz-adv-x="1296" 
d="M715 950q-70 0 -140 -40t-118 -111l12 -799l-258 -27l-16 13l22 463l4 385q0 76 -20 104q-19 28 -71 27q-52 0 -67 -4l-12 36q74 123 197 123q193 0 207 -250q63 125 165 192t203 66q133 0 221 -94t89 -313l12 -1108l-266 -55l-17 14l33 471l18 641q6 266 -198 266z" />
    <glyph glyph-name="Identity.158" unicode="&#x3b8;" horiz-adv-x="1181" 
d="M602 1677q229 0 357 -208q128 -209 128 -649t-135 -646t-366 -207q-231 0 -361 201q-129 200 -129 642t138 654t368 213zM336 877h508q-8 367 -77 547t-177 180q-82 0 -134 -58q-116 -128 -120 -669zM844 782h-508q6 -379 80 -560t188 -181q78 0 127 58t81 226t32 457z
" />
    <glyph glyph-name="Identity.159" unicode="&#x3b9;" horiz-adv-x="684" 
d="M422 -33q-92 0 -153 73q-60 73 -62 214l-19 817l273 49l16 -14q-41 -678 -40 -834t110 -155q45 0 92 20l23 -39q-28 -53 -88 -92t-152 -39z" />
    <glyph glyph-name="Identity.160" unicode="&#x3ba;" horiz-adv-x="1249" 
d="M997 -33q-106 0 -192 137t-232 496q-72 -111 -122 -211q-12 -244 -19 -389l-223 -27l-19 13l25 487l2 361q2 76 -18 104q-21 28 -69 29q-48 0 -69 -6l-14 38q82 121 195 121q211 0 211 -286v-336q164 330 381 514q125 102 256 116q88 -23 88 -116q0 -133 -201 -152
l-189 -14q-84 -80 -172 -184q182 -283 244 -353q104 -119 221 -119q64 1 101 11l18 -31q-31 -98 -86 -150t-117 -53z" />
    <glyph glyph-name="Identity.161" unicode="&#x3bb;" horiz-adv-x="1277" 
d="M1085 -33q-81 0 -143 70q-61 70 -98 258l-131 637l-377 -952l-281 18l-12 18l590 1158l-35 102q-39 108 -99 148t-184 40t-249 -80l-23 41q23 121 96 188t183 67t185 -74t130 -238l307 -940q47 -140 100 -196t119 -56t113 19l18 -39q-18 -88 -73 -138t-136 -51z" />
    <glyph glyph-name="Identity.162" unicode="&#x3bc;" horiz-adv-x="1329" 
d="M1094 -33q-188 0 -211 281q-96 -281 -275 -281q-139 0 -227 148l61 -502l-254 -51l-18 12l51 659l-43 834l254 53l21 -14q-27 -688 -29 -807q76 -129 207 -129q166 0 248 172l-21 725l256 53l19 -14q-39 -696 -38 -810t25 -146t76 -33q51 0 90 20l21 -41
q-72 -129 -213 -129z" />
    <glyph glyph-name="Identity.163" unicode="&#x3bd;" horiz-adv-x="1181" 
d="M219 1118q113 0 181 -85t122 -298q109 -391 140 -620q152 299 219 524q-53 235 -53 313t37 128q39 50 101 50t105 -43q12 -45 12 -120q0 -287 -415 -969l-176 -12q-45 210 -168 556q-34 94 -66 194q-77 234 -176 235q-23 -1 -64 -13l-18 37q31 57 91 90t128 33z" />
    <glyph glyph-name="Identity.164" unicode="&#x3be;" horiz-adv-x="1038" 
d="M1012 -72q0 -150 -146 -258t-413 -114l-9 92q197 12 291 65t94 129q0 55 -35 89q-36 34 -135 57l-221 49q-326 72 -325 358q0 152 116 258q117 106 322 133q-180 27 -265 118t-85 221q0 129 103 223t274 133l-486 -23v207l879 -10l-6 -162q-279 -10 -411 -92t-132 -201
q0 -120 87 -188t257 -68q94 0 135 6v-215q-47 2 -158 2q-215 0 -306 -77t-91 -184t55 -162q56 -54 189 -83l180 -43q242 -53 242 -260z" />
    <glyph glyph-name="Identity.165" unicode="&#x3bf;" horiz-adv-x="1226" 
d="M633 43q123 0 186 101t64 264q0 301 -82 473t-203 172q-122 -1 -190 -103t-68 -264q0 -311 85 -477t208 -166zM601 -33q-226 0 -373 151q-146 151 -146 425t157 430q157 155 388 155t372 -147t141 -422t-156 -433q-157 -158 -383 -159z" />
    <glyph glyph-name="Identity.166" unicode="&#x3c0;" horiz-adv-x="1386" 
d="M1155 150q61 0 115 26l20 -37q-76 -172 -235 -172q-115 0 -181 69t-65 212q0 252 29 649h-320q-4 -401 -22 -604q-20 -326 -248 -326q-68 0 -111 38q-43 39 -43 107t49 111q84 18 254 31q23 162 47 639l-385 -53l-20 92q92 90 203 130t290 40h785l12 -221l-323 12
l16 -553q8 -190 133 -190z" />
    <glyph glyph-name="Identity.167" unicode="&#x3c1;" horiz-adv-x="1273" 
d="M1192 558q0 -271 -137 -431t-338 -160t-316 176l50 -530l-287 -51l-21 12l17 489v418q2 330 141 489t387 158q213 0 359 -149q145 -150 145 -421zM936 540q0 236 -84 374t-198 138t-175 -82q-61 -83 -63 -233l-4 -542q96 -105 231 -105t214 106q79 108 79 344z" />
    <glyph glyph-name="Identity.168" unicode="&#x3c3;" horiz-adv-x="1380" 
d="M603 -33q-228 0 -375 152q-146 153 -146 417t169 414t507 156l567 8l8 -223l-549 80q150 -74 249 -203t100 -279q0 -219 -151 -371t-379 -151zM637 43q119 0 187 98t67 285q0 186 -73 358t-200 215q-279 -45 -278 -426q0 -242 89 -386t208 -144z" />
    <glyph glyph-name="Identity.169" unicode="&#x3c4;" horiz-adv-x="1093" 
d="M748 150q62 0 114 28l21 -39q-72 -172 -246 -172q-240 0 -240 287q0 193 86 641l-440 -43l-12 68q80 100 185 141t294 41h522l8 -219l-436 14l10 -553q4 -106 38 -150t96 -44z" />
    <glyph glyph-name="Identity.170" unicode="&#x3c5;" horiz-adv-x="1249" 
d="M272 1118q109 0 160 -66t51 -200q1 -70 -23 -224t-24 -251q0 -145 72 -231t208 -85t220 103t84 303q0 33 -4 119q-104 162 -143 247q-78 176 4 256q41 39 101 39t95 -41q61 -229 62 -479q0 -641 -490 -641q-213 -1 -332 103t-118 307q0 90 17 230t17 216t-20 109
q-21 33 -69 33t-77 -4l-12 34q82 123 221 123z" />
    <glyph glyph-name="Identity.171" unicode="&#x3c6;" horiz-adv-x="1662" 
d="M1579 561q0 -256 -164 -417t-471 -179l17 -379l-236 -49l-35 29l27 399q-305 21 -470 167t-165 404t173 420t495 177l8 307h160l6 -305q328 -12 492 -165t163 -409zM338 575q0 -487 383 -542l27 1038q-202 -14 -306 -140t-104 -356zM1325 532q0 254 -98 386t-303 153
l18 -1042q383 39 383 503z" />
    <glyph glyph-name="Identity.172" unicode="&#x3c7;" horiz-adv-x="1191" 
d="M188 926q-98 0 -161 -27l-23 45q63 178 219 178q188 0 277 -284l88 -306l295 586l237 -18l19 -27l-453 -797l94 -235q112 -295 300 -295q86 0 130 25l19 -33q-31 -96 -80 -142t-133 -47q-195 0 -277 334l-86 332l-325 -657l-244 24l-14 23l481 858l-84 207
q-57 156 -119 206t-160 50z" />
    <glyph glyph-name="Identity.173" unicode="&#x3c8;" horiz-adv-x="1701" 
d="M1474 1128q72 0 107 -55q18 -121 18 -268q6 -385 -130 -587t-418 -241l10 -387l-248 -53l-18 12l22 418q-600 18 -600 424l12 424q0 90 -20 120q-19 30 -67 30t-72 -4l-15 36q68 121 207 121q213 0 213 -260l-8 -459q0 -162 83 -251t269 -101l23 1372h170l37 -1364
q190 29 288 144t125 329q-150 328 -149 437q0 79 45 121q44 42 116 42z" />
    <glyph glyph-name="Identity.174" unicode="&#x3c9;" horiz-adv-x="1705" 
d="M1624 524q0 -268 -130 -412t-335 -145q-117 0 -200 74t-109 211q-25 -145 -108 -215t-207 -70q-193 1 -323 145t-130 407t148 422t415 187l8 -59q-322 -78 -321 -532q0 -233 70 -343t184 -110q190 0 190 229q0 59 -18 227t-23 263l221 37l21 -13q-4 -61 -26 -251
t-21 -248q0 -116 56 -180t156 -64t166 108q67 108 66 334q0 455 -334 543l9 59q271 -28 423 -182t152 -422z" />
    <glyph glyph-name="Identity.175" unicode="&#x401;" horiz-adv-x="1368" 
d="M92 0v72l195 18q4 203 4 619v100q0 412 -4 618l-195 19v74h1145l2 -402h-111l-77 316h-469q-6 -201 -7 -621h308l30 223h97v-516h-97l-28 215h-310q0 -442 7 -651h510l79 328h113l-6 -412h-1186zM459 1665q-57 0 -100 37q-42 37 -42 97t41 97q42 37 100 37t100 -37
t42 -97t-42 -97t-99 -37zM996 1933q58 0 100 -37t41 -97q1 -60 -41 -97t-100 -37t-99 37t-41 97t41 97t99 37z" />
    <glyph glyph-name="Identity.176" unicode="&#x410;" horiz-adv-x="1527" 
d="M1505 0h-661v72l198 22l-129 398h-489l-121 -396l201 -24v-72h-479v72l176 24l467 1430h178l489 -1436l170 -18v-72zM446 567h443l-225 703z" />
    <glyph glyph-name="Identity.177" unicode="&#x411;" horiz-adv-x="1409" 
d="M1346 444q0 -204 -158 -324t-481 -120h-617v72l197 18q2 209 2 637v88q0 410 -2 612l-197 19v74h1114l4 -422h-112l-78 336h-440q-6 -190 -7 -566q68 8 158 9q315 0 466 -115q151 -114 151 -318zM700 80q360 0 361 369q0 346 -363 346q-66 0 -127 -7v-61q1 -432 7 -647
h122z" />
    <glyph glyph-name="Identity.178" unicode="&#x412;" horiz-adv-x="1452" 
d="M92 1520h684q260 0 388 -98t128 -263q0 -276 -395 -354q479 -57 479 -387q0 -176 -154 -297t-497 -121h-633v72l195 18q4 209 4 637v88q0 410 -4 612l-195 19v74zM698 1440h-120q-6 -199 -7 -611h97q348 0 348 320q-1 291 -318 291zM705 80q182 0 280 86t98 254t-97 250
t-302 82h-113q1 -459 7 -672h127z" />
    <glyph glyph-name="Identity.179" unicode="&#x413;" horiz-adv-x="1298" 
d="M575 692q0 -395 7 -600l219 -20v-72h-709v72l195 18q4 203 4 602v117q0 412 -4 618l-195 19v74h1129l4 -447h-113l-82 361h-448q-6 -205 -7 -625v-117z" />
    <glyph glyph-name="Identity.180" unicode="&#x414;" horiz-adv-x="1615" 
d="M397 1520h1114v-74l-192 -19q-6 -205 -6 -624v-80q0 -434 6 -641h10v2l2 -2h213l-12 -510h-105l-81 428h-1127l-86 -428h-106l-11 510h142q393 416 450 1341l-211 23v74zM1028 725v78q0 424 -6 631h-324q-55 -912 -409 -1352h733q6 207 6 643z" />
    <glyph glyph-name="Identity.181" unicode="&#x415;" horiz-adv-x="1368" 
d="M92 0v72l195 18q4 203 4 619v100q0 412 -4 618l-195 19v74h1145l2 -402h-111l-77 316h-469q-6 -201 -7 -621h308l30 223h97v-516h-97l-28 215h-310q0 -442 7 -651h510l79 328h113l-6 -412h-1186z" />
    <glyph glyph-name="Identity.182" unicode="&#x416;" horiz-adv-x="2183" 
d="M1946 -27q-129 0 -188 40q-58 40 -83 149l-96 323q-39 139 -102 191t-181 51h-75q0 -436 6 -637l196 -18v-72h-665v72l196 18q4 199 4 637h-73q-117 0 -182 -52t-99 -190l-96 -323q-27 -109 -85 -149q-57 -40 -187 -40t-234 27v72l199 14l108 363q41 147 137 223t289 100
q-78 35 -130 106t-105 214q-63 156 -103 221q-193 -82 -279 0q-40 39 -40 96q0 119 137 150q119 -13 197 -109t157 -334q66 -182 138 -247t190 -64h61q0 422 -4 620l-196 21v74h665v-74l-196 -21q-6 -197 -6 -620h63q119 0 191 63q73 62 145 274t150 308q79 96 196 109
q139 -31 139 -150q0 -57 -41 -96q-87 -83 -280 0q-41 -76 -101 -221q-55 -143 -108 -214t-129 -106q195 -24 291 -100t137 -223l106 -363l201 -14v-72q-106 -27 -235 -27z" />
    <glyph glyph-name="Identity.183" unicode="&#x417;" horiz-adv-x="1267" 
d="M1192 403q0 -193 -161 -317t-445 -125q-477 0 -523 352q33 84 119 84q59 0 91 -36t46 -125l37 -173q66 -18 158 -18q176 0 280 95q103 94 103 268t-90 258t-281 84h-75v79h63q352 0 352 322t-315 322q-92 0 -182 -25l-88 -334h-113l-12 332q176 110 440 110t402 -108
t139 -287q1 -135 -103 -231t-303 -127q461 -45 461 -400z" />
    <glyph glyph-name="Identity.184" unicode="&#x418;" horiz-adv-x="1800" 
d="M1511 709q0 -414 5 -619l192 -18v-72h-674v72l195 18q2 203 2 635l10 459l-686 -987l-2 -105l213 -20v-72h-674v72l195 18q2 203 2 619v100q0 412 -2 616l-195 21v74h674v-74l-195 -19q-2 -205 -2 -618l-10 -479l686 991l2 104l-213 21v74h674v-74l-192 -19
q-4 -205 -5 -618v-100z" />
    <glyph glyph-name="Identity.185" unicode="&#x419;" horiz-adv-x="1800" 
d="M1511 709q0 -414 5 -619l192 -18v-72h-674v72l195 18q2 203 2 635l10 459l-686 -987l-2 -105l213 -20v-72h-674v72l195 18q2 203 2 619v100q0 412 -2 616l-195 21v74h674v-74l-195 -19q-2 -205 -2 -618l-10 -479l686 991l2 104l-213 21v74h674v-74l-192 -19
q-4 -205 -5 -618v-100zM901 1636q-174 0 -286 83t-111 233q33 74 91 74q124 -1 124 -156q0 -51 -12 -125q85 -43 195 -43t194 41q-12 79 -12 143t32 102q33 38 82 37q68 0 100 -73q0 -150 -112 -233t-285 -83z" />
    <glyph glyph-name="Identity.186" unicode="&#x41a;" horiz-adv-x="1558" 
d="M1314 -27q-128 0 -188 40q-59 40 -86 149l-94 325q-37 139 -99 191t-181 53h-91q0 -440 7 -641l196 -18v-72h-686v72l195 18q4 203 4 619v100q0 412 -4 618l-195 19v74h686v-74l-196 -19q-6 -201 -7 -618h76q123 0 194 61q71 62 141 272t149 307q80 97 200 110
q137 -31 138 -150q0 -57 -40 -96q-83 -81 -284 0q-39 -68 -98 -217t-113 -219t-133 -103q195 -22 296 -98t142 -227l107 -363l196 -14v-72q-104 -27 -232 -27z" />
    <glyph glyph-name="Identity.187" unicode="&#x41b;" horiz-adv-x="1605" 
d="M1311 809v-98q0 -416 4 -621l192 -18v-72h-682v72l195 18q4 203 4 619v100q0 418 -4 625h-315q-20 -586 -125 -985q-68 -254 -160 -369t-221 -115q-80 0 -130 49t-51 146q41 92 160 92q82 0 180 -74q84 100 136 299q111 436 131 948l-209 21v74h1091v-74l-192 -19
q-4 -205 -4 -618z" />
    <glyph glyph-name="Identity.188" unicode="&#x41c;" horiz-adv-x="2052" 
d="M1761 809v-100q0 -414 2 -619l197 -18v-72h-676v72l189 18q4 112 4 310t2 276l4 645l-500 -1321h-100l-514 1313q10 -342 10 -563v-654l215 -24v-72h-533v72l218 24l8 1323l-215 27v74h499l455 -1155l442 1155h492v-74l-197 -19q-2 -207 -2 -618z" />
    <glyph glyph-name="Identity.189" unicode="&#x41d;" horiz-adv-x="1775" 
d="M1487 809v-100q0 -414 2 -619l194 -18v-72h-673v72l186 16q4 203 4 649h-627q0 -444 7 -649l186 -16v-72h-674v72l195 18q2 203 2 619v100q0 412 -2 616l-195 21v74h674v-74l-186 -19q-6 -201 -7 -610h627q0 408 -4 610l-186 19v74h673v-74l-194 -19q-2 -205 -2 -618z
" />
    <glyph glyph-name="Identity.190" unicode="&#x41e;" horiz-adv-x="1609" 
d="M806 1556q294 0 500 -212t205 -584q0 -186 -57 -340q-107 -290 -381 -406q-127 -53 -268 -53q-291 0 -494 203q-98 98 -156 252t-59 344q0 368 208 582t502 214zM805 1473q-197 0 -299 -200t-103 -515q1 -315 103 -514t299 -199t300 200t103 513t-103 514t-300 201z" />
    <glyph glyph-name="Identity.191" unicode="&#x41f;" horiz-adv-x="1751" 
d="M1460 809v-100q0 -414 4 -619l193 -18v-72h-674v72l188 16q2 205 3 621v100q0 422 -3 631h-591q-6 -207 -7 -631v-100q0 -414 7 -621l186 -16v-72h-674v72l195 18q2 203 2 619v100q0 412 -2 618l-195 19v74h1565v-74l-193 -19q-4 -205 -4 -618z" />
    <glyph glyph-name="Identity.192" unicode="&#x420;" horiz-adv-x="1374" 
d="M672 608h-97q0 -336 7 -516l219 -20v-72h-709v72l195 18q4 203 4 619v100q0 412 -4 618l-195 19v74h610q614 0 615 -451q1 -207 -155 -334t-490 -127zM690 1440h-108q-6 -207 -7 -631v-121h101q186 0 277 102t91 279q0 371 -354 371z" />
    <glyph glyph-name="Identity.193" unicode="&#x421;" horiz-adv-x="1435" 
d="M891 -39q-350 0 -572 213q-221 213 -221 585q0 373 230 585t571 212q229 0 432 -114l-4 -355h-117l-90 351q-84 35 -184 35q-238 -1 -385 -185t-147 -532t146 -530t386 -181q102 0 201 39l90 346h119l2 -352q-207 -117 -457 -117z" />
    <glyph glyph-name="Identity.194" unicode="&#x422;" horiz-adv-x="1419" 
d="M852 809v-100q0 -412 4 -619l219 -18v-72h-731v72l219 18q2 203 2 619v100q0 418 -2 625h-317l-86 -338h-115l14 424h1301l12 -424h-115l-83 338h-318q-4 -205 -4 -625z" />
    <glyph glyph-name="Identity.195" unicode="&#x423;" horiz-adv-x="1400" 
d="M1415 1520v-74l-182 -27l-455 -1059q-96 -217 -182 -308t-188 -91q-194 0 -199 193q39 88 143 88t201 -119q57 55 135 207l-532 1102l-138 14v74h652v-74l-199 -23l350 -784l318 778l-205 29v74h481z" />
    <glyph glyph-name="Identity.196" unicode="&#x424;" horiz-adv-x="1695" 
d="M1018 240h-41q0 -117 2 -174l207 -21v-70h-676v70l207 23q2 57 2 172h-43q-299 0 -464 140t-165 381t161 378t468 137h43q0 117 -2 176l-207 18v72h676v-72l-207 -18q-2 -57 -2 -176h41q307 0 467 -137t160 -377t-164 -381t-463 -141zM1004 1200h-29v-887h29
q186 0 278 127t92 322q0 194 -88 316t-282 122zM688 313h33v887h-33q-190 0 -279 -123t-89 -317t90 -321q92 -126 278 -126z" />
    <glyph glyph-name="Identity.197" unicode="&#x425;" horiz-adv-x="1486" 
d="M1458 0h-688v72l199 18l-305 549l-318 -541l186 -26v-72h-487v72l191 26l389 613l-398 716l-184 19v74h686v-74l-194 -19l274 -493l287 489l-189 23v74h498v-74l-201 -23l-358 -559l432 -774l180 -18v-72z" />
    <glyph glyph-name="Identity.198" unicode="&#x426;" horiz-adv-x="1757" 
d="M92 0v72l195 18q2 205 2 619v100q0 414 -2 616l-195 21v74h670v-74l-182 -19q-6 -205 -7 -620v-98q0 -422 7 -627h577q4 207 4 629v98q0 414 -4 618l-180 19v74h668v-74l-193 -19q-4 -205 -4 -618v-100q0 -420 4 -627h16v2l5 -2h210l-32 -510h-105l-65 428h-1389z" />
    <glyph glyph-name="Identity.199" unicode="&#x427;" horiz-adv-x="1628" 
d="M1337 809v-100q0 -414 6 -619l195 -18v-72h-682v72l191 16q6 190 6 574q-215 -44 -334 -44t-205 18q-201 41 -258 207q-33 93 -33 234v350l-170 19v74h656v-74l-197 -19q-4 -246 -4 -354q0 -201 66 -275t229 -75q98 0 250 25v61q0 414 -6 618l-185 19v74h676v-74
l-195 -19q-6 -205 -6 -618z" />
    <glyph glyph-name="Identity.200" unicode="&#x428;" horiz-adv-x="2422" 
d="M2134 809v-100q0 -414 2 -619l195 -18v-72h-2239v72l195 18q2 205 2 619v100q0 414 -2 616l-195 21v74h660v-74l-172 -19q-6 -205 -7 -620v-98q0 -422 7 -627h485q6 207 6 641v80q0 422 -6 624l-172 19v74h637v-74l-172 -19q-6 -207 -6 -624v-80q0 -434 6 -641h485
q6 205 6 627v98q0 416 -6 620l-174 19v74h662v-74l-195 -21q-2 -203 -2 -616z" />
    <glyph glyph-name="Identity.201" unicode="&#x429;" horiz-adv-x="2443" 
d="M92 0v72l195 18q2 205 2 619v100q0 414 -2 616l-195 21v74h660v-74l-172 -19q-6 -205 -7 -620v-98q0 -422 7 -627h485q6 207 6 641v80q0 422 -6 624l-172 19v74h637v-74l-172 -19q-6 -207 -6 -624v-80q0 -434 6 -641h485q6 207 6 641v80q0 420 -6 624l-174 19v74h662v-74
l-195 -21q-2 -203 -2 -622v-80q0 -434 2 -641h18v2l5 -2h211l-31 -510h-107l-65 428h-2075z" />
    <glyph glyph-name="Identity.202" unicode="&#x42a;" horiz-adv-x="1681" 
d="M1018 905q309 0 461 -121q151 -122 151 -334t-159 -331t-478 -119h-608v72l197 18q2 205 2 619v100q0 420 -2 625h-336l-88 -340h-113l14 426h1028v-74l-213 -21q-6 -186 -6 -526q72 6 150 6zM985 80q363 0 363 371t-369 370q-74 0 -111 -4v-108q0 -422 6 -629h111z" />
    <glyph glyph-name="Identity.203" unicode="&#x42b;" horiz-adv-x="2146" 
d="M1853 709q0 -414 5 -619l194 -18v-72h-682v72l195 18q4 203 4 619v100q0 412 -4 618l-195 19v74h682v-74l-194 -19q-4 -205 -5 -618v-100zM715 905q301 0 449 -120q148 -121 148 -333t-152 -332q-153 -120 -460 -120h-608v72l197 18q2 205 2 619v100q0 414 -2 618
l-197 19v74h711v-74l-221 -21q-6 -186 -7 -526q63 6 140 6zM682 80q170 0 260 91t90 271q0 379 -350 379q-74 0 -107 -4v-108q1 -422 7 -629h100z" />
    <glyph glyph-name="Identity.204" unicode="&#x42c;" horiz-adv-x="1404" 
d="M741 905q315 0 465 -121q150 -122 150 -330t-159 -331t-486 -123h-621v72l197 18q2 205 2 619v100q0 414 -2 618l-197 19v74h709v-74l-219 -21q-6 -186 -7 -526q80 6 168 6zM707 80q367 0 367 370t-365 371q-92 0 -136 -4v-108q1 -422 7 -629h127z" />
    <glyph glyph-name="Identity.205" unicode="&#x42d;" horiz-adv-x="1404" 
d="M1307 760q0 -385 -202 -592t-554 -207q-258 0 -459 117l2 352h119l90 -346q98 -39 221 -39q236 0 363 172t131 518h-428l-29 -215h-96v516h96l29 -223h428q-10 330 -137 495t-359 165q-117 0 -203 -33l-90 -353h-118l-5 357q211 113 431 112q350 0 560 -206t210 -590z
" />
    <glyph glyph-name="Identity.206" unicode="&#x42e;" horiz-adv-x="2293" 
d="M561 819h307q14 346 202 542q188 195 469 195q282 0 469 -206t187 -592q0 -385 -186 -591t-473 -206t-474 205t-196 573h-305q0 -449 4 -649l193 -18v-72h-666v72l195 18q2 203 2 619v100q0 412 -2 616l-195 21v74h666v-74l-193 -19q-4 -200 -4 -608zM1533 1473
q-187 0 -281 -195q-94 -196 -95 -518q1 -322 95 -518t281 -197q187 0 279 195q92 196 92 520t-92 518t-279 195z" />
    <glyph glyph-name="Identity.207" unicode="&#x42f;" horiz-adv-x="1511" 
d="M1243 809v-100q0 -416 2 -619l197 -18v-72h-678v72l192 20q4 197 5 606h-99q-127 0 -180 -43t-102 -198l-107 -312q-31 -92 -81 -129q-50 -36 -174 -36t-212 20v63l166 19l115 309q59 170 119 239t212 99q-213 31 -318 135t-105 254q0 184 143 293t401 109h703v-74
l-197 -19q-2 -207 -2 -618zM797 780h164q0 449 -5 652h-155q-162 0 -245 -85t-83 -239t84 -241t240 -87z" />
    <glyph glyph-name="Identity.208" unicode="&#x430;" horiz-adv-x="1191" 
d="M374 -33q-118 0 -201 74t-83 203t89 212t321 154q96 33 223 62v104q0 160 -46 218t-163 59q-51 0 -106 -13l-29 -147q-12 -158 -133 -158q-104 0 -123 94q20 139 145 219t331 80t296 -94t90 -309v-528q0 -123 74 -123q41 -1 92 67l37 -30q-74 -141 -244 -141t-213 180
q-94 -98 -166 -140q-73 -42 -191 -43zM346 279q0 -87 44 -133t106 -46t108 24q45 24 119 85v403q-127 -37 -154 -49q-223 -88 -223 -284z" />
    <glyph glyph-name="Identity.209" unicode="&#x431;" horiz-adv-x="1282" 
d="M706 1073q214 0 352 -135q138 -136 138 -404t-155 -418t-397 -149q-242 0 -388 178q-145 178 -145 555q0 264 53 460t158 286q82 72 182 104t214 50t229 30q114 12 153 17l47 100l43 -8q-20 -223 -78 -287q-40 -40 -98 -51q-20 -4 -34 -7q-14 -4 -40 -8q-39 -6 -87 -12
l-48 -6q-178 -22 -267 -44t-155 -67q-170 -117 -197 -544q68 190 187 275t333 85zM660 43q120 0 186 125t65 373q0 453 -254 452q-117 -1 -189 -113t-73 -352q0 -240 73 -362q73 -123 192 -123z" />
    <glyph glyph-name="Identity.210" unicode="&#x432;" horiz-adv-x="1210" 
d="M80 1096h631q383 0 383 -260q0 -98 -65 -163t-232 -91q352 -37 352 -283q0 -299 -473 -299h-596v63l145 17q4 233 4 401v133q0 168 -4 402l-145 16v64zM631 1020h-139q-4 -221 -5 -412h131q221 0 222 211q0 101 -50 151t-159 50zM633 76q252 0 252 229q0 238 -258 238
h-140v-62q1 -172 5 -405h141z" />
    <glyph glyph-name="Identity.211" unicode="&#x433;" horiz-adv-x="1036" 
d="M500 602v-121q0 -168 4 -401l160 -17v-63h-584v63l145 19q4 229 4 399v121q0 180 -4 414l-145 16v64h887l12 -424h-86l-109 348h-280q-4 -233 -4 -418z" />
    <glyph glyph-name="Identity.212" unicode="&#x434;" horiz-adv-x="1370" 
d="M332 1096h952v-64l-170 -18q-4 -233 -4 -400v-133q0 -174 4 -407h184l-12 -447h-100l-80 373h-875l-81 -373h-103l-10 447h123q293 424 352 934l-180 24v64zM842 481v133q0 174 -4 408h-244q-56 -502 -318 -948h562q4 233 4 407z" />
    <glyph glyph-name="Identity.213" unicode="&#x435;" horiz-adv-x="1173" 
d="M731 102q190 0 307 158l41 -29q-61 -127 -175 -195t-265 -69q-247 0 -401 155t-154 423t165 426q165 157 382 157t339 -126t122 -322q-1 -78 -15 -127h-708q6 -225 105 -338t257 -113zM719 629q69 0 93 35t24 137t-60 177t-158 75q-99 1 -170 -105t-79 -319h350z" />
    <glyph glyph-name="Identity.214" unicode="&#x436;" horiz-adv-x="1820" 
d="M1606 -23q-94 0 -143 34q-50 34 -74 120l-68 238q-29 96 -74 126t-149 29h-64q0 -213 4 -442l148 -19v-63h-549v63l145 17q4 233 4 444h-63q-104 0 -149 -29q-44 -30 -72 -126l-70 -238q-25 -86 -75 -120t-143 -34t-187 23v61l137 17l74 235q39 123 118 177q80 54 244 73
q-113 45 -176 223q-23 57 -41 93q-166 -47 -245 17q-44 36 -46 97q0 106 107 135q102 -10 168 -80q65 -70 115 -220q50 -148 104 -192t139 -44h61q0 195 -4 424l-145 16v64h549v-64l-148 -18q-4 -229 -4 -422h62q84 0 138 44t104 192t116 220q66 71 168 80q106 -29 107 -135
q-3 -61 -47 -97t-107 -36t-135 21q-20 -33 -48 -112q-58 -163 -171 -206q163 -19 243 -73t119 -177l74 -235l137 -17v-61q-94 -23 -188 -23z" />
    <glyph glyph-name="Identity.215" unicode="&#x437;" horiz-adv-x="1030" 
d="M486 1128q206 0 323 -76t121 -210q0 -201 -285 -252q319 -61 320 -297q1 -141 -137 -233t-371 -93q-166 0 -267 70q-100 70 -120 201q10 44 43 66t71 22q100 -8 125 -131l37 -150q43 -6 98 -6q123 0 195 69q72 70 72 184q1 114 -57 184t-179 71h-100v76h96q227 0 227 215
q-4 215 -233 215q-74 0 -131 -13l-82 -280h-100l-33 280q161 88 367 88z" />
    <glyph glyph-name="Identity.216" unicode="&#x438;" horiz-adv-x="1486" 
d="M1255 481q0 -168 5 -401l145 -17v-63h-553v63l147 19v725l-512 -627v-96l160 -21v-63h-567v63l145 17q4 233 4 401v133q0 168 -4 402l-145 16v64h567v-64l-160 -20v-717l512 625v94l-147 18v64h553v-64l-145 -16q-4 -233 -5 -402v-133z" />
    <glyph glyph-name="Identity.217" unicode="&#x439;" horiz-adv-x="1486" 
d="M1255 481q0 -168 5 -401l145 -17v-63h-553v63l147 19v725l-512 -627v-96l160 -21v-63h-567v63l145 17q4 233 4 401v133q0 168 -4 402l-145 16v64h567v-64l-160 -20v-717l512 625v94l-147 18v64h553v-64l-145 -16q-4 -233 -5 -402v-133zM760 1305q-176 0 -282 84
q-105 84 -105 231q33 74 102 74q47 0 80 -40t33 -114t-13 -131q85 -39 183 -39t182 39q-10 65 -10 135t33 110t89 40t95 -74q1 -147 -105 -231t-282 -84z" />
    <glyph glyph-name="Identity.218" unicode="&#x43a;" horiz-adv-x="1282" 
d="M1066 -23q-96 0 -146 34t-72 120l-70 238q-27 98 -72 131q-46 33 -147 32h-59q0 -219 4 -452l143 -17v-63h-567v63l145 17q4 233 4 401v133q0 168 -4 402l-145 16v64h567v-64l-143 -16q-4 -229 -4 -414h55q88 0 140 40q53 40 103 186t114 219q65 72 167 81
q109 -31 109 -135q0 -59 -44 -96t-110 -37t-137 21q-23 -41 -39 -95q-61 -176 -178 -215q162 -18 242 -75t120 -183l72 -235l139 -17v-61q-91 -23 -187 -23z" />
    <glyph glyph-name="Identity.219" unicode="&#x43b;" horiz-adv-x="1347" 
d="M1118 614v-133q0 -168 4 -401l146 -17v-63h-566v63l142 17q4 233 4 401v133q0 180 -4 414h-258q-16 -424 -99 -702q-55 -197 -128 -273t-159 -76q-173 0 -173 179q47 86 129 86t149 -72q59 63 94 180q86 256 103 658l-176 24v64h942v-64l-146 -16q-4 -233 -4 -402z" />
    <glyph glyph-name="Identity.220" unicode="&#x43c;" horiz-adv-x="1687" 
d="M1458 614v-133q0 -168 4 -401l144 -17v-63h-566v63l160 19v367l14 561l-378 -924h-121l-400 928l21 -563v-369l164 -19v-63h-420v63l172 19v928l-166 22v64h451l325 -756l314 756h432v-64l-146 -18q-4 -233 -4 -400z" />
    <glyph glyph-name="Identity.221" unicode="&#x43d;" horiz-adv-x="1462" 
d="M1231 614v-133q0 -168 4 -401l145 -17v-63h-565v63l143 17q4 233 5 461h-463q0 -227 4 -461l143 -17v-63h-567v63l145 17q4 233 4 401v133q0 168 -4 402l-145 16v64h567v-64l-143 -16q-4 -229 -4 -402h463q0 176 -5 402l-143 16v64h565v-64l-145 -16q-4 -233 -4 -402z
" />
    <glyph glyph-name="Identity.222" unicode="&#x43e;" horiz-adv-x="1271" 
d="M637 43q127 0 196 127t69 378t-69 378t-196 127q-264 0 -264 -505t264 -505zM1190 549q0 -268 -156 -425t-398 -157q-244 0 -398 157t-154 425t160 424q160 155 393 155t393 -156t160 -423z" />
    <glyph glyph-name="Identity.223" unicode="&#x43f;" horiz-adv-x="1439" 
d="M1360 0h-569v63l145 17q4 233 4 401v133q0 174 -4 408h-432q-4 -233 -4 -408v-133q0 -168 4 -401l143 -17v-63h-567v63l145 17q4 233 4 401v133q0 168 -4 402l-145 16v64h1276v-64l-144 -16q-4 -233 -4 -402v-133q0 -166 4 -399l148 -19v-63z" />
    <glyph glyph-name="Identity.224" unicode="&#x440;" horiz-adv-x="1368" 
d="M1286 554q0 -265 -138 -426t-347 -161q-178 0 -301 142v-142q0 -123 4 -418l176 -20v-61h-604v61l155 18q4 295 5 420v660q0 160 -7 307l-166 16v51l390 125l28 -20l15 -135q139 157 340 157q202 0 326 -154t124 -420zM709 98q289 0 289 452t-275 451q-115 0 -219 -94
v-733q84 -76 205 -76z" />
    <glyph glyph-name="Identity.225" unicode="&#x441;" horiz-adv-x="1150" 
d="M365 574q0 -222 101 -347t275 -125t289 154l43 -23q-131 -266 -446 -266q-237 0 -391 156t-154 423t168 425t414 157q160 0 274 -87t135 -220q-27 -96 -119 -96q-131 0 -147 158l-31 159q-33 10 -80 11q-150 0 -240 -128q-90 -129 -91 -351z" />
    <glyph glyph-name="Identity.226" unicode="&#x442;" horiz-adv-x="1251" 
d="M760 614v-133q0 -166 4 -399l170 -19v-63h-617v63l170 19q4 233 5 399v133q0 172 -5 406h-241l-101 -324h-90l11 400h1120l10 -400h-88l-102 324h-242q-4 -233 -4 -406z" />
    <glyph glyph-name="Identity.227" unicode="&#x443;" horiz-adv-x="1191" 
d="M1194 1096v-64l-133 -18l-420 -1114q-90 -240 -204 -348t-230 -107q-84 0 -148 42q-63 42 -65 105q8 55 54 85t104 30q94 0 180 -100l28 -33q115 92 211 332l-458 1114l-121 12v64h581v-64l-167 -18l288 -789l267 787l-193 20v64h426z" />
    <glyph glyph-name="Identity.228" unicode="&#x444;" horiz-adv-x="1761" 
d="M1180 -33q-94 0 -181 41q0 -190 5 -461l176 -18v-61h-609v61l181 20q6 217 6 457q-78 -39 -174 -39q-238 0 -373 151t-135 423t136 430t372 157q92 0 178 -41v394l-172 16v55l391 88l31 -18l-8 -326v-206q88 39 176 38q236 0 370 -152t136 -422q0 -271 -136 -429
t-370 -158zM637 1053q-145 0 -223 -128t-78 -380t77 -377t220 -125q68 0 125 29v954q-57 27 -121 27zM1128 43q143 0 221 128q77 128 77 380t-77 377t-221 125q-67 0 -124 -29v-954q59 -27 124 -27z" />
    <glyph glyph-name="Identity.229" unicode="&#x445;" horiz-adv-x="1226" 
d="M1204 0h-594l-2 63l160 15l-242 371l-243 -367l155 -19v-63h-422v63l152 19l319 426l-331 508l-121 14v66h573v-66l-143 -16l229 -348l232 344l-150 20v66h400v-66l-140 -20l-303 -406l348 -526l123 -15v-63z" />
    <glyph glyph-name="Identity.230" unicode="&#x446;" horiz-adv-x="1447" 
d="M80 0v63l145 17q4 233 4 401v133q0 168 -4 402l-145 16v64h563v-64l-139 -16q-4 -233 -4 -402v-133q0 -174 4 -407h418q4 233 4 407v133q0 168 -4 402l-140 16v64h561v-64l-145 -16q-4 -233 -4 -402v-133q0 -174 4 -407h199l-35 -447h-98l-66 373h-1118z" />
    <glyph glyph-name="Identity.231" unicode="&#x447;" horiz-adv-x="1298" 
d="M1069 614v-133q0 -168 4 -401l144 -17v-63h-566v63l146 17q4 225 4 391q-143 -29 -266 -29q-221 0 -305 94t-85 328l2 150l-124 18v64h528v-64l-143 -16q-2 -59 -2 -209t49 -212t196 -63q63 0 150 11v71q0 168 -4 402l-140 16v64h560v-64l-144 -16q-4 -233 -4 -402z" />
    <glyph glyph-name="Identity.232" unicode="&#x448;" horiz-adv-x="1976" 
d="M1747 614v-133q0 -227 6 -401l143 -17v-63h-1816v63l145 17q4 233 4 401v133q0 168 -4 402l-145 16v64h541v-64l-129 -16q-4 -233 -5 -402v-133q0 -174 5 -407h366q4 233 4 407v133q0 168 -4 402l-129 16v64h518v-64l-129 -16q-4 -233 -4 -402v-133q0 -174 4 -407h367
q4 233 4 407v133q0 168 -4 402l-129 16v64h540v-64l-143 -16q-6 -174 -6 -402z" />
    <glyph glyph-name="Identity.233" unicode="&#x449;" horiz-adv-x="1998" 
d="M80 0v63l145 17q4 233 4 401v133q0 168 -4 402l-145 16v64h541v-64l-129 -16q-4 -233 -5 -402v-133q0 -174 5 -407h366q4 233 4 407v133q0 168 -4 402l-129 16v64h518v-64l-129 -16q-4 -233 -4 -402v-133q0 -174 4 -407h367q4 233 4 407v133q0 168 -4 402l-129 16v64h540
v-64l-143 -16q-6 -174 -6 -402v-133q0 -231 6 -407h195l-35 -447h-101l-63 373h-1669z" />
    <glyph glyph-name="Identity.234" unicode="&#x44a;" horiz-adv-x="1423" 
d="M883 0h-570v63l172 19q4 233 4 399v133q0 172 -4 406h-239l-96 -324h-93l15 400h860v-64l-168 -18q-4 -205 -4 -359q82 8 174 9q213 0 319 -88q107 -88 107 -242t-115 -244t-362 -90zM842 70q264 0 264 258q0 137 -60 197t-184 61q-37 0 -102 -4v-101q0 -178 4 -411h78z
" />
    <glyph glyph-name="Identity.235" unicode="&#x44b;" horiz-adv-x="1798" 
d="M1552 481q0 -227 7 -401l143 -17v-63h-565v63l145 17q4 233 4 401v133q0 168 -4 402l-145 16v64h565v-64l-143 -16q-6 -174 -7 -402v-133zM1079 337q1 -155 -113 -246t-360 -91h-520v63l145 17q4 233 5 401v133q0 168 -5 402l-145 16v64h565v-64l-143 -16
q-4 -209 -4 -359q80 6 153 7q211 0 317 -86t105 -241zM565 70q262 0 262 258q0 139 -59 198t-182 60q-55 0 -82 -2v-103q0 -178 4 -411h57z" />
    <glyph glyph-name="Identity.236" unicode="&#x44c;" horiz-adv-x="1167" 
d="M1116 335q0 -155 -115 -245t-358 -90h-557v63l145 17q4 233 5 401v133q0 168 -5 402l-145 16v64h565v-64l-143 -16q-4 -209 -4 -361q88 8 188 9q212 0 318 -87t106 -242zM604 70q260 0 260 256q0 139 -60 199t-192 61q-35 0 -108 -4v-101q0 -178 4 -411h96z" />
    <glyph glyph-name="Identity.237" unicode="&#x44d;" horiz-adv-x="1120" 
d="M494 1128q246 0 396 -148t148 -430q0 -282 -150 -432t-435 -151q-154 0 -259 75t-114 210q29 74 93 74t94 -32t42 -112l23 -127q41 -12 102 -12q164 1 246 107t86 378l-449 -6v92l449 -4q-8 252 -91 347t-239 96q-66 0 -112 -17l-74 -280h-115l-24 274q178 98 383 98z
" />
    <glyph glyph-name="Identity.238" unicode="&#x44e;" horiz-adv-x="1841" 
d="M500 614h231q17 238 157 376t361 138t366 -155q144 -156 144 -424t-140 -425q-141 -157 -375 -157t-374 155q-139 155 -141 419h-229q0 -227 4 -461l143 -17v-63h-567v63l145 17q4 233 4 401v133q0 168 -4 402l-145 16v64h567v-64l-143 -16q-4 -230 -4 -402zM1243 43
q246 0 246 505t-246 505q-260 0 -260 -505t260 -505z" />
    <glyph glyph-name="Identity.239" unicode="&#x44f;" horiz-adv-x="1263" 
d="M1034 614v-133q0 -168 4 -401l144 -17v-63h-561v63l151 19q4 221 4 399h-86q-72 0 -104 -35t-74 -133l-96 -221q-27 -66 -67 -90t-130 -25q-90 0 -196 23v63l147 17l82 205q72 184 254 227q-180 22 -261 94t-81 202t107 209q108 79 327 79h584v-64l-144 -16
q-4 -233 -4 -402zM662 551h114v63q0 176 -4 410h-127q-109 0 -168 -58t-59 -171q0 -244 244 -244z" />
    <glyph glyph-name="Identity.240" unicode="&#x451;" horiz-adv-x="1173" 
d="M731 102q190 0 307 158l41 -29q-61 -127 -175 -195t-265 -69q-247 0 -401 155t-154 423t165 426q165 157 382 157t339 -126t122 -322q-1 -78 -15 -127h-708q6 -225 105 -338t257 -113zM719 629q69 0 93 35t24 137t-60 177t-158 75q-99 1 -170 -105t-79 -319h350z
M378 1360q-60 0 -103 38q-42 38 -42 99t42 100q43 39 103 39t103 -39t43 -101t-43 -99t-103 -37zM890 1360q-60 0 -104 38q-43 38 -43 99t44 100q43 39 103 39t102 -39t42 -100t-42 -99t-102 -38z" />
    <glyph glyph-name="Identity.241" unicode="&#x2010;" 
d="M1280 737h-512v82h512v-82z" />
    <glyph glyph-name="Identity.242" unicode="&#x2015;" 
d="M2048 737h-2048v82h2048v-82z" />
    <glyph glyph-name="Identity.243" unicode="&#x2018;" horiz-adv-x="489" 
d="M389 1174q0 -62 -42 -102t-100 -40t-124 45q-47 84 -47 178q0 139 91 261t239 184l26 -51q-174 -101 -233 -246l102 -74q88 -68 88 -155z" />
    <glyph glyph-name="Identity.244" unicode="&#x2019;" horiz-adv-x="489" 
d="M100 1559q0 61 42 101t100 40t125 -45q47 -84 47 -180q0 -139 -91 -259t-239 -184l-27 49q93 55 147 111t87 137l-103 74q-88 66 -88 156z" />
    <glyph glyph-name="Identity.245" unicode="&#x201c;" horiz-adv-x="942" 
d="M842 1174q0 -62 -42 -102t-100 -40t-125 45q-47 84 -47 178q0 139 92 261t238 184l27 -51q-175 -101 -234 -246l105 -74q86 -68 86 -155zM389 1174q0 -62 -42 -102t-100 -40t-124 45q-47 84 -47 178q0 139 91 261q92 121 239 184l26 -51q-174 -100 -233 -246l102 -74
q88 -68 88 -155z" />
    <glyph glyph-name="Identity.246" unicode="&#x201d;" horiz-adv-x="942" 
d="M553 1559q0 61 42 101t100 40t124 -45q47 -80 47 -180q0 -139 -91 -259t-238 -184l-27 49q92 55 146 111t87 137l-102 74q-88 66 -88 156zM100 1559q0 61 42 101t100 40t125 -45q47 -84 47 -180q0 -139 -91 -259t-239 -184l-27 49q93 55 147 111t87 137l-103 74
q-88 66 -88 156z" />
    <glyph glyph-name="Identity.247" unicode="&#x2020;" 
d="M1394 975q-78 0 -202 57l-150 66q115 -272 115 -467t-108 -856h-48q-109 662 -109 860t116 463l-150 -64q-123 -57 -203 -57q-81 0 -121 39t-40 102q0 62 41 102t121 40t202 -58l150 -67l-66 157q-59 123 -59 201t39 117t102 39t103 -39t40 -119t-59 -199l-66 -155
l150 63q235 106 324 21q40 -39 40 -103t-42 -103q-42 -40 -120 -40z" />
    <glyph glyph-name="Identity.248" unicode="&#x2021;" 
d="M1392 436q80 0 122 -40t42 -103t-40 -103q-88 -84 -324 19l-150 63l68 -153q59 -119 59 -200t-40 -120t-103 -39t-102 39t-39 118t57 202l66 153l-150 -65q-123 -57 -202 -57q-78 0 -120 40t-42 102q0 64 41 103t121 39t202 -59l150 -64q-115 233 -115 391t113 396
l-148 -64q-119 -57 -201 -57q-83 0 -123 39t-40 102q0 62 41 102t121 40t202 -58l150 -65l-66 155q-57 119 -57 199t39 119t102 39t103 -39t40 -119t-59 -199l-68 -157l150 65q135 60 209 60t115 -39q40 -39 40 -103t-42 -103q-42 -40 -120 -40t-202 57l-148 66
q113 -244 113 -396t-115 -391l150 66q119 59 200 59z" />
    <glyph glyph-name="Identity.249" unicode="&#x2025;" 
d="M1536 657q-49 0 -85 36t-36 85t36 85t85 36t85 -36t36 -85t-36 -85t-85 -36zM512 657q-49 0 -85 36t-36 85t36 85t85 36t85 -36t36 -85t-36 -85t-85 -36z" />
    <glyph glyph-name="Identity.250" unicode="&#x2026;" 
d="M1706 657q-49 0 -85 36t-36 85t36 85t85 36t85 -36t36 -85t-36 -85t-85 -36zM1024 657q-49 0 -85 36t-36 85t36 85t85 36t85 -36t36 -85t-36 -85t-85 -36zM342 657q-49 0 -85 36t-36 85t36 85t85 36t85 -36t36 -85t-36 -85t-85 -36z" />
    <glyph glyph-name="Identity.251" unicode="&#x2030;" 
d="M1434 436q0 238 85 354t215 115q130 1 214 -115t84 -354t-84 -352t-214 -113q-130 0 -215 114q-85 113 -85 351zM1734 852q-114 0 -114 -415t113 -414q116 1 115 415q0 414 -114 414zM1079 905q129 1 213 -115t84 -354t-84 -352t-213 -113q-129 0 -214 114
q-85 113 -85 351t85 354t214 115zM1192 436q0 416 -114 416t-113 -415q0 -415 114 -414q55 0 84 92t29 321zM375 -49l-80 33l709 1517l79 -33zM316 1513q130 1 214 -115t84 -355t-84 -353t-214 -112q-130 0 -214 114t-84 350q0 238 84 354t214 117zM430 1046q0 414 -114 414
t-113 -415q0 -415 112 -414q115 1 115 415z" />
    <glyph glyph-name="Identity.252" unicode="&#x2032;" horiz-adv-x="569" 
d="M296 1679q134 0 134 -139q0 -70 -125 -395q-37 -94 -88 -207l-57 6l16 696q56 39 120 39z" />
    <glyph glyph-name="Identity.253" unicode="&#x2033;" horiz-adv-x="1009" 
d="M736 1679q64 0 99 -34q34 -35 33 -95q0 -113 -211 -612l-57 6l14 696q58 39 122 39zM296 1679q134 0 134 -139q0 -70 -125 -395q-37 -94 -88 -207l-57 6l16 696q56 39 120 39z" />
    <glyph glyph-name="Identity.254" unicode="&#x203b;" 
d="M1024 348q62 0 108 -45t46 -108t-45 -109t-109 -45q-64 0 -109 45q-45 44 -45 108t45 109q46 45 109 45zM1454 778q0 62 45 108t109 46t108 -45q45 -45 45 -109t-45 -108q-45 -45 -108 -45t-109 45q-45 45 -45 108zM594 778q0 -63 -45 -108t-109 -45t-108 45
q-45 45 -45 108q0 62 45 108t108 46t109 -45q45 -46 45 -109zM348 1513l676 -675l676 675l59 -59l-676 -676l676 -676l-59 -59l-676 676l-678 -678l-59 59l678 678l-676 676zM1024 1208q-63 0 -109 45q-45 45 -45 109t45 108q45 46 109 46t108 -46q46 -46 46 -108
q0 -63 -45 -109q-46 -45 -109 -45z" />
    <glyph glyph-name="Identity.255" unicode="&#x2103;" 
d="M1532 -37q-303 0 -493 207q-189 207 -189 599t192 598q193 206 502 206q193 0 346 -98l-2 -369h-112l-86 377q-51 16 -117 16q-195 1 -311 -193t-117 -539q0 -345 118 -537t306 -191q70 0 131 24l94 371h113l4 -360q-168 -111 -379 -111zM429 1573q122 0 212 -85t90 -220
t-89 -220t-212 -85t-212 84t-89 220t89 221t211 85zM430 1040q92 0 152 62t59 166q0 104 -59 166q-60 62 -152 61q-92 0 -152 -61q-60 -62 -60 -166t60 -166t152 -62z" />
    <glyph glyph-name="Identity.256" unicode="&#x212b;" 
d="M887 1454q-166 70 -166 258q0 100 83 176q84 76 198 76t196 -75t82 -191q0 -80 -41 -144t-109 -94l488 -1372l192 -14v-74h-714v74l209 16l-131 393h-525l-123 -387l203 -22v-74h-496v74l195 20zM825 1698q0 -74 47 -127t127 -53t129 54q50 54 50 128t-48 126t-127 52
q-80 0 -129 -53t-49 -127zM678 569h467l-240 715z" />
    <glyph glyph-name="Identity.257" unicode="&#x2190;" 
d="M1966 827v-98h-1663q213 -162 377 -381l-76 -61q-207 283 -534 491q328 209 534 492l76 -62q-158 -215 -377 -381h1663z" />
    <glyph glyph-name="Identity.258" unicode="&#x2191;" 
d="M1073 -164h-98v1663q-166 -219 -381 -377l-62 76q283 207 492 535q209 -328 492 -535l-62 -76q-219 164 -381 377v-1663z" />
    <glyph glyph-name="Identity.259" unicode="&#x2192;" 
d="M82 729v98h1663q-219 166 -377 381l76 62q207 -283 534 -492q-328 -209 -534 -491l-76 61q164 219 377 381h-1663z" />
    <glyph glyph-name="Identity.260" unicode="&#x2193;" 
d="M975 1720h98v-1663q162 213 381 377l62 -76q-283 -207 -492 -534q-209 328 -492 534l62 76q215 -158 381 -377v1663z" />
    <glyph glyph-name="Identity.261" unicode="&#x21d2;" 
d="M82 426v98h1495q143 141 264 230q-121 86 -264 229h-1495v98h1401q-125 137 -213 273l80 55q117 -178 298 -360t359 -295q-178 -113 -359 -295t-298 -361l-80 56q96 143 213 272h-1401z" />
    <glyph glyph-name="Identity.262" unicode="&#x21d4;" 
d="M471 524h1106q147 147 262 230q-115 82 -262 229h-1106q-147 -147 -262 -229q115 -83 262 -230zM1350 1409q117 -178 298 -360t359 -295q-178 -113 -359 -295t-298 -361l-80 56q96 143 213 272h-918q117 -129 213 -272l-80 -56q-117 178 -298 360t-359 296
q178 113 359 295t298 360l80 -55q-96 -143 -213 -273h918q-117 129 -213 273z" />
    <glyph glyph-name="Identity.263" unicode="&#x2200;" 
d="M1376 868h-702l348 -686h4zM1802 1489l-776 -1514h-4l-776 1514l90 45l287 -567h802l289 567z" />
    <glyph glyph-name="Identity.264" unicode="&#x2202;" 
d="M1081 1509q223 0 365 -163q141 -164 141 -506q0 -414 -183 -644t-493 -231q-211 0 -329 123q-118 122 -119 354q0 232 163 371t394 139q156 0 256 -94v33q0 289 -64 407t-208 119q-146 0 -304 -139l-38 45q137 186 419 186zM926 39q129 0 231 191t117 552q-72 63 -172 64
q-146 0 -252 -137t-107 -371q-1 -145 47 -222t136 -77z" />
    <glyph glyph-name="Identity.265" unicode="&#x2203;" 
d="M1618 1460v-1413h-1208v98h1110v570h-1110v98h1110v549h-1110v98h1208z" />
    <glyph glyph-name="Identity.266" unicode="&#x2207;" 
d="M1692 1536v-74l-557 -1466h-207l-578 1466v74h1342zM709 1440l442 -1176l436 1176h-878z" />
    <glyph glyph-name="Identity.267" unicode="&#x2208;" 
d="M1772 1399v-99h-742q-301 0 -469 -136t-184 -361h1395v-98h-1395q16 -225 184 -361t469 -137h742v-98h-742q-366 0 -560 181t-194 464t194 464t560 181h742z" />
    <glyph glyph-name="Identity.268" unicode="&#x220b;" 
d="M1018 1300h-742v99h742q366 0 560 -181t194 -464t-194 -464t-560 -181h-742v98h742q301 0 469 136t184 362h-1395v98h1395q-16 225 -184 361t-469 136z" />
    <glyph glyph-name="Identity.269" unicode="&#x221a;" 
d="M408 692v125h409l264 -856l406 1854h153l-501 -2061h-129l-310 938h-292z" />
    <glyph glyph-name="Identity.270" unicode="&#x221d;" 
d="M156 754q0 -138 100 -236t246 -98t267 79q122 79 241 253v4q-119 174 -240 253t-267 79q-147 0 -247 -98q-100 -97 -100 -236zM1636 420q174 0 275 129l78 -62q-139 -164 -353 -163q-328 0 -563 350h-2q-119 -172 -256 -261t-318 -89t-310 126q-128 126 -128 304t129 304
q130 126 310 126t317 -89t256 -261h2q236 350 563 350q213 0 353 -164l-78 -62q-100 129 -275 129q-284 1 -503 -331v-4q219 -332 503 -332z" />
    <glyph glyph-name="Identity.271" unicode="&#x221e;" 
d="M1567 424q139 0 232 95t93 235t-93 234q-93 95 -232 95q-269 1 -480 -327v-4q211 -328 480 -328zM156 754q0 -138 93 -234t232 -96q269 0 480 328v4q-211 328 -480 327q-139 0 -232 -95t-93 -234zM481 326q-178 0 -300 124t-122 304t122 304t300 124q317 0 541 -348h4
q223 348 541 348q178 0 300 -124t122 -304t-122 -304t-300 -124q-318 0 -541 348h-4q-223 -348 -541 -348z" />
    <glyph glyph-name="Identity.272" unicode="&#x2220;" 
d="M420 143h1423v-96h-1661v4l1422 1424l71 -72l-1255 -1253v-7z" />
    <glyph glyph-name="Identity.273" unicode="&#x2225;" 
d="M1561 1518l88 -45l-805 -1604l-86 45zM1206 1690l88 -45l-805 -1604l-86 45z" />
    <glyph glyph-name="Identity.274" unicode="&#x2227;" 
d="M1026 1325h-4l-686 -1350l-90 45l776 1514h4l776 -1514l-88 -45z" />
    <glyph glyph-name="Identity.275" unicode="&#x2228;" 
d="M336 1534l686 -1350h4l688 1350l88 -45l-776 -1514h-4l-776 1514z" />
    <glyph glyph-name="Identity.276" unicode="&#x2229;" 
d="M379 772q0 366 181 560t464 194t464 -194t181 -560v-741h-98v741q0 317 -150 486q-149 169 -397 169t-398 -169t-149 -486v-741h-98v741z" />
    <glyph glyph-name="Identity.277" unicode="&#x222a;" 
d="M1024 31q-283 -1 -464 193t-181 560v742h98v-742q0 -317 150 -486q149 -169 397 -169t398 169t149 486v742h98v-742q0 -367 -181 -560t-464 -193z" />
    <glyph glyph-name="Identity.278" unicode="&#x222b;" 
d="M1024 150q0 113 -56 333t-65 260q-86 362 -86 527q0 240 119 375t289 139q74 0 134 -30t77 -77q-4 -129 -121 -129q-68 0 -141 68l-60 57q-90 -88 -90 -274q0 -89 26 -199t54 -223q127 -495 127 -702t-119 -353t-289 -147q-76 1 -136 29t-77 77q4 129 121 129
q67 1 141 -67l64 -62q88 88 88 269z" />
    <glyph glyph-name="Identity.279" unicode="&#x222c;" 
d="M1139 1270q0 240 118 375q119 135 289 139q74 0 134 -30t77 -77q-4 -129 -121 -129q-68 0 -141 68l-59 57q-90 -88 -90 -274q0 -114 103 -516q103 -401 103 -608t-118 -354q-119 -146 -289 -146q-76 1 -136 29t-77 77q4 129 121 129q67 1 141 -67l63 -62q88 88 89 269
q0 106 -56 330q-56 223 -65 263q-86 362 -86 527zM907 291q0 -223 -119 -369t-288 -147q-76 1 -136 29t-77 77q4 129 121 129q68 0 141 -67l63 -62q88 88 88 269q0 110 -55 332q-55 221 -65 261q-86 362 -86 527q0 240 118 375q119 135 289 139q74 0 134 -30t77 -77
q-4 -129 -121 -129q-67 0 -141 68l-59 57q-90 -88 -91 -274q0 -110 54 -323q54 -212 65 -253q88 -377 88 -532z" />
    <glyph glyph-name="Identity.280" unicode="&#x2234;" 
d="M1532 113q-66 0 -110 44q-44 43 -44 109t44 110t110 44t110 -44t44 -110t-44 -110t-110 -43zM516 113q-66 0 -110 44q-44 43 -44 109t44 110t110 44t110 -44t44 -110t-44 -110t-110 -43zM1024 1067q-66 0 -110 44t-44 110q0 65 44 109t110 44t110 -44t44 -110t-44 -109
q-44 -44 -110 -44z" />
    <glyph glyph-name="Identity.281" unicode="&#x2235;" 
d="M1378 1241q0 66 44 110t110 44t110 -44t44 -110q0 -65 -44 -109t-110 -44t-110 43q-44 44 -44 110zM362 1241q0 66 44 110t110 44t110 -44t44 -110q0 -65 -44 -109t-110 -44t-110 43q-44 44 -44 110zM870 287q0 65 44 109t110 44t110 -44t44 -110t-44 -109
q-44 -44 -110 -44t-110 44t-44 110z" />
    <glyph glyph-name="Identity.282" unicode="&#x223d;" 
d="M1564 1083q-144 1 -258 -73t-238 -280t-264 -304q-140 -100 -320 -100t-303 126q-122 126 -122 304t122 302t300 124q217 0 379 -156l-67 -72q-135 129 -312 129q-139 0 -232 -95t-93 -234q0 -138 93 -234t236 -96t255 74t229 258q137 227 277 326q140 100 320 100
t302 -126q121 -126 121 -304t-121 -302t-299 -124q-217 0 -379 155l67 72q135 -129 312 -129q139 0 231 95t92 235t-92 234q-92 95 -236 95z" />
    <glyph glyph-name="Identity.283" unicode="&#x2252;" 
d="M1382 47q-63 0 -108 44t-45 110q0 65 45 109t108 44q62 0 108 -44t46 -110t-46 -109q-46 -44 -108 -44zM1741 606v-98h-1434v98h1434zM1741 999v-98h-1434v98h1434zM666 1153q-63 0 -109 44q-45 44 -45 110q0 65 45 109t109 44t108 -44q45 -44 45 -110t-45 -109
q-45 -44 -108 -44z" />
    <glyph glyph-name="Identity.284" unicode="&#x2260;" 
d="M1741 492h-768l-144 -388l-92 31l131 357h-561v98h596l119 328h-715v98h750l143 391l92 -33l-131 -358h580v-98h-615l-118 -328h733v-98z" />
    <glyph glyph-name="Identity.285" unicode="&#x2261;" 
d="M1741 461v-99h-1434v99h1434zM1741 803v-98h-1434v98h1434zM1741 1145v-98h-1434v98h1434z" />
    <glyph glyph-name="Identity.286" unicode="&#x2266;" 
d="M246 27h1556v-99h-1556v99zM246 305h1556v-98h-1556v98zM1765 465l-1534 622v5l1534 622l37 -90l-1319 -532v-5l1319 -532z" />
    <glyph glyph-name="Identity.287" unicode="&#x2267;" 
d="M246 -72v99h1556v-99h-1556zM246 207v98h1556v-98h-1556zM1817 1092v-5l-1534 -622l-37 90l1319 532v5l-1319 532l37 90z" />
    <glyph glyph-name="Identity.288" unicode="&#x226a;" 
d="M866 752l994 -697l-56 -80l-1104 777v4l1106 776l58 -80l-998 -696v-4zM340 752l993 -697l-55 -80l-1104 777v4l1106 776l57 -80l-997 -696v-4z" />
    <glyph glyph-name="Identity.289" unicode="&#x226b;" 
d="M233 -25l-55 80l993 697v4l-997 696l57 80l1106 -776v-4zM760 -25l-55 80l993 697v4l-998 696l58 80l1106 -776v-4z" />
    <glyph glyph-name="Identity.290" unicode="&#x2282;" 
d="M276 754q0 283 194 464t560 181h742v-99h-742q-317 0 -486 -150t-169 -396q0 -248 169 -398t486 -149h742v-98h-742q-366 0 -560 181t-194 464z" />
    <glyph glyph-name="Identity.291" unicode="&#x2283;" 
d="M1018 1399q366 0 560 -181t194 -464t-194 -464t-560 -181h-742v98h742q317 -1 486 149t169 398t-169 398t-486 148h-742v99h742z" />
    <glyph glyph-name="Identity.292" unicode="&#x2286;" 
d="M1772 27h-1475v98h1475v-98zM1772 1481v-99h-852q-264 0 -404 -130t-141 -336q0 -206 140 -334q140 -129 405 -129h852v-99h-852q-305 0 -475 160q-169 160 -169 404t169 404t475 159h852z" />
    <glyph glyph-name="Identity.293" unicode="&#x2287;" 
d="M1751 125v-98h-1475v98h1475zM1128 1382h-852v99h852q304 0 474 -160q170 -159 170 -403t-169 -404t-475 -160h-852v99h852q264 0 405 129q140 129 140 335q-1 205 -141 335t-404 130z" />
    <glyph glyph-name="Identity.294" unicode="&#x22a5;" 
d="M1843 47h-1638v94h770v1317h98v-1317h770v-94z" />
    <glyph glyph-name="Identity.295" unicode="&#x2312;" 
d="M1024 1595q-504 0 -973 -231l-24 37q207 164 463 254t534 90q276 0 534 -90t463 -254l-24 -37q-469 231 -973 231z" />
    <glyph glyph-name="Identity.296" unicode="&#x2500;" 
d="M0 737v82h2048v-82h-2048z" />
    <glyph glyph-name="Identity.297" unicode="&#x2501;" 
d="M0 655v246h2048v-246h-2048z" />
    <glyph glyph-name="Identity.298" unicode="&#x2502;" 
d="M983 -246v2048h82v-2048h-82z" />
    <glyph glyph-name="Identity.299" unicode="&#x2503;" 
d="M901 -246v2048h246v-2048h-246z" />
    <glyph glyph-name="Identity.300" unicode="&#x250c;" 
d="M2048 737h-983v-983h-82v1065h1065v-82z" />
    <glyph glyph-name="Identity.301" unicode="&#x250f;" 
d="M2048 655h-901v-901h-246v1147h1147v-246z" />
    <glyph glyph-name="Identity.302" unicode="&#x2510;" 
d="M1065 -246h-82v983h-983v82h1065v-1065z" />
    <glyph glyph-name="Identity.303" unicode="&#x2513;" 
d="M1147 -246h-246v901h-901v246h1147v-1147z" />
    <glyph glyph-name="Identity.304" unicode="&#x2514;" 
d="M2048 737h-1065v1065h82v-983h983v-82z" />
    <glyph glyph-name="Identity.305" unicode="&#x2517;" 
d="M901 655v1147h246v-901h901v-246h-1147z" />
    <glyph glyph-name="Identity.306" unicode="&#x2518;" 
d="M1065 737h-1065v82h983v983h82v-1065z" />
    <glyph glyph-name="Identity.307" unicode="&#x251b;" 
d="M0 655v246h901v901h246v-1147h-1147z" />
    <glyph glyph-name="Identity.308" unicode="&#x251c;" 
d="M2048 737h-983v-983h-82v2048h82v-983h983v-82z" />
    <glyph glyph-name="Identity.309" unicode="&#x251d;" 
d="M2048 655h-983v-901h-82v2048h82v-901h983v-246z" />
    <glyph glyph-name="Identity.310" unicode="&#x2520;" 
d="M2048 737h-901v-983h-246v2048h246v-983h901v-82z" />
    <glyph glyph-name="Identity.311" unicode="&#x2523;" 
d="M2048 655h-901v-901h-246v2048h246v-901h901v-246z" />
    <glyph glyph-name="Identity.312" unicode="&#x2524;" 
d="M1065 -246h-82v983h-983v82h983v983h82v-2048z" />
    <glyph glyph-name="Identity.313" unicode="&#x2525;" 
d="M1065 -246h-82v901h-983v246h983v901h82v-2048z" />
    <glyph glyph-name="Identity.314" unicode="&#x2528;" 
d="M1147 -246h-246v983h-901v82h901v983h246v-2048z" />
    <glyph glyph-name="Identity.315" unicode="&#x252b;" 
d="M1147 -246h-246v901h-901v246h901v901h246v-2048z" />
    <glyph glyph-name="Identity.316" unicode="&#x252c;" 
d="M2048 737h-983v-983h-82v983h-983v82h2048v-82z" />
    <glyph glyph-name="Identity.317" unicode="&#x252f;" 
d="M2048 655h-983v-901h-82v901h-983v246h2048v-246z" />
    <glyph glyph-name="Identity.318" unicode="&#x2530;" 
d="M2048 737h-901v-983h-246v983h-901v82h2048v-82z" />
    <glyph glyph-name="Identity.319" unicode="&#x2533;" 
d="M2048 655h-901v-901h-246v901h-901v246h2048v-246z" />
    <glyph glyph-name="Identity.320" unicode="&#x2534;" 
d="M2048 737h-2048v82h983v983h82v-983h983v-82z" />
    <glyph glyph-name="Identity.321" unicode="&#x2537;" 
d="M2048 655h-2048v246h983v901h82v-901h983v-246z" />
    <glyph glyph-name="Identity.322" unicode="&#x2538;" 
d="M2048 737h-2048v82h901v983h246v-983h901v-82z" />
    <glyph glyph-name="Identity.323" unicode="&#x253b;" 
d="M2048 655h-2048v246h901v901h246v-901h901v-246z" />
    <glyph glyph-name="Identity.324" unicode="&#x253c;" 
d="M2048 737h-983v-983h-82v983h-983v82h983v983h82v-983h983v-82z" />
    <glyph glyph-name="Identity.325" unicode="&#x253f;" 
d="M2048 655h-983v-901h-82v901h-983v246h983v901h82v-901h983v-246z" />
    <glyph glyph-name="Identity.326" unicode="&#x2542;" 
d="M2048 737h-901v-983h-246v983h-901v82h901v983h246v-983h901v-82z" />
    <glyph glyph-name="Identity.327" unicode="&#x254b;" 
d="M2048 655h-901v-901h-246v901h-901v246h901v901h246v-901h901v-246z" />
    <glyph glyph-name="Identity.328" unicode="&#x25a0;" 
d="M1843 -41h-1638v1638h1638v-1638z" />
    <glyph glyph-name="Identity.329" unicode="&#x25a1;" 
d="M1761 41v1475h-1474v-1475h1474zM1843 -41h-1638v1638h1638v-1638z" />
    <glyph glyph-name="Identity.330" unicode="&#x25b2;" 
d="M61 25l963 1667l963 -1667h-1926z" />
    <glyph glyph-name="Identity.331" unicode="&#x25b3;" 
d="M1024 1528l-821 -1422h1642zM61 25l963 1667l963 -1667h-1926z" />
    <glyph glyph-name="Identity.332" unicode="&#x25bc;" 
d="M1987 1532l-963 -1667l-963 1667h1926z" />
    <glyph glyph-name="Identity.333" unicode="&#x25bd;" 
d="M1845 1450h-1642l821 -1421zM1987 1532l-963 -1667l-963 1667h1926z" />
    <glyph glyph-name="Identity.334" unicode="&#x25c6;" 
d="M1024 1778l999 -1000l-999 -999l-999 999z" />
    <glyph glyph-name="Identity.335" unicode="&#x25c7;" 
d="M1024 1778l999 -1000l-999 -999l-999 999zM1024 1663l-885 -885l885 -884l885 884z" />
    <glyph glyph-name="Identity.336" unicode="&#x25cb;" 
d="M205 778q-1 -340 239 -580t580 -239q340 0 580 240q240 239 240 579t-240 580t-580 240t-580 -240q-239 -240 -239 -580zM1024 -123q-373 0 -637 264t-264 637t264 637t637 264t637 -264t264 -637t-264 -637t-637 -264z" />
    <glyph glyph-name="Identity.337" unicode="&#x25ce;" 
d="M496 778q0 -216 156 -372t372 -156q217 0 373 156q155 156 155 372t-155 373q-156 156 -373 156q-216 0 -372 -156t-156 -373zM205 778q-1 -340 239 -580t580 -239q340 0 580 240q240 239 240 579t-240 580t-580 240t-580 -240q-239 -240 -239 -580zM1024 -123
q-373 0 -637 264t-264 637t264 637t637 264t637 -264t264 -637t-264 -637t-637 -264zM1024 168q-254 0 -432 178t-178 432t178 432t432 178t432 -178t178 -432t-178 -432t-432 -178z" />
    <glyph glyph-name="Identity.338" unicode="&#x25cf;" 
d="M1024 -123q-373 0 -637 264t-264 637t264 637t637 264t637 -264t264 -637t-264 -637t-637 -264z" />
    <glyph glyph-name="Identity.339" unicode="&#x25ef;" 
d="M123 778q0 -373 264 -637t637 -264t637 264t264 637t-264 637t-637 264t-637 -264t-264 -637zM2007 778q0 -266 -132 -492t-358 -358q-227 -132 -493 -133q-266 0 -493 132q-226 133 -358 359t-132 492t132 492t358 359q227 132 493 132t492 -132q226 -133 359 -359
q132 -226 132 -492z" />
    <glyph glyph-name="Identity.340" unicode="&#x2605;" 
d="M1970 991v-4l-581 -422l227 -692h-4l-588 426l-588 -426h-4l227 692l-581 422v4h719l225 690h4l225 -690h719z" />
    <glyph glyph-name="Identity.341" unicode="&#x2606;" 
d="M311 915v-4l441 -315l-177 -526h5l444 325l446 -325h3l-177 526l441 315v4h-543l-168 519h-4l-168 -519h-543zM1970 991v-4l-581 -422l227 -692h-4l-588 426l-588 -426h-4l227 692l-581 422v4h719l225 690h4l225 -690h719z" />
    <glyph glyph-name="Identity.342" unicode="&#x2640;" 
d="M713 1270q0 -129 91 -220q91 -92 220 -92t220 92t91 220q0 129 -91 220t-220 91t-220 -91t-91 -220zM1024 1679q170 1 290 -119t120 -284t-104 -281t-257 -133v-262h598v-98h-598v-625h-98v625h-598v98h598v262q-152 16 -256 133q-105 117 -105 281t120 284t290 119z" />
    <glyph glyph-name="Identity.343" unicode="&#x2642;" 
d="M344 410q0 -128 91 -220t220 -92t221 91q91 91 91 221t-91 220q-90 91 -220 91t-221 -91t-91 -220zM997 1489h738v-737h-93v575l-661 -661q86 -112 86 -268t-120 -276t-290 -120q-169 0 -289 120t-120 290t120 290t275 119q155 0 268 -88l664 664h-578v92z" />
    <glyph glyph-name="Identity.344" unicode="&#x266a;" 
d="M995 1720h52q0 -244 237 -450q264 -228 264 -456t-172 -505h-53q129 270 129 438q0 169 -106 299t-269 166v-1028q1 -154 -111 -251t-264 -97q-76 0 -133 40t-57 112q0 106 113 194t241 88q80 0 129 -26v1476z" />
    <glyph glyph-name="Identity.345" unicode="&#x266d;" 
d="M1253 649q0 172 -147 172q-76 1 -161 -65t-159 -191v-557q54 60 152 152t158 150q59 58 108 150t49 189zM1528 687q0 -223 -204 -377q-94 -71 -194 -132q-289 -175 -407 -315h-16v1831h79v-1022q76 129 192 207q116 77 249 77t217 -76t84 -193z" />
    <glyph glyph-name="Identity.346" unicode="&#x266f;" 
d="M1182 602v416l-328 -49v-414zM1262 -80h-80v457l-328 -47v-471h-80v458l-278 -41v224l278 43v413l-278 -41v224l278 43v450h80v-438l328 47v453h80v-441l278 41v-223l-278 -41v-416l278 41v-223l-278 -43v-469z" />
    <glyph glyph-name="Identity.347" unicode="&#x3001;" 
d="M629 -21q0 -69 -36 -106t-95 -37q-90 0 -133 92q-2 4 -24 49t-29 59q-98 188 -244 304l18 27q373 -68 500 -258q43 -61 43 -130z" />
    <glyph glyph-name="Identity.348" unicode="&#x3002;" 
d="M374 336q-88 0 -152 -62t-64 -153q0 -89 63 -153t153 -64t152 63q64 63 64 153t-64 152q-64 64 -152 64zM374 -170q-120 0 -205 85t-85 205t85 205t206 85t205 -84t84 -205t-85 -206t-205 -85z" />
    <glyph glyph-name="Identity.349" unicode="&#x3003;" 
d="M1094 317l276 914q29 70 133 24q109 -45 78 -112q-20 -53 -442 -844zM469 317l276 914q31 67 137 23t74 -111q-20 -53 -442 -844z" />
    <glyph glyph-name="Identity.350" unicode="&#x3005;" 
d="M1192 1284q0 -33 -42 -70t-50 -49q-55 -80 -131 -184q207 6 358 35q31 6 72 38t61 31q62 0 164 -98t102 -153q0 -27 -26 -48q-27 -20 -67 -40q-41 -20 -67 -44t-127 -121t-249 -229q84 -57 164 -143q80 -85 80 -155t-32 -111t-92 -41t-90 28t-90 138q-60 108 -159 216
q-100 108 -269 240l25 33q197 -49 363 -141q172 217 282 428q18 39 -24 39q-202 -10 -337 -48q-33 -9 -53 -9t-71 51q-61 -78 -131 -156q-297 -324 -529 -459l-32 35q233 250 411 509t268 494q14 47 -18 80t-125 80l12 35q182 10 256 -28q73 -38 133 -94t60 -89z" />
    <glyph glyph-name="Identity.351" unicode="&#x3006;" 
d="M1395 1663l8 27q139 6 214 -33t124 -93t73 -106t11 -87q-12 -35 -91 -65t-155 -89q-137 -109 -356 -322q225 -156 327 -299q102 -135 95 -240q-6 -63 -42 -94q-36 -32 -86 -18t-94 71q-168 229 -362 414q-364 -403 -556 -700q-62 -96 -108 -146q-33 -43 -85 -41t-79 64
q-59 123 3 210q62 86 77 170q16 84 47 340t48 351q37 236 329 164q168 -45 346 -152q349 375 393 435t46 86q2 24 -28 67t-99 86zM542 1049q-44 -14 -58 -99q-14 -86 -19 -272q-6 -186 -3 -250t15 -70q12 -8 46 26t184 198t235 256q-148 127 -252 176t-148 35z" />
    <glyph glyph-name="Identity.352" unicode="&#x3007;" 
d="M184 778q0 -348 246 -594t594 -246t594 246t246 594t-246 594t-594 246t-594 -246t-246 -594zM1024 -160q-254 0 -470 126t-342 342t-126 470t126 470t342 342t470 126t470 -126t342 -342t126 -470t-126 -470t-342 -342t-470 -126z" />
    <glyph glyph-name="Identity.353" unicode="&#x3008;" 
d="M1989 1692l-795 -914l795 -913l-62 -53l-842 966l842 967z" />
    <glyph glyph-name="Identity.354" unicode="&#x3009;" 
d="M59 -135l795 913l-795 914l62 53l842 -967l-842 -966z" />
    <glyph glyph-name="Identity.355" unicode="&#x300a;" 
d="M1452 778l535 -934l-60 -37l-557 971l557 971l60 -37zM1161 778l535 -934l-60 -37l-557 971l557 971l60 -37z" />
    <glyph glyph-name="Identity.356" unicode="&#x300b;" 
d="M121 -193l-60 37l535 934l-535 934l60 37l557 -971zM412 -193l-60 37l535 934l-535 934l60 37l557 -971z" />
    <glyph glyph-name="Identity.357" unicode="&#x300c;" 
d="M1329 432v1311h660v-80h-576v-1231h-84z" />
    <glyph glyph-name="Identity.358" unicode="&#x300d;" 
d="M719 1124v-1310h-660v80h576v1230h84z" />
    <glyph glyph-name="Identity.359" unicode="&#x300e;" 
d="M1931 1686h-604v-1207h193v1022h411v185zM1989 1444h-412v-1022h-307v1321h719v-299z" />
    <glyph glyph-name="Identity.360" unicode="&#x300f;" 
d="M117 -129h604v1206h-193v-1022h-411v-184zM59 113h412v1022h307v-1321h-719v299z" />
    <glyph glyph-name="Identity.361" unicode="&#x3010;" 
d="M1989 -186h-703v1929h703v-35q-250 -115 -395 -354q-144 -240 -144 -576t144 -576t395 -354v-34z" />
    <glyph glyph-name="Identity.362" unicode="&#x3011;" 
d="M598 778q0 336 -144 576t-395 354v35h703v-1929h-703v34q250 115 395 355q144 239 144 575z" />
    <glyph glyph-name="Identity.363" unicode="&#x3012;" 
d="M338 868v179h1372v-179h-590v-848h-192v848h-590zM1710 1274h-1372v180h1372v-180z" />
    <glyph glyph-name="Identity.364" unicode="&#x3013;" 
d="M1843 573v-614h-1638v614h1638zM1843 1597v-614h-1638v614h1638z" />
    <glyph glyph-name="Identity.365" unicode="&#x3014;" 
d="M1952 -190l-475 223v1491l475 223l37 -72l-428 -200v-1393l428 -201z" />
    <glyph glyph-name="Identity.366" unicode="&#x3015;" 
d="M96 -190l-37 71l428 203v1389l-428 202l37 72l475 -223v-1491z" />
    <glyph glyph-name="Identity.367" unicode="&#x301c;" 
d="M641 1001q186 0 428 -137q266 -145 426 -145q236 0 420 186l33 -31q-215 -315 -541 -315q-186 0 -428 137q-266 145 -426 146q-238 0 -418 -183l-35 31q219 311 541 311z" />
    <glyph glyph-name="Identity.368" unicode="&#x3041;" 
d="M954 63q-53 0 -88 52q-174 -137 -334 -138q-61 0 -98 38t-37 110q0 145 112 281t286 223l24 184q-65 -8 -153 -8t-137 53q-48 53 -70 154l16 12q123 -76 230 -76q66 0 137 10q14 96 14 134t-30 49q-30 12 -89 24l-2 19q77 49 133 49t128 -32t71 -64q0 -25 -27 -63
t-32 -64l-4 -21q116 30 191 66t81 37q141 0 141 -80q0 -57 -65 -82q-139 -53 -385 -96q-4 -20 -27 -144q106 33 225 39q-4 47 -59 86l14 19q96 -16 140 -60q23 -25 18 -49q178 -25 286 -135t107 -258q0 -238 -202 -350t-558 -111l-6 29q293 61 432 191t140 292
q-1 104 -57 178t-156 98q-68 -193 -258 -407q31 -70 30 -111q0 -78 -82 -78zM586 154q86 0 223 94q-25 100 -25 182t2 102q-104 -72 -168 -170t-63 -172q0 -36 31 -36zM928 500q0 -54 24 -127q147 162 199 297q-100 -6 -219 -58q-4 -58 -4 -112z" />
    <glyph glyph-name="Identity.369" unicode="&#x3042;" 
d="M1638 545q0 143 -80 243q-81 100 -223 132q-96 -258 -354 -541q43 -98 43 -148q0 -90 -98 -90q-66 0 -111 78q-227 -186 -432 -186q-78 0 -124 48t-46 138q0 190 149 369q150 178 371 289q6 55 35 256q-98 -13 -205 -13t-170 62t-102 186l22 21q150 -98 297 -99
q94 0 185 13q18 137 18 174t-8 49q-16 25 -150 51l-2 29q98 51 146 51q88 0 176 -41t88 -82q0 -27 -32 -72t-40 -82l-10 -45q159 40 268 91t117 51q168 0 168 -93q0 -66 -80 -96q-203 -78 -516 -131q-20 -96 -37 -209q154 51 313 58q1 59 -81 114l16 25q127 -20 182 -78
q29 -31 25 -68q231 -31 370 -176q140 -145 140 -343t-128 -335t-344 -196t-515 -62l-9 39q387 72 578 237q190 165 190 382zM444 238q125 0 310 137q-33 137 -33 307q0 51 2 78q-147 -100 -237 -232t-91 -233q0 -57 49 -57zM885 709q0 -87 35 -187q205 219 276 408
q-147 -6 -305 -78q-6 -56 -6 -143z" />
    <glyph glyph-name="Identity.370" unicode="&#x3043;" 
d="M1694 428q0 -172 -123 -172q-70 0 -88 61q-8 27 -18 112q-32 341 -279 460l4 20q119 -2 202 -38t167 -109q135 -119 135 -334zM457 811q0 127 -119 225l6 19q100 4 167 -23t123 -88q56 -60 56 -102t-22 -90q-68 -142 -68 -291q0 -78 35 -133q35 -56 74 -72t63 14
q66 88 168 275l29 -13q-61 -238 -61 -305t12 -103t12 -58q0 -59 -55 -83t-149 14q-94 37 -176 147q-81 110 -97 274q-10 12 -4 199t6 194z" />
    <glyph glyph-name="Identity.371" unicode="&#x3044;" 
d="M1898 594q0 -199 -143 -199q-82 0 -104 78q-5 15 -23 143t-55 230q-86 248 -324 354l11 35q152 -8 256 -56q104 -47 197 -135t139 -206t46 -244zM291 1112q0 164 -158 291l10 22q117 3 197 -29t152 -108t71 -143q1 -37 -27 -103q-82 -197 -81 -368q0 -121 50 -205
t109 -111q51 -20 82 19q80 115 213 364l43 -18q-92 -305 -94 -391t13 -130t16 -67q0 -71 -65 -99t-160 11q-143 59 -252 208t-125 376q-10 39 -2 249t8 232z" />
    <glyph glyph-name="Identity.372" unicode="&#x3045;" 
d="M1135 1198q63 0 125 -40t63 -87q1 -61 -73 -61q-173 0 -404 -74l-84 -27l-12 21q174 111 194 125q-150 28 -206 95q-30 36 -50 89l12 8q98 -72 275 -71q53 0 102 11t58 11zM1120 825q152 0 240 -102t88 -279q0 -530 -780 -610l-11 31q580 166 580 604q0 260 -137 260
q-88 0 -256 -158q-18 -18 -57 -52t-83 -35q-44 -2 -94 52t-64 108t25 161l23 4q10 -33 38 -66t62 -33t185 58q152 57 241 57z" />
    <glyph glyph-name="Identity.373" unicode="&#x3046;" 
d="M1411 1460q0 -69 -124 -69q-71 1 -167 -17t-411 -123l-17 31q195 117 252 156l-64 12q-129 24 -218 122q-37 40 -62 93l18 18q139 -100 367 -100q61 0 125 13t74 14q78 0 152 -46t75 -104zM594 975q41 0 243 77t322 76q190 0 302 -130t112 -353q0 -692 -998 -801l-12 41
q766 213 766 789q0 158 -50 250t-142 92q-127 0 -357 -201q-6 -4 -35 -32q-75 -72 -132 -72q-58 0 -120 63t-82 128t23 194l33 6q16 -49 51 -88t76 -39z" />
    <glyph glyph-name="Identity.374" unicode="&#x3047;" 
d="M1001 1180q43 0 87 11t53 11q63 0 115 -47t53 -111q-1 -27 -21 -45t-57 -18l-150 10q-37 0 -266 -51l-8 25q84 41 164 90q-3 2 -21 7q-91 26 -147 78t-84 105l18 17q127 -82 264 -82zM1389 721q-1 -19 -17 -33t-59 -34t-73 -40q-30 -18 -122 -88q-90 -70 -153 -135
q67 15 111 15t82 -32t45 -66t15 -68q8 -35 14 -60q5 -25 9 -35q20 -57 78 -57q82 0 145 18t105 18q43 0 89 -32q46 -33 46 -84q0 -113 -338 -112q-137 0 -201 39q-63 40 -75 131q-4 27 -11 89q-6 62 -10 93q-13 78 -75 78t-140 -88q-49 -51 -199 -248q-61 -86 -120 -86
q-39 0 -67 24t-28 65q0 70 35 108q16 17 143 130q337 298 474 453q28 31 16 46t-63 -1t-126 -64t-111 -79t-83 -31t-98 44t-69 94t1 130l21 6q55 -78 106 -77q115 0 416 90q14 4 39 21t41 18q51 1 129 -53t78 -107z" />
    <glyph glyph-name="Identity.375" unicode="&#x3048;" 
d="M1386 1423q0 -33 -24 -55t-64 -20q-41 0 -99 5t-85 3q-74 -2 -350 -74l-14 35q139 66 225 117q-139 43 -212 99t-126 140l27 25q174 -115 356 -119q49 0 102 13t66 14q74 0 136 -56t62 -127zM1483 1006q1 -40 -105 -94q-36 -18 -80 -44q-42 -26 -164 -126t-208 -183
q66 16 134 16q68 -1 114 -37q47 -36 60 -86q12 -50 30 -122t24 -92q29 -94 117 -95q113 0 201 24t112 23q78 0 131 -36t54 -97q0 -137 -439 -137q-176 0 -255 52t-97 171q-23 188 -33 236q-14 102 -99 102t-187 -106q-72 -70 -279 -342q-74 -96 -141 -96q-45 -1 -77 27
t-32 76t16 83q15 35 30 51t204 187q430 389 619 602q31 37 17 53t-58 2q-121 -33 -297 -135q-25 -14 -70 -50t-82 -36q-75 0 -139 54q-64 55 -86 117t2 156l29 9q66 -105 131 -105t249 41t301 76q20 6 52 29t51 22q61 0 156 -64q94 -65 94 -126z" />
    <glyph glyph-name="Identity.376" unicode="&#x3049;" 
d="M1249 954l-2 25q117 43 229 29t192 -86t79 -162q2 -45 -23 -76t-71 -29q-17 0 -59 29t-54 28t-149 -32l-11 16q98 72 122 96t-1 67q-25 41 -101 69t-151 26zM889 528v-41q205 88 376 88t271 -86t100 -229t-98 -237t-256 -95q-201 0 -301 236l18 16q94 -94 234 -94
q94 0 155 59q60 59 60 151t-53 149q-53 59 -178 59t-326 -127q4 -135 14 -231t10 -111q0 -63 -42 -127t-93 -64q-27 0 -42 18t-31 49q-16 33 -48 65t-114 98q-12 -12 -38 -48q-27 -36 -57 -36t-74 44t-44 103t13 75t55 15q42 -3 76 15t127 82t153 98v235q-98 -23 -171 -23
q-162 1 -214 222l20 12q51 -49 90 -65q87 -36 275 20v201q-2 37 -8 49q-15 30 -144 45l-4 19q134 117 297 32q68 -35 68 -71q-1 -23 -21 -60q-20 -36 -25 -62t-14 -102q39 16 81 41t52 28t56 -6q84 -17 90 -77q2 -49 -65 -84t-226 -82q-4 -119 -4 -166zM578 111
q145 -54 162 -37q9 8 12 28q4 111 4 181q-100 -88 -178 -172z" />
    <glyph glyph-name="Identity.377" unicode="&#x304a;" 
d="M1325 1296l-6 39q159 55 301 35t240 -114t100 -207q0 -51 -27 -86q-56 -72 -153 -7q-49 33 -80 31t-176 -47l-17 27q129 89 160 121t6 75q-45 71 -145 105t-203 28zM836 739v-63q274 127 500 127t352 -111q127 -111 127 -293t-124 -303t-329 -121q-252 0 -393 285l26 23
q135 -123 312 -123q131 0 211 80t80 200t-73 197q-73 76 -241 76t-446 -168q6 -174 22 -299t17 -148q1 -80 -51 -156t-111 -77q-31 -1 -50 21t-40 62q-20 40 -64 84t-168 134q-73 -83 -89 -94q-16 -10 -30 -11q-43 0 -92 45q-55 57 -55 127q0 71 15 89t63 18q61 -6 123 29
q28 12 152 99t204 132v332q-127 -33 -223 -33t-168 58t-115 210l29 21q72 -68 120 -90q49 -22 125 -21q76 2 234 45q0 240 -1 287t-11 61t-42 28t-143 26l-6 28q87 70 179 70t182 -45t90 -88q0 -31 -27 -103t-41 -200q45 20 107 57t76 37q168 0 172 -94q2 -59 -80 -103
q-96 -49 -295 -110q-10 -134 -10 -234zM684 184v256q-109 -88 -246 -229q122 -51 184 -67t62 40z" />
    <glyph glyph-name="Identity.378" unicode="&#x304b;" 
d="M1948 616q0 -96 -35 -153t-101 -57q-40 -2 -78 38t-65 52q-72 27 -223 30l-6 37q168 45 202 59t50 35q14 20 12 62q0 129 -78 254t-231 164l12 37q231 -10 375 -148q166 -154 166 -410zM1122 874q0 166 -122 166q-62 0 -156 -26q-92 -223 -230 -522q-226 -491 -297 -543
q-29 -21 -69 -21t-72 36q-31 36 -31 87t10 77q9 26 38 60q234 291 417 744q-82 -33 -168 -72t-131 -39q-45 -1 -102 63t-67 124t22 145l29 6q25 -43 35 -60t33 -33t53 -17q30 0 366 65q86 238 86 295t-33 74q-35 25 -151 49v31q98 51 181 51t186 -51t104 -103q0 -32 -38 -80
t-50 -75l-64 -154q98 12 139 12q270 0 271 -370q1 -213 -53 -410t-162 -315t-265 -117q-59 -1 -88 27t-42 82t-33 82t-95 108l19 26q170 -88 227 -88t87 16t61 56q70 84 112 266q43 182 43 348z" />
    <glyph glyph-name="Identity.379" unicode="&#x304c;" 
d="M1999 1403q0 -72 -68 -72q-35 0 -82 58l-20 26q-89 113 -187 189l19 26q338 -66 338 -227zM1923 598q0 -96 -35 -154t-100 -57q-39 -2 -78 39t-65 51q-72 27 -224 31l-6 37q168 45 203 59t49 34t12 62q-1 129 -79 254t-230 164l12 37q231 -10 375 -147q166 -154 166 -410
zM1098 856q0 166 -123 166q-61 0 -156 -27q-91 -223 -229 -522q-225 -489 -297 -543q-29 -20 -70 -20t-71 36t-31 87q0 51 9 77t38 60q228 283 418 743q-82 -33 -168 -71t-131 -39q-45 0 -103 63q-57 64 -67 124t22 145l29 6q25 -43 36 -61t33 -33q23 -17 53 -17t365 66
q86 238 86 295t-32 73q-35 25 -152 49v31q98 51 181 51q82 0 186 -51t104 -102q0 -33 -38 -81t-50 -75l-63 -153q98 12 139 12q270 0 270 -371q0 -214 -53 -410t-161 -314t-265 -118q-59 0 -88 28t-42 82t-33 82t-95 107l18 27q169 -88 227 -88t88 16t60 56q70 84 113 266
t43 348zM1804 1251q0 -33 -20 -55t-58 -20q-38 0 -90 77q-84 125 -184 209l21 29q193 -53 272 -127q59 -51 59 -113z" />
    <glyph glyph-name="Identity.380" unicode="&#x304d;" 
d="M1739 1051q0 -53 -62 -95q-121 -74 -313 -131q63 -98 137 -177t108 -118t33 -73q0 -76 -36 -134t-88 -59q-29 0 -55 12q-25 12 -73 46t-100 64t-157 60q-103 30 -235 29q-132 0 -222 -58t-90 -157t122 -140q106 -36 226 -36t206 13t146 13t106 -26q46 -27 46 -80
q0 -135 -432 -135q-252 0 -415 92q-163 93 -163 247t145 254t410 101q176 0 371 -41q18 -6 21 -1t-6 21t-64 98q-55 81 -95 144q-270 -61 -518 -61q-139 0 -220 58q-82 59 -66 149t139 172l26 -21q-141 -180 123 -180q186 0 420 62q-57 117 -94 204q-403 -78 -552 17
q-81 51 -144 194l22 17q88 -57 150 -77q148 -49 452 19q-8 18 -30 79t-43 81t-66 31q-74 12 -135 18l-6 27q102 92 213 92q195 0 206 -100q20 -143 29 -183q114 39 182 80t76 41q172 0 172 -84q0 -49 -59 -88q-102 -68 -313 -127q33 -94 86 -196q191 64 273 113q26 15 32 16
q68 7 121 -13t53 -73z" />
    <glyph glyph-name="Identity.381" unicode="&#x304e;" 
d="M2003 1499q0 -72 -68 -72q-35 0 -82 58l-20 26q-88 113 -186 189l18 26q338 -66 338 -227zM1458 1583l19 29q193 -54 264 -120t67 -126q0 -33 -22 -53q-22 -19 -58 -19t-88 78q-84 125 -182 211zM848 473q-132 0 -222 -58t-89 -157q0 -99 114 -137q114 -39 234 -39
q119 0 205 13t146 13t106 -26q46 -27 47 -80q0 -135 -433 -135q-252 0 -414 92q-162 93 -163 247q0 154 145 254t410 101q176 0 371 -41q18 -6 22 1t-61 102q-66 96 -105 159q-270 -61 -518 -61q-139 0 -220 58q-81 59 -66 149t139 172l26 -21q-141 -180 123 -180
q186 0 420 62q-57 117 -94 204q-180 -35 -326 -35q-147 0 -227 52t-144 194l23 17q88 -57 150 -77q147 -49 452 19q-8 18 -30 79t-43 81t-66 31q-74 12 -135 18l-7 27q102 92 213 92q195 0 207 -100q20 -143 29 -183q114 39 182 80t76 41q172 0 172 -84q0 -49 -59 -88
q-102 -68 -314 -127q33 -94 86 -196q181 57 274 113q26 15 32 16q68 7 120 -13t54 -73q0 -53 -62 -95q-121 -74 -313 -131q63 -98 137 -177t108 -118t33 -73q0 -76 -37 -134q-56 -88 -142 -47q-26 12 -74 45t-100 64t-156 61t-236 29z" />
    <glyph glyph-name="Identity.382" unicode="&#x304f;" 
d="M1085 1495q0 57 -104 152l20 30q115 -10 187 -46q72 -35 135 -111t63 -124t-40 -79q-14 -10 -93 -59t-257 -190q-178 -142 -246 -211t-68 -103t74 -84q38 -29 146 -102q108 -72 163 -112t131 -107q221 -195 221 -355q0 -57 -34 -99q-33 -42 -107 -42t-121 73
q-72 131 -102 180q-109 174 -480 492q-138 110 -14 262q51 62 247 276t236 269q43 55 43 90z" />
    <glyph glyph-name="Identity.383" unicode="&#x3050;" 
d="M1038 1493q0 57 -104 152l20 30q114 -10 186 -46t136 -111q63 -76 63 -124t-41 -79q-14 -10 -96 -61t-256 -191q-174 -141 -242 -209t-69 -102q0 -34 74 -84q39 -29 147 -102q108 -72 162 -112q55 -40 131 -107q221 -195 221 -355q0 -58 -34 -100t-108 -42t-120 74
q-72 131 -102 180q-109 174 -480 492q-138 110 -14 262q51 62 247 276t236 269q43 55 43 90zM1777 1053q-30 0 -47 15q-17 16 -35 38t-20 26t-4 5q-104 131 -190 200l20 29q178 -43 271 -109q74 -55 73 -131q0 -33 -19 -53t-49 -20zM1572 872q-38 0 -95 82
q-111 154 -187 226l23 26q182 -51 276 -137q61 -59 61 -105t-20 -70q-20 -22 -58 -22z" />
    <glyph glyph-name="Identity.384" unicode="&#x3051;" 
d="M1577 1176l180 73q59 0 109 -30q49 -31 49 -86t-85 -97t-245 -78q16 -147 12 -358t-49 -324q-66 -180 -212 -277t-378 -155l-16 31q168 90 265 207t141 286t32 552q-115 -14 -192 -15q-266 0 -375 269l21 20q166 -102 311 -102q84 0 227 28q-12 180 -19 238t-47 82
q-40 22 -141 49l-4 31q111 74 192 74t168 -45q87 -44 87 -97q0 -14 -14 -57t-15 -81q-2 -38 -2 -138zM598 297q0 -47 17 -118t18 -109q0 -106 -109 -107q-86 0 -153 121q-113 193 -113 477q0 152 60 407q60 256 60 366t-108 231l19 24q91 -20 157 -63t124 -120
q58 -78 58 -142t-69 -193q-147 -260 -147 -465q0 -106 28 -160q27 -47 54 -4q57 84 184 387l43 -18q-78 -248 -109 -385q-14 -82 -14 -129z" />
    <glyph glyph-name="Identity.385" unicode="&#x3052;" 
d="M2019 1497q0 -29 -17 -48t-45 -19t-45 19q-18 19 -74 103t-136 154l20 25q297 -84 297 -234zM1888 1110q0 -55 -85 -96t-244 -78q16 -147 12 -358t-49 -324q-66 -180 -212 -278t-378 -154l-17 31q168 90 266 206q97 117 142 299q43 156 31 539q-115 -14 -193 -14
q-266 0 -375 268l21 20q166 -102 311 -102q84 0 228 29q-12 180 -20 238t-46 80q-39 22 -141 50l-4 31q111 74 191 74t168 -44q87 -44 87 -97q0 -14 -13 -58q-14 -44 -16 -81q-2 -38 -2 -138l181 74q59 0 108 -31t49 -86zM606 47q0 -106 -108 -106q-86 0 -154 120
q-113 193 -113 478q1 153 61 407t60 364t-108 232l18 25q170 -38 282 -184q58 -77 58 -141t-70 -193q-147 -260 -147 -465q0 -106 28 -156t54 -8q57 84 184 387l43 -19q-78 -248 -108 -385q-14 -82 -14 -129q0 -48 16 -118q18 -70 18 -109zM1548 1585l23 27
q172 -66 229 -136t55 -120q0 -29 -18 -47q-17 -19 -41 -19t-41 14t-79 114q-62 101 -128 167z" />
    <glyph glyph-name="Identity.386" unicode="&#x3053;" 
d="M1286 1434q82 0 169 -43t87 -99q0 -82 -106 -102q-172 -33 -219 -45q-166 -41 -488 -182l-18 30q109 82 243 193q23 20 -10 22q-125 4 -202 20q-76 16 -152 71q-76 56 -113 159l23 21q88 -59 164 -79t216 -20t259 27t147 27zM1509 281q68 0 135 -36q66 -36 66 -90
t-24 -80t-89 -50q-190 -66 -555 -66q-426 -1 -566 181t-50 499l41 2q8 -117 32 -194t78 -139q105 -120 372 -120t474 69q70 24 86 24z" />
    <glyph glyph-name="Identity.387" unicode="&#x3054;" 
d="M1448 1577q330 -94 332 -246q0 -33 -22 -53t-58 -20t-88 79q-95 135 -185 211zM1970 1481q0 -72 -65 -72q-31 -1 -55 23t-50 59q-88 112 -186 188l18 27q338 -65 338 -225zM843 1358q140 0 259 26t147 27q82 0 169 -43t87 -98q0 -82 -106 -103q-172 -33 -219 -45
q-166 -41 -488 -182l-18 31q109 82 244 192q23 20 -11 23q-125 4 -201 19t-153 71q-76 56 -113 160l23 20q88 -58 164 -78t216 -20zM910 166q266 0 476 70q70 23 87 22q69 0 135 -36t66 -90t-24 -80t-89 -50q-190 -66 -555 -65q-426 0 -567 181q-140 181 -50 498l41 2
q8 -118 32 -194t78 -138q104 -120 370 -120z" />
    <glyph glyph-name="Identity.388" unicode="&#x3055;" 
d="M863 1612q95 0 157 -25t72 -61q41 -154 86 -250q125 54 256 151q35 27 51 31q104 12 151 -37q23 -27 20 -65t-32 -64q-94 -90 -354 -192q77 -125 229 -281q35 -35 112 -107t78 -136t-30 -125t-79 -61t-84 21q-37 22 -89 62q-238 154 -487 154q-158 0 -257 -76
q-99 -77 -99 -185t109 -170q110 -62 316 -63q80 0 178 11q97 12 151 12t103 -29t49 -90q0 -137 -409 -137q-297 0 -481 108t-184 290q0 183 163 302q164 119 412 119q190 0 403 -49q18 -4 22 1q3 5 -12 19q-135 150 -274 352q-242 -74 -420 -75q-98 -2 -163 13t-113 56
t-77 90q-30 49 -69 138l29 22q98 -82 173 -110q183 -67 536 38q-113 195 -119 203q-44 66 -232 78l-8 31q121 86 216 86z" />
    <glyph glyph-name="Identity.389" unicode="&#x3056;" 
d="M1677 1731q340 -68 338 -226q0 -74 -67 -73q-27 0 -47 18t-82 98t-160 156zM1481 1577l20 29q190 -55 273 -129q61 -57 57 -117q-1 -33 -21 -53q-20 -19 -58 -19t-89 78q-84 125 -182 211zM808 1591q94 -1 156 -25t72 -61q41 -154 86 -250q141 61 256 152q35 27 52 31
q104 12 151 -37q23 -27 20 -65t-32 -64q-94 -90 -355 -193q47 -77 121 -161t109 -119t112 -107q78 -72 78 -136t-30 -126q-31 -61 -77 -61t-77 17q-32 17 -98 67q-238 154 -488 153q-158 0 -257 -76t-99 -184t109 -171q110 -62 317 -62q80 0 178 11t152 11t102 -29
q49 -29 49 -90q0 -137 -409 -137q-297 0 -482 108q-184 108 -184 291t164 302t411 118q190 0 404 -49q37 -8 10 21q-135 150 -274 352q-368 -113 -583 -63q-119 28 -190 147q-30 49 -69 137l29 23q98 -82 173 -110q184 -69 535 38q-113 195 -119 203q-43 66 -231 78l-8 30
q121 86 216 86z" />
    <glyph glyph-name="Identity.390" unicode="&#x3057;" 
d="M707 457q0 -180 63 -251t261 -71t414 117t357 293l37 -27q-109 -268 -334 -444t-526 -176q-463 0 -463 532q0 164 22 483t22 387t-10 102q-9 34 -44 65q-35 30 -127 63v33q100 39 160 39q102 -2 218 -88t115 -150q0 -27 -32 -84t-45 -111q-88 -403 -88 -712z" />
    <glyph glyph-name="Identity.391" unicode="&#x3058;" 
d="M848 1362q0 -27 -33 -84t-45 -111q-88 -403 -88 -712q0 -180 63 -251t261 -71t414 117t358 293l37 -27q-109 -268 -334 -444t-527 -176q-463 0 -462 532q0 164 21 483q22 319 22 387q1 68 -9 102t-45 65q-35 30 -127 63v33q100 39 160 38q102 -2 218 -87t116 -150z
M1647 1184q1 -34 -19 -54t-60 -20t-98 86q-98 137 -213 219l21 29q193 -39 289 -123q80 -61 80 -137zM1356 920q-41 0 -94 81q-106 156 -205 240l22 29q188 -51 293 -150q68 -66 66 -125q0 -33 -20 -54t-62 -21z" />
    <glyph glyph-name="Identity.392" unicode="&#x3059;" 
d="M1038 1645q86 0 172 -36t86 -85q0 -31 -19 -79t-23 -77t-3 -80q309 34 409 62q32 8 42 8q88 0 167 -44t79 -102t-25 -72q-25 -16 -64 -16t-125 14t-184 19q-98 6 -303 -6q-2 -100 -2 -317q86 -100 86 -281q0 -303 -218 -479t-578 -228l-17 39q432 156 539 414
q-150 -41 -253 58q-104 99 -104 247t85 240t210 92q51 0 86 -8q-4 57 -12 202q-388 -48 -582 -137q-67 -31 -117 -31t-123 64q-73 62 -89 120t-13 154l31 13q44 -51 64 -71q48 -48 122 -50q72 -2 697 76q-11 129 -19 175q-8 45 -48 63t-140 36l-4 29q104 74 190 74z
M1098 639q0 188 -130 188q-66 0 -113 -53q-46 -53 -46 -130t44 -127t114 -50q71 0 101 43t30 129z" />
    <glyph glyph-name="Identity.393" unicode="&#x305a;" 
d="M1026 1616q86 0 172 -36t86 -85q0 -31 -19 -79t-23 -76t-3 -80q310 34 376 52q65 17 75 17q88 0 167 -44t79 -101t-25 -73q-25 -15 -64 -15t-126 13t-184 19t-302 -6q-2 -100 -2 -317q86 -100 86 -281q0 -303 -218 -479t-579 -227l-16 39q432 156 538 413
q-150 -42 -252 58t-104 248q0 148 85 240q85 91 210 91q51 0 86 -8q-4 57 -12 203q-388 -48 -582 -137q-67 -31 -117 -31t-124 63q-73 63 -89 121t-12 154l31 12q45 -50 64 -70q45 -47 120 -50q74 -3 699 75q-11 129 -19 175t-48 64t-140 35l-4 29q104 74 190 74zM954 438
q70 0 101 43t31 129t-32 138q-32 51 -98 51q-66 1 -113 -53q-46 -54 -46 -131q-1 -77 43 -127t114 -50zM1694 1458q0 -69 -79 -69q-38 0 -87 75q-8 12 -32 54q-46 80 -122 151l21 27q297 -91 299 -238zM1624 1729l21 26q179 -51 239 -110q61 -58 62 -119q0 -31 -20 -50
q-20 -20 -57 -20q-42 -1 -107 106q-56 97 -138 167z" />
    <glyph glyph-name="Identity.394" unicode="&#x305b;" 
d="M1307 1628q79 0 171 -62t91 -118q0 -18 -24 -62q-23 -44 -25 -64q-2 -21 -19 -185q211 47 275 47t136 -41q73 -41 73 -113q0 -86 -123 -86q-20 0 -128 12t-216 2l-27 -2q-19 -319 -41 -402t-76 -132t-128 -49q-75 0 -101 76q-12 35 -51 69t-66 51q-27 16 -88 54l10 30
q197 -47 242 -47t62 10q18 10 32 62t23 254q-297 -51 -523 -125q-14 -322 -11 -453t49 -170t186 -39q226 0 437 50q73 16 85 16q74 0 128 -33t54 -92q0 -80 -129 -112t-421 -32t-423 70q-131 68 -141 262q-2 20 -6 461q-55 -23 -178 -78t-165 -55t-95 49q-52 49 -78 107
t-21 157l27 11q72 -88 134 -88t374 82q-4 229 -11 304t-40 92t-127 36l-2 28q106 64 187 64t174 -65t93 -117q0 -20 -24 -60t-31 -80q-8 -41 -14 -149q145 37 516 121q4 246 0 342q-2 51 -64 69q-35 11 -119 23l-4 28q102 72 181 72z" />
    <glyph glyph-name="Identity.395" unicode="&#x305c;" 
d="M1692 1655l20 28q176 -51 244 -112q70 -53 61 -117q0 -33 -23 -59t-63 -12q-8 3 -18 15t-16 16q-5 4 -18 24l-17 26q-76 115 -170 191zM1275 1616q79 0 170 -62t91 -118q0 -18 -24 -62t-26 -64q-2 -22 -18 -186q210 47 274 47t137 -41t73 -112q0 -86 -123 -86
q-20 0 -128 12t-216 2l-27 -2q-20 -319 -42 -402t-74 -132q-54 -50 -129 -50t-101 76q-12 35 -51 70t-66 51t-88 53l11 31q198 -47 242 -47t62 10q17 10 31 62t23 254q-297 -51 -522 -125q-14 -322 -12 -453t50 -170q46 -39 224 -39t398 49q73 16 85 17q74 0 128 -33t54 -92
q-1 -80 -129 -112t-420 -32t-424 69q-130 69 -141 263q-2 20 -6 461q-55 -23 -145 -63q-156 -70 -198 -70t-95 49t-79 107t-19 157l26 10q73 -88 135 -88t373 82q-4 229 -11 304t-40 93t-127 35l-2 29q106 64 187 64t174 -65t94 -118q0 -20 -24 -59t-32 -80t-14 -149
q145 37 516 120q4 246 0 342q-2 51 -63 70q-35 11 -119 23l-4 28q102 72 181 72zM1544 1524l23 24q160 -57 233 -137q55 -57 51 -113q0 -37 -19 -56t-50 -17q-41 2 -86 84q-70 131 -152 215z" />
    <glyph glyph-name="Identity.396" unicode="&#x305d;" 
d="M1233 1618q66 0 163 -81t97 -142q0 -23 -11 -37t-43 -32t-38 -21q-410 -279 -686 -527q-6 -8 -4 -12t34 2q38 8 692 206q74 22 150 23q76 0 156 -38t80 -101q0 -86 -131 -86q-10 0 -84 2q-399 11 -563 -109q-163 -119 -162 -298q2 -180 254 -228q63 -12 158 -13t127 -6
t70 -47t38 -95q0 -105 -176 -105t-287 35q-147 43 -234 142t-88 243q0 203 195 383q25 25 9 27q-7 1 -21 -3q-258 -70 -447 -219q-51 -41 -80 -58t-69 -17t-84 50q-43 50 -43 112t67 85q14 6 78 27t109 45q121 59 327 260q92 86 206 211q114 124 154 184t32 68t-41 -4
q-84 -25 -265 -137q-10 -5 -38 -25t-52 -34q-23 -14 -73 -15q-49 0 -129 78q-80 77 -79 147t44 148l22 2q74 -142 118 -144t229 38t255 90q37 26 64 26z" />
    <glyph glyph-name="Identity.397" unicode="&#x305e;" 
d="M1495 1311l21 28q170 -55 253 -131q61 -63 60 -127q-2 -33 -24 -53q-23 -20 -59 -19q-38 1 -104 117q-14 26 -20 34q-6 9 -34 54t-93 97zM1661 1450l16 27q189 -43 267 -109t71 -137q-3 -31 -25 -50q-57 -48 -114 22q-8 11 -35 48q-90 127 -180 199zM1184 1616
q66 0 163 -81t97 -142q0 -23 -11 -37t-43 -32t-38 -21q-410 -279 -686 -527q-6 -8 -4 -12t12 -2t312 90t388 116q86 27 163 27t157 -38t80 -101q0 -86 -132 -86q-10 0 -84 2q-399 11 -562 -109q-163 -119 -162 -298q2 -180 253 -228q63 -12 159 -13t127 -6q32 -5 70 -47
t38 -95q-1 -105 -177 -105t-286 35q-147 43 -235 142q-87 99 -87 243q0 203 195 383q25 25 9 27q-7 1 -21 -3q-264 -71 -447 -219q-51 -41 -80 -58q-84 -49 -153 33q-43 50 -43 112t67 85q14 6 78 27t109 45q121 59 327 260q92 86 206 211q113 124 153 184t32 68t-41 -4
q-110 -32 -303 -162q-72 -48 -123 -49q-50 0 -131 78q-80 77 -78 147t44 148l22 2q74 -142 118 -144t229 38t255 90q37 26 64 26z" />
    <glyph glyph-name="Identity.398" unicode="&#x305f;" 
d="M1872 68q0 -78 -128 -109t-298 -31q-233 0 -367 92q-133 92 -149 265q-14 75 4 202l35 2q35 -236 209 -302q88 -33 206 -33t213 19q94 19 99 20q68 0 122 -32t54 -93zM1341 1289q0 -48 -41 -78q-42 -31 -162 -75t-311 -89q-55 -197 -82 -271q-237 -729 -345 -833
q-28 -27 -77 -27t-81 44t-33 96q0 52 12 78t45 69t51 73q194 313 314 734q-100 -14 -166 -15q-127 1 -198 53t-117 209l24 19q80 -57 134 -79q109 -44 370 3q53 249 34 294q-7 17 -41 44t-114 53l2 31q181 73 342 -4q82 -39 84 -82q0 -30 -36 -109q-36 -78 -54 -141l-8 -31
q123 41 175 70t84 48t44 20q51 0 101 -28t50 -76zM1483 1022q162 0 266 -57q86 -55 86 -127q0 -88 -127 -90q-84 -4 -135 -17q-117 -16 -250 -65l-18 26q139 96 180 142q16 18 -10 28q-68 23 -168 23t-250 -27l-13 31q199 133 439 133z" />
    <glyph glyph-name="Identity.399" unicode="&#x3060;" 
d="M1913 1323q-40 0 -114 97q-75 97 -173 173l16 29q342 -72 340 -227q0 -72 -69 -72zM1351 137q120 -1 214 19t96 20q68 0 122 -32t54 -93q0 -79 -128 -109t-298 -30q-233 0 -367 92q-133 92 -149 264q-14 76 4 203l35 2q34 -235 208 -302q88 -34 209 -34zM1176 1376
q30 0 80 -28t50 -75q0 -48 -40 -78q-41 -30 -162 -75t-311 -90q-55 -197 -82 -270q-236 -725 -345 -834q-28 -26 -77 -26t-82 44t-33 95t12 78t45 69t52 74q193 311 313 733q-100 -14 -166 -14q-127 0 -198 52t-117 210l24 19q80 -57 134 -79q112 -46 370 3q52 247 34 294
q-7 17 -41 44t-114 53l2 31q179 72 342 -4q82 -38 83 -77q1 -38 -35 -115t-54 -140l-8 -31q153 51 249 112q22 13 34 19q11 6 41 6zM1800 821q0 -88 -127 -90q-84 -4 -135 -16q-117 -17 -250 -66l-18 27q139 96 180 141q16 18 -10 29q-134 45 -418 -4l-12 30
q199 133 438 134q162 0 266 -58q86 -55 86 -127zM1792 1245q0 -33 -22 -53t-60 -20t-88 79q-84 125 -182 213l20 27q332 -95 332 -246z" />
    <glyph glyph-name="Identity.400" unicode="&#x3061;" 
d="M714 1634q82 0 168 -39t87 -82q0 -29 -30 -73t-38 -70t-17 -62t-16 -57q162 41 276 101t134 59q46 0 92 -13q84 -24 84 -85q0 -76 -133 -127q-213 -84 -502 -127q-126 -451 -120 -456q5 -5 24 7q174 106 303 158t270 51q230 0 354 -121q124 -122 124 -306t-160 -308
t-396 -167q-236 -42 -507 -15l-4 43q240 18 446 100q387 139 387 426q0 109 -71 185t-205 77q-134 0 -290 -118q-155 -118 -284 -271q-12 -14 -34 -52t-42 -58t-49 -19q-47 0 -90 69t-43 136q0 22 18 50t29 48q53 98 152 522q-70 -4 -107 -4q-139 0 -211 56t-133 231l29 18
q141 -133 328 -133q74 0 131 9q50 230 31 268t-154 80v30q87 39 169 39z" />
    <glyph glyph-name="Identity.401" unicode="&#x3062;" 
d="M1907 1450q-1 -33 -19 -52q-18 -20 -44 -20q-43 -1 -71 37q-66 88 -83 105l-51 54t-89 77l17 26q340 -71 340 -227zM668 1632q82 0 168 -39t86 -82q0 -29 -30 -73t-38 -70t-17 -62t-16 -57q162 41 276 101q115 60 135 59q46 0 91 -13q84 -24 84 -85q0 -76 -133 -127
q-213 -84 -502 -127q-10 -43 -66 -249t-53 -208q4 -4 23 8q174 106 303 158t270 51q231 0 355 -121q124 -122 122 -306q0 -184 -160 -308t-396 -167q-237 -42 -506 -15l-5 43q240 18 447 100q387 139 387 426q0 109 -71 185q-72 76 -206 77q-134 0 -289 -118t-284 -271
q-12 -14 -34 -52t-42 -58t-49 -19q-47 0 -90 69t-43 136q1 22 19 50t28 48q53 98 152 522q-70 -4 -107 -4q-139 0 -211 56t-133 231l29 18q141 -133 327 -133q74 0 132 8q50 230 31 269q-19 38 -154 80v30q88 39 170 39zM1714 1300q0 -33 -22 -53t-58 -19q-37 1 -88 79
q-98 141 -182 213l20 26q330 -96 330 -246z" />
    <glyph glyph-name="Identity.402" unicode="&#x3063;" 
d="M1706 545q0 -268 -281 -420q-123 -67 -314 -89t-380 -5l-4 35q456 54 651 253q109 111 109 241t-70 212t-190 82q-74 0 -159 -38t-159 -92t-135 -108q-61 -53 -85 -72t-57 -46q-43 -35 -93 -35q-49 0 -114 49t-81 94t-10 137l20 9q47 -57 103 -58q29 0 77 20t198 93
q150 74 266 111t235 36q207 0 340 -123t133 -286z" />
    <glyph glyph-name="Identity.403" unicode="&#x3064;" 
d="M281 952q47 0 125 39q53 23 189 89t225 105q89 40 223 75t251 34q272 0 442 -156q169 -157 169 -370q0 -354 -373 -551q-156 -84 -396 -112t-489 -9l-6 47q237 27 403 72t314 133q295 166 295 453q-1 157 -99 269t-266 112q-253 0 -635 -316q-43 -36 -59 -48
q-16 -13 -62 -51q-45 -38 -61 -50q-49 -37 -106 -37t-134 58q-76 58 -100 124q-16 39 -16 154l28 14q63 -78 138 -78z" />
    <glyph glyph-name="Identity.404" unicode="&#x3065;" 
d="M1276 1262q272 0 441 -157t169 -370q0 -354 -373 -551q-155 -84 -395 -112t-489 -9l-6 48q237 27 403 71t313 133q295 166 295 453q0 158 -98 270t-252 111q-271 0 -649 -315q-43 -35 -59 -48q-16 -14 -62 -52q-45 -38 -61 -50q-49 -37 -107 -37q-57 1 -133 59t-100 123
q-17 39 -17 154l29 14q63 -78 137 -77q46 0 112 30t202 97q136 65 226 105q89 40 223 75t251 35zM1867 1410q-128 152 -249 228l12 29q190 -27 291 -90q78 -51 80 -121q3 -34 -17 -56t-55 -22t-62 32zM1753 1208q-37 0 -94 70q-100 137 -207 211l16 29q184 -37 281 -111
q72 -53 76 -117q1 -34 -17 -58t-55 -24z" />
    <glyph glyph-name="Identity.405" unicode="&#x3066;" 
d="M989 618q0 -405 427 -405h91q55 0 107 -44t51 -99q0 -117 -197 -117q-279 0 -436 102q-233 145 -233 490q0 219 96 403t272 303q19 14 12 18q-7 3 -18 1q-180 -41 -383 -114t-282 -129t-125 -56q-72 0 -156 79t-87 145t15 136l25 8q74 -102 135 -102q90 -1 191 23
q100 24 173 40t125 30t145 35q93 22 333 81t327 59q86 0 158 -32q96 -43 96 -117q1 -39 -29 -66t-79 -26l-180 8q-207 0 -328 -86q-76 -54 -134 -146q-112 -175 -112 -422z" />
    <glyph glyph-name="Identity.406" unicode="&#x3067;" 
d="M1755 784q1 -33 -21 -53t-58 -19t-89 79q-98 141 -182 213l18 26q332 -95 332 -246zM1948 938q0 -72 -68 -72q-41 0 -112 94t-177 177l17 28q340 -71 340 -227zM1388 211h91q55 0 106 -44t51 -99q0 -117 -196 -117q-279 0 -436 102q-233 145 -234 490q0 219 96 403
t273 303q18 14 11 17q-7 4 -17 2q-180 -41 -384 -114t-282 -129q-79 -56 -125 -56q-72 0 -156 79t-86 145t15 136l24 8q74 -102 135 -102q90 -1 191 23q100 24 173 40t125 30t145 35q93 22 334 81q240 59 326 59t158 -33q96 -43 97 -116q0 -39 -30 -66t-79 -26l-180 8
q-207 0 -328 -86q-74 -53 -133 -145q-114 -179 -112 -423q0 -405 427 -405z" />
    <glyph glyph-name="Identity.407" unicode="&#x3068;" 
d="M1618 1097q0 -42 -30 -65t-105 -47q-293 -88 -561 -246q-342 -203 -342 -403q0 -186 368 -186q236 0 413 47q65 16 77 16q229 0 229 -127q0 -32 -28 -64t-70 -49q-160 -57 -527 -57q-276 0 -442 93t-166 261t111 311q111 144 262 259q-82 49 -127 146t-86 411
q-10 61 -66 96q-35 23 -118 55v31q100 39 184 39t166 -54t82 -108l-13 -141q0 -166 35 -250t94 -123q82 51 211 125t146 84q72 41 -64 149l15 25q137 -8 194 -37q58 -29 108 -89t50 -102z" />
    <glyph glyph-name="Identity.408" unicode="&#x3069;" 
d="M1956 1434q0 -72 -70 -72q-19 0 -32 10t-17 13t-12 13t-13 13q-4 4 -13 17t-13 18q-99 118 -187 188l17 27q180 -35 260 -95t80 -132zM1763 1286q1 -32 -21 -54t-58 -21t-89 79q-86 129 -182 213l21 27q184 -49 272 -129q57 -51 57 -115zM1575 1070q0 -42 -30 -64
t-105 -48q-293 -88 -561 -245q-342 -203 -342 -404q0 -186 368 -186q219 0 414 48q66 15 76 15q229 0 229 -127q0 -33 -28 -65t-70 -47q-160 -57 -527 -58q-276 -1 -442 93t-166 261t111 311t262 259q-82 49 -127 146t-86 411q-10 61 -66 96q-35 23 -118 56v30
q100 39 184 39t166 -54t82 -107l-13 -142q0 -166 35 -250t94 -123q82 51 211 125t146 84q73 42 -64 150l15 24q137 -8 194 -36t107 -90q50 -60 51 -102z" />
    <glyph glyph-name="Identity.409" unicode="&#x306a;" 
d="M1847 1020q0 -113 -88 -113q-35 0 -111 31t-137 29q-109 -5 -149 -63t-19 -199q5 -42 48 -271q135 -35 258 -104q219 -115 219 -244q0 -55 -28 -85t-62 -30q-34 -1 -55 13q-23 14 -59 54q-111 122 -249 193q2 -25 2 -73q0 -135 -98 -207q-99 -72 -271 -72t-269 75
q-97 74 -97 198t124 218t339 93q41 0 61 -2q-6 98 -6 184q0 193 84 291q60 74 195 141q49 25 51 25q14 27 -19 53q-65 58 -206 70l-2 37q168 53 319 8q104 -33 164 -99t61 -151zM1212 250v55q-82 21 -194 21t-174 -43q-63 -43 -64 -99q0 -117 199 -116q113 0 173 47t60 135z
M726 1659q104 0 177 -53q29 -25 20 -76t-59 -197q89 28 152 58q62 30 71 30q39 -1 73 -27t34 -75t-64 -90q-106 -68 -337 -115q-170 -522 -344 -803q-45 -69 -78 -101t-77 -32t-74 41t-30 105t50 125q252 305 364 634q-68 -8 -143 -8q-131 1 -198 57t-107 222l30 16
q55 -41 85 -60q84 -53 181 -54t210 22q20 94 24 170q0 54 -41 86t-100 55v29q77 41 181 41z" />
    <glyph glyph-name="Identity.410" unicode="&#x306b;" 
d="M1475 1370q161 0 262 -53q80 -43 80 -113t-78 -86q-18 -4 -85 -10t-181 -43q-115 -37 -291 -145l-27 30q193 162 223 196t-6 42q-29 8 -137 8t-303 -53l-14 35q214 192 557 192zM1354 250q156 0 262 20l104 19q72 0 126 -31t55 -86q0 -88 -121 -121t-334 -33
q-526 0 -578 404q-10 76 -2 172l35 4q27 -106 53 -154q60 -110 152 -152t248 -42zM553 224q1 -32 23 -100t22 -97q0 -117 -104 -117q-72 0 -140 92q-125 168 -125 492q0 188 90 526q45 180 47 288t-106 226l21 22q94 -22 157 -64q62 -42 120 -118t58 -136t-17 -92
q-17 -34 -35 -67t-25 -49q-156 -270 -156 -498q0 -84 23 -129q20 -49 51 -2q59 86 209 373l45 -20q-123 -334 -131 -365q-27 -133 -27 -165z" />
    <glyph glyph-name="Identity.411" unicode="&#x306c;" 
d="M1235 1282q285 0 449 -157t165 -418q0 -211 -67 -381q168 -117 168 -238q0 -49 -25 -80t-67 -31t-101 60q-48 56 -88 96q-139 -156 -366 -156q-139 -1 -219 63t-78 171q0 107 96 177t232 71q136 0 257 -37q45 124 45 322t-124 321t-308 123h-24l-33 -125
q-98 -379 -240 -617q43 -53 43 -96q0 -42 -22 -70t-63 -31q-40 -3 -81 19q-43 -53 -112 -123q-145 -139 -297 -139q-104 0 -163 84q-58 84 -58 201q0 173 68 323t204 308q-47 174 -81 250t-146 169l22 33q158 -35 250 -110q72 -61 94 -172l6 -31q186 141 414 192
q13 83 17 149t-37 85q-47 31 -144 49l-2 31q95 47 195 44t182 -63q49 -37 44 -88t-38 -178h33zM324 383q0 -152 80 -152t159 78q43 45 84 90q-115 156 -184 387q-139 -215 -139 -403zM772 584q138 233 199 579q-219 -53 -373 -207q68 -238 174 -372zM1229 145q188 0 284 127
q-113 74 -237 74q-78 0 -131 -31t-53 -75t34 -69q34 -26 103 -26z" />
    <glyph glyph-name="Identity.412" unicode="&#x306d;" 
d="M1974 106q0 -46 -26 -76t-62 -31q-38 -1 -60 14t-84 82t-83 87q-135 -188 -397 -188q-129 0 -215 68t-86 181q0 115 99 189t235 74t261 -35q35 115 35 254q0 510 -250 510q-125 0 -312 -134t-314 -310v-5q-12 -176 18 -499q2 -25 12 -98t11 -105q0 -90 -40 -150t-100 -59
q-92 0 -106 96q-20 106 -47 174t-86 160l-64 -96q-42 -65 -68 -85q-25 -20 -55 -22t-58 30t-28 83q0 86 62 147q205 211 418 529q8 96 14 137q-115 -62 -157 -105q-42 -44 -72 -44q-65 0 -131 57t-84 121q-10 33 -7 112l29 11q57 -84 122 -84t318 110q23 211 23 251t-8 54
q-23 40 -162 78v35q84 39 165 39t166 -69t85 -128q0 -30 -25 -82t-49 -124q29 -18 53 -48t23 -54q0 -22 -45 -77q-6 -9 -25 -28q135 111 289 195t272 83q213 0 321 -165t107 -443q0 -199 -49 -342q217 -139 217 -275zM408 352l108 -104q45 -37 47 20q0 107 6 332
q-106 -164 -161 -248zM1208 162q195 0 283 153q-123 74 -250 74q-80 0 -138 -34q-59 -34 -59 -84q0 -49 42 -79t122 -30z" />
    <glyph glyph-name="Identity.413" unicode="&#x306e;" 
d="M1059 1382q-43 0 -82 -6q135 -139 135 -260q0 -184 -60 -346q-131 -355 -341 -544q-121 -108 -241 -108t-216 160q-96 159 -96 336q0 178 76 342t225 289q254 219 613 219q358 0 586 -216t228 -533t-235 -525q-236 -207 -723 -227l-8 39q713 170 712 762q0 278 -161 448
t-412 170zM948 1182q0 90 -63 176q-211 -59 -361 -217q-184 -203 -184 -439q0 -123 46 -218t117 -95q71 1 181 145t172 279q92 205 92 369z" />
    <glyph glyph-name="Identity.414" unicode="&#x306f;" 
d="M1307 1591q100 0 183 -43t83 -88q0 -27 -18 -79t-35 -197q79 26 141 53q61 26 65 27q62 0 110 -27t48 -73t-24 -66t-105 -54q-98 -35 -246 -63q-2 -27 -2 -131t25 -385q207 -55 344 -193q70 -66 70 -126t-26 -89t-67 -28t-85 40q-14 11 -76 69t-142 108v-13
q0 -297 -397 -296q-145 0 -247 72q-101 73 -101 208t126 209t316 74q33 0 94 -4q-14 287 -16 407v49q-98 -12 -185 -12t-135 12q-47 12 -105 68t-105 164l24 22q139 -94 267 -94t239 21l2 204q0 61 -10 79q-20 34 -189 63l-6 30q119 82 185 82zM1348 330v4q-98 26 -202 26
t-173 -36q-68 -36 -68 -94t54 -86t133 -27q148 0 202 50t54 163zM522 210q0 -36 20 -105t19 -99q0 -115 -104 -115q-72 0 -138 93q-127 172 -126 510q0 217 90 555q47 179 47 285t-107 233l21 22q96 -23 158 -63t120 -120q59 -79 60 -153q0 -34 -18 -72t-62 -120
q-160 -289 -160 -549q0 -98 16 -132q29 -60 60 -15q30 45 213 401l45 -18q-115 -332 -129 -379q-25 -123 -25 -159z" />
    <glyph glyph-name="Identity.415" unicode="&#x3070;" 
d="M1960 1448q-27 0 -44 17t-48 65q-78 118 -182 190l16 25q178 -39 252 -101t69 -122q0 -34 -18 -54t-45 -20zM1272 1567q100 0 183 -43t83 -88q0 -27 -18 -80t-35 -197q106 35 154 57q48 23 53 23q61 0 109 -27q48 -26 48 -72t-24 -67q-25 -20 -105 -53q-98 -35 -245 -64
q-2 -28 -2 -132t24 -384q207 -55 344 -192q70 -66 70 -126t-26 -89t-67 -29t-84 40q-13 12 -76 70t-142 107v-12q0 -297 -398 -297q-145 0 -247 73q-101 73 -101 207t126 209q126 74 316 74q33 0 95 -4q-14 287 -17 408v49q-220 -27 -320 0q-48 12 -106 67q-57 55 -104 164
l24 23q138 -94 266 -94t240 20l2 205q0 61 -10 79t-47 30q-37 14 -141 32l-7 31q119 82 185 82zM1313 305v4q-99 27 -203 27t-172 -37t-68 -94t54 -85t133 -28q147 0 201 50t55 163zM487 185q-1 -37 19 -105t20 -98q0 -115 -104 -115q-72 0 -137 92q-127 172 -127 510
q0 217 90 555q47 178 47 284t-107 234l21 23q95 -23 157 -64t121 -120t59 -135t-14 -85q-14 -28 -33 -64t-32 -61q-160 -289 -160 -549q1 -98 17 -132q28 -59 59 -13q23 33 61 108q38 76 86 166t66 125l45 -18q-115 -332 -129 -379q-25 -123 -25 -159zM1536 1599l16 25
q174 -53 254 -137q52 -59 52 -105t-22 -66q-22 -19 -45 -20t-29 5q-7 6 -11 8t-15 15t-17 24q-5 10 -12 21t-9 15q-72 135 -162 215z" />
    <glyph glyph-name="Identity.416" unicode="&#x3071;" 
d="M1803 1751q95 0 162 -67q67 -66 67 -160t-67 -162t-162 -68t-162 68t-66 162t67 160t161 67zM1659 1523q0 -61 42 -103t102 -42t103 42q42 42 42 102t-42 103q-42 42 -102 42t-103 -42q-42 -42 -42 -102zM1272 1567q100 0 183 -43t83 -88q0 -27 -18 -80t-35 -197
q106 35 154 57q48 23 53 23q61 0 109 -27q48 -26 48 -72t-24 -67q-25 -20 -105 -53q-98 -35 -245 -64q-2 -28 -2 -132t24 -384q207 -55 344 -192q70 -66 70 -126t-26 -89t-67 -29t-84 40q-13 12 -76 70t-142 107v-12q0 -297 -398 -297q-145 0 -247 73q-101 73 -101 207
t126 209q126 74 316 74q33 0 95 -4q-14 287 -17 408v49q-220 -27 -320 0q-48 12 -106 67q-57 55 -104 164l24 23q138 -94 266 -94t240 20l2 205q0 61 -10 79t-47 30q-37 14 -141 32l-7 31q119 82 185 82zM1313 305v4q-99 27 -203 27t-172 -37t-68 -94t54 -85t133 -28
q147 0 201 50t55 163zM487 185q-1 -37 19 -105t20 -98q0 -115 -104 -115q-72 0 -137 92q-127 172 -127 510q0 217 90 555q47 178 47 284t-107 234l21 23q95 -23 157 -64t121 -120t59 -135t-14 -85q-14 -28 -33 -64t-32 -61q-160 -289 -160 -549q1 -98 17 -132q28 -59 59 -13
q23 33 61 108q38 76 86 166t66 125l45 -18q-115 -332 -129 -379q-25 -123 -25 -159z" />
    <glyph glyph-name="Identity.417" unicode="&#x3072;" 
d="M480 1395q75 0 175 20t167 70q33 24 71 24q39 0 100 -51t61 -98t-69 -80q-14 -6 -88 -36t-121 -75q-125 -119 -219 -302t-94 -396q0 -162 105 -253t272 -91q545 0 544 809q0 139 -22 254q-37 166 -37 221t29 89q30 34 80 32t96 -47t45 -105q0 -227 16 -317
q39 -199 226 -369q90 -82 90 -198q0 -53 -22 -87t-62 -34q-76 0 -146 106q-82 115 -159 353q-10 30 -20 40t-15 -3q-6 -13 -6 -46q-1 -301 -21 -415t-58 -194q-153 -327 -567 -327q-227 -1 -377 133t-151 400q0 211 90 397t246 389q-100 -7 -174 11q-109 37 -166 219l20 20
q86 -63 161 -63z" />
    <glyph glyph-name="Identity.418" unicode="&#x3073;" 
d="M416 455q0 -162 105 -253t272 -91q545 0 544 809q0 139 -22 254q-37 166 -37 221t29 89t79 32t96 -48t46 -104q0 -227 16 -317q39 -199 225 -369q90 -82 91 -199q0 -53 -22 -87t-62 -34q-76 0 -146 107q-82 115 -160 352q-10 31 -19 41t-15 -3t-6 -46q0 -301 -20 -415
t-59 -194q-153 -327 -567 -327q-228 0 -378 133t-150 400q0 211 90 397t246 389q-100 -8 -174 10q-109 37 -166 219l20 21q86 -64 161 -64t173 20t150 58q52 37 91 37q38 0 99 -51q62 -51 62 -98t-70 -80q-14 -6 -87 -35t-122 -76q-125 -119 -219 -302t-94 -396zM1683 1729
q312 -82 314 -224q-4 -77 -68 -73q-27 0 -42 19t-28 37t-18 23q-78 111 -178 191zM1755 1282q-27 2 -44 20t-42 64q-68 127 -156 215l23 27q160 -57 236 -140q53 -57 51 -114q0 -72 -68 -72z" />
    <glyph glyph-name="Identity.419" unicode="&#x3074;" 
d="M452 1393q75 0 175 20t150 57q49 37 88 37q37 0 99 -51t62 -98t-70 -80q-14 -6 -87 -35t-121 -76q-126 -119 -220 -302t-94 -396q0 -162 106 -253t271 -91q545 0 545 809q0 140 -30 280t-30 195t29 89t80 32t96 -47t45 -105q0 -227 17 -317q39 -199 225 -369
q90 -82 90 -198q0 -53 -22 -87t-62 -34q-76 0 -145 106q-82 115 -160 352q-9 31 -19 41t-16 -3t-6 -46q0 -301 -20 -415t-59 -194q-37 -81 -107 -158t-188 -123t-271 -46q-227 0 -378 133t-151 400q0 211 91 397q90 186 245 389q-100 -7 -174 11q-109 37 -166 219l21 20
q86 -63 161 -63zM1810 1653q-59 0 -101 -42q-42 -41 -42 -101t42 -102t101 -42t102 42q42 42 42 101t-42 102q-43 42 -102 42zM1810 1282q-94 0 -160 66t-67 162q0 96 67 161q66 66 160 66t161 -66t67 -162q0 -95 -67 -161t-161 -66z" />
    <glyph glyph-name="Identity.420" unicode="&#x3075;" 
d="M1325 668q185 0 327 -70t223 -182t81 -217q0 -53 -33 -93t-89 -40t-84 34t-51 104q-70 211 -177 300q-107 88 -256 88q-41 0 -80 -6q166 -168 166 -363q0 -117 -71 -180t-189 -63t-322 80t-240 98l-20 -21q-24 -23 -58 -78t-66 -87t-69 -31q-73 0 -155 87t-82 175t29 151
l34 2q19 -63 53 -102t72 -39q38 -1 276 153t431 228q-12 16 -68 85t-85 121t-34 79q-6 27 -6 55t32 72t67 72t92 69t74 55q47 37 24 86q-66 140 -297 238l14 39q215 -13 330 -69t188 -147t72 -194q0 -62 -50 -74q-50 -11 -107 -9q-58 1 -114 -2t-145 -42q-90 -39 -90 -99
t108 -160l45 -42q35 -33 99 -86q100 25 201 25zM1118 276q0 127 -96 256q-201 -90 -442 -325q197 -57 348 -57q190 -1 190 126z" />
    <glyph glyph-name="Identity.421" unicode="&#x3076;" 
d="M1913 1249q-41 0 -103 82l-16 21q-14 24 -19 28t-21 24q-66 82 -144 132l18 25q188 -37 272 -105t82 -137q0 -70 -69 -70zM1358 1147q0 -62 -51 -73t-107 -10q-58 1 -114 -2t-145 -42t-89 -100q0 -35 24 -67t55 -67q30 -35 173 -153q100 25 201 24q184 1 326 -69
t223 -182t81 -218q-1 -53 -33 -93t-88 -40t-84 35q-28 34 -52 104q-73 215 -178 302q-106 86 -255 86q-41 0 -80 -7q166 -168 166 -362q-1 -117 -71 -180q-144 -128 -490 8q-225 90 -260 106l-21 -20q-23 -23 -57 -78t-66 -87t-69 -32q-74 0 -156 87t-82 175t29 152l35 2
q20 -63 53 -102t71 -39q39 -1 277 153t430 228q-12 16 -67 84t-86 122q-30 54 -34 80q-5 26 -5 54t32 72q32 42 66 71q35 29 92 70t74 55q47 37 25 86q-66 140 -297 238l14 38q215 -14 330 -69q116 -55 188 -147t72 -193zM1098 266q0 127 -97 256q-201 -90 -442 -325
q197 -57 348 -58q191 0 191 127zM1419 1382l23 27q184 -43 284 -143q60 -58 60 -104q1 -85 -78 -87q-41 2 -92 82q-107 151 -197 225z" />
    <glyph glyph-name="Identity.422" unicode="&#x3077;" 
d="M1323 666q185 0 327 -70t223 -182t81 -217q0 -53 -33 -93t-89 -41q-56 0 -84 35q-28 34 -51 104q-70 211 -177 300q-107 88 -256 88q-39 0 -80 -6q166 -168 166 -363q0 -117 -71 -180q-145 -128 -491 8q-225 90 -260 107l-20 -21q-24 -23 -58 -78t-66 -87t-69 -31
q-73 0 -155 87t-82 175t28 151l35 2q19 -63 53 -102t72 -39q38 -1 276 153t431 228q-12 16 -42 53q-128 158 -147 237q-4 22 -4 50t32 72t67 72t92 69t73 55q47 37 25 86q-66 140 -297 238l14 39q215 -13 330 -69t188 -147t72 -194q0 -62 -50 -74q-50 -11 -107 -9
q-58 1 -114 -2q-55 -3 -145 -42t-90 -99t108 -160l45 -42q35 -33 99 -86q102 25 201 25zM1116 274q0 127 -96 256q-201 -90 -442 -325q197 -57 348 -58q190 0 190 127zM1708 1063q-96 -1 -164 67t-68 163t69 164t164 69t163 -68t68 -164t-68 -164q-68 -67 -164 -67z
M1708 1442q-61 0 -104 -43t-43 -105t43 -104q43 -43 104 -43t104 43t43 104q0 60 -43 104t-104 44z" />
    <glyph glyph-name="Identity.423" unicode="&#x3078;" 
d="M211 737q45 0 115 62q160 147 362 368q74 80 162 80q121 0 221 -108q47 -49 132 -141q261 -281 442 -410q88 -63 192 -123q131 -76 131 -207q0 -53 -32 -85t-87 -32q-147 0 -458 336q-89 97 -237 287t-204 246t-92 57q-37 0 -84 -55q-131 -170 -276 -406q-23 -35 -27 -42
q-3 -7 -23 -33t-45 -41t-72 -15q-46 0 -115 42t-108 100t-42 167l24 19q76 -66 121 -66z" />
    <glyph glyph-name="Identity.424" unicode="&#x3079;" 
d="M848 1188q121 0 221 -109q47 -49 132 -140q259 -277 441 -411q88 -63 193 -122q131 -76 131 -207q0 -53 -32 -85t-87 -32q-147 0 -458 336q-89 98 -237 288t-204 245q-56 57 -92 57q-37 0 -84 -56q-131 -170 -276 -405q-23 -35 -27 -42q-3 -7 -23 -33t-44 -41t-71 -15
q-48 0 -117 42t-108 100t-43 167l25 18q76 -65 121 -65t115 61q160 147 362 369q74 80 162 80zM1788 1163q-28 1 -50 19t-55 65q-90 133 -213 219l23 29q180 -37 289 -121q78 -66 78 -138t-72 -73zM1572 971q-38 0 -97 82q-94 147 -203 239l20 29q195 -53 295 -150
q66 -63 64 -124q-1 -33 -21 -55t-58 -21z" />
    <glyph glyph-name="Identity.425" unicode="&#x307a;" 
d="M848 1188q121 0 221 -109q47 -49 132 -140q259 -277 441 -411q88 -63 193 -122q131 -76 131 -207q0 -53 -32 -85t-87 -32q-147 0 -458 336q-89 98 -237 288t-204 245q-56 57 -92 57q-37 0 -84 -56q-131 -170 -276 -405q-23 -35 -27 -42q-3 -7 -23 -33t-44 -41t-71 -15
q-48 0 -117 42t-108 100t-43 167l25 18q76 -65 121 -65t115 61q160 147 362 369q74 80 162 80zM1552 1368q-66 0 -112 -47t-45 -113q0 -66 46 -112q45 -46 111 -45q66 0 113 46q47 45 47 111t-47 113t-113 47zM1552 967q-100 1 -171 71t-70 170q0 100 70 172q71 72 172 72
t172 -71t71 -172t-72 -171t-172 -71z" />
    <glyph glyph-name="Identity.426" unicode="&#x307b;" 
d="M1227 1270q-255 0 -353 203l23 20q106 -66 227 -66q193 0 389 64q63 19 92 36t37 17q61 0 111 -25q49 -26 50 -76t-48 -73q-106 -49 -315 -80q29 -8 53 -22q41 -23 26 -80t-24 -174q158 52 190 69q31 17 33 17q166 0 166 -99q0 -68 -84 -100q-109 -47 -309 -82
q2 -133 31 -399q195 -60 303 -146t108 -184q-1 -41 -23 -70q-22 -28 -66 -28t-126 82t-180 145v-12q0 -129 -95 -207t-269 -78t-273 67q-100 67 -100 197t122 202q122 73 314 73q31 0 92 -4q-8 312 -8 338q-74 -7 -173 -7q-100 0 -190 54t-145 190l25 23q135 -105 262 -105
t219 21q0 162 -14 233q-8 43 -60 66h-18zM1331 276v37q-80 23 -182 23t-178 -35t-76 -94q0 -109 217 -109q106 0 163 47q56 47 56 131zM526 -24q0 -35 -24 -63t-70 -28q-82 0 -143 92q-53 73 -85 215t-32 276t10 205l15 105q4 35 16 87t23 109t24 95q4 23 15 66
q32 125 32 198q0 117 -102 254l20 21q94 -23 174 -72q59 -39 113 -121t55 -133q0 -51 -45 -125q-45 -73 -65 -121q-137 -305 -138 -508q0 -104 27 -155t53 -6q29 43 215 389l37 -15q-149 -443 -147 -567q0 -56 11 -109q11 -54 11 -89z" />
    <glyph glyph-name="Identity.427" unicode="&#x307c;" 
d="M1960 1448q-27 0 -44 17t-48 65q-76 114 -182 190l16 25q178 -39 252 -101t69 -122q0 -34 -18 -54t-45 -20zM1094 1405q134 0 245 25t144 42q32 17 41 17q55 0 96 -29t41 -79t-49 -66q-74 -27 -215 -49q29 -8 53 -23q43 -21 27 -79t-25 -175q135 45 177 66q42 22 54 22
q13 0 33 -3q80 -12 103 -38q24 -27 24 -59q0 -63 -86 -100q-109 -47 -309 -82q2 -131 31 -398q184 -53 309 -151q102 -82 102 -180q0 -43 -22 -71t-61 -28q-38 -1 -57 15t-33 26t-27 27q-98 96 -195 160v-13q0 -127 -95 -206q-96 -78 -268 -78t-272 68t-100 196
q0 129 122 203t314 73q33 0 90 -4q-4 217 -6 338q-76 -6 -145 -6q-131 0 -221 53q-89 53 -144 191l27 20q133 -104 278 -104q106 0 203 20q-4 184 -13 230t-61 69h-20q-256 0 -350 205l22 18q104 -63 238 -63zM1288 252v37q-80 23 -181 23t-177 -36q-76 -35 -76 -94
q0 -109 215 -108q106 0 163 47q56 47 56 131zM483 -49q-1 -35 -25 -63t-69 -27q-155 0 -227 309q-33 141 -33 339t103 601q32 125 32 199q0 111 -100 254l18 20q94 -23 174 -72q60 -39 114 -121t54 -131q0 -50 -44 -125t-64 -122q-139 -295 -140 -508q0 -104 26 -154t52 -11
q26 40 217 392l37 -14q-149 -444 -147 -582q0 -41 11 -95t11 -89zM1532 1612l18 24q176 -53 254 -135q56 -57 56 -105t-20 -66q-20 -19 -50 -18q-29 1 -47 20t-43 65q-72 131 -168 215z" />
    <glyph glyph-name="Identity.428" unicode="&#x307d;" 
d="M1089 1405q129 0 238 23t141 40q34 17 58 17t61 -17q-4 25 -4 39q0 94 67 161q68 67 162 67t161 -67t67 -161q0 -95 -67 -161t-164 -66t-167 74q-8 -28 -58 -48t-183 -42q37 -12 49 -21q43 -21 27 -79t-25 -175q135 45 177 66q42 22 54 22q13 0 33 -3q80 -12 103 -38
q24 -27 24 -59q0 -63 -86 -100q-109 -47 -309 -82q2 -131 31 -398q184 -53 309 -151q102 -82 102 -180q0 -43 -22 -71t-61 -28q-38 -1 -57 15t-33 26t-27 27q-98 96 -195 160v-13q0 -127 -95 -206q-96 -78 -268 -78t-272 68t-100 196q0 129 122 203t314 73q33 0 90 -4
q-4 217 -6 338q-76 -6 -145 -6q-131 0 -221 53q-89 53 -144 191l27 20q133 -104 278 -104q106 0 203 20q-4 184 -13 230t-61 69h-20q-256 0 -350 205l22 18q104 -63 233 -63zM1811 1651q-60 0 -102 -42q-42 -41 -42 -101t42 -102t102 -42t103 42q42 42 42 101t-42 102
q-43 42 -103 42zM1288 252v37q-80 23 -181 23t-177 -36q-76 -35 -76 -94q0 -109 215 -108q106 0 163 47q56 47 56 131zM483 -49q-1 -35 -25 -63t-69 -27q-155 0 -227 309q-33 141 -33 339t103 601q32 125 32 199q0 111 -100 254l18 20q94 -23 174 -72q60 -39 114 -121
t54 -131q0 -50 -44 -125t-64 -122q-139 -295 -140 -508q0 -104 26 -154t52 -11q26 40 217 392l37 -14q-149 -444 -147 -582q0 -41 11 -95t11 -89z" />
    <glyph glyph-name="Identity.429" unicode="&#x307e;" 
d="M962 1630q98 0 182 -41t85 -98q0 -23 -24 -70t-36 -129q218 43 326 97q14 6 47 6t90 -25q58 -25 58 -71q0 -45 -24 -67t-75 -38q-166 -59 -442 -98q-6 -68 -10 -219q244 48 326 92q13 6 20 6q164 0 164 -90q0 -70 -84 -103q-123 -51 -424 -86q6 -117 26 -274
q270 -53 449 -186q113 -82 113 -175q0 -49 -25 -75t-65 -27q-40 0 -55 11l-18 12q-2 2 -12 9t-12 9t-13 11t-13 12q-166 154 -332 223q2 -27 2 -78q0 -125 -104 -200q-104 -74 -283 -74q-180 0 -289 72t-109 201q1 130 137 206t347 76q35 0 100 -5q0 48 -8 236
q-127 -10 -229 -10q-221 0 -293 110t106 260l31 -20q-62 -102 -28 -141t162 -39t245 12v225q-129 -10 -267 -10t-243 58q-104 58 -174 212l24 19q90 -61 164 -89t205 -28t295 21l2 163q0 51 -49 74q-58 25 -152 45l-2 29q90 59 188 59zM987 303v2q-94 19 -210 19
q-117 0 -197 -42t-80 -96t52 -86q52 -31 134 -30q160 0 230 50t71 183z" />
    <glyph glyph-name="Identity.430" unicode="&#x307f;" 
d="M1924 214q-26 -32 -82 -32t-123 68q-17 16 -51 49t-56 53q-203 -399 -821 -495l-19 37q500 178 668 598q-264 197 -619 213q-31 -63 -113 -242t-133 -258q-49 -78 -109 -119t-145 -41t-142 116q-56 116 -40 247q15 152 181 258t374 141q41 72 161 273t140 243
q20 41 12 53q-9 12 -36 2q-86 -31 -209 -110q-60 -60 -120 -60q-62 0 -130 69t-72 128q-4 37 11 121l28 6q27 -41 38 -56q11 -16 36 -32t53 -17q102 0 330 78q39 14 83 41t64 27q59 0 155 -73t95 -130q1 -24 -21 -46t-64 -50t-82 -68t-128 -159q-90 -119 -153 -226
q334 -8 614 -125q33 196 -15 232q-28 21 -87 37v28q148 91 279 -9q69 -52 69 -103q1 -51 -15 -122t-22 -103t-14 -62q112 -70 186 -138t72 -167q-2 -43 -28 -75zM314 283q34 0 60 19q61 49 259 396q-152 -25 -266 -98q-189 -121 -115 -265q28 -52 62 -52z" />
    <glyph glyph-name="Identity.431" unicode="&#x3080;" 
d="M1163 1329q0 -63 -128 -111t-273 -81q-29 -211 -31 -240q57 -47 57 -153t-34 -218q-34 -113 -99 -176q-27 -86 -27 -152t78 -90q77 -26 273 -26t317 68q55 30 80 72t25 112t-16 282q-15 211 -15 289q0 301 217 301q141 0 262 -116t121 -275q0 -139 -117 -141
q-35 0 -69 16q-92 44 -203 29l-12 31q92 44 133 74t41 71q0 75 -67 147t-128 72q-92 0 -92 -192q0 -82 27 -244t51 -232t52 -128q26 -56 36 -86t10 -66q0 -125 -172 -206t-452 -81t-401 69q-120 69 -120 216q0 63 11 129q-109 8 -187 94t-78 193q1 145 93 257t227 111
q29 0 41 -2l8 160q-104 -18 -210 -18t-162 56q-58 56 -103 189l25 17q74 -64 120 -82t116 -18q71 0 218 32q2 66 2 144t-32 98t-105 47v28q83 39 151 39t147 -39t79 -73q0 -25 -18 -61q-23 -44 -37 -130l217 86q70 0 112 -17t41 -75zM510 856q-68 0 -112 -64t-44 -138
q0 -72 34 -114t87 -42q129 0 129 233q0 125 -94 125z" />
    <glyph glyph-name="Identity.432" unicode="&#x3081;" 
d="M1884 612q0 -655 -1012 -686l-6 41q772 160 772 686q0 164 -95 298t-279 175q-107 -317 -256 -567q96 -57 96 -149q0 -78 -100 -78q-53 0 -132 43q-84 -101 -147 -149t-96 -70t-95 -48q-62 -24 -126 -24q-104 0 -160 86q-55 86 -55 207q0 340 299 608q-37 113 -46 137
q-37 106 -186 262l16 21q160 -31 240 -90q35 -27 54 -43q62 -52 80 -144q3 -14 5 -22q197 119 428 137q25 104 29 193q2 53 -49 68t-121 20l-4 32q90 58 166 58t174 -53t98 -109q0 -26 -24 -68t-31 -71l-23 -78q266 -37 426 -209t160 -414zM1059 1141q-217 -12 -385 -131
q33 -135 76 -212t100 -134q133 201 209 477zM356 478q0 -81 27 -121t68 -40q109 0 268 177q-76 84 -127 200q-16 37 -66 180q-84 -98 -127 -206t-43 -190z" />
    <glyph glyph-name="Identity.433" unicode="&#x3082;" 
d="M1128 -131q-233 0 -350 119t-116 321q0 57 10 160q-141 39 -220 118t-79 168t66 171q67 82 175 145q-153 53 -212 164q-28 53 -40 149l25 15q86 -119 195 -157t229 -44q57 219 59 270t-55 88q-43 23 -90 39l2 33q79 25 157 25t170 -71t93 -128q1 -38 -25 -72
q-26 -35 -35 -47q-43 -74 -75 -151q68 -8 100 -43t33 -80q0 -74 -101 -80q-51 -4 -110 0q-61 -174 -98 -319q61 -3 198 -3q121 -6 121 -108q0 -92 -133 -111q-104 -14 -231 4q-8 -86 -9 -118q0 -274 303 -275q170 1 281 101t111 254q-1 154 -77 270q-76 114 -226 229l20 29
q254 -98 385 -250t131 -332t-133 -324q-67 -71 -183 -115t-266 -44zM465 805q0 -100 235 -133q31 186 60 319q-104 -8 -200 -65q-95 -58 -95 -121z" />
    <glyph glyph-name="Identity.434" unicode="&#x3083;" 
d="M1186 1022q0 -92 -78 -92q-29 0 -65 11q-35 11 -67 18t-220 12q-63 0 -64 -41q0 -22 52 -86t67 -84q365 166 543 166t274 -85t96 -209t-94 -206t-250 -82q-217 0 -356 258l20 14q129 -117 295 -116q94 0 154 50q59 50 59 131t-56 129t-132 48q-168 0 -479 -205
q96 -158 219 -440q63 -151 63 -223q-1 -72 -29 -106t-77 -34q-72 0 -103 97q-10 33 -25 111q-58 303 -177 507q-99 -75 -144 -116t-67 -51q-22 -11 -53 -11t-85 29t-77 63q-39 53 -23 156l21 8q55 -59 93 -59t128 47t125 63q-53 77 -77 105q-23 27 -39 48t-15 52
q0 77 47 104t135 27q150 12 197 23q34 6 22 34q-12 27 -52 57t-93 48l2 20q231 29 332 -84q53 -55 53 -106z" />
    <glyph glyph-name="Identity.435" unicode="&#x3084;" 
d="M1231 1360q0 -45 -26 -69q-26 -23 -54 -23q-43 1 -107 18q-128 35 -378 27q-128 -6 -67 -105q19 -31 69 -94t65 -84q487 229 752 230q205 0 327 -109t121 -271q0 -162 -123 -264t-321 -102q-279 0 -465 311l29 23q174 -152 393 -152q127 0 207 67t80 174t-76 172t-182 65
q-229 0 -656 -273q152 -246 295 -590q82 -201 82 -286t-34 -125t-89 -39q-86 0 -119 112q-12 37 -34 141t-37 162q-90 322 -213 527q-180 -127 -212 -157t-58 -51t-75 -21q-48 -1 -116 37t-96 83q-45 66 -29 183l31 14q66 -84 114 -84t203 74q94 49 143 73q-72 100 -119 154
q-46 54 -54 95q-8 42 5 76t21 48q8 15 28 25t31 16q27 16 107 16l31 2q250 20 293 30q44 10 28 46q-16 37 -69 77t-129 65l8 30q278 22 414 -124q62 -66 61 -150z" />
    <glyph glyph-name="Identity.436" unicode="&#x3085;" 
d="M1284 967q168 0 292 -114q124 -115 124 -325t-139 -333t-367 -123q-33 0 -49 2q-66 -80 -166 -132t-270 -92l-9 23q215 106 308 244q-109 59 -170 180t-62 281q0 59 2 88q-70 -80 -114 -171t-43 -137q0 -46 12 -98q12 -51 12 -90q0 -80 -82 -80q-59 0 -114 68
q-82 100 -82 315q0 88 36 240q37 152 37 213t-65 170l14 12q146 -32 216 -144q28 -44 28 -77t-19 -72t-47 -67q-84 -140 -84 -230t31 -112q123 246 272 374q20 164 88 281t168 117q152 0 215 -211h27zM1016 1100q-55 0 -91 -83t-48 -169l18 12q92 57 211 86q-20 154 -90 154
zM866 692q0 -348 217 -411q39 135 39 320t-8 267q-127 -29 -246 -118q-2 -19 -2 -58zM1528 584q0 272 -250 295q18 -98 18 -281t-49 -330q281 23 281 316z" />
    <glyph glyph-name="Identity.437" unicode="&#x3086;" 
d="M1356 1298q225 0 385 -146t160 -414q1 -268 -177 -428q-178 -159 -475 -158q-25 0 -65 4q-84 -106 -212 -176t-347 -125l-13 34q274 123 408 314q-147 73 -230 229t-83 373q0 47 4 133q-99 -109 -163 -240q-64 -132 -64 -194t14 -123q16 -61 16 -105q0 -92 -94 -92
q-68 0 -137 82q-104 137 -105 406q0 112 48 308t48 272t-92 218l21 19q113 -27 168 -75t92 -104t36 -90t-9 -60q-10 -32 -40 -82q-135 -222 -135 -369q0 -111 39 -144q147 303 365 492q27 223 112 370q90 160 224 160q91 0 163 -73t113 -216h25zM1026 1505q-82 0 -141 -129
q-44 -94 -60 -235l21 14q125 86 309 123q-35 227 -129 227zM813 936q0 -465 299 -545q63 184 64 494q0 184 -13 307q-184 -35 -348 -160q-2 -30 -2 -96zM1700 801q0 197 -98 295t-248 108q27 -143 26 -315q1 -315 -73 -512q393 27 393 424z" />
    <glyph glyph-name="Identity.438" unicode="&#x3087;" 
d="M943 1196q81 0 158 -49t77 -98q0 -23 -20 -52t-27 -53q-8 -24 -19 -113q90 4 186 43q37 12 64 27q26 16 31 17q59 0 109 -23t50 -76t-61 -80q-115 -47 -244 -47q-53 0 -143 53q-8 -82 -8 -172t12 -235q119 -23 229 -76q236 -113 236 -252q0 -86 -80 -86q-37 0 -77 30
t-118 99t-163 105q2 -12 2 -37q0 -246 -322 -246q-139 0 -226 58t-87 175t119 183t305 65h39q-3 60 -9 188t-11 287t-10 196t-41 55t-118 36l-2 15q88 63 169 63zM731 35q229 0 236 182q-76 16 -168 16t-153 -33q-60 -34 -60 -77t41 -65t104 -23z" />
    <glyph glyph-name="Identity.439" unicode="&#x3088;" 
d="M1139 1130q115 0 254 54q56 18 88 36q32 17 39 17q72 0 129 -27t57 -89t-80 -95q-158 -59 -332 -59q-63 0 -178 63q-6 -92 -6 -226t23 -331q152 -31 291 -95t227 -146t88 -178q0 -95 -94 -95q-43 0 -91 37t-151 125q-102 88 -244 147q4 -37 4 -59q0 -313 -413 -313
q-178 0 -289 72t-111 204q0 160 153 242t388 82q49 0 72 -2q-2 103 -19 430q-16 449 -18 477q-4 51 -54 74q-51 27 -153 43l-4 26q117 70 209 70t190 -58q96 -58 96 -116q0 -29 -24 -68t-36 -74q-10 -35 -24 -168h13zM653 80q160 0 234 59t78 193q-102 20 -223 20t-205 -46
t-84 -104t55 -90t145 -32z" />
    <glyph glyph-name="Identity.440" unicode="&#x3089;" 
d="M1239 1262q0 -92 -96 -93q-35 -1 -101 13t-146 20t-245 -20q-45 -4 -45 -37q0 -15 16 -63t22 -99q5 -51 -21 -189q-25 -138 -25 -184q2 -31 27 -16q158 100 269 156q207 106 425 106q217 0 347 -133t130 -311q0 -143 -100 -254t-261 -171q-343 -128 -745 -89l-4 41
q244 31 414 94q453 164 452 459q0 114 -72 196t-190 82q-116 0 -240 -73t-207 -153t-155 -171q-12 -17 -34 -53t-34 -53q-32 -48 -84 -48t-110 68q-53 55 -53 129q0 22 13 88t71 471q4 39 4 149t94 127q75 12 189 43t161 58q37 18 8 55q-37 57 -101 92t-177 74l8 31
q266 18 414 -68q182 -106 182 -274z" />
    <glyph glyph-name="Identity.441" unicode="&#x308a;" 
d="M694 362q-161 0 -159 312q0 106 45 362t45 334q0 161 -121 301l12 19q174 -8 285 -136q59 -68 59 -118t-36 -146t-40 -146t6 -50q10 -2 23 24q168 301 373 301q180 0 284 -167t104 -513q0 -347 -208 -589q-209 -242 -655 -318l-17 37q156 61 272 147t182 174t106 197
t54 204q13 95 13 208q0 514 -197 514q-61 -1 -129 -57t-118 -158q-94 -186 -95 -377l15 -258q0 -45 -29 -73t-74 -28z" />
    <glyph glyph-name="Identity.442" unicode="&#x308b;" 
d="M682 1423q51 0 179 29q127 29 193 49t97 43t53 23q74 0 166 -76t92 -141q0 -27 -17 -44t-61 -41q-44 -25 -99 -61q-56 -36 -246 -195t-192 -186q-1 -8 5 -12t16 0q209 70 342 70q216 0 362 -128q146 -129 144 -347t-181 -359t-486 -141q-184 0 -301 76t-117 206
q0 98 79 160q78 62 196 64q118 0 219 -70t137 -209q238 98 241 342q2 141 -91 231t-279 89q-186 0 -337 -121q-152 -121 -298 -309q-39 -49 -62 -65q-22 -16 -58 -15q-36 2 -63 40q-27 39 -23 101t89 143q651 627 752 762q23 33 15 46t-34 7q-86 -14 -280 -127
q-82 -55 -117 -55q-82 0 -148 74q-65 74 -69 133t14 137l29 2q66 -125 139 -125zM864 315q-142 0 -141 -108q-1 -53 67 -87t185 -34q35 0 96 4q-19 104 -77 164t-130 61z" />
    <glyph glyph-name="Identity.443" unicode="&#x308c;" 
d="M1585 51q-264 0 -264 309q0 124 39 352t39 332t-29 152q-29 47 -100 47q-125 -1 -276 -109t-283 -280q-2 -37 -6 -68q-19 -269 30 -595q10 -67 10 -99q-1 -90 -41 -153t-98 -64q-92 0 -106 96q-36 189 -135 336l-64 -98q-25 -39 -37 -55q-38 -50 -77 -52t-67 30t-28 83
q0 87 69 157t191 223q123 153 223 300q2 39 11 117q-106 -61 -135 -80q-10 -8 -45 -49t-60 -41q-66 0 -138 62t-91 130q-8 25 -2 117l28 8q61 -88 115 -88q76 0 348 139q23 207 23 247t-8 54t-51 37t-111 41v35q84 39 165 39t166 -69t84 -128q0 -36 -28 -90
q-28 -55 -58 -149q74 -61 74 -90q0 -10 -4 -23q276 229 483 229q145 -1 212 -81t67 -240q0 -92 -39 -298t-39 -300t30 -128t97 -34q166 0 344 141l23 -22q-66 -135 -182 -233t-269 -97zM557 602l-162 -248q86 -82 111 -106q45 -37 47 20q0 182 4 334z" />
    <glyph glyph-name="Identity.444" unicode="&#x308d;" 
d="M674 1434q53 0 233 42t216 56t62 32t42 19q74 0 166 -83t92 -144q-1 -29 -19 -45q-18 -15 -55 -31t-49 -23q-68 -41 -270 -219t-236 -212q-32 -34 -29 -42q4 -6 17 0q188 94 410 94t376 -122q152 -123 152 -330q0 -249 -246 -399q-125 -76 -342 -110t-508 -15l-6 43
q424 49 642 203t218 380q0 131 -91 203t-260 72t-354 -130t-343 -331q-61 -84 -121 -84q-39 0 -73 40t-34 85t10 68q22 51 161 166q52 44 87 75q109 94 337 335q229 241 281 315t-24 57q-131 -31 -313 -135q-8 -4 -40 -28t-82 -25t-120 73t-73 138t28 141l27 2
q66 -131 131 -131z" />
    <glyph glyph-name="Identity.445" unicode="&#x308e;" 
d="M981 840q0 -24 -45 -67q-45 -44 -74 -77q232 129 414 129t312 -105q130 -106 130 -288t-153 -326q-154 -143 -521 -200l-10 24q463 193 463 562q1 128 -67 196t-174 68t-221 -50q-116 -50 -208 -133v-6q-5 -73 3 -233t15 -206t7 -73q0 -78 -35 -134t-81 -56t-64 19
t-30 105t-81 189l-39 -63q-27 -45 -45 -63t-49 -17q-32 -1 -54 25t-22 80t45 110q264 319 316 389l6 76q-70 -41 -83 -51t-37 -36q-24 -24 -63 -24q-40 0 -91 46q-50 46 -62 86t-12 98l18 8q43 -54 97 -54t247 86q15 162 15 205t-42 66t-100 39v24q78 37 142 37t134 -55
q69 -55 68 -105q0 -19 -39 -108q-10 -33 -14 -49q37 -14 61 -39q23 -25 23 -49zM694 184q0 62 6 209l-112 -174l67 -53q39 -29 39 18z" />
    <glyph glyph-name="Identity.446" unicode="&#x308f;" 
d="M672 1671q80 1 163 -67t83 -127q0 -25 -28 -85q-28 -61 -48 -147q44 -15 75 -47q30 -33 29 -51q2 -31 -47 -84q-104 -113 -113 -121q322 184 562 184t406 -137q165 -137 165 -364t-178 -410q-199 -203 -674 -285l-16 37q614 248 614 723q0 164 -93 257q-94 93 -238 93
t-297 -68t-273 -173q-10 -152 18 -512q2 -31 10 -88t9 -93q0 -90 -40 -160t-97 -69q-92 0 -109 96q-20 107 -44 169t-91 161l-62 -94q-24 -39 -36 -55q-37 -52 -78 -53t-68 30t-26 84q0 85 70 157t191 223q122 151 220 298q2 35 10 108q-144 -80 -166 -107q-21 -28 -37 -40
t-37 -12q-65 0 -131 60t-86 128q-8 29 -4 107l29 10q57 -80 117 -80t331 119q23 233 23 275q0 43 -10 57q-28 41 -168 77l-2 35q92 41 172 41zM614 602l-163 -252q100 -92 112 -100q41 -39 45 20q0 104 6 332z" />
    <glyph glyph-name="Identity.447" unicode="&#x3090;" 
d="M1845 513q0 -275 -168 -443t-510 -168q-147 0 -241 70t-94 184t79 190q80 76 202 76t211 -78t114 -203q209 117 207 418q0 197 -108 328t-296 131q-70 0 -166 -27q-211 -500 -323 -693t-182 -266q-69 -73 -169 -73q-75 0 -147 123t-72 248q0 272 386 530q154 104 333 166
q70 188 113 352q4 18 -1 24t-24 3q-84 -25 -221 -117q-16 -10 -49 -40t-80 -29q-47 0 -114 60q-67 59 -83 111t-6 146l29 8q78 -106 131 -106q94 0 348 104q14 6 48 34t55 28q59 0 159 -67t101 -124q0 -27 -50 -70t-73 -92l-72 -172q76 12 156 13q242 0 410 -152t167 -427z
M500 262q172 207 350 637q-139 -74 -264 -171q-125 -98 -205 -198t-80 -184q4 -53 34 -101t62 -48q54 -1 103 65zM932 206q0 -52 52 -92t136 -40q83 0 131 8q-14 100 -62 170q-49 70 -115 70t-104 -32t-38 -84z" />
    <glyph glyph-name="Identity.448" unicode="&#x3091;" 
d="M696 1491q104 0 363 68q31 11 65 35t50 24q70 0 150 -66t81 -108q0 -25 -17 -38t-87 -46t-217 -124t-139 -109q3 -5 20 1q117 35 231 35q194 0 310 -89t116 -230q0 -172 -176 -276t-420 -103q-63 0 -119 12q-166 -113 -270 -205q199 51 346 -118q250 242 440 242
t336 -111q145 -111 146 -258q0 -119 -107 -119q-23 0 -76 18t-105 20t-159 -14l-10 23q137 66 190 115q38 29 14 96q-24 68 -97 118t-146 50q-106 0 -180 -100t-119 -234q-27 -92 -90 -92t-131 51q-25 21 -34 79t-30 91q-55 88 -145 87t-199 -118q-29 -29 -131 -161
q-45 -59 -110 -60q-37 0 -66 32t-29 75q0 74 72 137q35 30 154 112q119 81 399 295q-96 63 -96 156q0 70 67 129q68 59 157 59q88 0 152 -48t65 -112t-21 -98q143 18 236 89t93 184q0 209 -290 209q-211 0 -408 -182q-39 -36 -100 -102t-76 -81q-49 -53 -93 -53
q-93 0 -91 104q0 41 27 71q28 29 136 107t304 233q194 155 278 243q12 12 8 21q-10 23 -130 -26t-176 -89q-55 -40 -95 -41q-41 -1 -101 57t-62 108q-3 50 9 109l29 6q57 -90 104 -90zM877 805q-47 0 -78 -29t-31 -67q0 -66 113 -91q82 72 82 121q0 66 -86 66z" />
    <glyph glyph-name="Identity.449" unicode="&#x3092;" 
d="M1190 332q0 -55 -29 -89t-79 -34t-83 29t-32 86q0 2 10 217q-309 -166 -309 -318q0 -143 278 -143q180 0 337 34t169 33q190 0 190 -108q0 -84 -98 -115q-182 -55 -463 -55q-526 0 -526 321q0 219 426 488q-2 125 -28 173t-95 48q-138 0 -355 -306q-34 -48 -54 -75
q-19 -28 -51 -52t-70 -26t-63 37q-26 39 -27 96t42 99q15 16 50 49q197 186 325 412q-72 -9 -172 -9t-149 60t-101 207l31 16q45 -37 75 -56q84 -53 208 -55q74 2 203 25q39 86 49 139q16 53 -29 82q-35 25 -123 55l2 27q90 43 162 43t156 -26t84 -74q-1 -21 -15 -47
q-14 -25 -20 -37l-60 -111q171 50 214 75t55 33t24 9q137 0 137 -94q0 -55 -73 -90q-176 -90 -471 -146q-66 -115 -158 -244q-6 -10 -2 -16t16 2q120 80 218 80q192 0 241 -203q45 25 197 100q152 76 205 106t14 75q-32 41 -100 74l16 34q133 -6 199 -42q66 -35 115 -101
q50 -66 50 -112t-23 -57t-70 -24q-287 -73 -582 -196q12 -135 12 -303z" />
    <glyph glyph-name="Identity.450" unicode="&#x3093;" 
d="M1219 1374q1 -32 -51 -71q-52 -38 -101 -88t-162 -196t-176 -251q-4 -10 -1 -13t13 3q143 72 264 72t193 -64q72 -63 82 -182q2 -33 2 -301q0 -137 146 -137t275 138q130 138 202 324l32 -8q-33 -344 -189 -512t-386 -168q-145 0 -224 74t-81 203q-2 75 10 199t12 186
q0 156 -141 155q-115 0 -217 -103t-151 -214t-136 -373q-43 -117 -135 -117q-55 0 -88 46t-33 110t67 184q24 41 77 129q54 87 90 151t240 407t255 444q27 57 -12 92t-121 66l4 30q88 33 170 19q113 -16 192 -91t79 -143z" />
    <glyph glyph-name="Identity.451" unicode="&#x309b;" 
d="M557 1421q-27 -1 -44 15t-37 40t-21 29q-90 119 -193 203l23 29q178 -39 261 -103t83 -138q0 -75 -72 -75zM436 1338q0 -46 -22 -68t-52 -23q-31 1 -50 19t-52 63q-115 160 -186 225l22 29q184 -47 279 -139q61 -60 61 -106z" />
    <glyph glyph-name="Identity.452" unicode="&#x309c;" 
d="M298 1659q-69 0 -117 -48t-48 -117t48 -117t117 -48t117 48t48 117t-48 117t-117 48zM297 1243q-104 0 -177 74t-73 178t73 177t177 73t178 -73t74 -177t-74 -178t-178 -74z" />
    <glyph glyph-name="Identity.453" unicode="&#x309d;" 
d="M1287 297q-44 0 -115 31t-141 31t-224 -37l-19 38q162 72 267 150q76 52 48 156t-135 236q-108 132 -276 224l29 39q449 -115 625 -424q80 -139 79 -272q0 -84 -47 -128t-91 -44z" />
    <glyph glyph-name="Identity.454" unicode="&#x309e;" 
d="M1287 297q-44 0 -115 31t-141 31t-224 -37l-19 38q162 72 267 150q76 52 48 156t-135 236q-108 132 -276 224l29 39q449 -115 625 -424q80 -139 79 -272q0 -84 -47 -128t-91 -44zM1702 1245q0 -74 -72 -74q-34 -1 -57 25t-37 44t-30 36q-16 20 -37 50q-22 30 -69 68
q-48 39 -71 58l21 29q352 -72 352 -236zM1499 1081q-1 -33 -23 -55t-60 -20t-93 84q-94 139 -190 219l22 28q344 -100 344 -256z" />
    <glyph glyph-name="Identity.455" unicode="&#x30a1;" 
d="M602 1024q68 0 326 27t338 38t120 28t64 18q49 0 141 -88t92 -142q0 -47 -84 -69q-39 -10 -136 -60t-220 -104q6 -18 -2 -39q-221 -543 -735 -758l-19 27q201 143 355 382t153 334q0 35 -29 59q-30 24 -87 50l4 23q70 18 110 16q104 0 187 -41q137 111 186 213
q20 43 -24 43t-257 -47q-213 -46 -283 -66t-112 -45q-43 -25 -81 -25t-96 52q-58 51 -75 106q-22 55 -10 125l21 9q39 -38 61 -52t92 -14z" />
    <glyph glyph-name="Identity.456" unicode="&#x30a2;" 
d="M1589 1522q59 0 170 -106t111 -169q0 -33 -28 -51t-74 -32t-60 -23q-219 -125 -420 -221q6 -25 -4 -50q-276 -694 -924 -979l-28 35q182 125 344 328t242 366t80 222t-40 90q-39 31 -114 63l4 31q211 44 366 -41q203 166 279 301q14 31 7 41t-54 10t-340 -54t-447 -95
q-37 -10 -87 -44t-94 -34t-116 62t-96 126t-14 160l31 8q49 -55 77 -73t72 -19q123 0 480 38t520 61q39 5 86 27t71 22z" />
    <glyph glyph-name="Identity.457" unicode="&#x30a3;" 
d="M1221 -14q0 -39 -27 -72t-82 -33t-90 49t-35 121q0 17 7 57q30 174 30 445q0 29 -6 53q-322 -252 -633 -346l-16 29q266 155 535 433t270 374q-1 43 -89 86l7 24q96 8 158 -10t125 -76t63 -91q0 -34 -10 -47q-10 -14 -36 -28q-24 -14 -39 -29t-87 -91t-131 -127
q62 -47 77 -66q16 -21 16 -35t-6 -49q-7 -35 -10 -59q-3 -162 3 -317q6 -156 6 -195z" />
    <glyph glyph-name="Identity.458" unicode="&#x30a4;" 
d="M1257 41q0 -145 -112 -143q-76 0 -116 61t-40 145q0 21 23 154q29 254 22 522q0 47 -12 80q-150 -123 -365 -256t-454 -211l-23 39q303 174 594 448t418 472q53 84 53 125q0 49 -119 108l11 35q119 8 193 -14t149 -94q76 -71 75 -126q0 -28 -13 -42t-43 -34t-50 -40
q-207 -213 -297 -297q121 -82 121 -125q0 -16 -9 -58t-12 -172t1 -340q5 -210 5 -237z" />
    <glyph glyph-name="Identity.459" unicode="&#x30a5;" 
d="M982 1231q64 0 132 -43q70 -43 70 -71t-22 -59t-29 -145q158 7 189 13t63 34t53 27q53 0 137 -71q84 -72 84 -104t-37 -70t-45 -56q-127 -315 -331 -515t-548 -321l-20 27q272 162 446 393t232 512q4 20 1 26t-24 7q-222 -11 -365 -30q-142 -19 -166 -19t-65 29
q18 -270 19 -406q0 -84 -82 -84q-49 -2 -87 53t-38 109q0 8 3 32l5 40q2 49 -9 151t-31 152t-89 131l12 22q119 -18 213 -73q41 -20 58 -39q117 6 239 16q0 175 -10 195t-28 32t-78 35v21q84 49 148 49z" />
    <glyph glyph-name="Identity.460" unicode="&#x30a6;" 
d="M1212 1510q0 -34 -22 -66t-30 -80q-7 -50 -11 -127q231 13 274 19t83 38t63 31q66 0 163 -84t97 -135q0 -29 -44 -73t-52 -66q-166 -408 -427 -675t-692 -431l-28 39q352 207 584 514t307 667q6 27 0 35t-174 1t-366 -34q-197 -28 -228 -28t-80 37l30 -529
q0 -100 -92 -100q-59 -3 -104 65t-45 136l8 96q4 57 -12 183q-16 125 -38 189t-120 177l18 30q152 -31 250 -92q55 -33 72 -51q14 0 344 27q0 99 -3 187t-35 107t-116 44l-2 34q116 53 186 53t156 -52t86 -86z" />
    <glyph glyph-name="Identity.461" unicode="&#x30a7;" 
d="M1284 1001q74 1 159 -39t85 -79t-22 -65t-64 -25q-137 0 -365 -27q104 -45 105 -98q0 -18 -23 -75t-45 -278q35 2 90 8t127 12q72 7 112 20t50 14q68 -1 160 -61t92 -103t-23 -68t-47 -25t-186 32q-162 30 -301 30q-304 0 -562 -91q-69 -24 -105 -24q-36 -1 -97 55
q-62 56 -78 98t-16 116l18 6q72 -66 166 -66t418 31q8 123 8 254t-31 192q-184 -31 -212 -31q-29 0 -65 30q-86 67 -112 196l17 12q90 -70 176 -69q150 1 283 25t185 46t71 34q19 13 32 13z" />
    <glyph glyph-name="Identity.462" unicode="&#x30a8;" 
d="M616 1196q154 0 443 45q117 20 187 47t94 44t40 18q90 0 190 -47t99 -97q0 -90 -102 -98q-7 0 -181 -13t-313 -30q135 -61 135 -123q0 -20 -20 -68t-25 -75q-23 -133 -39 -346q208 18 310 26q102 9 151 25t60 16q83 0 197 -70t114 -133q0 -43 -27 -71t-56 -27
q-29 0 -221 36t-352 38t-397 -26t-365 -74q-128 -45 -174 -45q-46 -1 -120 65t-97 119t-22 139l27 12q98 -92 191 -92t572 41q13 262 13 396t-45 212q-266 -41 -294 -41t-73 33q-45 32 -87 98t-62 144l24 14q121 -92 225 -92z" />
    <glyph glyph-name="Identity.463" unicode="&#x30a9;" 
d="M1122 1214q68 0 138 -42t69 -74q0 -16 -24 -58t-29 -168q126 18 182 46q18 8 25 8q55 0 131 -49t76 -85t-20 -55q-20 -20 -52 -20l-119 8q-117 8 -225 4q0 -260 6 -428q12 -166 12 -205q0 -80 -47 -143t-89 -63t-59 16q-17 18 -36 52q-18 34 -39 52q-45 43 -170 109l8 24
q139 -18 205 -18q33 -2 37 37t0 325q-129 -157 -328 -289t-428 -202l-14 22q225 142 400 322t269 360q-196 -39 -331 -86q-27 -8 -45 -8q-43 0 -99 54q-55 54 -70 98t-16 104l17 8q75 -70 149 -70t494 52q0 132 -3 180t-37 75q-34 26 -87 46v18q81 43 149 43z" />
    <glyph glyph-name="Identity.464" unicode="&#x30aa;" 
d="M1145 1630q84 0 171 -51t87 -90q-1 -23 -21 -57q-35 -58 -45 -254q192 26 266 60q26 11 35 11q68 0 158 -57q90 -58 90 -100t-22 -66t-54 -22q-31 0 -154 9t-323 1q-1 -488 13 -643q14 -156 14 -205q0 -94 -57 -171t-119 -77q-35 0 -57 22q-23 22 -45 62t-46 61
q-61 57 -221 138l10 32q197 -29 265 -30q43 -4 47 43q8 84 4 489q-166 -207 -428 -392t-555 -286l-25 33q291 180 525 419t360 472q-229 -33 -359 -76q-129 -43 -161 -43q-51 -2 -120 65t-88 118t-20 133l29 10q88 -98 178 -98q147 0 375 30t283 35q-1 167 -5 240t-47 100
q-41 31 -135 43v31q113 61 197 61z" />
    <glyph glyph-name="Identity.465" unicode="&#x30ab;" 
d="M1550 1239q50 0 146 -79t96 -128q0 -28 -40 -60t-46 -73q-66 -444 -195 -706q-47 -92 -132 -158t-171 -66q-47 1 -66 21q-18 20 -32 71t-53 95t-144 137l19 31q184 -68 259 -75t107 36q78 102 135 343q56 241 56 365q0 27 -23 27q-96 0 -338 -37q-240 -791 -942 -1096
l-26 37q518 387 719 1016q-162 -31 -209 -45q-48 -14 -100 -38q-52 -23 -90 -23t-100 66t-84 121q-22 56 -5 157l28 8q29 -42 45 -60q48 -54 114 -54q65 -1 452 44q51 204 52 274t-38 97t-121 53v31q115 55 187 55t178 -62t106 -114q0 -33 -34 -70q-34 -38 -42 -68t-21 -82
t-21 -85l243 29q29 4 70 34t61 31z" />
    <glyph glyph-name="Identity.466" unicode="&#x30ac;" 
d="M1946 1362q-37 0 -65 37q-109 146 -224 235l18 27q342 -72 340 -227q0 -72 -69 -72zM1745 1204q-37 0 -90 78q-95 135 -187 211l21 27q188 -47 274 -125q59 -53 60 -115q-1 -32 -21 -54t-57 -22zM1503 1221q49 0 145 -79t97 -128q0 -27 -40 -60t-46 -73
q-66 -444 -195 -707q-47 -92 -132 -158t-171 -65q-47 0 -66 20q-19 19 -33 71t-52 95q-39 43 -144 137l19 31q184 -68 259 -75t107 36q78 102 134 343t57 366q0 27 -23 26q-96 0 -338 -36q-240 -791 -942 -1096l-26 37q518 387 718 1016q-163 -32 -209 -46t-98 -38t-91 -23
q-38 0 -100 66t-84 122t-5 156l28 8q29 -41 45 -59q17 -18 47 -36t81 -19q51 0 438 45q51 205 52 274t-38 96t-121 54v30q114 56 186 56t178 -62t107 -114q0 -33 -35 -70q-35 -38 -42 -68q-6 -30 -20 -82t-22 -86l244 29q29 4 70 35t61 31z" />
    <glyph glyph-name="Identity.467" unicode="&#x30ad;" 
d="M303 1116q74 -49 123 -49t418 90q-52 209 -70 249t-49 58t-133 54l-2 30q126 70 194 70t157 -39t95 -78q4 -27 -7 -67t-8 -76q3 -37 21 -148q172 45 226 71q55 27 74 37t26 11q63 3 139 -27t76 -73q0 -84 -100 -103q-229 -43 -406 -86l66 -295q358 89 451 135q20 9 30 14
t18 5q94 2 168 -32t74 -81q0 -88 -98 -96q-297 -25 -606 -102q62 -275 90 -372t38 -136t9 -86q0 -47 -28 -75t-80 -30q-52 -1 -94 55t-56 128q-4 16 -15 108q-14 129 -61 357q-308 -88 -438 -166q-64 -37 -106 -38q-43 -1 -117 44t-100 85t-32 130l25 14q78 -59 131 -59
t604 147q-31 143 -67 299q-182 -52 -258 -88t-115 -36q-39 -1 -102 42t-89 85t-38 108z" />
    <glyph glyph-name="Identity.468" unicode="&#x30ae;" 
d="M1909 1360q-37 0 -65 37q-114 152 -222 239l18 27q338 -71 336 -231q0 -72 -67 -72zM1288 -8q0 -47 -28 -75t-79 -30q-53 -1 -95 55t-56 128q-4 16 -14 108q-13 119 -62 357q-308 -88 -438 -166q-64 -37 -106 -38q-43 -1 -117 44t-96 82q-29 43 -35 133l24 14
q78 -59 131 -59t605 147q-31 143 -68 299q-186 -53 -261 -89t-113 -36t-101 43t-94 92q-20 33 -33 101l22 12q6 -4 22 -13t20 -12q5 -3 25 -13t63 -11q42 0 411 90q-53 209 -71 249t-48 58q-31 18 -133 54l-2 30q127 70 195 70t156 -39t96 -78q4 -27 -8 -67t-8 -76
q3 -37 22 -148q181 47 231 73q49 25 69 35t25 11q63 2 139 -28t76 -72q0 -84 -100 -103q-229 -43 -405 -86l65 -295q362 90 481 149q10 5 19 5q94 2 168 -32t73 -81q0 -88 -98 -96q-297 -25 -606 -102q62 -275 90 -372q27 -97 37 -136t10 -86zM1434 1495l22 29
q186 -51 270 -129q59 -53 60 -115q-2 -32 -22 -54t-59 -21q-38 1 -87 79q-98 139 -184 211z" />
    <glyph glyph-name="Identity.469" unicode="&#x30af;" 
d="M1782 1186q0 -33 -51 -74t-66 -65q-241 -416 -577 -710t-816 -462l-24 39q384 205 710 551t457 674q14 39 -24 39q-84 0 -207 -40t-156 -38q-33 0 -96 49q-305 -373 -680 -535l-27 37q236 193 418 448t182 361q0 61 -114 123l6 29q77 16 159 12t180 -54t97 -89
q-1 -31 -25 -59q-24 -30 -38 -52t-74 -110q55 0 189 19t166 29t74 41q42 30 66 29q55 0 163 -68t108 -124z" />
    <glyph glyph-name="Identity.470" unicode="&#x30b0;" 
d="M2044 1509q0 -33 -18 -53t-53 -20q-34 0 -62 37q-9 13 -25 33t-55 66t-56 61t-39 35t-50 40l18 27q340 -68 340 -226zM1783 1288q-36 0 -91 78q-95 135 -185 211l19 27q188 -47 274 -125q59 -53 60 -115q0 -32 -20 -54t-57 -22zM1497 1356q55 0 163 -68t107 -125
q0 -33 -51 -73t-65 -66q-240 -416 -577 -710t-816 -461l-25 38q383 205 710 551t458 674q14 39 -25 39q-84 0 -207 -39t-155 -39t-96 49q-305 -373 -680 -534l-27 37q236 193 418 447t182 362q0 61 -115 123l6 28q78 17 160 13t179 -54t97 -86q0 -35 -24 -63t-38 -50
t-75 -112q55 0 189 19q134 20 167 30q32 10 74 40t66 30z" />
    <glyph glyph-name="Identity.471" unicode="&#x30b1;" 
d="M880 1106q44 0 249 31q204 31 286 46t131 40t68 24q80 0 158 -40t77 -103q0 -82 -94 -82q-263 0 -313 -3t-236 -28q76 -35 124 -78t48 -73t-32 -69q-32 -40 -41 -56q-262 -559 -881 -817l-25 32q291 188 489 476t197 456q0 72 -34 109l-74 -13q-20 -4 -64 -15t-67 -11
q-47 0 -123 76q-236 -283 -541 -449l-26 33q203 184 378 456t175 412q0 58 -88 154l14 26q125 -12 197 -49t125 -88q79 -78 40 -129q-13 -16 -35 -38t-68 -94t-89 -130q31 -6 75 -6z" />
    <glyph glyph-name="Identity.472" unicode="&#x30b2;" 
d="M1987 1470q-1 -31 -19 -50t-48 -19t-42 12t-16 15l-12 12t-11 13q-4 5 -13 15t-14 17q-74 100 -172 186l19 27q328 -70 328 -228zM981 1414q0 -30 -12 -48q-12 -16 -35 -38t-69 -94t-89 -130q31 -6 76 -6t249 30q203 30 285 46t132 40t67 25q80 0 158 -40t78 -103
q0 -82 -95 -82q-262 0 -312 -3t-236 -28q76 -35 124 -78t48 -73t-33 -70t-41 -55q-262 -559 -881 -818l-24 33q291 188 489 476t197 456q0 72 -35 109l-74 -13q-20 -4 -64 -15t-67 -11q-47 0 -123 75q-236 -283 -540 -448l-27 33q203 184 378 456t175 412q0 58 -88 154
l14 26q126 -12 198 -49t124 -88t53 -81zM1688 1282q-41 0 -95 76q-90 133 -168 209l21 26q315 -91 313 -239q0 -72 -71 -72z" />
    <glyph glyph-name="Identity.473" unicode="&#x30b3;" 
d="M575 1192q56 0 332 28t400 44q47 6 90 39t69 32q64 0 178 -81t113 -142q0 -31 -39 -79t-51 -94t-55 -219t-66 -263q72 -15 113 -61t41 -97q0 -72 -98 -72q-25 1 -142 15t-213 14q-248 0 -508 -68q-33 -8 -97 -30q-64 -21 -112 -21q-48 1 -116 59t-98 130t-21 139l29 12
q105 -105 182 -105q43 0 815 79q82 446 92 620q2 27 -22 27q-68 0 -300 -31t-299 -46t-133 -41q-67 -26 -105 -26t-100 62t-83 126t-17 138l31 12q6 -4 34 -32t65 -48q35 -20 91 -20z" />
    <glyph glyph-name="Identity.474" unicode="&#x30b4;" 
d="M1999 1452q0 -74 -68 -74q-33 0 -64 38q-9 11 -38 46q-89 113 -187 189l17 26q340 -67 340 -225zM1804 1292q0 -32 -20 -54t-57 -22t-91 78q-75 119 -184 211l18 29q195 -51 275 -127q59 -53 59 -115zM528 1147q56 0 332 28t400 44q47 7 90 39t69 32q63 0 177 -81
t114 -142q0 -31 -39 -79t-51 -94t-55 -219t-66 -263q72 -16 113 -62t41 -96q0 -72 -99 -72q-26 0 -142 14t-212 15q-248 0 -508 -68q-34 -7 -98 -29t-112 -22t-115 58q-68 58 -98 132q-30 72 -21 138l28 12q105 -104 183 -104q43 0 815 78q82 446 92 620q2 27 -23 27
q-68 0 -300 -31q-233 -31 -299 -46t-132 -41t-104 -26q-38 1 -101 63q-62 62 -83 126t-17 137l31 12q6 -4 31 -29t42 -36q17 -10 39 -22t78 -13z" />
    <glyph glyph-name="Identity.475" unicode="&#x30b5;" 
d="M1933 997q-1 -79 -79 -79q-34 0 -157 17q-124 17 -243 17h-18q-8 -254 -36 -410t-106 -266q-193 -281 -632 -397l-19 35q326 168 465 408q106 180 115 620q-176 -14 -375 -37l2 -411q0 -121 -98 -121q-53 0 -94 67q-40 68 -40 138q0 12 18 101q17 89 19 198
q-125 -20 -173 -37q-48 -18 -98 -40q-51 -23 -77 -22q-53 0 -105 58t-75 105q-23 48 -14 146l26 9q47 -53 78 -76t68 -23t370 33q-4 218 -13 266t-42 68t-108 43l-3 29q88 51 159 51t158 -48t87 -106q-1 -23 -19 -55t-22 -86t-4 -141q37 4 375 39q4 244 -15 352
q-4 38 -36 56t-113 36l-2 31q111 59 183 59t162 -56q91 -56 91 -108q0 -18 -25 -55t-28 -102q-4 -135 -4 -193q134 14 179 28q44 13 60 13q98 0 178 -42t80 -112z" />
    <glyph glyph-name="Identity.476" unicode="&#x30b6;" 
d="M1921 1409q-25 0 -42 16q-29 28 -88 114q-58 87 -126 142l21 27q172 -48 237 -112t64 -121q0 -66 -66 -66zM594 571q0 11 17 101t20 198q-161 -26 -241 -62t-107 -36q-53 0 -106 57q-52 57 -75 105t-14 147l27 9q47 -53 78 -76t67 -23t371 33q-3 219 -13 266
q-10 48 -43 68t-108 43l-2 29q88 51 159 51q72 0 158 -48t86 -106q0 -23 -18 -55t-23 -70q-4 -70 -4 -158q37 4 375 39q4 244 -14 353q-4 38 -36 56t-114 36l-2 31q110 59 182 59t163 -56t91 -108q0 -18 -24 -55t-29 -103q-4 -135 -4 -192q131 14 178 27q46 14 62 14
q98 0 178 -42t80 -112q0 -77 -79 -79q-34 0 -158 16q-124 18 -242 18h-19q-8 -254 -36 -410t-105 -266q-193 -281 -633 -397l-19 35q326 168 465 407q106 180 115 621q-176 -14 -375 -37l2 -412q0 -121 -98 -120q-53 -1 -93 67t-40 137zM1819 1303q-5 -66 -74 -66
q-37 0 -82 74q-2 4 -26 43t-49 80t-85 96l23 26q172 -61 243 -145q49 -57 50 -108z" />
    <glyph glyph-name="Identity.477" unicode="&#x30b7;" 
d="M834 795q0 -45 -26 -79t-77 -34t-84 22t-80 74q-46 53 -75 78q-139 133 -232 186l12 35q331 -21 479 -132q83 -62 83 -150zM539 229q115 1 373 149t537 374q280 226 447 432l37 -25q-147 -299 -454 -595t-660 -505q-18 -10 -70 -58t-106 -48q-55 0 -141 57t-132 128
t-51 204l27 14l18 -18q15 -16 20 -22q80 -88 155 -87zM1083 1233q1 -43 -29 -76t-82 -33t-106 51q-20 19 -58 60t-69 68q-125 113 -219 167l12 37q147 -4 289 -37q262 -72 262 -237z" />
    <glyph glyph-name="Identity.478" unicode="&#x30b8;" 
d="M823 768q1 -45 -25 -79t-77 -34t-84 22q-33 23 -80 75t-76 77q-139 133 -231 187l12 35q332 -22 478 -132q83 -62 83 -151zM528 203q115 0 373 148q258 149 538 375t447 431l37 -24q-147 -299 -455 -595t-659 -505q-19 -11 -71 -59t-106 -48t-140 58t-132 128
q-46 71 -51 203l27 15q2 -2 17 -18t21 -22q6 -4 21 -20q17 -16 25 -22t33 -26q26 -20 75 -19zM1073 1206q0 -43 -30 -76t-84 -32t-103 50q-20 19 -58 60t-69 68q-125 113 -219 168l12 37q147 -4 289 -37q262 -72 262 -238zM1905 1427q-1 -35 -19 -54t-51 -19t-55 24
q-23 24 -49 60q-82 109 -189 202l21 27q178 -43 270 -113q72 -59 72 -127zM1619 1180q-38 0 -89 75q-90 133 -187 230l21 26q199 -63 267 -131q69 -68 69 -112q0 -46 -22 -67t-59 -21z" />
    <glyph glyph-name="Identity.479" unicode="&#x30b9;" 
d="M633 1290q88 0 292 34t300 58q25 6 65 39t64 33q66 0 169 -87t103 -129t-57 -84t-65 -54t-54 -80q-156 -236 -252 -340q272 -84 454 -224t183 -300q0 -50 -35 -92t-91 -42t-101 40t-103 131q-119 199 -186 272q-76 88 -178 156q-451 -461 -1004 -631l-22 43
q358 186 692 527t459 644q16 39 -23 39q-55 -6 -203 -47q-148 -40 -210 -62t-107 -53t-76 -30q-63 0 -127 64q-64 65 -84 127t-16 153l35 14q90 -119 178 -119z" />
    <glyph glyph-name="Identity.480" unicode="&#x30ba;" 
d="M1985 1487q0 -72 -68 -72q-29 1 -49 19t-56 63q-80 109 -184 189l19 26q338 -66 338 -225zM594 1251q88 0 292 34t300 58q26 6 66 39t63 33q66 0 169 -87t103 -129t-57 -84q-58 -42 -66 -54t-53 -80q-156 -236 -252 -340q273 -84 455 -224t182 -300q0 -51 -35 -92
t-91 -41t-101 40t-103 130q-119 199 -186 272q-76 88 -178 156q-451 -461 -1004 -631l-22 43q358 186 692 527t459 644q16 39 -23 39q-56 -6 -204 -47t-210 -63t-106 -52q-45 -31 -76 -30q-63 0 -127 64q-63 64 -83 126t-17 154l35 14q90 -119 178 -119zM1792 1333
q0 -33 -22 -53t-58 -20t-104 100t-168 186l18 29q195 -51 275 -127q59 -51 59 -115z" />
    <glyph glyph-name="Identity.481" unicode="&#x30bb;" 
d="M972 249q38 -32 210 -32t334 42q53 13 57 13q81 0 145 -28t64 -86q0 -78 -105 -105q-73 -19 -205 -33t-254 -14t-208 11q-196 25 -242 151q-25 68 -26 157t6 449q-184 -70 -237 -107q-54 -37 -79 -47q-24 -10 -66 -10t-124 62t-104 112t-15 158l27 8q33 -35 46 -49
q13 -13 45 -31t64 -18q86 0 445 104q0 384 -4 428t-44 64q-39 20 -127 47l-2 31q131 55 209 55t170 -55t92 -105q0 -31 -26 -80t-35 -99q-8 -50 -22 -226q475 137 495 143t62 34q41 28 63 28q59 0 167 -89t108 -136t-86 -89q-38 -18 -50 -30q-236 -199 -469 -332l-30 28
q195 231 284 414q8 19 -1 29t-29 8q-121 -23 -527 -172q-16 -246 -16 -442q2 -129 40 -161z" />
    <glyph glyph-name="Identity.482" unicode="&#x30bc;" 
d="M1989 1444q0 -74 -68 -74q-35 0 -82 57l-20 27q-85 108 -187 188l19 27q338 -66 338 -225zM1016 1401q0 -31 -27 -80t-35 -99t-22 -227q476 137 496 143t61 34t63 28q59 0 167 -89t108 -140q1 -41 -85 -83q-38 -18 -50 -32q-236 -199 -469 -332l-31 29q195 231 285 414
q8 18 -1 28t-30 9q-121 -23 -526 -173q-16 -246 -17 -442q2 -129 40 -161t211 -31t333 42q53 13 57 13q80 0 145 -29t64 -86q0 -78 -104 -104q-72 -19 -205 -33t-255 -14t-208 11q-197 25 -242 150q-25 67 -25 157t5 450q-184 -70 -237 -107q-54 -37 -79 -47t-67 -10
t-123 61q-83 61 -105 111t-14 160l27 8q33 -35 46 -49q13 -13 45 -31t64 -19q86 0 445 105q0 383 -4 427q-4 45 -43 65t-127 47l-2 30q131 55 209 55t170 -54q92 -56 92 -105zM1798 1290q0 -33 -22 -53t-57 -20q-36 0 -89 75q-84 123 -186 211l20 29q334 -92 334 -242z" />
    <glyph glyph-name="Identity.483" unicode="&#x30bd;" 
d="M722 815q-44 0 -75 25q-31 26 -47 54t-49 91q-117 230 -270 391l22 31q223 -63 380 -180t159 -264q0 -61 -38 -105t-82 -43zM1782 1270q0 -29 -46 -74t-61 -82q-401 -903 -1290 -1200l-27 39q240 137 450 329t344 380q134 190 214 362t92 295q4 35 -31 63t-131 64l7 35
q113 37 187 34t184 -91q108 -88 108 -154z" />
    <glyph glyph-name="Identity.484" unicode="&#x30be;" 
d="M656 768q-74 0 -120 79q-17 30 -50 92q-114 227 -271 390l25 31q225 -66 381 -182t157 -265q0 -59 -39 -102t-83 -43zM1694 1159q0 -27 -46 -71t-61 -82q-186 -420 -492 -702t-776 -437l-24 37q243 137 447 319q204 183 334 361q269 369 294 626q4 35 -30 63t-130 62
l4 35q119 39 191 35q73 -4 181 -90t108 -156zM1946 1454q-35 0 -66 37q-10 12 -37 47q-88 113 -188 188l18 27q342 -72 340 -227q1 -72 -67 -72zM1738 1307q-36 0 -106 102t-170 186l21 29q195 -51 274 -127q59 -51 60 -115q1 -33 -21 -54t-58 -21z" />
    <glyph glyph-name="Identity.485" unicode="&#x30bf;" 
d="M1159 1485q-1 -28 -25 -58q-24 -31 -38 -53t-52 -76q68 4 197 24t159 30t72 41q44 31 70 30q51 0 152 -74q100 -75 100 -132q0 -29 -50 -68t-61 -59q-150 -260 -297 -441q182 -139 189 -270q2 -55 -31 -91t-84 -38t-81 28q-43 43 -152 193q-393 -401 -983 -596l-23 39
q489 246 877 709q-143 150 -402 272q-236 -217 -471 -332l-26 35q227 190 431 476t204 390q0 57 -115 123l4 29q177 42 340 -41q96 -49 96 -90zM1444 1184q14 39 -27 39q-39 -3 -131 -21t-137 -35q-92 -27 -116 -27t-77 40q-109 -137 -219 -244q287 -80 469 -174
q154 209 238 422z" />
    <glyph glyph-name="Identity.486" unicode="&#x30c0;" 
d="M1681 1714l21 29q186 -41 259 -91t75 -122q2 -33 -18 -53q-54 -55 -117 14q-12 11 -68 79t-152 144zM1503 1591l21 27q190 -52 256 -110t68 -121q3 -63 -70 -72q-41 0 -97 71q-100 135 -178 205zM1128 1444q0 -27 -24 -58q-24 -32 -38 -54t-52 -75q68 5 196 25t158 30
t74 40q44 31 69 30q51 0 152 -74q100 -75 100 -132q0 -29 -50 -68t-60 -59q-150 -260 -297 -441q182 -139 188 -270q2 -55 -31 -91q-51 -56 -129 -32q-37 11 -78 69q-13 17 -50 65q-36 48 -60 81q-393 -401 -983 -596l-23 39q489 246 877 709q-143 150 -401 272
q-236 -217 -471 -332l-27 35q227 190 431 476t204 390q0 60 -115 123l4 29q178 42 340 -41q96 -49 96 -90zM1413 1143q14 39 -27 39q-39 -2 -131 -20t-137 -36q-94 -26 -116 -26t-76 39q-109 -137 -219 -244q287 -80 469 -174q153 209 237 422z" />
    <glyph glyph-name="Identity.487" unicode="&#x30c1;" 
d="M1253 1128q0 -22 -16 -67t-20 -103q254 26 314 41q59 15 79 21t28 6q98 0 178 -42t80 -101q0 -86 -84 -86q-16 0 -111 11t-210 11t-281 -12q-33 -346 -228 -581q-196 -234 -568 -361l-21 35q281 174 419 386t161 496q-285 -37 -424 -82q-110 -47 -160 -47q-51 -1 -113 55
t-86 110q-25 54 -26 134l31 13q86 -94 159 -95q129 0 623 60q0 209 -72 278q-279 -45 -555 -49l-10 45q260 62 531 152t339 141q33 20 27 48t-57 75l20 25q147 -20 240 -84q117 -86 116 -156q0 -23 -22 -33t-60 -16q-40 -6 -138 -44t-220 -63q59 -29 98 -65q39 -34 39 -56z
" />
    <glyph glyph-name="Identity.488" unicode="&#x30c2;" 
d="M1999 1286q0 -68 -66 -67q-39 -1 -75 47q-78 102 -193 196l18 29q158 -37 238 -86q78 -51 78 -119zM1835 1128q0 -29 -19 -48q-20 -19 -56 -19t-87 67q-88 121 -168 193l19 29q311 -73 311 -222zM1524 1403q0 -23 -22 -33t-62 -16t-138 -44t-219 -63q59 -29 99 -64
q39 -35 39 -57q-1 -22 -17 -67t-20 -103q314 32 394 62q19 6 28 6q98 0 178 -42t80 -101q0 -86 -84 -86q-16 0 -112 11t-210 11q-115 0 -280 -12q-33 -347 -229 -581t-568 -361l-21 35q281 174 419 386t161 496q-285 -37 -424 -82q-110 -47 -160 -47q-51 -1 -112 55t-86 110
t-27 134l31 13q86 -94 160 -95q129 0 622 60q0 209 -72 278q-279 -45 -555 -49l-10 45q259 62 531 152t340 141q33 20 26 48q-6 28 -57 75l20 24q147 -20 240 -83q117 -86 117 -156z" />
    <glyph glyph-name="Identity.489" unicode="&#x30c3;" 
d="M766 637q0 -47 -29 -76t-71 -29t-64 20t-31 42q-11 22 -29 72q-69 185 -141 276l21 23q88 -27 158 -72q186 -100 186 -256zM1393 944q0 51 -101 103l2 24q72 14 134 13q62 -2 143 -72q82 -70 82 -131q0 -23 -34 -66t-42 -59q-141 -293 -415 -532t-644 -335l-18 31
q233 115 447 324t330 400t116 300zM1108 766q0 -49 -32 -78t-71 -29q-39 1 -59 19t-28 40t-24 70q-64 194 -136 271l18 22q115 -37 172 -71q160 -94 160 -244z" />
    <glyph glyph-name="Identity.490" unicode="&#x30c4;" 
d="M668 879q0 -55 -32 -89t-81 -34t-76 24t-39 55q-12 30 -36 91q-93 235 -187 350l29 31q100 -35 205 -109q217 -135 217 -319zM1520 1282q0 66 -148 123l8 35q72 24 163 18t189 -94t97 -160q-1 -34 -47 -78t-58 -69q-176 -360 -494 -666q-163 -157 -378 -281t-461 -198
l-24 41q239 123 463 323q383 342 603 755q87 167 87 251zM1122 1047q0 -59 -37 -93t-82 -34q-77 1 -105 74q-11 30 -30 90q-70 224 -180 343l29 29q123 -47 217 -110q188 -121 188 -299z" />
    <glyph glyph-name="Identity.491" unicode="&#x30c5;" 
d="M1634 971q-186 -373 -517 -667t-808 -437l-22 39q238 122 461 316t366 381t229 348t87 245q0 66 -150 123l8 35q74 24 164 18t187 -94t98 -160q1 -34 -45 -78t-58 -69zM467 733q-49 0 -77 25q-28 24 -40 54t-36 92t-68 160t-119 196l29 30q113 -43 204 -110
q219 -139 220 -322q0 -55 -32 -90t-81 -35zM754 1147q-66 156 -144 244l29 30q125 -49 219 -112q190 -123 191 -303q0 -62 -37 -96t-88 -34t-75 30q-24 28 -49 113q-26 85 -46 128zM1946 1454q-35 0 -66 37q-10 12 -36 47t-39 48t-37 42t-113 98l18 27q340 -68 340 -225
q1 -74 -67 -74zM1737 1309q-37 0 -109 104t-166 182l21 29q195 -51 274 -127q59 -53 60 -115q1 -33 -21 -53t-59 -20z" />
    <glyph glyph-name="Identity.492" unicode="&#x30c6;" 
d="M360 992q28 -9 83 -9q56 -1 470 55t511 66t148 25q51 16 56 16q100 0 183 -45q83 -46 83 -100t-20 -71t-50 -17t-122 10q-92 12 -207 12t-313 -21q123 -76 123 -133q0 -27 -38 -78t-61 -96q-221 -506 -768 -739l-30 37q158 106 280 246q207 238 289 500q33 102 33 156
t-17 85q-252 -38 -383 -85q-131 -48 -176 -48t-108 56t-82 108t-13 139l25 10q76 -70 104 -79zM1317 1575q101 0 161 -32t60 -94t-84 -81q-143 -32 -345 -62q-201 -30 -307 -30t-164 52t-118 169l21 19q99 -60 237 -60t379 64q74 17 110 36q37 19 50 19z" />
    <glyph glyph-name="Identity.493" unicode="&#x30c7;" 
d="M2040 1439q0 -71 -66 -71q-30 0 -47 20q-18 20 -24 27q-7 9 -13 17t-10 13t-21 28q-76 102 -151 155l18 29q156 -39 238 -92q76 -55 76 -126zM1882 1260q0 -27 -22 -49q-22 -21 -38 -21t-21 1t-10 3t-9 4t-9 7t-9 8q-3 3 -9 11l-9 12q-3 3 -9 13q-7 9 -11 15t-19 28
t-24 31q-8 10 -26 35q-35 48 -107 104l21 27q311 -89 311 -229zM1872 974q0 -89 -70 -89q-30 0 -122 11t-208 11q-114 0 -313 -20q123 -76 123 -133q0 -27 -38 -78t-60 -96q-221 -506 -768 -740l-31 37q158 107 281 247q207 236 288 500q33 102 33 156t-16 84
q-219 -33 -293 -56t-148 -50q-73 -27 -118 -27q-44 0 -108 56q-64 57 -82 109t-13 138l24 10q75 -70 103 -78t83 -10q55 -1 471 55q414 56 494 64q80 7 126 19t68 18t28 6q100 0 183 -45t83 -99zM1294 1548q220 0 222 -125q0 -63 -84 -82q-144 -33 -346 -63t-307 -29
q-105 0 -163 52t-118 169l20 19q98 -59 236 -59t381 63q51 12 99 33q48 22 60 22z" />
    <glyph glyph-name="Identity.494" unicode="&#x30c8;" 
d="M786 1618q68 0 171 -59t104 -109q0 -31 -26 -75q-27 -45 -35 -111t-13 -279q324 -35 510 -145q150 -88 150 -224q0 -51 -33 -88q-33 -36 -89 -36t-92 30t-91 102q-54 73 -111 126q-102 86 -246 153q-10 -330 -3 -513t10 -255t3 -122q0 -119 -104 -117q-78 0 -121 72
t-43 190q0 31 12 91q11 61 23 167t12 492t-22 513q-15 80 -160 105l-2 33q128 59 196 59z" />
    <glyph glyph-name="Identity.495" unicode="&#x30c9;" 
d="M1784 1350q0 -70 -68 -70q-41 0 -102 82q-89 112 -187 188l19 27q338 -66 338 -227zM1510 489q-56 0 -92 30t-90 103t-111 126q-102 86 -246 153q-10 -330 -3 -513t10 -255t3 -122q0 -119 -104 -117q-78 0 -121 72t-43 190q0 31 12 91q12 61 23 167q12 106 12 492
t-23 513q-14 80 -159 105l-3 32q127 60 196 60t172 -60t104 -108q0 -31 -26 -75q-26 -45 -35 -111t-13 -279q324 -35 510 -145q150 -88 149 -224q0 -51 -33 -88t-89 -37zM1595 1171q1 -33 -21 -55t-50 -20q-28 0 -46 17q-19 17 -53 61q-90 130 -184 210l21 27
q333 -90 333 -240z" />
    <glyph glyph-name="Identity.496" unicode="&#x30ca;" 
d="M1002 1616q80 0 172 -53q94 -53 94 -103q0 -26 -23 -62t-25 -74t-6 -78q-2 -40 -4 -88t-4 -75q249 32 333 56t99 24q74 0 173 -50t100 -107q0 -92 -103 -93q-20 0 -185 10t-427 -1q-33 -394 -218 -648t-560 -395l-25 37q535 354 578 983q-217 -33 -385 -80
q-14 -4 -74 -31q-60 -26 -105 -26q-44 0 -123 68q-80 68 -98 115q-18 48 -20 124l27 10q88 -92 163 -92q104 0 619 68q4 264 -12 352q-8 59 -160 96l-2 31q121 82 201 82z" />
    <glyph glyph-name="Identity.497" unicode="&#x30cb;" 
d="M1622 571q82 1 196 -75t113 -138q-1 -42 -27 -70t-54 -28t-205 35q-178 35 -355 35q-419 0 -746 -107q-109 -34 -154 -34q-44 -1 -119 70q-74 71 -97 124t-22 141l30 13q94 -95 197 -95t531 42q430 42 516 50q86 7 135 22t61 15zM1606 1145q0 -93 -128 -101
q-76 -4 -270 -28q-193 -23 -338 -39t-186 -16q-41 1 -92 41t-84 90q-41 70 -62 155l29 17q123 -98 227 -99q176 0 406 45q108 21 183 67q24 13 34 13q93 0 187 -46t94 -99z" />
    <glyph glyph-name="Identity.498" unicode="&#x30cc;" 
d="M1427 1491q68 0 180 -87t111 -151q0 -37 -56 -88t-73 -80q-121 -213 -264 -401q211 -123 320 -270q68 -94 67 -191q0 -53 -34 -86t-82 -33t-83 27t-113 130t-229 241q-358 -371 -989 -570l-20 45q539 268 856 652q-203 160 -434 272l22 45q297 -68 527 -164
q182 270 239 473q6 25 -16 25q-68 -2 -270 -44t-250 -58t-99 -42q-51 -28 -82 -28q-67 0 -143 61t-93 122t-11 139l34 14q72 -102 170 -103q129 -2 678 89q31 4 72 32t65 29z" />
    <glyph glyph-name="Identity.499" unicode="&#x30cd;" 
d="M1866 362q0 -46 -33 -78t-77 -32t-74 20t-74 86q-92 127 -166 198t-187 128l15 33q258 -7 427 -101t169 -254zM1059 -133q-55 1 -97 65t-42 125q0 20 22 138q27 119 27 327v39q-406 -303 -828 -434l-22 41q326 172 642 434t425 455q10 20 8 27q-2 8 -33 6t-179 -41
t-206 -59t-103 -54q-44 -35 -86 -35t-109 51t-87 112t-14 161l29 10q80 -98 156 -98q76 1 297 35q220 34 301 54t117 48q36 29 56 29q57 0 151 -67t93 -107q1 -41 -63 -75t-70 -42q-127 -160 -322 -326q47 -43 47 -82q0 -14 -6 -102t-6 -281l12 -215q0 -139 -110 -139z
M1249 1438q0 -51 -36 -87t-93 -36t-102 61q-6 8 -26 37q-19 29 -27 41q-66 92 -224 201l19 28q207 -12 348 -72t141 -173z" />
    <glyph glyph-name="Identity.500" unicode="&#x30ce;" 
d="M1288 1291q0 54 -27 89q-28 35 -116 86l8 37q137 15 229 -17t176 -109t82 -136q0 -39 -51 -82t-65 -74q-190 -375 -510 -690t-748 -485l-24 41q336 227 611 569t392 619q43 98 43 152z" />
    <glyph glyph-name="Identity.501" unicode="&#x30cf;" 
d="M1933 471q4 -78 -37 -135t-101 -58q-60 -2 -91 40t-57 131q-70 231 -180 411t-285 328l24 33q281 -115 500 -328t227 -422zM717 1016q0 82 -135 151l6 31q96 18 157 14q97 -6 189 -105t92 -175q0 -41 -63 -94q-33 -29 -48 -45q-137 -168 -366 -342t-463 -277l-25 35
q233 170 445 433q211 263 211 374z" />
    <glyph glyph-name="Identity.502" unicode="&#x30d0;" 
d="M1905 422q4 -78 -37 -135q-42 -57 -102 -59t-91 41q-31 42 -57 130q-70 231 -180 411t-285 329l25 32q281 -115 500 -327t227 -422zM688 967q0 82 -135 151l6 31q96 18 158 14q98 -6 189 -105t91 -175q0 -40 -48 -82t-62 -58q-137 -168 -367 -342t-463 -276l-24 35
q233 170 444 433t211 374zM1903 1317q0 -72 -68 -72q-27 1 -47 19t-82 98t-160 156l19 26q338 -71 338 -227zM1714 1170q0 -88 -79 -89q-36 0 -89 78q-84 123 -186 211l20 29q193 -53 275 -127q59 -56 59 -102z" />
    <glyph glyph-name="Identity.503" unicode="&#x30d1;" 
d="M1905 422q4 -78 -37 -135q-42 -57 -102 -59t-91 41q-31 42 -57 130q-70 231 -180 411t-285 329l25 32q281 -115 500 -327t227 -422zM688 967q0 82 -135 151l6 31q96 18 158 14q98 -6 189 -105t91 -175q0 -40 -48 -82t-62 -58q-137 -168 -367 -342t-463 -276l-24 35
q233 170 444 433t211 374zM1678 1464q-62 0 -105 -43t-43 -105t43 -106t105 -43q62 0 106 43q43 44 43 106t-43 105q-44 43 -106 43zM1679 1083q-96 0 -165 69t-68 165q0 96 68 164q69 67 165 67t164 -68t68 -163q0 -96 -68 -165t-164 -69z" />
    <glyph glyph-name="Identity.504" unicode="&#x30d2;" 
d="M1632 987q-23 -15 -59 -30q-37 -15 -55 -23q-326 -150 -797 -285q-4 -197 -2 -250q2 -129 44 -161q43 -32 191 -33q265 0 466 56q73 19 83 20q236 0 236 -117q0 -90 -101 -121q-172 -59 -612 -59q-250 0 -369 47q-101 41 -122 182q-18 104 -12 447q5 344 6 478t-9 218
q-16 55 -162 94v25q133 61 191 61q88 -2 179 -69t91 -121q1 -27 -25 -66t-32 -70q-20 -129 -35 -460q428 195 600 354q43 41 32 87t-38 89l20 18q102 -14 170 -62t106 -106t38 -94q0 -34 -23 -49z" />
    <glyph glyph-name="Identity.505" unicode="&#x30d3;" 
d="M1958 1413q0 -33 -18 -52t-49 -19q-30 0 -49 20q-18 18 -82 101t-156 155l18 27q336 -72 336 -232zM1417 1468l21 29q190 -51 260 -119t69 -125q1 -33 -21 -55t-58 -20t-89 79q-94 135 -182 211zM896 184q259 0 467 57q73 19 83 19q236 0 235 -117q0 -90 -100 -120
q-172 -59 -612 -60q-253 0 -369 47q-99 40 -123 183q-17 99 -11 444q5 346 6 480t-9 218q-16 55 -162 95v24q133 61 191 62q88 -2 179 -69t91 -122q0 -27 -26 -65t-31 -70q-20 -129 -35 -461q428 195 600 354q43 41 32 87t-38 90l20 18q179 -25 276 -169q70 -107 11 -145
q-24 -16 -59 -29q-34 -13 -52 -22q-326 -150 -796 -284q-4 -197 -2 -250q2 -129 44 -162t190 -33z" />
    <glyph glyph-name="Identity.506" unicode="&#x30d4;" 
d="M1720 1638q92 0 158 -66t66 -158q0 -93 -66 -158q-66 -64 -158 -64t-158 64t-65 158q-1 92 65 158t158 66zM1720 1272q59 0 102 42q42 42 42 101t-42 101t-100 40q-58 0 -101 -40q-42 -40 -42 -100t41 -102t100 -42zM896 184q259 0 467 57q73 19 83 19q236 0 235 -117
q0 -90 -100 -120q-172 -59 -612 -60q-253 0 -369 47q-99 40 -123 183q-17 99 -11 444q5 346 6 480t-9 218q-16 55 -162 95v24q133 61 191 62q88 -2 179 -69t91 -122q0 -27 -26 -65t-31 -70q-20 -129 -35 -461q428 195 600 354q43 41 32 87t-38 90l20 18q179 -25 276 -169
q70 -107 11 -145q-24 -16 -59 -29q-34 -13 -52 -22q-326 -150 -796 -284q-4 -197 -2 -250q2 -129 44 -162t190 -33z" />
    <glyph glyph-name="Identity.507" unicode="&#x30d5;" 
d="M360 1430q109 -109 185 -109q119 0 411 31t356 44t112 40t77 26q70 0 187 -99t116 -155q0 -39 -55 -94t-68 -80q-195 -397 -501 -672q-307 -274 -783 -428l-24 39q409 215 699 563t368 691q6 25 -19 24q-96 0 -350 -48q-254 -47 -314 -65q-59 -18 -111 -46t-79 -27
q-63 0 -135 73t-86 130t-14 149z" />
    <glyph glyph-name="Identity.508" unicode="&#x30d6;" 
d="M487 1280q119 0 412 31t357 44t101 35q38 22 66 21q70 0 190 -103t120 -159q-1 -39 -49 -85t-60 -71q-195 -397 -502 -672t-782 -430l-25 41q412 215 701 558t364 688q6 25 -18 24q-90 0 -339 -48t-317 -66t-118 -42q-51 -24 -78 -24q-63 0 -135 74t-86 131t-15 149
l29 13q37 -37 59 -55q62 -54 125 -54zM2046 1495q0 -72 -68 -72q-29 -1 -52 23t-50 59q-88 113 -188 191l18 24q340 -64 340 -225zM1790 1270q-35 0 -90 78q-88 125 -187 208l21 29q190 -51 274 -127q59 -53 60 -115q0 -33 -22 -53t-56 -20z" />
    <glyph glyph-name="Identity.509" unicode="&#x30d7;" 
d="M487 1280q119 0 412 31t357 44t101 35q38 22 66 21q70 0 190 -103t120 -159q-1 -39 -49 -85t-60 -71q-195 -397 -502 -672t-782 -430l-25 41q412 215 701 558t364 688q6 25 -18 24q-90 0 -339 -48t-317 -66t-118 -42q-51 -24 -78 -24q-63 0 -135 74t-86 131t-15 149
l29 13q37 -37 59 -55q62 -54 125 -54zM1812 1651q-59 0 -100 -41q-41 -40 -41 -100t41 -102t100 -42t102 42q42 42 42 101t-42 101q-43 41 -102 41zM2040 1508q0 -94 -66 -160t-161 -66t-161 67t-65 161q0 94 66 159q65 66 159 66t161 -66t67 -161z" />
    <glyph glyph-name="Identity.510" unicode="&#x30d8;" 
d="M866 1245q86 0 191 -98q559 -518 772 -662q57 -37 90 -97t33 -118t-28 -88q-28 -31 -73 -30q-106 0 -342 247q-477 526 -543 593t-100 67q-33 0 -75 -53q-94 -119 -271 -400q-57 -90 -86 -108q-30 -18 -76 -18t-113 40q-67 41 -106 96t-43 158l25 19q63 -57 111 -57
t107 50q105 89 355 369q86 90 172 90z" />
    <glyph glyph-name="Identity.511" unicode="&#x30d9;" 
d="M230 682q48 0 127 67q80 67 335 353q86 90 172 90t191 -98q559 -518 772 -662q57 -37 90 -97q33 -59 33 -117t-28 -89t-73 -31q-106 0 -342 248q-477 526 -543 592t-100 68q-33 0 -76 -54q-94 -119 -270 -399q-57 -91 -86 -109q-30 -18 -76 -18t-113 41t-106 96t-43 158
l25 18q63 -57 111 -57zM1788 1163q-28 1 -50 19t-55 65q-90 133 -213 219l23 29q180 -37 289 -121q78 -66 78 -138t-72 -73zM1572 971q-38 0 -97 82q-94 147 -203 239l20 29q195 -53 295 -150q66 -63 64 -124q-1 -33 -21 -55t-58 -21z" />
    <glyph glyph-name="Identity.512" unicode="&#x30da;" 
d="M230 682q48 0 127 67q80 67 335 353q86 90 172 90t191 -98q559 -518 772 -662q57 -37 90 -97q33 -59 33 -117t-28 -89t-73 -31q-106 0 -342 248q-477 526 -543 592t-100 68q-33 0 -76 -54q-94 -119 -270 -399q-57 -91 -86 -109q-30 -18 -76 -18t-113 41t-106 96t-43 158
l25 18q63 -57 111 -57zM1552 1368q-66 0 -112 -47t-45 -113q0 -66 46 -112q45 -46 111 -45q66 0 113 46q47 45 47 111t-47 113t-113 47zM1552 967q-100 1 -171 71t-70 170q0 100 70 172q71 72 172 72t172 -71t71 -172t-72 -171t-172 -71z" />
    <glyph glyph-name="Identity.513" unicode="&#x30db;" 
d="M1777 190q-47 0 -77 26t-44 50q-13 24 -34 72q-110 244 -274 385l20 31q202 -45 352 -160t162 -264q4 -60 -27 -100t-78 -40zM1145 805q0 -121 10 -371t10 -274q0 -84 -56 -162t-132 -78q-51 0 -71 20t-38 57q-18 36 -28 52q-45 78 -156 152l14 32q162 -35 206 -37t46 29
q12 121 6 580l-2 147q-219 -25 -308 -47t-143 -50t-93 -28q-38 -1 -96 51t-87 115q-18 45 -12 146l29 10q42 -53 72 -75t73 -19q88 0 561 51q-8 246 -20 283t-48 55t-108 35l-2 32q102 55 186 55t168 -48q84 -47 84 -95q0 -25 -20 -59q-38 -65 -41 -236q253 35 341 60
q88 24 107 24q80 0 159 -43t79 -108q0 -80 -88 -80l-268 12q-119 0 -334 -20v-168zM223 248q1 44 13 68t23 36t54 44t66 50q150 121 213 289l41 -4q4 -129 -29 -263q-32 -134 -104 -231t-162 -98q-51 0 -83 33t-32 76z" />
    <glyph glyph-name="Identity.514" unicode="&#x30dc;" 
d="M1577 1647l18 26q185 -35 261 -86t81 -123q0 -26 -17 -48t-49 -23t-51 18q-20 18 -48 51q-93 113 -195 185zM1765 164q-47 0 -77 26t-44 49q-13 24 -34 72q-111 244 -275 385l21 31q202 -45 352 -160t162 -264q4 -61 -27 -100t-78 -39zM1133 778q0 -120 10 -370t10 -275
q0 -84 -56 -162t-132 -77q-50 0 -72 20q-21 20 -38 56t-28 53q-45 78 -155 151l14 33q162 -35 206 -38t46 30q12 121 6 579l-2 148q-219 -26 -308 -48q-90 -22 -144 -50t-92 -28t-97 52q-57 52 -81 106t-17 154l28 10q43 -52 73 -74t96 -21t538 52q-8 246 -20 283
q-12 38 -48 56t-108 34l-2 33q102 55 185 54t168 -48t85 -94q0 -25 -20 -60q-38 -66 -41 -235q280 39 408 78q24 6 40 6q80 0 159 -43t79 -109q0 -80 -88 -80l-269 13q-119 0 -333 -21v-168zM326 113q-51 1 -83 33t-32 88t36 92q11 12 54 44t66 50q150 121 213 289l41 -4
q4 -129 -29 -263t-105 -232q-72 -97 -161 -97zM1380 1524l19 26q180 -45 272 -118q63 -57 64 -115q-1 -29 -21 -49t-56 -20t-85 67q-111 143 -193 209z" />
    <glyph glyph-name="Identity.515" unicode="&#x30dd;" 
d="M1765 164q-47 0 -77 26t-44 49q-13 24 -34 72q-111 244 -275 385l21 31q202 -45 352 -160t162 -264q4 -61 -27 -100t-78 -39zM1133 778q0 -120 10 -370t10 -275q0 -84 -56 -162t-132 -77q-50 0 -72 20q-21 20 -38 56t-28 53q-45 78 -155 151l14 33q162 -35 206 -38t46 30
q12 121 6 579l-2 148q-219 -26 -308 -48q-90 -22 -144 -50t-92 -28t-97 52q-57 52 -81 106t-17 154l28 10q43 -52 73 -74t96 -21t538 52q-8 246 -20 283q-12 38 -48 56t-108 34l-2 33q102 55 185 54t168 -48t85 -94q0 -25 -20 -60q-38 -66 -41 -235q280 39 408 78q24 6 40 6
q80 0 159 -43t79 -109q0 -80 -88 -80l-269 13q-119 0 -333 -21v-168zM326 113q-51 1 -83 33t-32 88t36 92q11 12 54 44t66 50q150 121 213 289l41 -4q4 -129 -29 -263t-105 -232q-72 -97 -161 -97zM1686 1255q-94 0 -161 67t-67 161t67 162q67 67 162 67t161 -68t67 -161
q1 -94 -67 -161t-162 -67zM1687 1628q-61 0 -103 -42t-42 -102t42 -102t102 -43q60 0 103 42q42 43 42 103t-42 102t-102 42z" />
    <glyph glyph-name="Identity.516" unicode="&#x30de;" 
d="M399 895q-57 0 -133 69t-102 134t-25 157l29 13q41 -40 58 -56q49 -45 112 -47q260 0 1096 101q32 4 78 36t73 31q76 0 193 -104t116 -176q0 -35 -24 -51q-25 -15 -74 -30t-84 -42q-317 -252 -543 -398q182 -152 183 -329q0 -63 -37 -99t-90 -36t-84 40t-88 142t-129 190
q-143 188 -328 326l22 31q274 -72 463 -199q133 117 247 249t173 234q21 49 -28 45q-189 -18 -487 -67t-423 -86q-19 -6 -75 -42t-89 -36z" />
    <glyph glyph-name="Identity.517" unicode="&#x30df;" 
d="M1491 47q0 -125 -129 -125q-72 0 -219 129q-266 213 -676 348l8 33q217 4 460 -45q384 -77 511 -233q45 -55 45 -107zM1300 741q0 -47 -28 -79t-74 -31q-45 0 -79 17t-101 67q-264 174 -500 264l6 35q377 10 604 -84q172 -72 172 -189zM1298 1421q174 -82 175 -217
q0 -36 -27 -70q-44 -54 -137 -27q-25 8 -43 23t-40 33q-24 18 -36 29q-127 102 -245 162t-306 123l8 34q440 4 651 -90z" />
    <glyph glyph-name="Identity.518" unicode="&#x30e0;" 
d="M1827 172q0 -76 -41 -118t-87 -42q-47 0 -67 10q-38 17 -65 111q-28 94 -56 172q-155 -39 -499 -113t-388 -84q-44 -12 -98 -48t-75 -35q-68 0 -146 88t-82 159q-2 31 10 99l27 12q96 -68 146 -68q8 0 24 1l48 3q32 2 57 5q119 236 247 564t127 404q0 78 -96 174l10 29
q113 -5 183 -27t153 -96q82 -74 82 -123q0 -27 -47 -75t-64 -76q-270 -498 -432 -760q475 45 768 84q-85 184 -245 350l26 27q242 -94 411 -265t169 -362z" />
    </font>
</defs>
</svg>
